<svg width="64" height="64" xmlns="http://www.w3.org/2000/svg">
 <title/>

 <g>
  <title>background</title>
  <rect fill="none" id="canvas_background" height="402" width="582" y="-1" x="-1"/>
 </g>
 <g>
  <title>Layer 1</title>
  <path id="svg_1" fill="#f5f5f5" d="m38,41.5l0,5.5a2.035,2.035 0 0 1 -2,2l0,6.8a3.043,3.043 0 0 1 -2.8,2.2l-2.4,0a3.043,3.043 0 0 1 -2.8,-2.2l0,-6.8a2.035,2.035 0 0 1 -2,-2l0,-5.5a5.767,5.767 0 0 1 6,-5.5a5.767,5.767 0 0 1 6,5.5z"/>
  <circle id="svg_2" fill="#f5f5f5" r="4" cy="30" cx="32"/>
  <path id="svg_3" fill="#34c1ad" d="m38,41.5a5.767,5.767 0 0 0 -6,-5.5a5.767,5.767 0 0 0 -6,5.5l0,5.5a2.035,2.035 0 0 0 2,2l0,6.8a3.043,3.043 0 0 0 2.8,2.2l2.4,0a3.043,3.043 0 0 0 2.8,-2.2l0,-6.8a2.035,2.035 0 0 0 2,-2l0,-5.5zm-6,-7.5a4,4 0 1 0 -4,-4a4,4 0 0 0 4,4zm29,-14l0,3l-8,0l0,40l-42,0l0,-40l-8,0l0,-3l28.94,-19l29.06,19z"/>
  <path id="svg_4" fill="#107c82" d="m32,35a6.772,6.772 0 0 0 -7,6.5l0,5.5a3.01,3.01 0 0 0 2,2.814l0,6.146l0.05,0.151a4.033,4.033 0 0 0 3.75,2.889l2.4,0a4.033,4.033 0 0 0 3.75,-2.889l0.05,-6.3a3.01,3.01 0 0 0 2,-2.811l0,-5.5a6.772,6.772 0 0 0 -7,-6.5zm6,12a2.035,2.035 0 0 1 -2,2l0,6.8a3.043,3.043 0 0 1 -2.8,2.2l-2.4,0a3.043,3.043 0 0 1 -2.8,-2.2l0,-6.8a2.035,2.035 0 0 1 -2,-2l0,-5.5a5.767,5.767 0 0 1 6,-5.5a5.767,5.767 0 0 1 6,5.5l0,5.5z"/>
  <path id="svg_5" fill="#107c82" d="m37,30a5,5 0 1 0 -5,5a5.006,5.006 0 0 0 5,-5zm-5,4a4,4 0 1 1 4,-4a4,4 0 0 1 -4,4z"/>
  <polygon id="svg_6" fill="#13969d" points="3 23 11 23 53 23 61 23 61 20 3 20 3 23"/>
  <polygon id="svg_7" fill="#21abab" points="3 20 61 20 31.94 1 3 20"/>
 </g>
</svg>