<svg width="64" height="64" xmlns="http://www.w3.org/2000/svg">

 <g>
  <title>background</title>
  <rect fill="none" id="canvas_background" height="402" width="582" y="-1" x="-1"/>
 </g>
 <g>
  <title>Layer 1</title>
  <circle id="svg_2" r="32" fill="#76C2AF" cy="32" cx="32"/>
  <path id="svg_4" fill="#FFFFFF" d="m29.125,44.5c-0.485,0 -0.943,-0.235 -1.225,-0.635l-10.283,-14.557l-7.785,5.19c-0.69,0.46 -1.621,0.273 -2.08,-0.416c-0.459,-0.689 -0.273,-1.62 0.416,-2.08l9,-6c0.675,-0.45 1.588,-0.281 2.057,0.383l9.733,13.779l10.724,-19.755c0.242,-0.445 0.693,-0.739 1.199,-0.779c0.506,-0.038 0.998,0.177 1.308,0.58l13,16.875c0.505,0.656 0.383,1.598 -0.273,2.104c-0.656,0.505 -1.597,0.384 -2.104,-0.273l-11.593,-15.05l-10.775,19.85c-0.248,0.455 -0.712,0.751 -1.23,0.781c-0.03,0.002 -0.06,0.003 -0.089,0.003z"/>
  <circle id="svg_6" r="4.375" fill="#C75C5C" cy="23.125" cx="41"/>
  <path opacity="0.2" id="svg_9" fill="#231F20" d="m29.125,46.5c-0.485,0 -0.943,-0.235 -1.225,-0.635l-10.283,-14.557l-7.785,5.19c-0.69,0.459 -1.621,0.272 -2.08,-0.416c-0.459,-0.689 -0.273,-1.621 0.416,-2.08l9,-6c0.676,-0.453 1.588,-0.281 2.057,0.383l9.733,13.779l10.724,-19.754c0.242,-0.446 0.693,-0.739 1.199,-0.779c0.505,-0.042 0.998,0.178 1.308,0.58l13,16.875c0.505,0.656 0.383,1.598 -0.273,2.104c-0.656,0.506 -1.597,0.384 -2.104,-0.273l-11.593,-15.05l-10.776,19.849c-0.248,0.456 -0.712,0.751 -1.23,0.782c-0.029,0.001 -0.059,0.002 -0.088,0.002z"/>
  <path id="svg_11" fill="#FFFFFF" d="m29.125,44.5c-0.485,0 -0.943,-0.235 -1.225,-0.635l-10.283,-14.557l-7.785,5.19c-0.69,0.46 -1.621,0.273 -2.08,-0.416c-0.459,-0.689 -0.273,-1.62 0.416,-2.08l9,-6c0.675,-0.45 1.588,-0.281 2.057,0.383l9.733,13.779l10.724,-19.755c0.242,-0.445 0.693,-0.739 1.199,-0.779c0.506,-0.038 0.998,0.177 1.308,0.58l13,16.875c0.505,0.656 0.383,1.598 -0.273,2.104c-0.656,0.505 -1.597,0.384 -2.104,-0.273l-11.593,-15.05l-10.775,19.85c-0.248,0.455 -0.712,0.751 -1.23,0.781c-0.03,0.002 -0.06,0.003 -0.089,0.003z"/>
  <circle opacity="0.2" id="svg_13" r="4.375" fill="#231F20" cy="25.125" cx="41"/>
  <circle id="svg_15" r="4.375" fill="#4F5D73" cy="23.125" cx="41"/>
 </g>
</svg>