<?xml version="1.0" encoding="utf-8"?>
<!-- Generator: Adobe Illustrator 24.2.1, SVG Export Plug-In . SVG Version: 6.00 Build 0)  -->
<svg version="1.2" baseProfile="tiny" id="Layer_1" xmlns="http://www.w3.org/2000/svg" xmlns:xlink="http://www.w3.org/1999/xlink"
	 x="0px" y="0px" viewBox="0 0 661.6 210.4" overflow="visible" xml:space="preserve">
<g>
	<g>
		<path fill="#343A40" d="M262.8,113.8H276v55.8c0,10.1,1.8,17.6,5.5,22.5c3.7,4.9,9.3,7.3,16.9,7.3c7.6,0,13.4-2.6,17.3-7.8
			c3.9-5.2,5.8-13,5.8-23.2v-54.6h12.3v54.9c0,13.9-3,24.3-8.9,31.2c-6,7-14.9,10.4-26.9,10.4c-11.6,0-20.3-3.4-26.3-10.2
			c-6-6.8-8.9-16.9-8.9-30.1V113.8z"/>
		<path fill="#343A40" d="M359.2,113.8h49v10.3h-35.8v30.3h34.3v10.7h-34.3v43.4h-13.3V113.8z"/>
		<path fill="#343A40" d="M451.3,113.8h16.1l37.2,94.8h-14.3l-9.1-24.3H436l-9.1,24.3h-13.4L451.3,113.8z M459.1,125.4l-18.8,48.2
			h37L459.1,125.4z"/>
		<path fill="#343A40" d="M515.2,113.8h25.4c10.3,0,18.2,2.1,23.8,6.3c5.6,4.2,8.4,10,8.4,17.6c0,5.2-1.5,9.7-4.5,13.3
			c-3,3.6-7.3,6.2-13,7.7c6.6,1.6,11.6,4.4,15,8.4c3.4,4,5.2,9,5.2,15c0,8.4-3,14.9-9.1,19.5c-6,4.6-14.6,6.9-25.7,6.9h-25.5V113.8z
			 M528.4,124.2v30.2h9.7c6.8,0,12.1-1.3,15.7-4c3.6-2.7,5.5-6.5,5.5-11.4c0-4.8-1.7-8.5-5.1-11c-3.4-2.5-8.4-3.8-14.8-3.8H528.4z
			 M528.4,164.7v33.1h10.1c7.7,0,13.5-1.4,17.4-4.3c3.9-2.8,5.9-7,5.9-12.5c0-5.4-1.8-9.4-5.5-12.2c-3.6-2.8-9-4.1-16.2-4.1H528.4z"
			/>
		<path fill="#343A40" d="M662.1,117.2l-0.5,11.5c-3.6-1.5-7.2-2.6-10.7-3.4c-3.5-0.8-7-1.1-10.6-1.1c-11.4,0-20.4,3.3-27.1,10
			c-6.7,6.6-10,15.6-10,26.9c0,11.4,3.3,20.4,10,26.9c6.7,6.5,15.8,9.8,27.3,9.8c3.6,0,7.2-0.3,10.7-1c3.5-0.7,6.9-1.7,10.3-3
			l0.4,11.9c-3.3,1.1-6.8,1.9-10.5,2.4c-3.7,0.6-7.7,0.8-11.9,0.8c-15.5,0-27.8-4.2-36.7-12.6c-9-8.4-13.4-19.9-13.4-34.5
			c0-14.7,4.6-26.4,13.7-35.2c9.1-8.7,21.4-13.1,36.9-13.1c4.1,0,8.1,0.3,11.8,0.9C655.3,115.1,658.8,116,662.1,117.2z"/>
	</g>
	<path fill="#343A40" d="M60.9,29.5c-6.6,11.5-9,24.3-7.5,36.5l13.8,8c-4.2-12.4-3.2-26.4,3.9-38.6c13-22.5,41.8-30.3,64.4-17.2
		c22.5,13,30.3,41.8,17.2,64.4c-7,12.2-18.7,20-31.5,22.6l13.8,8c11.3-4.8,21.2-13.2,27.9-24.7c16.3-28.2,6.6-64.2-21.6-80.5
		C113.2-8.4,77.2,1.3,60.9,29.5"/>
	<path fill="#343A40" d="M29.5,201.8c28.2,16.3,64.2,6.6,80.5-21.6c6.6-11.5,8.9-24.3,7.5-36.5l-13.8-8c4.2,12.4,3.2,26.4-3.9,38.6
		c-13,22.5-41.8,30.3-64.4,17.2c-22.5-13-30.3-41.8-17.2-64.4c7-12.2,18.7-20,31.5-22.6l-13.8-8c-11.3,4.8-21.2,13.2-27.9,24.7
		C-8.4,149.5,1.3,185.5,29.5,201.8"/>
	<path fill="#343A40" d="M172.9,104.3l6.2-10.7c-19.1-4.8-39.5,0.5-54,13.8l10.8,6.2C146.4,105.5,159.9,102.1,172.9,104.3
		 M205.8,174.3c-13,22.5-41.8,30.3-64.4,17.3c-17.1-9.9-25.7-28.9-23.1-47.4l-10.8-6.3c-5.5,24.5,5.2,50.6,28.1,63.8
		c28.2,16.3,64.2,6.6,80.5-21.6c12.9-22.4,9.5-49.8-6.7-68.2l-6.3,10.9C213.7,137.5,215.4,157.6,205.8,174.3"/>
	<path fill="#343A40" d="M118.3,126.5l-1.7-1L20.2,69.9c6.2,7.2,8.4,15.7,5.4,20.8l92.6,53.5c0.4-2.9,1.1-5.8,2.1-8.7
		c0.2-0.6,0.4-1.1,0.6-1.7c0.1-0.5,0.2-1.1,0.2-1.6C121.1,129.9,120,127.8,118.3,126.5"/>
	<path fill="#343A40" d="M8.2,39.8c-4,7.1,0.1,16,6.5,22.8l104.2,60.2l0.4,0.2c1,0.5,2.1,0.8,3.3,0.8c2.2,0,4.1-1,5.4-2.5
		c0.1-0.2,0.3-0.3,0.4-0.5c2.3-2.7,4.8-5.2,7.5-7.3L8.2,39.8z"/>
</g>
</svg>
