<?xml version="1.0" encoding="utf-8"?>
<!-- Generator: Adobe Illustrator 24.2.1, SVG Export Plug-In . SVG Version: 6.00 Build 0)  -->
<svg version="1.1" id="Layer_1" xmlns="http://www.w3.org/2000/svg" xmlns:xlink="http://www.w3.org/1999/xlink" x="0px" y="0px"
	 viewBox="0 0 329 93.8" style="enable-background:new 0 0 329 93.8;" xml:space="preserve">
<style type="text/css">
	.st0{fill-rule:evenodd;clip-rule:evenodd;fill:#343A40;}
</style>
<g id="Layer_x0020_1">
	<g id="_71624440">
		<path id="_68455448" class="st0" d="M164.5,18.9l-54.8-0.2l0.1,18.8l36.6,0.1v18.5l-36.6,0.1l-0.1,37.5H91.4V0h73.1L164.5,18.9
			L164.5,18.9z M173.6,93.7V74.9v-0.1l0,0h0.1l0.1,0l0.2,0h0.2h45.3l0.5,0l0.4,0l0.5-0.1l0.4-0.1l0.4-0.1l0.4-0.1l0.4-0.1l0.4-0.2
			l0.4-0.2l0.4-0.2l0.4-0.2l0.4-0.3l0.3-0.3l0.3-0.3l0.3-0.3l0.3-0.3l0.3-0.3l0.3-0.3l0.3-0.3l0.3-0.3l0.3-0.4l0.2-0.4l0.2-0.4
			l0.2-0.4l0.2-0.4l0.2-0.4l0.1-0.5l0.1-0.4l0.1-0.5l0-0.4l0-0.5l0-0.5l0-0.5l0-0.5l0-0.5l-0.1-0.5l-0.1-0.4l-0.1-0.4l-0.2-0.4
			l-0.2-0.4l-0.2-0.4l-0.2-0.4l-0.2-0.4l-0.3-0.4l-0.3-0.4l-0.3-0.3l-0.3-0.3l-0.3-0.3l-0.3-0.3l-0.3-0.3l-0.3-0.3l-0.3-0.3
			l-0.4-0.2l-0.4-0.3l-0.4-0.2l-0.4-0.2l-0.4-0.2l-0.4-0.2l-0.4-0.1l-0.4-0.1l-0.4-0.1l-0.5-0.1l-0.4,0l-0.5,0l-18.3,0.2l-1.4,0
			l-1.4-0.1l-1.4-0.2l-1.3-0.3l-1.4-0.3l-1.3-0.4l-1.3-0.4l-1.2-0.5l-1.2-0.6L188,53l-1.2-0.7l-1.1-0.7l-1.1-0.8l-1-0.9l-1-0.9
			l-0.9-0.9l-0.9-1l-0.9-1l-0.8-1.1l-0.8-1.1l-0.7-1.1l-0.7-1.2l-0.6-1.2l-0.5-1.3l-0.5-1.3l-0.4-1.3l-0.4-1.3l-0.3-1.4l-0.3-1.4
			l-0.2-1.4l-0.1-1.5l-0.1-1.5l0.1-1.5l0.1-1.4l0.2-1.4l0.3-1.4l0.3-1.4l0.4-1.4l0.4-1.3l0.5-1.3l0.5-1.2l0.6-1.2l0.7-1.2l0.7-1.2
			l0.8-1.1l0.8-1l0.9-1l0.9-1l0.9-0.9l1-0.9l1-0.8l1.1-0.8l1.1-0.7l1.2-0.7l1.2-0.6l1.2-0.6l1.2-0.5l1.3-0.4l1.3-0.4l1.4-0.3
			l1.3-0.3l1.4-0.2l1.4-0.1l1.4,0L246.7,0v18.8l0,0h-45.6h-0.5l-0.4,0l-0.5,0.1l-0.4,0.1l-0.4,0.1l-0.4,0.1l-0.4,0.2l-0.4,0.2
			l-0.4,0.2l-0.4,0.2l-0.4,0.2l-0.4,0.2l-0.3,0.3l-0.3,0.3l-0.3,0.3l-0.3,0.3l-0.3,0.3l-0.3,0.3l-0.3,0.3l-0.3,0.4l-0.3,0.4
			l-0.2,0.4l-0.2,0.4l-0.2,0.4l-0.2,0.4l-0.2,0.4l-0.1,0.4l-0.1,0.4l-0.1,0.5l0,0.5l-0.1,0.5v0.5v0.5l0.1,0.5l0,0.5l0.1,0.4l0.1,0.5
			l0.1,0.4l0.2,0.4l0.2,0.4l0.2,0.4l0.2,0.4l0.2,0.4l0.3,0.4l0.3,0.3l0.3,0.4l0.3,0.3l0.3,0.3l0.3,0.3l0.3,0.3l0.3,0.3l0.3,0.3
			l0.4,0.3l0.4,0.2l0.4,0.2l0.4,0.2l0.4,0.2l0.4,0.2l0.4,0.1l0.4,0.1l0.4,0.1l0.5,0l0.4,0.1h0.5l18.3-0.2l1.4,0l1.4,0.1l1.4,0.2
			l1.4,0.3l1.3,0.3l1.3,0.4l1.3,0.4l1.3,0.5l1.2,0.6l1.2,0.6l1.2,0.7l1.1,0.8l1.1,0.8l1,0.8l1,0.9l0.9,0.9l0.9,1l0.9,1l0.8,1.1
			l0.8,1.1l0.7,1.2l0.7,1.2l0.6,1.2l0.6,1.2l0.5,1.3l0.4,1.3l0.4,1.4l0.3,1.4l0.2,1.4l0.2,1.4l0.1,1.4l0.1,1.5l-0.1,1.5l-0.1,1.5
			l-0.2,1.4l-0.2,1.4l-0.3,1.4l-0.4,1.3l-0.4,1.3l-0.5,1.3l-0.6,1.3l-0.6,1.2l-0.7,1.2l-0.7,1.1l-0.8,1.1l-0.8,1.1l-0.9,1l-0.9,1
			l-0.9,0.9l-1,0.9l-1,0.9l-1.1,0.8l-1.1,0.7l-1.2,0.7l-1.2,0.6l-1.2,0.6l-1.3,0.5l-1.3,0.4l-1.3,0.4l-1.3,0.3l-1.4,0.3l-1.4,0.2
			l-1.4,0.1l-1.4,0L173.6,93.7L173.6,93.7z M292.8,18.8H329V-0.1l-36.3,0v0L290.9,0L289,0.1l-1.8,0.3l-1.8,0.3l-1.8,0.4l-1.7,0.5
			l-1.7,0.6l-1.7,0.7l-1.6,0.7l-1.6,0.9l-1.5,0.9l-1.5,1l-1.4,1l-1.4,1.1l-1.3,1.2l-1.3,1.3l-1.2,1.3l-1.2,1.4l-1.1,1.4l-1,1.5
			l-1,1.5l-0.9,1.6l-0.8,1.6l-0.7,1.7l-0.7,1.7l-0.6,1.7l-0.5,1.8l-0.4,1.8l-0.3,1.9l-0.2,1.9l-0.2,1.9l0,1.9v0.1v18.5v0.1l0,2
			l0.2,1.9l0.2,1.9l0.3,1.8l0.4,1.8l0.5,1.8l0.6,1.7l0.7,1.7l0.7,1.7l0.8,1.6l0.9,1.6l1,1.5l1,1.5l1.1,1.4l1.2,1.4l1.2,1.3l1.3,1.2
			l1.3,1.2l1.4,1.1l1.4,1l1.5,1l1.5,0.9l1.6,0.8l1.6,0.8l1.7,0.7l1.7,0.6l1.7,0.5l1.8,0.4l1.8,0.3l1.8,0.3l1.9,0.2l1.9,0v0l36.3,0
			V74.9h-36.3l-0.9,0l-0.9-0.1l-0.9-0.1l-0.9-0.2l-0.9-0.2l-0.9-0.3l-0.9-0.3l-0.8-0.3l-0.8-0.4l-0.8-0.4l-0.8-0.5l-0.8-0.5
			l-0.7-0.5l-0.7-0.5l-0.7-0.6l-0.6-0.6l-0.6-0.6l-0.6-0.7l-0.6-0.7l-0.5-0.7l-0.5-0.8l-0.4-0.8l-0.4-0.8l-0.3-0.8l-0.3-0.9
			l-0.3-0.9l-0.3-0.9l-0.2-0.9l-0.2-0.9l-0.1-0.9l-0.1-0.9l0-1V37.5l0-1l0.1-0.9l0.1-0.9l0.2-0.9l0.2-0.9l0.3-0.9l0.3-0.9l0.3-0.9
			l0.3-0.8l0.4-0.8l0.4-0.8l0.5-0.8l0.5-0.7l0.6-0.7l0.6-0.7l0.6-0.7l0.6-0.6l0.7-0.6l0.7-0.5l0.7-0.5l0.8-0.5L284,21l0.8-0.4
			l0.8-0.4l0.8-0.3l0.9-0.3l0.9-0.3l0.9-0.2L290,19l0.9-0.1l0.9-0.1L292.8,18.8L292.8,18.8z M73.1,56.2l-0.1,1.9L72.9,60l-0.3,1.9
			l-0.3,1.8L72,65.5l-0.5,1.8l-0.6,1.8l-0.6,1.7l-0.8,1.6l-0.8,1.6l-0.9,1.5l-0.9,1.5l-1,1.5L64.8,80l-1.1,1.4l-1.2,1.3l-1.3,1.2
			l-1.3,1.2l-1.4,1.1l-1.5,1l-1.5,1L54,89.2L52.4,90l-1.6,0.8l-1.7,0.7L47.4,92l-1.7,0.5l-1.8,0.4l-1.8,0.3l-1.8,0.3l-1.9,0.2
			l-1.9,0l-1.9,0l-1.9-0.2L31,93.2l-1.8-0.3l-1.8-0.4L25.7,92L24,91.4l-1.7-0.7L20.7,90l-1.6-0.8l-1.5-0.9l-1.5-1l-1.5-1l-1.4-1.1
			L12,83.9l-1.3-1.2l-1.2-1.3L8.3,80l-1.1-1.4l-1-1.5l-0.9-1.5l-0.9-1.5l-0.8-1.6l-0.7-1.6l-0.7-1.7l-0.6-1.8l-0.5-1.8l-0.4-1.8
			l-0.3-1.8L0.2,60L0,58.1l0-1.9V-0.1h18.3v56.2l0,0.9l0.1,1l0.1,0.9l0.2,0.9l0.2,0.9l0.3,0.9l0.3,0.9l0.3,0.9l0.3,0.9l0.4,0.8
			l0.4,0.8l0.5,0.8l0.5,0.8l0.6,0.7l0.6,0.7l0.6,0.6l0.6,0.6l0.7,0.6l0.7,0.6l0.7,0.5l0.7,0.5l0.8,0.4l0.8,0.4l0.8,0.4l0.9,0.3
			l0.9,0.3l0.9,0.3l0.9,0.2l0.9,0.2l0.9,0.1l0.9,0.1l0.9,0l0.9,0l0.9-0.1l0.9-0.1l0.9-0.2l0.9-0.2l0.9-0.3l0.9-0.3l0.8-0.3l0.8-0.4
			l0.8-0.4l0.8-0.4l0.7-0.5l0.7-0.5l0.7-0.6l0.7-0.6l0.6-0.6l0.6-0.6l0.6-0.7l0.5-0.7l0.5-0.8l0.5-0.8l0.4-0.8l0.4-0.8l0.4-0.9
			l0.3-0.9l0.3-0.9l0.3-0.9l0.2-0.9l0.2-0.9l0.1-0.9l0.1-1l0-0.9V-0.1h18.3L73.1,56.2L73.1,56.2z"/>
	</g>
</g>
</svg>
