<?xml version="1.0" encoding="utf-8"?>
<!-- Generator: Adobe Illustrator 24.2.1, SVG Export Plug-In . SVG Version: 6.00 Build 0)  -->
<svg version="1.2" baseProfile="tiny" id="Layer_1" xmlns="http://www.w3.org/2000/svg" xmlns:xlink="http://www.w3.org/1999/xlink"
	 x="0px" y="0px" viewBox="0 0 597.4 195" overflow="visible" xml:space="preserve">
<g id="Layer_2_1_">
</g>
<g id="Layer_1_1_">
	<path fill-rule="evenodd" fill="#343A40" d="M489.4,29.5l16.1-27.9l16.1,27.9H489.4L489.4,29.5z M527.3,29.5l16.1-27.9l16.1,27.9
		H527.3L527.3,29.5z M470.5,62.3l16.1-27.9l16.1,27.9L470.5,62.3L470.5,62.3z M546.2,62.3l16.1-27.9l16.1,27.9L546.2,62.3
		L546.2,62.3z M508.3,62.3l16.1-27.9l16.1,27.9L508.3,62.3L508.3,62.3z M527.3,95.1l16.1-27.9l16.1,27.9H527.3L527.3,95.1z
		 M597.4,32.8l-16.1,27.9l-16.1-27.9L597.4,32.8L597.4,32.8z M540.6,0l-16.1,27.9L508.3,0H540.6L540.6,0z M559.5,32.8l-16.1,27.9
		l-16.1-27.9C527.3,32.8,559.5,32.8,559.5,32.8L559.5,32.8z M521.7,32.8l-16.1,27.9l-16.1-27.9C489.4,32.8,521.7,32.8,521.7,32.8
		L521.7,32.8z M540.6,65.5l-16.1,27.9l-16.1-27.9C508.3,65.5,540.6,65.5,540.6,65.5L540.6,65.5z M578.4,65.5l-16.1,27.9l-16.1-27.9
		C546.2,65.5,578.4,65.5,578.4,65.5L578.4,65.5z"/>
	<path fill-rule="evenodd" fill="#343A40" d="M96.6,157V62.3h24.8v11.2c3.6-4.6,7.7-8,12.5-10.3s10.2-3.4,16.1-3.4
		c10.5,0,18.3,2.7,23.5,8.2c5.2,5.4,7.8,13.6,7.8,24.5V157H156V99.8c0-6.8-1.2-11.7-3.4-14.5c-2.3-2.9-6-4.4-11.2-4.4
		c-6,0-10.7,1.8-14.2,5.4s-5.2,8.4-5.2,14.6V157H96.6L96.6,157z M252.5,128.3h25.3c-2.6,10-7.7,17.8-15.5,23.5
		c-7.8,5.7-17.2,8.5-28.4,8.5c-13.7,0-24.6-4.6-32.6-13.8s-12-21.7-12-37.4c0-15.5,3.9-27.7,11.8-36.7c7.9-9,18.7-13.4,32.4-13.4
		c14.5,0,25.8,4.4,33.7,13.2c7.9,8.8,11.8,21.3,11.8,37.6c0,1.8,0,3.2,0,4.1s-0.1,1.8-0.2,2.6h-63.2c0.4,7.4,2.2,13,5.4,16.8
		c3.3,3.8,8,5.6,14.2,5.6c4.4,0,7.9-0.9,10.7-2.6C248.6,134.5,250.8,131.9,252.5,128.3L252.5,128.3z M215.6,99.7h37.3
		c-0.2-6.4-1.9-11.3-5.1-14.6c-3.2-3.3-7.7-5-13.6-5c-5.5,0-9.8,1.7-13,5.1C217.9,88.5,216.1,93.4,215.6,99.7L215.6,99.7z
		 M311,128.3c0.6,3.8,2.3,6.7,5,8.6c3.2,2.3,8.1,3.5,14.6,3.5c4.9,0,8.8-0.8,11.5-2.5c2.7-1.6,4-4,4-7c0-4.3-5.1-7.5-15.2-9.7
		c-4.1-0.9-7.4-1.6-9.8-2.3c-12.3-3.1-20.9-6.8-25.7-11.1c-4.8-4.3-7.2-10.1-7.2-17.4c0-9.7,3.5-17.4,10.5-23
		c7-5.7,16.5-8.5,28.4-8.5c12.7,0,22.6,2.8,29.8,8.4c7.2,5.6,11.1,13.6,11.5,23.8H344c-0.2-4-1.7-7.1-4.6-9.3
		c-2.9-2.2-6.9-3.3-12-3.3c-4.8,0-8.4,0.7-10.7,2.2c-2.3,1.5-3.5,3.6-3.5,6.5c0,3.8,6.3,7.1,18.9,10c2.9,0.7,5.2,1.2,6.9,1.6
		c12.6,3,21.2,6.5,25.8,10.7c4.6,4.2,6.9,10,6.9,17.7c0,10.8-3.8,18.9-11.4,24.6c-7.6,5.6-18.6,8.4-33.1,8.4
		c-13.1,0-23.3-2.9-30.7-8.8c-7.1-5.6-10.8-13.4-11.1-23.2H311V128.3z M445.8,110.2c0-9.5-1.8-16.8-5.4-21.8s-8.8-7.5-15.7-7.5
		c-6.7,0-11.9,2.5-15.4,7.5s-5.3,12.3-5.3,21.9c0,8.9,1.8,15.9,5.5,20.7c3.7,4.9,8.9,7.3,15.6,7.3c6.4,0,11.4-2.5,15-7.5
		C444,125.8,445.8,118.9,445.8,110.2L445.8,110.2z M379.5,195V62.3h24.1v12.8c3.7-5.6,7.8-9.6,12.2-12.2c4.5-2.6,9.8-3.8,15.9-3.8
		c11.7,0,21.1,4.6,28.4,13.8S471,94.2,471,109.2c0,15.2-3.6,27.5-10.9,36.9c-7.3,9.4-16.6,14.2-28.1,14.2c-6,0-11.4-1.3-16.1-3.8
		c-4.7-2.6-8.7-6.3-11.8-11.1V195H379.5L379.5,195z M84.7,62.3V157H59.9v-11.2c-3.6,4.6-7.8,8-12.6,10.3s-10.2,3.4-16.1,3.4
		c-10.4,0-18.2-2.7-23.4-8.2C2.6,145.9,0,137.7,0,126.9V62.3h25.4v57.2c0,6.7,1.1,11.5,3.4,14.4s6,4.3,11.2,4.3
		c5.9,0,10.6-1.8,14.1-5.3c3.5-3.6,5.3-8.4,5.3-14.6v-56L84.7,62.3L84.7,62.3z"/>
</g>
</svg>
