<?xml version="1.0" encoding="utf-8"?>
<!-- Generator: Adobe Illustrator 24.2.1, SVG Export Plug-In . SVG Version: 6.00 Build 0)  -->
<svg version="1.1" id="Layer_1" xmlns="http://www.w3.org/2000/svg" xmlns:xlink="http://www.w3.org/1999/xlink" x="0px" y="0px"
	 viewBox="0 0 1735.1 566.7" style="enable-background:new 0 0 1735.1 566.7;" xml:space="preserve">
<style type="text/css">
	.st0{fill-rule:evenodd;clip-rule:evenodd;fill:#393939;}
	.st1{fill-rule:evenodd;clip-rule:evenodd;fill:#696969;}
</style>
<g>
	<polygon class="st0" points="881.6,372.2 881.6,265.4 927.5,265.4 989.7,339.1 989.7,266.1 1021.6,266.1 1021.6,372.2 972.8,372.2 
		912.9,302.2 912.9,372.2 	"/>
	<polygon class="st0" points="1048.5,372.2 1048.5,264.7 1078.4,264.7 1078.4,372.2 	"/>
	<path class="st0" d="M1198.1,333h29.7v14.2c0,14.9-12.8,26.4-27.5,24.9h-61.9c-15.5,0-28.3-11.6-29.9-26.9v-53.8
		c0-16,13.9-28.6,29.9-26.9h61.9c14.2,0,26.3,10.8,27.7,24.9v14.4h-29.9c-0.2-7.2-6.3-12.8-13.4-12.5h-31.3c-8-0.3-14.7,5.8-15,13.4
		v26.9c0.3,8,7,13.8,15,13.4h31.3C1191.9,345.7,1197.8,340.2,1198.1,333L1198.1,333z"/>
	<path class="st0" d="M1288.2,355.2l-7.3,17.2h-31.7l44.1-106.5h48.9l45.3,106.5h-34.4l-4.8-17.2H1288.2L1288.2,355.2z
		 M1335.9,329.6h-36.7l18.3-45.3L1335.9,329.6L1335.9,329.6z"/>
	<polygon class="st0" points="1442.6,310.6 1442.6,371.8 1412.5,371.8 1412.5,264.2 1447.1,264.2 1501,348 1551.2,264.2 
		1585.2,264.2 1585.2,371.8 1555.3,371.8 1555.3,314.1 1520.7,371.8 1481.7,371.8 	"/>
	<path class="st0" d="M1612.7,372.2v-109h94.3c14.7,0,25.6,12.2,28.1,26.9v29.4c0,14.7-13.4,28.1-28.1,28.1h-62.4v24.6H1612.7
		L1612.7,372.2z M1644.6,318.3v-26.9h47.7c18.3,0,18.3,26.9,0,26.9H1644.6L1644.6,318.3z"/>
	<path class="st0" d="M750.6,331.3V264h-29.9V346c0,14.2,11.6,25.8,25.8,25.8h84c14.2,0,25.8-11.4,25.8-25.8v-81h-30.2v66.5
		c0,7.3-6.1,13.4-13.4,13.4H764C756.7,344.7,750.6,338.6,750.6,331.3L750.6,331.3z"/>
	<path class="st1" d="M372.8,514.3c-14.3,0-25.9,11.7-25.9,26c0,14.4,11.6,26,25.9,26s25.9-11.7,25.9-26
		C398.7,525.9,387.1,514.3,372.8,514.3L372.8,514.3z"/>
	<path class="st1" d="M646,320.4c-14.4,0-26,11.7-26,26c0,14.4,11.7,26,26,26c14.4,0,26-11.7,26-26S660.3,320.4,646,320.4L646,320.4
		z"/>
	<path class="st1" d="M432.7,0c-14.4,0-26,11.7-26,26c0,14.4,11.7,26,26,26c14.4,0,26-11.7,26-26C458.8,11.7,447.1,0,432.7,0
		L432.7,0z"/>
	<path class="st0" d="M308.1,248.2V6.5c28,0.6,55.8,4.6,82.9,12c-2.8,16.6,4.3,33.1,18.1,42.7l-80,191.3
		C322.2,250.3,315.2,248.9,308.1,248.2L308.1,248.2z"/>
	<path class="st0" d="M287,248.2V6.9c-38.1,1.9-75.3,11.3-109.8,27.5l89.5,218C273.2,250.2,280,248.8,287,248.2L287,248.2z"/>
	<path class="st0" d="M250.5,258.4l-89-216.8c-34.2,17.5-65.1,41.2-90.9,69.7l160.2,160.2C236.9,266.5,243.4,262.1,250.5,258.4
		L250.5,258.4z"/>
	<path class="st0" d="M59.5,124.5C36,152.4,18.1,184.8,7,219.5l199.1,83.3c3.4-6.8,7.7-13.2,12.7-19L59.5,124.5L59.5,124.5z"/>
	<path class="st0" d="M199.2,318.9L2.8,236.7c-4.5,35.1-3.7,70.5,2.6,105.3h189.1C195.2,334.1,196.8,326.4,199.2,318.9L199.2,318.9z
		"/>
	<path class="st0" d="M194.6,359.3H10.3c11.2,29,25.7,56.6,43.1,82.3L199,381.8C196.8,374.5,195.3,367,194.6,359.3L194.6,359.3z"/>
	<path class="st0" d="M219.2,416.4c-5.2-6-9.6-12.6-13.1-19.7L65.5,454.3c19.6,19.5,41.2,36.6,64.4,51.3L219.2,416.4L219.2,416.4z"
		/>
	<path class="st0" d="M330.9,545.2c-2-16.7,5.6-32.9,19.8-41.9l-22.3-55.1c-33.7,10.4-70.3,3-97.2-19.8l-86,86
		C202.1,544.7,267.3,555.5,330.9,545.2L330.9,545.2z"/>
	<path class="st0" d="M343.4,442l22.4,55.5c17.3-2.9,34.5,4.9,43.8,19.8c9.6-4.5,19-9.2,28.4-14.2l-74.3-74.4
		C357.4,433.9,350.6,438.5,343.4,442L343.4,442z"/>
	<path class="st0" d="M610.8,381c-6.2-6.1-10.5-14-12.3-22.7H399.7c-1.7,21.4-10.2,41.7-24,58.1l78,78
		C510.4,462.9,563.1,424.9,610.8,381L610.8,381z"/>
	<path class="st0" d="M498.5,81.1c9.4,9.4,18.1,19.2,26.2,29.7L363.5,272.1c-5.9-4.9-12.3-9.1-19-12.7l80-191.3
		c14.8,3,30.2-2.2,40.4-13.4C476.7,62.6,488,71.6,498.5,81.1L498.5,81.1z"/>
	<path class="st0" d="M585.2,223.1c-9.7-22.9-20.3-45.4-31.9-67.4c-5.9-10.4-12.2-20.6-18.7-30.6l-159,159c5.1,6.1,9.5,12.7,13,19.7
		L585.2,223.1L585.2,223.1z"/>
	<path class="st0" d="M592,239c9.6,24.8,18.3,50.1,25.8,75.7c-9.7,6.1-16.6,16-19,27.3H399.9c-0.6-7.6-2-15.2-4.4-22.5L592,239
		L592,239z"/>
</g>
</svg>
