<?xml version="1.0" encoding="utf-8"?>
<!-- Generator: Adobe Illustrator 24.0.1, SVG Export Plug-In . SVG Version: 6.00 Build 0)  -->
<svg version="1.2" baseProfile="tiny" id="Camada_1"
	 xmlns="http://www.w3.org/2000/svg" xmlns:xlink="http://www.w3.org/1999/xlink" x="0px" y="0px" viewBox="0 0 738.6 299.5"
	 xml:space="preserve">
<g>
	<path fill-rule="evenodd" fill="#343A40" d="M309.4,279.5l119.8,0.1v19.9l-119.8,0L309.4,279.5L309.4,279.5z M309.4,0l119.8,0v20
		L309.4,20V0L309.4,0z M69.9,279.5h119.8v20H69.9V279.5L69.9,279.5z M0,0h20h219.6v20h-99.8v209.2h-20V20H20v209.6H0V0L0,0z
		 M239.5,114l122.8,122.8l14-14.2L259.5,105.7V69.9h-20V114L239.5,114z M499.1,185.5l0,44.1h-20v-35.8L362.3,76.9l14-14.1
		L499.1,185.5L499.1,185.5z M548.9,0l119.8,0v20L548.9,20V0L548.9,0z M499,279.5v20h119.8v-99.8h119.8V69.9h-20v109.8h-99.8V69.9
		h-20v209.6L499,279.5L499,279.5z M309.4,0c-36.6,0-69.9,31.5-69.9,69.8h20c0-28.4,23.2-49.9,49.9-49.9
		C309.3,10.5,309.4,7.3,309.4,0L309.4,0z M20,229.6H0c0,38.5,31.4,69.9,69.9,69.9v-20C42.4,279.5,20,257.1,20,229.6L20,229.6z
		 M718.6,69.9h20c0-38.5-31.4-69.9-69.9-69.9v20C696.2,20,718.6,42.4,718.6,69.9L718.6,69.9z M479.1,229.6c0,27.5-22.4,50-49.9,50
		v19.9c38.5,0,69.9-31.4,69.9-69.9H479.1L479.1,229.6z M479.1,69.9h10V34c-12.2-20.3-34.5-34-59.9-34v20
		C456.6,20,479.1,42.4,479.1,69.9L479.1,69.9z M499,69.9c0-27.5,22.4-49.9,49.9-49.9V0c-25.4,0-47.6,13.6-59.9,34v35.9H499L499,69.9
		z M259.5,229.6c0,27.5,22.4,49.9,49.9,49.9v20c-25.4,0-47.6-13.6-59.9-33.9v-35.9H259.5L259.5,229.6z M239.5,229.6
		c0,27.5-22.4,49.9-49.9,49.9v20c25.4,0,47.6-13.6,59.9-33.9v-35.9H239.5z"/>
</g>
</svg>
