<?xml version="1.0" encoding="utf-8"?>
<!-- Generator: Adobe Illustrator 24.0.1, SVG Export Plug-In . SVG Version: 6.00 Build 0)  -->
<svg version="1.1"
	 id="svg2" xmlns:cc="http://creativecommons.org/ns#" xmlns:dc="http://purl.org/dc/elements/1.1/" xmlns:inkscape="http://www.inkscape.org/namespaces/inkscape" xmlns:rdf="http://www.w3.org/1999/02/22-rdf-syntax-ns#" xmlns:sodipodi="http://sodipodi.sourceforge.net/DTD/sodipodi-0.dtd" xmlns:svg="http://www.w3.org/2000/svg"
	 xmlns="http://www.w3.org/2000/svg" xmlns:xlink="http://www.w3.org/1999/xlink" x="0px" y="0px" viewBox="0 0 233.3 41.7"
	 style="enable-background:new 0 0 233.3 41.7;" xml:space="preserve">
<style type="text/css">
	.st0{fill-rule:evenodd;clip-rule:evenodd;fill:#74787C;}
	.st1{fill-rule:evenodd;clip-rule:evenodd;fill:#343A40;}
</style>
<defs>
	
		<inkscape:perspective  id="perspective10" inkscape:persp3d-origin="0.5 : 0.33333333 : 1" inkscape:vp_x="0 : 0.5 : 1" inkscape:vp_y="0 : 1000 : 0" inkscape:vp_z="1 : 0.5 : 1" sodipodi:type="inkscape:persp3d">
		</inkscape:perspective>
	
		<inkscape:perspective  id="perspective2824" inkscape:persp3d-origin="0.5 : 0.33333333 : 1" inkscape:vp_x="0 : 0.5 : 1" inkscape:vp_y="0 : 1000 : 0" inkscape:vp_z="1 : 0.5 : 1" sodipodi:type="inkscape:persp3d">
		</inkscape:perspective>
</defs>
<sodipodi:namedview  bordercolor="#666666" borderopacity="1" gridtolerance="10" guidetolerance="10" id="namedview4" inkscape:current-layer="g12" inkscape:cx="252.02989" inkscape:cy="-25.090651" inkscape:pageopacity="0" inkscape:pageshadow="2" inkscape:window-height="789" inkscape:window-maximized="1" inkscape:window-width="1152" inkscape:window-x="0" inkscape:window-y="24" inkscape:zoom="1.9070707" objecttolerance="10" pagecolor="#ffffff" showgrid="false">
	</sodipodi:namedview>
<g id="g12" transform="matrix(1.25,0,0,-1.25,-255.11875,555.315)" inkscape:groupmode="layer" inkscape:label="ink_ext_XXXXXX">
	<path id="path18" class="st0" d="M229.8,444.3V416h-6.9v17.6l-4.4-7.1h3.2v-6.4h-7.4l-2.3-3.8h-7.9l19,28.1L229.8,444.3"/>
	<path id="path20" class="st0" d="M230.9,438.6v-27.7h6.9v21.7h2.6c0,0,3.2,0.1,3.2-3.3s-2.9-3.2-2.9-3.2h-1.9V420h4.4
		c0,0,7.8-0.4,7.4,9.6c-0.3,9.5-10.7,9.1-10.7,9.1L230.9,438.6"/>
	<path id="path24" class="st1" d="M382.1,422.8l2.5,0.4c0.1-0.5,0.3-0.8,0.6-1.1c0.3-0.2,0.8-0.4,1.4-0.4s1.1,0.1,1.4,0.4
		c0.2,0.2,0.3,0.4,0.3,0.7c0,0.2-0.1,0.3-0.2,0.5c-0.1,0.1-0.4,0.2-0.8,0.3c-2,0.4-3.3,0.8-3.8,1.2c-0.7,0.5-1.1,1.2-1.1,2.1
		c0,0.8,0.3,1.5,1,2c0.6,0.6,1.6,0.8,3,0.8c1.3,0,2.2-0.2,2.8-0.6c0.6-0.4,1-1,1.3-1.8l-2.3-0.4c-0.1,0.4-0.3,0.6-0.6,0.8
		c-0.3,0.2-0.7,0.3-1.2,0.3c-0.6,0-1.1-0.1-1.4-0.3c-0.2-0.1-0.3-0.3-0.3-0.5s0.1-0.3,0.2-0.4c0.2-0.2,1-0.4,2.3-0.7
		c1.3-0.3,2.2-0.7,2.8-1.1c0.5-0.4,0.8-1.1,0.8-1.8c0-0.9-0.4-1.6-1.1-2.2s-1.8-0.9-3.2-0.9c-1.3,0-2.3,0.3-3,0.8
		C382.8,421.2,382.3,421.9,382.1,422.8 M268.1,420.1h-2.8l-1.1,2.9H259l-1.1-2.9h-2.8l5,12.9h2.7L268.1,420.1L268.1,420.1z
		 M263.3,425.2l-1.8,4.8l-1.7-4.8H263.3z M267.7,422.8l2.5,0.4c0.1-0.5,0.3-0.8,0.6-1.1c0.3-0.2,0.8-0.4,1.4-0.4s1.1,0.1,1.4,0.4
		c0.2,0.2,0.3,0.4,0.3,0.7c0,0.2-0.1,0.3-0.2,0.5c-0.1,0.1-0.4,0.2-0.8,0.3c-2,0.4-3.3,0.8-3.8,1.2c-0.7,0.5-1.1,1.2-1.1,2.1
		c0,0.8,0.3,1.5,1,2c0.6,0.6,1.6,0.8,3,0.8c1.3,0,2.2-0.2,2.8-0.6c0.6-0.4,1-1,1.3-1.8l-2.3-0.4c-0.1,0.4-0.3,0.6-0.6,0.8
		c-0.3,0.2-0.7,0.3-1.2,0.3c-0.6,0-1.1-0.1-1.4-0.3c-0.2-0.1-0.3-0.3-0.3-0.5s0.1-0.3,0.2-0.4c0.2-0.2,1-0.4,2.3-0.7
		c1.3-0.3,2.2-0.7,2.8-1.1c0.5-0.4,0.8-1.1,0.8-1.8c0-0.9-0.4-1.6-1.1-2.2s-1.8-0.9-3.2-0.9c-1.3,0-2.3,0.3-3,0.8
		C268.4,421.2,267.9,421.9,267.7,422.8L267.7,422.8z M276.8,422.8l2.5,0.4c0.1-0.5,0.3-0.8,0.6-1.1c0.3-0.2,0.8-0.4,1.4-0.4
		s1.1,0.1,1.4,0.4c0.2,0.2,0.3,0.4,0.3,0.7c0,0.2-0.1,0.3-0.2,0.5c-0.1,0.1-0.4,0.2-0.8,0.3c-2,0.4-3.3,0.8-3.8,1.2
		c-0.7,0.5-1.1,1.2-1.1,2.1c0,0.8,0.3,1.5,1,2c0.6,0.6,1.6,0.8,3,0.8c1.3,0,2.2-0.2,2.8-0.6c0.6-0.4,1-1,1.3-1.8l-2.3-0.4
		c-0.1,0.4-0.3,0.6-0.6,0.8c-0.3,0.2-0.7,0.3-1.2,0.3c-0.6,0-1.1-0.1-1.4-0.3c-0.2-0.1-0.3-0.3-0.3-0.5s0.1-0.3,0.2-0.4
		c0.2-0.2,1-0.4,2.3-0.7c1.3-0.3,2.2-0.7,2.8-1.1c0.5-0.4,0.8-1.1,0.8-1.8c0-0.9-0.4-1.6-1.1-2.2s-1.8-0.9-3.2-0.9
		c-1.3,0-2.3,0.3-3,0.8C277.5,421.2,277,421.9,276.8,422.8L276.8,422.8z M286.2,424.9c0,0.8,0.2,1.6,0.6,2.4s1,1.4,1.7,1.8
		s1.6,0.6,2.5,0.6c1.4,0,2.6-0.5,3.5-1.4s1.4-2.1,1.4-3.5s-0.5-2.6-1.4-3.5s-2.1-1.4-3.4-1.4c-0.9,0-1.7,0.2-2.4,0.6
		c-0.8,0.4-1.4,1-1.8,1.7C286.4,422.9,286.2,423.8,286.2,424.9L286.2,424.9z M288.7,424.8c0-0.9,0.2-1.6,0.7-2.1
		c0.4-0.5,1-0.7,1.6-0.7s1.2,0.2,1.6,0.7s0.7,1.2,0.7,2.1s-0.2,1.6-0.7,2.1c-0.4,0.5-1,0.7-1.6,0.7s-1.2-0.2-1.6-0.7
		C288.9,426.4,288.7,425.7,288.7,424.8z M305,426.7l-2.4-0.4c-0.1,0.5-0.3,0.9-0.6,1.1c-0.3,0.2-0.7,0.4-1.1,0.4
		c-0.6,0-1.1-0.2-1.5-0.6s-0.5-1.1-0.5-2.1c0-1.1,0.2-1.9,0.6-2.3c0.4-0.5,0.9-0.7,1.5-0.7c0.5,0,0.9,0.1,1.2,0.4
		c0.3,0.3,0.5,0.7,0.6,1.4l2.4-0.4c-0.3-1.1-0.7-2-1.5-2.5c-0.7-0.6-1.7-0.9-2.9-0.9c-1.4,0-2.5,0.4-3.3,1.3s-1.2,2.1-1.2,3.6
		s0.4,2.7,1.2,3.6c0.8,0.9,1.9,1.3,3.3,1.3c1.1,0,2-0.2,2.7-0.7C304.2,428.4,304.7,427.7,305,426.7L305,426.7z M305.9,430.7v2.3h2.5
		v-2.3H305.9z M305.9,420.1v9.3h2.5v-9.3H305.9z M311.9,426.6l-2.2,0.4c0.3,0.9,0.7,1.6,1.3,2c0.6,0.4,1.5,0.7,2.7,0.7
		c1.1,0,1.9-0.1,2.5-0.4c0.5-0.3,0.9-0.6,1.1-1s0.3-1.1,0.3-2.2v-2.9c0-0.8,0-1.4,0.1-1.8s0.2-0.8,0.4-1.3h-2.4
		c-0.1,0.2-0.1,0.4-0.2,0.7c0,0.1-0.1,0.2-0.1,0.3c-0.4-0.4-0.9-0.7-1.4-0.9c-0.5-0.2-1-0.3-1.5-0.3c-1,0-1.7,0.3-2.3,0.8
		c-0.6,0.5-0.8,1.2-0.8,2c0,0.5,0.1,1,0.4,1.4s0.6,0.7,1.1,0.9c0.5,0.2,1.1,0.4,2,0.6c1.2,0.2,2,0.4,2.4,0.6v0.2
		c0,0.5-0.1,0.8-0.4,1c-0.2,0.2-0.7,0.3-1.3,0.3c-0.4,0-0.8-0.1-1-0.3C312.2,427.3,312,427,311.9,426.6L311.9,426.6z M315.2,424.6
		c-0.3-0.1-0.8-0.2-1.5-0.4c-0.7-0.1-1.1-0.3-1.3-0.4c-0.3-0.2-0.5-0.5-0.5-0.9c0-0.3,0.1-0.6,0.4-0.9s0.6-0.4,1-0.4
		s0.9,0.1,1.3,0.4c0.3,0.2,0.5,0.5,0.6,0.8c0.1,0.2,0.1,0.6,0.1,1.2v0.6H315.2z M323.4,429.4v-2h-1.7v-3.8c0-0.8,0-1.2,0-1.3
		c0-0.1,0.1-0.2,0.2-0.3c0.1-0.1,0.3-0.1,0.4-0.1c0.2,0,0.6,0.1,1,0.2l0.2-1.9c-0.6-0.2-1.2-0.4-2-0.4c-0.4,0-0.8,0.1-1.2,0.2
		c-0.4,0.1-0.6,0.3-0.8,0.6c-0.2,0.2-0.3,0.6-0.3,1c-0.1,0.3-0.1,0.9-0.1,1.7v4.1H318v2h1.1v1.9l2.5,1.4v-3.3L323.4,429.4
		L323.4,429.4z M329.6,423.1l2.5-0.4c-0.3-0.9-0.8-1.6-1.5-2.1s-1.5-0.7-2.6-0.7c-1.6,0-2.8,0.5-3.6,1.6c-0.6,0.8-0.9,1.9-0.9,3.2
		c0,1.5,0.4,2.8,1.2,3.6c0.8,0.9,1.8,1.3,3.1,1.3c1.4,0,2.5-0.5,3.3-1.4s1.2-2.3,1.1-4.2H326c0-0.7,0.2-1.3,0.6-1.7
		c0.4-0.4,0.9-0.6,1.4-0.6c0.4,0,0.7,0.1,1,0.3C329.3,422.3,329.5,422.6,329.6,423.1L329.6,423.1z M329.8,425.6
		c0,0.7-0.2,1.3-0.6,1.6c-0.4,0.4-0.8,0.6-1.3,0.6s-1-0.2-1.3-0.6c-0.4-0.4-0.5-0.9-0.5-1.6H329.8L329.8,425.6z M341.9,420.1h-2.3
		v1.4c-0.4-0.5-0.8-0.9-1.3-1.2c-0.5-0.3-1-0.4-1.6-0.4c-1.1,0-2,0.4-2.8,1.3s-1.1,2.1-1.1,3.6c0,1.6,0.4,2.8,1.1,3.6
		c0.7,0.8,1.7,1.2,2.8,1.2c1,0,1.9-0.4,2.7-1.3v4.6h2.5L341.9,420.1L341.9,420.1z M335.3,425c0-1,0.1-1.7,0.4-2.2c0.4-0.6,1-1,1.7-1
		c0.6,0,1.1,0.2,1.5,0.7s0.6,1.2,0.6,2.2c0,1.1-0.2,1.8-0.6,2.3s-0.9,0.7-1.5,0.7s-1.1-0.2-1.5-0.7
		C335.5,426.6,335.3,425.9,335.3,425z M348.4,420.1V433h4.2c1.6,0,2.6-0.1,3.1-0.2c0.7-0.2,1.4-0.6,1.9-1.3c0.5-0.6,0.7-1.5,0.7-2.5
		c0-0.8-0.1-1.5-0.4-2s-0.6-1-1.1-1.3c-0.4-0.3-0.9-0.5-1.3-0.6c-0.6-0.1-1.5-0.2-2.7-0.2H351V420h-2.6V420.1z M351,430.8v-3.7h1.4
		c1,0,1.7,0.1,2.1,0.2c0.3,0.1,0.6,0.3,0.8,0.6c0.2,0.3,0.3,0.6,0.3,1c0,0.5-0.1,0.9-0.4,1.2c-0.3,0.3-0.6,0.5-1,0.6
		c-0.3,0.1-0.9,0.1-1.9,0.1L351,430.8L351,430.8z M361.9,420.1h-2.5v9.3h2.3v-1.3c0.4,0.6,0.7,1,1.1,1.2c0.3,0.2,0.7,0.3,1.1,0.3
		c0.6,0,1.1-0.2,1.6-0.5l-0.8-2.1c-0.4,0.3-0.8,0.4-1.2,0.4c-0.3,0-0.6-0.1-0.9-0.3c-0.2-0.2-0.4-0.5-0.6-1
		c-0.1-0.5-0.2-1.5-0.2-3.1v-2.9H361.9z M371,423.1l2.5-0.4c-0.3-0.9-0.8-1.6-1.5-2.1s-1.5-0.7-2.6-0.7c-1.6,0-2.8,0.5-3.6,1.6
		c-0.6,0.8-0.9,1.9-0.9,3.2c0,1.5,0.4,2.8,1.2,3.6c0.8,0.9,1.8,1.3,3.1,1.3c1.4,0,2.5-0.5,3.3-1.4s1.2-2.3,1.2-4.2h-6.2
		c0-0.7,0.2-1.3,0.6-1.7c0.4-0.4,0.9-0.6,1.4-0.6c0.4,0,0.7,0.1,1,0.3C370.7,422.3,370.9,422.6,371,423.1z M371.2,425.6
		c0,0.7-0.2,1.3-0.6,1.6c-0.4,0.4-0.8,0.6-1.3,0.6s-1-0.2-1.3-0.6c-0.4-0.4-0.5-0.9-0.5-1.6H371.2L371.2,425.6z M373.9,422.8
		l2.5,0.4c0.1-0.5,0.3-0.8,0.6-1.1c0.3-0.2,0.8-0.4,1.4-0.4s1.1,0.1,1.4,0.4c0.2,0.2,0.3,0.4,0.3,0.7c0,0.2-0.1,0.3-0.2,0.5
		c-0.1,0.1-0.4,0.2-0.8,0.3c-2,0.4-3.3,0.8-3.8,1.2c-0.7,0.5-1.1,1.2-1.1,2.1c0,0.8,0.3,1.5,1,2c0.6,0.6,1.6,0.8,3,0.8
		c1.3,0,2.2-0.2,2.8-0.6c0.6-0.4,1-1,1.3-1.8l-2.3-0.4c-0.1,0.4-0.3,0.6-0.6,0.8c-0.3,0.2-0.7,0.3-1.2,0.3c-0.6,0-1.1-0.1-1.4-0.3
		c-0.2-0.1-0.3-0.3-0.3-0.5s0.1-0.3,0.2-0.4c0.2-0.2,1-0.4,2.3-0.7c1.3-0.3,2.2-0.7,2.8-1.1c0.5-0.4,0.8-1.1,0.8-1.8
		c0-0.9-0.4-1.6-1.1-2.2s-1.8-0.9-3.2-0.9c-1.3,0-2.3,0.3-3,0.8C374.6,421.2,374.1,421.9,373.9,422.8"/>
</g>
</svg>
