<?xml version="1.0" encoding="UTF-8" standalone="no"?>
<svg
   xmlns:dc="http://purl.org/dc/elements/1.1/"
   xmlns:cc="http://creativecommons.org/ns#"
   xmlns:rdf="http://www.w3.org/1999/02/22-rdf-syntax-ns#"
   xmlns:svg="http://www.w3.org/2000/svg"
   xmlns="http://www.w3.org/2000/svg"
   version="1.1"
   id="svg2"
   viewBox="0 0 1024 449.25288"
   height="126.78915mm"
   width="288.99554mm">
  <title>BandNews TV</title>
  <g transform="translate(69.640794,-98.126411)">
    <g transform="matrix(9.8034671,0,0,9.8034671,-4494.2901,-2074.4554)">
      <g transform="matrix(0.41740828,0,0,0.41740828,400.2486,-48.758419)">
        <path d="m 222.77762,649.24007 c -71.3477,-0.003 -65.95407,0.0788 -69.5661,1.48145 -5.78151,2.24495 -11.03779,7.38366 -13.27126,12.96262 -0.55582,1.38835 -2.67239,11.32987 -8.11707,37.86939 -0.0926,0.45172 -0.12549,0.60791 -0.21605,1.04936 l 232.18535,0 c 0.83697,-4.08407 1.31207,-6.44859 2.12957,-10.43183 5.34594,-26.04774 5.62276,-27.81751 4.96901,-31.2029 -1.0647,-5.51316 -5.75155,-10.16126 -11.45032,-11.35772 -1.17413,-0.24652 -8.88703,-0.34062 -49.10367,-0.37037 l -87.55946,0 z" style="fill:#ffffff;fill-opacity:1;stroke:#272570;stroke-width:3;stroke-miterlimit:4;stroke-dasharray:none;stroke-opacity:1" />
        <path d="m 131.24274,702.66379 c -7.77791,37.91486 -7.86099,38.57522 -6.97515,42.09782 1.42289,5.65825 5.59202,9.58127 11.57382,10.89482 1.26107,0.27703 19.70177,0.35644 100.83106,0.37036 l 56.54194,0 c 41.70318,-0.0202 43.35473,-0.1322 45.12244,-0.49382 5.43504,-1.12155 11.19805,-4.99396 14.44412,-9.69113 1.06979,-1.54812 2.46375,-4.35921 2.93204,-5.98753 0.22372,-0.77796 1.38137,-6.28133 2.59252,-12.22194 0.85505,-4.19379 3.11934,-15.18986 5.12335,-24.96858 l -232.18614,0 z" style="fill:#272570;fill-opacity:1;stroke:#272570;stroke-width:3;stroke-miterlimit:4;stroke-dasharray:none;stroke-opacity:1" />
        <path style="opacity:0.98000004;fill:#272570;fill-opacity:1;stroke:none" d="m 310.04347,657.48709 -0.13835,0.594 c -0.0761,0.32843 -1.07343,4.99623 -2.21331,10.36676 -1.1398,5.37054 -3.01484,14.18769 -4.16623,19.59432 -1.15134,5.4066 -2.09124,9.94714 -2.09124,10.09009 0,0.1704 6.1674,0.26039 17.92621,0.26039 14.90988,0 18.31749,-0.0683 20.21274,-0.39873 2.6761,-0.46667 6.25755,-1.75727 8.35686,-3.01073 1.75016,-1.04502 4.8816,-4.0213 6.05406,-5.75299 3.13113,-4.6246 5.27234,-11.92999 5.29728,-18.08081 0.0237,-5.86537 -1.96583,-9.51713 -6.37139,-11.68498 -3.67131,-1.8065 -3.41602,-1.78606 -24.19183,-1.88782 l -18.6748,-0.0895 z m -152.47437,0.008 -0.96834,4.49987 c -0.53143,2.47448 -1.55884,7.31205 -2.28653,10.7492 -2.20875,10.43295 -5.19748,24.43928 -5.34614,25.07064 l -0.13831,0.594 20.25343,-0.0732 c 18.77943,-0.0688 20.37551,-0.11428 21.98662,-0.56147 0.95566,-0.26526 2.62538,-0.91098 3.71055,-1.4403 1.0852,-0.52926 1.97735,-0.92336 1.97735,-0.87066 0,0.0527 -0.3352,0.58936 -0.74049,1.18803 -0.40525,0.59866 -0.8232,1.23685 -0.92762,1.41586 -0.15032,0.25769 1.6264,0.32549 8.53589,0.32549 l 8.73117,0 1.36705,-2.34351 1.36704,-2.3435 8.25925,0 8.25924,0 0.13019,0.71607 c 0.0753,0.39384 0.21134,1.24336 0.30107,1.88782 0.0897,0.64447 0.22214,1.37681 0.29294,1.62744 0.12071,0.42732 1.07905,0.45568 15.41995,0.45568 l 15.28974,0 0.30921,-1.49724 c 1.80109,-8.7757 4.34744,-20.54989 4.47545,-20.70097 0.0888,-0.10481 2.86124,4.81656 6.15985,10.93636 l 5.99709,11.13166 9.03226,0.0651 c 4.96745,0.0376 9.03226,0.0135 9.03226,-0.057 0,-0.13124 1.4342,-6.91316 5.99709,-28.33367 1.42691,-6.6986 2.59577,-12.24117 2.59577,-12.31153 0,-0.0703 -3.53916,-0.0949 -7.86051,-0.0569 l -7.85239,0.0732 -1.87967,8.85324 c -1.03349,4.86929 -2.10619,9.90783 -2.38421,11.19676 l -0.51263,2.3435 -2.24586,-4.42662 c -1.23895,-2.43464 -3.81223,-7.50419 -5.71229,-11.26185 l -3.45016,-6.83523 -9.3903,0 -9.3903,0 -0.32549,1.62744 c -0.1817,0.89509 -1.44302,6.84173 -2.79919,13.21477 -1.35618,6.37303 -2.81903,13.28638 -3.25487,15.36298 -0.43584,2.07661 -0.8523,3.95142 -0.92763,4.16624 -0.12444,0.35501 -1.57474,-6.13793 -5.68788,-25.51818 -0.80546,-3.79518 -1.57835,-7.33973 -1.71695,-7.87679 l -0.25227,-0.97646 -9.9843,0 -9.99245,0 -5.27288,8.26737 c -2.90223,4.54706 -6.91637,10.84523 -8.91835,13.99594 -2.002,3.15072 -3.71909,5.8133 -3.81635,5.92386 -0.0972,0.11054 -0.12824,-0.78176 -0.0651,-1.98547 0.15408,-2.93516 -0.36621,-4.51622 -2.04241,-6.1924 -0.68269,-0.68266 -1.54961,-1.31468 -1.92038,-1.40772 -0.61754,-0.15498 -0.96107,-0.6347 -0.45568,-0.6347 0.62504,0 2.859,-1.85092 3.8326,-3.17349 1.55192,-2.10812 2.30567,-4.46287 2.31911,-7.25024 0.009,-1.88186 -0.087,-2.4186 -0.65098,-3.51523 -0.78684,-1.52987 -2.35194,-2.79674 -4.23133,-3.43389 -1.24187,-0.42105 -3.06491,-0.46808 -21.79135,-0.53705 l -20.44058,-0.0733 z m 20.85559,10.17147 c 7.93855,0 8.43824,0.0969 8.43824,1.70881 0,1.38076 -0.61877,2.33374 -1.82273,2.81546 -0.88035,0.35225 -2.18459,0.42313 -7.81981,0.42313 -4.03794,0 -6.76201,-0.0983 -6.76201,-0.24411 0,-0.26091 0.70951,-3.48722 0.93579,-4.24761 0.1247,-0.4191 0.68839,-0.45568 7.03052,-0.45568 z m 145.78561,0.21157 6.11916,0.10577 c 5.58598,0.0937 6.25273,0.15206 7.60009,0.68352 1.72651,0.681 3.17394,2.13301 3.58036,3.59666 1.01057,3.6393 -0.6623,9.66253 -3.46641,12.458 -2.65884,2.65061 -4.97214,3.24026 -12.74284,3.24672 -5.0432,0.004 -5.41085,-0.0237 -5.28102,-0.44754 0.0768,-0.25062 0.54612,-2.38907 1.04156,-4.75211 0.49544,-2.36303 1.40952,-6.68086 2.02614,-9.59371 l 1.12296,-5.29731 z m -95.96986,2.57947 c 0.15048,-0.16142 1.86301,11.67774 1.84716,12.76724 -0.004,0.24778 -1.0875,0.32548 -4.55682,0.32548 -2.50625,0 -4.55682,-0.0372 -4.55682,-0.0814 0,-0.13865 7.07314,-12.80392 7.26648,-13.01135 z m -52.02094,11.79078 7.81981,0 0.75678,0.75677 c 0.88772,0.88772 0.94083,1.55702 0.24411,3.09212 -0.3865,0.85153 -0.76776,1.23279 -1.61931,1.61929 -1.02245,0.46406 -1.75789,0.50742 -8.7556,0.51263 -7.14616,0.005 -7.61988,-0.0211 -7.50245,-0.44754 0.0689,-0.25062 0.3163,-1.39308 0.55333,-2.53879 0.23701,-1.14572 0.4901,-2.28818 0.56145,-2.5388 0.11983,-0.421 0.72282,-0.45568 7.94188,-0.45568 z" />
        <path d="m 319.49433,705.97512 c -0.43469,0.0276 -0.83879,0.0596 -1.17175,0.0977 -5.92704,0.67779 -10.26057,2.07577 -13.41819,4.32897 l -1.73323,1.2287 1.08226,-1.99362 c 0.59473,-1.09642 1.08223,-2.11024 1.08223,-2.25398 0,-0.16894 -2.7092,-0.26039 -7.65707,-0.26039 l -7.65709,0 -2.73409,6.44464 c -1.50573,3.54458 -3.77086,8.88931 -5.0369,11.87215 -2.29161,5.39905 -2.304,5.41824 -2.46558,4.29643 -0.0893,-0.61983 -0.24541,-5.46657 -0.34176,-10.76549 -0.0963,-5.29896 -0.23607,-10.13241 -0.31733,-10.74107 l -0.15462,-1.10666 -6.30633,0 -6.31444,0 -5.44376,12.00235 -5.43563,12.00231 -0.0732,-12.00231 -0.0651,-12.00235 -27.46298,0 -27.46297,0 -0.13832,0.58588 c -0.0765,0.32223 -1.83697,8.61238 -3.91397,18.42256 -2.077,9.81018 -3.9437,18.56903 -4.14183,19.46412 l -0.35804,1.62743 21.31125,0 c 20.06976,0 21.31635,-0.0265 21.44146,-0.45568 0.15561,-0.5338 1.98547,-9.10522 1.98547,-9.3008 0,-0.073 -5.97594,-0.13832 -13.27986,-0.13832 -7.95636,0 -13.27987,-0.0918 -13.27987,-0.23596 0,-0.13241 0.23812,-1.30552 0.53705,-2.6039 l 0.54518,-2.35981 12.39293,-0.0651 12.39293,-0.0732 0.98458,-4.68701 c 0.54187,-2.57786 0.98644,-4.77489 0.99274,-4.8823 0.006,-0.10741 -5.5562,-0.1953 -12.36851,-0.1953 -11.67313,0 -12.37949,-0.0263 -12.25458,-0.45568 0.0729,-0.25062 0.33015,-1.42238 0.57775,-2.60389 l 0.45568,-2.14822 13.23102,0 c 12.81414,0 13.2392,0.019 13.2392,0.49636 0,0.44763 0.65652,8.98432 1.69253,22.02734 0.21615,2.72107 0.45534,5.56864 0.53705,6.32257 l 0.14647,1.36705 7.83611,-0.0651 7.83609,-0.0732 5.00435,-10.87127 4.99625,-10.87126 0.16274,3.97094 c 0.0893,2.18548 0.22373,6.37306 0.30106,9.30893 0.0773,2.93589 0.20571,6.07637 0.28482,6.97354 l 0.14644,1.62744 7.80357,-0.0651 7.80356,-0.0732 6.81892,-13.46704 6.82711,-13.45886 0.16274,1.87152 c 0.33642,3.91246 2.12454,6.19772 5.88319,7.51875 0.79476,0.27935 5.88736,1.20217 11.3188,2.04245 6.33574,0.98016 10.09962,1.67097 10.50507,1.93664 1.46246,0.95824 0.85507,3.18725 -1.17175,4.29643 -0.98326,0.53812 -1.60876,0.6554 -4.04416,0.74862 -4.83242,0.18498 -6.87069,-0.57046 -7.03052,-2.60389 l -0.0651,-0.86254 -9.53677,-0.0651 -9.52864,-0.0732 -0.17087,0.67537 c -0.0923,0.3678 -0.11051,1.62392 -0.0488,2.79919 0.0908,1.7295 0.25385,2.40506 0.86254,3.52341 1.64678,3.02567 5.08197,4.88949 10.80617,5.86689 3.71503,0.63436 3.71623,0.63292 12.10811,0.56145 6.09622,-0.0519 8.35491,-0.16538 10.28539,-0.52078 6.42743,-1.18326 10.31177,-2.89493 13.30429,-5.85877 2.3427,-2.32022 3.66043,-4.7533 4.31268,-7.95 1.01544,-4.97662 -1.06937,-8.58302 -6.01336,-10.41559 -2.01643,-0.74742 -3.96513,-1.11053 -15.50945,-2.85616 -8.74995,-1.32306 -9.06799,-1.42842 -8.73118,-2.96193 0.22097,-1.00601 1.38613,-2.01289 2.81544,-2.42485 0.60218,-0.17358 2.32887,-0.3214 3.83262,-0.32549 4.35778,-0.012 6.50974,1.03128 6.50974,3.14093 l 0,0.87069 9.23571,0 9.23568,0 0.17089,-0.6754 c 0.0936,-0.37309 0.10447,-1.45579 0.0161,-2.40046 -0.47495,-5.08642 -4.36454,-8.04879 -12.53937,-9.56116 -1.15009,-0.21279 -3.33067,-0.38311 -5.80994,-0.48823 l -10.62715,0 z m -162.8574,1.14733 c -5.00396,0 -9.09736,0.0716 -9.09736,0.15462 0,0.083 -0.94704,4.56494 -2.09939,9.9599 -2.44001,11.42331 -3.53565,16.60059 -4.80093,22.62947 -0.50339,2.3986 -1.03778,4.85142 -1.17988,5.4519 -0.49258,2.08182 -1.14316,1.9242 7.34786,1.84713 l 7.60827,-0.0732 2.27841,-10.67597 c 1.25276,-5.87179 2.31488,-10.85174 2.35978,-11.06656 0.0449,-0.21482 2.7732,4.61866 6.06218,10.74107 l 5.98083,11.13165 8.74745,0 8.74748,0 0.57772,-2.79918 c 0.76753,-3.69681 2.07401,-9.8552 5.23222,-24.64749 1.43407,-6.71704 2.61202,-12.31213 2.61202,-12.4336 0,-0.1215 -3.44204,-0.21972 -7.64894,-0.21972 l -7.64895,0 -0.16274,0.84627 c -0.74891,3.94643 -4.47136,21.02473 -4.58122,21.01833 -0.0774,-0.004 -0.94615,-1.61569 -1.92852,-3.58036 -0.98237,-1.96469 -3.48008,-6.88243 -5.54955,-10.92824 l -3.75938,-7.356 -9.09736,0 z" style="opacity:0.98000004;fill:#ffffff;fill-opacity:1;stroke:none" />
      </g>
    </g>
  </g>
</svg>
