<?xml version="1.0" encoding="utf-8"?>
<!-- Generator: Adobe Illustrator 24.0.1, SVG Export Plug-In . SVG Version: 6.00 Build 0)  -->
<svg version="1.1"
	 id="svg2" xmlns:cc="http://creativecommons.org/ns#" xmlns:dc="http://purl.org/dc/elements/1.1/" xmlns:rdf="http://www.w3.org/1999/02/22-rdf-syntax-ns#" xmlns:svg="http://www.w3.org/2000/svg"
	 xmlns="http://www.w3.org/2000/svg" xmlns:xlink="http://www.w3.org/1999/xlink" x="0px" y="0px" viewBox="0 0 818.082 359.403"
	 style="enable-background:new 0 0 818.082 359.403;" xml:space="preserve">
<title>BandNews TV</title>
<g transform="translate(69.640794,-98.126411)">
	<g transform="matrix(9.8034671,0,0,9.8034671,-4494.2901,-2074.4554)">
		<g transform="matrix(0.41740828,0,0,0.41740828,400.2486,-48.758419)">
			<path style="fill:#FFFFFF;stroke:#343A40;stroke-width:9.8209;stroke-miterlimit:13.0946;" d="M202.417,648.94
				c-57.078-0.002-52.763,0.063-55.653,1.185c-4.625,1.796-8.83,5.907-10.617,10.37c-0.445,1.111-2.138,9.064-6.494,30.296
				c-0.074,0.361-0.1,0.486-0.173,0.84h185.748c0.67-3.267,1.05-5.159,1.704-8.345c4.277-20.838,4.498-22.254,3.975-24.962
				c-0.852-4.411-4.601-8.129-9.16-9.086c-0.939-0.197-7.11-0.273-39.283-0.296L202.417,648.94L202.417,648.94z"/>
			<path style="fill:#343A40;stroke:#343A40;stroke-width:9.8209;stroke-miterlimit:13.0946;" d="M129.472,691.68
				c-6.222,30.332-6.289,30.86-5.58,33.678c1.138,4.527,4.474,7.665,9.259,8.716c1.009,0.222,15.761,0.285,80.665,0.296h45.234
				c33.363-0.016,34.684-0.106,36.098-0.395c4.348-0.897,8.958-3.995,11.555-7.753c0.856-1.239,1.971-3.487,2.346-4.79
				c0.179-0.622,1.105-5.025,2.074-9.778c0.684-3.355,2.495-12.152,4.099-19.975L129.472,691.68L129.472,691.68z"/>
			<path style="opacity:0.98;fill:#343A40;enable-background:new    ;" d="M272.513,655.538l-0.111,0.475
				c-0.061,0.263-0.859,3.997-1.771,8.293c-0.912,4.296-2.412,11.35-3.333,15.675c-0.921,4.325-1.673,7.958-1.673,8.072
				c0,0.136,4.934,0.208,14.341,0.208c11.928,0,14.654-0.055,16.17-0.319c2.141-0.373,5.006-1.406,6.685-2.409
				c1.4-0.836,3.905-3.217,4.843-4.602c2.505-3.7,4.218-9.544,4.238-14.465c0.019-4.692-1.573-7.614-5.097-9.348
				c-2.937-1.445-2.733-1.429-19.353-1.51L272.513,655.538L272.513,655.538z M150.533,655.544l-0.775,3.6
				c-0.425,1.98-1.247,5.85-1.829,8.599c-1.767,8.346-4.158,19.551-4.277,20.057l-0.111,0.475l16.203-0.059
				c15.024-0.055,16.3-0.091,17.589-0.449c0.765-0.212,2.1-0.729,2.968-1.152c0.868-0.423,1.582-0.739,1.582-0.697
				c0,0.042-0.268,0.471-0.592,0.95c-0.324,0.479-0.659,0.99-0.742,1.133c-0.12,0.206,1.301,0.26,6.829,0.26h6.985l1.094-1.875
				l1.094-1.875h6.607h6.607l0.104,0.573c0.06,0.315,0.169,0.995,0.241,1.51c0.072,0.516,0.178,1.102,0.234,1.302
				c0.097,0.342,0.863,0.365,12.336,0.365h12.232l0.247-1.198c1.441-7.021,3.478-16.44,3.58-16.561
				c0.071-0.084,2.289,3.853,4.928,8.749l4.798,8.905l7.226,0.052c3.974,0.03,7.226,0.011,7.226-0.046
				c0-0.105,1.147-5.531,4.798-22.667c1.142-5.359,2.077-9.793,2.077-9.849c0-0.056-2.831-0.076-6.288-0.045l-6.282,0.059
				l-1.504,7.083c-0.827,3.895-1.685,7.926-1.907,8.957l-0.41,1.875l-1.797-3.541c-0.991-1.948-3.05-6.003-4.57-9.009l-2.76-5.468
				h-7.512h-7.512l-0.26,1.302c-0.145,0.716-1.154,5.473-2.239,10.572c-1.085,5.098-2.255,10.629-2.604,12.29
				c-0.349,1.661-0.682,3.161-0.742,3.333c-0.1,0.284-1.26-4.91-4.55-20.415c-0.644-3.036-1.263-5.872-1.374-6.301l-0.202-0.781
				h-7.987h-7.994l-4.218,6.614c-2.322,3.638-5.533,8.676-7.135,11.197c-1.602,2.521-2.975,4.651-3.053,4.739
				c-0.078,0.088-0.103-0.625-0.052-1.588c0.123-2.348-0.293-3.613-1.634-4.954c-0.546-0.546-1.24-1.052-1.536-1.126
				c-0.494-0.124-0.769-0.508-0.365-0.508c0.5,0,2.287-1.481,3.066-2.539c1.242-1.686,1.845-3.57,1.855-5.8
				c0.007-1.505-0.07-1.935-0.521-2.812c-0.629-1.224-1.882-2.237-3.385-2.747c-0.993-0.337-2.452-0.374-17.433-0.43
				L150.533,655.544L150.533,655.544z M167.218,663.682c6.351,0,6.751,0.078,6.751,1.367c0,1.105-0.495,1.867-1.458,2.252
				c-0.704,0.282-1.748,0.339-6.256,0.339c-3.23,0-5.41-0.079-5.41-0.195c0-0.209,0.568-2.79,0.749-3.398
				C161.693,663.711,162.144,663.682,167.218,663.682z M283.846,663.851l4.895,0.085c4.469,0.075,5.002,0.122,6.08,0.547
				c1.381,0.545,2.539,1.706,2.864,2.877c0.808,2.911-0.53,7.73-2.773,9.966c-2.127,2.12-3.978,2.592-10.194,2.597
				c-4.035,0.003-4.329-0.019-4.225-0.358c0.061-0.201,0.437-1.911,0.833-3.802s1.128-5.345,1.621-7.675L283.846,663.851
				L283.846,663.851z M207.07,665.914c0.12-0.129,1.49,9.342,1.478,10.214c-0.003,0.198-0.87,0.26-3.645,0.26
				c-2.005,0-3.645-0.03-3.645-0.065C201.257,676.213,206.916,666.08,207.07,665.914L207.07,665.914z M165.454,675.347h6.256
				l0.605,0.605c0.71,0.71,0.753,1.246,0.195,2.474c-0.309,0.681-0.614,0.986-1.295,1.295c-0.818,0.371-1.406,0.406-7.004,0.41
				c-5.717,0.004-6.096-0.017-6.002-0.358c0.055-0.201,0.253-1.114,0.443-2.031c0.19-0.917,0.392-1.831,0.449-2.031
				C159.196,675.375,159.678,675.347,165.454,675.347L165.454,675.347z"/>
			<path style="opacity:0.98;fill:#FFFFFF;enable-background:new    ;" d="M280.074,694.329c-0.348,0.022-0.671,0.048-0.937,0.078
				c-4.742,0.542-8.208,1.661-10.735,3.463l-1.387,0.983l0.866-1.595c0.476-0.877,0.866-1.688,0.866-1.803
				c0-0.135-2.167-0.208-6.126-0.208h-6.126l-2.187,5.156c-1.205,2.836-3.017,7.111-4.03,9.498
				c-1.833,4.319-1.843,4.335-1.972,3.437c-0.071-0.496-0.196-4.373-0.273-8.612c-0.077-4.239-0.189-8.106-0.254-8.593l-0.124-0.885
				h-5.045h-5.052l-4.355,9.602l-4.348,9.602l-0.059-9.602l-0.052-9.602h-21.97h-21.97l-0.111,0.469
				c-0.061,0.258-1.47,6.89-3.131,14.738c-1.662,7.848-3.155,14.855-3.313,15.571l-0.286,1.302h17.049
				c16.056,0,17.053-0.021,17.153-0.365c0.124-0.427,1.588-7.284,1.588-7.441c0-0.058-4.781-0.111-10.624-0.111
				c-6.365,0-10.624-0.073-10.624-0.189c0-0.106,0.19-1.044,0.43-2.083l0.436-1.888l9.914-0.052l9.914-0.059l0.788-3.75
				c0.434-2.062,0.789-3.82,0.794-3.906c0.005-0.086-4.445-0.156-9.895-0.156c-9.339,0-9.904-0.021-9.804-0.365
				c0.058-0.201,0.264-1.138,0.462-2.083l0.365-1.719h10.585c10.251,0,10.591,0.015,10.591,0.397c0,0.358,0.525,7.187,1.354,17.622
				c0.173,2.177,0.364,4.455,0.43,5.058l0.117,1.094l6.269-0.052l6.269-0.059l4.003-8.697l3.997-8.697l0.13,3.177
				c0.071,1.748,0.179,5.098,0.241,7.447c0.062,2.349,0.165,4.861,0.228,5.579l0.117,1.302l6.243-0.052l6.243-0.059l5.455-10.774
				l5.462-10.767l0.13,1.497c0.269,3.13,1.7,4.958,4.707,6.015c0.636,0.223,4.71,0.962,9.055,1.634
				c5.069,0.784,8.08,1.337,8.404,1.549c1.17,0.767,0.684,2.55-0.937,3.437c-0.787,0.431-1.287,0.524-3.235,0.599
				c-3.866,0.148-5.497-0.456-5.624-2.083l-0.052-0.69l-7.629-0.052l-7.623-0.059l-0.137,0.54c-0.074,0.294-0.088,1.299-0.039,2.239
				c0.073,1.384,0.203,1.924,0.69,2.819c1.317,2.421,4.066,3.912,8.645,4.694c2.972,0.507,2.973,0.506,9.686,0.449
				c4.877-0.042,6.684-0.132,8.228-0.417c5.142-0.947,8.249-2.316,10.643-4.687c1.874-1.856,2.928-3.803,3.45-6.36
				c0.812-3.981-0.855-6.866-4.811-8.332c-1.613-0.598-3.172-0.888-12.408-2.285c-7-1.058-7.254-1.143-6.985-2.37
				c0.177-0.805,1.109-1.61,2.252-1.94c0.482-0.139,1.863-0.257,3.066-0.26c3.486-0.01,5.208,0.825,5.208,2.513v0.697h7.389h7.389
				l0.137-0.54c0.075-0.298,0.084-1.165,0.013-1.92c-0.38-4.069-3.492-6.439-10.032-7.649c-0.92-0.17-2.665-0.306-4.648-0.391
				L280.074,694.329L280.074,694.329z M149.788,695.246c-4.003,0-7.278,0.057-7.278,0.124s-0.758,3.652-1.68,7.968
				c-1.952,9.139-2.829,13.28-3.841,18.104c-0.403,1.919-0.83,3.881-0.944,4.362c-0.394,1.666-0.915,1.539,5.878,1.478l6.087-0.059
				l1.823-8.541c1.002-4.697,1.852-8.681,1.888-8.853c0.036-0.172,2.219,3.695,4.85,8.593l4.785,8.905h6.998h6.998l0.462-2.239
				c0.614-2.957,1.659-7.884,4.186-19.718c1.147-5.374,2.09-9.85,2.09-9.947c0-0.097-2.754-0.176-6.119-0.176h-6.119l-0.13,0.677
				c-0.599,3.157-3.577,16.82-3.665,16.815c-0.062-0.003-0.757-1.293-1.543-2.864c-0.786-1.572-2.784-5.506-4.44-8.743l-3.008-5.885
				L149.788,695.246L149.788,695.246z"/>
		</g>
	</g>
</g>
</svg>
