<?xml version="1.0" encoding="utf-8"?>
<!-- Generator: Adobe Illustrator 24.0.1, SVG Export Plug-In . SVG Version: 6.00 Build 0)  -->
<svg version="1.1" id="Layer_1" xmlns="http://www.w3.org/2000/svg" xmlns:xlink="http://www.w3.org/1999/xlink" x="0px" y="0px"
	 viewBox="0 0 300 86.2" style="enable-background:new 0 0 300 86.2;" xml:space="preserve">
<style type="text/css">
	.st0{fill:#343A40;}
</style>
<g transform="translate(-27.1382,-941.70395)">
	<g transform="matrix(0.82302261,0,0,-0.82302261,189.63913,997.27701)">
		<path class="st0" d="M0,0c0-11.2-14-10.6-14-10.6h-14V9.7h14C0.4,9.8,0,0,0,0 M-28,40.7h10.7c11.1-0.6,10.7-8.8,10.7-8.8
			c0-10.2-12.2-10.4-12.2-10.4H-28V40.7z M-2.6,17.5c0,0,9.6,4.1,9.5,14.9c0,0,1.5,17.7-22.1,19.9h-26.1v-74.4h29.9
			c0,0,25-0.1,25,21C13.7-1.1,14.2,13.2-2.6,17.5 M-70.1,66.9H39.7V-36.6H-70.1V66.9z"/>
	</g>
	<g transform="matrix(0.82302261,0,0,-0.82302261,85.355129,997.27701)">
		<path class="st0" d="M0,0c0-11.2-14-10.6-14-10.6h-14V9.7h14C0.4,9.8,0,0,0,0 M-28,40.7h10.7c11.1-0.6,10.7-8.8,10.7-8.8
			c0-10.2-12.2-10.4-12.2-10.4H-28V40.7z M-2.6,17.5c0,0,9.6,4.1,9.5,14.9c0,0,1.5,17.7-22.1,19.9h-26.1v-74.4h29.9
			c0,0,25-0.1,25,21C13.7-1.1,14.2,13.2-2.6,17.5 M-70.1,66.9H39.7V-36.6H-70.1V66.9z"/>
	</g>
	<g transform="matrix(0.82302261,0,0,-0.82302261,308.1885,958.5961)">
		<path class="st0" d="M0,0v-13.7c0,0-13.4,8.2-28.2,8.4c0,0-27.7,0.5-28.9-26.5c0,0-1-24.9,28.6-26.3c0,0,12.4-1.5,29.2,9.2v-14.2
			c0,0-22.6-13.4-48.7-3.1c0,0-22,8-22.8,34.4c0,0-0.9,27.1,28.4,36.1c0,0,7.8,3,21.9,1.7C-20.6,5.9-12.2,5.1,0,0 M-87.5-83.6H22.4
			V19.9H-87.5V-83.6z"/>
	</g>
</g>
</svg>
