<?xml version="1.0" encoding="utf-8"?>
<!-- Generator: Adobe Illustrator 24.0.1, SVG Export Plug-In . SVG Version: 6.00 Build 0)  -->
<svg version="1.1"
	 id="svg12" xmlns:cc="http://creativecommons.org/ns#" xmlns:dc="http://purl.org/dc/elements/1.1/" xmlns:inkscape="http://www.inkscape.org/namespaces/inkscape" xmlns:rdf="http://www.w3.org/1999/02/22-rdf-syntax-ns#" xmlns:sodipodi="http://sodipodi.sourceforge.net/DTD/sodipodi-0.dtd" xmlns:svg="http://www.w3.org/2000/svg"
	 xmlns="http://www.w3.org/2000/svg" xmlns:xlink="http://www.w3.org/1999/xlink" x="0px" y="0px" viewBox="0 0 35.9 16.6"
	 style="enable-background:new 0 0 35.9 16.6;" xml:space="preserve">
<style type="text/css">
	.st0{display:none;}
	.st1{display:inline;}
	.st2{fill-rule:evenodd;clip-rule:evenodd;fill:#CC0000;}
	.st3{fill:#CC0000;}
	.st4{fill:none;stroke:#FFFFFF;stroke-width:0.8047;}
</style>
<sodipodi:namedview  bordercolor="#666666" borderopacity="1" gridtolerance="10" guidetolerance="10" id="namedview14" inkscape:current-layer="svg12" inkscape:cx="37.318273" inkscape:cy="11.370212" inkscape:guide-bbox="true" inkscape:object-nodes="false" inkscape:pageopacity="0" inkscape:pageshadow="2" inkscape:window-height="715" inkscape:window-maximized="1" inkscape:window-width="1366" inkscape:window-x="-8" inkscape:window-y="-8" inkscape:zoom="7.178123" objecttolerance="10" pagecolor="#ffffff" showgrid="false" showguides="true">
	</sodipodi:namedview>
<g id="g10" transform="translate(-0.04179987)">
	<g id="g850" transform="translate(5,-10.272267)">
		<g id="g1408" transform="translate(0.48831075,-0.95746814)" class="st0">
			<g id="g1004" transform="translate(-0.30014987,-1.6883585)" class="st1">
				<g id="g992" transform="matrix(0.83348775,0,0,0.83348775,3.5714881,-2.4175099)">
					<path id="path980" inkscape:connector-curvature="0" class="st2" d="M-0.4,40.3c0.4,0,0.8,0,1,0.1c0.2,0,0.4,0.1,0.6,0.3
						c0.2,0.2,0.4,0.3,0.5,0.6c0.1,0.2,0.2,0.5,0.2,0.7c0,0.3-0.1,0.6-0.2,0.8c-0.1,0.2-0.3,0.4-0.6,0.6c0.3,0.1,0.6,0.3,0.7,0.5
						s0.2,0.5,0.2,0.9c0,0.3-0.1,0.6-0.2,0.8c-0.1,0.3-0.3,0.5-0.5,0.7c-0.2,0.2-0.4,0.3-0.7,0.3c-0.3,0-0.6,0.1-1.1,0.1h-2.6v-6.2
						L-0.4,40.3z M-1.9,42.8h1.3c0.4,0,0.7,0,0.8-0.1c0.2-0.1,0.2-0.3,0.2-0.5c0-0.3-0.1-0.4-0.2-0.5c-0.2-0.1-0.4-0.2-0.8-0.2h-1.3
						V42.8z M-1.9,45.4h1.3c0.5,0,0.8,0,1-0.2c0.2-0.1,0.3-0.3,0.3-0.6c0-0.3-0.1-0.5-0.3-0.6c-0.2-0.1-0.5-0.2-1-0.2h-1.3
						L-1.9,45.4L-1.9,45.4z"/>
					<path id="path982" inkscape:connector-curvature="0" class="st2" d="M5.8,40.3c0.4,0,0.7,0,0.9,0.1c0.2,0,0.4,0.1,0.6,0.2
						c0,0,0,0,0.1,0c0,0,0,0,0,0c0.2,0.2,0.4,0.4,0.5,0.6S8,41.8,8,42.1C8,42.5,8,42.8,7.8,43c-0.2,0.2-0.4,0.4-0.7,0.6
						c0.1,0,0.2,0.1,0.3,0.2c0.1,0,0.1,0.1,0.2,0.2c0.1,0.2,0.2,0.3,0.2,0.6c0,0.2,0.1,0.5,0.1,0.7c0,0,0,0,0,0c0,0,0,0,0,0v0v0
						c0,0.3,0,0.5,0.1,0.7c0,0.2,0.1,0.4,0.2,0.5H6.7c0,0-0.1-0.1-0.1-0.2c0,0,0-0.1-0.1-0.1c0-0.1,0-0.2-0.1-0.3c0-0.1,0-0.2,0-0.4
						c0,0,0-0.1,0-0.2c0,0,0-0.1,0-0.2c0-0.4-0.1-0.7-0.1-0.9C6.3,44.1,6,44,5.5,44H4.4v2.5H3.1v-6.1L5.8,40.3z M4.3,43h1.2
						c0.4,0,0.7,0,0.9-0.2c0.2-0.1,0.3-0.3,0.3-0.6s-0.1-0.5-0.3-0.6c-0.2-0.1-0.5-0.2-0.9-0.2H4.3L4.3,43z"/>
					<path id="path984" inkscape:connector-curvature="0" class="st2" d="M11.2,40.3h1.4l2.2,6.2h-1.4L13,45.2h-2.3l-0.4,1.3H9
						L11.2,40.3z M12.6,44.2l-0.8-2.4l-0.8,2.4H12.6z"/>
					<path id="path986" inkscape:connector-curvature="0" class="st2" d="M15.6,44.6h1.2c0.1,0.4,0.2,0.7,0.5,0.8
						c0.2,0.2,0.5,0.2,0.9,0.2c0.4,0,0.6-0.1,0.8-0.2c0.2-0.1,0.3-0.3,0.3-0.5c0-0.1,0-0.2-0.1-0.3c-0.1-0.1-0.2-0.2-0.4-0.2
						l-1.9-0.7c-0.4-0.1-0.7-0.3-0.9-0.6c-0.2-0.2-0.3-0.6-0.3-1c0-0.6,0.2-1,0.6-1.4c0.4-0.4,1-0.5,1.7-0.5c0.8,0,1.3,0.2,1.8,0.5
						c0.4,0.4,0.6,0.8,0.7,1.5h-1.3c-0.1-0.3-0.2-0.6-0.4-0.7c-0.2-0.2-0.5-0.2-0.8-0.2c-0.3,0-0.6,0.1-0.8,0.2
						C17.1,41.6,17,41.8,17,42c0,0.1,0,0.2,0.1,0.3c0.1,0.1,0.2,0.2,0.3,0.2l2,0.7c0.4,0.2,0.7,0.4,0.9,0.6c0.2,0.2,0.4,0.6,0.4,1
						c0,0.3-0.1,0.6-0.2,0.8c-0.1,0.3-0.3,0.5-0.6,0.7c-0.2,0.2-0.5,0.3-0.7,0.3c-0.3,0-0.6,0.1-1,0.1c-0.5,0-1-0.1-1.3-0.2
						c-0.4-0.2-0.7-0.4-0.9-0.7c0,0,0,0,0,0c0,0,0,0,0,0c-0.1-0.1-0.2-0.3-0.2-0.5C15.7,45,15.6,44.9,15.6,44.6z"/>
					<path id="path988" inkscape:connector-curvature="0" class="st2" d="M23,40.3v6.2h-1.3v-6.2H23z"/>
					<path id="path990" inkscape:connector-curvature="0" class="st2" d="M26,40.3v5.1h3v1.1h-4.3v-6.2L26,40.3z"/>
				</g>
			</g>
		</g>
		<g id="g835" transform="matrix(0.99602422,0,0,0.97398124,0.11336391,0.55948556)">
			<path id="path4-3" inkscape:connector-curvature="0" class="st3" d="M6.1,14.8H3.3c-2,0-3.6,1.6-3.6,3.6c0,2,1.6,3.6,3.6,3.6h3.1
				c0.3,0,0.5-0.2,0.5-0.5l0,0v-8.4c0-1.8,1.5-3.3,3.3-3.3c1.2,0,2.3,0.6,2.8,1.7l3.5,6.2v-4.5c0-1.8,1.5-3.3,3.3-3.3
				c1.2,0,2.3,0.6,2.8,1.7l3.5,6.2V10h2l0.4,0.4l0.4-0.4h2v13.7c0,1.8-1.5,3.3-3.3,3.3c-1.2,0-2.3-0.6-2.8-1.7l-3.5-6.2v4.5
				c0,1.8-1.5,3.3-3.3,3.3c-1.2,0-2.3-0.6-2.8-1.7l-3.5-6.2v4.5c0,1.8-1.5,3.3-3.3,3.3c0,0,0,0,0,0H3.3c-4.6,0-8.4-3.8-8.4-8.5
				S-1.3,10,3.3,10h2.8v2l-0.4,0.4l0.4,0.4V14.8z"/>
			<path id="path6-6-3" inkscape:connector-curvature="0" class="st4" d="M6.1,12.4H3.3c-3.3,0-6,2.7-6,6.1c0,3.4,2.7,6.1,6,6.1h5.1
				c0.5,0,0.9-0.4,0.9-0.9l0,0V13.3c0-0.5,0.4-0.9,0.9-0.9c0.3,0,0.6,0.2,0.8,0.4l6.4,11.3c0.2,0.4,0.8,0.6,1.2,0.3
				c0.3-0.2,0.4-0.4,0.4-0.8V13.3c0-0.5,0.4-0.9,0.9-0.9c0.3,0,0.6,0.2,0.8,0.4l6.4,11.3c0.2,0.4,0.8,0.6,1.2,0.3
				c0.3-0.2,0.4-0.4,0.4-0.8V10"/>
		</g>
	</g>
</g>
</svg>
