<svg xmlns="http://www.w3.org/2000/svg" version="1.1" viewBox="0 0 502.88 55.617" width="502.88" height="55.617">

<title>Folha de S. Paulo</title>

<g fill-rule="nonzero" transform="translate(-117.13239,-682.42131)" fill="#231f20">

<path d="m153.57,712.81c0,16.868,5.8878,24.665,18.379,24.665,10.9,0,19.334-7.0016,19.334-24.108,0-16.947-5.9673-24.585-18.459-24.585-10.9,0-19.255,6.8425-19.255,24.028zm26.256,0.63654c0,18.618-3.8191,21.244-7.7177,21.244-3.8191,0-7.1608-3.0234-7.1608-22.039,0-18.538,3.8191-21.085,7.6382-21.085,3.8986,0,7.2404,2.8643,7.2404,21.88zm13.685,23.153,28.166,0,0-14.242-2.2278,0-3.8986,11.059-7.1608,0,0-40.657,4.1373-0.95477,0-2.1482-18.698,0,0,2.1482,3.8191,0.95477,0,40.737-4.1373,0.95477,0,2.1482zm31.905-46.943,0,2.1482,3.8191,1.0343,0,40.657-3.8191,0.95477,0,2.1482,17.982,0,0-2.1482-3.4213-0.95477,0-18.459,10.343,0,0,18.459-3.1826,0.95477,0,2.1482,17.743,0,0-2.1482-3.8191-0.95477,0-40.737,3.5008-0.95477,0-2.1482-17.425,0,0,2.1482,3.1826,0.95477,0,19.095-10.343,0,0-19.095,3.4213-0.95477,0-2.1482-17.982,0zm42.487,46.943,12.014,0,0-2.1482-4.8534-0.95477,2.6256-11.219,10.025,0,3.7395,11.219-4.2169,0.95477,0,2.1482,18.936,0,0-2.1482-3.5008-0.95477-13.287-43.919-6.6834,0-11.378,43.919-3.4213,0.95477,0,2.1482zm10.662-17.584,3.6599-14.799,4.5352,14.799-8.1951,0zm74.393-5.1717c0-18.459-7.0016-24.188-18.618-24.188h-18.141v2.1482l3.7395,0.95477v40.737l-3.7395,0.95477v2.1482h18.936c9.309,0,17.822-6.1264,17.822-22.755zm-18.777,19.573-3.0234,0,0-40.578,2.7052,0c5.3308,0,8.2747,3.103,8.2747,20.528,0,17.106-2.5461,20.05-7.9564,20.05zm-216.89-50.285,0,2.4665,4.8534,1.0344,0,46.466-5.0126,1.0343,0,2.4665,23.233,0,0-2.4665-6.3652-1.0343,0-21.482,6.8425,0,1.6709,7.0812,2.5461,0,0-17.265-2.5461,0-1.6709,6.5243-6.8425,0,0-21.244,8.7521,0,4.4556,12.173,2.7052,0,0-15.754-32.621,0z"/>

<path d="m375.99,733.42-8.6725,0,0-18.698,5.8082,0,1.4322,6.2856,2.2278,0,0-15.197-2.2278,0-1.4322,5.7286-5.8082,0,0-18.538,7.2404,0,3.8191,10.343,2.4665,0,0-13.526-28.564,0,0,2.0687,4.2965,0.95475,0,40.657-4.376,0.95477,0,2.1482,30.075,0,0-13.685-2.3869,0-3.8987,10.502zm39.782-51.001c-9.5477,0-17.106,6.1264-17.186,15.754-0.0795,15.833,20.13,15.992,20.13,28.643,0,3.4212-2.6256,6.5243-6.763,6.5243-2.7847,0-5.8082-0.39782-8.036-1.7504l-2.3869-10.343h-2.7848v14.481c2.7848,1.1139,6.9221,1.7504,11.616,1.7504,10.9,0,18.22-7.9564,18.22-17.584,0-17.186-19.812-16.072-19.812-27.768,0-3.1826,2.4665-5.6491,7.0016-5.6491,1.9891,0,3.3417,0.23856,5.3308,0.63651l2.6256,10.662h2.5461v-14.481c-3.2622-0.63654-6.8425-0.87523-10.502-0.87523zm45.113,28.802-1.9891,0,0-24.347,2.1483,0c4.0578,0,5.5695,2.2278,5.5695,12.094,0,9.866-2.0687,12.253-5.7286,12.253zm2.9439,3.66c10.662,0,15.276-6.2856,15.276-15.833,0-12.332-5.8878-15.833-14.64-15.833h-22.278v2.4665l4.8535,1.0343v46.386l-5.0126,1.0343v2.4665h22.915v-2.4665l-6.0469-1.0343v-18.22h4.933zm22.994,4.2169,3.66-14.878,4.5352,14.878-8.1951,0zm-11.139,17.504,12.492,0,0-2.1482-4.7738-0.95477,2.6256-11.219,9.9455,0,3.66,11.219-4.2168,0.95477,0,2.1482,19.414,0,0-2.1482-3.9782-0.95477-13.208-43.84-6.6834,0-11.457,43.84-3.8191,0.95477,0,2.1482zm37.156-46.784,0,2.0687,3.8191,0.95475,0,30.234c0,10.821,3.5008,14.958,13.924,14.958,9.3886,0.0795,13.844-3.8191,13.844-12.889v-32.303l3.5804-0.95475v-2.0687h-10.821v2.0687l3.9782,0.95475v31.667c0,6.6038-1.8299,10.184-7.9564,10.184-4.376,0-5.8082-2.7848-5.8082-8.7521v-33.099l4.1373-0.95475v-2.0687h-18.698zm38.668,46.784,27.688,0,0-14.242-2.2278,0-3.8191,11.059-6.8425,0,0-40.578,4.1373-0.95475,0-2.0687-18.698,0,0,2.0687,3.8986,0.95475,0,40.657-4.1373,0.95477,0,2.1482zm30.95-23.79c0,16.868,5.8878,24.665,18.379,24.665,10.821,0,19.175-7.0016,19.175-24.108,0-16.868-5.9673-24.506-18.459-24.506-10.821,0-19.095,6.8425-19.095,23.949zm26.177,0.71609c0,18.538-3.8986,21.164-7.7177,21.164s-7.0812-3.0234-7.0812-21.96c0-18.538,3.8191-21.085,7.6382-21.085s7.1608,2.8643,7.1608,21.88zm-176.23,14.322c2.546,0,4.6147,2.3074,4.6147,5.0921s-2.2278,5.0921-4.7738,5.0921c-2.387,0-4.6148-2.3074-4.6148-5.0921s2.3869-5.0921,4.7738-5.0921z"/>

</g>

</svg>