<?xml version="1.0" encoding="utf-8"?>
<!-- Generator: Adobe Illustrator 24.0.1, SVG Export Plug-In . SVG Version: 6.00 Build 0)  -->
<svg version="1.1" id="Layer_1" xmlns="http://www.w3.org/2000/svg" xmlns:xlink="http://www.w3.org/1999/xlink" x="0px" y="0px"
	 viewBox="0 0 300.7 36.2" style="enable-background:new 0 0 300.7 36.2;" xml:space="preserve">
<style type="text/css">
	.st0{fill:none;}
</style>
<rect x="-130.7" y="-265.4" class="st0" width="566.9" height="566.9"/>
<path d="M81.5,21.7c0,3.2,0,6.6-1.9,9c-1.9,2.4-5.5,3.5-8.1,3.5c-2.6,0-6.2-1.1-8.1-3.5c-1.9-2.4-1.9-5.8-1.9-9V1.1h-1.4v21.3
	c0,3.5,0,6.4,2.3,9.2c2.1,2.4,5.6,3.9,9.1,3.9c3.6,0,7-1.5,9.2-3.9c2.3-2.8,2.3-5.8,2.3-9.2V1.1h-1.4L81.5,21.7L81.5,21.7z M20,18.6
	h13.7l0,0.4c-0.3,4.3-2.3,8.4-5.6,11.3c-3.1,2.5-6.8,3.9-10.5,3.9C8.7,34.2,1.4,27,1.4,18.1C1.4,9.5,9,2,17.6,2
	C23,2,27.7,4.5,31,9.2l1.1-1.1c-3.8-4.9-8.7-7.4-14.4-7.4C7.9,0.7,0,8.5,0,18.2c0,9.4,8,17.3,17.4,17.3c4.9,0,9.7-2.1,12.9-5.5
	c3.1-3.3,4.8-7.5,4.8-11.8v-0.9H20V18.6z M46.1,18.6c5.7,0,9.3-3.3,9.3-8.7c0-2.2-0.6-5.2-3.3-7.1c-2.3-1.7-5.2-1.7-7.7-1.7h-3.9v34
	h1.4V18.6h1.7l11.3,16.4h1.6L45.1,18.6L46.1,18.6z M41.9,17.3V2.4l2.9,0c1.8,0,3.7,0.1,5.3,0.8C52.5,4.3,54,6.8,54,9.9
	c0,2.3-0.9,4.5-2.6,5.8c-1.8,1.6-4,1.7-6.3,1.7L41.9,17.3L41.9,17.3z M167,4.9c-1.9-1.7-4.1-2.9-6.5-3.8L154,7.6
	c2.8,0,5.4,1.2,7.3,2.9L167,4.9z M125.5,2c8,0,14.9,6.2,16,14l1.3-1.3c-1.7-7.9-8.9-14-17.3-14c-9.6,0-17.6,8-17.6,17.4
	c0,8.3,6.3,15.5,14.3,17.1l1.1-1.1c-7.8-1.1-14-7.9-14-16C109.3,9.4,116.7,2,125.5,2z M254.7,17L254.7,17c2.7-1.5,3.7-4,3.7-7
	c0-6.5-4.1-8.8-10.1-8.8h-12.6v33.9h13.6c6.2,0,12.3-2.3,12.3-9.5C261.7,20.9,259.6,17.6,254.7,17z M244.6,7.9h0.6
	c2.4,0,5.1,0.2,5.1,3.3c0,2.9-2.4,3.3-4.8,3.3h-1L244.6,7.9L244.6,7.9z M245.7,28.3h-1.1V21h0.9c2.9,0,7.2-0.4,7.2,3.7
	C252.7,28.5,248.3,28.3,245.7,28.3z M281.9,0c-9.8,0-18.8,7.2-18.8,17.5c0,11,7.9,18.7,18.8,18.7c10.9,0,18.8-7.7,18.8-18.7
	C300.7,7.2,291.7,0,281.9,0z M281.9,27.6c-5.3,0-9.6-4.3-9.6-10.1c0-4.7,4.3-9,9.6-9c5.3,0,9.6,4.3,9.6,9
	C291.5,23.4,287.2,27.6,281.9,27.6z M213.9,0c-9.8,0-18.8,7.2-18.8,17.5c0,11,7.9,18.7,18.8,18.7s18.8-7.7,18.8-18.7
	C232.6,7.2,223.6,0,213.9,0z M213.9,27.6c-5.3,0-9.6-4.3-9.6-10.1c0-4.7,4.3-9,9.6-9s9.6,4.3,9.6,9
	C223.4,23.4,219.1,27.6,213.9,27.6z M184.7,1.1h-8.8v33.9h19.4v-7.5h-10.6V1.1z M155.8,16.1v6.9h7.6c-1.8,3.6-5.4,5.9-9.5,5.9
	c-5.6,0-10.3-4.4-10.7-10.5l-6.7,6.7c2.7,6.8,9.2,11.1,17.3,11.1c10.9,0,18.8-7.7,18.8-18.7c0-0.5,0-0.9-0.1-1.4H155.8z M102.2,3.1
	c-2.1-1.8-4.7-1.9-7.3-1.9h-5.7v34h1.4V18.6H95c2.4,0,5.3-0.2,7.5-2.1c1.7-1.4,2.8-3.9,2.8-6.6C105.2,7.1,104.2,4.7,102.2,3.1z
	 M101.4,15.3c-2,1.7-4.2,2-6.3,2h-4.4V2.4h4c2,0,4.4,0,6.3,1.5c1.7,1.3,2.8,3.5,2.8,5.9C103.8,12,103,13.9,101.4,15.3z"/>
</svg>
