<?xml version="1.0" encoding="utf-8"?>
<!-- Generator: Adobe Illustrator 24.0.1, SVG Export Plug-In . SVG Version: 6.00 Build 0)  -->
<svg version="1.1" id="Layer_1" xmlns="http://www.w3.org/2000/svg" xmlns:xlink="http://www.w3.org/1999/xlink" x="0px" y="0px"
	 viewBox="0 0 301.2 36.7" style="enable-background:new 0 0 301.2 36.7;" xml:space="preserve">
<style type="text/css">
	.st0{display:none;fill:none;}
	.st1{fill:#343A40;stroke:#343A40;stroke-width:0.5;stroke-miterlimit:10;}
</style>
<rect x="-130.4" y="-265.1" class="st0" width="566.9" height="566.9"/>
<path class="st1" d="M81.7,22c0,3.2,0,6.6-1.9,9c-1.9,2.4-5.5,3.5-8.1,3.5c-2.6,0-6.2-1.1-8.1-3.5c-1.9-2.4-1.9-5.8-1.9-9V1.4h-1.4
	v21.3c0,3.5,0,6.4,2.3,9.2c2.1,2.4,5.6,3.9,9.1,3.9c3.6,0,7-1.5,9.2-3.9c2.3-2.8,2.3-5.8,2.3-9.2V1.4h-1.4L81.7,22L81.7,22z
	 M20.2,18.9h13.7l0,0.4c-0.3,4.3-2.3,8.4-5.6,11.3c-3.1,2.5-6.8,3.9-10.5,3.9c-8.9,0-16.1-7.2-16.1-16.1c0-8.6,7.5-16.1,16.1-16.1
	c5.4,0,10.1,2.6,13.4,7.2l1.1-1.1C28.6,3.5,23.6,0.9,18,0.9C8.2,0.9,0.3,8.8,0.3,18.5c0,9.4,8,17.3,17.4,17.3
	c4.9,0,9.7-2.1,12.9-5.5c3.1-3.3,4.8-7.5,4.8-11.8v-0.9H20.2V18.9z M46.3,18.9c5.7,0,9.3-3.3,9.3-8.7C55.7,8,55.1,5,52.3,3
	c-2.3-1.7-5.2-1.7-7.7-1.7h-3.9v34h1.4V18.9h1.7l11.3,16.4h1.6L45.4,18.9L46.3,18.9z M42.1,17.6V2.7l2.9,0c1.8,0,3.7,0.1,5.3,0.8
	c2.4,1.1,3.9,3.6,3.9,6.6c0,2.3-0.9,4.5-2.6,5.8c-1.8,1.6-4,1.7-6.3,1.7L42.1,17.6L42.1,17.6z M167.2,5.2c-1.9-1.7-4.1-2.9-6.5-3.8
	l-6.5,6.5c2.8,0,5.4,1.2,7.3,2.9L167.2,5.2z M125.7,2.2c8,0,14.9,6.2,16,14l1.3-1.3c-1.7-7.9-8.9-14-17.3-14
	c-9.6,0-17.6,8-17.6,17.4c0,8.3,6.3,15.5,14.3,17.1l1.1-1.1c-7.8-1.1-14-7.9-14-16C109.5,9.6,116.9,2.2,125.7,2.2z M255,17.2
	L255,17.2c2.7-1.5,3.7-4,3.7-7c0-6.5-4.1-8.8-10.1-8.8H236v33.9h13.6c6.2,0,12.3-2.3,12.3-9.5C261.9,21.1,259.8,17.9,255,17.2z
	 M244.8,8.1h0.6c2.4,0,5.1,0.2,5.1,3.3c0,2.9-2.4,3.3-4.8,3.3h-1L244.8,8.1L244.8,8.1z M246,28.6h-1.1v-7.3h0.9
	c2.9,0,7.2-0.4,7.2,3.7C253,28.7,248.6,28.6,246,28.6z M282.2,0.3c-9.8,0-18.8,7.2-18.8,17.5c0,11,7.9,18.7,18.8,18.7
	c10.9,0,18.8-7.7,18.8-18.7C300.9,7.5,291.9,0.3,282.2,0.3z M282.2,27.9c-5.3,0-9.6-4.3-9.6-10.1c0-4.7,4.3-9,9.6-9
	c5.3,0,9.6,4.3,9.6,9C291.8,23.6,287.4,27.9,282.2,27.9z M214.1,0.3c-9.8,0-18.8,7.2-18.8,17.5c0,11,7.9,18.7,18.8,18.7
	s18.8-7.7,18.8-18.7C232.9,7.5,223.9,0.3,214.1,0.3z M214.1,27.9c-5.3,0-9.6-4.3-9.6-10.1c0-4.7,4.3-9,9.6-9s9.6,4.3,9.6,9
	C223.7,23.6,219.4,27.9,214.1,27.9z M185,1.4h-8.8v33.9h19.4v-7.5H185V1.4z M156,16.4v6.9h7.6c-1.8,3.6-5.4,5.9-9.5,5.9
	c-5.6,0-10.3-4.4-10.7-10.5l-6.7,6.7c2.7,6.8,9.2,11.1,17.3,11.1c10.9,0,18.8-7.7,18.8-18.7c0-0.5,0-0.9-0.1-1.4H156z M102.5,3.3
	c-2.1-1.8-4.7-1.9-7.3-1.9h-5.7v34h1.4V18.8h4.3c2.4,0,5.3-0.2,7.5-2.1c1.7-1.4,2.8-3.9,2.8-6.6C105.5,7.4,104.4,4.9,102.5,3.3z
	 M101.7,15.5c-2,1.7-4.2,2-6.3,2h-4.4V2.7h4c2,0,4.4,0,6.3,1.5c1.7,1.3,2.8,3.5,2.8,5.9C104,12.2,103.2,14.1,101.7,15.5z"/>
</svg>
