<?xml version="1.0" encoding="UTF-8"?>
<!-- Generator: Adobe Illustrator 24.1.0, SVG Export Plug-In . SVG Version: 6.00 Build 0)  -->
<svg version="1.1" id="Layer_1" xmlns="http://www.w3.org/2000/svg" xmlns:xlink="http://www.w3.org/1999/xlink" x="0px" y="0px" viewBox="0 0 310.3 41.5" style="enable-background:new 0 0 310.3 41.5;" xml:space="preserve">
<style type="text/css">
	.st0{fill-rule:evenodd;clip-rule:evenodd;fill:#163860;}
	.st1{fill-rule:evenodd;clip-rule:evenodd;fill:#4A90E2;}
</style>
<path class="st0" d="M0,8.3h20.8v7h-2.5c-1.3,0-1.6,0.5-1.6,1.7v16c0,0.8,0.7,1.5,1.5,1.5c0,0,0.1,0,0.1,0h6  c0.9,0.1,1.7-0.7,1.8-1.6c0,0,0-0.1,0-0.1V27h8.3v14.4H0v-7h2.4c1.1,0,1.7-0.4,1.7-1.5V17c0-1-0.1-1.6-1.5-1.6H0V8.3L0,8.3z M38,8.3  h34.3V19h-8.6v-1.7c0-1.1-0.5-1.9-2.2-1.9H54v6h8.1v6.4h-8v6.7h7.8c0.9,0.1,1.7-0.6,1.8-1.6c0-0.1,0-0.2,0-0.3v-1.7h8.6v10.6H38v-7  h2c1,0,1.6-0.4,1.6-1.4V17c0-1-0.1-1.7-1.5-1.7h-2L38,8.3L38,8.3z M89.3,8.3h35V19h-8.5v-1.7c0.1-0.9-0.6-1.7-1.6-1.8  c-0.1,0-0.2,0-0.3,0h-7.8v6h7.2v6.3h-7.2v4.8c0,1.4,0.6,1.9,2.3,1.9h2.7v7H89.3v-7h2.9c0.7,0.1,1.3-0.5,1.4-1.2c0-0.1,0-0.1,0-0.2  V17c0-1-0.1-1.7-1.5-1.7h-2.8V8.3z M144.2,17c0-1.2,0.4-1.6,1.6-1.6h2.6v-7h-20.7v7h2.6c1.4,0,1.6,0.6,1.6,1.6v16  c0,1.2-0.7,1.5-1.6,1.5h-2.6v7h20.7v-7h-2.5c-1,0-1.7-0.4-1.7-1.5L144.2,17L144.2,17z M178.9,8.3h7.3V20h-7.4  c-1.5-3.1-4.6-5.1-8-5.1c-4.5,0-8,3.2-8,9.2c0,10,5.6,11,8,11c5,0,6.1-3.6,6.1-5h-4.6V24h15.9l-0.1,4.2c0,0.9-0.9,13.2-18.7,13.2  c-12.8,0-19.4-6.7-19.4-17.2c0-7,5.5-15.9,18.5-15.9c7.3,0,10.4,2.5,10.4,2.5V8.3z M227,34.4c-1.5,0-1.9-1.3-2.7-3.3l-8.8-22.8  h-12.7l-9,24.5c-0.4,1-1.5,1.7-2.6,1.6h-1.8v7H205v-6.7h-2.2c-1,0-1.1-0.7-0.8-1.7l1-3h9.4l1,3.2c0.4,1.1-0.8,1.5-1.5,1.5H210v6.7  h18.7v-7H227z M204.5,25.5l3.2-9.7h0.1l3.2,9.7H204.5z M271,34.4c-1.3,0-1.5-0.6-2.1-1.5c-0.7-0.8-4.6-7-4.6-7s5.8-1.6,5.8-7.8  s-5.2-8.3-7.4-9c-2.2-0.5-7-0.8-8.2-0.8h-22.6v7h2.2c1.4,0,1.6,0.8,1.6,1.7v15.7c0,0.7-0.1,1.7-1.6,1.7h-2.2v7h19.9v-7h-2  c-1.4,0-1.6-0.8-1.6-1.6v-5.3h4.5l8,14h12.6v-7.1C273.3,34.4,271,34.4,271,34.4z M252.7,21.7h-4.5V15h5c1.3,0,3.9,0.5,3.9,3.5  C257.1,20.7,255.4,21.8,252.7,21.7L252.7,21.7z M291.5,8.3c-13.8,0-18.7,8.8-18.7,16.3c0,9.8,7,16.8,18.7,16.8  c10.6,0,18.8-5.2,18.8-16.4C310.3,14.3,302.3,8.3,291.5,8.3z M292,35c-3,0-6.3-1.8-6.3-11c0-5.7,2.2-9.2,6-9.2c3.5,0,6,2.4,6,9.8  C297.7,32.7,295.1,35,292,35z"/>
<path class="st1" d="M114,32.3c3.2,2.7,6.1,5.8,8.5,9.2l-1.3-1c-3.3-3.6-3.5-3.5-6.3-6c-1.8-1.6-3.8-3-6-4.1l-2.8-1.2v-1.5h3.4  C110.7,29.1,112.4,30.8,114,32.3L114,32.3z M92.5,8.3c6.4,2.7,9,9,9,9v10.4c0,0-5.2-1.1-11.8-5.6l3.1,0.2c0,0-7.2-3.7-9.4-6.3  c1,0.4,2,0.6,3,0.8c0,0-5.4-2.9-7.3-10.8c0.4,0.6,1,1,1.6,1.3c-0.8-2.4-1.2-4.8-1.3-7.3c0,0,6,6.9,13,9C92.6,9,92.4,8.3,92.5,8.3  L92.5,8.3z"/>
</svg>