<?xml version="1.0" encoding="utf-8"?>
<!-- Generator: Adobe Illustrator 24.0.1, SVG Export Plug-In . SVG Version: 6.00 Build 0)  -->
<svg version="1.1" id="Layer_1" xmlns="http://www.w3.org/2000/svg" xmlns:xlink="http://www.w3.org/1999/xlink" x="0px" y="0px"
	 viewBox="0 0 308 67" style="enable-background:new 0 0 308 67;" xml:space="preserve">
<style type="text/css">
	.st0{fill-rule:evenodd;clip-rule:evenodd;fill:#8F98A9;}
	.st1{fill-rule:evenodd;clip-rule:evenodd;fill:#1A171B;}
</style>
<g>
	<path class="st0" d="M37,11.1C36.7,9.9,34.6,7,32.2,7c-0.5,0-0.9,0.1-1.2,0.2c2.3,0.9,4.1,3.2,4.6,4.8L37,11.1L37,11.1
		C36.9,11.1,37,11.1,37,11.1z M52,65.3l-8.6-5.8c-1-0.7-2.2-2-2.2-4.5V34l-0.9,0.5L40,34.7v20.9c0,1.8,0.9,3.6,2.2,4.5l8.7,5.9
		C50.9,66,52,65.3,52,65.3z M15,44.2c0.2-3.6-0.6-7.9-1.3-12.1c-0.8-4.3-1.4-8.6-1.4-12.4c0.1-2.3,0.5-4.6,1.4-6.7
		c-1.6,2.5-2.6,5.4-2.7,8.4c-0.3,7.4,3.2,17,2.9,24.5c-0.1,1-0.2,2-0.2,3l0.2-0.2C14.5,47.9,14.9,46.4,15,44.2 M27,65.2
		c-1.3-2.6-4.4-4.2-8-4.2c-0.3,0.1-0.7,0.1-1,0.1c3.5,0.6,6.5,2.5,7.6,4.9L27,65.2L27,65.2z M58,34.3L55,31l0.1,2.2l1.6,1.8L58,34.3
		z M140.2,16l-7.2-4.3l1.1-0.7l6.9,4.1C140.7,15.4,140.5,15.6,140.2,16 M141.9,66l-3-2.1c-1.9-1.4-2.9-3.7-2.9-6.3V28.7
		c0-4,0.8-6.8,2.2-8.7c-0.8,1.9-1.1,4.2-1.1,6.9l0.1,29.6c0,3.2,0.9,5.3,3.1,6.8l2.7,1.9L141.9,66L141.9,66z M118,65.7
		c0,0-0.3,0.2-0.5,0.3h-0.7V17.6c0-2.3-0.2-2.3-1.7-3.4l-2.1-1.6l1.4-0.7c1.1,0.9,2.8,2.1,2.8,2.2c0.6,0.6,0.8,1,0.8,2.3V65.7
		L118,65.7z M82.6,6c-0.7,1.9-0.6,3.8,0.3,5.3c0.8,1.3,2.3,2.3,4.1,2.7C81.5,14.4,79.1,10.4,82.6,6 M95.5,48
		c0.4-1.4,0.5-2.9,0.5-4.6V18.4c0-3-0.1-3.4-1-4.3h0.1c1.2-0.3,1.9,0,1.9,2.6v25.1C97,44.7,96.6,46.6,95.5,48 M97.7,66
		c-0.7-2.4-2.9-4.4-6.7-4.9c0.5-0.1,1.1-0.1,1.6-0.1c4.7,0.1,6,3,6.3,3.9l0.1,0.3L97.7,66L97.7,66z M226,65.4l-2.6-1.6
		c-2.3-1.4-3.5-3.6-3.5-6.9V33.2c0-1.4-0.1-1.3-0.6-1.7c0,0-1.8-1.5-3-2.5l-1.3,0.7l2.5,1.9c1.4,1,1.2,1.1,1.2,3.2v23
		c0,3.1,1.3,5.3,3.1,6.4l3.1,1.7L226,65.4z M202,65.8V30.3l-1.3-1.3l-1.7,0.8l1.6,1.5V66h0.8c0.2-0.1,0.5-0.2,0.5-0.2H202z
		 M174,65.4l-10-6.1c-2-1.2-2.8-2.7-2.8-5.4V34l-0.9,0.4l-0.4,0.2v20.3c0,2.4,1,4.1,2.9,5.2l10,5.9L174,65.4z M179,54V34.2
		c0-1-0.3-1.4-1.1-1.8L174,30v1.3l2.3,1.3c1.7,1,1.7,1.1,1.7,3l-0.1,17.8L179,54z M258,18.3v-0.3c0-2.4-1.4-4.9-3.5-6.1
		c-0.8-0.5-1.5-0.9-1.5-0.9l-1,0.7l0.6,0.3c2.8,1.6,4.3,3.7,4.3,7C256.9,19,258,18.3,258,18.3z M290,65.3l-8.6-5.8
		c-1-0.7-2.2-2-2.2-4.5V34l-0.9,0.5l-0.3,0.2v20.7c0,2.3,0.9,3.9,2.3,4.8l8.5,5.8L290,65.3z M253,66.3l-9.2-6
		c-2.2-1.4-2.6-2.7-2.6-5.3V36l-0.7,0.4l-0.5,0.3v18.8c0,3,0.9,4.3,2.4,5.3l9.5,6.3L253,66.3z M295,34.3l-3-3.2l0.1,2.2l1.6,1.8
		L295,34.3z M260,55V27l-2,0.8v26.4L260,55z"/>
	<path class="st1" d="M39.2,57.7l-1-2.1l-2.7,1.7c-2-2.4-5.2-5.3-12.9-5.3C14.5,51.9,4.5,58.4,0,64l0.8,1c6.2-4.1,12.5-5.9,18.1-5.9
		c4.5,0,8.3,2.2,9.8,5.4C28.7,64.5,39.2,57.7,39.2,57.7z M47.6,10c-1.6-2.4-5.8-7-14-7c-9.9-0.1-18.6,7.7-19,17.1
		c-0.3,7.5,3.3,17.2,3,24.6c-0.2,2.5-0.7,4.4-1.7,5.7l1,1.2l6.1-4.4c3-2.2,4.6-4.9,4.5-9.6c-0.1-5.8-2.8-14.8-2.8-21.7
		c0-5.9,2.3-10.4,7.4-10.4c3.5,0,6.3,3.6,6.7,5.6c0.2,1,0,1.4-0.9,2l-2.4,1.7v2.7L47.6,10L47.6,10z M70,33.1L58.3,20.2L40.1,30.9
		v2.4l3.7-2.1v24.1c0,1.4,0.5,2.3,1.4,2.9l9.7,6.3l13.7-7.9l-1.1-2.4l-7.1,3.8l-6.4-4.4c-0.8-0.5-0.9-1-0.9-2.2v-7.8L70,33.1z
		 M60.9,35L53,39.9V27.2l0.7-0.4C53.7,26.8,60.9,35,60.9,35z M100.4,64.7c-0.9-2.5-3.4-5-8-5.2C88.2,59.5,82,61.2,77,65l-1-1.2
		c3.7-4,12.3-10.5,21.3-10.6c4.7,0,8.1,1.6,10.4,4.1l3.9-2.2l1.1,2.3C112.8,57.4,100.4,64.7,100.4,64.7z M154.4,11.1
		c-3.4,2-4.6,4.7-4.6,8.9v33.5c0,2.1,0.3,3.1,1.4,3.7l1.1,0.6l3.1-1.8l1.1,2.1l-10.9,6.6l-3.8-2.5c-1.7-1.1-2.4-2.5-2.4-5.3V26.9
		c0-5.6,1.8-8.6,4.2-10.4l1.4-1l-10.3-6l-4.6,2.8v43.6c0,3.7-0.5,4.2-3.8,5.9c0,0-2.5,1.2-6,3.1h-0.7V16.5c0-2.4-0.3-2.9-1.6-3.9
		l-3.7-3l-4.5,2.5v25c0,4.4-0.7,7.5-4.2,9.7L97,52.3l-0.9-1.5c2.7-2.1,3.3-5.1,3.3-8.6V16.7c0-3.8-0.5-5.2-4.5-4.5
		c-1.5,0.3-3.8,0.6-5.2,0.8c-5.8,0.8-8.2-3.3-4.3-8.5c0,0,1-1.3,3.4-4.5l1.9,1.3l-1.4,2c-1.8,2.6-0.3,4,2.6,3c1.4-0.5,4.1-1.6,6-2.4
		c8.3-3.2,11.4,2.1,11.8,5.3L120.3,3l8.9,6.8l11-6.8l8.5,4.8c2.9,1.7,4.3,1,6.3-0.1l1.7-0.9L158,9L154.4,11.1L154.4,11.1z
		 M193.9,53.3l-0.8-1.9l-3,1.6V29.5c0-1.2-0.4-2.2-1.6-2.9L177.2,20L159,30.6v2.5l3.7-2.2v23c0,2.1,0.5,2.9,1.8,3.6l11,6.5
		L193.9,53.3z M237,58.3l-0.9-2l-3.2,1.8l-1.1-0.7c-1.2-0.7-1.5-1.6-1.5-3.6V28.9c0-2-0.4-2.9-1.7-3.7l-6.7-5l-10.4,5.9l-5.5-5.9
		l-11,6.7l1.5,1.7l3.7-2.2l2.7,3v34.5h0.7c4.4-1.9,5.7-2.5,5.7-2.5c2.1-0.9,2.7-1.6,2.7-4V28.6l3.6-2.1l4.2,3.3
		c1.1,1,1.3,1.7,1.3,3.2l0.1,23.6c0,2.6,0.8,4.1,2.5,5.1l3.7,2.2L237,58.3z M180.9,57l-0.5,0.1l-7.1-4.2c-1.2-0.7-1.5-1.5-1.5-3
		l0.1-22.8l0.5-0.2l6.9,4c1.4,0.8,1.7,1.5,1.7,2.9V57z M261.1,57.9l-0.5,0.1l-6.2-4c-1.2-0.8-1.7-1.4-1.7-3V28.7l7.8-4.7l0.6,0.4
		V57.9L261.1,57.9z M274,54.3l-0.8-2l-3.1,1.7V16.8c0-5.4-2.4-8.9-6.5-11.4L259.7,3l-12.3,7.2l2.4,1.1l4-2.2l2.6,1.5
		c2.8,1.6,4.6,4.7,4.6,8V20L240,32.2v2.4l3.6-1.9v22.2c0,1.9,0.5,2.7,1.7,3.5l10.5,6.6L274,54.3z M308,33.5l-11.8-13L278,31.2v2.5
		l3.8-2.1v24.3c0,1.4,0.5,2.3,1.4,2.9l9.7,6.3l13.7-8l-1-2.5l-7.2,3.9l-6.5-4.5c-0.9-0.6-1-1-1-2.2v-7.9L308,33.5z M298.7,35.4
		l-7.9,4.9V27.5l0.8-0.4L298.7,35.4z"/>
</g>
</svg>
