<?xml version="1.0" encoding="utf-8"?>
<!-- Generator: Adobe Illustrator 24.0.1, SVG Export Plug-In . SVG Version: 6.00 Build 0)  -->
<svg version="1.1" id="Layer_1" xmlns="http://www.w3.org/2000/svg" xmlns:xlink="http://www.w3.org/1999/xlink" x="0px" y="0px"
	 viewBox="0 0 268.1 44.9" style="enable-background:new 0 0 268.1 44.9;" xml:space="preserve">
<path d="M103.9,21.9c0,5.9-2.2,11-6.5,15.3c-4.3,4.3-9.4,6.4-15.4,6.4c-6,0-11.1-2.2-15.3-6.4c-4.3-4.3-6.4-9.4-6.4-15.4
	c0-6,2.2-11.1,6.4-15.4c2.2-2.1,4.5-3.7,7.1-4.8C76.4,0.5,79.2,0,82.2,0c3,0,5.9,0.6,8.7,1.9c2.8,1.2,5.2,2.9,7.2,5.2l-7.8,7.1
	c-0.9-1.1-2.2-1.9-3.8-2.6l-2.1-0.7c-0.7-0.2-1.5-0.2-2.2-0.2c-3.2,0-5.8,1.1-7.9,3.2c-2.2,2.2-3.2,4.8-3.2,7.9c0,3,1.1,5.7,3.2,7.9
	c2.2,2.2,4.8,3.3,7.9,3.3c2.1,0,4.1-0.5,5.9-1.6c1.8-1.1,3.2-2.7,4.2-4.9l-9.6,0l0-8.7l21,0.1l0.2,2.7L103.9,21.9z M172.9,6.9
	c-4.4-4.4-9.6-6.6-15.7-6.6c-6.1,0-11.4,2.2-15.7,6.5c-4.4,4.3-6.5,9.6-6.6,15.7c0,6.1,2.1,11.3,6.5,15.7c4.3,4.4,9.6,6.6,15.7,6.6
	c6.1,0,11.4-2.2,15.7-6.5c4.4-4.4,6.6-9.6,6.6-15.7C179.5,16.6,177.3,11.3,172.9,6.9 M165.1,30.7c-2.2,2.2-4.9,3.3-8,3.3
	c-3.2,0-5.9-1.1-8.1-3.3c-2.2-2.2-3.3-4.9-3.3-8.1c0-3.2,1.1-5.8,3.4-8.1c2.2-2.2,4.9-3.3,8-3.3c3.1,0,5.7,1.2,8,3.4
	c2.3,2.3,3.4,4.9,3.4,8C168.6,25.8,167.4,28.5,165.1,30.7 M268.1,22.7c0,6.1-2.2,11.3-6.5,15.7c-4.3,4.4-9.4,6.5-15.4,6.5
	c-6,0-11.1-2.2-15.3-6.6c-4.2-4.4-6.3-9.6-6.3-15.7c0-6.2,2.1-11.4,6.4-15.8c4.3-4.4,9.4-6.5,15.4-6.5c5.9,0,11,2.2,15.3,6.6
	C266,11.3,268.2,16.6,268.1,22.7 M257.5,22.7c0-3.1-1.1-5.7-3.3-8c-2.2-2.3-4.8-3.4-7.8-3.4c-3,0-5.6,1.1-7.8,3.3
	c-2.2,2.2-3.3,4.9-3.3,8.1c0,3.1,1.1,5.8,3.2,8.1c2.1,2.2,4.8,3.3,7.9,3.3c3,0,5.6-1.1,7.8-3.3C256.4,28.5,257.5,25.8,257.5,22.7
	 M43.5,22.7c0,6.1-2.2,11.3-6.5,15.7c-4.3,4.4-9.4,6.5-15.4,6.5c-6,0-11.1-2.2-15.3-6.6C2.1,33.9,0,28.7,0,22.6
	c0-6.2,2.2-11.4,6.4-15.8c4.3-4.4,9.4-6.5,15.4-6.5c6,0,11.1,2.2,15.3,6.6C41.4,11.3,43.5,16.6,43.5,22.7 M32.8,22.7
	c0-3.1-1.1-5.7-3.3-8c-2.2-2.3-4.8-3.4-7.8-3.4c-3,0-5.6,1.1-7.8,3.3c-2.2,2.2-3.3,4.9-3.3,8.1c0,3.1,1.1,5.8,3.2,8.1
	c2.1,2.2,4.8,3.3,7.9,3.3c3,0,5.6-1.1,7.8-3.3C31.7,28.5,32.8,25.8,32.8,22.7 M203.2,35.1l-7.5,0l0-10.1h7.5c2.4,0,6.4,0.6,6.4,5
	C209.6,33.9,207.4,35.1,203.2,35.1z M195.8,9.9l5.4,0c1.8,0,5.8-0.1,5.8,3.1c0,3.4-4.2,3-5.7,3h-5.5L195.8,9.9z M213.1,19.9
	c3.7-1.9,4.7-4.6,4.7-7.8c0-2.5-0.5-5.2-2.6-7.1c-3.3-3.4-7.5-3.6-15.3-3.6h-14.7v42.1h15.2c7.7,0,11.5-0.3,15.7-3.5
	c2.8-2.1,4.2-6.3,4.2-9.7C220.4,28.6,220.5,22.4,213.1,19.9L213.1,19.9z M139,43.5l-6.5-8.9h-12.5V1.4h-10.5v42.1H139z"/>
</svg>
