<?xml version="1.0" encoding="utf-8"?>
<!-- Generator: Adobe Illustrator 24.0.1, SVG Export Plug-In . SVG Version: 6.00 Build 0)  -->
<svg version="1.1"
	 id="svg12" xmlns:cc="http://creativecommons.org/ns#" xmlns:dc="http://purl.org/dc/elements/1.1/" xmlns:inkscape="http://www.inkscape.org/namespaces/inkscape" xmlns:rdf="http://www.w3.org/1999/02/22-rdf-syntax-ns#" xmlns:sodipodi="http://sodipodi.sourceforge.net/DTD/sodipodi-0.dtd" xmlns:svg="http://www.w3.org/2000/svg"
	 xmlns="http://www.w3.org/2000/svg" xmlns:xlink="http://www.w3.org/1999/xlink" x="0px" y="0px" viewBox="0 0 35.9 16.6"
	 style="enable-background:new 0 0 35.9 16.6;" xml:space="preserve">
<style type="text/css">
	.st0{fill:#343A40;}
	.st1{fill:none;stroke:#FFFFFF;stroke-width:0.8047;}
</style>
<g id="g10" transform="translate(-0.04179987)">
	<g id="g850" transform="translate(5,-10.272267)">
		<g id="g835" transform="matrix(0.99602422,0,0,0.97398124,0.11336391,0.55948556)">
			<path id="path4-3" inkscape:connector-curvature="0" class="st0" d="M6.1,14.8H3.3c-2,0-3.6,1.6-3.6,3.6c0,2,1.6,3.6,3.6,3.6h3.1
				c0.3,0,0.5-0.2,0.5-0.5l0,0v-8.4c0-1.8,1.5-3.3,3.3-3.3c1.2,0,2.3,0.6,2.8,1.7l3.5,6.2v-4.5c0-1.8,1.5-3.3,3.3-3.3
				c1.2,0,2.3,0.6,2.8,1.7l3.5,6.2V10h2l0.4,0.4l0.4-0.4h2v13.7c0,1.8-1.5,3.3-3.3,3.3c-1.2,0-2.3-0.6-2.8-1.7l-3.5-6.2v4.5
				c0,1.8-1.5,3.3-3.3,3.3c-1.2,0-2.3-0.6-2.8-1.7l-3.5-6.2v4.5c0,1.8-1.5,3.3-3.3,3.3c0,0,0,0,0,0H3.3c-4.6,0-8.4-3.8-8.4-8.5
				S-1.3,10,3.3,10h2.8v2l-0.4,0.4l0.4,0.4V14.8z"/>
			<path id="path6-6-3" inkscape:connector-curvature="0" class="st1" d="M6.1,12.4H3.3c-3.3,0-6,2.7-6,6.1c0,3.4,2.7,6.1,6,6.1h5.1
				c0.5,0,0.9-0.4,0.9-0.9l0,0V13.3c0-0.5,0.4-0.9,0.9-0.9c0.3,0,0.6,0.2,0.8,0.4l6.4,11.3c0.2,0.4,0.8,0.6,1.2,0.3
				c0.3-0.2,0.4-0.4,0.4-0.8V13.3c0-0.5,0.4-0.9,0.9-0.9c0.3,0,0.6,0.2,0.8,0.4l6.4,11.3c0.2,0.4,0.8,0.6,1.2,0.3
				c0.3-0.2,0.4-0.4,0.4-0.8V10"/>
		</g>
	</g>
</g>
</svg>
