<?xml version="1.0" encoding="utf-8"?>
<!-- Generator: Adobe Illustrator 24.0.1, SVG Export Plug-In . SVG Version: 6.00 Build 0)  -->
<svg version="1.1" id="Layer_1" xmlns="http://www.w3.org/2000/svg" xmlns:xlink="http://www.w3.org/1999/xlink" x="0px" y="0px"
	 viewBox="0 0 147 34" style="enable-background:new 0 0 147 34;" xml:space="preserve">
<style type="text/css">
	.st0{fill:#343A40;}
</style>
<g>
	<path class="st0" d="M0,33v-3h2.2c1.3,0,2.1-0.4,2.1-2.9V11.3C4.3,9.5,3.8,9,1.8,9H0V6h26v10.8h-2.9C22.5,11.2,22,9,16.7,9H9.8v8.5
		h2.1c2.4,0,3.4-1.2,3.4-4.5v-0.5h2.9V26h-2.9v-1c0-3.3-1.1-4.6-3.4-4.6H9.8V30h7.9c3.6,0,5-2.3,5.4-8.4H26V33H0z M28,33v-3h2.6
		c1.1,0,1.9-0.4,1.9-1.8V10.8c0-1.2-0.5-1.8-2.1-1.8H28V6h14.6v3h-2.2C38.6,9,38,9.4,38,10.8V30h6.5c4.1,0,5.1-2.3,5.5-8.6h3V33H28
		L28,33z M61,33v-3h2.5c0.9,0,1.7-0.3,1.7-1.4V10.4c0-1.1-0.8-1.4-1.7-1.4H61V6h15.6c6,0,9.4,2.8,9.4,7.4c0,5-3.6,7.4-8.9,7.4h-6.2
		v7.8c0,1.1,1,1.4,1.9,1.4h2.5v3L61,33L61,33z M70.8,17.8h3.6c3.7,0,5.7-1.2,5.7-4.3c0-3.1-1.6-4.4-5.7-4.4h-3.6L70.8,17.8
		L70.8,17.8z M81,33h12.3v-3h-3.1c-0.8,0-1.3-0.2-1.3-0.7c0-0.4,0.1-0.6,0.2-0.9l1.3-4.1h8.9l1.3,4.1c0.1,0.2,0.2,0.6,0.2,1
		c0,0.4-0.3,0.6-1.2,0.6h-3.1v3H123v-3h-2.3c-1.3,0-1.9-0.7-1.9-2V11c0-1.5,1.2-2,2.5-2h1.7V6h-13.9v3h2.2c1.5,0,2,0.8,2,1.8v17.7
		c0,1.1-0.6,1.5-2.2,1.5h-1c-2.1,0-3.4-0.3-4.1-2.2L98.1,6h-5.5l-7.5,21.8c-0.7,1.9-2,2.2-4.1,2.2L81,33z M98.2,21.3h-6.6l3.1-9.8
		h0.1L98.2,21.3L98.2,21.3z M143.3,5.8h2.3v10.4h-2.8c-0.9-4.5-3.4-7.7-8-7.7c-3.6,0-5.1,1-5.1,3.7c0,6.2,17.3,1.6,17.3,13.1
		c0,6.6-4.8,8.7-10.3,8.7c-2.9,0-5.8-1.3-8.1-3.3l-0.9,2.4h-2.6V22h2.9c0.5,5.5,3.7,8.5,9.2,8.5c3.4,0,5.1-1.7,5.1-3.7
		c0-7.1-17.3-1.7-17.3-13.5c0-5.8,4.9-8.3,9.6-8.3c3,0,5.4,1.4,7.4,2.9L143.3,5.8L143.3,5.8z"/>
	<path class="st0" d="M123,0v3h-14L123,0z"/>
</g>
</svg>
