<?xml version="1.0" encoding="utf-8"?>
<!-- Generator: Adobe Illustrator 24.0.1, SVG Export Plug-In . SVG Version: 6.00 Build 0)  -->
<svg version="1.1" id="whatsapp-wite" xmlns="http://www.w3.org/2000/svg" xmlns:xlink="http://www.w3.org/1999/xlink" x="0px"
	 y="0px" viewBox="0 0 450 49.6" style="enable-background:new 0 0 450 49.6;" xml:space="preserve">
<style type="text/css">
	.st0{fill:#343A40;}
</style>
<path class="st0" d="M240.1,12.8c-1.1-0.7-2.4-1.2-3.9-1.5l-1.3-0.2c-1.4-0.1-2.8-0.2-4.3-0.2h-7.6v1.2h2.3v27.7h-2.3v1.3h8.1
	c1.5,0,2.7-0.1,3.7-0.1c0.6-0.1,1.1-0.1,1.4-0.2c1.1-0.3,2.1-0.6,3-1.2c2-1.2,3.4-3,4.5-5.4c1.1-2.4,1.6-5.2,1.6-8.4
	c0-3.1-0.5-5.8-1.4-8C243.2,15.5,241.8,13.9,240.1,12.8L240.1,12.8z M238.2,31.3c0,3.1-0.4,5.3-1.2,6.6c-0.5,0.8-1.1,1.2-2,1.6
	c-0.7,0.2-1.4,0.3-2.1,0.3h-0.6c-0.1,0-0.3-0.1-0.4-0.1V12.1h0.3c1.1,0,2.1,0.2,2.9,0.5c0.8,0.3,1.4,0.8,1.9,1.5
	c0.9,1.2,1.4,3.8,1.4,7.8V31.3L238.2,31.3z M265.5,37.9c-1.3,1.3-3.2,1.9-5.9,1.9h-1.6V26c1.6,0,2.6,0.4,3.4,1.3
	c0.6,0.8,1,2.3,1.1,4.5h1.1V19.3h-1.1c-0.1,1.9-0.4,3.3-1.1,4.1c-0.7,0.8-1.8,1.2-3.4,1.2V12.1h1.6c2.4,0,4.1,0.5,5.1,1.4
	c1.1,0.9,1.9,2.6,2.6,5h1.1l-0.3-7.7h-18.9v1.2h2.3v27.7h-2.3v1.3h19.4l0.4-10h-1.2C267.5,34.3,266.7,36.5,265.5,37.9L265.5,37.9z
	 M25.4,43.2c-1.9,2.1-5,3.1-9.2,3.1h-2.6v-22c2.5,0,4.2,0.7,5.2,2c1,1.4,1.6,3.8,1.8,7.3h1.7v-20h-1.7c-0.1,3.1-0.7,5.3-1.8,6.5
	c-1,1.3-2.8,1.9-5.2,2V2h2.6c3.8,0,6.5,0.7,8.2,2.2c1.6,1.4,3.1,4.1,4,8.1h1.8L29.6,0H0v2h3.5v44.2H0v2.1h30.4L31,32.4h-1.8
	C28.6,37.5,27.4,41.1,25.4,43.2z M52.1,19.3c-0.7-0.5-1.8-1.2-3.1-2.1c-5.6-3.6-8.3-6.7-8.3-9.4c0-1.7,0.6-3.1,1.9-4.2
	c1.3-1.2,2.9-1.8,4.8-1.8c2.6,0,4.8,1,6.6,2.9c1.7,1.9,3.1,4.8,3.8,8.6h1.7V0.6h-1.7l-1.6,2.4c-1.3-1-2.7-1.7-4.2-2.3
	C50.5,0.3,49.1,0,47.6,0c-3.4,0-6.2,1.2-8.4,3.6C37,6,36,9.1,36,12.9c0,3.3,0.7,6.2,2.2,8.6s4.4,5.1,8.8,8c3.8,2.5,6.2,4.5,7.2,5.9
	c1,1.5,1.6,3,1.6,4.8c0,2.2-0.7,3.9-2.1,5.3c-1.4,1.4-3.1,2.1-5.3,2.1c-2.9,0-5.3-1.2-7.1-3.4c-1.9-2.3-3.1-5.6-3.6-9.8H36v14.5h1.6
	l1.9-2.4c1.5,1,3,1.9,4.4,2.4c1.5,0.6,2.9,0.8,4.3,0.8c3.6,0,6.6-1.4,9-4.1c2.3-2.7,3.5-6.2,3.5-10.5c0-3.4-0.7-6.3-2.1-8.8
	C57.3,23.6,55,21.3,52.1,19.3L52.1,19.3z M97.9,15.4L97.6,0H64.9l-0.4,15.4h1.9c0.9-4.8,2-8.3,3.4-10.4C71.2,3,73.2,2,75.6,2h0.6
	v44.3h-5.1v2.1h20.3v-2.1h-5V2H87c2.4,0,4.4,1.1,5.8,3c1.4,2,2.6,5.5,3.5,10.5L97.9,15.4L97.9,15.4z M115.1,0h-2.9l-2.6,9.1
	L98.7,46.2h-3.2v2.1h10.1v-2.1H101l3.6-12.3h9.7l3.2,12.3H114v2.1h16.2v-2.1h-2.6L115.1,0z M109.6,31.7h-4.2l4.2-15.1l0.1-0.5
	l4.1,15.6H109.6z M160.1,3.1c-1.8-1.1-3.9-1.9-6.2-2.4c-0.7-0.1-1.4-0.2-2.1-0.4c-2.3-0.2-4.6-0.4-6.9-0.4h-12.2v2h3.7v44.2h-3.7
	v2.1h13.2c2.3,0,4.3-0.1,5.9-0.2c0.9-0.1,1.7-0.2,2.3-0.4c1.8-0.4,3.4-1.1,4.8-1.9c3.1-2,5.6-4.8,7.2-8.6c1.7-3.8,2.5-8.3,2.5-13.5
	c0-5-0.7-9.3-2.2-12.8C165,7.4,162.8,4.8,160.1,3.1L160.1,3.1z M156.8,32.6c0,5.1-0.7,8.6-1.9,10.7c-0.8,1.2-1.8,2-3.2,2.5
	c-0.9,0.4-2.1,0.5-3.4,0.5h-1c-0.2,0-0.4,0-0.7-0.1V2h0.4c1.9,0,3.5,0.3,4.8,0.8c1.3,0.5,2.3,1.3,3.1,2.2c1.4,2,2,6.2,2,12.5
	L156.8,32.6L156.8,32.6z M202.9,5.8c-1.6-1.8-3.5-3.3-5.6-4.3c-2-1-4.2-1.5-6.4-1.5c-2.2,0-4.3,0.5-6.2,1.5c-2,1-3.9,2.4-5.6,4.3
	c-2.3,2.4-4,5.3-5.1,8.4c-1.1,3.1-1.7,6.7-1.7,10.6c0,3.9,0.6,7.4,1.7,10.6c1.1,3.1,2.9,6,5.1,8.4c1.6,1.8,3.5,3.3,5.6,4.3
	c2,1,4,1.5,6.1,1.5c2.2,0,4.3-0.6,6.4-1.5c2.1-1,3.9-2.4,5.6-4.3c2.2-2.5,4-5.3,5.1-8.4c1.1-3.1,1.6-6.7,1.6-10.5
	c0-4-0.5-7.5-1.7-10.6C206.8,11.1,205.1,8.2,202.9,5.8L202.9,5.8z M197.8,32.6c0,5.3-0.5,9.1-1.6,11.5c-1.2,2.4-2.9,3.5-5.3,3.5
	c-2.4,0-4.1-1.2-5.3-3.5c-1.1-2.4-1.7-6.2-1.7-11.5V16.9c0-5.3,0.6-9.1,1.7-11.5c1.1-2.4,2.9-3.5,5.3-3.5c2.5,0,4.2,1.2,5.3,3.5
	c1.1,2.4,1.6,6.2,1.6,11.5V32.6z M302.9,30l-6.8-30h-14.7v2.1h3.5v44.2h-3.5v2h9.2v-2h-3.4V4.1l10.6,44.3h2.4l11.7-43.1v41.1h-3.8v2
	h16.7v-2h-3V2.1h3V0h-13.8L302.9,30z M329.8,2.1h3.5v44.2h-3.5v2h17.4v-2h-3.5V2.1h3.5V0h-17.4V2.1z M375.3,2.1h4.1v27.5L364.4,0
	h-13.5v2.1h3.8v44.7h-3.8v2.1H361v-2.1h-4.1V6.7l21.8,42.9h2.9V2.1h4V0h-10.3L375.3,2.1z M407.7,0h-2.9l-2.6,9.1l-10.8,37.2h-3.3v2
	h10.1v-2h-4.5l3.6-12.3h9.7l3.2,12.3h-3.6v2h16.2v-2h-2.6L407.7,0L407.7,0z M402.2,31.8h-4.2l4.2-15.2l0.1-0.4l4.1,15.6H402.2z
	 M441.4,19.4c-0.8-0.5-1.9-1.3-3.2-2.2c-5.5-3.5-8.3-6.7-8.3-9.3c0-1.7,0.6-3.1,1.9-4.3c1.3-1.2,2.9-1.7,4.8-1.7
	c2.6,0,4.8,1,6.5,2.9c1.8,1.9,3.1,4.8,3.9,8.6h1.6V0.6h-1.6l-1.6,2.5c-1.3-1-2.7-1.7-4.2-2.4C439.9,0.2,438.5,0,437,0
	c-3.4,0-6.3,1.2-8.4,3.5c-2.2,2.4-3.3,5.5-3.3,9.3c0,3.3,0.8,6.2,2.3,8.6c1.5,2.4,4.4,5.1,8.8,7.9c3.8,2.6,6.2,4.6,7.2,6
	c1,1.4,1.5,3,1.5,4.8c0,2.1-0.6,3.9-2.1,5.3c-1.4,1.3-3.1,2-5.3,2c-2.9,0-5.3-1.1-7.1-3.4c-1.9-2.2-3.1-5.5-3.6-9.8h-1.7v14.5h1.7
	l1.9-2.4c1.4,1,2.8,1.9,4.4,2.5c1.4,0.5,2.9,0.8,4.3,0.8c3.6,0,6.6-1.3,8.9-4c2.3-2.7,3.5-6.2,3.5-10.5c0-3.4-0.6-6.4-2.1-8.8
	C446.6,23.7,444.4,21.4,441.4,19.4L441.4,19.4z"/>
</svg>
