<?xml version="1.0" encoding="utf-8"?>
<!-- Generator: Adobe Illustrator 24.0.1, SVG Export Plug-In . SVG Version: 6.00 Build 0)  -->
<svg version="1.1" id="Layer_1" xmlns="http://www.w3.org/2000/svg" xmlns:xlink="http://www.w3.org/1999/xlink" x="0px" y="0px"
	 viewBox="0 0 502.9 55.6" style="enable-background:new 0 0 502.9 55.6;" xml:space="preserve">
<style type="text/css">
	.st0{fill:#343A40;}
</style>
<title>Folha de S. Paulo</title>
<g transform="translate(-117.13239,-682.42131)">
	<path class="st0" d="M153.6,712.8c0,16.9,5.9,24.7,18.4,24.7c10.9,0,19.3-7,19.3-24.1c0-16.9-6-24.6-18.5-24.6
		C161.9,688.8,153.6,695.6,153.6,712.8L153.6,712.8z M179.8,713.4c0,18.6-3.8,21.2-7.7,21.2c-3.8,0-7.2-3-7.2-22
		c0-18.5,3.8-21.1,7.6-21.1C176.5,691.6,179.8,694.4,179.8,713.4L179.8,713.4z M193.5,736.6h28.2v-14.2h-2.2l-3.9,11.1h-7.2v-40.7
		l4.1-1v-2.1h-18.7v2.1l3.8,1v40.7l-4.1,1L193.5,736.6L193.5,736.6z M225.4,689.7v2.1l3.8,1v40.7l-3.8,1v2.1h18v-2.1l-3.4-1V715
		h10.3v18.5l-3.2,1v2.1h17.7v-2.1l-3.8-1v-40.7l3.5-1v-2.1h-17.4v2.1l3.2,1v19.1H240v-19.1l3.4-1v-2.1L225.4,689.7L225.4,689.7z
		 M267.9,736.6h12v-2.1l-4.9-1l2.6-11.2h10l3.7,11.2l-4.2,1v2.1h18.9v-2.1l-3.5-1l-13.3-43.9h-6.7l-11.4,43.9l-3.4,1L267.9,736.6
		L267.9,736.6z M278.6,719l3.7-14.8l4.5,14.8H278.6z M353,713.8c0-18.5-7-24.2-18.6-24.2h-18.1v2.1l3.7,1v40.7l-3.7,1v2.1h18.9
		C344.4,736.6,353,730.5,353,713.8L353,713.8z M334.2,733.4h-3v-40.6h2.7c5.3,0,8.3,3.1,8.3,20.5
		C342.1,730.5,339.6,733.4,334.2,733.4L334.2,733.4z M117.3,683.1v2.5l4.9,1v46.5l-5,1v2.5h23.2v-2.5l-6.4-1v-21.5h6.8l1.7,7.1h2.5
		v-17.3h-2.5l-1.7,6.5H134v-21.2h8.8l4.5,12.2h2.7v-15.8L117.3,683.1L117.3,683.1z"/>
	<path class="st0" d="M376,733.4h-8.7v-18.7h5.8l1.4,6.3h2.2v-15.2h-2.2l-1.4,5.7h-5.8V693h7.2l3.8,10.3h2.5v-13.5h-28.6v2.1l4.3,1
		v40.7l-4.4,1v2.1h30.1v-13.7h-2.4L376,733.4L376,733.4z M415.8,682.4c-9.5,0-17.1,6.1-17.2,15.8c-0.1,15.8,20.1,16,20.1,28.6
		c0,3.4-2.6,6.5-6.8,6.5c-2.8,0-5.8-0.4-8-1.8l-2.4-10.3h-2.8v14.5c2.8,1.1,6.9,1.8,11.6,1.8c10.9,0,18.2-8,18.2-17.6
		c0-17.2-19.8-16.1-19.8-27.8c0-3.2,2.5-5.6,7-5.6c2,0,3.3,0.2,5.3,0.6l2.6,10.7h2.5v-14.5C423,682.7,419.4,682.4,415.8,682.4
		L415.8,682.4z M460.9,711.2h-2v-24.3h2.1c4.1,0,5.6,2.2,5.6,12.1C466.6,708.8,464.5,711.2,460.9,711.2L460.9,711.2z M463.8,714.9
		c10.7,0,15.3-6.3,15.3-15.8c0-12.3-5.9-15.8-14.6-15.8h-22.3v2.5l4.9,1v46.4l-5,1v2.5h22.9v-2.5l-6-1v-18.2L463.8,714.9
		L463.8,714.9z M486.8,719.1l3.7-14.9l4.5,14.9H486.8L486.8,719.1z M475.7,736.6h12.5v-2.1l-4.8-1l2.6-11.2h9.9l3.7,11.2l-4.2,1v2.1
		h19.4v-2.1l-4-1l-13.2-43.8H491l-11.5,43.8l-3.8,1L475.7,736.6L475.7,736.6z M512.8,689.8v2.1l3.8,1v30.2c0,10.8,3.5,15,13.9,15
		c9.4,0.1,13.8-3.8,13.8-12.9v-32.3l3.6-1v-2.1h-10.8v2.1l4,1v31.7c0,6.6-1.8,10.2-8,10.2c-4.4,0-5.8-2.8-5.8-8.8v-33.1l4.1-1v-2.1
		H512.8L512.8,689.8z M551.5,736.6h27.7v-14.2H577l-3.8,11.1h-6.8v-40.6l4.1-1v-2.1h-18.7v2.1l3.9,1v40.7l-4.1,1L551.5,736.6
		L551.5,736.6z M582.5,712.8c0,16.9,5.9,24.7,18.4,24.7c10.8,0,19.2-7,19.2-24.1c0-16.9-6-24.5-18.5-24.5
		C590.7,688.9,582.5,695.7,582.5,712.8L582.5,712.8z M608.6,713.5c0,18.5-3.9,21.2-7.7,21.2s-7.1-3-7.1-22c0-18.5,3.8-21.1,7.6-21.1
		S608.6,694.5,608.6,713.5L608.6,713.5z M432.4,727.9c2.5,0,4.6,2.3,4.6,5.1s-2.2,5.1-4.8,5.1c-2.4,0-4.6-2.3-4.6-5.1
		S430,727.9,432.4,727.9L432.4,727.9z"/>
</g>
</svg>
