<?xml version="1.0" encoding="utf-8" standalone="no"?>
<!DOCTYPE svg PUBLIC "-//W3C//DTD SVG 1.1//EN"
  "http://www.w3.org/Graphics/SVG/1.1/DTD/svg11.dtd">
<!-- Created with matplotlib (https://matplotlib.org/) -->
<svg height="553.413875pt" version="1.1" viewBox="0 0 554.496406 553.413875" width="554.496406pt" xmlns="http://www.w3.org/2000/svg" xmlns:xlink="http://www.w3.org/1999/xlink">
 <defs>
  <style type="text/css">
*{stroke-linecap:butt;stroke-linejoin:round;white-space:pre;}
  </style>
 </defs>
 <g id="figure_1">
  <g id="patch_1">
   <path d="M 0 553.413875 
L 554.496406 553.413875 
L 554.496406 0 
L 0 0 
z
" style="fill:#ffffff;"/>
  </g>
  <g id="axes_1">
   <g id="patch_2">
    <path d="M 100.896406 442.08 
L 547.296406 442.08 
L 547.296406 7.2 
L 100.896406 7.2 
z
" style="fill:#eaeaf2;"/>
   </g>
   <g id="matplotlib.axis_1">
    <g id="xtick_1">
     <g id="line2d_1">
      <path clip-path="url(#pae0f3d4de0)" d="M 100.896406 442.08 
L 100.896406 7.2 
" style="fill:none;stroke:#ffffff;stroke-linecap:round;"/>
     </g>
     <g id="text_1">
      <!-- 0.0 -->
      <defs>
       <path d="M 31.78125 66.40625 
Q 24.171875 66.40625 20.328125 58.90625 
Q 16.5 51.421875 16.5 36.375 
Q 16.5 21.390625 20.328125 13.890625 
Q 24.171875 6.390625 31.78125 6.390625 
Q 39.453125 6.390625 43.28125 13.890625 
Q 47.125 21.390625 47.125 36.375 
Q 47.125 51.421875 43.28125 58.90625 
Q 39.453125 66.40625 31.78125 66.40625 
z
M 31.78125 74.21875 
Q 44.046875 74.21875 50.515625 64.515625 
Q 56.984375 54.828125 56.984375 36.375 
Q 56.984375 17.96875 50.515625 8.265625 
Q 44.046875 -1.421875 31.78125 -1.421875 
Q 19.53125 -1.421875 13.0625 8.265625 
Q 6.59375 17.96875 6.59375 36.375 
Q 6.59375 54.828125 13.0625 64.515625 
Q 19.53125 74.21875 31.78125 74.21875 
z
" id="DejaVuSans-48"/>
       <path d="M 10.6875 12.40625 
L 21 12.40625 
L 21 0 
L 10.6875 0 
z
" id="DejaVuSans-46"/>
      </defs>
      <g style="fill:#262626;" transform="translate(92.149687 459.938281)scale(0.11 -0.11)">
       <use xlink:href="#DejaVuSans-48"/>
       <use x="63.623047" xlink:href="#DejaVuSans-46"/>
       <use x="95.410156" xlink:href="#DejaVuSans-48"/>
      </g>
     </g>
    </g>
    <g id="xtick_2">
     <g id="line2d_2">
      <path clip-path="url(#pae0f3d4de0)" d="M 151.623679 442.08 
L 151.623679 7.2 
" style="fill:none;stroke:#ffffff;stroke-linecap:round;"/>
     </g>
     <g id="text_2">
      <!-- 2.5 -->
      <defs>
       <path d="M 19.1875 8.296875 
L 53.609375 8.296875 
L 53.609375 0 
L 7.328125 0 
L 7.328125 8.296875 
Q 12.9375 14.109375 22.625 23.890625 
Q 32.328125 33.6875 34.8125 36.53125 
Q 39.546875 41.84375 41.421875 45.53125 
Q 43.3125 49.21875 43.3125 52.78125 
Q 43.3125 58.59375 39.234375 62.25 
Q 35.15625 65.921875 28.609375 65.921875 
Q 23.96875 65.921875 18.8125 64.3125 
Q 13.671875 62.703125 7.8125 59.421875 
L 7.8125 69.390625 
Q 13.765625 71.78125 18.9375 73 
Q 24.125 74.21875 28.421875 74.21875 
Q 39.75 74.21875 46.484375 68.546875 
Q 53.21875 62.890625 53.21875 53.421875 
Q 53.21875 48.921875 51.53125 44.890625 
Q 49.859375 40.875 45.40625 35.40625 
Q 44.1875 33.984375 37.640625 27.21875 
Q 31.109375 20.453125 19.1875 8.296875 
z
" id="DejaVuSans-50"/>
       <path d="M 10.796875 72.90625 
L 49.515625 72.90625 
L 49.515625 64.59375 
L 19.828125 64.59375 
L 19.828125 46.734375 
Q 21.96875 47.46875 24.109375 47.828125 
Q 26.265625 48.1875 28.421875 48.1875 
Q 40.625 48.1875 47.75 41.5 
Q 54.890625 34.8125 54.890625 23.390625 
Q 54.890625 11.625 47.5625 5.09375 
Q 40.234375 -1.421875 26.90625 -1.421875 
Q 22.3125 -1.421875 17.546875 -0.640625 
Q 12.796875 0.140625 7.71875 1.703125 
L 7.71875 11.625 
Q 12.109375 9.234375 16.796875 8.0625 
Q 21.484375 6.890625 26.703125 6.890625 
Q 35.15625 6.890625 40.078125 11.328125 
Q 45.015625 15.765625 45.015625 23.390625 
Q 45.015625 31 40.078125 35.4375 
Q 35.15625 39.890625 26.703125 39.890625 
Q 22.75 39.890625 18.8125 39.015625 
Q 14.890625 38.140625 10.796875 36.28125 
z
" id="DejaVuSans-53"/>
      </defs>
      <g style="fill:#262626;" transform="translate(142.87696 459.938281)scale(0.11 -0.11)">
       <use xlink:href="#DejaVuSans-50"/>
       <use x="63.623047" xlink:href="#DejaVuSans-46"/>
       <use x="95.410156" xlink:href="#DejaVuSans-53"/>
      </g>
     </g>
    </g>
    <g id="xtick_3">
     <g id="line2d_3">
      <path clip-path="url(#pae0f3d4de0)" d="M 202.350952 442.08 
L 202.350952 7.2 
" style="fill:none;stroke:#ffffff;stroke-linecap:round;"/>
     </g>
     <g id="text_3">
      <!-- 5.0 -->
      <g style="fill:#262626;" transform="translate(193.604233 459.938281)scale(0.11 -0.11)">
       <use xlink:href="#DejaVuSans-53"/>
       <use x="63.623047" xlink:href="#DejaVuSans-46"/>
       <use x="95.410156" xlink:href="#DejaVuSans-48"/>
      </g>
     </g>
    </g>
    <g id="xtick_4">
     <g id="line2d_4">
      <path clip-path="url(#pae0f3d4de0)" d="M 253.078224 442.08 
L 253.078224 7.2 
" style="fill:none;stroke:#ffffff;stroke-linecap:round;"/>
     </g>
     <g id="text_4">
      <!-- 7.5 -->
      <defs>
       <path d="M 8.203125 72.90625 
L 55.078125 72.90625 
L 55.078125 68.703125 
L 28.609375 0 
L 18.3125 0 
L 43.21875 64.59375 
L 8.203125 64.59375 
z
" id="DejaVuSans-55"/>
      </defs>
      <g style="fill:#262626;" transform="translate(244.331506 459.938281)scale(0.11 -0.11)">
       <use xlink:href="#DejaVuSans-55"/>
       <use x="63.623047" xlink:href="#DejaVuSans-46"/>
       <use x="95.410156" xlink:href="#DejaVuSans-53"/>
      </g>
     </g>
    </g>
    <g id="xtick_5">
     <g id="line2d_5">
      <path clip-path="url(#pae0f3d4de0)" d="M 303.805497 442.08 
L 303.805497 7.2 
" style="fill:none;stroke:#ffffff;stroke-linecap:round;"/>
     </g>
     <g id="text_5">
      <!-- 10.0 -->
      <defs>
       <path d="M 12.40625 8.296875 
L 28.515625 8.296875 
L 28.515625 63.921875 
L 10.984375 60.40625 
L 10.984375 69.390625 
L 28.421875 72.90625 
L 38.28125 72.90625 
L 38.28125 8.296875 
L 54.390625 8.296875 
L 54.390625 0 
L 12.40625 0 
z
" id="DejaVuSans-49"/>
      </defs>
      <g style="fill:#262626;" transform="translate(291.559403 459.938281)scale(0.11 -0.11)">
       <use xlink:href="#DejaVuSans-49"/>
       <use x="63.623047" xlink:href="#DejaVuSans-48"/>
       <use x="127.246094" xlink:href="#DejaVuSans-46"/>
       <use x="159.033203" xlink:href="#DejaVuSans-48"/>
      </g>
     </g>
    </g>
    <g id="xtick_6">
     <g id="line2d_6">
      <path clip-path="url(#pae0f3d4de0)" d="M 354.53277 442.08 
L 354.53277 7.2 
" style="fill:none;stroke:#ffffff;stroke-linecap:round;"/>
     </g>
     <g id="text_6">
      <!-- 12.5 -->
      <g style="fill:#262626;" transform="translate(342.286676 459.938281)scale(0.11 -0.11)">
       <use xlink:href="#DejaVuSans-49"/>
       <use x="63.623047" xlink:href="#DejaVuSans-50"/>
       <use x="127.246094" xlink:href="#DejaVuSans-46"/>
       <use x="159.033203" xlink:href="#DejaVuSans-53"/>
      </g>
     </g>
    </g>
    <g id="xtick_7">
     <g id="line2d_7">
      <path clip-path="url(#pae0f3d4de0)" d="M 405.260043 442.08 
L 405.260043 7.2 
" style="fill:none;stroke:#ffffff;stroke-linecap:round;"/>
     </g>
     <g id="text_7">
      <!-- 15.0 -->
      <g style="fill:#262626;" transform="translate(393.013949 459.938281)scale(0.11 -0.11)">
       <use xlink:href="#DejaVuSans-49"/>
       <use x="63.623047" xlink:href="#DejaVuSans-53"/>
       <use x="127.246094" xlink:href="#DejaVuSans-46"/>
       <use x="159.033203" xlink:href="#DejaVuSans-48"/>
      </g>
     </g>
    </g>
    <g id="xtick_8">
     <g id="line2d_8">
      <path clip-path="url(#pae0f3d4de0)" d="M 455.987315 442.08 
L 455.987315 7.2 
" style="fill:none;stroke:#ffffff;stroke-linecap:round;"/>
     </g>
     <g id="text_8">
      <!-- 17.5 -->
      <g style="fill:#262626;" transform="translate(443.741222 459.938281)scale(0.11 -0.11)">
       <use xlink:href="#DejaVuSans-49"/>
       <use x="63.623047" xlink:href="#DejaVuSans-55"/>
       <use x="127.246094" xlink:href="#DejaVuSans-46"/>
       <use x="159.033203" xlink:href="#DejaVuSans-53"/>
      </g>
     </g>
    </g>
    <g id="xtick_9">
     <g id="line2d_9">
      <path clip-path="url(#pae0f3d4de0)" d="M 506.714588 442.08 
L 506.714588 7.2 
" style="fill:none;stroke:#ffffff;stroke-linecap:round;"/>
     </g>
     <g id="text_9">
      <!-- 20.0 -->
      <g style="fill:#262626;" transform="translate(494.468494 459.938281)scale(0.11 -0.11)">
       <use xlink:href="#DejaVuSans-50"/>
       <use x="63.623047" xlink:href="#DejaVuSans-48"/>
       <use x="127.246094" xlink:href="#DejaVuSans-46"/>
       <use x="159.033203" xlink:href="#DejaVuSans-48"/>
      </g>
     </g>
    </g>
    <g id="text_10">
     <!-- Impacto no CLI dos países mais afetados (pré e pós-quarentena) -->
     <defs>
      <path d="M 9.8125 72.90625 
L 19.671875 72.90625 
L 19.671875 0 
L 9.8125 0 
z
" id="DejaVuSans-73"/>
      <path d="M 52 44.1875 
Q 55.375 50.25 60.0625 53.125 
Q 64.75 56 71.09375 56 
Q 79.640625 56 84.28125 50.015625 
Q 88.921875 44.046875 88.921875 33.015625 
L 88.921875 0 
L 79.890625 0 
L 79.890625 32.71875 
Q 79.890625 40.578125 77.09375 44.375 
Q 74.3125 48.1875 68.609375 48.1875 
Q 61.625 48.1875 57.5625 43.546875 
Q 53.515625 38.921875 53.515625 30.90625 
L 53.515625 0 
L 44.484375 0 
L 44.484375 32.71875 
Q 44.484375 40.625 41.703125 44.40625 
Q 38.921875 48.1875 33.109375 48.1875 
Q 26.21875 48.1875 22.15625 43.53125 
Q 18.109375 38.875 18.109375 30.90625 
L 18.109375 0 
L 9.078125 0 
L 9.078125 54.6875 
L 18.109375 54.6875 
L 18.109375 46.1875 
Q 21.1875 51.21875 25.484375 53.609375 
Q 29.78125 56 35.6875 56 
Q 41.65625 56 45.828125 52.96875 
Q 50 49.953125 52 44.1875 
z
" id="DejaVuSans-109"/>
      <path d="M 18.109375 8.203125 
L 18.109375 -20.796875 
L 9.078125 -20.796875 
L 9.078125 54.6875 
L 18.109375 54.6875 
L 18.109375 46.390625 
Q 20.953125 51.265625 25.265625 53.625 
Q 29.59375 56 35.59375 56 
Q 45.5625 56 51.78125 48.09375 
Q 58.015625 40.1875 58.015625 27.296875 
Q 58.015625 14.40625 51.78125 6.484375 
Q 45.5625 -1.421875 35.59375 -1.421875 
Q 29.59375 -1.421875 25.265625 0.953125 
Q 20.953125 3.328125 18.109375 8.203125 
z
M 48.6875 27.296875 
Q 48.6875 37.203125 44.609375 42.84375 
Q 40.53125 48.484375 33.40625 48.484375 
Q 26.265625 48.484375 22.1875 42.84375 
Q 18.109375 37.203125 18.109375 27.296875 
Q 18.109375 17.390625 22.1875 11.75 
Q 26.265625 6.109375 33.40625 6.109375 
Q 40.53125 6.109375 44.609375 11.75 
Q 48.6875 17.390625 48.6875 27.296875 
z
" id="DejaVuSans-112"/>
      <path d="M 34.28125 27.484375 
Q 23.390625 27.484375 19.1875 25 
Q 14.984375 22.515625 14.984375 16.5 
Q 14.984375 11.71875 18.140625 8.90625 
Q 21.296875 6.109375 26.703125 6.109375 
Q 34.1875 6.109375 38.703125 11.40625 
Q 43.21875 16.703125 43.21875 25.484375 
L 43.21875 27.484375 
z
M 52.203125 31.203125 
L 52.203125 0 
L 43.21875 0 
L 43.21875 8.296875 
Q 40.140625 3.328125 35.546875 0.953125 
Q 30.953125 -1.421875 24.3125 -1.421875 
Q 15.921875 -1.421875 10.953125 3.296875 
Q 6 8.015625 6 15.921875 
Q 6 25.140625 12.171875 29.828125 
Q 18.359375 34.515625 30.609375 34.515625 
L 43.21875 34.515625 
L 43.21875 35.40625 
Q 43.21875 41.609375 39.140625 45 
Q 35.0625 48.390625 27.6875 48.390625 
Q 23 48.390625 18.546875 47.265625 
Q 14.109375 46.140625 10.015625 43.890625 
L 10.015625 52.203125 
Q 14.9375 54.109375 19.578125 55.046875 
Q 24.21875 56 28.609375 56 
Q 40.484375 56 46.34375 49.84375 
Q 52.203125 43.703125 52.203125 31.203125 
z
" id="DejaVuSans-97"/>
      <path d="M 48.78125 52.59375 
L 48.78125 44.1875 
Q 44.96875 46.296875 41.140625 47.34375 
Q 37.3125 48.390625 33.40625 48.390625 
Q 24.65625 48.390625 19.8125 42.84375 
Q 14.984375 37.3125 14.984375 27.296875 
Q 14.984375 17.28125 19.8125 11.734375 
Q 24.65625 6.203125 33.40625 6.203125 
Q 37.3125 6.203125 41.140625 7.25 
Q 44.96875 8.296875 48.78125 10.40625 
L 48.78125 2.09375 
Q 45.015625 0.34375 40.984375 -0.53125 
Q 36.96875 -1.421875 32.421875 -1.421875 
Q 20.0625 -1.421875 12.78125 6.34375 
Q 5.515625 14.109375 5.515625 27.296875 
Q 5.515625 40.671875 12.859375 48.328125 
Q 20.21875 56 33.015625 56 
Q 37.15625 56 41.109375 55.140625 
Q 45.0625 54.296875 48.78125 52.59375 
z
" id="DejaVuSans-99"/>
      <path d="M 18.3125 70.21875 
L 18.3125 54.6875 
L 36.8125 54.6875 
L 36.8125 47.703125 
L 18.3125 47.703125 
L 18.3125 18.015625 
Q 18.3125 11.328125 20.140625 9.421875 
Q 21.96875 7.515625 27.59375 7.515625 
L 36.8125 7.515625 
L 36.8125 0 
L 27.59375 0 
Q 17.1875 0 13.234375 3.875 
Q 9.28125 7.765625 9.28125 18.015625 
L 9.28125 47.703125 
L 2.6875 47.703125 
L 2.6875 54.6875 
L 9.28125 54.6875 
L 9.28125 70.21875 
z
" id="DejaVuSans-116"/>
      <path d="M 30.609375 48.390625 
Q 23.390625 48.390625 19.1875 42.75 
Q 14.984375 37.109375 14.984375 27.296875 
Q 14.984375 17.484375 19.15625 11.84375 
Q 23.34375 6.203125 30.609375 6.203125 
Q 37.796875 6.203125 41.984375 11.859375 
Q 46.1875 17.53125 46.1875 27.296875 
Q 46.1875 37.015625 41.984375 42.703125 
Q 37.796875 48.390625 30.609375 48.390625 
z
M 30.609375 56 
Q 42.328125 56 49.015625 48.375 
Q 55.71875 40.765625 55.71875 27.296875 
Q 55.71875 13.875 49.015625 6.21875 
Q 42.328125 -1.421875 30.609375 -1.421875 
Q 18.84375 -1.421875 12.171875 6.21875 
Q 5.515625 13.875 5.515625 27.296875 
Q 5.515625 40.765625 12.171875 48.375 
Q 18.84375 56 30.609375 56 
z
" id="DejaVuSans-111"/>
      <path id="DejaVuSans-32"/>
      <path d="M 54.890625 33.015625 
L 54.890625 0 
L 45.90625 0 
L 45.90625 32.71875 
Q 45.90625 40.484375 42.875 44.328125 
Q 39.84375 48.1875 33.796875 48.1875 
Q 26.515625 48.1875 22.3125 43.546875 
Q 18.109375 38.921875 18.109375 30.90625 
L 18.109375 0 
L 9.078125 0 
L 9.078125 54.6875 
L 18.109375 54.6875 
L 18.109375 46.1875 
Q 21.34375 51.125 25.703125 53.5625 
Q 30.078125 56 35.796875 56 
Q 45.21875 56 50.046875 50.171875 
Q 54.890625 44.34375 54.890625 33.015625 
z
" id="DejaVuSans-110"/>
      <path d="M 64.40625 67.28125 
L 64.40625 56.890625 
Q 59.421875 61.53125 53.78125 63.8125 
Q 48.140625 66.109375 41.796875 66.109375 
Q 29.296875 66.109375 22.65625 58.46875 
Q 16.015625 50.828125 16.015625 36.375 
Q 16.015625 21.96875 22.65625 14.328125 
Q 29.296875 6.6875 41.796875 6.6875 
Q 48.140625 6.6875 53.78125 8.984375 
Q 59.421875 11.28125 64.40625 15.921875 
L 64.40625 5.609375 
Q 59.234375 2.09375 53.4375 0.328125 
Q 47.65625 -1.421875 41.21875 -1.421875 
Q 24.65625 -1.421875 15.125 8.703125 
Q 5.609375 18.84375 5.609375 36.375 
Q 5.609375 53.953125 15.125 64.078125 
Q 24.65625 74.21875 41.21875 74.21875 
Q 47.75 74.21875 53.53125 72.484375 
Q 59.328125 70.75 64.40625 67.28125 
z
" id="DejaVuSans-67"/>
      <path d="M 9.8125 72.90625 
L 19.671875 72.90625 
L 19.671875 8.296875 
L 55.171875 8.296875 
L 55.171875 0 
L 9.8125 0 
z
" id="DejaVuSans-76"/>
      <path d="M 45.40625 46.390625 
L 45.40625 75.984375 
L 54.390625 75.984375 
L 54.390625 0 
L 45.40625 0 
L 45.40625 8.203125 
Q 42.578125 3.328125 38.25 0.953125 
Q 33.9375 -1.421875 27.875 -1.421875 
Q 17.96875 -1.421875 11.734375 6.484375 
Q 5.515625 14.40625 5.515625 27.296875 
Q 5.515625 40.1875 11.734375 48.09375 
Q 17.96875 56 27.875 56 
Q 33.9375 56 38.25 53.625 
Q 42.578125 51.265625 45.40625 46.390625 
z
M 14.796875 27.296875 
Q 14.796875 17.390625 18.875 11.75 
Q 22.953125 6.109375 30.078125 6.109375 
Q 37.203125 6.109375 41.296875 11.75 
Q 45.40625 17.390625 45.40625 27.296875 
Q 45.40625 37.203125 41.296875 42.84375 
Q 37.203125 48.484375 30.078125 48.484375 
Q 22.953125 48.484375 18.875 42.84375 
Q 14.796875 37.203125 14.796875 27.296875 
z
" id="DejaVuSans-100"/>
      <path d="M 44.28125 53.078125 
L 44.28125 44.578125 
Q 40.484375 46.53125 36.375 47.5 
Q 32.28125 48.484375 27.875 48.484375 
Q 21.1875 48.484375 17.84375 46.4375 
Q 14.5 44.390625 14.5 40.28125 
Q 14.5 37.15625 16.890625 35.375 
Q 19.28125 33.59375 26.515625 31.984375 
L 29.59375 31.296875 
Q 39.15625 29.25 43.1875 25.515625 
Q 47.21875 21.78125 47.21875 15.09375 
Q 47.21875 7.46875 41.1875 3.015625 
Q 35.15625 -1.421875 24.609375 -1.421875 
Q 20.21875 -1.421875 15.453125 -0.5625 
Q 10.6875 0.296875 5.421875 2 
L 5.421875 11.28125 
Q 10.40625 8.6875 15.234375 7.390625 
Q 20.0625 6.109375 24.8125 6.109375 
Q 31.15625 6.109375 34.5625 8.28125 
Q 37.984375 10.453125 37.984375 14.40625 
Q 37.984375 18.0625 35.515625 20.015625 
Q 33.0625 21.96875 24.703125 23.78125 
L 21.578125 24.515625 
Q 13.234375 26.265625 9.515625 29.90625 
Q 5.8125 33.546875 5.8125 39.890625 
Q 5.8125 47.609375 11.28125 51.796875 
Q 16.75 56 26.8125 56 
Q 31.78125 56 36.171875 55.265625 
Q 40.578125 54.546875 44.28125 53.078125 
z
" id="DejaVuSans-115"/>
      <path d="M 20.65625 79.984375 
L 30.375 79.984375 
L 14.46875 61.625 
L 6.984375 61.625 
z
M 9.421875 54.6875 
L 18.40625 54.6875 
L 18.40625 0 
L 9.421875 0 
z
M 13.921875 56 
z
" id="DejaVuSans-237"/>
      <path d="M 56.203125 29.59375 
L 56.203125 25.203125 
L 14.890625 25.203125 
Q 15.484375 15.921875 20.484375 11.0625 
Q 25.484375 6.203125 34.421875 6.203125 
Q 39.59375 6.203125 44.453125 7.46875 
Q 49.3125 8.734375 54.109375 11.28125 
L 54.109375 2.78125 
Q 49.265625 0.734375 44.1875 -0.34375 
Q 39.109375 -1.421875 33.890625 -1.421875 
Q 20.796875 -1.421875 13.15625 6.1875 
Q 5.515625 13.8125 5.515625 26.8125 
Q 5.515625 40.234375 12.765625 48.109375 
Q 20.015625 56 32.328125 56 
Q 43.359375 56 49.78125 48.890625 
Q 56.203125 41.796875 56.203125 29.59375 
z
M 47.21875 32.234375 
Q 47.125 39.59375 43.09375 43.984375 
Q 39.0625 48.390625 32.421875 48.390625 
Q 24.90625 48.390625 20.390625 44.140625 
Q 15.875 39.890625 15.1875 32.171875 
z
" id="DejaVuSans-101"/>
      <path d="M 9.421875 54.6875 
L 18.40625 54.6875 
L 18.40625 0 
L 9.421875 0 
z
M 9.421875 75.984375 
L 18.40625 75.984375 
L 18.40625 64.59375 
L 9.421875 64.59375 
z
" id="DejaVuSans-105"/>
      <path d="M 37.109375 75.984375 
L 37.109375 68.5 
L 28.515625 68.5 
Q 23.6875 68.5 21.796875 66.546875 
Q 19.921875 64.59375 19.921875 59.515625 
L 19.921875 54.6875 
L 34.71875 54.6875 
L 34.71875 47.703125 
L 19.921875 47.703125 
L 19.921875 0 
L 10.890625 0 
L 10.890625 47.703125 
L 2.296875 47.703125 
L 2.296875 54.6875 
L 10.890625 54.6875 
L 10.890625 58.5 
Q 10.890625 67.625 15.140625 71.796875 
Q 19.390625 75.984375 28.609375 75.984375 
z
" id="DejaVuSans-102"/>
      <path d="M 31 75.875 
Q 24.46875 64.65625 21.28125 53.65625 
Q 18.109375 42.671875 18.109375 31.390625 
Q 18.109375 20.125 21.3125 9.0625 
Q 24.515625 -2 31 -13.1875 
L 23.1875 -13.1875 
Q 15.875 -1.703125 12.234375 9.375 
Q 8.59375 20.453125 8.59375 31.390625 
Q 8.59375 42.28125 12.203125 53.3125 
Q 15.828125 64.359375 23.1875 75.875 
z
" id="DejaVuSans-40"/>
      <path d="M 41.109375 46.296875 
Q 39.59375 47.171875 37.8125 47.578125 
Q 36.03125 48 33.890625 48 
Q 26.265625 48 22.1875 43.046875 
Q 18.109375 38.09375 18.109375 28.8125 
L 18.109375 0 
L 9.078125 0 
L 9.078125 54.6875 
L 18.109375 54.6875 
L 18.109375 46.1875 
Q 20.953125 51.171875 25.484375 53.578125 
Q 30.03125 56 36.53125 56 
Q 37.453125 56 38.578125 55.875 
Q 39.703125 55.765625 41.0625 55.515625 
z
" id="DejaVuSans-114"/>
      <path d="M 56.203125 29.59375 
L 56.203125 25.203125 
L 14.890625 25.203125 
Q 15.484375 15.921875 20.484375 11.0625 
Q 25.484375 6.203125 34.421875 6.203125 
Q 39.59375 6.203125 44.453125 7.46875 
Q 49.3125 8.734375 54.109375 11.28125 
L 54.109375 2.78125 
Q 49.265625 0.734375 44.1875 -0.34375 
Q 39.109375 -1.421875 33.890625 -1.421875 
Q 20.796875 -1.421875 13.15625 6.1875 
Q 5.515625 13.8125 5.515625 26.8125 
Q 5.515625 40.234375 12.765625 48.109375 
Q 20.015625 56 32.328125 56 
Q 43.359375 56 49.78125 48.890625 
Q 56.203125 41.796875 56.203125 29.59375 
z
M 47.21875 32.234375 
Q 47.125 39.59375 43.09375 43.984375 
Q 39.0625 48.390625 32.421875 48.390625 
Q 24.90625 48.390625 20.390625 44.140625 
Q 15.875 39.890625 15.1875 32.171875 
z
M 38.53125 79.984375 
L 48.25 79.984375 
L 32.34375 61.625 
L 24.859375 61.625 
z
" id="DejaVuSans-233"/>
      <path d="M 30.609375 48.390625 
Q 23.390625 48.390625 19.1875 42.75 
Q 14.984375 37.109375 14.984375 27.296875 
Q 14.984375 17.484375 19.15625 11.84375 
Q 23.34375 6.203125 30.609375 6.203125 
Q 37.796875 6.203125 41.984375 11.859375 
Q 46.1875 17.53125 46.1875 27.296875 
Q 46.1875 37.015625 41.984375 42.703125 
Q 37.796875 48.390625 30.609375 48.390625 
z
M 30.609375 56 
Q 42.328125 56 49.015625 48.375 
Q 55.71875 40.765625 55.71875 27.296875 
Q 55.71875 13.875 49.015625 6.21875 
Q 42.328125 -1.421875 30.609375 -1.421875 
Q 18.84375 -1.421875 12.171875 6.21875 
Q 5.515625 13.875 5.515625 27.296875 
Q 5.515625 40.765625 12.171875 48.375 
Q 18.84375 56 30.609375 56 
z
M 37.40625 79.984375 
L 47.125 79.984375 
L 31.21875 61.625 
L 23.734375 61.625 
z
" id="DejaVuSans-243"/>
      <path d="M 4.890625 31.390625 
L 31.203125 31.390625 
L 31.203125 23.390625 
L 4.890625 23.390625 
z
" id="DejaVuSans-45"/>
      <path d="M 14.796875 27.296875 
Q 14.796875 17.390625 18.875 11.75 
Q 22.953125 6.109375 30.078125 6.109375 
Q 37.203125 6.109375 41.296875 11.75 
Q 45.40625 17.390625 45.40625 27.296875 
Q 45.40625 37.203125 41.296875 42.84375 
Q 37.203125 48.484375 30.078125 48.484375 
Q 22.953125 48.484375 18.875 42.84375 
Q 14.796875 37.203125 14.796875 27.296875 
z
M 45.40625 8.203125 
Q 42.578125 3.328125 38.25 0.953125 
Q 33.9375 -1.421875 27.875 -1.421875 
Q 17.96875 -1.421875 11.734375 6.484375 
Q 5.515625 14.40625 5.515625 27.296875 
Q 5.515625 40.1875 11.734375 48.09375 
Q 17.96875 56 27.875 56 
Q 33.9375 56 38.25 53.625 
Q 42.578125 51.265625 45.40625 46.390625 
L 45.40625 54.6875 
L 54.390625 54.6875 
L 54.390625 -20.796875 
L 45.40625 -20.796875 
z
" id="DejaVuSans-113"/>
      <path d="M 8.5 21.578125 
L 8.5 54.6875 
L 17.484375 54.6875 
L 17.484375 21.921875 
Q 17.484375 14.15625 20.5 10.265625 
Q 23.53125 6.390625 29.59375 6.390625 
Q 36.859375 6.390625 41.078125 11.03125 
Q 45.3125 15.671875 45.3125 23.6875 
L 45.3125 54.6875 
L 54.296875 54.6875 
L 54.296875 0 
L 45.3125 0 
L 45.3125 8.40625 
Q 42.046875 3.421875 37.71875 1 
Q 33.40625 -1.421875 27.6875 -1.421875 
Q 18.265625 -1.421875 13.375 4.4375 
Q 8.5 10.296875 8.5 21.578125 
z
M 31.109375 56 
z
" id="DejaVuSans-117"/>
      <path d="M 8.015625 75.875 
L 15.828125 75.875 
Q 23.140625 64.359375 26.78125 53.3125 
Q 30.421875 42.28125 30.421875 31.390625 
Q 30.421875 20.453125 26.78125 9.375 
Q 23.140625 -1.703125 15.828125 -13.1875 
L 8.015625 -13.1875 
Q 14.5 -2 17.703125 9.0625 
Q 20.90625 20.125 20.90625 31.390625 
Q 20.90625 42.671875 17.703125 53.65625 
Q 14.5 64.65625 8.015625 75.875 
z
" id="DejaVuSans-41"/>
     </defs>
     <g style="fill:#262626;" transform="translate(129.722656 475.824062)scale(0.12 -0.12)">
      <use xlink:href="#DejaVuSans-73"/>
      <use x="29.492188" xlink:href="#DejaVuSans-109"/>
      <use x="126.904297" xlink:href="#DejaVuSans-112"/>
      <use x="190.380859" xlink:href="#DejaVuSans-97"/>
      <use x="251.660156" xlink:href="#DejaVuSans-99"/>
      <use x="306.640625" xlink:href="#DejaVuSans-116"/>
      <use x="345.849609" xlink:href="#DejaVuSans-111"/>
      <use x="407.03125" xlink:href="#DejaVuSans-32"/>
      <use x="438.818359" xlink:href="#DejaVuSans-110"/>
      <use x="502.197266" xlink:href="#DejaVuSans-111"/>
      <use x="563.378906" xlink:href="#DejaVuSans-32"/>
      <use x="595.166016" xlink:href="#DejaVuSans-67"/>
      <use x="664.990234" xlink:href="#DejaVuSans-76"/>
      <use x="720.703125" xlink:href="#DejaVuSans-73"/>
      <use x="750.195312" xlink:href="#DejaVuSans-32"/>
      <use x="781.982422" xlink:href="#DejaVuSans-100"/>
      <use x="845.458984" xlink:href="#DejaVuSans-111"/>
      <use x="906.640625" xlink:href="#DejaVuSans-115"/>
      <use x="958.740234" xlink:href="#DejaVuSans-32"/>
      <use x="990.527344" xlink:href="#DejaVuSans-112"/>
      <use x="1054.003906" xlink:href="#DejaVuSans-97"/>
      <use x="1115.283203" xlink:href="#DejaVuSans-237"/>
      <use x="1143.066406" xlink:href="#DejaVuSans-115"/>
      <use x="1195.166016" xlink:href="#DejaVuSans-101"/>
      <use x="1256.689453" xlink:href="#DejaVuSans-115"/>
      <use x="1308.789062" xlink:href="#DejaVuSans-32"/>
      <use x="1340.576172" xlink:href="#DejaVuSans-109"/>
      <use x="1437.988281" xlink:href="#DejaVuSans-97"/>
      <use x="1499.267578" xlink:href="#DejaVuSans-105"/>
      <use x="1527.050781" xlink:href="#DejaVuSans-115"/>
      <use x="1579.150391" xlink:href="#DejaVuSans-32"/>
      <use x="1610.9375" xlink:href="#DejaVuSans-97"/>
      <use x="1672.216797" xlink:href="#DejaVuSans-102"/>
      <use x="1707.421875" xlink:href="#DejaVuSans-101"/>
      <use x="1768.945312" xlink:href="#DejaVuSans-116"/>
      <use x="1808.154297" xlink:href="#DejaVuSans-97"/>
      <use x="1869.433594" xlink:href="#DejaVuSans-100"/>
      <use x="1932.910156" xlink:href="#DejaVuSans-111"/>
      <use x="1994.091797" xlink:href="#DejaVuSans-115"/>
      <use x="2046.191406" xlink:href="#DejaVuSans-32"/>
      <use x="2077.978516" xlink:href="#DejaVuSans-40"/>
      <use x="2116.992188" xlink:href="#DejaVuSans-112"/>
      <use x="2180.46875" xlink:href="#DejaVuSans-114"/>
      <use x="2221.550781" xlink:href="#DejaVuSans-233"/>
      <use x="2283.074219" xlink:href="#DejaVuSans-32"/>
      <use x="2314.861328" xlink:href="#DejaVuSans-101"/>
      <use x="2376.384766" xlink:href="#DejaVuSans-32"/>
      <use x="2408.171875" xlink:href="#DejaVuSans-112"/>
      <use x="2471.648438" xlink:href="#DejaVuSans-243"/>
      <use x="2532.830078" xlink:href="#DejaVuSans-115"/>
      <use x="2584.929688" xlink:href="#DejaVuSans-45"/>
      <use x="2621.013672" xlink:href="#DejaVuSans-113"/>
      <use x="2684.490234" xlink:href="#DejaVuSans-117"/>
      <use x="2747.869141" xlink:href="#DejaVuSans-97"/>
      <use x="2809.148438" xlink:href="#DejaVuSans-114"/>
      <use x="2850.230469" xlink:href="#DejaVuSans-101"/>
      <use x="2911.753906" xlink:href="#DejaVuSans-110"/>
      <use x="2975.132812" xlink:href="#DejaVuSans-116"/>
      <use x="3014.341797" xlink:href="#DejaVuSans-101"/>
      <use x="3075.865234" xlink:href="#DejaVuSans-110"/>
      <use x="3139.244141" xlink:href="#DejaVuSans-97"/>
      <use x="3200.523438" xlink:href="#DejaVuSans-41"/>
     </g>
    </g>
   </g>
   <g id="matplotlib.axis_2">
    <g id="ytick_1">
     <g id="text_11">
      <!-- Turquia -->
      <defs>
       <path d="M -0.296875 72.90625 
L 61.375 72.90625 
L 61.375 64.59375 
L 35.5 64.59375 
L 35.5 0 
L 25.59375 0 
L 25.59375 64.59375 
L -0.296875 64.59375 
z
" id="DejaVuSans-84"/>
      </defs>
      <g style="fill:#262626;" transform="translate(49.460625 20.439141)scale(0.11 -0.11)">
       <use xlink:href="#DejaVuSans-84"/>
       <use x="60.849609" xlink:href="#DejaVuSans-117"/>
       <use x="124.228516" xlink:href="#DejaVuSans-114"/>
       <use x="165.326172" xlink:href="#DejaVuSans-113"/>
       <use x="228.802734" xlink:href="#DejaVuSans-117"/>
       <use x="292.181641" xlink:href="#DejaVuSans-105"/>
       <use x="319.964844" xlink:href="#DejaVuSans-97"/>
      </g>
     </g>
    </g>
    <g id="ytick_2">
     <g id="text_12">
      <!-- China -->
      <defs>
       <path d="M 54.890625 33.015625 
L 54.890625 0 
L 45.90625 0 
L 45.90625 32.71875 
Q 45.90625 40.484375 42.875 44.328125 
Q 39.84375 48.1875 33.796875 48.1875 
Q 26.515625 48.1875 22.3125 43.546875 
Q 18.109375 38.921875 18.109375 30.90625 
L 18.109375 0 
L 9.078125 0 
L 9.078125 75.984375 
L 18.109375 75.984375 
L 18.109375 46.1875 
Q 21.34375 51.125 25.703125 53.5625 
Q 30.078125 56 35.796875 56 
Q 45.21875 56 50.046875 50.171875 
Q 54.890625 44.34375 54.890625 33.015625 
z
" id="DejaVuSans-104"/>
      </defs>
      <g style="fill:#262626;" transform="translate(59.975937 38.559141)scale(0.11 -0.11)">
       <use xlink:href="#DejaVuSans-67"/>
       <use x="69.824219" xlink:href="#DejaVuSans-104"/>
       <use x="133.203125" xlink:href="#DejaVuSans-105"/>
       <use x="160.986328" xlink:href="#DejaVuSans-110"/>
       <use x="224.365234" xlink:href="#DejaVuSans-97"/>
      </g>
     </g>
    </g>
    <g id="ytick_3">
     <g id="text_13">
      <!-- Brasil -->
      <defs>
       <path d="M 19.671875 34.8125 
L 19.671875 8.109375 
L 35.5 8.109375 
Q 43.453125 8.109375 47.28125 11.40625 
Q 51.125 14.703125 51.125 21.484375 
Q 51.125 28.328125 47.28125 31.5625 
Q 43.453125 34.8125 35.5 34.8125 
z
M 19.671875 64.796875 
L 19.671875 42.828125 
L 34.28125 42.828125 
Q 41.5 42.828125 45.03125 45.53125 
Q 48.578125 48.25 48.578125 53.8125 
Q 48.578125 59.328125 45.03125 62.0625 
Q 41.5 64.796875 34.28125 64.796875 
z
M 9.8125 72.90625 
L 35.015625 72.90625 
Q 46.296875 72.90625 52.390625 68.21875 
Q 58.5 63.53125 58.5 54.890625 
Q 58.5 48.1875 55.375 44.234375 
Q 52.25 40.28125 46.1875 39.3125 
Q 53.46875 37.75 57.5 32.78125 
Q 61.53125 27.828125 61.53125 20.40625 
Q 61.53125 10.640625 54.890625 5.3125 
Q 48.25 0 35.984375 0 
L 9.8125 0 
z
" id="DejaVuSans-66"/>
       <path d="M 9.421875 75.984375 
L 18.40625 75.984375 
L 18.40625 0 
L 9.421875 0 
z
" id="DejaVuSans-108"/>
      </defs>
      <g style="fill:#262626;" transform="translate(60.744219 56.679141)scale(0.11 -0.11)">
       <use xlink:href="#DejaVuSans-66"/>
       <use x="68.603516" xlink:href="#DejaVuSans-114"/>
       <use x="109.716797" xlink:href="#DejaVuSans-97"/>
       <use x="170.996094" xlink:href="#DejaVuSans-115"/>
       <use x="223.095703" xlink:href="#DejaVuSans-105"/>
       <use x="250.878906" xlink:href="#DejaVuSans-108"/>
      </g>
     </g>
    </g>
    <g id="ytick_4">
     <g id="text_14">
      <!-- Portugal -->
      <defs>
       <path d="M 19.671875 64.796875 
L 19.671875 37.40625 
L 32.078125 37.40625 
Q 38.96875 37.40625 42.71875 40.96875 
Q 46.484375 44.53125 46.484375 51.125 
Q 46.484375 57.671875 42.71875 61.234375 
Q 38.96875 64.796875 32.078125 64.796875 
z
M 9.8125 72.90625 
L 32.078125 72.90625 
Q 44.34375 72.90625 50.609375 67.359375 
Q 56.890625 61.8125 56.890625 51.125 
Q 56.890625 40.328125 50.609375 34.8125 
Q 44.34375 29.296875 32.078125 29.296875 
L 19.671875 29.296875 
L 19.671875 0 
L 9.8125 0 
z
" id="DejaVuSans-80"/>
       <path d="M 45.40625 27.984375 
Q 45.40625 37.75 41.375 43.109375 
Q 37.359375 48.484375 30.078125 48.484375 
Q 22.859375 48.484375 18.828125 43.109375 
Q 14.796875 37.75 14.796875 27.984375 
Q 14.796875 18.265625 18.828125 12.890625 
Q 22.859375 7.515625 30.078125 7.515625 
Q 37.359375 7.515625 41.375 12.890625 
Q 45.40625 18.265625 45.40625 27.984375 
z
M 54.390625 6.78125 
Q 54.390625 -7.171875 48.1875 -13.984375 
Q 42 -20.796875 29.203125 -20.796875 
Q 24.46875 -20.796875 20.265625 -20.09375 
Q 16.0625 -19.390625 12.109375 -17.921875 
L 12.109375 -9.1875 
Q 16.0625 -11.328125 19.921875 -12.34375 
Q 23.78125 -13.375 27.78125 -13.375 
Q 36.625 -13.375 41.015625 -8.765625 
Q 45.40625 -4.15625 45.40625 5.171875 
L 45.40625 9.625 
Q 42.625 4.78125 38.28125 2.390625 
Q 33.9375 0 27.875 0 
Q 17.828125 0 11.671875 7.65625 
Q 5.515625 15.328125 5.515625 27.984375 
Q 5.515625 40.671875 11.671875 48.328125 
Q 17.828125 56 27.875 56 
Q 33.9375 56 38.28125 53.609375 
Q 42.625 51.21875 45.40625 46.390625 
L 45.40625 54.6875 
L 54.390625 54.6875 
z
" id="DejaVuSans-103"/>
      </defs>
      <g style="fill:#262626;" transform="translate(45.4525 74.799141)scale(0.11 -0.11)">
       <use xlink:href="#DejaVuSans-80"/>
       <use x="60.255859" xlink:href="#DejaVuSans-111"/>
       <use x="121.4375" xlink:href="#DejaVuSans-114"/>
       <use x="162.550781" xlink:href="#DejaVuSans-116"/>
       <use x="201.759766" xlink:href="#DejaVuSans-117"/>
       <use x="265.138672" xlink:href="#DejaVuSans-103"/>
       <use x="328.615234" xlink:href="#DejaVuSans-97"/>
       <use x="389.894531" xlink:href="#DejaVuSans-108"/>
      </g>
     </g>
    </g>
    <g id="ytick_5">
     <g id="text_15">
      <!-- Reino Unido -->
      <defs>
       <path d="M 44.390625 34.1875 
Q 47.5625 33.109375 50.5625 29.59375 
Q 53.5625 26.078125 56.59375 19.921875 
L 66.609375 0 
L 56 0 
L 46.6875 18.703125 
Q 43.0625 26.03125 39.671875 28.421875 
Q 36.28125 30.8125 30.421875 30.8125 
L 19.671875 30.8125 
L 19.671875 0 
L 9.8125 0 
L 9.8125 72.90625 
L 32.078125 72.90625 
Q 44.578125 72.90625 50.734375 67.671875 
Q 56.890625 62.453125 56.890625 51.90625 
Q 56.890625 45.015625 53.6875 40.46875 
Q 50.484375 35.9375 44.390625 34.1875 
z
M 19.671875 64.796875 
L 19.671875 38.921875 
L 32.078125 38.921875 
Q 39.203125 38.921875 42.84375 42.21875 
Q 46.484375 45.515625 46.484375 51.90625 
Q 46.484375 58.296875 42.84375 61.546875 
Q 39.203125 64.796875 32.078125 64.796875 
z
" id="DejaVuSans-82"/>
       <path d="M 8.6875 72.90625 
L 18.609375 72.90625 
L 18.609375 28.609375 
Q 18.609375 16.890625 22.84375 11.734375 
Q 27.09375 6.59375 36.625 6.59375 
Q 46.09375 6.59375 50.34375 11.734375 
Q 54.59375 16.890625 54.59375 28.609375 
L 54.59375 72.90625 
L 64.5 72.90625 
L 64.5 27.390625 
Q 64.5 13.140625 57.4375 5.859375 
Q 50.390625 -1.421875 36.625 -1.421875 
Q 22.796875 -1.421875 15.734375 5.859375 
Q 8.6875 13.140625 8.6875 27.390625 
z
" id="DejaVuSans-85"/>
      </defs>
      <g style="fill:#262626;" transform="translate(24.946094 92.919141)scale(0.11 -0.11)">
       <use xlink:href="#DejaVuSans-82"/>
       <use x="69.419922" xlink:href="#DejaVuSans-101"/>
       <use x="130.943359" xlink:href="#DejaVuSans-105"/>
       <use x="158.726562" xlink:href="#DejaVuSans-110"/>
       <use x="222.105469" xlink:href="#DejaVuSans-111"/>
       <use x="283.287109" xlink:href="#DejaVuSans-32"/>
       <use x="315.074219" xlink:href="#DejaVuSans-85"/>
       <use x="388.267578" xlink:href="#DejaVuSans-110"/>
       <use x="451.646484" xlink:href="#DejaVuSans-105"/>
       <use x="479.429688" xlink:href="#DejaVuSans-100"/>
       <use x="542.90625" xlink:href="#DejaVuSans-111"/>
      </g>
     </g>
    </g>
    <g id="ytick_6">
     <g id="text_16">
      <!-- Alemanha -->
      <defs>
       <path d="M 34.1875 63.1875 
L 20.796875 26.90625 
L 47.609375 26.90625 
z
M 28.609375 72.90625 
L 39.796875 72.90625 
L 67.578125 0 
L 57.328125 0 
L 50.6875 18.703125 
L 17.828125 18.703125 
L 11.1875 0 
L 0.78125 0 
z
" id="DejaVuSans-65"/>
      </defs>
      <g style="fill:#262626;" transform="translate(35.908281 111.039141)scale(0.11 -0.11)">
       <use xlink:href="#DejaVuSans-65"/>
       <use x="68.408203" xlink:href="#DejaVuSans-108"/>
       <use x="96.191406" xlink:href="#DejaVuSans-101"/>
       <use x="157.714844" xlink:href="#DejaVuSans-109"/>
       <use x="255.126953" xlink:href="#DejaVuSans-97"/>
       <use x="316.40625" xlink:href="#DejaVuSans-110"/>
       <use x="379.785156" xlink:href="#DejaVuSans-104"/>
       <use x="443.164062" xlink:href="#DejaVuSans-97"/>
      </g>
     </g>
    </g>
    <g id="ytick_7">
     <g id="text_17">
      <!-- Espanha -->
      <defs>
       <path d="M 9.8125 72.90625 
L 55.90625 72.90625 
L 55.90625 64.59375 
L 19.671875 64.59375 
L 19.671875 43.015625 
L 54.390625 43.015625 
L 54.390625 34.71875 
L 19.671875 34.71875 
L 19.671875 8.296875 
L 56.78125 8.296875 
L 56.78125 0 
L 9.8125 0 
z
" id="DejaVuSans-69"/>
      </defs>
      <g style="fill:#262626;" transform="translate(44.307812 129.159141)scale(0.11 -0.11)">
       <use xlink:href="#DejaVuSans-69"/>
       <use x="63.183594" xlink:href="#DejaVuSans-115"/>
       <use x="115.283203" xlink:href="#DejaVuSans-112"/>
       <use x="178.759766" xlink:href="#DejaVuSans-97"/>
       <use x="240.039062" xlink:href="#DejaVuSans-110"/>
       <use x="303.417969" xlink:href="#DejaVuSans-104"/>
       <use x="366.796875" xlink:href="#DejaVuSans-97"/>
      </g>
     </g>
    </g>
    <g id="ytick_8">
     <g id="text_18">
      <!-- Índia -->
      <defs>
       <path d="M 9.8125 72.90625 
L 19.671875 72.90625 
L 19.671875 0 
L 9.8125 0 
z
M 17.4375 92.515625 
L 26.46875 92.515625 
L 15.34375 79.625 
L 7.859375 79.625 
z
" id="DejaVuSans-205"/>
      </defs>
      <g style="fill:#262626;" transform="translate(64.4 147.279141)scale(0.11 -0.11)">
       <use xlink:href="#DejaVuSans-205"/>
       <use x="29.492188" xlink:href="#DejaVuSans-110"/>
       <use x="92.871094" xlink:href="#DejaVuSans-100"/>
       <use x="156.347656" xlink:href="#DejaVuSans-105"/>
       <use x="184.130859" xlink:href="#DejaVuSans-97"/>
      </g>
     </g>
    </g>
    <g id="ytick_9">
     <g id="text_19">
      <!-- Suíça -->
      <defs>
       <path d="M 53.515625 70.515625 
L 53.515625 60.890625 
Q 47.90625 63.578125 42.921875 64.890625 
Q 37.9375 66.21875 33.296875 66.21875 
Q 25.25 66.21875 20.875 63.09375 
Q 16.5 59.96875 16.5 54.203125 
Q 16.5 49.359375 19.40625 46.890625 
Q 22.3125 44.4375 30.421875 42.921875 
L 36.375 41.703125 
Q 47.40625 39.59375 52.65625 34.296875 
Q 57.90625 29 57.90625 20.125 
Q 57.90625 9.515625 50.796875 4.046875 
Q 43.703125 -1.421875 29.984375 -1.421875 
Q 24.8125 -1.421875 18.96875 -0.25 
Q 13.140625 0.921875 6.890625 3.21875 
L 6.890625 13.375 
Q 12.890625 10.015625 18.65625 8.296875 
Q 24.421875 6.59375 29.984375 6.59375 
Q 38.421875 6.59375 43.015625 9.90625 
Q 47.609375 13.234375 47.609375 19.390625 
Q 47.609375 24.75 44.3125 27.78125 
Q 41.015625 30.8125 33.5 32.328125 
L 27.484375 33.5 
Q 16.453125 35.6875 11.515625 40.375 
Q 6.59375 45.0625 6.59375 53.421875 
Q 6.59375 63.09375 13.40625 68.65625 
Q 20.21875 74.21875 32.171875 74.21875 
Q 37.3125 74.21875 42.625 73.28125 
Q 47.953125 72.359375 53.515625 70.515625 
z
" id="DejaVuSans-83"/>
       <path d="M 48.78125 52.59375 
L 48.78125 44.1875 
Q 44.96875 46.296875 41.140625 47.34375 
Q 37.3125 48.390625 33.40625 48.390625 
Q 24.65625 48.390625 19.8125 42.84375 
Q 14.984375 37.3125 14.984375 27.296875 
Q 14.984375 17.28125 19.8125 11.734375 
Q 24.65625 6.203125 33.40625 6.203125 
Q 37.3125 6.203125 41.140625 7.25 
Q 44.96875 8.296875 48.78125 10.40625 
L 48.78125 2.09375 
Q 45.015625 0.34375 40.984375 -0.53125 
Q 36.96875 -1.421875 32.421875 -1.421875 
Q 20.0625 -1.421875 12.78125 6.34375 
Q 5.515625 14.109375 5.515625 27.296875 
Q 5.515625 40.671875 12.859375 48.328125 
Q 20.21875 56 33.015625 56 
Q 37.15625 56 41.109375 55.140625 
Q 45.0625 54.296875 48.78125 52.59375 
z
M 36.109375 0 
Q 38.78125 -3.03125 40.09375 -5.59375 
Q 41.421875 -8.15625 41.421875 -10.5 
Q 41.421875 -14.84375 38.484375 -17.0625 
Q 35.5625 -19.28125 29.796875 -19.28125 
Q 27.5625 -19.28125 25.4375 -18.984375 
Q 23.3125 -18.703125 21.203125 -18.109375 
L 21.203125 -11.71875 
Q 22.875 -12.546875 24.671875 -12.90625 
Q 26.484375 -13.28125 28.78125 -13.28125 
Q 31.65625 -13.28125 33.125 -12.109375 
Q 34.59375 -10.9375 34.59375 -8.6875 
Q 34.59375 -7.234375 33.53125 -5.109375 
Q 32.484375 -2.984375 30.296875 0 
z
" id="DejaVuSans-231"/>
      </defs>
      <g style="fill:#262626;" transform="translate(61.596719 165.535781)scale(0.11 -0.11)">
       <use xlink:href="#DejaVuSans-83"/>
       <use x="63.476562" xlink:href="#DejaVuSans-117"/>
       <use x="126.855469" xlink:href="#DejaVuSans-237"/>
       <use x="154.638672" xlink:href="#DejaVuSans-231"/>
       <use x="209.619141" xlink:href="#DejaVuSans-97"/>
      </g>
     </g>
    </g>
    <g id="ytick_10">
     <g id="text_20">
      <!-- França -->
      <defs>
       <path d="M 9.8125 72.90625 
L 51.703125 72.90625 
L 51.703125 64.59375 
L 19.671875 64.59375 
L 19.671875 43.109375 
L 48.578125 43.109375 
L 48.578125 34.8125 
L 19.671875 34.8125 
L 19.671875 0 
L 9.8125 0 
z
" id="DejaVuSans-70"/>
      </defs>
      <g style="fill:#262626;" transform="translate(54.058281 183.519141)scale(0.11 -0.11)">
       <use xlink:href="#DejaVuSans-70"/>
       <use x="57.410156" xlink:href="#DejaVuSans-114"/>
       <use x="98.523438" xlink:href="#DejaVuSans-97"/>
       <use x="159.802734" xlink:href="#DejaVuSans-110"/>
       <use x="223.181641" xlink:href="#DejaVuSans-231"/>
       <use x="278.162109" xlink:href="#DejaVuSans-97"/>
      </g>
     </g>
    </g>
    <g id="ytick_11">
     <g id="text_21">
      <!-- Hungria -->
      <defs>
       <path d="M 9.8125 72.90625 
L 19.671875 72.90625 
L 19.671875 43.015625 
L 55.515625 43.015625 
L 55.515625 72.90625 
L 65.375 72.90625 
L 65.375 0 
L 55.515625 0 
L 55.515625 34.71875 
L 19.671875 34.71875 
L 19.671875 0 
L 9.8125 0 
z
" id="DejaVuSans-72"/>
      </defs>
      <g style="fill:#262626;" transform="translate(47.879375 201.639141)scale(0.11 -0.11)">
       <use xlink:href="#DejaVuSans-72"/>
       <use x="75.195312" xlink:href="#DejaVuSans-117"/>
       <use x="138.574219" xlink:href="#DejaVuSans-110"/>
       <use x="201.953125" xlink:href="#DejaVuSans-103"/>
       <use x="265.429688" xlink:href="#DejaVuSans-114"/>
       <use x="306.542969" xlink:href="#DejaVuSans-105"/>
       <use x="334.326172" xlink:href="#DejaVuSans-97"/>
      </g>
     </g>
    </g>
    <g id="ytick_12">
     <g id="text_22">
      <!-- Áustria -->
      <defs>
       <path d="M 34.1875 63.1875 
L 20.796875 26.90625 
L 47.609375 26.90625 
z
M 28.609375 72.90625 
L 39.796875 72.90625 
L 67.578125 0 
L 57.328125 0 
L 50.6875 18.703125 
L 17.828125 18.703125 
L 11.1875 0 
L 0.78125 0 
z
M 36.8125 92.515625 
L 45.84375 92.515625 
L 34.71875 79.625 
L 27.234375 79.625 
z
" id="DejaVuSans-193"/>
      </defs>
      <g style="fill:#262626;" transform="translate(52.538906 219.759141)scale(0.11 -0.11)">
       <use xlink:href="#DejaVuSans-193"/>
       <use x="68.408203" xlink:href="#DejaVuSans-117"/>
       <use x="131.787109" xlink:href="#DejaVuSans-115"/>
       <use x="183.886719" xlink:href="#DejaVuSans-116"/>
       <use x="223.095703" xlink:href="#DejaVuSans-114"/>
       <use x="264.208984" xlink:href="#DejaVuSans-105"/>
       <use x="291.992188" xlink:href="#DejaVuSans-97"/>
      </g>
     </g>
    </g>
    <g id="ytick_13">
     <g id="text_23">
      <!-- Países Baixos -->
      <defs>
       <path d="M 54.890625 54.6875 
L 35.109375 28.078125 
L 55.90625 0 
L 45.3125 0 
L 29.390625 21.484375 
L 13.484375 0 
L 2.875 0 
L 24.125 28.609375 
L 4.6875 54.6875 
L 15.28125 54.6875 
L 29.78125 35.203125 
L 44.28125 54.6875 
z
" id="DejaVuSans-120"/>
      </defs>
      <g style="fill:#262626;" transform="translate(16.938437 237.879141)scale(0.11 -0.11)">
       <use xlink:href="#DejaVuSans-80"/>
       <use x="60.240234" xlink:href="#DejaVuSans-97"/>
       <use x="121.519531" xlink:href="#DejaVuSans-237"/>
       <use x="149.302734" xlink:href="#DejaVuSans-115"/>
       <use x="201.402344" xlink:href="#DejaVuSans-101"/>
       <use x="262.925781" xlink:href="#DejaVuSans-115"/>
       <use x="315.025391" xlink:href="#DejaVuSans-32"/>
       <use x="346.8125" xlink:href="#DejaVuSans-66"/>
       <use x="415.416016" xlink:href="#DejaVuSans-97"/>
       <use x="476.695312" xlink:href="#DejaVuSans-105"/>
       <use x="504.478516" xlink:href="#DejaVuSans-120"/>
       <use x="563.611328" xlink:href="#DejaVuSans-111"/>
       <use x="624.792969" xlink:href="#DejaVuSans-115"/>
      </g>
     </g>
    </g>
    <g id="ytick_14">
     <g id="text_24">
      <!-- Bélgica -->
      <g style="fill:#262626;" transform="translate(51.196562 256.219141)scale(0.11 -0.11)">
       <use xlink:href="#DejaVuSans-66"/>
       <use x="68.603516" xlink:href="#DejaVuSans-233"/>
       <use x="130.126953" xlink:href="#DejaVuSans-108"/>
       <use x="157.910156" xlink:href="#DejaVuSans-103"/>
       <use x="221.386719" xlink:href="#DejaVuSans-105"/>
       <use x="249.169922" xlink:href="#DejaVuSans-99"/>
       <use x="304.150391" xlink:href="#DejaVuSans-97"/>
      </g>
     </g>
    </g>
    <g id="ytick_15">
     <g id="text_25">
      <!-- Dinamarca -->
      <defs>
       <path d="M 19.671875 64.796875 
L 19.671875 8.109375 
L 31.59375 8.109375 
Q 46.6875 8.109375 53.6875 14.9375 
Q 60.6875 21.78125 60.6875 36.53125 
Q 60.6875 51.171875 53.6875 57.984375 
Q 46.6875 64.796875 31.59375 64.796875 
z
M 9.8125 72.90625 
L 30.078125 72.90625 
Q 51.265625 72.90625 61.171875 64.09375 
Q 71.09375 55.28125 71.09375 36.53125 
Q 71.09375 17.671875 61.125 8.828125 
Q 51.171875 0 30.078125 0 
L 9.8125 0 
z
" id="DejaVuSans-68"/>
      </defs>
      <g style="fill:#262626;" transform="translate(31.394844 274.119141)scale(0.11 -0.11)">
       <use xlink:href="#DejaVuSans-68"/>
       <use x="77.001953" xlink:href="#DejaVuSans-105"/>
       <use x="104.785156" xlink:href="#DejaVuSans-110"/>
       <use x="168.164062" xlink:href="#DejaVuSans-97"/>
       <use x="229.443359" xlink:href="#DejaVuSans-109"/>
       <use x="326.855469" xlink:href="#DejaVuSans-97"/>
       <use x="388.134766" xlink:href="#DejaVuSans-114"/>
       <use x="429.216797" xlink:href="#DejaVuSans-99"/>
       <use x="484.197266" xlink:href="#DejaVuSans-97"/>
      </g>
     </g>
    </g>
    <g id="ytick_16">
     <g id="text_26">
      <!-- Canadá -->
      <defs>
       <path d="M 34.28125 27.484375 
Q 23.390625 27.484375 19.1875 25 
Q 14.984375 22.515625 14.984375 16.5 
Q 14.984375 11.71875 18.140625 8.90625 
Q 21.296875 6.109375 26.703125 6.109375 
Q 34.1875 6.109375 38.703125 11.40625 
Q 43.21875 16.703125 43.21875 25.484375 
L 43.21875 27.484375 
z
M 52.203125 31.203125 
L 52.203125 0 
L 43.21875 0 
L 43.21875 8.296875 
Q 40.140625 3.328125 35.546875 0.953125 
Q 30.953125 -1.421875 24.3125 -1.421875 
Q 15.921875 -1.421875 10.953125 3.296875 
Q 6 8.015625 6 15.921875 
Q 6 25.140625 12.171875 29.828125 
Q 18.359375 34.515625 30.609375 34.515625 
L 43.21875 34.515625 
L 43.21875 35.40625 
Q 43.21875 41.609375 39.140625 45 
Q 35.0625 48.390625 27.6875 48.390625 
Q 23 48.390625 18.546875 47.265625 
Q 14.109375 46.140625 10.015625 43.890625 
L 10.015625 52.203125 
Q 14.9375 54.109375 19.578125 55.046875 
Q 24.21875 56 28.609375 56 
Q 40.484375 56 46.34375 49.84375 
Q 52.203125 43.703125 52.203125 31.203125 
z
M 35.78125 79.984375 
L 45.5 79.984375 
L 29.59375 61.625 
L 22.109375 61.625 
z
" id="DejaVuSans-225"/>
      </defs>
      <g style="fill:#262626;" transform="translate(49.537969 292.239141)scale(0.11 -0.11)">
       <use xlink:href="#DejaVuSans-67"/>
       <use x="69.824219" xlink:href="#DejaVuSans-97"/>
       <use x="131.103516" xlink:href="#DejaVuSans-110"/>
       <use x="194.482422" xlink:href="#DejaVuSans-97"/>
       <use x="255.761719" xlink:href="#DejaVuSans-100"/>
       <use x="319.238281" xlink:href="#DejaVuSans-225"/>
      </g>
     </g>
    </g>
    <g id="ytick_17">
     <g id="text_27">
      <!-- Suécia -->
      <g style="fill:#262626;" transform="translate(54.828281 310.359141)scale(0.11 -0.11)">
       <use xlink:href="#DejaVuSans-83"/>
       <use x="63.476562" xlink:href="#DejaVuSans-117"/>
       <use x="126.855469" xlink:href="#DejaVuSans-233"/>
       <use x="188.378906" xlink:href="#DejaVuSans-99"/>
       <use x="243.359375" xlink:href="#DejaVuSans-105"/>
       <use x="271.142578" xlink:href="#DejaVuSans-97"/>
      </g>
     </g>
    </g>
    <g id="ytick_18">
     <g id="text_28">
      <!-- Itália -->
      <g style="fill:#262626;" transform="translate(64.245312 328.479141)scale(0.11 -0.11)">
       <use xlink:href="#DejaVuSans-73"/>
       <use x="29.492188" xlink:href="#DejaVuSans-116"/>
       <use x="68.701172" xlink:href="#DejaVuSans-225"/>
       <use x="129.980469" xlink:href="#DejaVuSans-108"/>
       <use x="157.763672" xlink:href="#DejaVuSans-105"/>
       <use x="185.546875" xlink:href="#DejaVuSans-97"/>
      </g>
     </g>
    </g>
    <g id="ytick_19">
     <g id="text_29">
      <!-- Indonésia -->
      <g style="fill:#262626;" transform="translate(38.199375 346.599141)scale(0.11 -0.11)">
       <use xlink:href="#DejaVuSans-73"/>
       <use x="29.492188" xlink:href="#DejaVuSans-110"/>
       <use x="92.871094" xlink:href="#DejaVuSans-100"/>
       <use x="156.347656" xlink:href="#DejaVuSans-111"/>
       <use x="217.529297" xlink:href="#DejaVuSans-110"/>
       <use x="280.908203" xlink:href="#DejaVuSans-233"/>
       <use x="342.431641" xlink:href="#DejaVuSans-115"/>
       <use x="394.53125" xlink:href="#DejaVuSans-105"/>
       <use x="422.314453" xlink:href="#DejaVuSans-97"/>
      </g>
     </g>
    </g>
    <g id="ytick_20">
     <g id="text_30">
      <!-- Estados Unidos -->
      <g style="fill:#262626;" transform="translate(7.2 364.719141)scale(0.11 -0.11)">
       <use xlink:href="#DejaVuSans-69"/>
       <use x="63.183594" xlink:href="#DejaVuSans-115"/>
       <use x="115.283203" xlink:href="#DejaVuSans-116"/>
       <use x="154.492188" xlink:href="#DejaVuSans-97"/>
       <use x="215.771484" xlink:href="#DejaVuSans-100"/>
       <use x="279.248047" xlink:href="#DejaVuSans-111"/>
       <use x="340.429688" xlink:href="#DejaVuSans-115"/>
       <use x="392.529297" xlink:href="#DejaVuSans-32"/>
       <use x="424.316406" xlink:href="#DejaVuSans-85"/>
       <use x="497.509766" xlink:href="#DejaVuSans-110"/>
       <use x="560.888672" xlink:href="#DejaVuSans-105"/>
       <use x="588.671875" xlink:href="#DejaVuSans-100"/>
       <use x="652.148438" xlink:href="#DejaVuSans-111"/>
       <use x="713.330078" xlink:href="#DejaVuSans-115"/>
      </g>
     </g>
    </g>
    <g id="ytick_21">
     <g id="text_31">
      <!-- Grécia -->
      <defs>
       <path d="M 59.515625 10.40625 
L 59.515625 29.984375 
L 43.40625 29.984375 
L 43.40625 38.09375 
L 69.28125 38.09375 
L 69.28125 6.78125 
Q 63.578125 2.734375 56.6875 0.65625 
Q 49.8125 -1.421875 42 -1.421875 
Q 24.90625 -1.421875 15.25 8.5625 
Q 5.609375 18.5625 5.609375 36.375 
Q 5.609375 54.25 15.25 64.234375 
Q 24.90625 74.21875 42 74.21875 
Q 49.125 74.21875 55.546875 72.453125 
Q 61.96875 70.703125 67.390625 67.28125 
L 67.390625 56.78125 
Q 61.921875 61.421875 55.765625 63.765625 
Q 49.609375 66.109375 42.828125 66.109375 
Q 29.4375 66.109375 22.71875 58.640625 
Q 16.015625 51.171875 16.015625 36.375 
Q 16.015625 21.625 22.71875 14.15625 
Q 29.4375 6.6875 42.828125 6.6875 
Q 48.046875 6.6875 52.140625 7.59375 
Q 56.25 8.5 59.515625 10.40625 
z
" id="DejaVuSans-71"/>
      </defs>
      <g style="fill:#262626;" transform="translate(55.740937 382.839141)scale(0.11 -0.11)">
       <use xlink:href="#DejaVuSans-71"/>
       <use x="77.490234" xlink:href="#DejaVuSans-114"/>
       <use x="118.572266" xlink:href="#DejaVuSans-233"/>
       <use x="180.095703" xlink:href="#DejaVuSans-99"/>
       <use x="235.076172" xlink:href="#DejaVuSans-105"/>
       <use x="262.859375" xlink:href="#DejaVuSans-97"/>
      </g>
     </g>
    </g>
    <g id="ytick_22">
     <g id="text_32">
      <!-- Polónia -->
      <g style="fill:#262626;" transform="translate(51.483594 400.959141)scale(0.11 -0.11)">
       <use xlink:href="#DejaVuSans-80"/>
       <use x="60.255859" xlink:href="#DejaVuSans-111"/>
       <use x="121.4375" xlink:href="#DejaVuSans-108"/>
       <use x="149.220703" xlink:href="#DejaVuSans-243"/>
       <use x="210.402344" xlink:href="#DejaVuSans-110"/>
       <use x="273.78125" xlink:href="#DejaVuSans-105"/>
       <use x="301.564453" xlink:href="#DejaVuSans-97"/>
      </g>
     </g>
    </g>
    <g id="ytick_23">
     <g id="text_33">
      <!-- Japão -->
      <defs>
       <path d="M 9.8125 72.90625 
L 19.671875 72.90625 
L 19.671875 5.078125 
Q 19.671875 -8.109375 14.671875 -14.0625 
Q 9.671875 -20.015625 -1.421875 -20.015625 
L -5.171875 -20.015625 
L -5.171875 -11.71875 
L -2.09375 -11.71875 
Q 4.4375 -11.71875 7.125 -8.046875 
Q 9.8125 -4.390625 9.8125 5.078125 
z
" id="DejaVuSans-74"/>
       <path d="M 34.28125 27.484375 
Q 23.390625 27.484375 19.1875 25 
Q 14.984375 22.515625 14.984375 16.5 
Q 14.984375 11.71875 18.140625 8.90625 
Q 21.296875 6.109375 26.703125 6.109375 
Q 34.1875 6.109375 38.703125 11.40625 
Q 43.21875 16.703125 43.21875 25.484375 
L 43.21875 27.484375 
z
M 52.203125 31.203125 
L 52.203125 0 
L 43.21875 0 
L 43.21875 8.296875 
Q 40.140625 3.328125 35.546875 0.953125 
Q 30.953125 -1.421875 24.3125 -1.421875 
Q 15.921875 -1.421875 10.953125 3.296875 
Q 6 8.015625 6 15.921875 
Q 6 25.140625 12.171875 29.828125 
Q 18.359375 34.515625 30.609375 34.515625 
L 43.21875 34.515625 
L 43.21875 35.40625 
Q 43.21875 41.609375 39.140625 45 
Q 35.0625 48.390625 27.6875 48.390625 
Q 23 48.390625 18.546875 47.265625 
Q 14.109375 46.140625 10.015625 43.890625 
L 10.015625 52.203125 
Q 14.9375 54.109375 19.578125 55.046875 
Q 24.21875 56 28.609375 56 
Q 40.484375 56 46.34375 49.84375 
Q 52.203125 43.703125 52.203125 31.203125 
z
M 28.8125 66.890625 
L 26.015625 69.578125 
Q 24.953125 70.5625 24.140625 71.015625 
Q 23.34375 71.484375 22.703125 71.484375 
Q 20.84375 71.484375 19.96875 69.703125 
Q 19.09375 67.921875 18.984375 63.921875 
L 12.890625 63.921875 
Q 12.984375 70.515625 15.46875 74.09375 
Q 17.96875 77.6875 22.40625 77.6875 
Q 24.265625 77.6875 25.828125 77 
Q 27.390625 76.3125 29.203125 74.703125 
L 31.984375 72.015625 
Q 33.046875 71.046875 33.859375 70.578125 
Q 34.671875 70.125 35.296875 70.125 
Q 37.15625 70.125 38.03125 71.90625 
Q 38.90625 73.6875 39.015625 77.6875 
L 45.109375 77.6875 
Q 45.015625 71.09375 42.515625 67.5 
Q 40.03125 63.921875 35.59375 63.921875 
Q 33.734375 63.921875 32.171875 64.59375 
Q 30.609375 65.28125 28.8125 66.890625 
z
" id="DejaVuSans-227"/>
      </defs>
      <g style="fill:#262626;" transform="translate(60.955625 419.172812)scale(0.11 -0.11)">
       <use xlink:href="#DejaVuSans-74"/>
       <use x="29.492188" xlink:href="#DejaVuSans-97"/>
       <use x="90.771484" xlink:href="#DejaVuSans-112"/>
       <use x="154.248047" xlink:href="#DejaVuSans-227"/>
       <use x="215.527344" xlink:href="#DejaVuSans-111"/>
      </g>
     </g>
    </g>
    <g id="ytick_24">
     <g id="text_34">
      <!-- Coreia do Sul -->
      <g style="fill:#262626;" transform="translate(18.184531 437.199141)scale(0.11 -0.11)">
       <use xlink:href="#DejaVuSans-67"/>
       <use x="69.824219" xlink:href="#DejaVuSans-111"/>
       <use x="131.005859" xlink:href="#DejaVuSans-114"/>
       <use x="172.087891" xlink:href="#DejaVuSans-101"/>
       <use x="233.611328" xlink:href="#DejaVuSans-105"/>
       <use x="261.394531" xlink:href="#DejaVuSans-97"/>
       <use x="322.673828" xlink:href="#DejaVuSans-32"/>
       <use x="354.460938" xlink:href="#DejaVuSans-100"/>
       <use x="417.9375" xlink:href="#DejaVuSans-111"/>
       <use x="479.119141" xlink:href="#DejaVuSans-32"/>
       <use x="510.90625" xlink:href="#DejaVuSans-83"/>
       <use x="574.382812" xlink:href="#DejaVuSans-117"/>
       <use x="637.761719" xlink:href="#DejaVuSans-108"/>
      </g>
     </g>
    </g>
   </g>
   <g id="patch_3">
    <path clip-path="url(#pae0f3d4de0)" d="M 100.896406 9.012 
L 518.713023 9.012 
L 518.713023 23.508 
L 100.896406 23.508 
z
" style="fill:#abc9ea;stroke:#ffffff;stroke-linejoin:miter;"/>
   </g>
   <g id="patch_4">
    <path clip-path="url(#pae0f3d4de0)" d="M 100.896406 27.132 
L 359.981431 27.132 
L 359.981431 41.628 
L 100.896406 41.628 
z
" style="fill:#abc9ea;stroke:#ffffff;stroke-linejoin:miter;"/>
   </g>
   <g id="patch_5">
    <path clip-path="url(#pae0f3d4de0)" d="M 100.896406 45.252 
L 260.659089 45.252 
L 260.659089 59.748 
L 100.896406 59.748 
z
" style="fill:#abc9ea;stroke:#ffffff;stroke-linejoin:miter;"/>
   </g>
   <g id="patch_6">
    <path clip-path="url(#pae0f3d4de0)" d="M 100.896406 63.372 
L 253.664276 63.372 
L 253.664276 77.868 
L 100.896406 77.868 
z
" style="fill:#abc9ea;stroke:#ffffff;stroke-linejoin:miter;"/>
   </g>
   <g id="patch_7">
    <path clip-path="url(#pae0f3d4de0)" d="M 100.896406 81.492 
L 217.597673 81.492 
L 217.597673 95.988 
L 100.896406 95.988 
z
" style="fill:#abc9ea;stroke:#ffffff;stroke-linejoin:miter;"/>
   </g>
   <g id="patch_8">
    <path clip-path="url(#pae0f3d4de0)" d="M 100.896406 99.612 
L 193.053916 99.612 
L 193.053916 114.108 
L 100.896406 114.108 
z
" style="fill:#abc9ea;stroke:#ffffff;stroke-linejoin:miter;"/>
   </g>
   <g id="patch_9">
    <path clip-path="url(#pae0f3d4de0)" d="M 100.896406 117.732 
L 190.483604 117.732 
L 190.483604 132.228 
L 100.896406 132.228 
z
" style="fill:#abc9ea;stroke:#ffffff;stroke-linejoin:miter;"/>
   </g>
   <g id="patch_10">
    <path clip-path="url(#pae0f3d4de0)" d="M 100.896406 135.852 
L 185.212697 135.852 
L 185.212697 150.348 
L 100.896406 150.348 
z
" style="fill:#abc9ea;stroke:#ffffff;stroke-linejoin:miter;"/>
   </g>
   <g id="patch_11">
    <path clip-path="url(#pae0f3d4de0)" d="M 100.896406 153.972 
L 180.829178 153.972 
L 180.829178 168.468 
L 100.896406 168.468 
z
" style="fill:#abc9ea;stroke:#ffffff;stroke-linejoin:miter;"/>
   </g>
   <g id="patch_12">
    <path clip-path="url(#pae0f3d4de0)" d="M 100.896406 172.092 
L 180.405028 172.092 
L 180.405028 186.588 
L 100.896406 186.588 
z
" style="fill:#abc9ea;stroke:#ffffff;stroke-linejoin:miter;"/>
   </g>
   <g id="patch_13">
    <path clip-path="url(#pae0f3d4de0)" d="M 100.896406 190.212 
L 177.508647 190.212 
L 177.508647 204.708 
L 100.896406 204.708 
z
" style="fill:#abc9ea;stroke:#ffffff;stroke-linejoin:miter;"/>
   </g>
   <g id="patch_14">
    <path clip-path="url(#pae0f3d4de0)" d="M 100.896406 208.332 
L 177.015831 208.332 
L 177.015831 222.828 
L 100.896406 222.828 
z
" style="fill:#abc9ea;stroke:#ffffff;stroke-linejoin:miter;"/>
   </g>
   <g id="patch_15">
    <path clip-path="url(#pae0f3d4de0)" d="M 100.896406 226.452 
L 172.864357 226.452 
L 172.864357 240.948 
L 100.896406 240.948 
z
" style="fill:#abc9ea;stroke:#ffffff;stroke-linejoin:miter;"/>
   </g>
   <g id="patch_16">
    <path clip-path="url(#pae0f3d4de0)" d="M 100.896406 244.572 
L 164.23222 244.572 
L 164.23222 259.068 
L 100.896406 259.068 
z
" style="fill:#abc9ea;stroke:#ffffff;stroke-linejoin:miter;"/>
   </g>
   <g id="patch_17">
    <path clip-path="url(#pae0f3d4de0)" d="M 100.896406 262.692 
L 157.144372 262.692 
L 157.144372 277.188 
L 100.896406 277.188 
z
" style="fill:#abc9ea;stroke:#ffffff;stroke-linejoin:miter;"/>
   </g>
   <g id="patch_18">
    <path clip-path="url(#pae0f3d4de0)" d="M 100.896406 280.812 
L 143.805809 280.812 
L 143.805809 295.308 
L 100.896406 295.308 
z
" style="fill:#abc9ea;stroke:#ffffff;stroke-linejoin:miter;"/>
   </g>
   <g id="patch_19">
    <path clip-path="url(#pae0f3d4de0)" d="M 100.896406 298.932 
L 139.923617 298.932 
L 139.923617 313.428 
L 100.896406 313.428 
z
" style="fill:#abc9ea;stroke:#ffffff;stroke-linejoin:miter;"/>
   </g>
   <g id="patch_20">
    <path clip-path="url(#pae0f3d4de0)" d="M 100.896406 317.052 
L 137.067138 317.052 
L 137.067138 331.548 
L 100.896406 331.548 
z
" style="fill:#abc9ea;stroke:#ffffff;stroke-linejoin:miter;"/>
   </g>
   <g id="patch_21">
    <path clip-path="url(#pae0f3d4de0)" d="M 100.896406 335.172 
L 134.493938 335.172 
L 134.493938 349.668 
L 100.896406 349.668 
z
" style="fill:#abc9ea;stroke:#ffffff;stroke-linejoin:miter;"/>
   </g>
   <g id="patch_22">
    <path clip-path="url(#pae0f3d4de0)" d="M 100.896406 353.292 
L 133.686637 353.292 
L 133.686637 367.788 
L 100.896406 367.788 
z
" style="fill:#abc9ea;stroke:#ffffff;stroke-linejoin:miter;"/>
   </g>
   <g id="patch_23">
    <path clip-path="url(#pae0f3d4de0)" d="M 100.896406 371.412 
L 133.605475 371.412 
L 133.605475 385.908 
L 100.896406 385.908 
z
" style="fill:#abc9ea;stroke:#ffffff;stroke-linejoin:miter;"/>
   </g>
   <g id="patch_24">
    <path clip-path="url(#pae0f3d4de0)" d="M 100.896406 389.532 
L 115.978773 389.532 
L 115.978773 404.028 
L 100.896406 404.028 
z
" style="fill:#abc9ea;stroke:#ffffff;stroke-linejoin:miter;"/>
   </g>
   <g id="patch_25">
    <path clip-path="url(#pae0f3d4de0)" d="M 100.896406 407.652 
L 114.095128 407.652 
L 114.095128 422.148 
L 100.896406 422.148 
z
" style="fill:#abc9ea;stroke:#ffffff;stroke-linejoin:miter;"/>
   </g>
   <g id="patch_26">
    <path clip-path="url(#pae0f3d4de0)" d="M 100.896406 425.772 
L 96.066535 425.772 
L 96.066535 440.268 
L 100.896406 440.268 
z
" style="fill:#abc9ea;stroke:#ffffff;stroke-linejoin:miter;"/>
   </g>
   <g id="patch_27">
    <path clip-path="url(#pae0f3d4de0)" d="M 100.896406 9.012 
L 121.767203 9.012 
L 121.767203 23.508 
L 100.896406 23.508 
z
" style="fill:#597dbf;stroke:#ffffff;stroke-linejoin:miter;"/>
   </g>
   <g id="patch_28">
    <path clip-path="url(#pae0f3d4de0)" d="M 100.896406 27.132 
L 102.04908 27.132 
L 102.04908 41.628 
L 100.896406 41.628 
z
" style="fill:#597dbf;stroke:#ffffff;stroke-linejoin:miter;"/>
   </g>
   <g id="patch_29">
    <path clip-path="url(#pae0f3d4de0)" d="M 100.896406 45.252 
L 132.775191 45.252 
L 132.775191 59.748 
L 100.896406 59.748 
z
" style="fill:#597dbf;stroke:#ffffff;stroke-linejoin:miter;"/>
   </g>
   <g id="patch_30">
    <path clip-path="url(#pae0f3d4de0)" d="M 100.896406 63.372 
L 122.890579 63.372 
L 122.890579 77.868 
L 100.896406 77.868 
z
" style="fill:#597dbf;stroke:#ffffff;stroke-linejoin:miter;"/>
   </g>
   <g id="patch_31">
    <path clip-path="url(#pae0f3d4de0)" d="M 100.896406 81.492 
L 105.552308 81.492 
L 105.552308 95.988 
L 100.896406 95.988 
z
" style="fill:#597dbf;stroke:#ffffff;stroke-linejoin:miter;"/>
   </g>
   <g id="patch_32">
    <path clip-path="url(#pae0f3d4de0)" d="M 100.896406 99.612 
L 117.379057 99.612 
L 117.379057 114.108 
L 100.896406 114.108 
z
" style="fill:#597dbf;stroke:#ffffff;stroke-linejoin:miter;"/>
   </g>
   <g id="patch_33">
    <path clip-path="url(#pae0f3d4de0)" d="M 100.896406 117.732 
L 122.003721 117.732 
L 122.003721 132.228 
L 100.896406 132.228 
z
" style="fill:#597dbf;stroke:#ffffff;stroke-linejoin:miter;"/>
   </g>
   <g id="patch_34">
    <path clip-path="url(#pae0f3d4de0)" d="M 100.896406 135.852 
L 137.635453 135.852 
L 137.635453 150.348 
L 100.896406 150.348 
z
" style="fill:#597dbf;stroke:#ffffff;stroke-linejoin:miter;"/>
   </g>
   <g id="patch_35">
    <path clip-path="url(#pae0f3d4de0)" d="M 100.896406 153.972 
L 130.766398 153.972 
L 130.766398 168.468 
L 100.896406 168.468 
z
" style="fill:#597dbf;stroke:#ffffff;stroke-linejoin:miter;"/>
   </g>
   <g id="patch_36">
    <path clip-path="url(#pae0f3d4de0)" d="M 100.896406 172.092 
L 113.085875 172.092 
L 113.085875 186.588 
L 100.896406 186.588 
z
" style="fill:#597dbf;stroke:#ffffff;stroke-linejoin:miter;"/>
   </g>
   <g id="patch_37">
    <path clip-path="url(#pae0f3d4de0)" d="M 100.896406 190.212 
L 111.833972 190.212 
L 111.833972 204.708 
L 100.896406 204.708 
z
" style="fill:#597dbf;stroke:#ffffff;stroke-linejoin:miter;"/>
   </g>
   <g id="patch_38">
    <path clip-path="url(#pae0f3d4de0)" d="M 100.896406 208.332 
L 119.69558 208.332 
L 119.69558 222.828 
L 100.896406 222.828 
z
" style="fill:#597dbf;stroke:#ffffff;stroke-linejoin:miter;"/>
   </g>
   <g id="patch_39">
    <path clip-path="url(#pae0f3d4de0)" d="M 100.896406 226.452 
L 107.433191 226.452 
L 107.433191 240.948 
L 100.896406 240.948 
z
" style="fill:#597dbf;stroke:#ffffff;stroke-linejoin:miter;"/>
   </g>
   <g id="patch_40">
    <path clip-path="url(#pae0f3d4de0)" d="M 100.896406 244.572 
L 128.614431 244.572 
L 128.614431 259.068 
L 100.896406 259.068 
z
" style="fill:#597dbf;stroke:#ffffff;stroke-linejoin:miter;"/>
   </g>
   <g id="patch_41">
    <path clip-path="url(#pae0f3d4de0)" d="M 100.896406 262.692 
L 121.288005 262.692 
L 121.288005 277.188 
L 100.896406 277.188 
z
" style="fill:#597dbf;stroke:#ffffff;stroke-linejoin:miter;"/>
   </g>
   <g id="patch_42">
    <path clip-path="url(#pae0f3d4de0)" d="M 100.896406 280.812 
L 111.57185 280.812 
L 111.57185 295.308 
L 100.896406 295.308 
z
" style="fill:#597dbf;stroke:#ffffff;stroke-linejoin:miter;"/>
   </g>
   <g id="patch_43">
    <path clip-path="url(#pae0f3d4de0)" d="M 100.896406 298.932 
L 109.117769 298.932 
L 109.117769 313.428 
L 100.896406 313.428 
z
" style="fill:#597dbf;stroke:#ffffff;stroke-linejoin:miter;"/>
   </g>
   <g id="patch_44">
    <path clip-path="url(#pae0f3d4de0)" d="M 100.896406 317.052 
L 101.48519 317.052 
L 101.48519 331.548 
L 100.896406 331.548 
z
" style="fill:#597dbf;stroke:#ffffff;stroke-linejoin:miter;"/>
   </g>
   <g id="patch_45">
    <path clip-path="url(#pae0f3d4de0)" d="M 100.896406 335.172 
L 119.334016 335.172 
L 119.334016 349.668 
L 100.896406 349.668 
z
" style="fill:#597dbf;stroke:#ffffff;stroke-linejoin:miter;"/>
   </g>
   <g id="patch_46">
    <path clip-path="url(#pae0f3d4de0)" d="M 100.896406 353.292 
L 102.284194 353.292 
L 102.284194 367.788 
L 100.896406 367.788 
z
" style="fill:#597dbf;stroke:#ffffff;stroke-linejoin:miter;"/>
   </g>
   <g id="patch_47">
    <path clip-path="url(#pae0f3d4de0)" d="M 100.896406 371.412 
L 117.817995 371.412 
L 117.817995 385.908 
L 100.896406 385.908 
z
" style="fill:#597dbf;stroke:#ffffff;stroke-linejoin:miter;"/>
   </g>
   <g id="patch_48">
    <path clip-path="url(#pae0f3d4de0)" d="M 100.896406 389.532 
L 109.657353 389.532 
L 109.657353 404.028 
L 100.896406 404.028 
z
" style="fill:#597dbf;stroke:#ffffff;stroke-linejoin:miter;"/>
   </g>
   <g id="patch_49">
    <path clip-path="url(#pae0f3d4de0)" d="M 100.896406 407.652 
L 105.307691 407.652 
L 105.307691 422.148 
L 100.896406 422.148 
z
" style="fill:#597dbf;stroke:#ffffff;stroke-linejoin:miter;"/>
   </g>
   <g id="patch_50">
    <path clip-path="url(#pae0f3d4de0)" d="M 100.896406 425.772 
L 97.97839 425.772 
L 97.97839 440.268 
L 100.896406 440.268 
z
" style="fill:#597dbf;stroke:#ffffff;stroke-linejoin:miter;"/>
   </g>
   <g id="line2d_10">
    <path clip-path="url(#pae0f3d4de0)" d="M 0 0 
" style="fill:none;stroke:#424242;stroke-linecap:round;stroke-width:2.7;"/>
   </g>
   <g id="line2d_11">
    <path clip-path="url(#pae0f3d4de0)" d="M 0 0 
" style="fill:none;stroke:#424242;stroke-linecap:round;stroke-width:2.7;"/>
   </g>
   <g id="line2d_12">
    <path clip-path="url(#pae0f3d4de0)" d="M 0 0 
" style="fill:none;stroke:#424242;stroke-linecap:round;stroke-width:2.7;"/>
   </g>
   <g id="line2d_13">
    <path clip-path="url(#pae0f3d4de0)" d="M 0 0 
" style="fill:none;stroke:#424242;stroke-linecap:round;stroke-width:2.7;"/>
   </g>
   <g id="line2d_14">
    <path clip-path="url(#pae0f3d4de0)" d="M 0 0 
" style="fill:none;stroke:#424242;stroke-linecap:round;stroke-width:2.7;"/>
   </g>
   <g id="line2d_15">
    <path clip-path="url(#pae0f3d4de0)" d="M 0 0 
" style="fill:none;stroke:#424242;stroke-linecap:round;stroke-width:2.7;"/>
   </g>
   <g id="line2d_16">
    <path clip-path="url(#pae0f3d4de0)" d="M 0 0 
" style="fill:none;stroke:#424242;stroke-linecap:round;stroke-width:2.7;"/>
   </g>
   <g id="line2d_17">
    <path clip-path="url(#pae0f3d4de0)" d="M 0 0 
" style="fill:none;stroke:#424242;stroke-linecap:round;stroke-width:2.7;"/>
   </g>
   <g id="line2d_18">
    <path clip-path="url(#pae0f3d4de0)" d="M 0 0 
" style="fill:none;stroke:#424242;stroke-linecap:round;stroke-width:2.7;"/>
   </g>
   <g id="line2d_19">
    <path clip-path="url(#pae0f3d4de0)" d="M 0 0 
" style="fill:none;stroke:#424242;stroke-linecap:round;stroke-width:2.7;"/>
   </g>
   <g id="line2d_20">
    <path clip-path="url(#pae0f3d4de0)" d="M 0 0 
" style="fill:none;stroke:#424242;stroke-linecap:round;stroke-width:2.7;"/>
   </g>
   <g id="line2d_21">
    <path clip-path="url(#pae0f3d4de0)" d="M 0 0 
" style="fill:none;stroke:#424242;stroke-linecap:round;stroke-width:2.7;"/>
   </g>
   <g id="line2d_22">
    <path clip-path="url(#pae0f3d4de0)" d="M 0 0 
" style="fill:none;stroke:#424242;stroke-linecap:round;stroke-width:2.7;"/>
   </g>
   <g id="line2d_23">
    <path clip-path="url(#pae0f3d4de0)" d="M 0 0 
" style="fill:none;stroke:#424242;stroke-linecap:round;stroke-width:2.7;"/>
   </g>
   <g id="line2d_24">
    <path clip-path="url(#pae0f3d4de0)" d="M 0 0 
" style="fill:none;stroke:#424242;stroke-linecap:round;stroke-width:2.7;"/>
   </g>
   <g id="line2d_25">
    <path clip-path="url(#pae0f3d4de0)" d="M 0 0 
" style="fill:none;stroke:#424242;stroke-linecap:round;stroke-width:2.7;"/>
   </g>
   <g id="line2d_26">
    <path clip-path="url(#pae0f3d4de0)" d="M 0 0 
" style="fill:none;stroke:#424242;stroke-linecap:round;stroke-width:2.7;"/>
   </g>
   <g id="line2d_27">
    <path clip-path="url(#pae0f3d4de0)" d="M 0 0 
" style="fill:none;stroke:#424242;stroke-linecap:round;stroke-width:2.7;"/>
   </g>
   <g id="line2d_28">
    <path clip-path="url(#pae0f3d4de0)" d="M 0 0 
" style="fill:none;stroke:#424242;stroke-linecap:round;stroke-width:2.7;"/>
   </g>
   <g id="line2d_29">
    <path clip-path="url(#pae0f3d4de0)" d="M 0 0 
" style="fill:none;stroke:#424242;stroke-linecap:round;stroke-width:2.7;"/>
   </g>
   <g id="line2d_30">
    <path clip-path="url(#pae0f3d4de0)" d="M 0 0 
" style="fill:none;stroke:#424242;stroke-linecap:round;stroke-width:2.7;"/>
   </g>
   <g id="line2d_31">
    <path clip-path="url(#pae0f3d4de0)" d="M 0 0 
" style="fill:none;stroke:#424242;stroke-linecap:round;stroke-width:2.7;"/>
   </g>
   <g id="line2d_32">
    <path clip-path="url(#pae0f3d4de0)" d="M 0 0 
" style="fill:none;stroke:#424242;stroke-linecap:round;stroke-width:2.7;"/>
   </g>
   <g id="line2d_33">
    <path clip-path="url(#pae0f3d4de0)" d="M 0 0 
" style="fill:none;stroke:#424242;stroke-linecap:round;stroke-width:2.7;"/>
   </g>
   <g id="line2d_34">
    <path clip-path="url(#pae0f3d4de0)" d="M 0 0 
" style="fill:none;stroke:#424242;stroke-linecap:round;stroke-width:2.7;"/>
   </g>
   <g id="line2d_35">
    <path clip-path="url(#pae0f3d4de0)" d="M 0 0 
" style="fill:none;stroke:#424242;stroke-linecap:round;stroke-width:2.7;"/>
   </g>
   <g id="line2d_36">
    <path clip-path="url(#pae0f3d4de0)" d="M 0 0 
" style="fill:none;stroke:#424242;stroke-linecap:round;stroke-width:2.7;"/>
   </g>
   <g id="line2d_37">
    <path clip-path="url(#pae0f3d4de0)" d="M 0 0 
" style="fill:none;stroke:#424242;stroke-linecap:round;stroke-width:2.7;"/>
   </g>
   <g id="line2d_38">
    <path clip-path="url(#pae0f3d4de0)" d="M 0 0 
" style="fill:none;stroke:#424242;stroke-linecap:round;stroke-width:2.7;"/>
   </g>
   <g id="line2d_39">
    <path clip-path="url(#pae0f3d4de0)" d="M 0 0 
" style="fill:none;stroke:#424242;stroke-linecap:round;stroke-width:2.7;"/>
   </g>
   <g id="line2d_40">
    <path clip-path="url(#pae0f3d4de0)" d="M 0 0 
" style="fill:none;stroke:#424242;stroke-linecap:round;stroke-width:2.7;"/>
   </g>
   <g id="line2d_41">
    <path clip-path="url(#pae0f3d4de0)" d="M 0 0 
" style="fill:none;stroke:#424242;stroke-linecap:round;stroke-width:2.7;"/>
   </g>
   <g id="line2d_42">
    <path clip-path="url(#pae0f3d4de0)" d="M 0 0 
" style="fill:none;stroke:#424242;stroke-linecap:round;stroke-width:2.7;"/>
   </g>
   <g id="line2d_43">
    <path clip-path="url(#pae0f3d4de0)" d="M 0 0 
" style="fill:none;stroke:#424242;stroke-linecap:round;stroke-width:2.7;"/>
   </g>
   <g id="line2d_44">
    <path clip-path="url(#pae0f3d4de0)" d="M 0 0 
" style="fill:none;stroke:#424242;stroke-linecap:round;stroke-width:2.7;"/>
   </g>
   <g id="line2d_45">
    <path clip-path="url(#pae0f3d4de0)" d="M 0 0 
" style="fill:none;stroke:#424242;stroke-linecap:round;stroke-width:2.7;"/>
   </g>
   <g id="line2d_46">
    <path clip-path="url(#pae0f3d4de0)" d="M 0 0 
" style="fill:none;stroke:#424242;stroke-linecap:round;stroke-width:2.7;"/>
   </g>
   <g id="line2d_47">
    <path clip-path="url(#pae0f3d4de0)" d="M 0 0 
" style="fill:none;stroke:#424242;stroke-linecap:round;stroke-width:2.7;"/>
   </g>
   <g id="line2d_48">
    <path clip-path="url(#pae0f3d4de0)" d="M 0 0 
" style="fill:none;stroke:#424242;stroke-linecap:round;stroke-width:2.7;"/>
   </g>
   <g id="line2d_49">
    <path clip-path="url(#pae0f3d4de0)" d="M 0 0 
" style="fill:none;stroke:#424242;stroke-linecap:round;stroke-width:2.7;"/>
   </g>
   <g id="line2d_50">
    <path clip-path="url(#pae0f3d4de0)" d="M 0 0 
" style="fill:none;stroke:#424242;stroke-linecap:round;stroke-width:2.7;"/>
   </g>
   <g id="line2d_51">
    <path clip-path="url(#pae0f3d4de0)" d="M 0 0 
" style="fill:none;stroke:#424242;stroke-linecap:round;stroke-width:2.7;"/>
   </g>
   <g id="line2d_52">
    <path clip-path="url(#pae0f3d4de0)" d="M 0 0 
" style="fill:none;stroke:#424242;stroke-linecap:round;stroke-width:2.7;"/>
   </g>
   <g id="line2d_53">
    <path clip-path="url(#pae0f3d4de0)" d="M 0 0 
" style="fill:none;stroke:#424242;stroke-linecap:round;stroke-width:2.7;"/>
   </g>
   <g id="line2d_54">
    <path clip-path="url(#pae0f3d4de0)" d="M 0 0 
" style="fill:none;stroke:#424242;stroke-linecap:round;stroke-width:2.7;"/>
   </g>
   <g id="line2d_55">
    <path clip-path="url(#pae0f3d4de0)" d="M 0 0 
" style="fill:none;stroke:#424242;stroke-linecap:round;stroke-width:2.7;"/>
   </g>
   <g id="line2d_56">
    <path clip-path="url(#pae0f3d4de0)" d="M 0 0 
" style="fill:none;stroke:#424242;stroke-linecap:round;stroke-width:2.7;"/>
   </g>
   <g id="line2d_57">
    <path clip-path="url(#pae0f3d4de0)" d="M 0 0 
" style="fill:none;stroke:#424242;stroke-linecap:round;stroke-width:2.7;"/>
   </g>
   <g id="text_35">
    <!-- * Redução percentual em CLI de Jan/2020 até 40 dia após  -->
    <defs>
     <path d="M 47.015625 60.890625 
L 29.5 51.421875 
L 47.015625 41.890625 
L 44.1875 37.109375 
L 27.78125 47.015625 
L 27.78125 28.609375 
L 22.21875 28.609375 
L 22.21875 47.015625 
L 5.8125 37.109375 
L 2.984375 41.890625 
L 20.515625 51.421875 
L 2.984375 60.890625 
L 5.8125 65.71875 
L 22.21875 55.8125 
L 22.21875 74.21875 
L 27.78125 74.21875 
L 27.78125 55.8125 
L 44.1875 65.71875 
z
" id="DejaVuSans-42"/>
     <path d="M 25.390625 72.90625 
L 33.6875 72.90625 
L 8.296875 -9.28125 
L 0 -9.28125 
z
" id="DejaVuSans-47"/>
     <path d="M 37.796875 64.3125 
L 12.890625 25.390625 
L 37.796875 25.390625 
z
M 35.203125 72.90625 
L 47.609375 72.90625 
L 47.609375 25.390625 
L 58.015625 25.390625 
L 58.015625 17.1875 
L 47.609375 17.1875 
L 47.609375 0 
L 37.796875 0 
L 37.796875 17.1875 
L 4.890625 17.1875 
L 4.890625 26.703125 
z
" id="DejaVuSans-52"/>
    </defs>
    <g style="fill:#262626;" transform="translate(100.896406 501.678125)scale(0.12 -0.12)">
     <use xlink:href="#DejaVuSans-42"/>
     <use x="50" xlink:href="#DejaVuSans-32"/>
     <use x="81.787109" xlink:href="#DejaVuSans-82"/>
     <use x="151.207031" xlink:href="#DejaVuSans-101"/>
     <use x="212.730469" xlink:href="#DejaVuSans-100"/>
     <use x="276.207031" xlink:href="#DejaVuSans-117"/>
     <use x="339.585938" xlink:href="#DejaVuSans-231"/>
     <use x="394.566406" xlink:href="#DejaVuSans-227"/>
     <use x="455.845703" xlink:href="#DejaVuSans-111"/>
     <use x="517.027344" xlink:href="#DejaVuSans-32"/>
     <use x="548.814453" xlink:href="#DejaVuSans-112"/>
     <use x="612.291016" xlink:href="#DejaVuSans-101"/>
     <use x="673.814453" xlink:href="#DejaVuSans-114"/>
     <use x="714.896484" xlink:href="#DejaVuSans-99"/>
     <use x="769.876953" xlink:href="#DejaVuSans-101"/>
     <use x="831.400391" xlink:href="#DejaVuSans-110"/>
     <use x="894.779297" xlink:href="#DejaVuSans-116"/>
     <use x="933.988281" xlink:href="#DejaVuSans-117"/>
     <use x="997.367188" xlink:href="#DejaVuSans-97"/>
     <use x="1058.646484" xlink:href="#DejaVuSans-108"/>
     <use x="1086.429688" xlink:href="#DejaVuSans-32"/>
     <use x="1118.216797" xlink:href="#DejaVuSans-101"/>
     <use x="1179.740234" xlink:href="#DejaVuSans-109"/>
     <use x="1277.152344" xlink:href="#DejaVuSans-32"/>
     <use x="1308.939453" xlink:href="#DejaVuSans-67"/>
     <use x="1378.763672" xlink:href="#DejaVuSans-76"/>
     <use x="1434.476562" xlink:href="#DejaVuSans-73"/>
     <use x="1463.96875" xlink:href="#DejaVuSans-32"/>
     <use x="1495.755859" xlink:href="#DejaVuSans-100"/>
     <use x="1559.232422" xlink:href="#DejaVuSans-101"/>
     <use x="1620.755859" xlink:href="#DejaVuSans-32"/>
     <use x="1652.542969" xlink:href="#DejaVuSans-74"/>
     <use x="1682.035156" xlink:href="#DejaVuSans-97"/>
     <use x="1743.314453" xlink:href="#DejaVuSans-110"/>
     <use x="1806.693359" xlink:href="#DejaVuSans-47"/>
     <use x="1840.384766" xlink:href="#DejaVuSans-50"/>
     <use x="1904.007812" xlink:href="#DejaVuSans-48"/>
     <use x="1967.630859" xlink:href="#DejaVuSans-50"/>
     <use x="2031.253906" xlink:href="#DejaVuSans-48"/>
     <use x="2094.876953" xlink:href="#DejaVuSans-32"/>
     <use x="2126.664062" xlink:href="#DejaVuSans-97"/>
     <use x="2187.943359" xlink:href="#DejaVuSans-116"/>
     <use x="2227.152344" xlink:href="#DejaVuSans-233"/>
     <use x="2288.675781" xlink:href="#DejaVuSans-32"/>
     <use x="2320.462891" xlink:href="#DejaVuSans-52"/>
     <use x="2384.085938" xlink:href="#DejaVuSans-48"/>
     <use x="2447.708984" xlink:href="#DejaVuSans-32"/>
     <use x="2479.496094" xlink:href="#DejaVuSans-100"/>
     <use x="2542.972656" xlink:href="#DejaVuSans-105"/>
     <use x="2570.755859" xlink:href="#DejaVuSans-97"/>
     <use x="2632.035156" xlink:href="#DejaVuSans-32"/>
     <use x="2663.822266" xlink:href="#DejaVuSans-97"/>
     <use x="2725.101562" xlink:href="#DejaVuSans-112"/>
     <use x="2788.578125" xlink:href="#DejaVuSans-243"/>
     <use x="2849.759766" xlink:href="#DejaVuSans-115"/>
     <use x="2901.859375" xlink:href="#DejaVuSans-32"/>
    </g>
    <!--  o início da quarentena na cidade mais afetada do país.  -->
    <g style="fill:#262626;" transform="translate(100.896406 515.6915)scale(0.12 -0.12)">
     <use xlink:href="#DejaVuSans-32"/>
     <use x="31.787109" xlink:href="#DejaVuSans-111"/>
     <use x="92.96875" xlink:href="#DejaVuSans-32"/>
     <use x="124.755859" xlink:href="#DejaVuSans-105"/>
     <use x="152.539062" xlink:href="#DejaVuSans-110"/>
     <use x="215.917969" xlink:href="#DejaVuSans-237"/>
     <use x="243.701172" xlink:href="#DejaVuSans-99"/>
     <use x="298.681641" xlink:href="#DejaVuSans-105"/>
     <use x="326.464844" xlink:href="#DejaVuSans-111"/>
     <use x="387.646484" xlink:href="#DejaVuSans-32"/>
     <use x="419.433594" xlink:href="#DejaVuSans-100"/>
     <use x="482.910156" xlink:href="#DejaVuSans-97"/>
     <use x="544.189453" xlink:href="#DejaVuSans-32"/>
     <use x="575.976562" xlink:href="#DejaVuSans-113"/>
     <use x="639.453125" xlink:href="#DejaVuSans-117"/>
     <use x="702.832031" xlink:href="#DejaVuSans-97"/>
     <use x="764.111328" xlink:href="#DejaVuSans-114"/>
     <use x="805.193359" xlink:href="#DejaVuSans-101"/>
     <use x="866.716797" xlink:href="#DejaVuSans-110"/>
     <use x="930.095703" xlink:href="#DejaVuSans-116"/>
     <use x="969.304688" xlink:href="#DejaVuSans-101"/>
     <use x="1030.828125" xlink:href="#DejaVuSans-110"/>
     <use x="1094.207031" xlink:href="#DejaVuSans-97"/>
     <use x="1155.486328" xlink:href="#DejaVuSans-32"/>
     <use x="1187.273438" xlink:href="#DejaVuSans-110"/>
     <use x="1250.652344" xlink:href="#DejaVuSans-97"/>
     <use x="1311.931641" xlink:href="#DejaVuSans-32"/>
     <use x="1343.71875" xlink:href="#DejaVuSans-99"/>
     <use x="1398.699219" xlink:href="#DejaVuSans-105"/>
     <use x="1426.482422" xlink:href="#DejaVuSans-100"/>
     <use x="1489.958984" xlink:href="#DejaVuSans-97"/>
     <use x="1551.238281" xlink:href="#DejaVuSans-100"/>
     <use x="1614.714844" xlink:href="#DejaVuSans-101"/>
     <use x="1676.238281" xlink:href="#DejaVuSans-32"/>
     <use x="1708.025391" xlink:href="#DejaVuSans-109"/>
     <use x="1805.4375" xlink:href="#DejaVuSans-97"/>
     <use x="1866.716797" xlink:href="#DejaVuSans-105"/>
     <use x="1894.5" xlink:href="#DejaVuSans-115"/>
     <use x="1946.599609" xlink:href="#DejaVuSans-32"/>
     <use x="1978.386719" xlink:href="#DejaVuSans-97"/>
     <use x="2039.666016" xlink:href="#DejaVuSans-102"/>
     <use x="2074.871094" xlink:href="#DejaVuSans-101"/>
     <use x="2136.394531" xlink:href="#DejaVuSans-116"/>
     <use x="2175.603516" xlink:href="#DejaVuSans-97"/>
     <use x="2236.882812" xlink:href="#DejaVuSans-100"/>
     <use x="2300.359375" xlink:href="#DejaVuSans-97"/>
     <use x="2361.638672" xlink:href="#DejaVuSans-32"/>
     <use x="2393.425781" xlink:href="#DejaVuSans-100"/>
     <use x="2456.902344" xlink:href="#DejaVuSans-111"/>
     <use x="2518.083984" xlink:href="#DejaVuSans-32"/>
     <use x="2549.871094" xlink:href="#DejaVuSans-112"/>
     <use x="2613.347656" xlink:href="#DejaVuSans-97"/>
     <use x="2674.626953" xlink:href="#DejaVuSans-237"/>
     <use x="2702.410156" xlink:href="#DejaVuSans-115"/>
     <use x="2754.509766" xlink:href="#DejaVuSans-46"/>
     <use x="2786.296875" xlink:href="#DejaVuSans-32"/>
    </g>
    <!-- ** Redução percentual em CLI de Jan/2020 até o início da  -->
    <g style="fill:#262626;" transform="translate(100.896406 529.704875)scale(0.12 -0.12)">
     <use xlink:href="#DejaVuSans-42"/>
     <use x="50" xlink:href="#DejaVuSans-42"/>
     <use x="100" xlink:href="#DejaVuSans-32"/>
     <use x="131.787109" xlink:href="#DejaVuSans-82"/>
     <use x="201.207031" xlink:href="#DejaVuSans-101"/>
     <use x="262.730469" xlink:href="#DejaVuSans-100"/>
     <use x="326.207031" xlink:href="#DejaVuSans-117"/>
     <use x="389.585938" xlink:href="#DejaVuSans-231"/>
     <use x="444.566406" xlink:href="#DejaVuSans-227"/>
     <use x="505.845703" xlink:href="#DejaVuSans-111"/>
     <use x="567.027344" xlink:href="#DejaVuSans-32"/>
     <use x="598.814453" xlink:href="#DejaVuSans-112"/>
     <use x="662.291016" xlink:href="#DejaVuSans-101"/>
     <use x="723.814453" xlink:href="#DejaVuSans-114"/>
     <use x="764.896484" xlink:href="#DejaVuSans-99"/>
     <use x="819.876953" xlink:href="#DejaVuSans-101"/>
     <use x="881.400391" xlink:href="#DejaVuSans-110"/>
     <use x="944.779297" xlink:href="#DejaVuSans-116"/>
     <use x="983.988281" xlink:href="#DejaVuSans-117"/>
     <use x="1047.367188" xlink:href="#DejaVuSans-97"/>
     <use x="1108.646484" xlink:href="#DejaVuSans-108"/>
     <use x="1136.429688" xlink:href="#DejaVuSans-32"/>
     <use x="1168.216797" xlink:href="#DejaVuSans-101"/>
     <use x="1229.740234" xlink:href="#DejaVuSans-109"/>
     <use x="1327.152344" xlink:href="#DejaVuSans-32"/>
     <use x="1358.939453" xlink:href="#DejaVuSans-67"/>
     <use x="1428.763672" xlink:href="#DejaVuSans-76"/>
     <use x="1484.476562" xlink:href="#DejaVuSans-73"/>
     <use x="1513.96875" xlink:href="#DejaVuSans-32"/>
     <use x="1545.755859" xlink:href="#DejaVuSans-100"/>
     <use x="1609.232422" xlink:href="#DejaVuSans-101"/>
     <use x="1670.755859" xlink:href="#DejaVuSans-32"/>
     <use x="1702.542969" xlink:href="#DejaVuSans-74"/>
     <use x="1732.035156" xlink:href="#DejaVuSans-97"/>
     <use x="1793.314453" xlink:href="#DejaVuSans-110"/>
     <use x="1856.693359" xlink:href="#DejaVuSans-47"/>
     <use x="1890.384766" xlink:href="#DejaVuSans-50"/>
     <use x="1954.007812" xlink:href="#DejaVuSans-48"/>
     <use x="2017.630859" xlink:href="#DejaVuSans-50"/>
     <use x="2081.253906" xlink:href="#DejaVuSans-48"/>
     <use x="2144.876953" xlink:href="#DejaVuSans-32"/>
     <use x="2176.664062" xlink:href="#DejaVuSans-97"/>
     <use x="2237.943359" xlink:href="#DejaVuSans-116"/>
     <use x="2277.152344" xlink:href="#DejaVuSans-233"/>
     <use x="2338.675781" xlink:href="#DejaVuSans-32"/>
     <use x="2370.462891" xlink:href="#DejaVuSans-111"/>
     <use x="2431.644531" xlink:href="#DejaVuSans-32"/>
     <use x="2463.431641" xlink:href="#DejaVuSans-105"/>
     <use x="2491.214844" xlink:href="#DejaVuSans-110"/>
     <use x="2554.59375" xlink:href="#DejaVuSans-237"/>
     <use x="2582.376953" xlink:href="#DejaVuSans-99"/>
     <use x="2637.357422" xlink:href="#DejaVuSans-105"/>
     <use x="2665.140625" xlink:href="#DejaVuSans-111"/>
     <use x="2726.322266" xlink:href="#DejaVuSans-32"/>
     <use x="2758.109375" xlink:href="#DejaVuSans-100"/>
     <use x="2821.585938" xlink:href="#DejaVuSans-97"/>
     <use x="2882.865234" xlink:href="#DejaVuSans-32"/>
    </g>
    <!--  quarentena na cidade mais afetada do país.  -->
    <g style="fill:#262626;" transform="translate(100.896406 543.71825)scale(0.12 -0.12)">
     <use xlink:href="#DejaVuSans-32"/>
     <use x="31.787109" xlink:href="#DejaVuSans-113"/>
     <use x="95.263672" xlink:href="#DejaVuSans-117"/>
     <use x="158.642578" xlink:href="#DejaVuSans-97"/>
     <use x="219.921875" xlink:href="#DejaVuSans-114"/>
     <use x="261.003906" xlink:href="#DejaVuSans-101"/>
     <use x="322.527344" xlink:href="#DejaVuSans-110"/>
     <use x="385.90625" xlink:href="#DejaVuSans-116"/>
     <use x="425.115234" xlink:href="#DejaVuSans-101"/>
     <use x="486.638672" xlink:href="#DejaVuSans-110"/>
     <use x="550.017578" xlink:href="#DejaVuSans-97"/>
     <use x="611.296875" xlink:href="#DejaVuSans-32"/>
     <use x="643.083984" xlink:href="#DejaVuSans-110"/>
     <use x="706.462891" xlink:href="#DejaVuSans-97"/>
     <use x="767.742188" xlink:href="#DejaVuSans-32"/>
     <use x="799.529297" xlink:href="#DejaVuSans-99"/>
     <use x="854.509766" xlink:href="#DejaVuSans-105"/>
     <use x="882.292969" xlink:href="#DejaVuSans-100"/>
     <use x="945.769531" xlink:href="#DejaVuSans-97"/>
     <use x="1007.048828" xlink:href="#DejaVuSans-100"/>
     <use x="1070.525391" xlink:href="#DejaVuSans-101"/>
     <use x="1132.048828" xlink:href="#DejaVuSans-32"/>
     <use x="1163.835938" xlink:href="#DejaVuSans-109"/>
     <use x="1261.248047" xlink:href="#DejaVuSans-97"/>
     <use x="1322.527344" xlink:href="#DejaVuSans-105"/>
     <use x="1350.310547" xlink:href="#DejaVuSans-115"/>
     <use x="1402.410156" xlink:href="#DejaVuSans-32"/>
     <use x="1434.197266" xlink:href="#DejaVuSans-97"/>
     <use x="1495.476562" xlink:href="#DejaVuSans-102"/>
     <use x="1530.681641" xlink:href="#DejaVuSans-101"/>
     <use x="1592.205078" xlink:href="#DejaVuSans-116"/>
     <use x="1631.414062" xlink:href="#DejaVuSans-97"/>
     <use x="1692.693359" xlink:href="#DejaVuSans-100"/>
     <use x="1756.169922" xlink:href="#DejaVuSans-97"/>
     <use x="1817.449219" xlink:href="#DejaVuSans-32"/>
     <use x="1849.236328" xlink:href="#DejaVuSans-100"/>
     <use x="1912.712891" xlink:href="#DejaVuSans-111"/>
     <use x="1973.894531" xlink:href="#DejaVuSans-32"/>
     <use x="2005.681641" xlink:href="#DejaVuSans-112"/>
     <use x="2069.158203" xlink:href="#DejaVuSans-97"/>
     <use x="2130.4375" xlink:href="#DejaVuSans-237"/>
     <use x="2158.220703" xlink:href="#DejaVuSans-115"/>
     <use x="2210.320312" xlink:href="#DejaVuSans-46"/>
     <use x="2242.107422" xlink:href="#DejaVuSans-32"/>
    </g>
   </g>
   <g id="legend_1">
    <g id="patch_51">
     <path d="M 202.467031 436.58 
L 539.596406 436.58 
Q 541.796406 436.58 541.796406 434.38 
L 541.796406 418.894062 
Q 541.796406 416.694062 539.596406 416.694062 
L 202.467031 416.694062 
Q 200.267031 416.694062 200.267031 418.894062 
L 200.267031 434.38 
Q 200.267031 436.58 202.467031 436.58 
z
" style="fill:#eaeaf2;opacity:0.8;stroke:#cccccc;stroke-linejoin:miter;"/>
    </g>
    <g id="patch_52">
     <path d="M 204.667031 429.892344 
L 226.667031 429.892344 
L 226.667031 422.192344 
L 204.667031 422.192344 
z
" style="fill:#abc9ea;stroke:#ffffff;stroke-linejoin:miter;"/>
    </g>
    <g id="text_36">
     <!-- Impacto no CLI (total)* -->
     <g style="fill:#262626;" transform="translate(235.467031 429.892344)scale(0.11 -0.11)">
      <use xlink:href="#DejaVuSans-73"/>
      <use x="29.492188" xlink:href="#DejaVuSans-109"/>
      <use x="126.904297" xlink:href="#DejaVuSans-112"/>
      <use x="190.380859" xlink:href="#DejaVuSans-97"/>
      <use x="251.660156" xlink:href="#DejaVuSans-99"/>
      <use x="306.640625" xlink:href="#DejaVuSans-116"/>
      <use x="345.849609" xlink:href="#DejaVuSans-111"/>
      <use x="407.03125" xlink:href="#DejaVuSans-32"/>
      <use x="438.818359" xlink:href="#DejaVuSans-110"/>
      <use x="502.197266" xlink:href="#DejaVuSans-111"/>
      <use x="563.378906" xlink:href="#DejaVuSans-32"/>
      <use x="595.166016" xlink:href="#DejaVuSans-67"/>
      <use x="664.990234" xlink:href="#DejaVuSans-76"/>
      <use x="720.703125" xlink:href="#DejaVuSans-73"/>
      <use x="750.195312" xlink:href="#DejaVuSans-32"/>
      <use x="781.982422" xlink:href="#DejaVuSans-40"/>
      <use x="820.996094" xlink:href="#DejaVuSans-116"/>
      <use x="860.205078" xlink:href="#DejaVuSans-111"/>
      <use x="921.386719" xlink:href="#DejaVuSans-116"/>
      <use x="960.595703" xlink:href="#DejaVuSans-97"/>
      <use x="1021.875" xlink:href="#DejaVuSans-108"/>
      <use x="1049.658203" xlink:href="#DejaVuSans-41"/>
      <use x="1088.671875" xlink:href="#DejaVuSans-42"/>
     </g>
    </g>
    <g id="patch_53">
     <path d="M 382.722656 429.892344 
L 404.722656 429.892344 
L 404.722656 422.192344 
L 382.722656 422.192344 
z
" style="fill:#597dbf;stroke:#ffffff;stroke-linejoin:miter;"/>
    </g>
    <g id="text_37">
     <!-- Impacto no CLI (pré)** -->
     <g style="fill:#262626;" transform="translate(413.522656 429.892344)scale(0.11 -0.11)">
      <use xlink:href="#DejaVuSans-73"/>
      <use x="29.492188" xlink:href="#DejaVuSans-109"/>
      <use x="126.904297" xlink:href="#DejaVuSans-112"/>
      <use x="190.380859" xlink:href="#DejaVuSans-97"/>
      <use x="251.660156" xlink:href="#DejaVuSans-99"/>
      <use x="306.640625" xlink:href="#DejaVuSans-116"/>
      <use x="345.849609" xlink:href="#DejaVuSans-111"/>
      <use x="407.03125" xlink:href="#DejaVuSans-32"/>
      <use x="438.818359" xlink:href="#DejaVuSans-110"/>
      <use x="502.197266" xlink:href="#DejaVuSans-111"/>
      <use x="563.378906" xlink:href="#DejaVuSans-32"/>
      <use x="595.166016" xlink:href="#DejaVuSans-67"/>
      <use x="664.990234" xlink:href="#DejaVuSans-76"/>
      <use x="720.703125" xlink:href="#DejaVuSans-73"/>
      <use x="750.195312" xlink:href="#DejaVuSans-32"/>
      <use x="781.982422" xlink:href="#DejaVuSans-40"/>
      <use x="820.996094" xlink:href="#DejaVuSans-112"/>
      <use x="884.472656" xlink:href="#DejaVuSans-114"/>
      <use x="925.554688" xlink:href="#DejaVuSans-233"/>
      <use x="987.078125" xlink:href="#DejaVuSans-41"/>
      <use x="1026.091797" xlink:href="#DejaVuSans-42"/>
      <use x="1076.091797" xlink:href="#DejaVuSans-42"/>
     </g>
    </g>
   </g>
  </g>
 </g>
 <defs>
  <clipPath id="pae0f3d4de0">
   <rect height="434.88" width="446.4" x="100.896406" y="7.2"/>
  </clipPath>
 </defs>
</svg>
