<?xml version="1.0" encoding="utf-8" standalone="no"?>
<!DOCTYPE svg PUBLIC "-//W3C//DTD SVG 1.1//EN"
  "http://www.w3.org/Graphics/SVG/1.1/DTD/svg11.dtd">
<!-- Created with matplotlib (https://matplotlib.org/) -->
<svg height="317.344875pt" version="1.1" viewBox="0 0 388.5775 317.344875" width="388.5775pt" xmlns="http://www.w3.org/2000/svg" xmlns:xlink="http://www.w3.org/1999/xlink">
 <defs>
  <style type="text/css">
*{stroke-linecap:butt;stroke-linejoin:round;white-space:pre;}
  </style>
 </defs>
 <g id="figure_1">
  <g id="patch_1">
   <path d="M 0 317.344875 
L 388.5775 317.344875 
L 388.5775 0 
L 0 0 
z
" style="fill:#ffffff;"/>
  </g>
  <g id="axes_1">
   <g id="patch_2">
    <path d="M 46.5775 240.238125 
L 381.3775 240.238125 
L 381.3775 22.798125 
L 46.5775 22.798125 
z
" style="fill:#ffffff;"/>
   </g>
   <g id="matplotlib.axis_1">
    <g id="xtick_1">
     <g id="text_1">
      <!-- Brasil -->
      <defs>
       <path d="M 19.671875 34.8125 
L 19.671875 8.109375 
L 35.5 8.109375 
Q 43.453125 8.109375 47.28125 11.40625 
Q 51.125 14.703125 51.125 21.484375 
Q 51.125 28.328125 47.28125 31.5625 
Q 43.453125 34.8125 35.5 34.8125 
z
M 19.671875 64.796875 
L 19.671875 42.828125 
L 34.28125 42.828125 
Q 41.5 42.828125 45.03125 45.53125 
Q 48.578125 48.25 48.578125 53.8125 
Q 48.578125 59.328125 45.03125 62.0625 
Q 41.5 64.796875 34.28125 64.796875 
z
M 9.8125 72.90625 
L 35.015625 72.90625 
Q 46.296875 72.90625 52.390625 68.21875 
Q 58.5 63.53125 58.5 54.890625 
Q 58.5 48.1875 55.375 44.234375 
Q 52.25 40.28125 46.1875 39.3125 
Q 53.46875 37.75 57.5 32.78125 
Q 61.53125 27.828125 61.53125 20.40625 
Q 61.53125 10.640625 54.890625 5.3125 
Q 48.25 0 35.984375 0 
L 9.8125 0 
z
" id="DejaVuSans-66"/>
       <path d="M 41.109375 46.296875 
Q 39.59375 47.171875 37.8125 47.578125 
Q 36.03125 48 33.890625 48 
Q 26.265625 48 22.1875 43.046875 
Q 18.109375 38.09375 18.109375 28.8125 
L 18.109375 0 
L 9.078125 0 
L 9.078125 54.6875 
L 18.109375 54.6875 
L 18.109375 46.1875 
Q 20.953125 51.171875 25.484375 53.578125 
Q 30.03125 56 36.53125 56 
Q 37.453125 56 38.578125 55.875 
Q 39.703125 55.765625 41.0625 55.515625 
z
" id="DejaVuSans-114"/>
       <path d="M 34.28125 27.484375 
Q 23.390625 27.484375 19.1875 25 
Q 14.984375 22.515625 14.984375 16.5 
Q 14.984375 11.71875 18.140625 8.90625 
Q 21.296875 6.109375 26.703125 6.109375 
Q 34.1875 6.109375 38.703125 11.40625 
Q 43.21875 16.703125 43.21875 25.484375 
L 43.21875 27.484375 
z
M 52.203125 31.203125 
L 52.203125 0 
L 43.21875 0 
L 43.21875 8.296875 
Q 40.140625 3.328125 35.546875 0.953125 
Q 30.953125 -1.421875 24.3125 -1.421875 
Q 15.921875 -1.421875 10.953125 3.296875 
Q 6 8.015625 6 15.921875 
Q 6 25.140625 12.171875 29.828125 
Q 18.359375 34.515625 30.609375 34.515625 
L 43.21875 34.515625 
L 43.21875 35.40625 
Q 43.21875 41.609375 39.140625 45 
Q 35.0625 48.390625 27.6875 48.390625 
Q 23 48.390625 18.546875 47.265625 
Q 14.109375 46.140625 10.015625 43.890625 
L 10.015625 52.203125 
Q 14.9375 54.109375 19.578125 55.046875 
Q 24.21875 56 28.609375 56 
Q 40.484375 56 46.34375 49.84375 
Q 52.203125 43.703125 52.203125 31.203125 
z
" id="DejaVuSans-97"/>
       <path d="M 44.28125 53.078125 
L 44.28125 44.578125 
Q 40.484375 46.53125 36.375 47.5 
Q 32.28125 48.484375 27.875 48.484375 
Q 21.1875 48.484375 17.84375 46.4375 
Q 14.5 44.390625 14.5 40.28125 
Q 14.5 37.15625 16.890625 35.375 
Q 19.28125 33.59375 26.515625 31.984375 
L 29.59375 31.296875 
Q 39.15625 29.25 43.1875 25.515625 
Q 47.21875 21.78125 47.21875 15.09375 
Q 47.21875 7.46875 41.1875 3.015625 
Q 35.15625 -1.421875 24.609375 -1.421875 
Q 20.21875 -1.421875 15.453125 -0.5625 
Q 10.6875 0.296875 5.421875 2 
L 5.421875 11.28125 
Q 10.40625 8.6875 15.234375 7.390625 
Q 20.0625 6.109375 24.8125 6.109375 
Q 31.15625 6.109375 34.5625 8.28125 
Q 37.984375 10.453125 37.984375 14.40625 
Q 37.984375 18.0625 35.515625 20.015625 
Q 33.0625 21.96875 24.703125 23.78125 
L 21.578125 24.515625 
Q 13.234375 26.265625 9.515625 29.90625 
Q 5.8125 33.546875 5.8125 39.890625 
Q 5.8125 47.609375 11.28125 51.796875 
Q 16.75 56 26.8125 56 
Q 31.78125 56 36.171875 55.265625 
Q 40.578125 54.546875 44.28125 53.078125 
z
" id="DejaVuSans-115"/>
       <path d="M 9.421875 54.6875 
L 18.40625 54.6875 
L 18.40625 0 
L 9.421875 0 
z
M 9.421875 75.984375 
L 18.40625 75.984375 
L 18.40625 64.59375 
L 9.421875 64.59375 
z
" id="DejaVuSans-105"/>
       <path d="M 9.421875 75.984375 
L 18.40625 75.984375 
L 18.40625 0 
L 9.421875 0 
z
" id="DejaVuSans-108"/>
      </defs>
      <g style="fill:#262626;" transform="translate(73.101406 258.096406)scale(0.11 -0.11)">
       <use xlink:href="#DejaVuSans-66"/>
       <use x="68.603516" xlink:href="#DejaVuSans-114"/>
       <use x="109.716797" xlink:href="#DejaVuSans-97"/>
       <use x="170.996094" xlink:href="#DejaVuSans-115"/>
       <use x="223.095703" xlink:href="#DejaVuSans-105"/>
       <use x="250.878906" xlink:href="#DejaVuSans-108"/>
      </g>
     </g>
    </g>
    <g id="xtick_2">
     <g id="text_2">
      <!-- BRICS -->
      <defs>
       <path d="M 44.390625 34.1875 
Q 47.5625 33.109375 50.5625 29.59375 
Q 53.5625 26.078125 56.59375 19.921875 
L 66.609375 0 
L 56 0 
L 46.6875 18.703125 
Q 43.0625 26.03125 39.671875 28.421875 
Q 36.28125 30.8125 30.421875 30.8125 
L 19.671875 30.8125 
L 19.671875 0 
L 9.8125 0 
L 9.8125 72.90625 
L 32.078125 72.90625 
Q 44.578125 72.90625 50.734375 67.671875 
Q 56.890625 62.453125 56.890625 51.90625 
Q 56.890625 45.015625 53.6875 40.46875 
Q 50.484375 35.9375 44.390625 34.1875 
z
M 19.671875 64.796875 
L 19.671875 38.921875 
L 32.078125 38.921875 
Q 39.203125 38.921875 42.84375 42.21875 
Q 46.484375 45.515625 46.484375 51.90625 
Q 46.484375 58.296875 42.84375 61.546875 
Q 39.203125 64.796875 32.078125 64.796875 
z
" id="DejaVuSans-82"/>
       <path d="M 9.8125 72.90625 
L 19.671875 72.90625 
L 19.671875 0 
L 9.8125 0 
z
" id="DejaVuSans-73"/>
       <path d="M 64.40625 67.28125 
L 64.40625 56.890625 
Q 59.421875 61.53125 53.78125 63.8125 
Q 48.140625 66.109375 41.796875 66.109375 
Q 29.296875 66.109375 22.65625 58.46875 
Q 16.015625 50.828125 16.015625 36.375 
Q 16.015625 21.96875 22.65625 14.328125 
Q 29.296875 6.6875 41.796875 6.6875 
Q 48.140625 6.6875 53.78125 8.984375 
Q 59.421875 11.28125 64.40625 15.921875 
L 64.40625 5.609375 
Q 59.234375 2.09375 53.4375 0.328125 
Q 47.65625 -1.421875 41.21875 -1.421875 
Q 24.65625 -1.421875 15.125 8.703125 
Q 5.609375 18.84375 5.609375 36.375 
Q 5.609375 53.953125 15.125 64.078125 
Q 24.65625 74.21875 41.21875 74.21875 
Q 47.75 74.21875 53.53125 72.484375 
Q 59.328125 70.75 64.40625 67.28125 
z
" id="DejaVuSans-67"/>
       <path d="M 53.515625 70.515625 
L 53.515625 60.890625 
Q 47.90625 63.578125 42.921875 64.890625 
Q 37.9375 66.21875 33.296875 66.21875 
Q 25.25 66.21875 20.875 63.09375 
Q 16.5 59.96875 16.5 54.203125 
Q 16.5 49.359375 19.40625 46.890625 
Q 22.3125 44.4375 30.421875 42.921875 
L 36.375 41.703125 
Q 47.40625 39.59375 52.65625 34.296875 
Q 57.90625 29 57.90625 20.125 
Q 57.90625 9.515625 50.796875 4.046875 
Q 43.703125 -1.421875 29.984375 -1.421875 
Q 24.8125 -1.421875 18.96875 -0.25 
Q 13.140625 0.921875 6.890625 3.21875 
L 6.890625 13.375 
Q 12.890625 10.015625 18.65625 8.296875 
Q 24.421875 6.59375 29.984375 6.59375 
Q 38.421875 6.59375 43.015625 9.90625 
Q 47.609375 13.234375 47.609375 19.390625 
Q 47.609375 24.75 44.3125 27.78125 
Q 41.015625 30.8125 33.5 32.328125 
L 27.484375 33.5 
Q 16.453125 35.6875 11.515625 40.375 
Q 6.59375 45.0625 6.59375 53.421875 
Q 6.59375 63.09375 13.40625 68.65625 
Q 20.21875 74.21875 32.171875 74.21875 
Q 37.3125 74.21875 42.625 73.28125 
Q 47.953125 72.359375 53.515625 70.515625 
z
" id="DejaVuSans-83"/>
      </defs>
      <g style="fill:#262626;" transform="translate(155.577656 258.096406)scale(0.11 -0.11)">
       <use xlink:href="#DejaVuSans-66"/>
       <use x="68.603516" xlink:href="#DejaVuSans-82"/>
       <use x="138.085938" xlink:href="#DejaVuSans-73"/>
       <use x="167.578125" xlink:href="#DejaVuSans-67"/>
       <use x="237.402344" xlink:href="#DejaVuSans-83"/>
      </g>
     </g>
    </g>
    <g id="xtick_3">
     <g id="text_3">
      <!-- Países similares -->
      <defs>
       <path d="M 19.671875 64.796875 
L 19.671875 37.40625 
L 32.078125 37.40625 
Q 38.96875 37.40625 42.71875 40.96875 
Q 46.484375 44.53125 46.484375 51.125 
Q 46.484375 57.671875 42.71875 61.234375 
Q 38.96875 64.796875 32.078125 64.796875 
z
M 9.8125 72.90625 
L 32.078125 72.90625 
Q 44.34375 72.90625 50.609375 67.359375 
Q 56.890625 61.8125 56.890625 51.125 
Q 56.890625 40.328125 50.609375 34.8125 
Q 44.34375 29.296875 32.078125 29.296875 
L 19.671875 29.296875 
L 19.671875 0 
L 9.8125 0 
z
" id="DejaVuSans-80"/>
       <path d="M 20.65625 79.984375 
L 30.375 79.984375 
L 14.46875 61.625 
L 6.984375 61.625 
z
M 9.421875 54.6875 
L 18.40625 54.6875 
L 18.40625 0 
L 9.421875 0 
z
M 13.921875 56 
z
" id="DejaVuSans-237"/>
       <path d="M 56.203125 29.59375 
L 56.203125 25.203125 
L 14.890625 25.203125 
Q 15.484375 15.921875 20.484375 11.0625 
Q 25.484375 6.203125 34.421875 6.203125 
Q 39.59375 6.203125 44.453125 7.46875 
Q 49.3125 8.734375 54.109375 11.28125 
L 54.109375 2.78125 
Q 49.265625 0.734375 44.1875 -0.34375 
Q 39.109375 -1.421875 33.890625 -1.421875 
Q 20.796875 -1.421875 13.15625 6.1875 
Q 5.515625 13.8125 5.515625 26.8125 
Q 5.515625 40.234375 12.765625 48.109375 
Q 20.015625 56 32.328125 56 
Q 43.359375 56 49.78125 48.890625 
Q 56.203125 41.796875 56.203125 29.59375 
z
M 47.21875 32.234375 
Q 47.125 39.59375 43.09375 43.984375 
Q 39.0625 48.390625 32.421875 48.390625 
Q 24.90625 48.390625 20.390625 44.140625 
Q 15.875 39.890625 15.1875 32.171875 
z
" id="DejaVuSans-101"/>
       <path id="DejaVuSans-32"/>
       <path d="M 52 44.1875 
Q 55.375 50.25 60.0625 53.125 
Q 64.75 56 71.09375 56 
Q 79.640625 56 84.28125 50.015625 
Q 88.921875 44.046875 88.921875 33.015625 
L 88.921875 0 
L 79.890625 0 
L 79.890625 32.71875 
Q 79.890625 40.578125 77.09375 44.375 
Q 74.3125 48.1875 68.609375 48.1875 
Q 61.625 48.1875 57.5625 43.546875 
Q 53.515625 38.921875 53.515625 30.90625 
L 53.515625 0 
L 44.484375 0 
L 44.484375 32.71875 
Q 44.484375 40.625 41.703125 44.40625 
Q 38.921875 48.1875 33.109375 48.1875 
Q 26.21875 48.1875 22.15625 43.53125 
Q 18.109375 38.875 18.109375 30.90625 
L 18.109375 0 
L 9.078125 0 
L 9.078125 54.6875 
L 18.109375 54.6875 
L 18.109375 46.1875 
Q 21.1875 51.21875 25.484375 53.609375 
Q 29.78125 56 35.6875 56 
Q 41.65625 56 45.828125 52.96875 
Q 50 49.953125 52 44.1875 
z
" id="DejaVuSans-109"/>
      </defs>
      <g style="fill:#262626;" transform="translate(212.068125 258.096406)scale(0.11 -0.11)">
       <use xlink:href="#DejaVuSans-80"/>
       <use x="60.240234" xlink:href="#DejaVuSans-97"/>
       <use x="121.519531" xlink:href="#DejaVuSans-237"/>
       <use x="149.302734" xlink:href="#DejaVuSans-115"/>
       <use x="201.402344" xlink:href="#DejaVuSans-101"/>
       <use x="262.925781" xlink:href="#DejaVuSans-115"/>
       <use x="315.025391" xlink:href="#DejaVuSans-32"/>
       <use x="346.8125" xlink:href="#DejaVuSans-115"/>
       <use x="398.912109" xlink:href="#DejaVuSans-105"/>
       <use x="426.695312" xlink:href="#DejaVuSans-109"/>
       <use x="524.107422" xlink:href="#DejaVuSans-105"/>
       <use x="551.890625" xlink:href="#DejaVuSans-108"/>
       <use x="579.673828" xlink:href="#DejaVuSans-97"/>
       <use x="640.953125" xlink:href="#DejaVuSans-114"/>
       <use x="682.035156" xlink:href="#DejaVuSans-101"/>
       <use x="743.558594" xlink:href="#DejaVuSans-115"/>
      </g>
     </g>
    </g>
    <g id="xtick_4">
     <g id="text_4">
      <!-- Mundo -->
      <defs>
       <path d="M 9.8125 72.90625 
L 24.515625 72.90625 
L 43.109375 23.296875 
L 61.8125 72.90625 
L 76.515625 72.90625 
L 76.515625 0 
L 66.890625 0 
L 66.890625 64.015625 
L 48.09375 14.015625 
L 38.1875 14.015625 
L 19.390625 64.015625 
L 19.390625 0 
L 9.8125 0 
z
" id="DejaVuSans-77"/>
       <path d="M 8.5 21.578125 
L 8.5 54.6875 
L 17.484375 54.6875 
L 17.484375 21.921875 
Q 17.484375 14.15625 20.5 10.265625 
Q 23.53125 6.390625 29.59375 6.390625 
Q 36.859375 6.390625 41.078125 11.03125 
Q 45.3125 15.671875 45.3125 23.6875 
L 45.3125 54.6875 
L 54.296875 54.6875 
L 54.296875 0 
L 45.3125 0 
L 45.3125 8.40625 
Q 42.046875 3.421875 37.71875 1 
Q 33.40625 -1.421875 27.6875 -1.421875 
Q 18.265625 -1.421875 13.375 4.4375 
Q 8.5 10.296875 8.5 21.578125 
z
M 31.109375 56 
z
" id="DejaVuSans-117"/>
       <path d="M 54.890625 33.015625 
L 54.890625 0 
L 45.90625 0 
L 45.90625 32.71875 
Q 45.90625 40.484375 42.875 44.328125 
Q 39.84375 48.1875 33.796875 48.1875 
Q 26.515625 48.1875 22.3125 43.546875 
Q 18.109375 38.921875 18.109375 30.90625 
L 18.109375 0 
L 9.078125 0 
L 9.078125 54.6875 
L 18.109375 54.6875 
L 18.109375 46.1875 
Q 21.34375 51.125 25.703125 53.5625 
Q 30.078125 56 35.796875 56 
Q 45.21875 56 50.046875 50.171875 
Q 54.890625 44.34375 54.890625 33.015625 
z
" id="DejaVuSans-110"/>
       <path d="M 45.40625 46.390625 
L 45.40625 75.984375 
L 54.390625 75.984375 
L 54.390625 0 
L 45.40625 0 
L 45.40625 8.203125 
Q 42.578125 3.328125 38.25 0.953125 
Q 33.9375 -1.421875 27.875 -1.421875 
Q 17.96875 -1.421875 11.734375 6.484375 
Q 5.515625 14.40625 5.515625 27.296875 
Q 5.515625 40.1875 11.734375 48.09375 
Q 17.96875 56 27.875 56 
Q 33.9375 56 38.25 53.625 
Q 42.578125 51.265625 45.40625 46.390625 
z
M 14.796875 27.296875 
Q 14.796875 17.390625 18.875 11.75 
Q 22.953125 6.109375 30.078125 6.109375 
Q 37.203125 6.109375 41.296875 11.75 
Q 45.40625 17.390625 45.40625 27.296875 
Q 45.40625 37.203125 41.296875 42.84375 
Q 37.203125 48.484375 30.078125 48.484375 
Q 22.953125 48.484375 18.875 42.84375 
Q 14.796875 37.203125 14.796875 27.296875 
z
" id="DejaVuSans-100"/>
       <path d="M 30.609375 48.390625 
Q 23.390625 48.390625 19.1875 42.75 
Q 14.984375 37.109375 14.984375 27.296875 
Q 14.984375 17.484375 19.15625 11.84375 
Q 23.34375 6.203125 30.609375 6.203125 
Q 37.796875 6.203125 41.984375 11.859375 
Q 46.1875 17.53125 46.1875 27.296875 
Q 46.1875 37.015625 41.984375 42.703125 
Q 37.796875 48.390625 30.609375 48.390625 
z
M 30.609375 56 
Q 42.328125 56 49.015625 48.375 
Q 55.71875 40.765625 55.71875 27.296875 
Q 55.71875 13.875 49.015625 6.21875 
Q 42.328125 -1.421875 30.609375 -1.421875 
Q 18.84375 -1.421875 12.171875 6.21875 
Q 5.515625 13.875 5.515625 27.296875 
Q 5.515625 40.765625 12.171875 48.375 
Q 18.84375 56 30.609375 56 
z
" id="DejaVuSans-111"/>
      </defs>
      <g style="fill:#262626;" transform="translate(320.953828 258.096406)scale(0.11 -0.11)">
       <use xlink:href="#DejaVuSans-77"/>
       <use x="86.279297" xlink:href="#DejaVuSans-117"/>
       <use x="149.658203" xlink:href="#DejaVuSans-110"/>
       <use x="213.037109" xlink:href="#DejaVuSans-100"/>
       <use x="276.513672" xlink:href="#DejaVuSans-111"/>
      </g>
     </g>
    </g>
   </g>
   <g id="matplotlib.axis_2">
    <g id="ytick_1">
     <g id="line2d_1">
      <path clip-path="url(#p225d48945f)" d="M 46.5775 240.238125 
L 381.3775 240.238125 
" style="fill:none;stroke:#cccccc;stroke-linecap:round;"/>
     </g>
     <g id="text_5">
      <!-- 0 -->
      <defs>
       <path d="M 31.78125 66.40625 
Q 24.171875 66.40625 20.328125 58.90625 
Q 16.5 51.421875 16.5 36.375 
Q 16.5 21.390625 20.328125 13.890625 
Q 24.171875 6.390625 31.78125 6.390625 
Q 39.453125 6.390625 43.28125 13.890625 
Q 47.125 21.390625 47.125 36.375 
Q 47.125 51.421875 43.28125 58.90625 
Q 39.453125 66.40625 31.78125 66.40625 
z
M 31.78125 74.21875 
Q 44.046875 74.21875 50.515625 64.515625 
Q 56.984375 54.828125 56.984375 36.375 
Q 56.984375 17.96875 50.515625 8.265625 
Q 44.046875 -1.421875 31.78125 -1.421875 
Q 19.53125 -1.421875 13.0625 8.265625 
Q 6.59375 17.96875 6.59375 36.375 
Q 6.59375 54.828125 13.0625 64.515625 
Q 19.53125 74.21875 31.78125 74.21875 
z
" id="DejaVuSans-48"/>
      </defs>
      <g style="fill:#262626;" transform="translate(30.07875 244.417266)scale(0.11 -0.11)">
       <use xlink:href="#DejaVuSans-48"/>
      </g>
     </g>
    </g>
    <g id="ytick_2">
     <g id="line2d_2">
      <path clip-path="url(#p225d48945f)" d="M 46.5775 212.749359 
L 381.3775 212.749359 
" style="fill:none;stroke:#cccccc;stroke-linecap:round;"/>
     </g>
     <g id="text_6">
      <!-- 5 -->
      <defs>
       <path d="M 10.796875 72.90625 
L 49.515625 72.90625 
L 49.515625 64.59375 
L 19.828125 64.59375 
L 19.828125 46.734375 
Q 21.96875 47.46875 24.109375 47.828125 
Q 26.265625 48.1875 28.421875 48.1875 
Q 40.625 48.1875 47.75 41.5 
Q 54.890625 34.8125 54.890625 23.390625 
Q 54.890625 11.625 47.5625 5.09375 
Q 40.234375 -1.421875 26.90625 -1.421875 
Q 22.3125 -1.421875 17.546875 -0.640625 
Q 12.796875 0.140625 7.71875 1.703125 
L 7.71875 11.625 
Q 12.109375 9.234375 16.796875 8.0625 
Q 21.484375 6.890625 26.703125 6.890625 
Q 35.15625 6.890625 40.078125 11.328125 
Q 45.015625 15.765625 45.015625 23.390625 
Q 45.015625 31 40.078125 35.4375 
Q 35.15625 39.890625 26.703125 39.890625 
Q 22.75 39.890625 18.8125 39.015625 
Q 14.890625 38.140625 10.796875 36.28125 
z
" id="DejaVuSans-53"/>
      </defs>
      <g style="fill:#262626;" transform="translate(30.07875 216.9285)scale(0.11 -0.11)">
       <use xlink:href="#DejaVuSans-53"/>
      </g>
     </g>
    </g>
    <g id="ytick_3">
     <g id="line2d_3">
      <path clip-path="url(#p225d48945f)" d="M 46.5775 185.260593 
L 381.3775 185.260593 
" style="fill:none;stroke:#cccccc;stroke-linecap:round;"/>
     </g>
     <g id="text_7">
      <!-- 10 -->
      <defs>
       <path d="M 12.40625 8.296875 
L 28.515625 8.296875 
L 28.515625 63.921875 
L 10.984375 60.40625 
L 10.984375 69.390625 
L 28.421875 72.90625 
L 38.28125 72.90625 
L 38.28125 8.296875 
L 54.390625 8.296875 
L 54.390625 0 
L 12.40625 0 
z
" id="DejaVuSans-49"/>
      </defs>
      <g style="fill:#262626;" transform="translate(23.08 189.439734)scale(0.11 -0.11)">
       <use xlink:href="#DejaVuSans-49"/>
       <use x="63.623047" xlink:href="#DejaVuSans-48"/>
      </g>
     </g>
    </g>
    <g id="ytick_4">
     <g id="line2d_4">
      <path clip-path="url(#p225d48945f)" d="M 46.5775 157.771827 
L 381.3775 157.771827 
" style="fill:none;stroke:#cccccc;stroke-linecap:round;"/>
     </g>
     <g id="text_8">
      <!-- 15 -->
      <g style="fill:#262626;" transform="translate(23.08 161.950967)scale(0.11 -0.11)">
       <use xlink:href="#DejaVuSans-49"/>
       <use x="63.623047" xlink:href="#DejaVuSans-53"/>
      </g>
     </g>
    </g>
    <g id="ytick_5">
     <g id="line2d_5">
      <path clip-path="url(#p225d48945f)" d="M 46.5775 130.283061 
L 381.3775 130.283061 
" style="fill:none;stroke:#cccccc;stroke-linecap:round;"/>
     </g>
     <g id="text_9">
      <!-- 20 -->
      <defs>
       <path d="M 19.1875 8.296875 
L 53.609375 8.296875 
L 53.609375 0 
L 7.328125 0 
L 7.328125 8.296875 
Q 12.9375 14.109375 22.625 23.890625 
Q 32.328125 33.6875 34.8125 36.53125 
Q 39.546875 41.84375 41.421875 45.53125 
Q 43.3125 49.21875 43.3125 52.78125 
Q 43.3125 58.59375 39.234375 62.25 
Q 35.15625 65.921875 28.609375 65.921875 
Q 23.96875 65.921875 18.8125 64.3125 
Q 13.671875 62.703125 7.8125 59.421875 
L 7.8125 69.390625 
Q 13.765625 71.78125 18.9375 73 
Q 24.125 74.21875 28.421875 74.21875 
Q 39.75 74.21875 46.484375 68.546875 
Q 53.21875 62.890625 53.21875 53.421875 
Q 53.21875 48.921875 51.53125 44.890625 
Q 49.859375 40.875 45.40625 35.40625 
Q 44.1875 33.984375 37.640625 27.21875 
Q 31.109375 20.453125 19.1875 8.296875 
z
" id="DejaVuSans-50"/>
      </defs>
      <g style="fill:#262626;" transform="translate(23.08 134.462201)scale(0.11 -0.11)">
       <use xlink:href="#DejaVuSans-50"/>
       <use x="63.623047" xlink:href="#DejaVuSans-48"/>
      </g>
     </g>
    </g>
    <g id="ytick_6">
     <g id="line2d_6">
      <path clip-path="url(#p225d48945f)" d="M 46.5775 102.794295 
L 381.3775 102.794295 
" style="fill:none;stroke:#cccccc;stroke-linecap:round;"/>
     </g>
     <g id="text_10">
      <!-- 25 -->
      <g style="fill:#262626;" transform="translate(23.08 106.973435)scale(0.11 -0.11)">
       <use xlink:href="#DejaVuSans-50"/>
       <use x="63.623047" xlink:href="#DejaVuSans-53"/>
      </g>
     </g>
    </g>
    <g id="ytick_7">
     <g id="line2d_7">
      <path clip-path="url(#p225d48945f)" d="M 46.5775 75.305529 
L 381.3775 75.305529 
" style="fill:none;stroke:#cccccc;stroke-linecap:round;"/>
     </g>
     <g id="text_11">
      <!-- 30 -->
      <defs>
       <path d="M 40.578125 39.3125 
Q 47.65625 37.796875 51.625 33 
Q 55.609375 28.21875 55.609375 21.1875 
Q 55.609375 10.40625 48.1875 4.484375 
Q 40.765625 -1.421875 27.09375 -1.421875 
Q 22.515625 -1.421875 17.65625 -0.515625 
Q 12.796875 0.390625 7.625 2.203125 
L 7.625 11.71875 
Q 11.71875 9.328125 16.59375 8.109375 
Q 21.484375 6.890625 26.8125 6.890625 
Q 36.078125 6.890625 40.9375 10.546875 
Q 45.796875 14.203125 45.796875 21.1875 
Q 45.796875 27.640625 41.28125 31.265625 
Q 36.765625 34.90625 28.71875 34.90625 
L 20.21875 34.90625 
L 20.21875 43.015625 
L 29.109375 43.015625 
Q 36.375 43.015625 40.234375 45.921875 
Q 44.09375 48.828125 44.09375 54.296875 
Q 44.09375 59.90625 40.109375 62.90625 
Q 36.140625 65.921875 28.71875 65.921875 
Q 24.65625 65.921875 20.015625 65.03125 
Q 15.375 64.15625 9.8125 62.3125 
L 9.8125 71.09375 
Q 15.4375 72.65625 20.34375 73.4375 
Q 25.25 74.21875 29.59375 74.21875 
Q 40.828125 74.21875 47.359375 69.109375 
Q 53.90625 64.015625 53.90625 55.328125 
Q 53.90625 49.265625 50.4375 45.09375 
Q 46.96875 40.921875 40.578125 39.3125 
z
" id="DejaVuSans-51"/>
      </defs>
      <g style="fill:#262626;" transform="translate(23.08 79.484669)scale(0.11 -0.11)">
       <use xlink:href="#DejaVuSans-51"/>
       <use x="63.623047" xlink:href="#DejaVuSans-48"/>
      </g>
     </g>
    </g>
    <g id="ytick_8">
     <g id="line2d_8">
      <path clip-path="url(#p225d48945f)" d="M 46.5775 47.816763 
L 381.3775 47.816763 
" style="fill:none;stroke:#cccccc;stroke-linecap:round;"/>
     </g>
     <g id="text_12">
      <!-- 35 -->
      <g style="fill:#262626;" transform="translate(23.08 51.995903)scale(0.11 -0.11)">
       <use xlink:href="#DejaVuSans-51"/>
       <use x="63.623047" xlink:href="#DejaVuSans-53"/>
      </g>
     </g>
    </g>
    <g id="text_13">
     <!-- Redução de poluição por $\mathrm{{NO}}_2$* -->
     <defs>
      <path d="M 48.78125 52.59375 
L 48.78125 44.1875 
Q 44.96875 46.296875 41.140625 47.34375 
Q 37.3125 48.390625 33.40625 48.390625 
Q 24.65625 48.390625 19.8125 42.84375 
Q 14.984375 37.3125 14.984375 27.296875 
Q 14.984375 17.28125 19.8125 11.734375 
Q 24.65625 6.203125 33.40625 6.203125 
Q 37.3125 6.203125 41.140625 7.25 
Q 44.96875 8.296875 48.78125 10.40625 
L 48.78125 2.09375 
Q 45.015625 0.34375 40.984375 -0.53125 
Q 36.96875 -1.421875 32.421875 -1.421875 
Q 20.0625 -1.421875 12.78125 6.34375 
Q 5.515625 14.109375 5.515625 27.296875 
Q 5.515625 40.671875 12.859375 48.328125 
Q 20.21875 56 33.015625 56 
Q 37.15625 56 41.109375 55.140625 
Q 45.0625 54.296875 48.78125 52.59375 
z
M 36.109375 0 
Q 38.78125 -3.03125 40.09375 -5.59375 
Q 41.421875 -8.15625 41.421875 -10.5 
Q 41.421875 -14.84375 38.484375 -17.0625 
Q 35.5625 -19.28125 29.796875 -19.28125 
Q 27.5625 -19.28125 25.4375 -18.984375 
Q 23.3125 -18.703125 21.203125 -18.109375 
L 21.203125 -11.71875 
Q 22.875 -12.546875 24.671875 -12.90625 
Q 26.484375 -13.28125 28.78125 -13.28125 
Q 31.65625 -13.28125 33.125 -12.109375 
Q 34.59375 -10.9375 34.59375 -8.6875 
Q 34.59375 -7.234375 33.53125 -5.109375 
Q 32.484375 -2.984375 30.296875 0 
z
" id="DejaVuSans-231"/>
      <path d="M 34.28125 27.484375 
Q 23.390625 27.484375 19.1875 25 
Q 14.984375 22.515625 14.984375 16.5 
Q 14.984375 11.71875 18.140625 8.90625 
Q 21.296875 6.109375 26.703125 6.109375 
Q 34.1875 6.109375 38.703125 11.40625 
Q 43.21875 16.703125 43.21875 25.484375 
L 43.21875 27.484375 
z
M 52.203125 31.203125 
L 52.203125 0 
L 43.21875 0 
L 43.21875 8.296875 
Q 40.140625 3.328125 35.546875 0.953125 
Q 30.953125 -1.421875 24.3125 -1.421875 
Q 15.921875 -1.421875 10.953125 3.296875 
Q 6 8.015625 6 15.921875 
Q 6 25.140625 12.171875 29.828125 
Q 18.359375 34.515625 30.609375 34.515625 
L 43.21875 34.515625 
L 43.21875 35.40625 
Q 43.21875 41.609375 39.140625 45 
Q 35.0625 48.390625 27.6875 48.390625 
Q 23 48.390625 18.546875 47.265625 
Q 14.109375 46.140625 10.015625 43.890625 
L 10.015625 52.203125 
Q 14.9375 54.109375 19.578125 55.046875 
Q 24.21875 56 28.609375 56 
Q 40.484375 56 46.34375 49.84375 
Q 52.203125 43.703125 52.203125 31.203125 
z
M 28.8125 66.890625 
L 26.015625 69.578125 
Q 24.953125 70.5625 24.140625 71.015625 
Q 23.34375 71.484375 22.703125 71.484375 
Q 20.84375 71.484375 19.96875 69.703125 
Q 19.09375 67.921875 18.984375 63.921875 
L 12.890625 63.921875 
Q 12.984375 70.515625 15.46875 74.09375 
Q 17.96875 77.6875 22.40625 77.6875 
Q 24.265625 77.6875 25.828125 77 
Q 27.390625 76.3125 29.203125 74.703125 
L 31.984375 72.015625 
Q 33.046875 71.046875 33.859375 70.578125 
Q 34.671875 70.125 35.296875 70.125 
Q 37.15625 70.125 38.03125 71.90625 
Q 38.90625 73.6875 39.015625 77.6875 
L 45.109375 77.6875 
Q 45.015625 71.09375 42.515625 67.5 
Q 40.03125 63.921875 35.59375 63.921875 
Q 33.734375 63.921875 32.171875 64.59375 
Q 30.609375 65.28125 28.8125 66.890625 
z
" id="DejaVuSans-227"/>
      <path d="M 18.109375 8.203125 
L 18.109375 -20.796875 
L 9.078125 -20.796875 
L 9.078125 54.6875 
L 18.109375 54.6875 
L 18.109375 46.390625 
Q 20.953125 51.265625 25.265625 53.625 
Q 29.59375 56 35.59375 56 
Q 45.5625 56 51.78125 48.09375 
Q 58.015625 40.1875 58.015625 27.296875 
Q 58.015625 14.40625 51.78125 6.484375 
Q 45.5625 -1.421875 35.59375 -1.421875 
Q 29.59375 -1.421875 25.265625 0.953125 
Q 20.953125 3.328125 18.109375 8.203125 
z
M 48.6875 27.296875 
Q 48.6875 37.203125 44.609375 42.84375 
Q 40.53125 48.484375 33.40625 48.484375 
Q 26.265625 48.484375 22.1875 42.84375 
Q 18.109375 37.203125 18.109375 27.296875 
Q 18.109375 17.390625 22.1875 11.75 
Q 26.265625 6.109375 33.40625 6.109375 
Q 40.53125 6.109375 44.609375 11.75 
Q 48.6875 17.390625 48.6875 27.296875 
z
" id="DejaVuSans-112"/>
      <path d="M 9.8125 72.90625 
L 23.09375 72.90625 
L 55.421875 11.921875 
L 55.421875 72.90625 
L 64.984375 72.90625 
L 64.984375 0 
L 51.703125 0 
L 19.390625 60.984375 
L 19.390625 0 
L 9.8125 0 
z
" id="DejaVuSans-78"/>
      <path d="M 39.40625 66.21875 
Q 28.65625 66.21875 22.328125 58.203125 
Q 16.015625 50.203125 16.015625 36.375 
Q 16.015625 22.609375 22.328125 14.59375 
Q 28.65625 6.59375 39.40625 6.59375 
Q 50.140625 6.59375 56.421875 14.59375 
Q 62.703125 22.609375 62.703125 36.375 
Q 62.703125 50.203125 56.421875 58.203125 
Q 50.140625 66.21875 39.40625 66.21875 
z
M 39.40625 74.21875 
Q 54.734375 74.21875 63.90625 63.9375 
Q 73.09375 53.65625 73.09375 36.375 
Q 73.09375 19.140625 63.90625 8.859375 
Q 54.734375 -1.421875 39.40625 -1.421875 
Q 24.03125 -1.421875 14.8125 8.828125 
Q 5.609375 19.09375 5.609375 36.375 
Q 5.609375 53.65625 14.8125 63.9375 
Q 24.03125 74.21875 39.40625 74.21875 
z
" id="DejaVuSans-79"/>
      <path d="M 47.015625 60.890625 
L 29.5 51.421875 
L 47.015625 41.890625 
L 44.1875 37.109375 
L 27.78125 47.015625 
L 27.78125 28.609375 
L 22.21875 28.609375 
L 22.21875 47.015625 
L 5.8125 37.109375 
L 2.984375 41.890625 
L 20.515625 51.421875 
L 2.984375 60.890625 
L 5.8125 65.71875 
L 22.21875 55.8125 
L 22.21875 74.21875 
L 27.78125 74.21875 
L 27.78125 55.8125 
L 44.1875 65.71875 
z
" id="DejaVuSans-42"/>
     </defs>
     <g style="fill:#262626;" transform="translate(16.56 223.138125)rotate(-90)scale(0.12 -0.12)">
      <use transform="translate(0 0.3125)" xlink:href="#DejaVuSans-82"/>
      <use transform="translate(69.482422 0.3125)" xlink:href="#DejaVuSans-101"/>
      <use transform="translate(131.005859 0.3125)" xlink:href="#DejaVuSans-100"/>
      <use transform="translate(194.482422 0.3125)" xlink:href="#DejaVuSans-117"/>
      <use transform="translate(257.861328 0.3125)" xlink:href="#DejaVuSans-231"/>
      <use transform="translate(312.841797 0.3125)" xlink:href="#DejaVuSans-227"/>
      <use transform="translate(374.121094 0.3125)" xlink:href="#DejaVuSans-111"/>
      <use transform="translate(435.302734 0.3125)" xlink:href="#DejaVuSans-32"/>
      <use transform="translate(467.089844 0.3125)" xlink:href="#DejaVuSans-100"/>
      <use transform="translate(530.566406 0.3125)" xlink:href="#DejaVuSans-101"/>
      <use transform="translate(592.089844 0.3125)" xlink:href="#DejaVuSans-32"/>
      <use transform="translate(623.876953 0.3125)" xlink:href="#DejaVuSans-112"/>
      <use transform="translate(687.353516 0.3125)" xlink:href="#DejaVuSans-111"/>
      <use transform="translate(748.535156 0.3125)" xlink:href="#DejaVuSans-108"/>
      <use transform="translate(776.318359 0.3125)" xlink:href="#DejaVuSans-117"/>
      <use transform="translate(839.697266 0.3125)" xlink:href="#DejaVuSans-105"/>
      <use transform="translate(867.480469 0.3125)" xlink:href="#DejaVuSans-231"/>
      <use transform="translate(922.460938 0.3125)" xlink:href="#DejaVuSans-227"/>
      <use transform="translate(983.740234 0.3125)" xlink:href="#DejaVuSans-111"/>
      <use transform="translate(1044.921875 0.3125)" xlink:href="#DejaVuSans-32"/>
      <use transform="translate(1076.708984 0.3125)" xlink:href="#DejaVuSans-112"/>
      <use transform="translate(1140.185547 0.3125)" xlink:href="#DejaVuSans-111"/>
      <use transform="translate(1201.367188 0.3125)" xlink:href="#DejaVuSans-114"/>
      <use transform="translate(1242.480469 0.3125)" xlink:href="#DejaVuSans-32"/>
      <use transform="translate(1274.267578 0.3125)" xlink:href="#DejaVuSans-78"/>
      <use transform="translate(1349.072266 0.3125)" xlink:href="#DejaVuSans-79"/>
      <use transform="translate(1428.740234 -16.09375)scale(0.7)" xlink:href="#DejaVuSans-50"/>
      <use transform="translate(1476.010742 0.3125)" xlink:href="#DejaVuSans-42"/>
     </g>
    </g>
   </g>
   <g id="patch_3">
    <path clip-path="url(#p225d48945f)" d="M 54.9475 240.238125 
L 121.9075 240.238125 
L 121.9075 142.729017 
L 54.9475 142.729017 
z
" style="fill:#5875a4;stroke:#ffffff;stroke-linejoin:miter;"/>
   </g>
   <g id="patch_4">
    <path clip-path="url(#p225d48945f)" d="M 138.6475 240.238125 
L 205.6075 240.238125 
L 205.6075 33.152411 
L 138.6475 33.152411 
z
" style="fill:#cc8963;stroke:#ffffff;stroke-linejoin:miter;"/>
   </g>
   <g id="patch_5">
    <path clip-path="url(#p225d48945f)" d="M 222.3475 240.238125 
L 289.3075 240.238125 
L 289.3075 63.278415 
L 222.3475 63.278415 
z
" style="fill:#5f9e6e;stroke:#ffffff;stroke-linejoin:miter;"/>
   </g>
   <g id="patch_6">
    <path clip-path="url(#p225d48945f)" d="M 306.0475 240.238125 
L 373.0075 240.238125 
L 373.0075 34.738457 
L 306.0475 34.738457 
z
" style="fill:#b55d60;stroke:#ffffff;stroke-linejoin:miter;"/>
   </g>
   <g id="line2d_9">
    <path clip-path="url(#p225d48945f)" d="M 0 0 
" style="fill:none;stroke:#424242;stroke-linecap:round;stroke-width:2.7;"/>
   </g>
   <g id="line2d_10">
    <path clip-path="url(#p225d48945f)" d="M 0 0 
" style="fill:none;stroke:#424242;stroke-linecap:round;stroke-width:2.7;"/>
   </g>
   <g id="line2d_11">
    <path clip-path="url(#p225d48945f)" d="M 0 0 
" style="fill:none;stroke:#424242;stroke-linecap:round;stroke-width:2.7;"/>
   </g>
   <g id="line2d_12">
    <path clip-path="url(#p225d48945f)" d="M 0 0 
" style="fill:none;stroke:#424242;stroke-linecap:round;stroke-width:2.7;"/>
   </g>
   <g id="patch_7">
    <path d="M 46.5775 240.238125 
L 46.5775 22.798125 
" style="fill:none;stroke:#cccccc;stroke-linecap:square;stroke-linejoin:miter;stroke-width:1.25;"/>
   </g>
   <g id="patch_8">
    <path d="M 381.3775 240.238125 
L 381.3775 22.798125 
" style="fill:none;stroke:#cccccc;stroke-linecap:square;stroke-linejoin:miter;stroke-width:1.25;"/>
   </g>
   <g id="patch_9">
    <path d="M 46.5775 240.238125 
L 381.3775 240.238125 
" style="fill:none;stroke:#cccccc;stroke-linecap:square;stroke-linejoin:miter;stroke-width:1.25;"/>
   </g>
   <g id="patch_10">
    <path d="M 46.5775 22.798125 
L 381.3775 22.798125 
" style="fill:none;stroke:#cccccc;stroke-linecap:square;stroke-linejoin:miter;stroke-width:1.25;"/>
   </g>
   <g id="text_14">
    <!-- * Redução percentual em $\mathrm{NO}_2$, dados do World Air  -->
    <defs>
     <path d="M 48.78125 52.59375 
L 48.78125 44.1875 
Q 44.96875 46.296875 41.140625 47.34375 
Q 37.3125 48.390625 33.40625 48.390625 
Q 24.65625 48.390625 19.8125 42.84375 
Q 14.984375 37.3125 14.984375 27.296875 
Q 14.984375 17.28125 19.8125 11.734375 
Q 24.65625 6.203125 33.40625 6.203125 
Q 37.3125 6.203125 41.140625 7.25 
Q 44.96875 8.296875 48.78125 10.40625 
L 48.78125 2.09375 
Q 45.015625 0.34375 40.984375 -0.53125 
Q 36.96875 -1.421875 32.421875 -1.421875 
Q 20.0625 -1.421875 12.78125 6.34375 
Q 5.515625 14.109375 5.515625 27.296875 
Q 5.515625 40.671875 12.859375 48.328125 
Q 20.21875 56 33.015625 56 
Q 37.15625 56 41.109375 55.140625 
Q 45.0625 54.296875 48.78125 52.59375 
z
" id="DejaVuSans-99"/>
     <path d="M 18.3125 70.21875 
L 18.3125 54.6875 
L 36.8125 54.6875 
L 36.8125 47.703125 
L 18.3125 47.703125 
L 18.3125 18.015625 
Q 18.3125 11.328125 20.140625 9.421875 
Q 21.96875 7.515625 27.59375 7.515625 
L 36.8125 7.515625 
L 36.8125 0 
L 27.59375 0 
Q 17.1875 0 13.234375 3.875 
Q 9.28125 7.765625 9.28125 18.015625 
L 9.28125 47.703125 
L 2.6875 47.703125 
L 2.6875 54.6875 
L 9.28125 54.6875 
L 9.28125 70.21875 
z
" id="DejaVuSans-116"/>
     <path d="M 11.71875 12.40625 
L 22.015625 12.40625 
L 22.015625 4 
L 14.015625 -11.625 
L 7.71875 -11.625 
L 11.71875 4 
z
" id="DejaVuSans-44"/>
     <path d="M 3.328125 72.90625 
L 13.28125 72.90625 
L 28.609375 11.28125 
L 43.890625 72.90625 
L 54.984375 72.90625 
L 70.3125 11.28125 
L 85.59375 72.90625 
L 95.609375 72.90625 
L 77.296875 0 
L 64.890625 0 
L 49.515625 63.28125 
L 33.984375 0 
L 21.578125 0 
z
" id="DejaVuSans-87"/>
     <path d="M 34.1875 63.1875 
L 20.796875 26.90625 
L 47.609375 26.90625 
z
M 28.609375 72.90625 
L 39.796875 72.90625 
L 67.578125 0 
L 57.328125 0 
L 50.6875 18.703125 
L 17.828125 18.703125 
L 11.1875 0 
L 0.78125 0 
z
" id="DejaVuSans-65"/>
    </defs>
    <g style="fill:#262626;" transform="translate(46.5775 279.598125)scale(0.12 -0.12)">
     <use transform="translate(0 0.3125)" xlink:href="#DejaVuSans-42"/>
     <use transform="translate(50 0.3125)" xlink:href="#DejaVuSans-32"/>
     <use transform="translate(81.787109 0.3125)" xlink:href="#DejaVuSans-82"/>
     <use transform="translate(151.269531 0.3125)" xlink:href="#DejaVuSans-101"/>
     <use transform="translate(212.792969 0.3125)" xlink:href="#DejaVuSans-100"/>
     <use transform="translate(276.269531 0.3125)" xlink:href="#DejaVuSans-117"/>
     <use transform="translate(339.648438 0.3125)" xlink:href="#DejaVuSans-231"/>
     <use transform="translate(394.628906 0.3125)" xlink:href="#DejaVuSans-227"/>
     <use transform="translate(455.908203 0.3125)" xlink:href="#DejaVuSans-111"/>
     <use transform="translate(517.089844 0.3125)" xlink:href="#DejaVuSans-32"/>
     <use transform="translate(548.876953 0.3125)" xlink:href="#DejaVuSans-112"/>
     <use transform="translate(612.353516 0.3125)" xlink:href="#DejaVuSans-101"/>
     <use transform="translate(673.876953 0.3125)" xlink:href="#DejaVuSans-114"/>
     <use transform="translate(714.990234 0.3125)" xlink:href="#DejaVuSans-99"/>
     <use transform="translate(769.970703 0.3125)" xlink:href="#DejaVuSans-101"/>
     <use transform="translate(831.494141 0.3125)" xlink:href="#DejaVuSans-110"/>
     <use transform="translate(894.873047 0.3125)" xlink:href="#DejaVuSans-116"/>
     <use transform="translate(934.082031 0.3125)" xlink:href="#DejaVuSans-117"/>
     <use transform="translate(997.460938 0.3125)" xlink:href="#DejaVuSans-97"/>
     <use transform="translate(1058.740234 0.3125)" xlink:href="#DejaVuSans-108"/>
     <use transform="translate(1086.523438 0.3125)" xlink:href="#DejaVuSans-32"/>
     <use transform="translate(1118.310547 0.3125)" xlink:href="#DejaVuSans-101"/>
     <use transform="translate(1179.833984 0.3125)" xlink:href="#DejaVuSans-109"/>
     <use transform="translate(1277.246094 0.3125)" xlink:href="#DejaVuSans-32"/>
     <use transform="translate(1309.033203 0.3125)" xlink:href="#DejaVuSans-78"/>
     <use transform="translate(1383.837891 0.3125)" xlink:href="#DejaVuSans-79"/>
     <use transform="translate(1463.505859 -16.09375)scale(0.7)" xlink:href="#DejaVuSans-50"/>
     <use transform="translate(1510.776367 0.3125)" xlink:href="#DejaVuSans-44"/>
     <use transform="translate(1542.563477 0.3125)" xlink:href="#DejaVuSans-32"/>
     <use transform="translate(1574.350586 0.3125)" xlink:href="#DejaVuSans-100"/>
     <use transform="translate(1637.827148 0.3125)" xlink:href="#DejaVuSans-97"/>
     <use transform="translate(1699.106445 0.3125)" xlink:href="#DejaVuSans-100"/>
     <use transform="translate(1762.583008 0.3125)" xlink:href="#DejaVuSans-111"/>
     <use transform="translate(1823.764648 0.3125)" xlink:href="#DejaVuSans-115"/>
     <use transform="translate(1875.864258 0.3125)" xlink:href="#DejaVuSans-32"/>
     <use transform="translate(1907.651367 0.3125)" xlink:href="#DejaVuSans-100"/>
     <use transform="translate(1971.12793 0.3125)" xlink:href="#DejaVuSans-111"/>
     <use transform="translate(2032.30957 0.3125)" xlink:href="#DejaVuSans-32"/>
     <use transform="translate(2064.09668 0.3125)" xlink:href="#DejaVuSans-87"/>
     <use transform="translate(2162.973633 0.3125)" xlink:href="#DejaVuSans-111"/>
     <use transform="translate(2224.155273 0.3125)" xlink:href="#DejaVuSans-114"/>
     <use transform="translate(2265.268555 0.3125)" xlink:href="#DejaVuSans-108"/>
     <use transform="translate(2293.051758 0.3125)" xlink:href="#DejaVuSans-100"/>
     <use transform="translate(2356.52832 0.3125)" xlink:href="#DejaVuSans-32"/>
     <use transform="translate(2388.31543 0.3125)" xlink:href="#DejaVuSans-65"/>
     <use transform="translate(2456.723633 0.3125)" xlink:href="#DejaVuSans-105"/>
     <use transform="translate(2484.506836 0.3125)" xlink:href="#DejaVuSans-114"/>
     <use transform="translate(2525.620117 0.3125)" xlink:href="#DejaVuSans-32"/>
    </g>
    <!-- Quality Index (WAQI). Média de valores sobre 7 dias  -->
    <defs>
     <path d="M 39.40625 66.21875 
Q 28.65625 66.21875 22.328125 58.203125 
Q 16.015625 50.203125 16.015625 36.375 
Q 16.015625 22.609375 22.328125 14.59375 
Q 28.65625 6.59375 39.40625 6.59375 
Q 50.140625 6.59375 56.421875 14.59375 
Q 62.703125 22.609375 62.703125 36.375 
Q 62.703125 50.203125 56.421875 58.203125 
Q 50.140625 66.21875 39.40625 66.21875 
z
M 53.21875 1.3125 
L 66.21875 -12.890625 
L 54.296875 -12.890625 
L 43.5 -1.21875 
Q 41.890625 -1.3125 41.03125 -1.359375 
Q 40.1875 -1.421875 39.40625 -1.421875 
Q 24.03125 -1.421875 14.8125 8.859375 
Q 5.609375 19.140625 5.609375 36.375 
Q 5.609375 53.65625 14.8125 63.9375 
Q 24.03125 74.21875 39.40625 74.21875 
Q 54.734375 74.21875 63.90625 63.9375 
Q 73.09375 53.65625 73.09375 36.375 
Q 73.09375 23.6875 67.984375 14.640625 
Q 62.890625 5.609375 53.21875 1.3125 
z
" id="DejaVuSans-81"/>
     <path d="M 32.171875 -5.078125 
Q 28.375 -14.84375 24.75 -17.8125 
Q 21.140625 -20.796875 15.09375 -20.796875 
L 7.90625 -20.796875 
L 7.90625 -13.28125 
L 13.1875 -13.28125 
Q 16.890625 -13.28125 18.9375 -11.515625 
Q 21 -9.765625 23.484375 -3.21875 
L 25.09375 0.875 
L 2.984375 54.6875 
L 12.5 54.6875 
L 29.59375 11.921875 
L 46.6875 54.6875 
L 56.203125 54.6875 
z
" id="DejaVuSans-121"/>
     <path d="M 54.890625 54.6875 
L 35.109375 28.078125 
L 55.90625 0 
L 45.3125 0 
L 29.390625 21.484375 
L 13.484375 0 
L 2.875 0 
L 24.125 28.609375 
L 4.6875 54.6875 
L 15.28125 54.6875 
L 29.78125 35.203125 
L 44.28125 54.6875 
z
" id="DejaVuSans-120"/>
     <path d="M 31 75.875 
Q 24.46875 64.65625 21.28125 53.65625 
Q 18.109375 42.671875 18.109375 31.390625 
Q 18.109375 20.125 21.3125 9.0625 
Q 24.515625 -2 31 -13.1875 
L 23.1875 -13.1875 
Q 15.875 -1.703125 12.234375 9.375 
Q 8.59375 20.453125 8.59375 31.390625 
Q 8.59375 42.28125 12.203125 53.3125 
Q 15.828125 64.359375 23.1875 75.875 
z
" id="DejaVuSans-40"/>
     <path d="M 8.015625 75.875 
L 15.828125 75.875 
Q 23.140625 64.359375 26.78125 53.3125 
Q 30.421875 42.28125 30.421875 31.390625 
Q 30.421875 20.453125 26.78125 9.375 
Q 23.140625 -1.703125 15.828125 -13.1875 
L 8.015625 -13.1875 
Q 14.5 -2 17.703125 9.0625 
Q 20.90625 20.125 20.90625 31.390625 
Q 20.90625 42.671875 17.703125 53.65625 
Q 14.5 64.65625 8.015625 75.875 
z
" id="DejaVuSans-41"/>
     <path d="M 10.6875 12.40625 
L 21 12.40625 
L 21 0 
L 10.6875 0 
z
" id="DejaVuSans-46"/>
     <path d="M 56.203125 29.59375 
L 56.203125 25.203125 
L 14.890625 25.203125 
Q 15.484375 15.921875 20.484375 11.0625 
Q 25.484375 6.203125 34.421875 6.203125 
Q 39.59375 6.203125 44.453125 7.46875 
Q 49.3125 8.734375 54.109375 11.28125 
L 54.109375 2.78125 
Q 49.265625 0.734375 44.1875 -0.34375 
Q 39.109375 -1.421875 33.890625 -1.421875 
Q 20.796875 -1.421875 13.15625 6.1875 
Q 5.515625 13.8125 5.515625 26.8125 
Q 5.515625 40.234375 12.765625 48.109375 
Q 20.015625 56 32.328125 56 
Q 43.359375 56 49.78125 48.890625 
Q 56.203125 41.796875 56.203125 29.59375 
z
M 47.21875 32.234375 
Q 47.125 39.59375 43.09375 43.984375 
Q 39.0625 48.390625 32.421875 48.390625 
Q 24.90625 48.390625 20.390625 44.140625 
Q 15.875 39.890625 15.1875 32.171875 
z
M 38.53125 79.984375 
L 48.25 79.984375 
L 32.34375 61.625 
L 24.859375 61.625 
z
" id="DejaVuSans-233"/>
     <path d="M 2.984375 54.6875 
L 12.5 54.6875 
L 29.59375 8.796875 
L 46.6875 54.6875 
L 56.203125 54.6875 
L 35.6875 0 
L 23.484375 0 
z
" id="DejaVuSans-118"/>
     <path d="M 48.6875 27.296875 
Q 48.6875 37.203125 44.609375 42.84375 
Q 40.53125 48.484375 33.40625 48.484375 
Q 26.265625 48.484375 22.1875 42.84375 
Q 18.109375 37.203125 18.109375 27.296875 
Q 18.109375 17.390625 22.1875 11.75 
Q 26.265625 6.109375 33.40625 6.109375 
Q 40.53125 6.109375 44.609375 11.75 
Q 48.6875 17.390625 48.6875 27.296875 
z
M 18.109375 46.390625 
Q 20.953125 51.265625 25.265625 53.625 
Q 29.59375 56 35.59375 56 
Q 45.5625 56 51.78125 48.09375 
Q 58.015625 40.1875 58.015625 27.296875 
Q 58.015625 14.40625 51.78125 6.484375 
Q 45.5625 -1.421875 35.59375 -1.421875 
Q 29.59375 -1.421875 25.265625 0.953125 
Q 20.953125 3.328125 18.109375 8.203125 
L 18.109375 0 
L 9.078125 0 
L 9.078125 75.984375 
L 18.109375 75.984375 
z
" id="DejaVuSans-98"/>
     <path d="M 8.203125 72.90625 
L 55.078125 72.90625 
L 55.078125 68.703125 
L 28.609375 0 
L 18.3125 0 
L 43.21875 64.59375 
L 8.203125 64.59375 
z
" id="DejaVuSans-55"/>
    </defs>
    <g style="fill:#262626;" transform="translate(46.5775 293.635875)scale(0.12 -0.12)">
     <use xlink:href="#DejaVuSans-81"/>
     <use x="78.710938" xlink:href="#DejaVuSans-117"/>
     <use x="142.089844" xlink:href="#DejaVuSans-97"/>
     <use x="203.369141" xlink:href="#DejaVuSans-108"/>
     <use x="231.152344" xlink:href="#DejaVuSans-105"/>
     <use x="258.935547" xlink:href="#DejaVuSans-116"/>
     <use x="298.144531" xlink:href="#DejaVuSans-121"/>
     <use x="357.324219" xlink:href="#DejaVuSans-32"/>
     <use x="389.111328" xlink:href="#DejaVuSans-73"/>
     <use x="418.603516" xlink:href="#DejaVuSans-110"/>
     <use x="481.982422" xlink:href="#DejaVuSans-100"/>
     <use x="545.458984" xlink:href="#DejaVuSans-101"/>
     <use x="606.966797" xlink:href="#DejaVuSans-120"/>
     <use x="666.146484" xlink:href="#DejaVuSans-32"/>
     <use x="697.933594" xlink:href="#DejaVuSans-40"/>
     <use x="736.947266" xlink:href="#DejaVuSans-87"/>
     <use x="835.746094" xlink:href="#DejaVuSans-65"/>
     <use x="904.138672" xlink:href="#DejaVuSans-81"/>
     <use x="982.849609" xlink:href="#DejaVuSans-73"/>
     <use x="1012.341797" xlink:href="#DejaVuSans-41"/>
     <use x="1051.355469" xlink:href="#DejaVuSans-46"/>
     <use x="1083.142578" xlink:href="#DejaVuSans-32"/>
     <use x="1114.929688" xlink:href="#DejaVuSans-77"/>
     <use x="1201.208984" xlink:href="#DejaVuSans-233"/>
     <use x="1262.732422" xlink:href="#DejaVuSans-100"/>
     <use x="1326.208984" xlink:href="#DejaVuSans-105"/>
     <use x="1353.992188" xlink:href="#DejaVuSans-97"/>
     <use x="1415.271484" xlink:href="#DejaVuSans-32"/>
     <use x="1447.058594" xlink:href="#DejaVuSans-100"/>
     <use x="1510.535156" xlink:href="#DejaVuSans-101"/>
     <use x="1572.058594" xlink:href="#DejaVuSans-32"/>
     <use x="1603.845703" xlink:href="#DejaVuSans-118"/>
     <use x="1663.025391" xlink:href="#DejaVuSans-97"/>
     <use x="1724.304688" xlink:href="#DejaVuSans-108"/>
     <use x="1752.087891" xlink:href="#DejaVuSans-111"/>
     <use x="1813.269531" xlink:href="#DejaVuSans-114"/>
     <use x="1854.351562" xlink:href="#DejaVuSans-101"/>
     <use x="1915.875" xlink:href="#DejaVuSans-115"/>
     <use x="1967.974609" xlink:href="#DejaVuSans-32"/>
     <use x="1999.761719" xlink:href="#DejaVuSans-115"/>
     <use x="2051.861328" xlink:href="#DejaVuSans-111"/>
     <use x="2113.042969" xlink:href="#DejaVuSans-98"/>
     <use x="2176.519531" xlink:href="#DejaVuSans-114"/>
     <use x="2217.601562" xlink:href="#DejaVuSans-101"/>
     <use x="2279.125" xlink:href="#DejaVuSans-32"/>
     <use x="2310.912109" xlink:href="#DejaVuSans-55"/>
     <use x="2374.535156" xlink:href="#DejaVuSans-32"/>
     <use x="2406.322266" xlink:href="#DejaVuSans-100"/>
     <use x="2469.798828" xlink:href="#DejaVuSans-105"/>
     <use x="2497.582031" xlink:href="#DejaVuSans-97"/>
     <use x="2558.861328" xlink:href="#DejaVuSans-115"/>
     <use x="2610.960938" xlink:href="#DejaVuSans-32"/>
    </g>
    <!-- a partir da 5a morte em cada país. -->
    <g style="fill:#262626;" transform="translate(46.5775 307.64925)scale(0.12 -0.12)">
     <use xlink:href="#DejaVuSans-97"/>
     <use x="61.279297" xlink:href="#DejaVuSans-32"/>
     <use x="93.066406" xlink:href="#DejaVuSans-112"/>
     <use x="156.542969" xlink:href="#DejaVuSans-97"/>
     <use x="217.822266" xlink:href="#DejaVuSans-114"/>
     <use x="258.935547" xlink:href="#DejaVuSans-116"/>
     <use x="298.144531" xlink:href="#DejaVuSans-105"/>
     <use x="325.927734" xlink:href="#DejaVuSans-114"/>
     <use x="367.041016" xlink:href="#DejaVuSans-32"/>
     <use x="398.828125" xlink:href="#DejaVuSans-100"/>
     <use x="462.304688" xlink:href="#DejaVuSans-97"/>
     <use x="523.583984" xlink:href="#DejaVuSans-32"/>
     <use x="555.371094" xlink:href="#DejaVuSans-53"/>
     <use x="618.994141" xlink:href="#DejaVuSans-97"/>
     <use x="680.273438" xlink:href="#DejaVuSans-32"/>
     <use x="712.060547" xlink:href="#DejaVuSans-109"/>
     <use x="809.472656" xlink:href="#DejaVuSans-111"/>
     <use x="870.654297" xlink:href="#DejaVuSans-114"/>
     <use x="911.767578" xlink:href="#DejaVuSans-116"/>
     <use x="950.976562" xlink:href="#DejaVuSans-101"/>
     <use x="1012.5" xlink:href="#DejaVuSans-32"/>
     <use x="1044.287109" xlink:href="#DejaVuSans-101"/>
     <use x="1105.810547" xlink:href="#DejaVuSans-109"/>
     <use x="1203.222656" xlink:href="#DejaVuSans-32"/>
     <use x="1235.009766" xlink:href="#DejaVuSans-99"/>
     <use x="1289.990234" xlink:href="#DejaVuSans-97"/>
     <use x="1351.269531" xlink:href="#DejaVuSans-100"/>
     <use x="1414.746094" xlink:href="#DejaVuSans-97"/>
     <use x="1476.025391" xlink:href="#DejaVuSans-32"/>
     <use x="1507.8125" xlink:href="#DejaVuSans-112"/>
     <use x="1571.289062" xlink:href="#DejaVuSans-97"/>
     <use x="1632.568359" xlink:href="#DejaVuSans-237"/>
     <use x="1660.351562" xlink:href="#DejaVuSans-115"/>
     <use x="1712.451172" xlink:href="#DejaVuSans-46"/>
    </g>
   </g>
   <g id="text_15">
    <!-- Redução de poluição automotiva no início da epidemia -->
    <g style="fill:#262626;" transform="translate(48.893125 16.798125)scale(0.12 -0.12)">
     <use xlink:href="#DejaVuSans-82"/>
     <use x="69.419922" xlink:href="#DejaVuSans-101"/>
     <use x="130.943359" xlink:href="#DejaVuSans-100"/>
     <use x="194.419922" xlink:href="#DejaVuSans-117"/>
     <use x="257.798828" xlink:href="#DejaVuSans-231"/>
     <use x="312.779297" xlink:href="#DejaVuSans-227"/>
     <use x="374.058594" xlink:href="#DejaVuSans-111"/>
     <use x="435.240234" xlink:href="#DejaVuSans-32"/>
     <use x="467.027344" xlink:href="#DejaVuSans-100"/>
     <use x="530.503906" xlink:href="#DejaVuSans-101"/>
     <use x="592.027344" xlink:href="#DejaVuSans-32"/>
     <use x="623.814453" xlink:href="#DejaVuSans-112"/>
     <use x="687.291016" xlink:href="#DejaVuSans-111"/>
     <use x="748.472656" xlink:href="#DejaVuSans-108"/>
     <use x="776.255859" xlink:href="#DejaVuSans-117"/>
     <use x="839.634766" xlink:href="#DejaVuSans-105"/>
     <use x="867.417969" xlink:href="#DejaVuSans-231"/>
     <use x="922.398438" xlink:href="#DejaVuSans-227"/>
     <use x="983.677734" xlink:href="#DejaVuSans-111"/>
     <use x="1044.859375" xlink:href="#DejaVuSans-32"/>
     <use x="1076.646484" xlink:href="#DejaVuSans-97"/>
     <use x="1137.925781" xlink:href="#DejaVuSans-117"/>
     <use x="1201.304688" xlink:href="#DejaVuSans-116"/>
     <use x="1240.513672" xlink:href="#DejaVuSans-111"/>
     <use x="1301.695312" xlink:href="#DejaVuSans-109"/>
     <use x="1399.107422" xlink:href="#DejaVuSans-111"/>
     <use x="1460.289062" xlink:href="#DejaVuSans-116"/>
     <use x="1499.498047" xlink:href="#DejaVuSans-105"/>
     <use x="1527.28125" xlink:href="#DejaVuSans-118"/>
     <use x="1586.460938" xlink:href="#DejaVuSans-97"/>
     <use x="1647.740234" xlink:href="#DejaVuSans-32"/>
     <use x="1679.527344" xlink:href="#DejaVuSans-110"/>
     <use x="1742.90625" xlink:href="#DejaVuSans-111"/>
     <use x="1804.087891" xlink:href="#DejaVuSans-32"/>
     <use x="1835.875" xlink:href="#DejaVuSans-105"/>
     <use x="1863.658203" xlink:href="#DejaVuSans-110"/>
     <use x="1927.037109" xlink:href="#DejaVuSans-237"/>
     <use x="1954.820312" xlink:href="#DejaVuSans-99"/>
     <use x="2009.800781" xlink:href="#DejaVuSans-105"/>
     <use x="2037.583984" xlink:href="#DejaVuSans-111"/>
     <use x="2098.765625" xlink:href="#DejaVuSans-32"/>
     <use x="2130.552734" xlink:href="#DejaVuSans-100"/>
     <use x="2194.029297" xlink:href="#DejaVuSans-97"/>
     <use x="2255.308594" xlink:href="#DejaVuSans-32"/>
     <use x="2287.095703" xlink:href="#DejaVuSans-101"/>
     <use x="2348.619141" xlink:href="#DejaVuSans-112"/>
     <use x="2412.095703" xlink:href="#DejaVuSans-105"/>
     <use x="2439.878906" xlink:href="#DejaVuSans-100"/>
     <use x="2503.355469" xlink:href="#DejaVuSans-101"/>
     <use x="2564.878906" xlink:href="#DejaVuSans-109"/>
     <use x="2662.291016" xlink:href="#DejaVuSans-105"/>
     <use x="2690.074219" xlink:href="#DejaVuSans-97"/>
    </g>
   </g>
  </g>
 </g>
 <defs>
  <clipPath id="p225d48945f">
   <rect height="217.44" width="334.8" x="46.5775" y="22.798125"/>
  </clipPath>
 </defs>
</svg>
