<?xml version="1.0" encoding="utf-8" standalone="no"?>
<!DOCTYPE svg PUBLIC "-//W3C//DTD SVG 1.1//EN"
  "http://www.w3.org/Graphics/SVG/1.1/DTD/svg11.dtd">
<!-- Created with matplotlib (https://matplotlib.org/) -->
<svg height="333.07575pt" version="1.1" viewBox="0 0 393.64375 333.07575" width="393.64375pt" xmlns="http://www.w3.org/2000/svg" xmlns:xlink="http://www.w3.org/1999/xlink">
 <defs>
  <style type="text/css">
*{stroke-linecap:butt;stroke-linejoin:round;white-space:pre;}
  </style>
 </defs>
 <g id="figure_1">
  <g id="patch_1">
   <path d="M 0 333.07575 
L 393.64375 333.07575 
L 393.64375 0 
L 0 0 
z
" style="fill:#ffffff;"/>
  </g>
  <g id="axes_1">
   <g id="patch_2">
    <path d="M 48.295 240.238125 
L 383.095 240.238125 
L 383.095 22.798125 
L 48.295 22.798125 
z
" style="fill:#ffffff;"/>
   </g>
   <g id="matplotlib.axis_1">
    <g id="xtick_1">
     <g id="text_1">
      <!-- Brasil -->
      <defs>
       <path d="M 19.671875 34.8125 
L 19.671875 8.109375 
L 35.5 8.109375 
Q 43.453125 8.109375 47.28125 11.40625 
Q 51.125 14.703125 51.125 21.484375 
Q 51.125 28.328125 47.28125 31.5625 
Q 43.453125 34.8125 35.5 34.8125 
z
M 19.671875 64.796875 
L 19.671875 42.828125 
L 34.28125 42.828125 
Q 41.5 42.828125 45.03125 45.53125 
Q 48.578125 48.25 48.578125 53.8125 
Q 48.578125 59.328125 45.03125 62.0625 
Q 41.5 64.796875 34.28125 64.796875 
z
M 9.8125 72.90625 
L 35.015625 72.90625 
Q 46.296875 72.90625 52.390625 68.21875 
Q 58.5 63.53125 58.5 54.890625 
Q 58.5 48.1875 55.375 44.234375 
Q 52.25 40.28125 46.1875 39.3125 
Q 53.46875 37.75 57.5 32.78125 
Q 61.53125 27.828125 61.53125 20.40625 
Q 61.53125 10.640625 54.890625 5.3125 
Q 48.25 0 35.984375 0 
L 9.8125 0 
z
" id="DejaVuSans-66"/>
       <path d="M 41.109375 46.296875 
Q 39.59375 47.171875 37.8125 47.578125 
Q 36.03125 48 33.890625 48 
Q 26.265625 48 22.1875 43.046875 
Q 18.109375 38.09375 18.109375 28.8125 
L 18.109375 0 
L 9.078125 0 
L 9.078125 54.6875 
L 18.109375 54.6875 
L 18.109375 46.1875 
Q 20.953125 51.171875 25.484375 53.578125 
Q 30.03125 56 36.53125 56 
Q 37.453125 56 38.578125 55.875 
Q 39.703125 55.765625 41.0625 55.515625 
z
" id="DejaVuSans-114"/>
       <path d="M 34.28125 27.484375 
Q 23.390625 27.484375 19.1875 25 
Q 14.984375 22.515625 14.984375 16.5 
Q 14.984375 11.71875 18.140625 8.90625 
Q 21.296875 6.109375 26.703125 6.109375 
Q 34.1875 6.109375 38.703125 11.40625 
Q 43.21875 16.703125 43.21875 25.484375 
L 43.21875 27.484375 
z
M 52.203125 31.203125 
L 52.203125 0 
L 43.21875 0 
L 43.21875 8.296875 
Q 40.140625 3.328125 35.546875 0.953125 
Q 30.953125 -1.421875 24.3125 -1.421875 
Q 15.921875 -1.421875 10.953125 3.296875 
Q 6 8.015625 6 15.921875 
Q 6 25.140625 12.171875 29.828125 
Q 18.359375 34.515625 30.609375 34.515625 
L 43.21875 34.515625 
L 43.21875 35.40625 
Q 43.21875 41.609375 39.140625 45 
Q 35.0625 48.390625 27.6875 48.390625 
Q 23 48.390625 18.546875 47.265625 
Q 14.109375 46.140625 10.015625 43.890625 
L 10.015625 52.203125 
Q 14.9375 54.109375 19.578125 55.046875 
Q 24.21875 56 28.609375 56 
Q 40.484375 56 46.34375 49.84375 
Q 52.203125 43.703125 52.203125 31.203125 
z
" id="DejaVuSans-97"/>
       <path d="M 44.28125 53.078125 
L 44.28125 44.578125 
Q 40.484375 46.53125 36.375 47.5 
Q 32.28125 48.484375 27.875 48.484375 
Q 21.1875 48.484375 17.84375 46.4375 
Q 14.5 44.390625 14.5 40.28125 
Q 14.5 37.15625 16.890625 35.375 
Q 19.28125 33.59375 26.515625 31.984375 
L 29.59375 31.296875 
Q 39.15625 29.25 43.1875 25.515625 
Q 47.21875 21.78125 47.21875 15.09375 
Q 47.21875 7.46875 41.1875 3.015625 
Q 35.15625 -1.421875 24.609375 -1.421875 
Q 20.21875 -1.421875 15.453125 -0.5625 
Q 10.6875 0.296875 5.421875 2 
L 5.421875 11.28125 
Q 10.40625 8.6875 15.234375 7.390625 
Q 20.0625 6.109375 24.8125 6.109375 
Q 31.15625 6.109375 34.5625 8.28125 
Q 37.984375 10.453125 37.984375 14.40625 
Q 37.984375 18.0625 35.515625 20.015625 
Q 33.0625 21.96875 24.703125 23.78125 
L 21.578125 24.515625 
Q 13.234375 26.265625 9.515625 29.90625 
Q 5.8125 33.546875 5.8125 39.890625 
Q 5.8125 47.609375 11.28125 51.796875 
Q 16.75 56 26.8125 56 
Q 31.78125 56 36.171875 55.265625 
Q 40.578125 54.546875 44.28125 53.078125 
z
" id="DejaVuSans-115"/>
       <path d="M 9.421875 54.6875 
L 18.40625 54.6875 
L 18.40625 0 
L 9.421875 0 
z
M 9.421875 75.984375 
L 18.40625 75.984375 
L 18.40625 64.59375 
L 9.421875 64.59375 
z
" id="DejaVuSans-105"/>
       <path d="M 9.421875 75.984375 
L 18.40625 75.984375 
L 18.40625 0 
L 9.421875 0 
z
" id="DejaVuSans-108"/>
      </defs>
      <g style="fill:#262626;" transform="translate(74.818906 258.096406)scale(0.11 -0.11)">
       <use xlink:href="#DejaVuSans-66"/>
       <use x="68.603516" xlink:href="#DejaVuSans-114"/>
       <use x="109.716797" xlink:href="#DejaVuSans-97"/>
       <use x="170.996094" xlink:href="#DejaVuSans-115"/>
       <use x="223.095703" xlink:href="#DejaVuSans-105"/>
       <use x="250.878906" xlink:href="#DejaVuSans-108"/>
      </g>
     </g>
    </g>
    <g id="xtick_2">
     <g id="text_2">
      <!-- BRICS -->
      <defs>
       <path d="M 44.390625 34.1875 
Q 47.5625 33.109375 50.5625 29.59375 
Q 53.5625 26.078125 56.59375 19.921875 
L 66.609375 0 
L 56 0 
L 46.6875 18.703125 
Q 43.0625 26.03125 39.671875 28.421875 
Q 36.28125 30.8125 30.421875 30.8125 
L 19.671875 30.8125 
L 19.671875 0 
L 9.8125 0 
L 9.8125 72.90625 
L 32.078125 72.90625 
Q 44.578125 72.90625 50.734375 67.671875 
Q 56.890625 62.453125 56.890625 51.90625 
Q 56.890625 45.015625 53.6875 40.46875 
Q 50.484375 35.9375 44.390625 34.1875 
z
M 19.671875 64.796875 
L 19.671875 38.921875 
L 32.078125 38.921875 
Q 39.203125 38.921875 42.84375 42.21875 
Q 46.484375 45.515625 46.484375 51.90625 
Q 46.484375 58.296875 42.84375 61.546875 
Q 39.203125 64.796875 32.078125 64.796875 
z
" id="DejaVuSans-82"/>
       <path d="M 9.8125 72.90625 
L 19.671875 72.90625 
L 19.671875 0 
L 9.8125 0 
z
" id="DejaVuSans-73"/>
       <path d="M 64.40625 67.28125 
L 64.40625 56.890625 
Q 59.421875 61.53125 53.78125 63.8125 
Q 48.140625 66.109375 41.796875 66.109375 
Q 29.296875 66.109375 22.65625 58.46875 
Q 16.015625 50.828125 16.015625 36.375 
Q 16.015625 21.96875 22.65625 14.328125 
Q 29.296875 6.6875 41.796875 6.6875 
Q 48.140625 6.6875 53.78125 8.984375 
Q 59.421875 11.28125 64.40625 15.921875 
L 64.40625 5.609375 
Q 59.234375 2.09375 53.4375 0.328125 
Q 47.65625 -1.421875 41.21875 -1.421875 
Q 24.65625 -1.421875 15.125 8.703125 
Q 5.609375 18.84375 5.609375 36.375 
Q 5.609375 53.953125 15.125 64.078125 
Q 24.65625 74.21875 41.21875 74.21875 
Q 47.75 74.21875 53.53125 72.484375 
Q 59.328125 70.75 64.40625 67.28125 
z
" id="DejaVuSans-67"/>
       <path d="M 53.515625 70.515625 
L 53.515625 60.890625 
Q 47.90625 63.578125 42.921875 64.890625 
Q 37.9375 66.21875 33.296875 66.21875 
Q 25.25 66.21875 20.875 63.09375 
Q 16.5 59.96875 16.5 54.203125 
Q 16.5 49.359375 19.40625 46.890625 
Q 22.3125 44.4375 30.421875 42.921875 
L 36.375 41.703125 
Q 47.40625 39.59375 52.65625 34.296875 
Q 57.90625 29 57.90625 20.125 
Q 57.90625 9.515625 50.796875 4.046875 
Q 43.703125 -1.421875 29.984375 -1.421875 
Q 24.8125 -1.421875 18.96875 -0.25 
Q 13.140625 0.921875 6.890625 3.21875 
L 6.890625 13.375 
Q 12.890625 10.015625 18.65625 8.296875 
Q 24.421875 6.59375 29.984375 6.59375 
Q 38.421875 6.59375 43.015625 9.90625 
Q 47.609375 13.234375 47.609375 19.390625 
Q 47.609375 24.75 44.3125 27.78125 
Q 41.015625 30.8125 33.5 32.328125 
L 27.484375 33.5 
Q 16.453125 35.6875 11.515625 40.375 
Q 6.59375 45.0625 6.59375 53.421875 
Q 6.59375 63.09375 13.40625 68.65625 
Q 20.21875 74.21875 32.171875 74.21875 
Q 37.3125 74.21875 42.625 73.28125 
Q 47.953125 72.359375 53.515625 70.515625 
z
" id="DejaVuSans-83"/>
      </defs>
      <g style="fill:#262626;" transform="translate(157.295156 258.096406)scale(0.11 -0.11)">
       <use xlink:href="#DejaVuSans-66"/>
       <use x="68.603516" xlink:href="#DejaVuSans-82"/>
       <use x="138.085938" xlink:href="#DejaVuSans-73"/>
       <use x="167.578125" xlink:href="#DejaVuSans-67"/>
       <use x="237.402344" xlink:href="#DejaVuSans-83"/>
      </g>
     </g>
    </g>
    <g id="xtick_3">
     <g id="text_3">
      <!-- Países similares -->
      <defs>
       <path d="M 19.671875 64.796875 
L 19.671875 37.40625 
L 32.078125 37.40625 
Q 38.96875 37.40625 42.71875 40.96875 
Q 46.484375 44.53125 46.484375 51.125 
Q 46.484375 57.671875 42.71875 61.234375 
Q 38.96875 64.796875 32.078125 64.796875 
z
M 9.8125 72.90625 
L 32.078125 72.90625 
Q 44.34375 72.90625 50.609375 67.359375 
Q 56.890625 61.8125 56.890625 51.125 
Q 56.890625 40.328125 50.609375 34.8125 
Q 44.34375 29.296875 32.078125 29.296875 
L 19.671875 29.296875 
L 19.671875 0 
L 9.8125 0 
z
" id="DejaVuSans-80"/>
       <path d="M 20.65625 79.984375 
L 30.375 79.984375 
L 14.46875 61.625 
L 6.984375 61.625 
z
M 9.421875 54.6875 
L 18.40625 54.6875 
L 18.40625 0 
L 9.421875 0 
z
M 13.921875 56 
z
" id="DejaVuSans-237"/>
       <path d="M 56.203125 29.59375 
L 56.203125 25.203125 
L 14.890625 25.203125 
Q 15.484375 15.921875 20.484375 11.0625 
Q 25.484375 6.203125 34.421875 6.203125 
Q 39.59375 6.203125 44.453125 7.46875 
Q 49.3125 8.734375 54.109375 11.28125 
L 54.109375 2.78125 
Q 49.265625 0.734375 44.1875 -0.34375 
Q 39.109375 -1.421875 33.890625 -1.421875 
Q 20.796875 -1.421875 13.15625 6.1875 
Q 5.515625 13.8125 5.515625 26.8125 
Q 5.515625 40.234375 12.765625 48.109375 
Q 20.015625 56 32.328125 56 
Q 43.359375 56 49.78125 48.890625 
Q 56.203125 41.796875 56.203125 29.59375 
z
M 47.21875 32.234375 
Q 47.125 39.59375 43.09375 43.984375 
Q 39.0625 48.390625 32.421875 48.390625 
Q 24.90625 48.390625 20.390625 44.140625 
Q 15.875 39.890625 15.1875 32.171875 
z
" id="DejaVuSans-101"/>
       <path id="DejaVuSans-32"/>
       <path d="M 52 44.1875 
Q 55.375 50.25 60.0625 53.125 
Q 64.75 56 71.09375 56 
Q 79.640625 56 84.28125 50.015625 
Q 88.921875 44.046875 88.921875 33.015625 
L 88.921875 0 
L 79.890625 0 
L 79.890625 32.71875 
Q 79.890625 40.578125 77.09375 44.375 
Q 74.3125 48.1875 68.609375 48.1875 
Q 61.625 48.1875 57.5625 43.546875 
Q 53.515625 38.921875 53.515625 30.90625 
L 53.515625 0 
L 44.484375 0 
L 44.484375 32.71875 
Q 44.484375 40.625 41.703125 44.40625 
Q 38.921875 48.1875 33.109375 48.1875 
Q 26.21875 48.1875 22.15625 43.53125 
Q 18.109375 38.875 18.109375 30.90625 
L 18.109375 0 
L 9.078125 0 
L 9.078125 54.6875 
L 18.109375 54.6875 
L 18.109375 46.1875 
Q 21.1875 51.21875 25.484375 53.609375 
Q 29.78125 56 35.6875 56 
Q 41.65625 56 45.828125 52.96875 
Q 50 49.953125 52 44.1875 
z
" id="DejaVuSans-109"/>
      </defs>
      <g style="fill:#262626;" transform="translate(213.785625 258.096406)scale(0.11 -0.11)">
       <use xlink:href="#DejaVuSans-80"/>
       <use x="60.240234" xlink:href="#DejaVuSans-97"/>
       <use x="121.519531" xlink:href="#DejaVuSans-237"/>
       <use x="149.302734" xlink:href="#DejaVuSans-115"/>
       <use x="201.402344" xlink:href="#DejaVuSans-101"/>
       <use x="262.925781" xlink:href="#DejaVuSans-115"/>
       <use x="315.025391" xlink:href="#DejaVuSans-32"/>
       <use x="346.8125" xlink:href="#DejaVuSans-115"/>
       <use x="398.912109" xlink:href="#DejaVuSans-105"/>
       <use x="426.695312" xlink:href="#DejaVuSans-109"/>
       <use x="524.107422" xlink:href="#DejaVuSans-105"/>
       <use x="551.890625" xlink:href="#DejaVuSans-108"/>
       <use x="579.673828" xlink:href="#DejaVuSans-97"/>
       <use x="640.953125" xlink:href="#DejaVuSans-114"/>
       <use x="682.035156" xlink:href="#DejaVuSans-101"/>
       <use x="743.558594" xlink:href="#DejaVuSans-115"/>
      </g>
     </g>
    </g>
    <g id="xtick_4">
     <g id="text_4">
      <!-- Mundo -->
      <defs>
       <path d="M 9.8125 72.90625 
L 24.515625 72.90625 
L 43.109375 23.296875 
L 61.8125 72.90625 
L 76.515625 72.90625 
L 76.515625 0 
L 66.890625 0 
L 66.890625 64.015625 
L 48.09375 14.015625 
L 38.1875 14.015625 
L 19.390625 64.015625 
L 19.390625 0 
L 9.8125 0 
z
" id="DejaVuSans-77"/>
       <path d="M 8.5 21.578125 
L 8.5 54.6875 
L 17.484375 54.6875 
L 17.484375 21.921875 
Q 17.484375 14.15625 20.5 10.265625 
Q 23.53125 6.390625 29.59375 6.390625 
Q 36.859375 6.390625 41.078125 11.03125 
Q 45.3125 15.671875 45.3125 23.6875 
L 45.3125 54.6875 
L 54.296875 54.6875 
L 54.296875 0 
L 45.3125 0 
L 45.3125 8.40625 
Q 42.046875 3.421875 37.71875 1 
Q 33.40625 -1.421875 27.6875 -1.421875 
Q 18.265625 -1.421875 13.375 4.4375 
Q 8.5 10.296875 8.5 21.578125 
z
M 31.109375 56 
z
" id="DejaVuSans-117"/>
       <path d="M 54.890625 33.015625 
L 54.890625 0 
L 45.90625 0 
L 45.90625 32.71875 
Q 45.90625 40.484375 42.875 44.328125 
Q 39.84375 48.1875 33.796875 48.1875 
Q 26.515625 48.1875 22.3125 43.546875 
Q 18.109375 38.921875 18.109375 30.90625 
L 18.109375 0 
L 9.078125 0 
L 9.078125 54.6875 
L 18.109375 54.6875 
L 18.109375 46.1875 
Q 21.34375 51.125 25.703125 53.5625 
Q 30.078125 56 35.796875 56 
Q 45.21875 56 50.046875 50.171875 
Q 54.890625 44.34375 54.890625 33.015625 
z
" id="DejaVuSans-110"/>
       <path d="M 45.40625 46.390625 
L 45.40625 75.984375 
L 54.390625 75.984375 
L 54.390625 0 
L 45.40625 0 
L 45.40625 8.203125 
Q 42.578125 3.328125 38.25 0.953125 
Q 33.9375 -1.421875 27.875 -1.421875 
Q 17.96875 -1.421875 11.734375 6.484375 
Q 5.515625 14.40625 5.515625 27.296875 
Q 5.515625 40.1875 11.734375 48.09375 
Q 17.96875 56 27.875 56 
Q 33.9375 56 38.25 53.625 
Q 42.578125 51.265625 45.40625 46.390625 
z
M 14.796875 27.296875 
Q 14.796875 17.390625 18.875 11.75 
Q 22.953125 6.109375 30.078125 6.109375 
Q 37.203125 6.109375 41.296875 11.75 
Q 45.40625 17.390625 45.40625 27.296875 
Q 45.40625 37.203125 41.296875 42.84375 
Q 37.203125 48.484375 30.078125 48.484375 
Q 22.953125 48.484375 18.875 42.84375 
Q 14.796875 37.203125 14.796875 27.296875 
z
" id="DejaVuSans-100"/>
       <path d="M 30.609375 48.390625 
Q 23.390625 48.390625 19.1875 42.75 
Q 14.984375 37.109375 14.984375 27.296875 
Q 14.984375 17.484375 19.15625 11.84375 
Q 23.34375 6.203125 30.609375 6.203125 
Q 37.796875 6.203125 41.984375 11.859375 
Q 46.1875 17.53125 46.1875 27.296875 
Q 46.1875 37.015625 41.984375 42.703125 
Q 37.796875 48.390625 30.609375 48.390625 
z
M 30.609375 56 
Q 42.328125 56 49.015625 48.375 
Q 55.71875 40.765625 55.71875 27.296875 
Q 55.71875 13.875 49.015625 6.21875 
Q 42.328125 -1.421875 30.609375 -1.421875 
Q 18.84375 -1.421875 12.171875 6.21875 
Q 5.515625 13.875 5.515625 27.296875 
Q 5.515625 40.765625 12.171875 48.375 
Q 18.84375 56 30.609375 56 
z
" id="DejaVuSans-111"/>
      </defs>
      <g style="fill:#262626;" transform="translate(322.671328 258.096406)scale(0.11 -0.11)">
       <use xlink:href="#DejaVuSans-77"/>
       <use x="86.279297" xlink:href="#DejaVuSans-117"/>
       <use x="149.658203" xlink:href="#DejaVuSans-110"/>
       <use x="213.037109" xlink:href="#DejaVuSans-100"/>
       <use x="276.513672" xlink:href="#DejaVuSans-111"/>
      </g>
     </g>
    </g>
   </g>
   <g id="matplotlib.axis_2">
    <g id="ytick_1">
     <g id="line2d_1">
      <path clip-path="url(#p795dd272c0)" d="M 48.295 240.238125 
L 383.095 240.238125 
" style="fill:none;stroke:#cccccc;stroke-linecap:round;"/>
     </g>
     <g id="text_5">
      <!-- 0 -->
      <defs>
       <path d="M 31.78125 66.40625 
Q 24.171875 66.40625 20.328125 58.90625 
Q 16.5 51.421875 16.5 36.375 
Q 16.5 21.390625 20.328125 13.890625 
Q 24.171875 6.390625 31.78125 6.390625 
Q 39.453125 6.390625 43.28125 13.890625 
Q 47.125 21.390625 47.125 36.375 
Q 47.125 51.421875 43.28125 58.90625 
Q 39.453125 66.40625 31.78125 66.40625 
z
M 31.78125 74.21875 
Q 44.046875 74.21875 50.515625 64.515625 
Q 56.984375 54.828125 56.984375 36.375 
Q 56.984375 17.96875 50.515625 8.265625 
Q 44.046875 -1.421875 31.78125 -1.421875 
Q 19.53125 -1.421875 13.0625 8.265625 
Q 6.59375 17.96875 6.59375 36.375 
Q 6.59375 54.828125 13.0625 64.515625 
Q 19.53125 74.21875 31.78125 74.21875 
z
" id="DejaVuSans-48"/>
      </defs>
      <g style="fill:#262626;" transform="translate(31.79625 244.417266)scale(0.11 -0.11)">
       <use xlink:href="#DejaVuSans-48"/>
      </g>
     </g>
    </g>
    <g id="ytick_2">
     <g id="line2d_2">
      <path clip-path="url(#p795dd272c0)" d="M 48.295 213.820641 
L 383.095 213.820641 
" style="fill:none;stroke:#cccccc;stroke-linecap:round;"/>
     </g>
     <g id="text_6">
      <!-- 10 -->
      <defs>
       <path d="M 12.40625 8.296875 
L 28.515625 8.296875 
L 28.515625 63.921875 
L 10.984375 60.40625 
L 10.984375 69.390625 
L 28.421875 72.90625 
L 38.28125 72.90625 
L 38.28125 8.296875 
L 54.390625 8.296875 
L 54.390625 0 
L 12.40625 0 
z
" id="DejaVuSans-49"/>
      </defs>
      <g style="fill:#262626;" transform="translate(24.7975 217.999782)scale(0.11 -0.11)">
       <use xlink:href="#DejaVuSans-49"/>
       <use x="63.623047" xlink:href="#DejaVuSans-48"/>
      </g>
     </g>
    </g>
    <g id="ytick_3">
     <g id="line2d_3">
      <path clip-path="url(#p795dd272c0)" d="M 48.295 187.403157 
L 383.095 187.403157 
" style="fill:none;stroke:#cccccc;stroke-linecap:round;"/>
     </g>
     <g id="text_7">
      <!-- 20 -->
      <defs>
       <path d="M 19.1875 8.296875 
L 53.609375 8.296875 
L 53.609375 0 
L 7.328125 0 
L 7.328125 8.296875 
Q 12.9375 14.109375 22.625 23.890625 
Q 32.328125 33.6875 34.8125 36.53125 
Q 39.546875 41.84375 41.421875 45.53125 
Q 43.3125 49.21875 43.3125 52.78125 
Q 43.3125 58.59375 39.234375 62.25 
Q 35.15625 65.921875 28.609375 65.921875 
Q 23.96875 65.921875 18.8125 64.3125 
Q 13.671875 62.703125 7.8125 59.421875 
L 7.8125 69.390625 
Q 13.765625 71.78125 18.9375 73 
Q 24.125 74.21875 28.421875 74.21875 
Q 39.75 74.21875 46.484375 68.546875 
Q 53.21875 62.890625 53.21875 53.421875 
Q 53.21875 48.921875 51.53125 44.890625 
Q 49.859375 40.875 45.40625 35.40625 
Q 44.1875 33.984375 37.640625 27.21875 
Q 31.109375 20.453125 19.1875 8.296875 
z
" id="DejaVuSans-50"/>
      </defs>
      <g style="fill:#262626;" transform="translate(24.7975 191.582297)scale(0.11 -0.11)">
       <use xlink:href="#DejaVuSans-50"/>
       <use x="63.623047" xlink:href="#DejaVuSans-48"/>
      </g>
     </g>
    </g>
    <g id="ytick_4">
     <g id="line2d_4">
      <path clip-path="url(#p795dd272c0)" d="M 48.295 160.985673 
L 383.095 160.985673 
" style="fill:none;stroke:#cccccc;stroke-linecap:round;"/>
     </g>
     <g id="text_8">
      <!-- 30 -->
      <defs>
       <path d="M 40.578125 39.3125 
Q 47.65625 37.796875 51.625 33 
Q 55.609375 28.21875 55.609375 21.1875 
Q 55.609375 10.40625 48.1875 4.484375 
Q 40.765625 -1.421875 27.09375 -1.421875 
Q 22.515625 -1.421875 17.65625 -0.515625 
Q 12.796875 0.390625 7.625 2.203125 
L 7.625 11.71875 
Q 11.71875 9.328125 16.59375 8.109375 
Q 21.484375 6.890625 26.8125 6.890625 
Q 36.078125 6.890625 40.9375 10.546875 
Q 45.796875 14.203125 45.796875 21.1875 
Q 45.796875 27.640625 41.28125 31.265625 
Q 36.765625 34.90625 28.71875 34.90625 
L 20.21875 34.90625 
L 20.21875 43.015625 
L 29.109375 43.015625 
Q 36.375 43.015625 40.234375 45.921875 
Q 44.09375 48.828125 44.09375 54.296875 
Q 44.09375 59.90625 40.109375 62.90625 
Q 36.140625 65.921875 28.71875 65.921875 
Q 24.65625 65.921875 20.015625 65.03125 
Q 15.375 64.15625 9.8125 62.3125 
L 9.8125 71.09375 
Q 15.4375 72.65625 20.34375 73.4375 
Q 25.25 74.21875 29.59375 74.21875 
Q 40.828125 74.21875 47.359375 69.109375 
Q 53.90625 64.015625 53.90625 55.328125 
Q 53.90625 49.265625 50.4375 45.09375 
Q 46.96875 40.921875 40.578125 39.3125 
z
" id="DejaVuSans-51"/>
      </defs>
      <g style="fill:#262626;" transform="translate(24.7975 165.164813)scale(0.11 -0.11)">
       <use xlink:href="#DejaVuSans-51"/>
       <use x="63.623047" xlink:href="#DejaVuSans-48"/>
      </g>
     </g>
    </g>
    <g id="ytick_5">
     <g id="line2d_5">
      <path clip-path="url(#p795dd272c0)" d="M 48.295 134.568189 
L 383.095 134.568189 
" style="fill:none;stroke:#cccccc;stroke-linecap:round;"/>
     </g>
     <g id="text_9">
      <!-- 40 -->
      <defs>
       <path d="M 37.796875 64.3125 
L 12.890625 25.390625 
L 37.796875 25.390625 
z
M 35.203125 72.90625 
L 47.609375 72.90625 
L 47.609375 25.390625 
L 58.015625 25.390625 
L 58.015625 17.1875 
L 47.609375 17.1875 
L 47.609375 0 
L 37.796875 0 
L 37.796875 17.1875 
L 4.890625 17.1875 
L 4.890625 26.703125 
z
" id="DejaVuSans-52"/>
      </defs>
      <g style="fill:#262626;" transform="translate(24.7975 138.747329)scale(0.11 -0.11)">
       <use xlink:href="#DejaVuSans-52"/>
       <use x="63.623047" xlink:href="#DejaVuSans-48"/>
      </g>
     </g>
    </g>
    <g id="ytick_6">
     <g id="line2d_6">
      <path clip-path="url(#p795dd272c0)" d="M 48.295 108.150705 
L 383.095 108.150705 
" style="fill:none;stroke:#cccccc;stroke-linecap:round;"/>
     </g>
     <g id="text_10">
      <!-- 50 -->
      <defs>
       <path d="M 10.796875 72.90625 
L 49.515625 72.90625 
L 49.515625 64.59375 
L 19.828125 64.59375 
L 19.828125 46.734375 
Q 21.96875 47.46875 24.109375 47.828125 
Q 26.265625 48.1875 28.421875 48.1875 
Q 40.625 48.1875 47.75 41.5 
Q 54.890625 34.8125 54.890625 23.390625 
Q 54.890625 11.625 47.5625 5.09375 
Q 40.234375 -1.421875 26.90625 -1.421875 
Q 22.3125 -1.421875 17.546875 -0.640625 
Q 12.796875 0.140625 7.71875 1.703125 
L 7.71875 11.625 
Q 12.109375 9.234375 16.796875 8.0625 
Q 21.484375 6.890625 26.703125 6.890625 
Q 35.15625 6.890625 40.078125 11.328125 
Q 45.015625 15.765625 45.015625 23.390625 
Q 45.015625 31 40.078125 35.4375 
Q 35.15625 39.890625 26.703125 39.890625 
Q 22.75 39.890625 18.8125 39.015625 
Q 14.890625 38.140625 10.796875 36.28125 
z
" id="DejaVuSans-53"/>
      </defs>
      <g style="fill:#262626;" transform="translate(24.7975 112.329845)scale(0.11 -0.11)">
       <use xlink:href="#DejaVuSans-53"/>
       <use x="63.623047" xlink:href="#DejaVuSans-48"/>
      </g>
     </g>
    </g>
    <g id="ytick_7">
     <g id="line2d_7">
      <path clip-path="url(#p795dd272c0)" d="M 48.295 81.73322 
L 383.095 81.73322 
" style="fill:none;stroke:#cccccc;stroke-linecap:round;"/>
     </g>
     <g id="text_11">
      <!-- 60 -->
      <defs>
       <path d="M 33.015625 40.375 
Q 26.375 40.375 22.484375 35.828125 
Q 18.609375 31.296875 18.609375 23.390625 
Q 18.609375 15.53125 22.484375 10.953125 
Q 26.375 6.390625 33.015625 6.390625 
Q 39.65625 6.390625 43.53125 10.953125 
Q 47.40625 15.53125 47.40625 23.390625 
Q 47.40625 31.296875 43.53125 35.828125 
Q 39.65625 40.375 33.015625 40.375 
z
M 52.59375 71.296875 
L 52.59375 62.3125 
Q 48.875 64.0625 45.09375 64.984375 
Q 41.3125 65.921875 37.59375 65.921875 
Q 27.828125 65.921875 22.671875 59.328125 
Q 17.53125 52.734375 16.796875 39.40625 
Q 19.671875 43.65625 24.015625 45.921875 
Q 28.375 48.1875 33.59375 48.1875 
Q 44.578125 48.1875 50.953125 41.515625 
Q 57.328125 34.859375 57.328125 23.390625 
Q 57.328125 12.15625 50.6875 5.359375 
Q 44.046875 -1.421875 33.015625 -1.421875 
Q 20.359375 -1.421875 13.671875 8.265625 
Q 6.984375 17.96875 6.984375 36.375 
Q 6.984375 53.65625 15.1875 63.9375 
Q 23.390625 74.21875 37.203125 74.21875 
Q 40.921875 74.21875 44.703125 73.484375 
Q 48.484375 72.75 52.59375 71.296875 
z
" id="DejaVuSans-54"/>
      </defs>
      <g style="fill:#262626;" transform="translate(24.7975 85.912361)scale(0.11 -0.11)">
       <use xlink:href="#DejaVuSans-54"/>
       <use x="63.623047" xlink:href="#DejaVuSans-48"/>
      </g>
     </g>
    </g>
    <g id="ytick_8">
     <g id="line2d_8">
      <path clip-path="url(#p795dd272c0)" d="M 48.295 55.315736 
L 383.095 55.315736 
" style="fill:none;stroke:#cccccc;stroke-linecap:round;"/>
     </g>
     <g id="text_12">
      <!-- 70 -->
      <defs>
       <path d="M 8.203125 72.90625 
L 55.078125 72.90625 
L 55.078125 68.703125 
L 28.609375 0 
L 18.3125 0 
L 43.21875 64.59375 
L 8.203125 64.59375 
z
" id="DejaVuSans-55"/>
      </defs>
      <g style="fill:#262626;" transform="translate(24.7975 59.494877)scale(0.11 -0.11)">
       <use xlink:href="#DejaVuSans-55"/>
       <use x="63.623047" xlink:href="#DejaVuSans-48"/>
      </g>
     </g>
    </g>
    <g id="ytick_9">
     <g id="line2d_9">
      <path clip-path="url(#p795dd272c0)" d="M 48.295 28.898252 
L 383.095 28.898252 
" style="fill:none;stroke:#cccccc;stroke-linecap:round;"/>
     </g>
     <g id="text_13">
      <!-- 80 -->
      <defs>
       <path d="M 31.78125 34.625 
Q 24.75 34.625 20.71875 30.859375 
Q 16.703125 27.09375 16.703125 20.515625 
Q 16.703125 13.921875 20.71875 10.15625 
Q 24.75 6.390625 31.78125 6.390625 
Q 38.8125 6.390625 42.859375 10.171875 
Q 46.921875 13.96875 46.921875 20.515625 
Q 46.921875 27.09375 42.890625 30.859375 
Q 38.875 34.625 31.78125 34.625 
z
M 21.921875 38.8125 
Q 15.578125 40.375 12.03125 44.71875 
Q 8.5 49.078125 8.5 55.328125 
Q 8.5 64.0625 14.71875 69.140625 
Q 20.953125 74.21875 31.78125 74.21875 
Q 42.671875 74.21875 48.875 69.140625 
Q 55.078125 64.0625 55.078125 55.328125 
Q 55.078125 49.078125 51.53125 44.71875 
Q 48 40.375 41.703125 38.8125 
Q 48.828125 37.15625 52.796875 32.3125 
Q 56.78125 27.484375 56.78125 20.515625 
Q 56.78125 9.90625 50.3125 4.234375 
Q 43.84375 -1.421875 31.78125 -1.421875 
Q 19.734375 -1.421875 13.25 4.234375 
Q 6.78125 9.90625 6.78125 20.515625 
Q 6.78125 27.484375 10.78125 32.3125 
Q 14.796875 37.15625 21.921875 38.8125 
z
M 18.3125 54.390625 
Q 18.3125 48.734375 21.84375 45.5625 
Q 25.390625 42.390625 31.78125 42.390625 
Q 38.140625 42.390625 41.71875 45.5625 
Q 45.3125 48.734375 45.3125 54.390625 
Q 45.3125 60.0625 41.71875 63.234375 
Q 38.140625 66.40625 31.78125 66.40625 
Q 25.390625 66.40625 21.84375 63.234375 
Q 18.3125 60.0625 18.3125 54.390625 
z
" id="DejaVuSans-56"/>
      </defs>
      <g style="fill:#262626;" transform="translate(24.7975 33.077393)scale(0.11 -0.11)">
       <use xlink:href="#DejaVuSans-56"/>
       <use x="63.623047" xlink:href="#DejaVuSans-48"/>
      </g>
     </g>
    </g>
    <g id="text_14">
     <!-- Índice de rigorosidade* -->
     <defs>
      <path d="M 9.8125 72.90625 
L 19.671875 72.90625 
L 19.671875 0 
L 9.8125 0 
z
M 17.4375 92.515625 
L 26.46875 92.515625 
L 15.34375 79.625 
L 7.859375 79.625 
z
" id="DejaVuSans-205"/>
      <path d="M 48.78125 52.59375 
L 48.78125 44.1875 
Q 44.96875 46.296875 41.140625 47.34375 
Q 37.3125 48.390625 33.40625 48.390625 
Q 24.65625 48.390625 19.8125 42.84375 
Q 14.984375 37.3125 14.984375 27.296875 
Q 14.984375 17.28125 19.8125 11.734375 
Q 24.65625 6.203125 33.40625 6.203125 
Q 37.3125 6.203125 41.140625 7.25 
Q 44.96875 8.296875 48.78125 10.40625 
L 48.78125 2.09375 
Q 45.015625 0.34375 40.984375 -0.53125 
Q 36.96875 -1.421875 32.421875 -1.421875 
Q 20.0625 -1.421875 12.78125 6.34375 
Q 5.515625 14.109375 5.515625 27.296875 
Q 5.515625 40.671875 12.859375 48.328125 
Q 20.21875 56 33.015625 56 
Q 37.15625 56 41.109375 55.140625 
Q 45.0625 54.296875 48.78125 52.59375 
z
" id="DejaVuSans-99"/>
      <path d="M 45.40625 27.984375 
Q 45.40625 37.75 41.375 43.109375 
Q 37.359375 48.484375 30.078125 48.484375 
Q 22.859375 48.484375 18.828125 43.109375 
Q 14.796875 37.75 14.796875 27.984375 
Q 14.796875 18.265625 18.828125 12.890625 
Q 22.859375 7.515625 30.078125 7.515625 
Q 37.359375 7.515625 41.375 12.890625 
Q 45.40625 18.265625 45.40625 27.984375 
z
M 54.390625 6.78125 
Q 54.390625 -7.171875 48.1875 -13.984375 
Q 42 -20.796875 29.203125 -20.796875 
Q 24.46875 -20.796875 20.265625 -20.09375 
Q 16.0625 -19.390625 12.109375 -17.921875 
L 12.109375 -9.1875 
Q 16.0625 -11.328125 19.921875 -12.34375 
Q 23.78125 -13.375 27.78125 -13.375 
Q 36.625 -13.375 41.015625 -8.765625 
Q 45.40625 -4.15625 45.40625 5.171875 
L 45.40625 9.625 
Q 42.625 4.78125 38.28125 2.390625 
Q 33.9375 0 27.875 0 
Q 17.828125 0 11.671875 7.65625 
Q 5.515625 15.328125 5.515625 27.984375 
Q 5.515625 40.671875 11.671875 48.328125 
Q 17.828125 56 27.875 56 
Q 33.9375 56 38.28125 53.609375 
Q 42.625 51.21875 45.40625 46.390625 
L 45.40625 54.6875 
L 54.390625 54.6875 
z
" id="DejaVuSans-103"/>
      <path d="M 47.015625 60.890625 
L 29.5 51.421875 
L 47.015625 41.890625 
L 44.1875 37.109375 
L 27.78125 47.015625 
L 27.78125 28.609375 
L 22.21875 28.609375 
L 22.21875 47.015625 
L 5.8125 37.109375 
L 2.984375 41.890625 
L 20.515625 51.421875 
L 2.984375 60.890625 
L 5.8125 65.71875 
L 22.21875 55.8125 
L 22.21875 74.21875 
L 27.78125 74.21875 
L 27.78125 55.8125 
L 44.1875 65.71875 
z
" id="DejaVuSans-42"/>
     </defs>
     <g style="fill:#262626;" transform="translate(18.301875 201.40125)rotate(-90)scale(0.12 -0.12)">
      <use xlink:href="#DejaVuSans-205"/>
      <use x="29.492188" xlink:href="#DejaVuSans-110"/>
      <use x="92.871094" xlink:href="#DejaVuSans-100"/>
      <use x="156.347656" xlink:href="#DejaVuSans-105"/>
      <use x="184.130859" xlink:href="#DejaVuSans-99"/>
      <use x="239.111328" xlink:href="#DejaVuSans-101"/>
      <use x="300.634766" xlink:href="#DejaVuSans-32"/>
      <use x="332.421875" xlink:href="#DejaVuSans-100"/>
      <use x="395.898438" xlink:href="#DejaVuSans-101"/>
      <use x="457.421875" xlink:href="#DejaVuSans-32"/>
      <use x="489.208984" xlink:href="#DejaVuSans-114"/>
      <use x="530.322266" xlink:href="#DejaVuSans-105"/>
      <use x="558.105469" xlink:href="#DejaVuSans-103"/>
      <use x="621.582031" xlink:href="#DejaVuSans-111"/>
      <use x="682.763672" xlink:href="#DejaVuSans-114"/>
      <use x="723.845703" xlink:href="#DejaVuSans-111"/>
      <use x="785.027344" xlink:href="#DejaVuSans-115"/>
      <use x="837.126953" xlink:href="#DejaVuSans-105"/>
      <use x="864.910156" xlink:href="#DejaVuSans-100"/>
      <use x="928.386719" xlink:href="#DejaVuSans-97"/>
      <use x="989.666016" xlink:href="#DejaVuSans-100"/>
      <use x="1053.142578" xlink:href="#DejaVuSans-101"/>
      <use x="1114.666016" xlink:href="#DejaVuSans-42"/>
     </g>
    </g>
   </g>
   <g id="patch_3">
    <path clip-path="url(#p795dd272c0)" d="M 56.665 240.238125 
L 123.625 240.238125 
L 123.625 52.764562 
L 56.665 52.764562 
z
" style="fill:#5875a4;stroke:#ffffff;stroke-linejoin:miter;"/>
   </g>
   <g id="patch_4">
    <path clip-path="url(#p795dd272c0)" d="M 140.365 240.238125 
L 207.325 240.238125 
L 207.325 33.152411 
L 140.365 33.152411 
z
" style="fill:#cc8963;stroke:#ffffff;stroke-linejoin:miter;"/>
   </g>
   <g id="patch_5">
    <path clip-path="url(#p795dd272c0)" d="M 224.065 240.238125 
L 291.025 240.238125 
L 291.025 42.351922 
L 224.065 42.351922 
z
" style="fill:#5f9e6e;stroke:#ffffff;stroke-linejoin:miter;"/>
   </g>
   <g id="patch_6">
    <path clip-path="url(#p795dd272c0)" d="M 307.765 240.238125 
L 374.725 240.238125 
L 374.725 42.741979 
L 307.765 42.741979 
z
" style="fill:#b55d60;stroke:#ffffff;stroke-linejoin:miter;"/>
   </g>
   <g id="line2d_10">
    <path clip-path="url(#p795dd272c0)" d="M 0 0 
" style="fill:none;stroke:#424242;stroke-linecap:round;stroke-width:2.7;"/>
   </g>
   <g id="line2d_11">
    <path clip-path="url(#p795dd272c0)" d="M 0 0 
" style="fill:none;stroke:#424242;stroke-linecap:round;stroke-width:2.7;"/>
   </g>
   <g id="line2d_12">
    <path clip-path="url(#p795dd272c0)" d="M 0 0 
" style="fill:none;stroke:#424242;stroke-linecap:round;stroke-width:2.7;"/>
   </g>
   <g id="line2d_13">
    <path clip-path="url(#p795dd272c0)" d="M 0 0 
" style="fill:none;stroke:#424242;stroke-linecap:round;stroke-width:2.7;"/>
   </g>
   <g id="patch_7">
    <path d="M 48.295 240.238125 
L 48.295 22.798125 
" style="fill:none;stroke:#cccccc;stroke-linecap:square;stroke-linejoin:miter;stroke-width:1.25;"/>
   </g>
   <g id="patch_8">
    <path d="M 383.095 240.238125 
L 383.095 22.798125 
" style="fill:none;stroke:#cccccc;stroke-linecap:square;stroke-linejoin:miter;stroke-width:1.25;"/>
   </g>
   <g id="patch_9">
    <path d="M 48.295 240.238125 
L 383.095 240.238125 
" style="fill:none;stroke:#cccccc;stroke-linecap:square;stroke-linejoin:miter;stroke-width:1.25;"/>
   </g>
   <g id="patch_10">
    <path d="M 48.295 22.798125 
L 383.095 22.798125 
" style="fill:none;stroke:#cccccc;stroke-linecap:square;stroke-linejoin:miter;stroke-width:1.25;"/>
   </g>
   <g id="text_15">
    <!-- * Índice medindo o rigor das políticas de contenção dos  -->
    <defs>
     <path d="M 18.109375 8.203125 
L 18.109375 -20.796875 
L 9.078125 -20.796875 
L 9.078125 54.6875 
L 18.109375 54.6875 
L 18.109375 46.390625 
Q 20.953125 51.265625 25.265625 53.625 
Q 29.59375 56 35.59375 56 
Q 45.5625 56 51.78125 48.09375 
Q 58.015625 40.1875 58.015625 27.296875 
Q 58.015625 14.40625 51.78125 6.484375 
Q 45.5625 -1.421875 35.59375 -1.421875 
Q 29.59375 -1.421875 25.265625 0.953125 
Q 20.953125 3.328125 18.109375 8.203125 
z
M 48.6875 27.296875 
Q 48.6875 37.203125 44.609375 42.84375 
Q 40.53125 48.484375 33.40625 48.484375 
Q 26.265625 48.484375 22.1875 42.84375 
Q 18.109375 37.203125 18.109375 27.296875 
Q 18.109375 17.390625 22.1875 11.75 
Q 26.265625 6.109375 33.40625 6.109375 
Q 40.53125 6.109375 44.609375 11.75 
Q 48.6875 17.390625 48.6875 27.296875 
z
" id="DejaVuSans-112"/>
     <path d="M 18.3125 70.21875 
L 18.3125 54.6875 
L 36.8125 54.6875 
L 36.8125 47.703125 
L 18.3125 47.703125 
L 18.3125 18.015625 
Q 18.3125 11.328125 20.140625 9.421875 
Q 21.96875 7.515625 27.59375 7.515625 
L 36.8125 7.515625 
L 36.8125 0 
L 27.59375 0 
Q 17.1875 0 13.234375 3.875 
Q 9.28125 7.765625 9.28125 18.015625 
L 9.28125 47.703125 
L 2.6875 47.703125 
L 2.6875 54.6875 
L 9.28125 54.6875 
L 9.28125 70.21875 
z
" id="DejaVuSans-116"/>
     <path d="M 48.78125 52.59375 
L 48.78125 44.1875 
Q 44.96875 46.296875 41.140625 47.34375 
Q 37.3125 48.390625 33.40625 48.390625 
Q 24.65625 48.390625 19.8125 42.84375 
Q 14.984375 37.3125 14.984375 27.296875 
Q 14.984375 17.28125 19.8125 11.734375 
Q 24.65625 6.203125 33.40625 6.203125 
Q 37.3125 6.203125 41.140625 7.25 
Q 44.96875 8.296875 48.78125 10.40625 
L 48.78125 2.09375 
Q 45.015625 0.34375 40.984375 -0.53125 
Q 36.96875 -1.421875 32.421875 -1.421875 
Q 20.0625 -1.421875 12.78125 6.34375 
Q 5.515625 14.109375 5.515625 27.296875 
Q 5.515625 40.671875 12.859375 48.328125 
Q 20.21875 56 33.015625 56 
Q 37.15625 56 41.109375 55.140625 
Q 45.0625 54.296875 48.78125 52.59375 
z
M 36.109375 0 
Q 38.78125 -3.03125 40.09375 -5.59375 
Q 41.421875 -8.15625 41.421875 -10.5 
Q 41.421875 -14.84375 38.484375 -17.0625 
Q 35.5625 -19.28125 29.796875 -19.28125 
Q 27.5625 -19.28125 25.4375 -18.984375 
Q 23.3125 -18.703125 21.203125 -18.109375 
L 21.203125 -11.71875 
Q 22.875 -12.546875 24.671875 -12.90625 
Q 26.484375 -13.28125 28.78125 -13.28125 
Q 31.65625 -13.28125 33.125 -12.109375 
Q 34.59375 -10.9375 34.59375 -8.6875 
Q 34.59375 -7.234375 33.53125 -5.109375 
Q 32.484375 -2.984375 30.296875 0 
z
" id="DejaVuSans-231"/>
     <path d="M 34.28125 27.484375 
Q 23.390625 27.484375 19.1875 25 
Q 14.984375 22.515625 14.984375 16.5 
Q 14.984375 11.71875 18.140625 8.90625 
Q 21.296875 6.109375 26.703125 6.109375 
Q 34.1875 6.109375 38.703125 11.40625 
Q 43.21875 16.703125 43.21875 25.484375 
L 43.21875 27.484375 
z
M 52.203125 31.203125 
L 52.203125 0 
L 43.21875 0 
L 43.21875 8.296875 
Q 40.140625 3.328125 35.546875 0.953125 
Q 30.953125 -1.421875 24.3125 -1.421875 
Q 15.921875 -1.421875 10.953125 3.296875 
Q 6 8.015625 6 15.921875 
Q 6 25.140625 12.171875 29.828125 
Q 18.359375 34.515625 30.609375 34.515625 
L 43.21875 34.515625 
L 43.21875 35.40625 
Q 43.21875 41.609375 39.140625 45 
Q 35.0625 48.390625 27.6875 48.390625 
Q 23 48.390625 18.546875 47.265625 
Q 14.109375 46.140625 10.015625 43.890625 
L 10.015625 52.203125 
Q 14.9375 54.109375 19.578125 55.046875 
Q 24.21875 56 28.609375 56 
Q 40.484375 56 46.34375 49.84375 
Q 52.203125 43.703125 52.203125 31.203125 
z
M 28.8125 66.890625 
L 26.015625 69.578125 
Q 24.953125 70.5625 24.140625 71.015625 
Q 23.34375 71.484375 22.703125 71.484375 
Q 20.84375 71.484375 19.96875 69.703125 
Q 19.09375 67.921875 18.984375 63.921875 
L 12.890625 63.921875 
Q 12.984375 70.515625 15.46875 74.09375 
Q 17.96875 77.6875 22.40625 77.6875 
Q 24.265625 77.6875 25.828125 77 
Q 27.390625 76.3125 29.203125 74.703125 
L 31.984375 72.015625 
Q 33.046875 71.046875 33.859375 70.578125 
Q 34.671875 70.125 35.296875 70.125 
Q 37.15625 70.125 38.03125 71.90625 
Q 38.90625 73.6875 39.015625 77.6875 
L 45.109375 77.6875 
Q 45.015625 71.09375 42.515625 67.5 
Q 40.03125 63.921875 35.59375 63.921875 
Q 33.734375 63.921875 32.171875 64.59375 
Q 30.609375 65.28125 28.8125 66.890625 
z
" id="DejaVuSans-227"/>
    </defs>
    <g style="fill:#262626;" transform="translate(48.295 281.34)scale(0.12 -0.12)">
     <use xlink:href="#DejaVuSans-42"/>
     <use x="50" xlink:href="#DejaVuSans-32"/>
     <use x="81.787109" xlink:href="#DejaVuSans-205"/>
     <use x="111.279297" xlink:href="#DejaVuSans-110"/>
     <use x="174.658203" xlink:href="#DejaVuSans-100"/>
     <use x="238.134766" xlink:href="#DejaVuSans-105"/>
     <use x="265.917969" xlink:href="#DejaVuSans-99"/>
     <use x="320.898438" xlink:href="#DejaVuSans-101"/>
     <use x="382.421875" xlink:href="#DejaVuSans-32"/>
     <use x="414.208984" xlink:href="#DejaVuSans-109"/>
     <use x="511.621094" xlink:href="#DejaVuSans-101"/>
     <use x="573.144531" xlink:href="#DejaVuSans-100"/>
     <use x="636.621094" xlink:href="#DejaVuSans-105"/>
     <use x="664.404297" xlink:href="#DejaVuSans-110"/>
     <use x="727.783203" xlink:href="#DejaVuSans-100"/>
     <use x="791.259766" xlink:href="#DejaVuSans-111"/>
     <use x="852.441406" xlink:href="#DejaVuSans-32"/>
     <use x="884.228516" xlink:href="#DejaVuSans-111"/>
     <use x="945.410156" xlink:href="#DejaVuSans-32"/>
     <use x="977.197266" xlink:href="#DejaVuSans-114"/>
     <use x="1018.310547" xlink:href="#DejaVuSans-105"/>
     <use x="1046.09375" xlink:href="#DejaVuSans-103"/>
     <use x="1109.570312" xlink:href="#DejaVuSans-111"/>
     <use x="1170.751953" xlink:href="#DejaVuSans-114"/>
     <use x="1211.865234" xlink:href="#DejaVuSans-32"/>
     <use x="1243.652344" xlink:href="#DejaVuSans-100"/>
     <use x="1307.128906" xlink:href="#DejaVuSans-97"/>
     <use x="1368.408203" xlink:href="#DejaVuSans-115"/>
     <use x="1420.507812" xlink:href="#DejaVuSans-32"/>
     <use x="1452.294922" xlink:href="#DejaVuSans-112"/>
     <use x="1515.771484" xlink:href="#DejaVuSans-111"/>
     <use x="1576.953125" xlink:href="#DejaVuSans-108"/>
     <use x="1604.736328" xlink:href="#DejaVuSans-237"/>
     <use x="1632.519531" xlink:href="#DejaVuSans-116"/>
     <use x="1671.728516" xlink:href="#DejaVuSans-105"/>
     <use x="1699.511719" xlink:href="#DejaVuSans-99"/>
     <use x="1754.492188" xlink:href="#DejaVuSans-97"/>
     <use x="1815.771484" xlink:href="#DejaVuSans-115"/>
     <use x="1867.871094" xlink:href="#DejaVuSans-32"/>
     <use x="1899.658203" xlink:href="#DejaVuSans-100"/>
     <use x="1963.134766" xlink:href="#DejaVuSans-101"/>
     <use x="2024.658203" xlink:href="#DejaVuSans-32"/>
     <use x="2056.445312" xlink:href="#DejaVuSans-99"/>
     <use x="2111.425781" xlink:href="#DejaVuSans-111"/>
     <use x="2172.607422" xlink:href="#DejaVuSans-110"/>
     <use x="2235.986328" xlink:href="#DejaVuSans-116"/>
     <use x="2275.195312" xlink:href="#DejaVuSans-101"/>
     <use x="2336.71875" xlink:href="#DejaVuSans-110"/>
     <use x="2400.097656" xlink:href="#DejaVuSans-231"/>
     <use x="2455.078125" xlink:href="#DejaVuSans-227"/>
     <use x="2516.357422" xlink:href="#DejaVuSans-111"/>
     <use x="2577.539062" xlink:href="#DejaVuSans-32"/>
     <use x="2609.326172" xlink:href="#DejaVuSans-100"/>
     <use x="2672.802734" xlink:href="#DejaVuSans-111"/>
     <use x="2733.984375" xlink:href="#DejaVuSans-115"/>
     <use x="2786.083984" xlink:href="#DejaVuSans-32"/>
    </g>
    <!-- países, dados do Oxford COVID-19 Government  -->
    <defs>
     <path d="M 11.71875 12.40625 
L 22.015625 12.40625 
L 22.015625 4 
L 14.015625 -11.625 
L 7.71875 -11.625 
L 11.71875 4 
z
" id="DejaVuSans-44"/>
     <path d="M 39.40625 66.21875 
Q 28.65625 66.21875 22.328125 58.203125 
Q 16.015625 50.203125 16.015625 36.375 
Q 16.015625 22.609375 22.328125 14.59375 
Q 28.65625 6.59375 39.40625 6.59375 
Q 50.140625 6.59375 56.421875 14.59375 
Q 62.703125 22.609375 62.703125 36.375 
Q 62.703125 50.203125 56.421875 58.203125 
Q 50.140625 66.21875 39.40625 66.21875 
z
M 39.40625 74.21875 
Q 54.734375 74.21875 63.90625 63.9375 
Q 73.09375 53.65625 73.09375 36.375 
Q 73.09375 19.140625 63.90625 8.859375 
Q 54.734375 -1.421875 39.40625 -1.421875 
Q 24.03125 -1.421875 14.8125 8.828125 
Q 5.609375 19.09375 5.609375 36.375 
Q 5.609375 53.65625 14.8125 63.9375 
Q 24.03125 74.21875 39.40625 74.21875 
z
" id="DejaVuSans-79"/>
     <path d="M 54.890625 54.6875 
L 35.109375 28.078125 
L 55.90625 0 
L 45.3125 0 
L 29.390625 21.484375 
L 13.484375 0 
L 2.875 0 
L 24.125 28.609375 
L 4.6875 54.6875 
L 15.28125 54.6875 
L 29.78125 35.203125 
L 44.28125 54.6875 
z
" id="DejaVuSans-120"/>
     <path d="M 37.109375 75.984375 
L 37.109375 68.5 
L 28.515625 68.5 
Q 23.6875 68.5 21.796875 66.546875 
Q 19.921875 64.59375 19.921875 59.515625 
L 19.921875 54.6875 
L 34.71875 54.6875 
L 34.71875 47.703125 
L 19.921875 47.703125 
L 19.921875 0 
L 10.890625 0 
L 10.890625 47.703125 
L 2.296875 47.703125 
L 2.296875 54.6875 
L 10.890625 54.6875 
L 10.890625 58.5 
Q 10.890625 67.625 15.140625 71.796875 
Q 19.390625 75.984375 28.609375 75.984375 
z
" id="DejaVuSans-102"/>
     <path d="M 28.609375 0 
L 0.78125 72.90625 
L 11.078125 72.90625 
L 34.1875 11.53125 
L 57.328125 72.90625 
L 67.578125 72.90625 
L 39.796875 0 
z
" id="DejaVuSans-86"/>
     <path d="M 19.671875 64.796875 
L 19.671875 8.109375 
L 31.59375 8.109375 
Q 46.6875 8.109375 53.6875 14.9375 
Q 60.6875 21.78125 60.6875 36.53125 
Q 60.6875 51.171875 53.6875 57.984375 
Q 46.6875 64.796875 31.59375 64.796875 
z
M 9.8125 72.90625 
L 30.078125 72.90625 
Q 51.265625 72.90625 61.171875 64.09375 
Q 71.09375 55.28125 71.09375 36.53125 
Q 71.09375 17.671875 61.125 8.828125 
Q 51.171875 0 30.078125 0 
L 9.8125 0 
z
" id="DejaVuSans-68"/>
     <path d="M 4.890625 31.390625 
L 31.203125 31.390625 
L 31.203125 23.390625 
L 4.890625 23.390625 
z
" id="DejaVuSans-45"/>
     <path d="M 10.984375 1.515625 
L 10.984375 10.5 
Q 14.703125 8.734375 18.5 7.8125 
Q 22.3125 6.890625 25.984375 6.890625 
Q 35.75 6.890625 40.890625 13.453125 
Q 46.046875 20.015625 46.78125 33.40625 
Q 43.953125 29.203125 39.59375 26.953125 
Q 35.25 24.703125 29.984375 24.703125 
Q 19.046875 24.703125 12.671875 31.3125 
Q 6.296875 37.9375 6.296875 49.421875 
Q 6.296875 60.640625 12.9375 67.421875 
Q 19.578125 74.21875 30.609375 74.21875 
Q 43.265625 74.21875 49.921875 64.515625 
Q 56.59375 54.828125 56.59375 36.375 
Q 56.59375 19.140625 48.40625 8.859375 
Q 40.234375 -1.421875 26.421875 -1.421875 
Q 22.703125 -1.421875 18.890625 -0.6875 
Q 15.09375 0.046875 10.984375 1.515625 
z
M 30.609375 32.421875 
Q 37.25 32.421875 41.125 36.953125 
Q 45.015625 41.5 45.015625 49.421875 
Q 45.015625 57.28125 41.125 61.84375 
Q 37.25 66.40625 30.609375 66.40625 
Q 23.96875 66.40625 20.09375 61.84375 
Q 16.21875 57.28125 16.21875 49.421875 
Q 16.21875 41.5 20.09375 36.953125 
Q 23.96875 32.421875 30.609375 32.421875 
z
" id="DejaVuSans-57"/>
     <path d="M 59.515625 10.40625 
L 59.515625 29.984375 
L 43.40625 29.984375 
L 43.40625 38.09375 
L 69.28125 38.09375 
L 69.28125 6.78125 
Q 63.578125 2.734375 56.6875 0.65625 
Q 49.8125 -1.421875 42 -1.421875 
Q 24.90625 -1.421875 15.25 8.5625 
Q 5.609375 18.5625 5.609375 36.375 
Q 5.609375 54.25 15.25 64.234375 
Q 24.90625 74.21875 42 74.21875 
Q 49.125 74.21875 55.546875 72.453125 
Q 61.96875 70.703125 67.390625 67.28125 
L 67.390625 56.78125 
Q 61.921875 61.421875 55.765625 63.765625 
Q 49.609375 66.109375 42.828125 66.109375 
Q 29.4375 66.109375 22.71875 58.640625 
Q 16.015625 51.171875 16.015625 36.375 
Q 16.015625 21.625 22.71875 14.15625 
Q 29.4375 6.6875 42.828125 6.6875 
Q 48.046875 6.6875 52.140625 7.59375 
Q 56.25 8.5 59.515625 10.40625 
z
" id="DejaVuSans-71"/>
     <path d="M 2.984375 54.6875 
L 12.5 54.6875 
L 29.59375 8.796875 
L 46.6875 54.6875 
L 56.203125 54.6875 
L 35.6875 0 
L 23.484375 0 
z
" id="DejaVuSans-118"/>
    </defs>
    <g style="fill:#262626;" transform="translate(48.295 295.353375)scale(0.12 -0.12)">
     <use xlink:href="#DejaVuSans-112"/>
     <use x="63.476562" xlink:href="#DejaVuSans-97"/>
     <use x="124.755859" xlink:href="#DejaVuSans-237"/>
     <use x="152.539062" xlink:href="#DejaVuSans-115"/>
     <use x="204.638672" xlink:href="#DejaVuSans-101"/>
     <use x="266.162109" xlink:href="#DejaVuSans-115"/>
     <use x="318.261719" xlink:href="#DejaVuSans-44"/>
     <use x="350.048828" xlink:href="#DejaVuSans-32"/>
     <use x="381.835938" xlink:href="#DejaVuSans-100"/>
     <use x="445.3125" xlink:href="#DejaVuSans-97"/>
     <use x="506.591797" xlink:href="#DejaVuSans-100"/>
     <use x="570.068359" xlink:href="#DejaVuSans-111"/>
     <use x="631.25" xlink:href="#DejaVuSans-115"/>
     <use x="683.349609" xlink:href="#DejaVuSans-32"/>
     <use x="715.136719" xlink:href="#DejaVuSans-100"/>
     <use x="778.613281" xlink:href="#DejaVuSans-111"/>
     <use x="839.794922" xlink:href="#DejaVuSans-32"/>
     <use x="871.582031" xlink:href="#DejaVuSans-79"/>
     <use x="950.292969" xlink:href="#DejaVuSans-120"/>
     <use x="1009.472656" xlink:href="#DejaVuSans-102"/>
     <use x="1044.677734" xlink:href="#DejaVuSans-111"/>
     <use x="1105.859375" xlink:href="#DejaVuSans-114"/>
     <use x="1146.957031" xlink:href="#DejaVuSans-100"/>
     <use x="1210.433594" xlink:href="#DejaVuSans-32"/>
     <use x="1242.220703" xlink:href="#DejaVuSans-67"/>
     <use x="1312.044922" xlink:href="#DejaVuSans-79"/>
     <use x="1390.740234" xlink:href="#DejaVuSans-86"/>
     <use x="1459.148438" xlink:href="#DejaVuSans-73"/>
     <use x="1488.640625" xlink:href="#DejaVuSans-68"/>
     <use x="1565.642578" xlink:href="#DejaVuSans-45"/>
     <use x="1601.726562" xlink:href="#DejaVuSans-49"/>
     <use x="1665.349609" xlink:href="#DejaVuSans-57"/>
     <use x="1728.972656" xlink:href="#DejaVuSans-32"/>
     <use x="1760.759766" xlink:href="#DejaVuSans-71"/>
     <use x="1838.25" xlink:href="#DejaVuSans-111"/>
     <use x="1899.431641" xlink:href="#DejaVuSans-118"/>
     <use x="1958.611328" xlink:href="#DejaVuSans-101"/>
     <use x="2020.134766" xlink:href="#DejaVuSans-114"/>
     <use x="2061.232422" xlink:href="#DejaVuSans-110"/>
     <use x="2124.611328" xlink:href="#DejaVuSans-109"/>
     <use x="2222.023438" xlink:href="#DejaVuSans-101"/>
     <use x="2283.546875" xlink:href="#DejaVuSans-110"/>
     <use x="2346.925781" xlink:href="#DejaVuSans-116"/>
     <use x="2386.134766" xlink:href="#DejaVuSans-32"/>
    </g>
    <!-- Response Tracker. Média de valores sobre 7 dias  -->
    <defs>
     <path d="M -0.296875 72.90625 
L 61.375 72.90625 
L 61.375 64.59375 
L 35.5 64.59375 
L 35.5 0 
L 25.59375 0 
L 25.59375 64.59375 
L -0.296875 64.59375 
z
" id="DejaVuSans-84"/>
     <path d="M 9.078125 75.984375 
L 18.109375 75.984375 
L 18.109375 31.109375 
L 44.921875 54.6875 
L 56.390625 54.6875 
L 27.390625 29.109375 
L 57.625 0 
L 45.90625 0 
L 18.109375 26.703125 
L 18.109375 0 
L 9.078125 0 
z
" id="DejaVuSans-107"/>
     <path d="M 10.6875 12.40625 
L 21 12.40625 
L 21 0 
L 10.6875 0 
z
" id="DejaVuSans-46"/>
     <path d="M 56.203125 29.59375 
L 56.203125 25.203125 
L 14.890625 25.203125 
Q 15.484375 15.921875 20.484375 11.0625 
Q 25.484375 6.203125 34.421875 6.203125 
Q 39.59375 6.203125 44.453125 7.46875 
Q 49.3125 8.734375 54.109375 11.28125 
L 54.109375 2.78125 
Q 49.265625 0.734375 44.1875 -0.34375 
Q 39.109375 -1.421875 33.890625 -1.421875 
Q 20.796875 -1.421875 13.15625 6.1875 
Q 5.515625 13.8125 5.515625 26.8125 
Q 5.515625 40.234375 12.765625 48.109375 
Q 20.015625 56 32.328125 56 
Q 43.359375 56 49.78125 48.890625 
Q 56.203125 41.796875 56.203125 29.59375 
z
M 47.21875 32.234375 
Q 47.125 39.59375 43.09375 43.984375 
Q 39.0625 48.390625 32.421875 48.390625 
Q 24.90625 48.390625 20.390625 44.140625 
Q 15.875 39.890625 15.1875 32.171875 
z
M 38.53125 79.984375 
L 48.25 79.984375 
L 32.34375 61.625 
L 24.859375 61.625 
z
" id="DejaVuSans-233"/>
     <path d="M 48.6875 27.296875 
Q 48.6875 37.203125 44.609375 42.84375 
Q 40.53125 48.484375 33.40625 48.484375 
Q 26.265625 48.484375 22.1875 42.84375 
Q 18.109375 37.203125 18.109375 27.296875 
Q 18.109375 17.390625 22.1875 11.75 
Q 26.265625 6.109375 33.40625 6.109375 
Q 40.53125 6.109375 44.609375 11.75 
Q 48.6875 17.390625 48.6875 27.296875 
z
M 18.109375 46.390625 
Q 20.953125 51.265625 25.265625 53.625 
Q 29.59375 56 35.59375 56 
Q 45.5625 56 51.78125 48.09375 
Q 58.015625 40.1875 58.015625 27.296875 
Q 58.015625 14.40625 51.78125 6.484375 
Q 45.5625 -1.421875 35.59375 -1.421875 
Q 29.59375 -1.421875 25.265625 0.953125 
Q 20.953125 3.328125 18.109375 8.203125 
L 18.109375 0 
L 9.078125 0 
L 9.078125 75.984375 
L 18.109375 75.984375 
z
" id="DejaVuSans-98"/>
    </defs>
    <g style="fill:#262626;" transform="translate(48.295 309.36675)scale(0.12 -0.12)">
     <use xlink:href="#DejaVuSans-82"/>
     <use x="69.419922" xlink:href="#DejaVuSans-101"/>
     <use x="130.943359" xlink:href="#DejaVuSans-115"/>
     <use x="183.042969" xlink:href="#DejaVuSans-112"/>
     <use x="246.519531" xlink:href="#DejaVuSans-111"/>
     <use x="307.701172" xlink:href="#DejaVuSans-110"/>
     <use x="371.080078" xlink:href="#DejaVuSans-115"/>
     <use x="423.179688" xlink:href="#DejaVuSans-101"/>
     <use x="484.703125" xlink:href="#DejaVuSans-32"/>
     <use x="516.490234" xlink:href="#DejaVuSans-84"/>
     <use x="577.355469" xlink:href="#DejaVuSans-114"/>
     <use x="618.46875" xlink:href="#DejaVuSans-97"/>
     <use x="679.748047" xlink:href="#DejaVuSans-99"/>
     <use x="734.728516" xlink:href="#DejaVuSans-107"/>
     <use x="792.591797" xlink:href="#DejaVuSans-101"/>
     <use x="854.115234" xlink:href="#DejaVuSans-114"/>
     <use x="895.087891" xlink:href="#DejaVuSans-46"/>
     <use x="926.875" xlink:href="#DejaVuSans-32"/>
     <use x="958.662109" xlink:href="#DejaVuSans-77"/>
     <use x="1044.941406" xlink:href="#DejaVuSans-233"/>
     <use x="1106.464844" xlink:href="#DejaVuSans-100"/>
     <use x="1169.941406" xlink:href="#DejaVuSans-105"/>
     <use x="1197.724609" xlink:href="#DejaVuSans-97"/>
     <use x="1259.003906" xlink:href="#DejaVuSans-32"/>
     <use x="1290.791016" xlink:href="#DejaVuSans-100"/>
     <use x="1354.267578" xlink:href="#DejaVuSans-101"/>
     <use x="1415.791016" xlink:href="#DejaVuSans-32"/>
     <use x="1447.578125" xlink:href="#DejaVuSans-118"/>
     <use x="1506.757812" xlink:href="#DejaVuSans-97"/>
     <use x="1568.037109" xlink:href="#DejaVuSans-108"/>
     <use x="1595.820312" xlink:href="#DejaVuSans-111"/>
     <use x="1657.001953" xlink:href="#DejaVuSans-114"/>
     <use x="1698.083984" xlink:href="#DejaVuSans-101"/>
     <use x="1759.607422" xlink:href="#DejaVuSans-115"/>
     <use x="1811.707031" xlink:href="#DejaVuSans-32"/>
     <use x="1843.494141" xlink:href="#DejaVuSans-115"/>
     <use x="1895.59375" xlink:href="#DejaVuSans-111"/>
     <use x="1956.775391" xlink:href="#DejaVuSans-98"/>
     <use x="2020.251953" xlink:href="#DejaVuSans-114"/>
     <use x="2061.333984" xlink:href="#DejaVuSans-101"/>
     <use x="2122.857422" xlink:href="#DejaVuSans-32"/>
     <use x="2154.644531" xlink:href="#DejaVuSans-55"/>
     <use x="2218.267578" xlink:href="#DejaVuSans-32"/>
     <use x="2250.054688" xlink:href="#DejaVuSans-100"/>
     <use x="2313.53125" xlink:href="#DejaVuSans-105"/>
     <use x="2341.314453" xlink:href="#DejaVuSans-97"/>
     <use x="2402.59375" xlink:href="#DejaVuSans-115"/>
     <use x="2454.693359" xlink:href="#DejaVuSans-32"/>
    </g>
    <!-- a partir da 5a morte em cada país. -->
    <g style="fill:#262626;" transform="translate(48.295 323.380125)scale(0.12 -0.12)">
     <use xlink:href="#DejaVuSans-97"/>
     <use x="61.279297" xlink:href="#DejaVuSans-32"/>
     <use x="93.066406" xlink:href="#DejaVuSans-112"/>
     <use x="156.542969" xlink:href="#DejaVuSans-97"/>
     <use x="217.822266" xlink:href="#DejaVuSans-114"/>
     <use x="258.935547" xlink:href="#DejaVuSans-116"/>
     <use x="298.144531" xlink:href="#DejaVuSans-105"/>
     <use x="325.927734" xlink:href="#DejaVuSans-114"/>
     <use x="367.041016" xlink:href="#DejaVuSans-32"/>
     <use x="398.828125" xlink:href="#DejaVuSans-100"/>
     <use x="462.304688" xlink:href="#DejaVuSans-97"/>
     <use x="523.583984" xlink:href="#DejaVuSans-32"/>
     <use x="555.371094" xlink:href="#DejaVuSans-53"/>
     <use x="618.994141" xlink:href="#DejaVuSans-97"/>
     <use x="680.273438" xlink:href="#DejaVuSans-32"/>
     <use x="712.060547" xlink:href="#DejaVuSans-109"/>
     <use x="809.472656" xlink:href="#DejaVuSans-111"/>
     <use x="870.654297" xlink:href="#DejaVuSans-114"/>
     <use x="911.767578" xlink:href="#DejaVuSans-116"/>
     <use x="950.976562" xlink:href="#DejaVuSans-101"/>
     <use x="1012.5" xlink:href="#DejaVuSans-32"/>
     <use x="1044.287109" xlink:href="#DejaVuSans-101"/>
     <use x="1105.810547" xlink:href="#DejaVuSans-109"/>
     <use x="1203.222656" xlink:href="#DejaVuSans-32"/>
     <use x="1235.009766" xlink:href="#DejaVuSans-99"/>
     <use x="1289.990234" xlink:href="#DejaVuSans-97"/>
     <use x="1351.269531" xlink:href="#DejaVuSans-100"/>
     <use x="1414.746094" xlink:href="#DejaVuSans-97"/>
     <use x="1476.025391" xlink:href="#DejaVuSans-32"/>
     <use x="1507.8125" xlink:href="#DejaVuSans-112"/>
     <use x="1571.289062" xlink:href="#DejaVuSans-97"/>
     <use x="1632.568359" xlink:href="#DejaVuSans-237"/>
     <use x="1660.351562" xlink:href="#DejaVuSans-115"/>
     <use x="1712.451172" xlink:href="#DejaVuSans-46"/>
    </g>
   </g>
   <g id="text_16">
    <!-- Rigorosidade de políticas no início da epidemia -->
    <g style="fill:#262626;" transform="translate(73.996563 16.798125)scale(0.12 -0.12)">
     <use xlink:href="#DejaVuSans-82"/>
     <use x="69.482422" xlink:href="#DejaVuSans-105"/>
     <use x="97.265625" xlink:href="#DejaVuSans-103"/>
     <use x="160.742188" xlink:href="#DejaVuSans-111"/>
     <use x="221.923828" xlink:href="#DejaVuSans-114"/>
     <use x="263.005859" xlink:href="#DejaVuSans-111"/>
     <use x="324.1875" xlink:href="#DejaVuSans-115"/>
     <use x="376.287109" xlink:href="#DejaVuSans-105"/>
     <use x="404.070312" xlink:href="#DejaVuSans-100"/>
     <use x="467.546875" xlink:href="#DejaVuSans-97"/>
     <use x="528.826172" xlink:href="#DejaVuSans-100"/>
     <use x="592.302734" xlink:href="#DejaVuSans-101"/>
     <use x="653.826172" xlink:href="#DejaVuSans-32"/>
     <use x="685.613281" xlink:href="#DejaVuSans-100"/>
     <use x="749.089844" xlink:href="#DejaVuSans-101"/>
     <use x="810.613281" xlink:href="#DejaVuSans-32"/>
     <use x="842.400391" xlink:href="#DejaVuSans-112"/>
     <use x="905.876953" xlink:href="#DejaVuSans-111"/>
     <use x="967.058594" xlink:href="#DejaVuSans-108"/>
     <use x="994.841797" xlink:href="#DejaVuSans-237"/>
     <use x="1022.625" xlink:href="#DejaVuSans-116"/>
     <use x="1061.833984" xlink:href="#DejaVuSans-105"/>
     <use x="1089.617188" xlink:href="#DejaVuSans-99"/>
     <use x="1144.597656" xlink:href="#DejaVuSans-97"/>
     <use x="1205.876953" xlink:href="#DejaVuSans-115"/>
     <use x="1257.976562" xlink:href="#DejaVuSans-32"/>
     <use x="1289.763672" xlink:href="#DejaVuSans-110"/>
     <use x="1353.142578" xlink:href="#DejaVuSans-111"/>
     <use x="1414.324219" xlink:href="#DejaVuSans-32"/>
     <use x="1446.111328" xlink:href="#DejaVuSans-105"/>
     <use x="1473.894531" xlink:href="#DejaVuSans-110"/>
     <use x="1537.273438" xlink:href="#DejaVuSans-237"/>
     <use x="1565.056641" xlink:href="#DejaVuSans-99"/>
     <use x="1620.037109" xlink:href="#DejaVuSans-105"/>
     <use x="1647.820312" xlink:href="#DejaVuSans-111"/>
     <use x="1709.001953" xlink:href="#DejaVuSans-32"/>
     <use x="1740.789062" xlink:href="#DejaVuSans-100"/>
     <use x="1804.265625" xlink:href="#DejaVuSans-97"/>
     <use x="1865.544922" xlink:href="#DejaVuSans-32"/>
     <use x="1897.332031" xlink:href="#DejaVuSans-101"/>
     <use x="1958.855469" xlink:href="#DejaVuSans-112"/>
     <use x="2022.332031" xlink:href="#DejaVuSans-105"/>
     <use x="2050.115234" xlink:href="#DejaVuSans-100"/>
     <use x="2113.591797" xlink:href="#DejaVuSans-101"/>
     <use x="2175.115234" xlink:href="#DejaVuSans-109"/>
     <use x="2272.527344" xlink:href="#DejaVuSans-105"/>
     <use x="2300.310547" xlink:href="#DejaVuSans-97"/>
    </g>
   </g>
  </g>
 </g>
 <defs>
  <clipPath id="p795dd272c0">
   <rect height="217.44" width="334.8" x="48.295" y="22.798125"/>
  </clipPath>
 </defs>
</svg>
