<?xml version="1.0" encoding="utf-8" standalone="no"?>
<!DOCTYPE svg PUBLIC "-//W3C//DTD SVG 1.1//EN"
  "http://www.w3.org/Graphics/SVG/1.1/DTD/svg11.dtd">
<!-- Created with matplotlib (https://matplotlib.org/) -->
<svg height="528.067125pt" version="1.1" viewBox="0 0 616.430908 528.067125" width="616.430908pt" xmlns="http://www.w3.org/2000/svg" xmlns:xlink="http://www.w3.org/1999/xlink">
 <defs>
  <style type="text/css">
*{stroke-linecap:butt;stroke-linejoin:round;white-space:pre;}
  </style>
 </defs>
 <g id="figure_1">
  <g id="patch_1">
   <path d="M 0 528.067125 
L 616.430908 528.067125 
L 616.430908 0 
L 0 0 
z
" style="fill:#ffffff;"/>
  </g>
  <g id="axes_1">
   <g id="patch_2">
    <path d="M 46.515625 438.12 
L 604.515625 438.12 
L 604.515625 57.6 
L 46.515625 57.6 
z
" style="fill:#eaeaf2;"/>
   </g>
   <g id="matplotlib.axis_1">
    <g id="xtick_1">
     <g id="line2d_1">
      <path clip-path="url(#pd46974951b)" d="M 109.173609 438.12 
L 109.173609 57.6 
" style="fill:none;stroke:#ffffff;stroke-linecap:round;"/>
     </g>
     <g id="text_1">
      <!-- −10 -->
      <defs>
       <path d="M 10.59375 35.5 
L 73.1875 35.5 
L 73.1875 27.203125 
L 10.59375 27.203125 
z
" id="DejaVuSans-8722"/>
       <path d="M 12.40625 8.296875 
L 28.515625 8.296875 
L 28.515625 63.921875 
L 10.984375 60.40625 
L 10.984375 69.390625 
L 28.421875 72.90625 
L 38.28125 72.90625 
L 38.28125 8.296875 
L 54.390625 8.296875 
L 54.390625 0 
L 12.40625 0 
z
" id="DejaVuSans-49"/>
       <path d="M 31.78125 66.40625 
Q 24.171875 66.40625 20.328125 58.90625 
Q 16.5 51.421875 16.5 36.375 
Q 16.5 21.390625 20.328125 13.890625 
Q 24.171875 6.390625 31.78125 6.390625 
Q 39.453125 6.390625 43.28125 13.890625 
Q 47.125 21.390625 47.125 36.375 
Q 47.125 51.421875 43.28125 58.90625 
Q 39.453125 66.40625 31.78125 66.40625 
z
M 31.78125 74.21875 
Q 44.046875 74.21875 50.515625 64.515625 
Q 56.984375 54.828125 56.984375 36.375 
Q 56.984375 17.96875 50.515625 8.265625 
Q 44.046875 -1.421875 31.78125 -1.421875 
Q 19.53125 -1.421875 13.0625 8.265625 
Q 6.59375 17.96875 6.59375 36.375 
Q 6.59375 54.828125 13.0625 64.515625 
Q 19.53125 74.21875 31.78125 74.21875 
z
" id="DejaVuSans-48"/>
      </defs>
      <g style="fill:#262626;" transform="translate(97.566031 455.978281)scale(0.11 -0.11)">
       <use xlink:href="#DejaVuSans-8722"/>
       <use x="83.789062" xlink:href="#DejaVuSans-49"/>
       <use x="147.412109" xlink:href="#DejaVuSans-48"/>
      </g>
     </g>
    </g>
    <g id="xtick_2">
     <g id="line2d_2">
      <path clip-path="url(#pd46974951b)" d="M 179.610544 438.12 
L 179.610544 57.6 
" style="fill:none;stroke:#ffffff;stroke-linecap:round;"/>
     </g>
     <g id="text_2">
      <!-- 0 -->
      <g style="fill:#262626;" transform="translate(176.111169 455.978281)scale(0.11 -0.11)">
       <use xlink:href="#DejaVuSans-48"/>
      </g>
     </g>
    </g>
    <g id="xtick_3">
     <g id="line2d_3">
      <path clip-path="url(#pd46974951b)" d="M 250.04748 438.12 
L 250.04748 57.6 
" style="fill:none;stroke:#ffffff;stroke-linecap:round;"/>
     </g>
     <g id="text_3">
      <!-- 10 -->
      <g style="fill:#262626;" transform="translate(243.04873 455.978281)scale(0.11 -0.11)">
       <use xlink:href="#DejaVuSans-49"/>
       <use x="63.623047" xlink:href="#DejaVuSans-48"/>
      </g>
     </g>
    </g>
    <g id="xtick_4">
     <g id="line2d_4">
      <path clip-path="url(#pd46974951b)" d="M 320.484415 438.12 
L 320.484415 57.6 
" style="fill:none;stroke:#ffffff;stroke-linecap:round;"/>
     </g>
     <g id="text_4">
      <!-- 20 -->
      <defs>
       <path d="M 19.1875 8.296875 
L 53.609375 8.296875 
L 53.609375 0 
L 7.328125 0 
L 7.328125 8.296875 
Q 12.9375 14.109375 22.625 23.890625 
Q 32.328125 33.6875 34.8125 36.53125 
Q 39.546875 41.84375 41.421875 45.53125 
Q 43.3125 49.21875 43.3125 52.78125 
Q 43.3125 58.59375 39.234375 62.25 
Q 35.15625 65.921875 28.609375 65.921875 
Q 23.96875 65.921875 18.8125 64.3125 
Q 13.671875 62.703125 7.8125 59.421875 
L 7.8125 69.390625 
Q 13.765625 71.78125 18.9375 73 
Q 24.125 74.21875 28.421875 74.21875 
Q 39.75 74.21875 46.484375 68.546875 
Q 53.21875 62.890625 53.21875 53.421875 
Q 53.21875 48.921875 51.53125 44.890625 
Q 49.859375 40.875 45.40625 35.40625 
Q 44.1875 33.984375 37.640625 27.21875 
Q 31.109375 20.453125 19.1875 8.296875 
z
" id="DejaVuSans-50"/>
      </defs>
      <g style="fill:#262626;" transform="translate(313.485665 455.978281)scale(0.11 -0.11)">
       <use xlink:href="#DejaVuSans-50"/>
       <use x="63.623047" xlink:href="#DejaVuSans-48"/>
      </g>
     </g>
    </g>
    <g id="xtick_5">
     <g id="line2d_5">
      <path clip-path="url(#pd46974951b)" d="M 390.921351 438.12 
L 390.921351 57.6 
" style="fill:none;stroke:#ffffff;stroke-linecap:round;"/>
     </g>
     <g id="text_5">
      <!-- 30 -->
      <defs>
       <path d="M 40.578125 39.3125 
Q 47.65625 37.796875 51.625 33 
Q 55.609375 28.21875 55.609375 21.1875 
Q 55.609375 10.40625 48.1875 4.484375 
Q 40.765625 -1.421875 27.09375 -1.421875 
Q 22.515625 -1.421875 17.65625 -0.515625 
Q 12.796875 0.390625 7.625 2.203125 
L 7.625 11.71875 
Q 11.71875 9.328125 16.59375 8.109375 
Q 21.484375 6.890625 26.8125 6.890625 
Q 36.078125 6.890625 40.9375 10.546875 
Q 45.796875 14.203125 45.796875 21.1875 
Q 45.796875 27.640625 41.28125 31.265625 
Q 36.765625 34.90625 28.71875 34.90625 
L 20.21875 34.90625 
L 20.21875 43.015625 
L 29.109375 43.015625 
Q 36.375 43.015625 40.234375 45.921875 
Q 44.09375 48.828125 44.09375 54.296875 
Q 44.09375 59.90625 40.109375 62.90625 
Q 36.140625 65.921875 28.71875 65.921875 
Q 24.65625 65.921875 20.015625 65.03125 
Q 15.375 64.15625 9.8125 62.3125 
L 9.8125 71.09375 
Q 15.4375 72.65625 20.34375 73.4375 
Q 25.25 74.21875 29.59375 74.21875 
Q 40.828125 74.21875 47.359375 69.109375 
Q 53.90625 64.015625 53.90625 55.328125 
Q 53.90625 49.265625 50.4375 45.09375 
Q 46.96875 40.921875 40.578125 39.3125 
z
" id="DejaVuSans-51"/>
      </defs>
      <g style="fill:#262626;" transform="translate(383.922601 455.978281)scale(0.11 -0.11)">
       <use xlink:href="#DejaVuSans-51"/>
       <use x="63.623047" xlink:href="#DejaVuSans-48"/>
      </g>
     </g>
    </g>
    <g id="xtick_6">
     <g id="line2d_6">
      <path clip-path="url(#pd46974951b)" d="M 461.358286 438.12 
L 461.358286 57.6 
" style="fill:none;stroke:#ffffff;stroke-linecap:round;"/>
     </g>
     <g id="text_6">
      <!-- 40 -->
      <defs>
       <path d="M 37.796875 64.3125 
L 12.890625 25.390625 
L 37.796875 25.390625 
z
M 35.203125 72.90625 
L 47.609375 72.90625 
L 47.609375 25.390625 
L 58.015625 25.390625 
L 58.015625 17.1875 
L 47.609375 17.1875 
L 47.609375 0 
L 37.796875 0 
L 37.796875 17.1875 
L 4.890625 17.1875 
L 4.890625 26.703125 
z
" id="DejaVuSans-52"/>
      </defs>
      <g style="fill:#262626;" transform="translate(454.359536 455.978281)scale(0.11 -0.11)">
       <use xlink:href="#DejaVuSans-52"/>
       <use x="63.623047" xlink:href="#DejaVuSans-48"/>
      </g>
     </g>
    </g>
    <g id="xtick_7">
     <g id="line2d_7">
      <path clip-path="url(#pd46974951b)" d="M 531.795222 438.12 
L 531.795222 57.6 
" style="fill:none;stroke:#ffffff;stroke-linecap:round;"/>
     </g>
     <g id="text_7">
      <!-- 50 -->
      <defs>
       <path d="M 10.796875 72.90625 
L 49.515625 72.90625 
L 49.515625 64.59375 
L 19.828125 64.59375 
L 19.828125 46.734375 
Q 21.96875 47.46875 24.109375 47.828125 
Q 26.265625 48.1875 28.421875 48.1875 
Q 40.625 48.1875 47.75 41.5 
Q 54.890625 34.8125 54.890625 23.390625 
Q 54.890625 11.625 47.5625 5.09375 
Q 40.234375 -1.421875 26.90625 -1.421875 
Q 22.3125 -1.421875 17.546875 -0.640625 
Q 12.796875 0.140625 7.71875 1.703125 
L 7.71875 11.625 
Q 12.109375 9.234375 16.796875 8.0625 
Q 21.484375 6.890625 26.703125 6.890625 
Q 35.15625 6.890625 40.078125 11.328125 
Q 45.015625 15.765625 45.015625 23.390625 
Q 45.015625 31 40.078125 35.4375 
Q 35.15625 39.890625 26.703125 39.890625 
Q 22.75 39.890625 18.8125 39.015625 
Q 14.890625 38.140625 10.796875 36.28125 
z
" id="DejaVuSans-53"/>
      </defs>
      <g style="fill:#262626;" transform="translate(524.796472 455.978281)scale(0.11 -0.11)">
       <use xlink:href="#DejaVuSans-53"/>
       <use x="63.623047" xlink:href="#DejaVuSans-48"/>
      </g>
     </g>
    </g>
    <g id="xtick_8">
     <g id="line2d_8">
      <path clip-path="url(#pd46974951b)" d="M 602.232158 438.12 
L 602.232158 57.6 
" style="fill:none;stroke:#ffffff;stroke-linecap:round;"/>
     </g>
     <g id="text_8">
      <!-- 60 -->
      <defs>
       <path d="M 33.015625 40.375 
Q 26.375 40.375 22.484375 35.828125 
Q 18.609375 31.296875 18.609375 23.390625 
Q 18.609375 15.53125 22.484375 10.953125 
Q 26.375 6.390625 33.015625 6.390625 
Q 39.65625 6.390625 43.53125 10.953125 
Q 47.40625 15.53125 47.40625 23.390625 
Q 47.40625 31.296875 43.53125 35.828125 
Q 39.65625 40.375 33.015625 40.375 
z
M 52.59375 71.296875 
L 52.59375 62.3125 
Q 48.875 64.0625 45.09375 64.984375 
Q 41.3125 65.921875 37.59375 65.921875 
Q 27.828125 65.921875 22.671875 59.328125 
Q 17.53125 52.734375 16.796875 39.40625 
Q 19.671875 43.65625 24.015625 45.921875 
Q 28.375 48.1875 33.59375 48.1875 
Q 44.578125 48.1875 50.953125 41.515625 
Q 57.328125 34.859375 57.328125 23.390625 
Q 57.328125 12.15625 50.6875 5.359375 
Q 44.046875 -1.421875 33.015625 -1.421875 
Q 20.359375 -1.421875 13.671875 8.265625 
Q 6.984375 17.96875 6.984375 36.375 
Q 6.984375 53.65625 15.1875 63.9375 
Q 23.390625 74.21875 37.203125 74.21875 
Q 40.921875 74.21875 44.703125 73.484375 
Q 48.484375 72.75 52.59375 71.296875 
z
" id="DejaVuSans-54"/>
      </defs>
      <g style="fill:#262626;" transform="translate(595.233408 455.978281)scale(0.11 -0.11)">
       <use xlink:href="#DejaVuSans-54"/>
       <use x="63.623047" xlink:href="#DejaVuSans-48"/>
      </g>
     </g>
    </g>
    <g id="text_9">
     <!-- Redução em mobilidade (percentual)** -->
     <defs>
      <path d="M 44.390625 34.1875 
Q 47.5625 33.109375 50.5625 29.59375 
Q 53.5625 26.078125 56.59375 19.921875 
L 66.609375 0 
L 56 0 
L 46.6875 18.703125 
Q 43.0625 26.03125 39.671875 28.421875 
Q 36.28125 30.8125 30.421875 30.8125 
L 19.671875 30.8125 
L 19.671875 0 
L 9.8125 0 
L 9.8125 72.90625 
L 32.078125 72.90625 
Q 44.578125 72.90625 50.734375 67.671875 
Q 56.890625 62.453125 56.890625 51.90625 
Q 56.890625 45.015625 53.6875 40.46875 
Q 50.484375 35.9375 44.390625 34.1875 
z
M 19.671875 64.796875 
L 19.671875 38.921875 
L 32.078125 38.921875 
Q 39.203125 38.921875 42.84375 42.21875 
Q 46.484375 45.515625 46.484375 51.90625 
Q 46.484375 58.296875 42.84375 61.546875 
Q 39.203125 64.796875 32.078125 64.796875 
z
" id="DejaVuSans-82"/>
      <path d="M 56.203125 29.59375 
L 56.203125 25.203125 
L 14.890625 25.203125 
Q 15.484375 15.921875 20.484375 11.0625 
Q 25.484375 6.203125 34.421875 6.203125 
Q 39.59375 6.203125 44.453125 7.46875 
Q 49.3125 8.734375 54.109375 11.28125 
L 54.109375 2.78125 
Q 49.265625 0.734375 44.1875 -0.34375 
Q 39.109375 -1.421875 33.890625 -1.421875 
Q 20.796875 -1.421875 13.15625 6.1875 
Q 5.515625 13.8125 5.515625 26.8125 
Q 5.515625 40.234375 12.765625 48.109375 
Q 20.015625 56 32.328125 56 
Q 43.359375 56 49.78125 48.890625 
Q 56.203125 41.796875 56.203125 29.59375 
z
M 47.21875 32.234375 
Q 47.125 39.59375 43.09375 43.984375 
Q 39.0625 48.390625 32.421875 48.390625 
Q 24.90625 48.390625 20.390625 44.140625 
Q 15.875 39.890625 15.1875 32.171875 
z
" id="DejaVuSans-101"/>
      <path d="M 45.40625 46.390625 
L 45.40625 75.984375 
L 54.390625 75.984375 
L 54.390625 0 
L 45.40625 0 
L 45.40625 8.203125 
Q 42.578125 3.328125 38.25 0.953125 
Q 33.9375 -1.421875 27.875 -1.421875 
Q 17.96875 -1.421875 11.734375 6.484375 
Q 5.515625 14.40625 5.515625 27.296875 
Q 5.515625 40.1875 11.734375 48.09375 
Q 17.96875 56 27.875 56 
Q 33.9375 56 38.25 53.625 
Q 42.578125 51.265625 45.40625 46.390625 
z
M 14.796875 27.296875 
Q 14.796875 17.390625 18.875 11.75 
Q 22.953125 6.109375 30.078125 6.109375 
Q 37.203125 6.109375 41.296875 11.75 
Q 45.40625 17.390625 45.40625 27.296875 
Q 45.40625 37.203125 41.296875 42.84375 
Q 37.203125 48.484375 30.078125 48.484375 
Q 22.953125 48.484375 18.875 42.84375 
Q 14.796875 37.203125 14.796875 27.296875 
z
" id="DejaVuSans-100"/>
      <path d="M 8.5 21.578125 
L 8.5 54.6875 
L 17.484375 54.6875 
L 17.484375 21.921875 
Q 17.484375 14.15625 20.5 10.265625 
Q 23.53125 6.390625 29.59375 6.390625 
Q 36.859375 6.390625 41.078125 11.03125 
Q 45.3125 15.671875 45.3125 23.6875 
L 45.3125 54.6875 
L 54.296875 54.6875 
L 54.296875 0 
L 45.3125 0 
L 45.3125 8.40625 
Q 42.046875 3.421875 37.71875 1 
Q 33.40625 -1.421875 27.6875 -1.421875 
Q 18.265625 -1.421875 13.375 4.4375 
Q 8.5 10.296875 8.5 21.578125 
z
M 31.109375 56 
z
" id="DejaVuSans-117"/>
      <path d="M 48.78125 52.59375 
L 48.78125 44.1875 
Q 44.96875 46.296875 41.140625 47.34375 
Q 37.3125 48.390625 33.40625 48.390625 
Q 24.65625 48.390625 19.8125 42.84375 
Q 14.984375 37.3125 14.984375 27.296875 
Q 14.984375 17.28125 19.8125 11.734375 
Q 24.65625 6.203125 33.40625 6.203125 
Q 37.3125 6.203125 41.140625 7.25 
Q 44.96875 8.296875 48.78125 10.40625 
L 48.78125 2.09375 
Q 45.015625 0.34375 40.984375 -0.53125 
Q 36.96875 -1.421875 32.421875 -1.421875 
Q 20.0625 -1.421875 12.78125 6.34375 
Q 5.515625 14.109375 5.515625 27.296875 
Q 5.515625 40.671875 12.859375 48.328125 
Q 20.21875 56 33.015625 56 
Q 37.15625 56 41.109375 55.140625 
Q 45.0625 54.296875 48.78125 52.59375 
z
M 36.109375 0 
Q 38.78125 -3.03125 40.09375 -5.59375 
Q 41.421875 -8.15625 41.421875 -10.5 
Q 41.421875 -14.84375 38.484375 -17.0625 
Q 35.5625 -19.28125 29.796875 -19.28125 
Q 27.5625 -19.28125 25.4375 -18.984375 
Q 23.3125 -18.703125 21.203125 -18.109375 
L 21.203125 -11.71875 
Q 22.875 -12.546875 24.671875 -12.90625 
Q 26.484375 -13.28125 28.78125 -13.28125 
Q 31.65625 -13.28125 33.125 -12.109375 
Q 34.59375 -10.9375 34.59375 -8.6875 
Q 34.59375 -7.234375 33.53125 -5.109375 
Q 32.484375 -2.984375 30.296875 0 
z
" id="DejaVuSans-231"/>
      <path d="M 34.28125 27.484375 
Q 23.390625 27.484375 19.1875 25 
Q 14.984375 22.515625 14.984375 16.5 
Q 14.984375 11.71875 18.140625 8.90625 
Q 21.296875 6.109375 26.703125 6.109375 
Q 34.1875 6.109375 38.703125 11.40625 
Q 43.21875 16.703125 43.21875 25.484375 
L 43.21875 27.484375 
z
M 52.203125 31.203125 
L 52.203125 0 
L 43.21875 0 
L 43.21875 8.296875 
Q 40.140625 3.328125 35.546875 0.953125 
Q 30.953125 -1.421875 24.3125 -1.421875 
Q 15.921875 -1.421875 10.953125 3.296875 
Q 6 8.015625 6 15.921875 
Q 6 25.140625 12.171875 29.828125 
Q 18.359375 34.515625 30.609375 34.515625 
L 43.21875 34.515625 
L 43.21875 35.40625 
Q 43.21875 41.609375 39.140625 45 
Q 35.0625 48.390625 27.6875 48.390625 
Q 23 48.390625 18.546875 47.265625 
Q 14.109375 46.140625 10.015625 43.890625 
L 10.015625 52.203125 
Q 14.9375 54.109375 19.578125 55.046875 
Q 24.21875 56 28.609375 56 
Q 40.484375 56 46.34375 49.84375 
Q 52.203125 43.703125 52.203125 31.203125 
z
M 28.8125 66.890625 
L 26.015625 69.578125 
Q 24.953125 70.5625 24.140625 71.015625 
Q 23.34375 71.484375 22.703125 71.484375 
Q 20.84375 71.484375 19.96875 69.703125 
Q 19.09375 67.921875 18.984375 63.921875 
L 12.890625 63.921875 
Q 12.984375 70.515625 15.46875 74.09375 
Q 17.96875 77.6875 22.40625 77.6875 
Q 24.265625 77.6875 25.828125 77 
Q 27.390625 76.3125 29.203125 74.703125 
L 31.984375 72.015625 
Q 33.046875 71.046875 33.859375 70.578125 
Q 34.671875 70.125 35.296875 70.125 
Q 37.15625 70.125 38.03125 71.90625 
Q 38.90625 73.6875 39.015625 77.6875 
L 45.109375 77.6875 
Q 45.015625 71.09375 42.515625 67.5 
Q 40.03125 63.921875 35.59375 63.921875 
Q 33.734375 63.921875 32.171875 64.59375 
Q 30.609375 65.28125 28.8125 66.890625 
z
" id="DejaVuSans-227"/>
      <path d="M 30.609375 48.390625 
Q 23.390625 48.390625 19.1875 42.75 
Q 14.984375 37.109375 14.984375 27.296875 
Q 14.984375 17.484375 19.15625 11.84375 
Q 23.34375 6.203125 30.609375 6.203125 
Q 37.796875 6.203125 41.984375 11.859375 
Q 46.1875 17.53125 46.1875 27.296875 
Q 46.1875 37.015625 41.984375 42.703125 
Q 37.796875 48.390625 30.609375 48.390625 
z
M 30.609375 56 
Q 42.328125 56 49.015625 48.375 
Q 55.71875 40.765625 55.71875 27.296875 
Q 55.71875 13.875 49.015625 6.21875 
Q 42.328125 -1.421875 30.609375 -1.421875 
Q 18.84375 -1.421875 12.171875 6.21875 
Q 5.515625 13.875 5.515625 27.296875 
Q 5.515625 40.765625 12.171875 48.375 
Q 18.84375 56 30.609375 56 
z
" id="DejaVuSans-111"/>
      <path id="DejaVuSans-32"/>
      <path d="M 52 44.1875 
Q 55.375 50.25 60.0625 53.125 
Q 64.75 56 71.09375 56 
Q 79.640625 56 84.28125 50.015625 
Q 88.921875 44.046875 88.921875 33.015625 
L 88.921875 0 
L 79.890625 0 
L 79.890625 32.71875 
Q 79.890625 40.578125 77.09375 44.375 
Q 74.3125 48.1875 68.609375 48.1875 
Q 61.625 48.1875 57.5625 43.546875 
Q 53.515625 38.921875 53.515625 30.90625 
L 53.515625 0 
L 44.484375 0 
L 44.484375 32.71875 
Q 44.484375 40.625 41.703125 44.40625 
Q 38.921875 48.1875 33.109375 48.1875 
Q 26.21875 48.1875 22.15625 43.53125 
Q 18.109375 38.875 18.109375 30.90625 
L 18.109375 0 
L 9.078125 0 
L 9.078125 54.6875 
L 18.109375 54.6875 
L 18.109375 46.1875 
Q 21.1875 51.21875 25.484375 53.609375 
Q 29.78125 56 35.6875 56 
Q 41.65625 56 45.828125 52.96875 
Q 50 49.953125 52 44.1875 
z
" id="DejaVuSans-109"/>
      <path d="M 48.6875 27.296875 
Q 48.6875 37.203125 44.609375 42.84375 
Q 40.53125 48.484375 33.40625 48.484375 
Q 26.265625 48.484375 22.1875 42.84375 
Q 18.109375 37.203125 18.109375 27.296875 
Q 18.109375 17.390625 22.1875 11.75 
Q 26.265625 6.109375 33.40625 6.109375 
Q 40.53125 6.109375 44.609375 11.75 
Q 48.6875 17.390625 48.6875 27.296875 
z
M 18.109375 46.390625 
Q 20.953125 51.265625 25.265625 53.625 
Q 29.59375 56 35.59375 56 
Q 45.5625 56 51.78125 48.09375 
Q 58.015625 40.1875 58.015625 27.296875 
Q 58.015625 14.40625 51.78125 6.484375 
Q 45.5625 -1.421875 35.59375 -1.421875 
Q 29.59375 -1.421875 25.265625 0.953125 
Q 20.953125 3.328125 18.109375 8.203125 
L 18.109375 0 
L 9.078125 0 
L 9.078125 75.984375 
L 18.109375 75.984375 
z
" id="DejaVuSans-98"/>
      <path d="M 9.421875 54.6875 
L 18.40625 54.6875 
L 18.40625 0 
L 9.421875 0 
z
M 9.421875 75.984375 
L 18.40625 75.984375 
L 18.40625 64.59375 
L 9.421875 64.59375 
z
" id="DejaVuSans-105"/>
      <path d="M 9.421875 75.984375 
L 18.40625 75.984375 
L 18.40625 0 
L 9.421875 0 
z
" id="DejaVuSans-108"/>
      <path d="M 34.28125 27.484375 
Q 23.390625 27.484375 19.1875 25 
Q 14.984375 22.515625 14.984375 16.5 
Q 14.984375 11.71875 18.140625 8.90625 
Q 21.296875 6.109375 26.703125 6.109375 
Q 34.1875 6.109375 38.703125 11.40625 
Q 43.21875 16.703125 43.21875 25.484375 
L 43.21875 27.484375 
z
M 52.203125 31.203125 
L 52.203125 0 
L 43.21875 0 
L 43.21875 8.296875 
Q 40.140625 3.328125 35.546875 0.953125 
Q 30.953125 -1.421875 24.3125 -1.421875 
Q 15.921875 -1.421875 10.953125 3.296875 
Q 6 8.015625 6 15.921875 
Q 6 25.140625 12.171875 29.828125 
Q 18.359375 34.515625 30.609375 34.515625 
L 43.21875 34.515625 
L 43.21875 35.40625 
Q 43.21875 41.609375 39.140625 45 
Q 35.0625 48.390625 27.6875 48.390625 
Q 23 48.390625 18.546875 47.265625 
Q 14.109375 46.140625 10.015625 43.890625 
L 10.015625 52.203125 
Q 14.9375 54.109375 19.578125 55.046875 
Q 24.21875 56 28.609375 56 
Q 40.484375 56 46.34375 49.84375 
Q 52.203125 43.703125 52.203125 31.203125 
z
" id="DejaVuSans-97"/>
      <path d="M 31 75.875 
Q 24.46875 64.65625 21.28125 53.65625 
Q 18.109375 42.671875 18.109375 31.390625 
Q 18.109375 20.125 21.3125 9.0625 
Q 24.515625 -2 31 -13.1875 
L 23.1875 -13.1875 
Q 15.875 -1.703125 12.234375 9.375 
Q 8.59375 20.453125 8.59375 31.390625 
Q 8.59375 42.28125 12.203125 53.3125 
Q 15.828125 64.359375 23.1875 75.875 
z
" id="DejaVuSans-40"/>
      <path d="M 18.109375 8.203125 
L 18.109375 -20.796875 
L 9.078125 -20.796875 
L 9.078125 54.6875 
L 18.109375 54.6875 
L 18.109375 46.390625 
Q 20.953125 51.265625 25.265625 53.625 
Q 29.59375 56 35.59375 56 
Q 45.5625 56 51.78125 48.09375 
Q 58.015625 40.1875 58.015625 27.296875 
Q 58.015625 14.40625 51.78125 6.484375 
Q 45.5625 -1.421875 35.59375 -1.421875 
Q 29.59375 -1.421875 25.265625 0.953125 
Q 20.953125 3.328125 18.109375 8.203125 
z
M 48.6875 27.296875 
Q 48.6875 37.203125 44.609375 42.84375 
Q 40.53125 48.484375 33.40625 48.484375 
Q 26.265625 48.484375 22.1875 42.84375 
Q 18.109375 37.203125 18.109375 27.296875 
Q 18.109375 17.390625 22.1875 11.75 
Q 26.265625 6.109375 33.40625 6.109375 
Q 40.53125 6.109375 44.609375 11.75 
Q 48.6875 17.390625 48.6875 27.296875 
z
" id="DejaVuSans-112"/>
      <path d="M 41.109375 46.296875 
Q 39.59375 47.171875 37.8125 47.578125 
Q 36.03125 48 33.890625 48 
Q 26.265625 48 22.1875 43.046875 
Q 18.109375 38.09375 18.109375 28.8125 
L 18.109375 0 
L 9.078125 0 
L 9.078125 54.6875 
L 18.109375 54.6875 
L 18.109375 46.1875 
Q 20.953125 51.171875 25.484375 53.578125 
Q 30.03125 56 36.53125 56 
Q 37.453125 56 38.578125 55.875 
Q 39.703125 55.765625 41.0625 55.515625 
z
" id="DejaVuSans-114"/>
      <path d="M 48.78125 52.59375 
L 48.78125 44.1875 
Q 44.96875 46.296875 41.140625 47.34375 
Q 37.3125 48.390625 33.40625 48.390625 
Q 24.65625 48.390625 19.8125 42.84375 
Q 14.984375 37.3125 14.984375 27.296875 
Q 14.984375 17.28125 19.8125 11.734375 
Q 24.65625 6.203125 33.40625 6.203125 
Q 37.3125 6.203125 41.140625 7.25 
Q 44.96875 8.296875 48.78125 10.40625 
L 48.78125 2.09375 
Q 45.015625 0.34375 40.984375 -0.53125 
Q 36.96875 -1.421875 32.421875 -1.421875 
Q 20.0625 -1.421875 12.78125 6.34375 
Q 5.515625 14.109375 5.515625 27.296875 
Q 5.515625 40.671875 12.859375 48.328125 
Q 20.21875 56 33.015625 56 
Q 37.15625 56 41.109375 55.140625 
Q 45.0625 54.296875 48.78125 52.59375 
z
" id="DejaVuSans-99"/>
      <path d="M 54.890625 33.015625 
L 54.890625 0 
L 45.90625 0 
L 45.90625 32.71875 
Q 45.90625 40.484375 42.875 44.328125 
Q 39.84375 48.1875 33.796875 48.1875 
Q 26.515625 48.1875 22.3125 43.546875 
Q 18.109375 38.921875 18.109375 30.90625 
L 18.109375 0 
L 9.078125 0 
L 9.078125 54.6875 
L 18.109375 54.6875 
L 18.109375 46.1875 
Q 21.34375 51.125 25.703125 53.5625 
Q 30.078125 56 35.796875 56 
Q 45.21875 56 50.046875 50.171875 
Q 54.890625 44.34375 54.890625 33.015625 
z
" id="DejaVuSans-110"/>
      <path d="M 18.3125 70.21875 
L 18.3125 54.6875 
L 36.8125 54.6875 
L 36.8125 47.703125 
L 18.3125 47.703125 
L 18.3125 18.015625 
Q 18.3125 11.328125 20.140625 9.421875 
Q 21.96875 7.515625 27.59375 7.515625 
L 36.8125 7.515625 
L 36.8125 0 
L 27.59375 0 
Q 17.1875 0 13.234375 3.875 
Q 9.28125 7.765625 9.28125 18.015625 
L 9.28125 47.703125 
L 2.6875 47.703125 
L 2.6875 54.6875 
L 9.28125 54.6875 
L 9.28125 70.21875 
z
" id="DejaVuSans-116"/>
      <path d="M 8.015625 75.875 
L 15.828125 75.875 
Q 23.140625 64.359375 26.78125 53.3125 
Q 30.421875 42.28125 30.421875 31.390625 
Q 30.421875 20.453125 26.78125 9.375 
Q 23.140625 -1.703125 15.828125 -13.1875 
L 8.015625 -13.1875 
Q 14.5 -2 17.703125 9.0625 
Q 20.90625 20.125 20.90625 31.390625 
Q 20.90625 42.671875 17.703125 53.65625 
Q 14.5 64.65625 8.015625 75.875 
z
" id="DejaVuSans-41"/>
      <path d="M 47.015625 60.890625 
L 29.5 51.421875 
L 47.015625 41.890625 
L 44.1875 37.109375 
L 27.78125 47.015625 
L 27.78125 28.609375 
L 22.21875 28.609375 
L 22.21875 47.015625 
L 5.8125 37.109375 
L 2.984375 41.890625 
L 20.515625 51.421875 
L 2.984375 60.890625 
L 5.8125 65.71875 
L 22.21875 55.8125 
L 22.21875 74.21875 
L 27.78125 74.21875 
L 27.78125 55.8125 
L 44.1875 65.71875 
z
" id="DejaVuSans-42"/>
     </defs>
     <g style="fill:#262626;" transform="translate(207.89125 471.588437)scale(0.12 -0.12)">
      <use xlink:href="#DejaVuSans-82"/>
      <use x="69.419922" xlink:href="#DejaVuSans-101"/>
      <use x="130.943359" xlink:href="#DejaVuSans-100"/>
      <use x="194.419922" xlink:href="#DejaVuSans-117"/>
      <use x="257.798828" xlink:href="#DejaVuSans-231"/>
      <use x="312.779297" xlink:href="#DejaVuSans-227"/>
      <use x="374.058594" xlink:href="#DejaVuSans-111"/>
      <use x="435.240234" xlink:href="#DejaVuSans-32"/>
      <use x="467.027344" xlink:href="#DejaVuSans-101"/>
      <use x="528.550781" xlink:href="#DejaVuSans-109"/>
      <use x="625.962891" xlink:href="#DejaVuSans-32"/>
      <use x="657.75" xlink:href="#DejaVuSans-109"/>
      <use x="755.162109" xlink:href="#DejaVuSans-111"/>
      <use x="816.34375" xlink:href="#DejaVuSans-98"/>
      <use x="879.820312" xlink:href="#DejaVuSans-105"/>
      <use x="907.603516" xlink:href="#DejaVuSans-108"/>
      <use x="935.386719" xlink:href="#DejaVuSans-105"/>
      <use x="963.169922" xlink:href="#DejaVuSans-100"/>
      <use x="1026.646484" xlink:href="#DejaVuSans-97"/>
      <use x="1087.925781" xlink:href="#DejaVuSans-100"/>
      <use x="1151.402344" xlink:href="#DejaVuSans-101"/>
      <use x="1212.925781" xlink:href="#DejaVuSans-32"/>
      <use x="1244.712891" xlink:href="#DejaVuSans-40"/>
      <use x="1283.726562" xlink:href="#DejaVuSans-112"/>
      <use x="1347.203125" xlink:href="#DejaVuSans-101"/>
      <use x="1408.726562" xlink:href="#DejaVuSans-114"/>
      <use x="1449.808594" xlink:href="#DejaVuSans-99"/>
      <use x="1504.789062" xlink:href="#DejaVuSans-101"/>
      <use x="1566.3125" xlink:href="#DejaVuSans-110"/>
      <use x="1629.691406" xlink:href="#DejaVuSans-116"/>
      <use x="1668.900391" xlink:href="#DejaVuSans-117"/>
      <use x="1732.279297" xlink:href="#DejaVuSans-97"/>
      <use x="1793.558594" xlink:href="#DejaVuSans-108"/>
      <use x="1821.341797" xlink:href="#DejaVuSans-41"/>
      <use x="1860.355469" xlink:href="#DejaVuSans-42"/>
      <use x="1910.355469" xlink:href="#DejaVuSans-42"/>
     </g>
    </g>
   </g>
   <g id="matplotlib.axis_2">
    <g id="ytick_1">
     <g id="line2d_9">
      <path clip-path="url(#pd46974951b)" d="M 46.515625 416.940062 
L 604.515625 416.940062 
" style="fill:none;stroke:#ffffff;stroke-linecap:round;"/>
     </g>
     <g id="text_10">
      <!-- 0 -->
      <g style="fill:#262626;" transform="translate(30.016875 421.119203)scale(0.11 -0.11)">
       <use xlink:href="#DejaVuSans-48"/>
      </g>
     </g>
    </g>
    <g id="ytick_2">
     <g id="line2d_10">
      <path clip-path="url(#pd46974951b)" d="M 46.515625 337.922985 
L 604.515625 337.922985 
" style="fill:none;stroke:#ffffff;stroke-linecap:round;"/>
     </g>
     <g id="text_11">
      <!-- 5 -->
      <g style="fill:#262626;" transform="translate(30.016875 342.102126)scale(0.11 -0.11)">
       <use xlink:href="#DejaVuSans-53"/>
      </g>
     </g>
    </g>
    <g id="ytick_3">
     <g id="line2d_11">
      <path clip-path="url(#pd46974951b)" d="M 46.515625 258.905908 
L 604.515625 258.905908 
" style="fill:none;stroke:#ffffff;stroke-linecap:round;"/>
     </g>
     <g id="text_12">
      <!-- 10 -->
      <g style="fill:#262626;" transform="translate(23.018125 263.085049)scale(0.11 -0.11)">
       <use xlink:href="#DejaVuSans-49"/>
       <use x="63.623047" xlink:href="#DejaVuSans-48"/>
      </g>
     </g>
    </g>
    <g id="ytick_4">
     <g id="line2d_12">
      <path clip-path="url(#pd46974951b)" d="M 46.515625 179.888831 
L 604.515625 179.888831 
" style="fill:none;stroke:#ffffff;stroke-linecap:round;"/>
     </g>
     <g id="text_13">
      <!-- 15 -->
      <g style="fill:#262626;" transform="translate(23.018125 184.067972)scale(0.11 -0.11)">
       <use xlink:href="#DejaVuSans-49"/>
       <use x="63.623047" xlink:href="#DejaVuSans-53"/>
      </g>
     </g>
    </g>
    <g id="ytick_5">
     <g id="line2d_13">
      <path clip-path="url(#pd46974951b)" d="M 46.515625 100.871754 
L 604.515625 100.871754 
" style="fill:none;stroke:#ffffff;stroke-linecap:round;"/>
     </g>
     <g id="text_14">
      <!-- 20 -->
      <g style="fill:#262626;" transform="translate(23.018125 105.050895)scale(0.11 -0.11)">
       <use xlink:href="#DejaVuSans-50"/>
       <use x="63.623047" xlink:href="#DejaVuSans-48"/>
      </g>
     </g>
    </g>
    <g id="text_15">
     <!-- Redução em CLI (percentual)* -->
     <defs>
      <path d="M 64.40625 67.28125 
L 64.40625 56.890625 
Q 59.421875 61.53125 53.78125 63.8125 
Q 48.140625 66.109375 41.796875 66.109375 
Q 29.296875 66.109375 22.65625 58.46875 
Q 16.015625 50.828125 16.015625 36.375 
Q 16.015625 21.96875 22.65625 14.328125 
Q 29.296875 6.6875 41.796875 6.6875 
Q 48.140625 6.6875 53.78125 8.984375 
Q 59.421875 11.28125 64.40625 15.921875 
L 64.40625 5.609375 
Q 59.234375 2.09375 53.4375 0.328125 
Q 47.65625 -1.421875 41.21875 -1.421875 
Q 24.65625 -1.421875 15.125 8.703125 
Q 5.609375 18.84375 5.609375 36.375 
Q 5.609375 53.953125 15.125 64.078125 
Q 24.65625 74.21875 41.21875 74.21875 
Q 47.75 74.21875 53.53125 72.484375 
Q 59.328125 70.75 64.40625 67.28125 
z
" id="DejaVuSans-67"/>
      <path d="M 9.8125 72.90625 
L 19.671875 72.90625 
L 19.671875 8.296875 
L 55.171875 8.296875 
L 55.171875 0 
L 9.8125 0 
z
" id="DejaVuSans-76"/>
      <path d="M 9.8125 72.90625 
L 19.671875 72.90625 
L 19.671875 0 
L 9.8125 0 
z
" id="DejaVuSans-73"/>
     </defs>
     <g style="fill:#262626;" transform="translate(16.5225 338.475)rotate(-90)scale(0.12 -0.12)">
      <use xlink:href="#DejaVuSans-82"/>
      <use x="69.419922" xlink:href="#DejaVuSans-101"/>
      <use x="130.943359" xlink:href="#DejaVuSans-100"/>
      <use x="194.419922" xlink:href="#DejaVuSans-117"/>
      <use x="257.798828" xlink:href="#DejaVuSans-231"/>
      <use x="312.779297" xlink:href="#DejaVuSans-227"/>
      <use x="374.058594" xlink:href="#DejaVuSans-111"/>
      <use x="435.240234" xlink:href="#DejaVuSans-32"/>
      <use x="467.027344" xlink:href="#DejaVuSans-101"/>
      <use x="528.550781" xlink:href="#DejaVuSans-109"/>
      <use x="625.962891" xlink:href="#DejaVuSans-32"/>
      <use x="657.75" xlink:href="#DejaVuSans-67"/>
      <use x="727.574219" xlink:href="#DejaVuSans-76"/>
      <use x="783.287109" xlink:href="#DejaVuSans-73"/>
      <use x="812.779297" xlink:href="#DejaVuSans-32"/>
      <use x="844.566406" xlink:href="#DejaVuSans-40"/>
      <use x="883.580078" xlink:href="#DejaVuSans-112"/>
      <use x="947.056641" xlink:href="#DejaVuSans-101"/>
      <use x="1008.580078" xlink:href="#DejaVuSans-114"/>
      <use x="1049.662109" xlink:href="#DejaVuSans-99"/>
      <use x="1104.642578" xlink:href="#DejaVuSans-101"/>
      <use x="1166.166016" xlink:href="#DejaVuSans-110"/>
      <use x="1229.544922" xlink:href="#DejaVuSans-116"/>
      <use x="1268.753906" xlink:href="#DejaVuSans-117"/>
      <use x="1332.132812" xlink:href="#DejaVuSans-97"/>
      <use x="1393.412109" xlink:href="#DejaVuSans-108"/>
      <use x="1421.195312" xlink:href="#DejaVuSans-41"/>
      <use x="1460.208984" xlink:href="#DejaVuSans-42"/>
     </g>
    </g>
   </g>
   <g id="PathCollection_1">
    <defs>
     <path d="M 0 3 
C 0.795609 3 1.55874 2.683901 2.12132 2.12132 
C 2.683901 1.55874 3 0.795609 3 0 
C 3 -0.795609 2.683901 -1.55874 2.12132 -2.12132 
C 1.55874 -2.683901 0.795609 -3 0 -3 
C -0.795609 -3 -1.55874 -2.683901 -2.12132 -2.12132 
C -2.683901 -1.55874 -3 -0.795609 -3 0 
C -3 0.795609 -2.683901 1.55874 -2.12132 2.12132 
C -1.55874 2.683901 -0.795609 3 0 3 
z
" id="m73b6e37e9f" style="stroke:#4c72b0;stroke-opacity:0.8;"/>
    </defs>
    <g clip-path="url(#pd46974951b)">
     <use style="fill:#4c72b0;fill-opacity:0.8;stroke:#4c72b0;stroke-opacity:0.8;" x="249.041238" xlink:href="#m73b6e37e9f" y="420.761858"/>
     <use style="fill:#4c72b0;fill-opacity:0.8;stroke:#4c72b0;stroke-opacity:0.8;" x="293.315883" xlink:href="#m73b6e37e9f" y="418.135533"/>
     <use style="fill:#4c72b0;fill-opacity:0.8;stroke:#4c72b0;stroke-opacity:0.8;" x="386.896383" xlink:href="#m73b6e37e9f" y="406.199607"/>
     <use style="fill:#4c72b0;fill-opacity:0.8;stroke:#4c72b0;stroke-opacity:0.8;" x="153.448254" xlink:href="#m73b6e37e9f" y="402.944098"/>
     <use style="fill:#4c72b0;fill-opacity:0.8;stroke:#4c72b0;stroke-opacity:0.8;" x="232.941367" xlink:href="#m73b6e37e9f" y="392.932944"/>
     <use style="fill:#4c72b0;fill-opacity:0.8;stroke:#4c72b0;stroke-opacity:0.8;" x="208.79156" xlink:href="#m73b6e37e9f" y="392.701605"/>
     <use style="fill:#4c72b0;fill-opacity:0.8;stroke:#4c72b0;stroke-opacity:0.8;" x="324.509383" xlink:href="#m73b6e37e9f" y="386.964896"/>
     <use style="fill:#4c72b0;fill-opacity:0.8;stroke:#4c72b0;stroke-opacity:0.8;" x="132.317173" xlink:href="#m73b6e37e9f" y="386.480897"/>
     <use style="fill:#4c72b0;fill-opacity:0.8;stroke:#4c72b0;stroke-opacity:0.8;" x="211.810286" xlink:href="#m73b6e37e9f" y="382.368008"/>
     <use style="fill:#4c72b0;fill-opacity:0.8;stroke:#4c72b0;stroke-opacity:0.8;" x="234.953851" xlink:href="#m73b6e37e9f" y="378.440108"/>
     <use style="fill:#4c72b0;fill-opacity:0.8;stroke:#4c72b0;stroke-opacity:0.8;" x="299.353335" xlink:href="#m73b6e37e9f" y="377.426289"/>
     <use style="fill:#4c72b0;fill-opacity:0.8;stroke:#4c72b0;stroke-opacity:0.8;" x="321.490657" xlink:href="#m73b6e37e9f" y="373.638884"/>
     <use style="fill:#4c72b0;fill-opacity:0.8;stroke:#4c72b0;stroke-opacity:0.8;" x="316.459448" xlink:href="#m73b6e37e9f" y="366.32319"/>
     <use style="fill:#4c72b0;fill-opacity:0.8;stroke:#4c72b0;stroke-opacity:0.8;" x="557.957512" xlink:href="#m73b6e37e9f" y="360.857107"/>
     <use style="fill:#4c72b0;fill-opacity:0.8;stroke:#4c72b0;stroke-opacity:0.8;" x="371.802754" xlink:href="#m73b6e37e9f" y="359.613749"/>
     <use style="fill:#4c72b0;fill-opacity:0.8;stroke:#4c72b0;stroke-opacity:0.8;" x="198.729141" xlink:href="#m73b6e37e9f" y="357.35275"/>
     <use style="fill:#4c72b0;fill-opacity:0.8;stroke:#4c72b0;stroke-opacity:0.8;" x="445.258415" xlink:href="#m73b6e37e9f" y="355.835376"/>
     <use style="fill:#4c72b0;fill-opacity:0.8;stroke:#4c72b0;stroke-opacity:0.8;" x="579.088593" xlink:href="#m73b6e37e9f" y="351.971311"/>
     <use style="fill:#4c72b0;fill-opacity:0.8;stroke:#4c72b0;stroke-opacity:0.8;" x="158.479464" xlink:href="#m73b6e37e9f" y="349.540068"/>
     <use style="fill:#4c72b0;fill-opacity:0.8;stroke:#4c72b0;stroke-opacity:0.8;" x="454.314593" xlink:href="#m73b6e37e9f" y="346.577486"/>
     <use style="fill:#4c72b0;fill-opacity:0.8;stroke:#4c72b0;stroke-opacity:0.8;" x="328.534351" xlink:href="#m73b6e37e9f" y="340.89032"/>
     <use style="fill:#4c72b0;fill-opacity:0.8;stroke:#4c72b0;stroke-opacity:0.8;" x="94.07998" xlink:href="#m73b6e37e9f" y="336.096705"/>
     <use style="fill:#4c72b0;fill-opacity:0.8;stroke:#4c72b0;stroke-opacity:0.8;" x="164.516915" xlink:href="#m73b6e37e9f" y="332.910992"/>
     <use style="fill:#4c72b0;fill-opacity:0.8;stroke:#4c72b0;stroke-opacity:0.8;" x="360.734093" xlink:href="#m73b6e37e9f" y="331.216368"/>
     <use style="fill:#4c72b0;fill-opacity:0.8;stroke:#4c72b0;stroke-opacity:0.8;" x="103.136157" xlink:href="#m73b6e37e9f" y="327.438062"/>
     <use style="fill:#4c72b0;fill-opacity:0.8;stroke:#4c72b0;stroke-opacity:0.8;" x="71.942657" xlink:href="#m73b6e37e9f" y="326.465214"/>
     <use style="fill:#4c72b0;fill-opacity:0.8;stroke:#4c72b0;stroke-opacity:0.8;" x="492.551786" xlink:href="#m73b6e37e9f" y="295.820475"/>
     <use style="fill:#4c72b0;fill-opacity:0.8;stroke:#4c72b0;stroke-opacity:0.8;" x="349.665431" xlink:href="#m73b6e37e9f" y="288.108654"/>
     <use style="fill:#4c72b0;fill-opacity:0.8;stroke:#4c72b0;stroke-opacity:0.8;" x="362.746577" xlink:href="#m73b6e37e9f" y="283.314225"/>
     <use style="fill:#4c72b0;fill-opacity:0.8;stroke:#4c72b0;stroke-opacity:0.8;" x="314.446964" xlink:href="#m73b6e37e9f" y="279.692191"/>
     <use style="fill:#4c72b0;fill-opacity:0.8;stroke:#4c72b0;stroke-opacity:0.8;" x="97.098705" xlink:href="#m73b6e37e9f" y="278.550223"/>
     <use style="fill:#4c72b0;fill-opacity:0.8;stroke:#4c72b0;stroke-opacity:0.8;" x="307.40327" xlink:href="#m73b6e37e9f" y="74.958142"/>
    </g>
   </g>
   <g id="PolyCollection_1">
    <defs>
     <path d="M 46.515625 -208.074099 
L 46.515625 -142.901021 
L 52.151989 -143.395292 
L 57.788352 -143.834969 
L 63.424716 -144.502651 
L 69.06108 -145.034233 
L 74.697443 -145.760312 
L 80.333807 -146.256242 
L 85.97017 -146.825996 
L 91.606534 -147.505131 
L 97.242898 -148.127022 
L 102.879261 -148.486003 
L 108.515625 -148.845907 
L 114.151989 -149.294654 
L 119.788352 -149.827456 
L 125.424716 -150.357055 
L 131.06108 -150.890583 
L 136.697443 -151.438146 
L 142.333807 -152.032028 
L 147.97017 -152.641285 
L 153.606534 -153.224504 
L 159.242898 -153.820137 
L 164.879261 -154.478847 
L 170.515625 -155.14743 
L 176.151989 -155.893894 
L 181.788352 -156.484596 
L 187.424716 -157.007355 
L 193.06108 -157.379587 
L 198.697443 -157.738019 
L 204.333807 -158.193758 
L 209.97017 -158.373768 
L 215.606534 -158.866386 
L 221.242898 -159.399949 
L 226.879261 -159.894458 
L 232.515625 -160.463703 
L 238.151989 -160.997776 
L 243.788352 -161.56227 
L 249.424716 -162.056681 
L 255.06108 -162.579037 
L 260.697443 -162.515873 
L 266.333807 -163.056109 
L 271.97017 -163.134056 
L 277.606534 -163.268169 
L 283.242898 -163.267305 
L 288.879261 -163.7356 
L 294.515625 -164.259735 
L 300.151989 -164.104086 
L 305.788352 -163.941072 
L 311.424716 -163.605164 
L 317.06108 -163.885387 
L 322.697443 -163.759895 
L 328.333807 -163.906182 
L 333.97017 -164.05362 
L 339.606534 -164.199184 
L 345.242898 -164.023247 
L 350.879261 -164.076907 
L 356.515625 -164.001327 
L 362.151989 -163.892583 
L 367.788352 -163.624492 
L 373.424716 -163.540481 
L 379.06108 -163.59947 
L 384.697443 -163.664403 
L 390.333807 -163.599157 
L 395.97017 -163.555401 
L 401.606534 -163.294679 
L 407.242898 -162.7534 
L 412.879261 -162.753965 
L 418.515625 -162.572908 
L 424.151989 -162.205354 
L 429.788352 -161.8378 
L 435.424716 -161.473528 
L 441.06108 -161.114583 
L 446.697443 -160.816885 
L 452.333807 -160.60388 
L 457.97017 -160.245651 
L 463.606534 -159.865117 
L 469.242898 -159.484583 
L 474.879261 -159.108164 
L 480.515625 -158.882188 
L 486.151989 -158.689352 
L 491.788352 -158.575127 
L 497.424716 -158.304842 
L 503.06108 -158.110843 
L 508.697443 -157.918006 
L 514.333807 -157.746192 
L 519.97017 -157.535604 
L 525.606534 -157.33616 
L 531.242898 -157.139969 
L 536.879261 -156.939624 
L 542.515625 -156.73928 
L 548.151989 -156.439188 
L 553.788352 -156.038769 
L 559.424716 -155.63835 
L 565.06108 -155.237931 
L 570.697443 -154.85025 
L 576.333807 -154.642753 
L 581.97017 -154.437398 
L 587.606534 -154.234649 
L 593.242898 -154.0319 
L 598.879261 -153.829151 
L 604.515625 -153.626402 
L 604.515625 -238.712851 
L 604.515625 -238.712851 
L 598.879261 -237.922604 
L 593.242898 -237.202108 
L 587.606534 -236.481611 
L 581.97017 -235.757851 
L 576.333807 -234.908575 
L 570.697443 -234.059299 
L 565.06108 -233.210024 
L 559.424716 -232.356685 
L 553.788352 -231.50265 
L 548.151989 -230.916408 
L 542.515625 -230.022028 
L 536.879261 -229.563735 
L 531.242898 -229.169134 
L 525.606534 -228.59485 
L 519.97017 -227.886011 
L 514.333807 -227.177173 
L 508.697443 -226.464611 
L 503.06108 -225.746559 
L 497.424716 -225.023774 
L 491.788352 -224.298277 
L 486.151989 -223.57278 
L 480.515625 -222.62026 
L 474.879261 -221.575985 
L 469.242898 -221.246648 
L 463.606534 -220.710924 
L 457.97017 -220.09695 
L 452.333807 -219.610152 
L 446.697443 -219.124086 
L 441.06108 -218.642974 
L 435.424716 -218.16371 
L 429.788352 -217.319814 
L 424.151989 -216.747093 
L 418.515625 -216.033379 
L 412.879261 -215.522111 
L 407.242898 -215.14378 
L 401.606534 -214.765448 
L 395.97017 -214.478173 
L 390.333807 -214.32871 
L 384.697443 -213.728715 
L 379.06108 -213.36421 
L 373.424716 -212.852618 
L 367.788352 -212.405 
L 362.151989 -212.096389 
L 356.515625 -211.701241 
L 350.879261 -211.036545 
L 345.242898 -210.495287 
L 339.606534 -210.010517 
L 333.97017 -209.693672 
L 328.333807 -209.602789 
L 322.697443 -209.13522 
L 317.06108 -208.509034 
L 311.424716 -208.178799 
L 305.788352 -207.796325 
L 300.151989 -207.617569 
L 294.515625 -207.530972 
L 288.879261 -207.13658 
L 283.242898 -206.788137 
L 277.606534 -206.406989 
L 271.97017 -206.180162 
L 266.333807 -206.040195 
L 260.697443 -206.151199 
L 255.06108 -206.262393 
L 249.424716 -206.37215 
L 243.788352 -206.329249 
L 238.151989 -205.959533 
L 232.515625 -205.797459 
L 226.879261 -205.704788 
L 221.242898 -205.544723 
L 215.606534 -205.374923 
L 209.97017 -205.50915 
L 204.333807 -205.714447 
L 198.697443 -205.919745 
L 193.06108 -205.681488 
L 187.424716 -205.590726 
L 181.788352 -205.388447 
L 176.151989 -205.597847 
L 170.515625 -205.407681 
L 164.879261 -205.666037 
L 159.242898 -205.704228 
L 153.606534 -205.739145 
L 147.97017 -205.770598 
L 142.333807 -205.741256 
L 136.697443 -205.838478 
L 131.06108 -205.871589 
L 125.424716 -205.716664 
L 119.788352 -205.755287 
L 114.151989 -205.912704 
L 108.515625 -205.962515 
L 102.879261 -205.963524 
L 97.242898 -206.090804 
L 91.606534 -206.215936 
L 85.97017 -206.18684 
L 80.333807 -206.687933 
L 74.697443 -207.100763 
L 69.06108 -207.279665 
L 63.424716 -207.447038 
L 57.788352 -207.613956 
L 52.151989 -207.813524 
L 46.515625 -208.074099 
z
" id="m88554988ba" style="stroke:#ffffff;stroke-opacity:0.15;"/>
    </defs>
    <g clip-path="url(#pd46974951b)">
     <use style="fill:#4c72b0;fill-opacity:0.15;stroke:#ffffff;stroke-opacity:0.15;" x="0" xlink:href="#m88554988ba" y="528.067125"/>
    </g>
   </g>
   <g id="line2d_14">
    <path clip-path="url(#pd46974951b)" d="M 46.515625 351.714026 
L 52.151989 351.573052 
L 57.788352 351.432078 
L 63.424716 351.291104 
L 69.06108 351.15013 
L 74.697443 351.009156 
L 80.333807 350.868182 
L 85.97017 350.727208 
L 91.606534 350.586234 
L 97.242898 350.44526 
L 102.879261 350.304286 
L 108.515625 350.163312 
L 114.151989 350.022338 
L 119.788352 349.881364 
L 125.424716 349.74039 
L 131.06108 349.599416 
L 136.697443 349.458442 
L 142.333807 349.317468 
L 147.97017 349.176494 
L 153.606534 349.03552 
L 159.242898 348.894546 
L 164.879261 348.753571 
L 170.515625 348.612597 
L 176.151989 348.471623 
L 181.788352 348.330649 
L 187.424716 348.189675 
L 193.06108 348.048701 
L 198.697443 347.907727 
L 204.333807 347.766753 
L 209.97017 347.625779 
L 215.606534 347.484805 
L 221.242898 347.343831 
L 226.879261 347.202857 
L 232.515625 347.061883 
L 238.151989 346.920909 
L 243.788352 346.779935 
L 249.424716 346.638961 
L 255.06108 346.497987 
L 260.697443 346.357013 
L 266.333807 346.216039 
L 271.97017 346.075065 
L 277.606534 345.934091 
L 283.242898 345.793117 
L 288.879261 345.652143 
L 294.515625 345.511169 
L 300.151989 345.370195 
L 305.788352 345.22922 
L 311.424716 345.088246 
L 317.06108 344.947272 
L 322.697443 344.806298 
L 328.333807 344.665324 
L 333.97017 344.52435 
L 339.606534 344.383376 
L 345.242898 344.242402 
L 350.879261 344.101428 
L 356.515625 343.960454 
L 362.151989 343.81948 
L 367.788352 343.678506 
L 373.424716 343.537532 
L 379.06108 343.396558 
L 384.697443 343.255584 
L 390.333807 343.11461 
L 395.97017 342.973636 
L 401.606534 342.832662 
L 407.242898 342.691688 
L 412.879261 342.550714 
L 418.515625 342.40974 
L 424.151989 342.268766 
L 429.788352 342.127792 
L 435.424716 341.986818 
L 441.06108 341.845844 
L 446.697443 341.704869 
L 452.333807 341.563895 
L 457.97017 341.422921 
L 463.606534 341.281947 
L 469.242898 341.140973 
L 474.879261 340.999999 
L 480.515625 340.859025 
L 486.151989 340.718051 
L 491.788352 340.577077 
L 497.424716 340.436103 
L 503.06108 340.295129 
L 508.697443 340.154155 
L 514.333807 340.013181 
L 519.97017 339.872207 
L 525.606534 339.731233 
L 531.242898 339.590259 
L 536.879261 339.449285 
L 542.515625 339.308311 
L 548.151989 339.167337 
L 553.788352 339.026363 
L 559.424716 338.885389 
L 565.06108 338.744415 
L 570.697443 338.603441 
L 576.333807 338.462467 
L 581.97017 338.321493 
L 587.606534 338.180518 
L 593.242898 338.039544 
L 598.879261 337.89857 
L 604.515625 337.757596 
" style="fill:none;stroke:#4c72b0;stroke-linecap:round;stroke-width:2.25;"/>
   </g>
   <g id="patch_3">
    <path d="M 46.515625 438.12 
L 46.515625 57.6 
" style="fill:none;stroke:#ffffff;stroke-linecap:square;stroke-linejoin:miter;stroke-width:1.25;"/>
   </g>
   <g id="patch_4">
    <path d="M 604.515625 438.12 
L 604.515625 57.6 
" style="fill:none;stroke:#ffffff;stroke-linecap:square;stroke-linejoin:miter;stroke-width:1.25;"/>
   </g>
   <g id="patch_5">
    <path d="M 46.515625 438.12 
L 604.515625 438.12 
" style="fill:none;stroke:#ffffff;stroke-linecap:square;stroke-linejoin:miter;stroke-width:1.25;"/>
   </g>
   <g id="patch_6">
    <path d="M 46.515625 57.6 
L 604.515625 57.6 
" style="fill:none;stroke:#ffffff;stroke-linecap:square;stroke-linejoin:miter;stroke-width:1.25;"/>
   </g>
   <g id="text_16">
    <!--  -->
    <g style="fill:#262626;" transform="translate(46.515625 477.238125)scale(0.12 -0.12)"/>
    <!-- * Redução percentual em CLI (Jan-2020/Abr-2020) -->
    <defs>
     <path d="M 9.8125 72.90625 
L 19.671875 72.90625 
L 19.671875 5.078125 
Q 19.671875 -8.109375 14.671875 -14.0625 
Q 9.671875 -20.015625 -1.421875 -20.015625 
L -5.171875 -20.015625 
L -5.171875 -11.71875 
L -2.09375 -11.71875 
Q 4.4375 -11.71875 7.125 -8.046875 
Q 9.8125 -4.390625 9.8125 5.078125 
z
" id="DejaVuSans-74"/>
     <path d="M 4.890625 31.390625 
L 31.203125 31.390625 
L 31.203125 23.390625 
L 4.890625 23.390625 
z
" id="DejaVuSans-45"/>
     <path d="M 25.390625 72.90625 
L 33.6875 72.90625 
L 8.296875 -9.28125 
L 0 -9.28125 
z
" id="DejaVuSans-47"/>
     <path d="M 34.1875 63.1875 
L 20.796875 26.90625 
L 47.609375 26.90625 
z
M 28.609375 72.90625 
L 39.796875 72.90625 
L 67.578125 0 
L 57.328125 0 
L 50.6875 18.703125 
L 17.828125 18.703125 
L 11.1875 0 
L 0.78125 0 
z
" id="DejaVuSans-65"/>
    </defs>
    <g style="fill:#262626;" transform="translate(46.515625 490.92075)scale(0.12 -0.12)">
     <use xlink:href="#DejaVuSans-42"/>
     <use x="50" xlink:href="#DejaVuSans-32"/>
     <use x="81.787109" xlink:href="#DejaVuSans-82"/>
     <use x="151.207031" xlink:href="#DejaVuSans-101"/>
     <use x="212.730469" xlink:href="#DejaVuSans-100"/>
     <use x="276.207031" xlink:href="#DejaVuSans-117"/>
     <use x="339.585938" xlink:href="#DejaVuSans-231"/>
     <use x="394.566406" xlink:href="#DejaVuSans-227"/>
     <use x="455.845703" xlink:href="#DejaVuSans-111"/>
     <use x="517.027344" xlink:href="#DejaVuSans-32"/>
     <use x="548.814453" xlink:href="#DejaVuSans-112"/>
     <use x="612.291016" xlink:href="#DejaVuSans-101"/>
     <use x="673.814453" xlink:href="#DejaVuSans-114"/>
     <use x="714.896484" xlink:href="#DejaVuSans-99"/>
     <use x="769.876953" xlink:href="#DejaVuSans-101"/>
     <use x="831.400391" xlink:href="#DejaVuSans-110"/>
     <use x="894.779297" xlink:href="#DejaVuSans-116"/>
     <use x="933.988281" xlink:href="#DejaVuSans-117"/>
     <use x="997.367188" xlink:href="#DejaVuSans-97"/>
     <use x="1058.646484" xlink:href="#DejaVuSans-108"/>
     <use x="1086.429688" xlink:href="#DejaVuSans-32"/>
     <use x="1118.216797" xlink:href="#DejaVuSans-101"/>
     <use x="1179.740234" xlink:href="#DejaVuSans-109"/>
     <use x="1277.152344" xlink:href="#DejaVuSans-32"/>
     <use x="1308.939453" xlink:href="#DejaVuSans-67"/>
     <use x="1378.763672" xlink:href="#DejaVuSans-76"/>
     <use x="1434.476562" xlink:href="#DejaVuSans-73"/>
     <use x="1463.96875" xlink:href="#DejaVuSans-32"/>
     <use x="1495.755859" xlink:href="#DejaVuSans-40"/>
     <use x="1534.769531" xlink:href="#DejaVuSans-74"/>
     <use x="1564.261719" xlink:href="#DejaVuSans-97"/>
     <use x="1625.541016" xlink:href="#DejaVuSans-110"/>
     <use x="1688.919922" xlink:href="#DejaVuSans-45"/>
     <use x="1725.003906" xlink:href="#DejaVuSans-50"/>
     <use x="1788.626953" xlink:href="#DejaVuSans-48"/>
     <use x="1852.25" xlink:href="#DejaVuSans-50"/>
     <use x="1915.873047" xlink:href="#DejaVuSans-48"/>
     <use x="1979.496094" xlink:href="#DejaVuSans-47"/>
     <use x="2013.1875" xlink:href="#DejaVuSans-65"/>
     <use x="2081.595703" xlink:href="#DejaVuSans-98"/>
     <use x="2145.072266" xlink:href="#DejaVuSans-114"/>
     <use x="2186.091797" xlink:href="#DejaVuSans-45"/>
     <use x="2222.175781" xlink:href="#DejaVuSans-50"/>
     <use x="2285.798828" xlink:href="#DejaVuSans-48"/>
     <use x="2349.421875" xlink:href="#DejaVuSans-50"/>
     <use x="2413.044922" xlink:href="#DejaVuSans-48"/>
     <use x="2476.667969" xlink:href="#DejaVuSans-41"/>
    </g>
    <!-- ** Mobilidade em farmácias e supermercados nos 7 dias após a 5a morte, dados do Google  -->
    <defs>
     <path d="M 9.8125 72.90625 
L 24.515625 72.90625 
L 43.109375 23.296875 
L 61.8125 72.90625 
L 76.515625 72.90625 
L 76.515625 0 
L 66.890625 0 
L 66.890625 64.015625 
L 48.09375 14.015625 
L 38.1875 14.015625 
L 19.390625 64.015625 
L 19.390625 0 
L 9.8125 0 
z
" id="DejaVuSans-77"/>
     <path d="M 37.109375 75.984375 
L 37.109375 68.5 
L 28.515625 68.5 
Q 23.6875 68.5 21.796875 66.546875 
Q 19.921875 64.59375 19.921875 59.515625 
L 19.921875 54.6875 
L 34.71875 54.6875 
L 34.71875 47.703125 
L 19.921875 47.703125 
L 19.921875 0 
L 10.890625 0 
L 10.890625 47.703125 
L 2.296875 47.703125 
L 2.296875 54.6875 
L 10.890625 54.6875 
L 10.890625 58.5 
Q 10.890625 67.625 15.140625 71.796875 
Q 19.390625 75.984375 28.609375 75.984375 
z
" id="DejaVuSans-102"/>
     <path d="M 34.28125 27.484375 
Q 23.390625 27.484375 19.1875 25 
Q 14.984375 22.515625 14.984375 16.5 
Q 14.984375 11.71875 18.140625 8.90625 
Q 21.296875 6.109375 26.703125 6.109375 
Q 34.1875 6.109375 38.703125 11.40625 
Q 43.21875 16.703125 43.21875 25.484375 
L 43.21875 27.484375 
z
M 52.203125 31.203125 
L 52.203125 0 
L 43.21875 0 
L 43.21875 8.296875 
Q 40.140625 3.328125 35.546875 0.953125 
Q 30.953125 -1.421875 24.3125 -1.421875 
Q 15.921875 -1.421875 10.953125 3.296875 
Q 6 8.015625 6 15.921875 
Q 6 25.140625 12.171875 29.828125 
Q 18.359375 34.515625 30.609375 34.515625 
L 43.21875 34.515625 
L 43.21875 35.40625 
Q 43.21875 41.609375 39.140625 45 
Q 35.0625 48.390625 27.6875 48.390625 
Q 23 48.390625 18.546875 47.265625 
Q 14.109375 46.140625 10.015625 43.890625 
L 10.015625 52.203125 
Q 14.9375 54.109375 19.578125 55.046875 
Q 24.21875 56 28.609375 56 
Q 40.484375 56 46.34375 49.84375 
Q 52.203125 43.703125 52.203125 31.203125 
z
M 35.78125 79.984375 
L 45.5 79.984375 
L 29.59375 61.625 
L 22.109375 61.625 
z
" id="DejaVuSans-225"/>
     <path d="M 44.28125 53.078125 
L 44.28125 44.578125 
Q 40.484375 46.53125 36.375 47.5 
Q 32.28125 48.484375 27.875 48.484375 
Q 21.1875 48.484375 17.84375 46.4375 
Q 14.5 44.390625 14.5 40.28125 
Q 14.5 37.15625 16.890625 35.375 
Q 19.28125 33.59375 26.515625 31.984375 
L 29.59375 31.296875 
Q 39.15625 29.25 43.1875 25.515625 
Q 47.21875 21.78125 47.21875 15.09375 
Q 47.21875 7.46875 41.1875 3.015625 
Q 35.15625 -1.421875 24.609375 -1.421875 
Q 20.21875 -1.421875 15.453125 -0.5625 
Q 10.6875 0.296875 5.421875 2 
L 5.421875 11.28125 
Q 10.40625 8.6875 15.234375 7.390625 
Q 20.0625 6.109375 24.8125 6.109375 
Q 31.15625 6.109375 34.5625 8.28125 
Q 37.984375 10.453125 37.984375 14.40625 
Q 37.984375 18.0625 35.515625 20.015625 
Q 33.0625 21.96875 24.703125 23.78125 
L 21.578125 24.515625 
Q 13.234375 26.265625 9.515625 29.90625 
Q 5.8125 33.546875 5.8125 39.890625 
Q 5.8125 47.609375 11.28125 51.796875 
Q 16.75 56 26.8125 56 
Q 31.78125 56 36.171875 55.265625 
Q 40.578125 54.546875 44.28125 53.078125 
z
" id="DejaVuSans-115"/>
     <path d="M 8.203125 72.90625 
L 55.078125 72.90625 
L 55.078125 68.703125 
L 28.609375 0 
L 18.3125 0 
L 43.21875 64.59375 
L 8.203125 64.59375 
z
" id="DejaVuSans-55"/>
     <path d="M 30.609375 48.390625 
Q 23.390625 48.390625 19.1875 42.75 
Q 14.984375 37.109375 14.984375 27.296875 
Q 14.984375 17.484375 19.15625 11.84375 
Q 23.34375 6.203125 30.609375 6.203125 
Q 37.796875 6.203125 41.984375 11.859375 
Q 46.1875 17.53125 46.1875 27.296875 
Q 46.1875 37.015625 41.984375 42.703125 
Q 37.796875 48.390625 30.609375 48.390625 
z
M 30.609375 56 
Q 42.328125 56 49.015625 48.375 
Q 55.71875 40.765625 55.71875 27.296875 
Q 55.71875 13.875 49.015625 6.21875 
Q 42.328125 -1.421875 30.609375 -1.421875 
Q 18.84375 -1.421875 12.171875 6.21875 
Q 5.515625 13.875 5.515625 27.296875 
Q 5.515625 40.765625 12.171875 48.375 
Q 18.84375 56 30.609375 56 
z
M 37.40625 79.984375 
L 47.125 79.984375 
L 31.21875 61.625 
L 23.734375 61.625 
z
" id="DejaVuSans-243"/>
     <path d="M 11.71875 12.40625 
L 22.015625 12.40625 
L 22.015625 4 
L 14.015625 -11.625 
L 7.71875 -11.625 
L 11.71875 4 
z
" id="DejaVuSans-44"/>
     <path d="M 59.515625 10.40625 
L 59.515625 29.984375 
L 43.40625 29.984375 
L 43.40625 38.09375 
L 69.28125 38.09375 
L 69.28125 6.78125 
Q 63.578125 2.734375 56.6875 0.65625 
Q 49.8125 -1.421875 42 -1.421875 
Q 24.90625 -1.421875 15.25 8.5625 
Q 5.609375 18.5625 5.609375 36.375 
Q 5.609375 54.25 15.25 64.234375 
Q 24.90625 74.21875 42 74.21875 
Q 49.125 74.21875 55.546875 72.453125 
Q 61.96875 70.703125 67.390625 67.28125 
L 67.390625 56.78125 
Q 61.921875 61.421875 55.765625 63.765625 
Q 49.609375 66.109375 42.828125 66.109375 
Q 29.4375 66.109375 22.71875 58.640625 
Q 16.015625 51.171875 16.015625 36.375 
Q 16.015625 21.625 22.71875 14.15625 
Q 29.4375 6.6875 42.828125 6.6875 
Q 48.046875 6.6875 52.140625 7.59375 
Q 56.25 8.5 59.515625 10.40625 
z
" id="DejaVuSans-71"/>
     <path d="M 45.40625 27.984375 
Q 45.40625 37.75 41.375 43.109375 
Q 37.359375 48.484375 30.078125 48.484375 
Q 22.859375 48.484375 18.828125 43.109375 
Q 14.796875 37.75 14.796875 27.984375 
Q 14.796875 18.265625 18.828125 12.890625 
Q 22.859375 7.515625 30.078125 7.515625 
Q 37.359375 7.515625 41.375 12.890625 
Q 45.40625 18.265625 45.40625 27.984375 
z
M 54.390625 6.78125 
Q 54.390625 -7.171875 48.1875 -13.984375 
Q 42 -20.796875 29.203125 -20.796875 
Q 24.46875 -20.796875 20.265625 -20.09375 
Q 16.0625 -19.390625 12.109375 -17.921875 
L 12.109375 -9.1875 
Q 16.0625 -11.328125 19.921875 -12.34375 
Q 23.78125 -13.375 27.78125 -13.375 
Q 36.625 -13.375 41.015625 -8.765625 
Q 45.40625 -4.15625 45.40625 5.171875 
L 45.40625 9.625 
Q 42.625 4.78125 38.28125 2.390625 
Q 33.9375 0 27.875 0 
Q 17.828125 0 11.671875 7.65625 
Q 5.515625 15.328125 5.515625 27.984375 
Q 5.515625 40.671875 11.671875 48.328125 
Q 17.828125 56 27.875 56 
Q 33.9375 56 38.28125 53.609375 
Q 42.625 51.21875 45.40625 46.390625 
L 45.40625 54.6875 
L 54.390625 54.6875 
z
" id="DejaVuSans-103"/>
    </defs>
    <g style="fill:#262626;" transform="translate(46.515625 504.934125)scale(0.12 -0.12)">
     <use xlink:href="#DejaVuSans-42"/>
     <use x="50" xlink:href="#DejaVuSans-42"/>
     <use x="100" xlink:href="#DejaVuSans-32"/>
     <use x="131.787109" xlink:href="#DejaVuSans-77"/>
     <use x="218.066406" xlink:href="#DejaVuSans-111"/>
     <use x="279.248047" xlink:href="#DejaVuSans-98"/>
     <use x="342.724609" xlink:href="#DejaVuSans-105"/>
     <use x="370.507812" xlink:href="#DejaVuSans-108"/>
     <use x="398.291016" xlink:href="#DejaVuSans-105"/>
     <use x="426.074219" xlink:href="#DejaVuSans-100"/>
     <use x="489.550781" xlink:href="#DejaVuSans-97"/>
     <use x="550.830078" xlink:href="#DejaVuSans-100"/>
     <use x="614.306641" xlink:href="#DejaVuSans-101"/>
     <use x="675.830078" xlink:href="#DejaVuSans-32"/>
     <use x="707.617188" xlink:href="#DejaVuSans-101"/>
     <use x="769.140625" xlink:href="#DejaVuSans-109"/>
     <use x="866.552734" xlink:href="#DejaVuSans-32"/>
     <use x="898.339844" xlink:href="#DejaVuSans-102"/>
     <use x="933.544922" xlink:href="#DejaVuSans-97"/>
     <use x="994.824219" xlink:href="#DejaVuSans-114"/>
     <use x="1035.921875" xlink:href="#DejaVuSans-109"/>
     <use x="1133.333984" xlink:href="#DejaVuSans-225"/>
     <use x="1194.613281" xlink:href="#DejaVuSans-99"/>
     <use x="1249.59375" xlink:href="#DejaVuSans-105"/>
     <use x="1277.376953" xlink:href="#DejaVuSans-97"/>
     <use x="1338.65625" xlink:href="#DejaVuSans-115"/>
     <use x="1390.755859" xlink:href="#DejaVuSans-32"/>
     <use x="1422.542969" xlink:href="#DejaVuSans-101"/>
     <use x="1484.066406" xlink:href="#DejaVuSans-32"/>
     <use x="1515.853516" xlink:href="#DejaVuSans-115"/>
     <use x="1567.953125" xlink:href="#DejaVuSans-117"/>
     <use x="1631.332031" xlink:href="#DejaVuSans-112"/>
     <use x="1694.808594" xlink:href="#DejaVuSans-101"/>
     <use x="1756.332031" xlink:href="#DejaVuSans-114"/>
     <use x="1797.429688" xlink:href="#DejaVuSans-109"/>
     <use x="1894.841797" xlink:href="#DejaVuSans-101"/>
     <use x="1956.365234" xlink:href="#DejaVuSans-114"/>
     <use x="1997.447266" xlink:href="#DejaVuSans-99"/>
     <use x="2052.427734" xlink:href="#DejaVuSans-97"/>
     <use x="2113.707031" xlink:href="#DejaVuSans-100"/>
     <use x="2177.183594" xlink:href="#DejaVuSans-111"/>
     <use x="2238.365234" xlink:href="#DejaVuSans-115"/>
     <use x="2290.464844" xlink:href="#DejaVuSans-32"/>
     <use x="2322.251953" xlink:href="#DejaVuSans-110"/>
     <use x="2385.630859" xlink:href="#DejaVuSans-111"/>
     <use x="2446.8125" xlink:href="#DejaVuSans-115"/>
     <use x="2498.912109" xlink:href="#DejaVuSans-32"/>
     <use x="2530.699219" xlink:href="#DejaVuSans-55"/>
     <use x="2594.322266" xlink:href="#DejaVuSans-32"/>
     <use x="2626.109375" xlink:href="#DejaVuSans-100"/>
     <use x="2689.585938" xlink:href="#DejaVuSans-105"/>
     <use x="2717.369141" xlink:href="#DejaVuSans-97"/>
     <use x="2778.648438" xlink:href="#DejaVuSans-115"/>
     <use x="2830.748047" xlink:href="#DejaVuSans-32"/>
     <use x="2862.535156" xlink:href="#DejaVuSans-97"/>
     <use x="2923.814453" xlink:href="#DejaVuSans-112"/>
     <use x="2987.291016" xlink:href="#DejaVuSans-243"/>
     <use x="3048.472656" xlink:href="#DejaVuSans-115"/>
     <use x="3100.572266" xlink:href="#DejaVuSans-32"/>
     <use x="3132.359375" xlink:href="#DejaVuSans-97"/>
     <use x="3193.638672" xlink:href="#DejaVuSans-32"/>
     <use x="3225.425781" xlink:href="#DejaVuSans-53"/>
     <use x="3289.048828" xlink:href="#DejaVuSans-97"/>
     <use x="3350.328125" xlink:href="#DejaVuSans-32"/>
     <use x="3382.115234" xlink:href="#DejaVuSans-109"/>
     <use x="3479.527344" xlink:href="#DejaVuSans-111"/>
     <use x="3540.708984" xlink:href="#DejaVuSans-114"/>
     <use x="3581.822266" xlink:href="#DejaVuSans-116"/>
     <use x="3621.03125" xlink:href="#DejaVuSans-101"/>
     <use x="3682.554688" xlink:href="#DejaVuSans-44"/>
     <use x="3714.341797" xlink:href="#DejaVuSans-32"/>
     <use x="3746.128906" xlink:href="#DejaVuSans-100"/>
     <use x="3809.605469" xlink:href="#DejaVuSans-97"/>
     <use x="3870.884766" xlink:href="#DejaVuSans-100"/>
     <use x="3934.361328" xlink:href="#DejaVuSans-111"/>
     <use x="3995.542969" xlink:href="#DejaVuSans-115"/>
     <use x="4047.642578" xlink:href="#DejaVuSans-32"/>
     <use x="4079.429688" xlink:href="#DejaVuSans-100"/>
     <use x="4142.90625" xlink:href="#DejaVuSans-111"/>
     <use x="4204.087891" xlink:href="#DejaVuSans-32"/>
     <use x="4235.875" xlink:href="#DejaVuSans-71"/>
     <use x="4313.365234" xlink:href="#DejaVuSans-111"/>
     <use x="4374.546875" xlink:href="#DejaVuSans-111"/>
     <use x="4435.728516" xlink:href="#DejaVuSans-103"/>
     <use x="4499.205078" xlink:href="#DejaVuSans-108"/>
     <use x="4526.988281" xlink:href="#DejaVuSans-101"/>
     <use x="4588.511719" xlink:href="#DejaVuSans-32"/>
    </g>
    <!-- Mobility Report. -->
    <defs>
     <path d="M 32.171875 -5.078125 
Q 28.375 -14.84375 24.75 -17.8125 
Q 21.140625 -20.796875 15.09375 -20.796875 
L 7.90625 -20.796875 
L 7.90625 -13.28125 
L 13.1875 -13.28125 
Q 16.890625 -13.28125 18.9375 -11.515625 
Q 21 -9.765625 23.484375 -3.21875 
L 25.09375 0.875 
L 2.984375 54.6875 
L 12.5 54.6875 
L 29.59375 11.921875 
L 46.6875 54.6875 
L 56.203125 54.6875 
z
" id="DejaVuSans-121"/>
     <path d="M 10.6875 12.40625 
L 21 12.40625 
L 21 0 
L 10.6875 0 
z
" id="DejaVuSans-46"/>
    </defs>
    <g style="fill:#262626;" transform="translate(46.515625 518.3715)scale(0.12 -0.12)">
     <use xlink:href="#DejaVuSans-77"/>
     <use x="86.279297" xlink:href="#DejaVuSans-111"/>
     <use x="147.460938" xlink:href="#DejaVuSans-98"/>
     <use x="210.9375" xlink:href="#DejaVuSans-105"/>
     <use x="238.720703" xlink:href="#DejaVuSans-108"/>
     <use x="266.503906" xlink:href="#DejaVuSans-105"/>
     <use x="294.287109" xlink:href="#DejaVuSans-116"/>
     <use x="333.496094" xlink:href="#DejaVuSans-121"/>
     <use x="392.675781" xlink:href="#DejaVuSans-32"/>
     <use x="424.462891" xlink:href="#DejaVuSans-82"/>
     <use x="493.882812" xlink:href="#DejaVuSans-101"/>
     <use x="555.40625" xlink:href="#DejaVuSans-112"/>
     <use x="618.882812" xlink:href="#DejaVuSans-111"/>
     <use x="680.064453" xlink:href="#DejaVuSans-114"/>
     <use x="721.177734" xlink:href="#DejaVuSans-116"/>
     <use x="760.386719" xlink:href="#DejaVuSans-46"/>
    </g>
   </g>
  </g>
  <g id="text_17">
   <!-- Estimando o efeito do isolamento social -->
   <defs>
    <path d="M 9.8125 72.90625 
L 55.90625 72.90625 
L 55.90625 64.59375 
L 19.671875 64.59375 
L 19.671875 43.015625 
L 54.390625 43.015625 
L 54.390625 34.71875 
L 19.671875 34.71875 
L 19.671875 8.296875 
L 56.78125 8.296875 
L 56.78125 0 
L 9.8125 0 
z
" id="DejaVuSans-69"/>
   </defs>
   <g style="fill:#262626;" transform="translate(156.664375 19.3575)scale(0.16 -0.16)">
    <use xlink:href="#DejaVuSans-69"/>
    <use x="63.183594" xlink:href="#DejaVuSans-115"/>
    <use x="115.283203" xlink:href="#DejaVuSans-116"/>
    <use x="154.492188" xlink:href="#DejaVuSans-105"/>
    <use x="182.275391" xlink:href="#DejaVuSans-109"/>
    <use x="279.6875" xlink:href="#DejaVuSans-97"/>
    <use x="340.966797" xlink:href="#DejaVuSans-110"/>
    <use x="404.345703" xlink:href="#DejaVuSans-100"/>
    <use x="467.822266" xlink:href="#DejaVuSans-111"/>
    <use x="529.003906" xlink:href="#DejaVuSans-32"/>
    <use x="560.791016" xlink:href="#DejaVuSans-111"/>
    <use x="621.972656" xlink:href="#DejaVuSans-32"/>
    <use x="653.759766" xlink:href="#DejaVuSans-101"/>
    <use x="715.283203" xlink:href="#DejaVuSans-102"/>
    <use x="750.488281" xlink:href="#DejaVuSans-101"/>
    <use x="812.011719" xlink:href="#DejaVuSans-105"/>
    <use x="839.794922" xlink:href="#DejaVuSans-116"/>
    <use x="879.003906" xlink:href="#DejaVuSans-111"/>
    <use x="940.185547" xlink:href="#DejaVuSans-32"/>
    <use x="971.972656" xlink:href="#DejaVuSans-100"/>
    <use x="1035.449219" xlink:href="#DejaVuSans-111"/>
    <use x="1096.630859" xlink:href="#DejaVuSans-32"/>
    <use x="1128.417969" xlink:href="#DejaVuSans-105"/>
    <use x="1156.201172" xlink:href="#DejaVuSans-115"/>
    <use x="1208.300781" xlink:href="#DejaVuSans-111"/>
    <use x="1269.482422" xlink:href="#DejaVuSans-108"/>
    <use x="1297.265625" xlink:href="#DejaVuSans-97"/>
    <use x="1358.544922" xlink:href="#DejaVuSans-109"/>
    <use x="1455.957031" xlink:href="#DejaVuSans-101"/>
    <use x="1517.480469" xlink:href="#DejaVuSans-110"/>
    <use x="1580.859375" xlink:href="#DejaVuSans-116"/>
    <use x="1620.068359" xlink:href="#DejaVuSans-111"/>
    <use x="1681.25" xlink:href="#DejaVuSans-32"/>
    <use x="1713.037109" xlink:href="#DejaVuSans-115"/>
    <use x="1765.136719" xlink:href="#DejaVuSans-111"/>
    <use x="1826.318359" xlink:href="#DejaVuSans-99"/>
    <use x="1881.298828" xlink:href="#DejaVuSans-105"/>
    <use x="1909.082031" xlink:href="#DejaVuSans-97"/>
    <use x="1970.361328" xlink:href="#DejaVuSans-108"/>
   </g>
  </g>
 </g>
 <defs>
  <clipPath id="pd46974951b">
   <rect height="380.52" width="558" x="46.515625" y="57.6"/>
  </clipPath>
 </defs>
</svg>
