<?xml version="1.0" encoding="utf-8" standalone="no"?>
<!DOCTYPE svg PUBLIC "-//W3C//DTD SVG 1.1//EN"
  "http://www.w3.org/Graphics/SVG/1.1/DTD/svg11.dtd">
<!-- Created with matplotlib (https://matplotlib.org/) -->
<svg height="541.83525pt" version="1.1" viewBox="0 0 626.935022 541.83525" width="626.935022pt" xmlns="http://www.w3.org/2000/svg" xmlns:xlink="http://www.w3.org/1999/xlink">
 <defs>
  <style type="text/css">
*{stroke-linecap:butt;stroke-linejoin:round;white-space:pre;}
  </style>
 </defs>
 <g id="figure_1">
  <g id="patch_1">
   <path d="M 0 541.83525 
L 626.935022 541.83525 
L 626.935022 0 
L 0 0 
z
" style="fill:#ffffff;"/>
  </g>
  <g id="axes_1">
   <g id="patch_2">
    <path d="M 56.805938 438.12 
L 614.805938 438.12 
L 614.805938 57.6 
L 56.805938 57.6 
z
" style="fill:#eaeaf2;"/>
   </g>
   <g id="matplotlib.axis_1">
    <g id="xtick_1">
     <g id="line2d_1">
      <path clip-path="url(#pe4a80620d5)" d="M 101.255443 438.12 
L 101.255443 57.6 
" style="fill:none;stroke:#ffffff;stroke-linecap:round;"/>
     </g>
     <g id="text_1">
      <!-- −20 -->
      <defs>
       <path d="M 10.59375 35.5 
L 73.1875 35.5 
L 73.1875 27.203125 
L 10.59375 27.203125 
z
" id="DejaVuSans-8722"/>
       <path d="M 19.1875 8.296875 
L 53.609375 8.296875 
L 53.609375 0 
L 7.328125 0 
L 7.328125 8.296875 
Q 12.9375 14.109375 22.625 23.890625 
Q 32.328125 33.6875 34.8125 36.53125 
Q 39.546875 41.84375 41.421875 45.53125 
Q 43.3125 49.21875 43.3125 52.78125 
Q 43.3125 58.59375 39.234375 62.25 
Q 35.15625 65.921875 28.609375 65.921875 
Q 23.96875 65.921875 18.8125 64.3125 
Q 13.671875 62.703125 7.8125 59.421875 
L 7.8125 69.390625 
Q 13.765625 71.78125 18.9375 73 
Q 24.125 74.21875 28.421875 74.21875 
Q 39.75 74.21875 46.484375 68.546875 
Q 53.21875 62.890625 53.21875 53.421875 
Q 53.21875 48.921875 51.53125 44.890625 
Q 49.859375 40.875 45.40625 35.40625 
Q 44.1875 33.984375 37.640625 27.21875 
Q 31.109375 20.453125 19.1875 8.296875 
z
" id="DejaVuSans-50"/>
       <path d="M 31.78125 66.40625 
Q 24.171875 66.40625 20.328125 58.90625 
Q 16.5 51.421875 16.5 36.375 
Q 16.5 21.390625 20.328125 13.890625 
Q 24.171875 6.390625 31.78125 6.390625 
Q 39.453125 6.390625 43.28125 13.890625 
Q 47.125 21.390625 47.125 36.375 
Q 47.125 51.421875 43.28125 58.90625 
Q 39.453125 66.40625 31.78125 66.40625 
z
M 31.78125 74.21875 
Q 44.046875 74.21875 50.515625 64.515625 
Q 56.984375 54.828125 56.984375 36.375 
Q 56.984375 17.96875 50.515625 8.265625 
Q 44.046875 -1.421875 31.78125 -1.421875 
Q 19.53125 -1.421875 13.0625 8.265625 
Q 6.59375 17.96875 6.59375 36.375 
Q 6.59375 54.828125 13.0625 64.515625 
Q 19.53125 74.21875 31.78125 74.21875 
z
" id="DejaVuSans-48"/>
      </defs>
      <g style="fill:#262626;" transform="translate(89.647865 455.978281)scale(0.11 -0.11)">
       <use xlink:href="#DejaVuSans-8722"/>
       <use x="83.789062" xlink:href="#DejaVuSans-50"/>
       <use x="147.412109" xlink:href="#DejaVuSans-48"/>
      </g>
     </g>
    </g>
    <g id="xtick_2">
     <g id="line2d_2">
      <path clip-path="url(#pe4a80620d5)" d="M 203.551609 438.12 
L 203.551609 57.6 
" style="fill:none;stroke:#ffffff;stroke-linecap:round;"/>
     </g>
     <g id="text_2">
      <!-- 0 -->
      <g style="fill:#262626;" transform="translate(200.052234 455.978281)scale(0.11 -0.11)">
       <use xlink:href="#DejaVuSans-48"/>
      </g>
     </g>
    </g>
    <g id="xtick_3">
     <g id="line2d_3">
      <path clip-path="url(#pe4a80620d5)" d="M 305.847775 438.12 
L 305.847775 57.6 
" style="fill:none;stroke:#ffffff;stroke-linecap:round;"/>
     </g>
     <g id="text_3">
      <!-- 20 -->
      <g style="fill:#262626;" transform="translate(298.849025 455.978281)scale(0.11 -0.11)">
       <use xlink:href="#DejaVuSans-50"/>
       <use x="63.623047" xlink:href="#DejaVuSans-48"/>
      </g>
     </g>
    </g>
    <g id="xtick_4">
     <g id="line2d_4">
      <path clip-path="url(#pe4a80620d5)" d="M 408.14394 438.12 
L 408.14394 57.6 
" style="fill:none;stroke:#ffffff;stroke-linecap:round;"/>
     </g>
     <g id="text_4">
      <!-- 40 -->
      <defs>
       <path d="M 37.796875 64.3125 
L 12.890625 25.390625 
L 37.796875 25.390625 
z
M 35.203125 72.90625 
L 47.609375 72.90625 
L 47.609375 25.390625 
L 58.015625 25.390625 
L 58.015625 17.1875 
L 47.609375 17.1875 
L 47.609375 0 
L 37.796875 0 
L 37.796875 17.1875 
L 4.890625 17.1875 
L 4.890625 26.703125 
z
" id="DejaVuSans-52"/>
      </defs>
      <g style="fill:#262626;" transform="translate(401.14519 455.978281)scale(0.11 -0.11)">
       <use xlink:href="#DejaVuSans-52"/>
       <use x="63.623047" xlink:href="#DejaVuSans-48"/>
      </g>
     </g>
    </g>
    <g id="xtick_5">
     <g id="line2d_5">
      <path clip-path="url(#pe4a80620d5)" d="M 510.440106 438.12 
L 510.440106 57.6 
" style="fill:none;stroke:#ffffff;stroke-linecap:round;"/>
     </g>
     <g id="text_5">
      <!-- 60 -->
      <defs>
       <path d="M 33.015625 40.375 
Q 26.375 40.375 22.484375 35.828125 
Q 18.609375 31.296875 18.609375 23.390625 
Q 18.609375 15.53125 22.484375 10.953125 
Q 26.375 6.390625 33.015625 6.390625 
Q 39.65625 6.390625 43.53125 10.953125 
Q 47.40625 15.53125 47.40625 23.390625 
Q 47.40625 31.296875 43.53125 35.828125 
Q 39.65625 40.375 33.015625 40.375 
z
M 52.59375 71.296875 
L 52.59375 62.3125 
Q 48.875 64.0625 45.09375 64.984375 
Q 41.3125 65.921875 37.59375 65.921875 
Q 27.828125 65.921875 22.671875 59.328125 
Q 17.53125 52.734375 16.796875 39.40625 
Q 19.671875 43.65625 24.015625 45.921875 
Q 28.375 48.1875 33.59375 48.1875 
Q 44.578125 48.1875 50.953125 41.515625 
Q 57.328125 34.859375 57.328125 23.390625 
Q 57.328125 12.15625 50.6875 5.359375 
Q 44.046875 -1.421875 33.015625 -1.421875 
Q 20.359375 -1.421875 13.671875 8.265625 
Q 6.984375 17.96875 6.984375 36.375 
Q 6.984375 53.65625 15.1875 63.9375 
Q 23.390625 74.21875 37.203125 74.21875 
Q 40.921875 74.21875 44.703125 73.484375 
Q 48.484375 72.75 52.59375 71.296875 
z
" id="DejaVuSans-54"/>
      </defs>
      <g style="fill:#262626;" transform="translate(503.441356 455.978281)scale(0.11 -0.11)">
       <use xlink:href="#DejaVuSans-54"/>
       <use x="63.623047" xlink:href="#DejaVuSans-48"/>
      </g>
     </g>
    </g>
    <g id="xtick_6">
     <g id="line2d_6">
      <path clip-path="url(#pe4a80620d5)" d="M 612.736272 438.12 
L 612.736272 57.6 
" style="fill:none;stroke:#ffffff;stroke-linecap:round;"/>
     </g>
     <g id="text_6">
      <!-- 80 -->
      <defs>
       <path d="M 31.78125 34.625 
Q 24.75 34.625 20.71875 30.859375 
Q 16.703125 27.09375 16.703125 20.515625 
Q 16.703125 13.921875 20.71875 10.15625 
Q 24.75 6.390625 31.78125 6.390625 
Q 38.8125 6.390625 42.859375 10.171875 
Q 46.921875 13.96875 46.921875 20.515625 
Q 46.921875 27.09375 42.890625 30.859375 
Q 38.875 34.625 31.78125 34.625 
z
M 21.921875 38.8125 
Q 15.578125 40.375 12.03125 44.71875 
Q 8.5 49.078125 8.5 55.328125 
Q 8.5 64.0625 14.71875 69.140625 
Q 20.953125 74.21875 31.78125 74.21875 
Q 42.671875 74.21875 48.875 69.140625 
Q 55.078125 64.0625 55.078125 55.328125 
Q 55.078125 49.078125 51.53125 44.71875 
Q 48 40.375 41.703125 38.8125 
Q 48.828125 37.15625 52.796875 32.3125 
Q 56.78125 27.484375 56.78125 20.515625 
Q 56.78125 9.90625 50.3125 4.234375 
Q 43.84375 -1.421875 31.78125 -1.421875 
Q 19.734375 -1.421875 13.25 4.234375 
Q 6.78125 9.90625 6.78125 20.515625 
Q 6.78125 27.484375 10.78125 32.3125 
Q 14.796875 37.15625 21.921875 38.8125 
z
M 18.3125 54.390625 
Q 18.3125 48.734375 21.84375 45.5625 
Q 25.390625 42.390625 31.78125 42.390625 
Q 38.140625 42.390625 41.71875 45.5625 
Q 45.3125 48.734375 45.3125 54.390625 
Q 45.3125 60.0625 41.71875 63.234375 
Q 38.140625 66.40625 31.78125 66.40625 
Q 25.390625 66.40625 21.84375 63.234375 
Q 18.3125 60.0625 18.3125 54.390625 
z
" id="DejaVuSans-56"/>
      </defs>
      <g style="fill:#262626;" transform="translate(605.737522 455.978281)scale(0.11 -0.11)">
       <use xlink:href="#DejaVuSans-56"/>
       <use x="63.623047" xlink:href="#DejaVuSans-48"/>
      </g>
     </g>
    </g>
    <g id="text_7">
     <!-- Redução em mobilidade (percentual)** -->
     <defs>
      <path d="M 44.390625 34.1875 
Q 47.5625 33.109375 50.5625 29.59375 
Q 53.5625 26.078125 56.59375 19.921875 
L 66.609375 0 
L 56 0 
L 46.6875 18.703125 
Q 43.0625 26.03125 39.671875 28.421875 
Q 36.28125 30.8125 30.421875 30.8125 
L 19.671875 30.8125 
L 19.671875 0 
L 9.8125 0 
L 9.8125 72.90625 
L 32.078125 72.90625 
Q 44.578125 72.90625 50.734375 67.671875 
Q 56.890625 62.453125 56.890625 51.90625 
Q 56.890625 45.015625 53.6875 40.46875 
Q 50.484375 35.9375 44.390625 34.1875 
z
M 19.671875 64.796875 
L 19.671875 38.921875 
L 32.078125 38.921875 
Q 39.203125 38.921875 42.84375 42.21875 
Q 46.484375 45.515625 46.484375 51.90625 
Q 46.484375 58.296875 42.84375 61.546875 
Q 39.203125 64.796875 32.078125 64.796875 
z
" id="DejaVuSans-82"/>
      <path d="M 56.203125 29.59375 
L 56.203125 25.203125 
L 14.890625 25.203125 
Q 15.484375 15.921875 20.484375 11.0625 
Q 25.484375 6.203125 34.421875 6.203125 
Q 39.59375 6.203125 44.453125 7.46875 
Q 49.3125 8.734375 54.109375 11.28125 
L 54.109375 2.78125 
Q 49.265625 0.734375 44.1875 -0.34375 
Q 39.109375 -1.421875 33.890625 -1.421875 
Q 20.796875 -1.421875 13.15625 6.1875 
Q 5.515625 13.8125 5.515625 26.8125 
Q 5.515625 40.234375 12.765625 48.109375 
Q 20.015625 56 32.328125 56 
Q 43.359375 56 49.78125 48.890625 
Q 56.203125 41.796875 56.203125 29.59375 
z
M 47.21875 32.234375 
Q 47.125 39.59375 43.09375 43.984375 
Q 39.0625 48.390625 32.421875 48.390625 
Q 24.90625 48.390625 20.390625 44.140625 
Q 15.875 39.890625 15.1875 32.171875 
z
" id="DejaVuSans-101"/>
      <path d="M 45.40625 46.390625 
L 45.40625 75.984375 
L 54.390625 75.984375 
L 54.390625 0 
L 45.40625 0 
L 45.40625 8.203125 
Q 42.578125 3.328125 38.25 0.953125 
Q 33.9375 -1.421875 27.875 -1.421875 
Q 17.96875 -1.421875 11.734375 6.484375 
Q 5.515625 14.40625 5.515625 27.296875 
Q 5.515625 40.1875 11.734375 48.09375 
Q 17.96875 56 27.875 56 
Q 33.9375 56 38.25 53.625 
Q 42.578125 51.265625 45.40625 46.390625 
z
M 14.796875 27.296875 
Q 14.796875 17.390625 18.875 11.75 
Q 22.953125 6.109375 30.078125 6.109375 
Q 37.203125 6.109375 41.296875 11.75 
Q 45.40625 17.390625 45.40625 27.296875 
Q 45.40625 37.203125 41.296875 42.84375 
Q 37.203125 48.484375 30.078125 48.484375 
Q 22.953125 48.484375 18.875 42.84375 
Q 14.796875 37.203125 14.796875 27.296875 
z
" id="DejaVuSans-100"/>
      <path d="M 8.5 21.578125 
L 8.5 54.6875 
L 17.484375 54.6875 
L 17.484375 21.921875 
Q 17.484375 14.15625 20.5 10.265625 
Q 23.53125 6.390625 29.59375 6.390625 
Q 36.859375 6.390625 41.078125 11.03125 
Q 45.3125 15.671875 45.3125 23.6875 
L 45.3125 54.6875 
L 54.296875 54.6875 
L 54.296875 0 
L 45.3125 0 
L 45.3125 8.40625 
Q 42.046875 3.421875 37.71875 1 
Q 33.40625 -1.421875 27.6875 -1.421875 
Q 18.265625 -1.421875 13.375 4.4375 
Q 8.5 10.296875 8.5 21.578125 
z
M 31.109375 56 
z
" id="DejaVuSans-117"/>
      <path d="M 48.78125 52.59375 
L 48.78125 44.1875 
Q 44.96875 46.296875 41.140625 47.34375 
Q 37.3125 48.390625 33.40625 48.390625 
Q 24.65625 48.390625 19.8125 42.84375 
Q 14.984375 37.3125 14.984375 27.296875 
Q 14.984375 17.28125 19.8125 11.734375 
Q 24.65625 6.203125 33.40625 6.203125 
Q 37.3125 6.203125 41.140625 7.25 
Q 44.96875 8.296875 48.78125 10.40625 
L 48.78125 2.09375 
Q 45.015625 0.34375 40.984375 -0.53125 
Q 36.96875 -1.421875 32.421875 -1.421875 
Q 20.0625 -1.421875 12.78125 6.34375 
Q 5.515625 14.109375 5.515625 27.296875 
Q 5.515625 40.671875 12.859375 48.328125 
Q 20.21875 56 33.015625 56 
Q 37.15625 56 41.109375 55.140625 
Q 45.0625 54.296875 48.78125 52.59375 
z
M 36.109375 0 
Q 38.78125 -3.03125 40.09375 -5.59375 
Q 41.421875 -8.15625 41.421875 -10.5 
Q 41.421875 -14.84375 38.484375 -17.0625 
Q 35.5625 -19.28125 29.796875 -19.28125 
Q 27.5625 -19.28125 25.4375 -18.984375 
Q 23.3125 -18.703125 21.203125 -18.109375 
L 21.203125 -11.71875 
Q 22.875 -12.546875 24.671875 -12.90625 
Q 26.484375 -13.28125 28.78125 -13.28125 
Q 31.65625 -13.28125 33.125 -12.109375 
Q 34.59375 -10.9375 34.59375 -8.6875 
Q 34.59375 -7.234375 33.53125 -5.109375 
Q 32.484375 -2.984375 30.296875 0 
z
" id="DejaVuSans-231"/>
      <path d="M 34.28125 27.484375 
Q 23.390625 27.484375 19.1875 25 
Q 14.984375 22.515625 14.984375 16.5 
Q 14.984375 11.71875 18.140625 8.90625 
Q 21.296875 6.109375 26.703125 6.109375 
Q 34.1875 6.109375 38.703125 11.40625 
Q 43.21875 16.703125 43.21875 25.484375 
L 43.21875 27.484375 
z
M 52.203125 31.203125 
L 52.203125 0 
L 43.21875 0 
L 43.21875 8.296875 
Q 40.140625 3.328125 35.546875 0.953125 
Q 30.953125 -1.421875 24.3125 -1.421875 
Q 15.921875 -1.421875 10.953125 3.296875 
Q 6 8.015625 6 15.921875 
Q 6 25.140625 12.171875 29.828125 
Q 18.359375 34.515625 30.609375 34.515625 
L 43.21875 34.515625 
L 43.21875 35.40625 
Q 43.21875 41.609375 39.140625 45 
Q 35.0625 48.390625 27.6875 48.390625 
Q 23 48.390625 18.546875 47.265625 
Q 14.109375 46.140625 10.015625 43.890625 
L 10.015625 52.203125 
Q 14.9375 54.109375 19.578125 55.046875 
Q 24.21875 56 28.609375 56 
Q 40.484375 56 46.34375 49.84375 
Q 52.203125 43.703125 52.203125 31.203125 
z
M 28.8125 66.890625 
L 26.015625 69.578125 
Q 24.953125 70.5625 24.140625 71.015625 
Q 23.34375 71.484375 22.703125 71.484375 
Q 20.84375 71.484375 19.96875 69.703125 
Q 19.09375 67.921875 18.984375 63.921875 
L 12.890625 63.921875 
Q 12.984375 70.515625 15.46875 74.09375 
Q 17.96875 77.6875 22.40625 77.6875 
Q 24.265625 77.6875 25.828125 77 
Q 27.390625 76.3125 29.203125 74.703125 
L 31.984375 72.015625 
Q 33.046875 71.046875 33.859375 70.578125 
Q 34.671875 70.125 35.296875 70.125 
Q 37.15625 70.125 38.03125 71.90625 
Q 38.90625 73.6875 39.015625 77.6875 
L 45.109375 77.6875 
Q 45.015625 71.09375 42.515625 67.5 
Q 40.03125 63.921875 35.59375 63.921875 
Q 33.734375 63.921875 32.171875 64.59375 
Q 30.609375 65.28125 28.8125 66.890625 
z
" id="DejaVuSans-227"/>
      <path d="M 30.609375 48.390625 
Q 23.390625 48.390625 19.1875 42.75 
Q 14.984375 37.109375 14.984375 27.296875 
Q 14.984375 17.484375 19.15625 11.84375 
Q 23.34375 6.203125 30.609375 6.203125 
Q 37.796875 6.203125 41.984375 11.859375 
Q 46.1875 17.53125 46.1875 27.296875 
Q 46.1875 37.015625 41.984375 42.703125 
Q 37.796875 48.390625 30.609375 48.390625 
z
M 30.609375 56 
Q 42.328125 56 49.015625 48.375 
Q 55.71875 40.765625 55.71875 27.296875 
Q 55.71875 13.875 49.015625 6.21875 
Q 42.328125 -1.421875 30.609375 -1.421875 
Q 18.84375 -1.421875 12.171875 6.21875 
Q 5.515625 13.875 5.515625 27.296875 
Q 5.515625 40.765625 12.171875 48.375 
Q 18.84375 56 30.609375 56 
z
" id="DejaVuSans-111"/>
      <path id="DejaVuSans-32"/>
      <path d="M 52 44.1875 
Q 55.375 50.25 60.0625 53.125 
Q 64.75 56 71.09375 56 
Q 79.640625 56 84.28125 50.015625 
Q 88.921875 44.046875 88.921875 33.015625 
L 88.921875 0 
L 79.890625 0 
L 79.890625 32.71875 
Q 79.890625 40.578125 77.09375 44.375 
Q 74.3125 48.1875 68.609375 48.1875 
Q 61.625 48.1875 57.5625 43.546875 
Q 53.515625 38.921875 53.515625 30.90625 
L 53.515625 0 
L 44.484375 0 
L 44.484375 32.71875 
Q 44.484375 40.625 41.703125 44.40625 
Q 38.921875 48.1875 33.109375 48.1875 
Q 26.21875 48.1875 22.15625 43.53125 
Q 18.109375 38.875 18.109375 30.90625 
L 18.109375 0 
L 9.078125 0 
L 9.078125 54.6875 
L 18.109375 54.6875 
L 18.109375 46.1875 
Q 21.1875 51.21875 25.484375 53.609375 
Q 29.78125 56 35.6875 56 
Q 41.65625 56 45.828125 52.96875 
Q 50 49.953125 52 44.1875 
z
" id="DejaVuSans-109"/>
      <path d="M 48.6875 27.296875 
Q 48.6875 37.203125 44.609375 42.84375 
Q 40.53125 48.484375 33.40625 48.484375 
Q 26.265625 48.484375 22.1875 42.84375 
Q 18.109375 37.203125 18.109375 27.296875 
Q 18.109375 17.390625 22.1875 11.75 
Q 26.265625 6.109375 33.40625 6.109375 
Q 40.53125 6.109375 44.609375 11.75 
Q 48.6875 17.390625 48.6875 27.296875 
z
M 18.109375 46.390625 
Q 20.953125 51.265625 25.265625 53.625 
Q 29.59375 56 35.59375 56 
Q 45.5625 56 51.78125 48.09375 
Q 58.015625 40.1875 58.015625 27.296875 
Q 58.015625 14.40625 51.78125 6.484375 
Q 45.5625 -1.421875 35.59375 -1.421875 
Q 29.59375 -1.421875 25.265625 0.953125 
Q 20.953125 3.328125 18.109375 8.203125 
L 18.109375 0 
L 9.078125 0 
L 9.078125 75.984375 
L 18.109375 75.984375 
z
" id="DejaVuSans-98"/>
      <path d="M 9.421875 54.6875 
L 18.40625 54.6875 
L 18.40625 0 
L 9.421875 0 
z
M 9.421875 75.984375 
L 18.40625 75.984375 
L 18.40625 64.59375 
L 9.421875 64.59375 
z
" id="DejaVuSans-105"/>
      <path d="M 9.421875 75.984375 
L 18.40625 75.984375 
L 18.40625 0 
L 9.421875 0 
z
" id="DejaVuSans-108"/>
      <path d="M 34.28125 27.484375 
Q 23.390625 27.484375 19.1875 25 
Q 14.984375 22.515625 14.984375 16.5 
Q 14.984375 11.71875 18.140625 8.90625 
Q 21.296875 6.109375 26.703125 6.109375 
Q 34.1875 6.109375 38.703125 11.40625 
Q 43.21875 16.703125 43.21875 25.484375 
L 43.21875 27.484375 
z
M 52.203125 31.203125 
L 52.203125 0 
L 43.21875 0 
L 43.21875 8.296875 
Q 40.140625 3.328125 35.546875 0.953125 
Q 30.953125 -1.421875 24.3125 -1.421875 
Q 15.921875 -1.421875 10.953125 3.296875 
Q 6 8.015625 6 15.921875 
Q 6 25.140625 12.171875 29.828125 
Q 18.359375 34.515625 30.609375 34.515625 
L 43.21875 34.515625 
L 43.21875 35.40625 
Q 43.21875 41.609375 39.140625 45 
Q 35.0625 48.390625 27.6875 48.390625 
Q 23 48.390625 18.546875 47.265625 
Q 14.109375 46.140625 10.015625 43.890625 
L 10.015625 52.203125 
Q 14.9375 54.109375 19.578125 55.046875 
Q 24.21875 56 28.609375 56 
Q 40.484375 56 46.34375 49.84375 
Q 52.203125 43.703125 52.203125 31.203125 
z
" id="DejaVuSans-97"/>
      <path d="M 31 75.875 
Q 24.46875 64.65625 21.28125 53.65625 
Q 18.109375 42.671875 18.109375 31.390625 
Q 18.109375 20.125 21.3125 9.0625 
Q 24.515625 -2 31 -13.1875 
L 23.1875 -13.1875 
Q 15.875 -1.703125 12.234375 9.375 
Q 8.59375 20.453125 8.59375 31.390625 
Q 8.59375 42.28125 12.203125 53.3125 
Q 15.828125 64.359375 23.1875 75.875 
z
" id="DejaVuSans-40"/>
      <path d="M 18.109375 8.203125 
L 18.109375 -20.796875 
L 9.078125 -20.796875 
L 9.078125 54.6875 
L 18.109375 54.6875 
L 18.109375 46.390625 
Q 20.953125 51.265625 25.265625 53.625 
Q 29.59375 56 35.59375 56 
Q 45.5625 56 51.78125 48.09375 
Q 58.015625 40.1875 58.015625 27.296875 
Q 58.015625 14.40625 51.78125 6.484375 
Q 45.5625 -1.421875 35.59375 -1.421875 
Q 29.59375 -1.421875 25.265625 0.953125 
Q 20.953125 3.328125 18.109375 8.203125 
z
M 48.6875 27.296875 
Q 48.6875 37.203125 44.609375 42.84375 
Q 40.53125 48.484375 33.40625 48.484375 
Q 26.265625 48.484375 22.1875 42.84375 
Q 18.109375 37.203125 18.109375 27.296875 
Q 18.109375 17.390625 22.1875 11.75 
Q 26.265625 6.109375 33.40625 6.109375 
Q 40.53125 6.109375 44.609375 11.75 
Q 48.6875 17.390625 48.6875 27.296875 
z
" id="DejaVuSans-112"/>
      <path d="M 41.109375 46.296875 
Q 39.59375 47.171875 37.8125 47.578125 
Q 36.03125 48 33.890625 48 
Q 26.265625 48 22.1875 43.046875 
Q 18.109375 38.09375 18.109375 28.8125 
L 18.109375 0 
L 9.078125 0 
L 9.078125 54.6875 
L 18.109375 54.6875 
L 18.109375 46.1875 
Q 20.953125 51.171875 25.484375 53.578125 
Q 30.03125 56 36.53125 56 
Q 37.453125 56 38.578125 55.875 
Q 39.703125 55.765625 41.0625 55.515625 
z
" id="DejaVuSans-114"/>
      <path d="M 48.78125 52.59375 
L 48.78125 44.1875 
Q 44.96875 46.296875 41.140625 47.34375 
Q 37.3125 48.390625 33.40625 48.390625 
Q 24.65625 48.390625 19.8125 42.84375 
Q 14.984375 37.3125 14.984375 27.296875 
Q 14.984375 17.28125 19.8125 11.734375 
Q 24.65625 6.203125 33.40625 6.203125 
Q 37.3125 6.203125 41.140625 7.25 
Q 44.96875 8.296875 48.78125 10.40625 
L 48.78125 2.09375 
Q 45.015625 0.34375 40.984375 -0.53125 
Q 36.96875 -1.421875 32.421875 -1.421875 
Q 20.0625 -1.421875 12.78125 6.34375 
Q 5.515625 14.109375 5.515625 27.296875 
Q 5.515625 40.671875 12.859375 48.328125 
Q 20.21875 56 33.015625 56 
Q 37.15625 56 41.109375 55.140625 
Q 45.0625 54.296875 48.78125 52.59375 
z
" id="DejaVuSans-99"/>
      <path d="M 54.890625 33.015625 
L 54.890625 0 
L 45.90625 0 
L 45.90625 32.71875 
Q 45.90625 40.484375 42.875 44.328125 
Q 39.84375 48.1875 33.796875 48.1875 
Q 26.515625 48.1875 22.3125 43.546875 
Q 18.109375 38.921875 18.109375 30.90625 
L 18.109375 0 
L 9.078125 0 
L 9.078125 54.6875 
L 18.109375 54.6875 
L 18.109375 46.1875 
Q 21.34375 51.125 25.703125 53.5625 
Q 30.078125 56 35.796875 56 
Q 45.21875 56 50.046875 50.171875 
Q 54.890625 44.34375 54.890625 33.015625 
z
" id="DejaVuSans-110"/>
      <path d="M 18.3125 70.21875 
L 18.3125 54.6875 
L 36.8125 54.6875 
L 36.8125 47.703125 
L 18.3125 47.703125 
L 18.3125 18.015625 
Q 18.3125 11.328125 20.140625 9.421875 
Q 21.96875 7.515625 27.59375 7.515625 
L 36.8125 7.515625 
L 36.8125 0 
L 27.59375 0 
Q 17.1875 0 13.234375 3.875 
Q 9.28125 7.765625 9.28125 18.015625 
L 9.28125 47.703125 
L 2.6875 47.703125 
L 2.6875 54.6875 
L 9.28125 54.6875 
L 9.28125 70.21875 
z
" id="DejaVuSans-116"/>
      <path d="M 8.015625 75.875 
L 15.828125 75.875 
Q 23.140625 64.359375 26.78125 53.3125 
Q 30.421875 42.28125 30.421875 31.390625 
Q 30.421875 20.453125 26.78125 9.375 
Q 23.140625 -1.703125 15.828125 -13.1875 
L 8.015625 -13.1875 
Q 14.5 -2 17.703125 9.0625 
Q 20.90625 20.125 20.90625 31.390625 
Q 20.90625 42.671875 17.703125 53.65625 
Q 14.5 64.65625 8.015625 75.875 
z
" id="DejaVuSans-41"/>
      <path d="M 47.015625 60.890625 
L 29.5 51.421875 
L 47.015625 41.890625 
L 44.1875 37.109375 
L 27.78125 47.015625 
L 27.78125 28.609375 
L 22.21875 28.609375 
L 22.21875 47.015625 
L 5.8125 37.109375 
L 2.984375 41.890625 
L 20.515625 51.421875 
L 2.984375 60.890625 
L 5.8125 65.71875 
L 22.21875 55.8125 
L 22.21875 74.21875 
L 27.78125 74.21875 
L 27.78125 55.8125 
L 44.1875 65.71875 
z
" id="DejaVuSans-42"/>
     </defs>
     <g style="fill:#262626;" transform="translate(218.181563 471.588437)scale(0.12 -0.12)">
      <use xlink:href="#DejaVuSans-82"/>
      <use x="69.419922" xlink:href="#DejaVuSans-101"/>
      <use x="130.943359" xlink:href="#DejaVuSans-100"/>
      <use x="194.419922" xlink:href="#DejaVuSans-117"/>
      <use x="257.798828" xlink:href="#DejaVuSans-231"/>
      <use x="312.779297" xlink:href="#DejaVuSans-227"/>
      <use x="374.058594" xlink:href="#DejaVuSans-111"/>
      <use x="435.240234" xlink:href="#DejaVuSans-32"/>
      <use x="467.027344" xlink:href="#DejaVuSans-101"/>
      <use x="528.550781" xlink:href="#DejaVuSans-109"/>
      <use x="625.962891" xlink:href="#DejaVuSans-32"/>
      <use x="657.75" xlink:href="#DejaVuSans-109"/>
      <use x="755.162109" xlink:href="#DejaVuSans-111"/>
      <use x="816.34375" xlink:href="#DejaVuSans-98"/>
      <use x="879.820312" xlink:href="#DejaVuSans-105"/>
      <use x="907.603516" xlink:href="#DejaVuSans-108"/>
      <use x="935.386719" xlink:href="#DejaVuSans-105"/>
      <use x="963.169922" xlink:href="#DejaVuSans-100"/>
      <use x="1026.646484" xlink:href="#DejaVuSans-97"/>
      <use x="1087.925781" xlink:href="#DejaVuSans-100"/>
      <use x="1151.402344" xlink:href="#DejaVuSans-101"/>
      <use x="1212.925781" xlink:href="#DejaVuSans-32"/>
      <use x="1244.712891" xlink:href="#DejaVuSans-40"/>
      <use x="1283.726562" xlink:href="#DejaVuSans-112"/>
      <use x="1347.203125" xlink:href="#DejaVuSans-101"/>
      <use x="1408.726562" xlink:href="#DejaVuSans-114"/>
      <use x="1449.808594" xlink:href="#DejaVuSans-99"/>
      <use x="1504.789062" xlink:href="#DejaVuSans-101"/>
      <use x="1566.3125" xlink:href="#DejaVuSans-110"/>
      <use x="1629.691406" xlink:href="#DejaVuSans-116"/>
      <use x="1668.900391" xlink:href="#DejaVuSans-117"/>
      <use x="1732.279297" xlink:href="#DejaVuSans-97"/>
      <use x="1793.558594" xlink:href="#DejaVuSans-108"/>
      <use x="1821.341797" xlink:href="#DejaVuSans-41"/>
      <use x="1860.355469" xlink:href="#DejaVuSans-42"/>
      <use x="1910.355469" xlink:href="#DejaVuSans-42"/>
     </g>
    </g>
   </g>
   <g id="matplotlib.axis_2">
    <g id="ytick_1">
     <g id="line2d_7">
      <path clip-path="url(#pe4a80620d5)" d="M 56.805938 419.988044 
L 614.805938 419.988044 
" style="fill:none;stroke:#ffffff;stroke-linecap:round;"/>
     </g>
     <g id="text_8">
      <!-- 1.00 -->
      <defs>
       <path d="M 12.40625 8.296875 
L 28.515625 8.296875 
L 28.515625 63.921875 
L 10.984375 60.40625 
L 10.984375 69.390625 
L 28.421875 72.90625 
L 38.28125 72.90625 
L 38.28125 8.296875 
L 54.390625 8.296875 
L 54.390625 0 
L 12.40625 0 
z
" id="DejaVuSans-49"/>
       <path d="M 10.6875 12.40625 
L 21 12.40625 
L 21 0 
L 10.6875 0 
z
" id="DejaVuSans-46"/>
      </defs>
      <g style="fill:#262626;" transform="translate(22.81375 424.167184)scale(0.11 -0.11)">
       <use xlink:href="#DejaVuSans-49"/>
       <use x="63.623047" xlink:href="#DejaVuSans-46"/>
       <use x="95.410156" xlink:href="#DejaVuSans-48"/>
       <use x="159.033203" xlink:href="#DejaVuSans-48"/>
      </g>
     </g>
    </g>
    <g id="ytick_2">
     <g id="line2d_8">
      <path clip-path="url(#pe4a80620d5)" d="M 56.805938 377.139932 
L 614.805938 377.139932 
" style="fill:none;stroke:#ffffff;stroke-linecap:round;"/>
     </g>
     <g id="text_9">
      <!-- 1.05 -->
      <defs>
       <path d="M 10.796875 72.90625 
L 49.515625 72.90625 
L 49.515625 64.59375 
L 19.828125 64.59375 
L 19.828125 46.734375 
Q 21.96875 47.46875 24.109375 47.828125 
Q 26.265625 48.1875 28.421875 48.1875 
Q 40.625 48.1875 47.75 41.5 
Q 54.890625 34.8125 54.890625 23.390625 
Q 54.890625 11.625 47.5625 5.09375 
Q 40.234375 -1.421875 26.90625 -1.421875 
Q 22.3125 -1.421875 17.546875 -0.640625 
Q 12.796875 0.140625 7.71875 1.703125 
L 7.71875 11.625 
Q 12.109375 9.234375 16.796875 8.0625 
Q 21.484375 6.890625 26.703125 6.890625 
Q 35.15625 6.890625 40.078125 11.328125 
Q 45.015625 15.765625 45.015625 23.390625 
Q 45.015625 31 40.078125 35.4375 
Q 35.15625 39.890625 26.703125 39.890625 
Q 22.75 39.890625 18.8125 39.015625 
Q 14.890625 38.140625 10.796875 36.28125 
z
" id="DejaVuSans-53"/>
      </defs>
      <g style="fill:#262626;" transform="translate(22.81375 381.319072)scale(0.11 -0.11)">
       <use xlink:href="#DejaVuSans-49"/>
       <use x="63.623047" xlink:href="#DejaVuSans-46"/>
       <use x="95.410156" xlink:href="#DejaVuSans-48"/>
       <use x="159.033203" xlink:href="#DejaVuSans-53"/>
      </g>
     </g>
    </g>
    <g id="ytick_3">
     <g id="line2d_9">
      <path clip-path="url(#pe4a80620d5)" d="M 56.805938 334.29182 
L 614.805938 334.29182 
" style="fill:none;stroke:#ffffff;stroke-linecap:round;"/>
     </g>
     <g id="text_10">
      <!-- 1.10 -->
      <g style="fill:#262626;" transform="translate(22.81375 338.47096)scale(0.11 -0.11)">
       <use xlink:href="#DejaVuSans-49"/>
       <use x="63.623047" xlink:href="#DejaVuSans-46"/>
       <use x="95.410156" xlink:href="#DejaVuSans-49"/>
       <use x="159.033203" xlink:href="#DejaVuSans-48"/>
      </g>
     </g>
    </g>
    <g id="ytick_4">
     <g id="line2d_10">
      <path clip-path="url(#pe4a80620d5)" d="M 56.805938 291.443708 
L 614.805938 291.443708 
" style="fill:none;stroke:#ffffff;stroke-linecap:round;"/>
     </g>
     <g id="text_11">
      <!-- 1.15 -->
      <g style="fill:#262626;" transform="translate(22.81375 295.622848)scale(0.11 -0.11)">
       <use xlink:href="#DejaVuSans-49"/>
       <use x="63.623047" xlink:href="#DejaVuSans-46"/>
       <use x="95.410156" xlink:href="#DejaVuSans-49"/>
       <use x="159.033203" xlink:href="#DejaVuSans-53"/>
      </g>
     </g>
    </g>
    <g id="ytick_5">
     <g id="line2d_11">
      <path clip-path="url(#pe4a80620d5)" d="M 56.805938 248.595596 
L 614.805938 248.595596 
" style="fill:none;stroke:#ffffff;stroke-linecap:round;"/>
     </g>
     <g id="text_12">
      <!-- 1.20 -->
      <g style="fill:#262626;" transform="translate(22.81375 252.774736)scale(0.11 -0.11)">
       <use xlink:href="#DejaVuSans-49"/>
       <use x="63.623047" xlink:href="#DejaVuSans-46"/>
       <use x="95.410156" xlink:href="#DejaVuSans-50"/>
       <use x="159.033203" xlink:href="#DejaVuSans-48"/>
      </g>
     </g>
    </g>
    <g id="ytick_6">
     <g id="line2d_12">
      <path clip-path="url(#pe4a80620d5)" d="M 56.805938 205.747483 
L 614.805938 205.747483 
" style="fill:none;stroke:#ffffff;stroke-linecap:round;"/>
     </g>
     <g id="text_13">
      <!-- 1.25 -->
      <g style="fill:#262626;" transform="translate(22.81375 209.926624)scale(0.11 -0.11)">
       <use xlink:href="#DejaVuSans-49"/>
       <use x="63.623047" xlink:href="#DejaVuSans-46"/>
       <use x="95.410156" xlink:href="#DejaVuSans-50"/>
       <use x="159.033203" xlink:href="#DejaVuSans-53"/>
      </g>
     </g>
    </g>
    <g id="ytick_7">
     <g id="line2d_13">
      <path clip-path="url(#pe4a80620d5)" d="M 56.805938 162.899371 
L 614.805938 162.899371 
" style="fill:none;stroke:#ffffff;stroke-linecap:round;"/>
     </g>
     <g id="text_14">
      <!-- 1.30 -->
      <defs>
       <path d="M 40.578125 39.3125 
Q 47.65625 37.796875 51.625 33 
Q 55.609375 28.21875 55.609375 21.1875 
Q 55.609375 10.40625 48.1875 4.484375 
Q 40.765625 -1.421875 27.09375 -1.421875 
Q 22.515625 -1.421875 17.65625 -0.515625 
Q 12.796875 0.390625 7.625 2.203125 
L 7.625 11.71875 
Q 11.71875 9.328125 16.59375 8.109375 
Q 21.484375 6.890625 26.8125 6.890625 
Q 36.078125 6.890625 40.9375 10.546875 
Q 45.796875 14.203125 45.796875 21.1875 
Q 45.796875 27.640625 41.28125 31.265625 
Q 36.765625 34.90625 28.71875 34.90625 
L 20.21875 34.90625 
L 20.21875 43.015625 
L 29.109375 43.015625 
Q 36.375 43.015625 40.234375 45.921875 
Q 44.09375 48.828125 44.09375 54.296875 
Q 44.09375 59.90625 40.109375 62.90625 
Q 36.140625 65.921875 28.71875 65.921875 
Q 24.65625 65.921875 20.015625 65.03125 
Q 15.375 64.15625 9.8125 62.3125 
L 9.8125 71.09375 
Q 15.4375 72.65625 20.34375 73.4375 
Q 25.25 74.21875 29.59375 74.21875 
Q 40.828125 74.21875 47.359375 69.109375 
Q 53.90625 64.015625 53.90625 55.328125 
Q 53.90625 49.265625 50.4375 45.09375 
Q 46.96875 40.921875 40.578125 39.3125 
z
" id="DejaVuSans-51"/>
      </defs>
      <g style="fill:#262626;" transform="translate(22.81375 167.078512)scale(0.11 -0.11)">
       <use xlink:href="#DejaVuSans-49"/>
       <use x="63.623047" xlink:href="#DejaVuSans-46"/>
       <use x="95.410156" xlink:href="#DejaVuSans-51"/>
       <use x="159.033203" xlink:href="#DejaVuSans-48"/>
      </g>
     </g>
    </g>
    <g id="ytick_8">
     <g id="line2d_14">
      <path clip-path="url(#pe4a80620d5)" d="M 56.805938 120.051259 
L 614.805938 120.051259 
" style="fill:none;stroke:#ffffff;stroke-linecap:round;"/>
     </g>
     <g id="text_15">
      <!-- 1.35 -->
      <g style="fill:#262626;" transform="translate(22.81375 124.2304)scale(0.11 -0.11)">
       <use xlink:href="#DejaVuSans-49"/>
       <use x="63.623047" xlink:href="#DejaVuSans-46"/>
       <use x="95.410156" xlink:href="#DejaVuSans-51"/>
       <use x="159.033203" xlink:href="#DejaVuSans-53"/>
      </g>
     </g>
    </g>
    <g id="ytick_9">
     <g id="line2d_15">
      <path clip-path="url(#pe4a80620d5)" d="M 56.805938 77.203147 
L 614.805938 77.203147 
" style="fill:none;stroke:#ffffff;stroke-linecap:round;"/>
     </g>
     <g id="text_16">
      <!-- 1.40 -->
      <g style="fill:#262626;" transform="translate(22.81375 81.382288)scale(0.11 -0.11)">
       <use xlink:href="#DejaVuSans-49"/>
       <use x="63.623047" xlink:href="#DejaVuSans-46"/>
       <use x="95.410156" xlink:href="#DejaVuSans-52"/>
       <use x="159.033203" xlink:href="#DejaVuSans-48"/>
      </g>
     </g>
    </g>
    <g id="text_17">
     <!-- Taxa de crescimento diária de mortes* -->
     <defs>
      <path d="M -0.296875 72.90625 
L 61.375 72.90625 
L 61.375 64.59375 
L 35.5 64.59375 
L 35.5 0 
L 25.59375 0 
L 25.59375 64.59375 
L -0.296875 64.59375 
z
" id="DejaVuSans-84"/>
      <path d="M 54.890625 54.6875 
L 35.109375 28.078125 
L 55.90625 0 
L 45.3125 0 
L 29.390625 21.484375 
L 13.484375 0 
L 2.875 0 
L 24.125 28.609375 
L 4.6875 54.6875 
L 15.28125 54.6875 
L 29.78125 35.203125 
L 44.28125 54.6875 
z
" id="DejaVuSans-120"/>
      <path d="M 44.28125 53.078125 
L 44.28125 44.578125 
Q 40.484375 46.53125 36.375 47.5 
Q 32.28125 48.484375 27.875 48.484375 
Q 21.1875 48.484375 17.84375 46.4375 
Q 14.5 44.390625 14.5 40.28125 
Q 14.5 37.15625 16.890625 35.375 
Q 19.28125 33.59375 26.515625 31.984375 
L 29.59375 31.296875 
Q 39.15625 29.25 43.1875 25.515625 
Q 47.21875 21.78125 47.21875 15.09375 
Q 47.21875 7.46875 41.1875 3.015625 
Q 35.15625 -1.421875 24.609375 -1.421875 
Q 20.21875 -1.421875 15.453125 -0.5625 
Q 10.6875 0.296875 5.421875 2 
L 5.421875 11.28125 
Q 10.40625 8.6875 15.234375 7.390625 
Q 20.0625 6.109375 24.8125 6.109375 
Q 31.15625 6.109375 34.5625 8.28125 
Q 37.984375 10.453125 37.984375 14.40625 
Q 37.984375 18.0625 35.515625 20.015625 
Q 33.0625 21.96875 24.703125 23.78125 
L 21.578125 24.515625 
Q 13.234375 26.265625 9.515625 29.90625 
Q 5.8125 33.546875 5.8125 39.890625 
Q 5.8125 47.609375 11.28125 51.796875 
Q 16.75 56 26.8125 56 
Q 31.78125 56 36.171875 55.265625 
Q 40.578125 54.546875 44.28125 53.078125 
z
" id="DejaVuSans-115"/>
      <path d="M 34.28125 27.484375 
Q 23.390625 27.484375 19.1875 25 
Q 14.984375 22.515625 14.984375 16.5 
Q 14.984375 11.71875 18.140625 8.90625 
Q 21.296875 6.109375 26.703125 6.109375 
Q 34.1875 6.109375 38.703125 11.40625 
Q 43.21875 16.703125 43.21875 25.484375 
L 43.21875 27.484375 
z
M 52.203125 31.203125 
L 52.203125 0 
L 43.21875 0 
L 43.21875 8.296875 
Q 40.140625 3.328125 35.546875 0.953125 
Q 30.953125 -1.421875 24.3125 -1.421875 
Q 15.921875 -1.421875 10.953125 3.296875 
Q 6 8.015625 6 15.921875 
Q 6 25.140625 12.171875 29.828125 
Q 18.359375 34.515625 30.609375 34.515625 
L 43.21875 34.515625 
L 43.21875 35.40625 
Q 43.21875 41.609375 39.140625 45 
Q 35.0625 48.390625 27.6875 48.390625 
Q 23 48.390625 18.546875 47.265625 
Q 14.109375 46.140625 10.015625 43.890625 
L 10.015625 52.203125 
Q 14.9375 54.109375 19.578125 55.046875 
Q 24.21875 56 28.609375 56 
Q 40.484375 56 46.34375 49.84375 
Q 52.203125 43.703125 52.203125 31.203125 
z
M 35.78125 79.984375 
L 45.5 79.984375 
L 29.59375 61.625 
L 22.109375 61.625 
z
" id="DejaVuSans-225"/>
     </defs>
     <g style="fill:#262626;" transform="translate(16.318125 364.975312)rotate(-90)scale(0.12 -0.12)">
      <use xlink:href="#DejaVuSans-84"/>
      <use x="60.833984" xlink:href="#DejaVuSans-97"/>
      <use x="122.113281" xlink:href="#DejaVuSans-120"/>
      <use x="181.292969" xlink:href="#DejaVuSans-97"/>
      <use x="242.572266" xlink:href="#DejaVuSans-32"/>
      <use x="274.359375" xlink:href="#DejaVuSans-100"/>
      <use x="337.835938" xlink:href="#DejaVuSans-101"/>
      <use x="399.359375" xlink:href="#DejaVuSans-32"/>
      <use x="431.146484" xlink:href="#DejaVuSans-99"/>
      <use x="486.126953" xlink:href="#DejaVuSans-114"/>
      <use x="527.208984" xlink:href="#DejaVuSans-101"/>
      <use x="588.732422" xlink:href="#DejaVuSans-115"/>
      <use x="640.832031" xlink:href="#DejaVuSans-99"/>
      <use x="695.8125" xlink:href="#DejaVuSans-105"/>
      <use x="723.595703" xlink:href="#DejaVuSans-109"/>
      <use x="821.007812" xlink:href="#DejaVuSans-101"/>
      <use x="882.53125" xlink:href="#DejaVuSans-110"/>
      <use x="945.910156" xlink:href="#DejaVuSans-116"/>
      <use x="985.119141" xlink:href="#DejaVuSans-111"/>
      <use x="1046.300781" xlink:href="#DejaVuSans-32"/>
      <use x="1078.087891" xlink:href="#DejaVuSans-100"/>
      <use x="1141.564453" xlink:href="#DejaVuSans-105"/>
      <use x="1169.347656" xlink:href="#DejaVuSans-225"/>
      <use x="1230.626953" xlink:href="#DejaVuSans-114"/>
      <use x="1271.740234" xlink:href="#DejaVuSans-105"/>
      <use x="1299.523438" xlink:href="#DejaVuSans-97"/>
      <use x="1360.802734" xlink:href="#DejaVuSans-32"/>
      <use x="1392.589844" xlink:href="#DejaVuSans-100"/>
      <use x="1456.066406" xlink:href="#DejaVuSans-101"/>
      <use x="1517.589844" xlink:href="#DejaVuSans-32"/>
      <use x="1549.376953" xlink:href="#DejaVuSans-109"/>
      <use x="1646.789062" xlink:href="#DejaVuSans-111"/>
      <use x="1707.970703" xlink:href="#DejaVuSans-114"/>
      <use x="1749.083984" xlink:href="#DejaVuSans-116"/>
      <use x="1788.292969" xlink:href="#DejaVuSans-101"/>
      <use x="1849.816406" xlink:href="#DejaVuSans-115"/>
      <use x="1901.916016" xlink:href="#DejaVuSans-42"/>
     </g>
    </g>
   </g>
   <g id="PathCollection_1">
    <defs>
     <path d="M 0 3 
C 0.795609 3 1.55874 2.683901 2.12132 2.12132 
C 2.683901 1.55874 3 0.795609 3 0 
C 3 -0.795609 2.683901 -1.55874 2.12132 -2.12132 
C 1.55874 -2.683901 0.795609 -3 0 -3 
C -0.795609 -3 -1.55874 -2.683901 -2.12132 -2.12132 
C -2.683901 -1.55874 -3 -0.795609 -3 0 
C -3 0.795609 -2.683901 1.55874 -2.12132 2.12132 
C -1.55874 2.683901 -0.795609 3 0 3 
z
" id="mc46be69341" style="stroke:#4c72b0;stroke-opacity:0.8;"/>
    </defs>
    <g clip-path="url(#pe4a80620d5)">
     <use style="fill:#4c72b0;fill-opacity:0.8;stroke:#4c72b0;stroke-opacity:0.8;" x="226.93359" xlink:href="#mc46be69341" y="419.988044"/>
     <use style="fill:#4c72b0;fill-opacity:0.8;stroke:#4c72b0;stroke-opacity:0.8;" x="375.26303" xlink:href="#mc46be69341" y="419.988044"/>
     <use style="fill:#4c72b0;fill-opacity:0.8;stroke:#4c72b0;stroke-opacity:0.8;" x="449.793094" xlink:href="#mc46be69341" y="411.263785"/>
     <use style="fill:#4c72b0;fill-opacity:0.8;stroke:#4c72b0;stroke-opacity:0.8;" x="272.966864" xlink:href="#mc46be69341" y="411.263785"/>
     <use style="fill:#4c72b0;fill-opacity:0.8;stroke:#4c72b0;stroke-opacity:0.8;" x="582.778109" xlink:href="#mc46be69341" y="403.818273"/>
     <use style="fill:#4c72b0;fill-opacity:0.8;stroke:#4c72b0;stroke-opacity:0.8;" x="462.945458" xlink:href="#mc46be69341" y="403.818273"/>
     <use style="fill:#4c72b0;fill-opacity:0.8;stroke:#4c72b0;stroke-opacity:0.8;" x="462.945458" xlink:href="#mc46be69341" y="403.818273"/>
     <use style="fill:#4c72b0;fill-opacity:0.8;stroke:#4c72b0;stroke-opacity:0.8;" x="386.223334" xlink:href="#mc46be69341" y="397.316937"/>
     <use style="fill:#4c72b0;fill-opacity:0.8;stroke:#4c72b0;stroke-opacity:0.8;" x="521.40041" xlink:href="#mc46be69341" y="397.316937"/>
     <use style="fill:#4c72b0;fill-opacity:0.8;stroke:#4c72b0;stroke-opacity:0.8;" x="276.620299" xlink:href="#mc46be69341" y="397.316937"/>
     <use style="fill:#4c72b0;fill-opacity:0.8;stroke:#4c72b0;stroke-opacity:0.8;" x="362.110666" xlink:href="#mc46be69341" y="397.316937"/>
     <use style="fill:#4c72b0;fill-opacity:0.8;stroke:#4c72b0;stroke-opacity:0.8;" x="395.722263" xlink:href="#mc46be69341" y="397.316937"/>
     <use style="fill:#4c72b0;fill-opacity:0.8;stroke:#4c72b0;stroke-opacity:0.8;" x="284.657855" xlink:href="#mc46be69341" y="397.316937"/>
     <use style="fill:#4c72b0;fill-opacity:0.8;stroke:#4c72b0;stroke-opacity:0.8;" x="495.095681" xlink:href="#mc46be69341" y="397.316937"/>
     <use style="fill:#4c72b0;fill-opacity:0.8;stroke:#4c72b0;stroke-opacity:0.8;" x="353.342423" xlink:href="#mc46be69341" y="395.319762"/>
     <use style="fill:#4c72b0;fill-opacity:0.8;stroke:#4c72b0;stroke-opacity:0.8;" x="528.707279" xlink:href="#mc46be69341" y="391.542181"/>
     <use style="fill:#4c72b0;fill-opacity:0.8;stroke:#4c72b0;stroke-opacity:0.8;" x="479.02057" xlink:href="#mc46be69341" y="391.542181"/>
     <use style="fill:#4c72b0;fill-opacity:0.8;stroke:#4c72b0;stroke-opacity:0.8;" x="465.868205" xlink:href="#mc46be69341" y="391.542181"/>
     <use style="fill:#4c72b0;fill-opacity:0.8;stroke:#4c72b0;stroke-opacity:0.8;" x="319.730826" xlink:href="#mc46be69341" y="391.542181"/>
     <use style="fill:#4c72b0;fill-opacity:0.8;stroke:#4c72b0;stroke-opacity:0.8;" x="404.490506" xlink:href="#mc46be69341" y="386.344369"/>
     <use style="fill:#4c72b0;fill-opacity:0.8;stroke:#4c72b0;stroke-opacity:0.8;" x="427.872487" xlink:href="#mc46be69341" y="386.344369"/>
     <use style="fill:#4c72b0;fill-opacity:0.8;stroke:#4c72b0;stroke-opacity:0.8;" x="451.254467" xlink:href="#mc46be69341" y="386.344369"/>
     <use style="fill:#4c72b0;fill-opacity:0.8;stroke:#4c72b0;stroke-opacity:0.8;" x="205.012983" xlink:href="#mc46be69341" y="381.616095"/>
     <use style="fill:#4c72b0;fill-opacity:0.8;stroke:#4c72b0;stroke-opacity:0.8;" x="377.455091" xlink:href="#mc46be69341" y="378.684533"/>
     <use style="fill:#4c72b0;fill-opacity:0.8;stroke:#4c72b0;stroke-opacity:0.8;" x="354.07311" xlink:href="#mc46be69341" y="377.277603"/>
     <use style="fill:#4c72b0;fill-opacity:0.8;stroke:#4c72b0;stroke-opacity:0.8;" x="308.770522" xlink:href="#mc46be69341" y="377.277603"/>
     <use style="fill:#4c72b0;fill-opacity:0.8;stroke:#4c72b0;stroke-opacity:0.8;" x="355.534484" xlink:href="#mc46be69341" y="373.268015"/>
     <use style="fill:#4c72b0;fill-opacity:0.8;stroke:#4c72b0;stroke-opacity:0.8;" x="302.925027" xlink:href="#mc46be69341" y="369.539786"/>
     <use style="fill:#4c72b0;fill-opacity:0.8;stroke:#4c72b0;stroke-opacity:0.8;" x="348.227615" xlink:href="#mc46be69341" y="366.055065"/>
     <use style="fill:#4c72b0;fill-opacity:0.8;stroke:#4c72b0;stroke-opacity:0.8;" x="283.196481" xlink:href="#mc46be69341" y="366.055065"/>
     <use style="fill:#4c72b0;fill-opacity:0.8;stroke:#4c72b0;stroke-opacity:0.8;" x="399.375698" xlink:href="#mc46be69341" y="362.783212"/>
     <use style="fill:#4c72b0;fill-opacity:0.8;stroke:#4c72b0;stroke-opacity:0.8;" x="404.490506" xlink:href="#mc46be69341" y="360.70763"/>
     <use style="fill:#4c72b0;fill-opacity:0.8;stroke:#4c72b0;stroke-opacity:0.8;" x="324.114947" xlink:href="#mc46be69341" y="360.70763"/>
     <use style="fill:#4c72b0;fill-opacity:0.8;stroke:#4c72b0;stroke-opacity:0.8;" x="276.620299" xlink:href="#mc46be69341" y="359.699075"/>
     <use style="fill:#4c72b0;fill-opacity:0.8;stroke:#4c72b0;stroke-opacity:0.8;" x="291.234037" xlink:href="#mc46be69341" y="358.220726"/>
     <use style="fill:#4c72b0;fill-opacity:0.8;stroke:#4c72b0;stroke-opacity:0.8;" x="281.00442" xlink:href="#mc46be69341" y="356.781744"/>
     <use style="fill:#4c72b0;fill-opacity:0.8;stroke:#4c72b0;stroke-opacity:0.8;" x="411.797375" xlink:href="#mc46be69341" y="354.013647"/>
     <use style="fill:#4c72b0;fill-opacity:0.8;stroke:#4c72b0;stroke-opacity:0.8;" x="272.966864" xlink:href="#mc46be69341" y="354.013647"/>
     <use style="fill:#4c72b0;fill-opacity:0.8;stroke:#4c72b0;stroke-opacity:0.8;" x="406.682567" xlink:href="#mc46be69341" y="354.013647"/>
     <use style="fill:#4c72b0;fill-opacity:0.8;stroke:#4c72b0;stroke-opacity:0.8;" x="335.075251" xlink:href="#mc46be69341" y="351.37987"/>
     <use style="fill:#4c72b0;fill-opacity:0.8;stroke:#4c72b0;stroke-opacity:0.8;" x="82.257584" xlink:href="#mc46be69341" y="348.867649"/>
     <use style="fill:#4c72b0;fill-opacity:0.8;stroke:#4c72b0;stroke-opacity:0.8;" x="353.342423" xlink:href="#mc46be69341" y="341.95715"/>
     <use style="fill:#4c72b0;fill-opacity:0.8;stroke:#4c72b0;stroke-opacity:0.8;" x="175.05482" xlink:href="#mc46be69341" y="341.597605"/>
     <use style="fill:#4c72b0;fill-opacity:0.8;stroke:#4c72b0;stroke-opacity:0.8;" x="362.841353" xlink:href="#mc46be69341" y="339.834283"/>
     <use style="fill:#4c72b0;fill-opacity:0.8;stroke:#4c72b0;stroke-opacity:0.8;" x="589.354291" xlink:href="#mc46be69341" y="338.125624"/>
     <use style="fill:#4c72b0;fill-opacity:0.8;stroke:#4c72b0;stroke-opacity:0.8;" x="399.375698" xlink:href="#mc46be69341" y="333.915553"/>
     <use style="fill:#4c72b0;fill-opacity:0.8;stroke:#4c72b0;stroke-opacity:0.8;" x="184.553749" xlink:href="#mc46be69341" y="333.915553"/>
     <use style="fill:#4c72b0;fill-opacity:0.8;stroke:#4c72b0;stroke-opacity:0.8;" x="532.360713" xlink:href="#mc46be69341" y="331.560514"/>
     <use style="fill:#4c72b0;fill-opacity:0.8;stroke:#4c72b0;stroke-opacity:0.8;" x="440.294164" xlink:href="#mc46be69341" y="330.294023"/>
     <use style="fill:#4c72b0;fill-opacity:0.8;stroke:#4c72b0;stroke-opacity:0.8;" x="430.795234" xlink:href="#mc46be69341" y="328.567969"/>
     <use style="fill:#4c72b0;fill-opacity:0.8;stroke:#4c72b0;stroke-opacity:0.8;" x="447.601033" xlink:href="#mc46be69341" y="326.075043"/>
     <use style="fill:#4c72b0;fill-opacity:0.8;stroke:#4c72b0;stroke-opacity:0.8;" x="351.881049" xlink:href="#mc46be69341" y="325.268175"/>
     <use style="fill:#4c72b0;fill-opacity:0.8;stroke:#4c72b0;stroke-opacity:0.8;" x="338.728685" xlink:href="#mc46be69341" y="320.656639"/>
     <use style="fill:#4c72b0;fill-opacity:0.8;stroke:#4c72b0;stroke-opacity:0.8;" x="352.611736" xlink:href="#mc46be69341" y="318.485411"/>
     <use style="fill:#4c72b0;fill-opacity:0.8;stroke:#4c72b0;stroke-opacity:0.8;" x="311.69327" xlink:href="#mc46be69341" y="317.779869"/>
     <use style="fill:#4c72b0;fill-opacity:0.8;stroke:#4c72b0;stroke-opacity:0.8;" x="408.874627" xlink:href="#mc46be69341" y="316.394708"/>
     <use style="fill:#4c72b0;fill-opacity:0.8;stroke:#4c72b0;stroke-opacity:0.8;" x="419.834931" xlink:href="#mc46be69341" y="315.042692"/>
     <use style="fill:#4c72b0;fill-opacity:0.8;stroke:#4c72b0;stroke-opacity:0.8;" x="304.386401" xlink:href="#mc46be69341" y="315.042692"/>
     <use style="fill:#4c72b0;fill-opacity:0.8;stroke:#4c72b0;stroke-opacity:0.8;" x="416.912183" xlink:href="#mc46be69341" y="313.722231"/>
     <use style="fill:#4c72b0;fill-opacity:0.8;stroke:#4c72b0;stroke-opacity:0.8;" x="290.50335" xlink:href="#mc46be69341" y="312.249875"/>
     <use style="fill:#4c72b0;fill-opacity:0.8;stroke:#4c72b0;stroke-opacity:0.8;" x="343.112806" xlink:href="#mc46be69341" y="306.222256"/>
     <use style="fill:#4c72b0;fill-opacity:0.8;stroke:#4c72b0;stroke-opacity:0.8;" x="280.273733" xlink:href="#mc46be69341" y="304.876383"/>
     <use style="fill:#4c72b0;fill-opacity:0.8;stroke:#4c72b0;stroke-opacity:0.8;" x="340.920746" xlink:href="#mc46be69341" y="303.724183"/>
     <use style="fill:#4c72b0;fill-opacity:0.8;stroke:#4c72b0;stroke-opacity:0.8;" x="438.83279" xlink:href="#mc46be69341" y="303.043834"/>
     <use style="fill:#4c72b0;fill-opacity:0.8;stroke:#4c72b0;stroke-opacity:0.8;" x="450.523781" xlink:href="#mc46be69341" y="301.971806"/>
     <use style="fill:#4c72b0;fill-opacity:0.8;stroke:#4c72b0;stroke-opacity:0.8;" x="478.289883" xlink:href="#mc46be69341" y="299.886033"/>
     <use style="fill:#4c72b0;fill-opacity:0.8;stroke:#4c72b0;stroke-opacity:0.8;" x="298.540906" xlink:href="#mc46be69341" y="297.873313"/>
     <use style="fill:#4c72b0;fill-opacity:0.8;stroke:#4c72b0;stroke-opacity:0.8;" x="213.050539" xlink:href="#mc46be69341" y="297.873313"/>
     <use style="fill:#4c72b0;fill-opacity:0.8;stroke:#4c72b0;stroke-opacity:0.8;" x="479.02057" xlink:href="#mc46be69341" y="297.873313"/>
     <use style="fill:#4c72b0;fill-opacity:0.8;stroke:#4c72b0;stroke-opacity:0.8;" x="242.278014" xlink:href="#mc46be69341" y="294.047225"/>
     <use style="fill:#4c72b0;fill-opacity:0.8;stroke:#4c72b0;stroke-opacity:0.8;" x="403.029132" xlink:href="#mc46be69341" y="293.129031"/>
     <use style="fill:#4c72b0;fill-opacity:0.8;stroke:#4c72b0;stroke-opacity:0.8;" x="253.969005" xlink:href="#mc46be69341" y="293.129031"/>
     <use style="fill:#4c72b0;fill-opacity:0.8;stroke:#4c72b0;stroke-opacity:0.8;" x="465.137519" xlink:href="#mc46be69341" y="290.458703"/>
     <use style="fill:#4c72b0;fill-opacity:0.8;stroke:#4c72b0;stroke-opacity:0.8;" x="473.905761" xlink:href="#mc46be69341" y="285.995011"/>
     <use style="fill:#4c72b0;fill-opacity:0.8;stroke:#4c72b0;stroke-opacity:0.8;" x="380.377838" xlink:href="#mc46be69341" y="284.014867"/>
     <use style="fill:#4c72b0;fill-opacity:0.8;stroke:#4c72b0;stroke-opacity:0.8;" x="354.07311" xlink:href="#mc46be69341" y="283.885216"/>
     <use style="fill:#4c72b0;fill-opacity:0.8;stroke:#4c72b0;stroke-opacity:0.8;" x="314.616017" xlink:href="#mc46be69341" y="282.09966"/>
     <use style="fill:#4c72b0;fill-opacity:0.8;stroke:#4c72b0;stroke-opacity:0.8;" x="403.029132" xlink:href="#mc46be69341" y="275.906643"/>
     <use style="fill:#4c72b0;fill-opacity:0.8;stroke:#4c72b0;stroke-opacity:0.8;" x="495.826368" xlink:href="#mc46be69341" y="270.200785"/>
     <use style="fill:#4c72b0;fill-opacity:0.8;stroke:#4c72b0;stroke-opacity:0.8;" x="336.536624" xlink:href="#mc46be69341" y="264.249358"/>
     <use style="fill:#4c72b0;fill-opacity:0.8;stroke:#4c72b0;stroke-opacity:0.8;" x="485.596752" xlink:href="#mc46be69341" y="262.061825"/>
     <use style="fill:#4c72b0;fill-opacity:0.8;stroke:#4c72b0;stroke-opacity:0.8;" x="504.594611" xlink:href="#mc46be69341" y="260.997411"/>
     <use style="fill:#4c72b0;fill-opacity:0.8;stroke:#4c72b0;stroke-opacity:0.8;" x="301.463653" xlink:href="#mc46be69341" y="260.734245"/>
     <use style="fill:#4c72b0;fill-opacity:0.8;stroke:#4c72b0;stroke-opacity:0.8;" x="243.739388" xlink:href="#mc46be69341" y="256.002706"/>
     <use style="fill:#4c72b0;fill-opacity:0.8;stroke:#4c72b0;stroke-opacity:0.8;" x="493.634308" xlink:href="#mc46be69341" y="255.185022"/>
     <use style="fill:#4c72b0;fill-opacity:0.8;stroke:#4c72b0;stroke-opacity:0.8;" x="169.209325" xlink:href="#mc46be69341" y="252.183547"/>
     <use style="fill:#4c72b0;fill-opacity:0.8;stroke:#4c72b0;stroke-opacity:0.8;" x="536.744835" xlink:href="#mc46be69341" y="247.190632"/>
     <use style="fill:#4c72b0;fill-opacity:0.8;stroke:#4c72b0;stroke-opacity:0.8;" x="306.578462" xlink:href="#mc46be69341" y="242.071311"/>
     <use style="fill:#4c72b0;fill-opacity:0.8;stroke:#4c72b0;stroke-opacity:0.8;" x="224.741529" xlink:href="#mc46be69341" y="239.124528"/>
     <use style="fill:#4c72b0;fill-opacity:0.8;stroke:#4c72b0;stroke-opacity:0.8;" x="437.371416" xlink:href="#mc46be69341" y="236.757668"/>
     <use style="fill:#4c72b0;fill-opacity:0.8;stroke:#4c72b0;stroke-opacity:0.8;" x="396.45295" xlink:href="#mc46be69341" y="234.527612"/>
     <use style="fill:#4c72b0;fill-opacity:0.8;stroke:#4c72b0;stroke-opacity:0.8;" x="226.93359" xlink:href="#mc46be69341" y="224.657128"/>
     <use style="fill:#4c72b0;fill-opacity:0.8;stroke:#4c72b0;stroke-opacity:0.8;" x="188.207184" xlink:href="#mc46be69341" y="222.019102"/>
     <use style="fill:#4c72b0;fill-opacity:0.8;stroke:#4c72b0;stroke-opacity:0.8;" x="308.770522" xlink:href="#mc46be69341" y="219.711595"/>
     <use style="fill:#4c72b0;fill-opacity:0.8;stroke:#4c72b0;stroke-opacity:0.8;" x="286.119228" xlink:href="#mc46be69341" y="216.110514"/>
     <use style="fill:#4c72b0;fill-opacity:0.8;stroke:#4c72b0;stroke-opacity:0.8;" x="430.795234" xlink:href="#mc46be69341" y="209.819251"/>
     <use style="fill:#4c72b0;fill-opacity:0.8;stroke:#4c72b0;stroke-opacity:0.8;" x="296.348845" xlink:href="#mc46be69341" y="190.064195"/>
     <use style="fill:#4c72b0;fill-opacity:0.8;stroke:#4c72b0;stroke-opacity:0.8;" x="327.037695" xlink:href="#mc46be69341" y="183.022553"/>
     <use style="fill:#4c72b0;fill-opacity:0.8;stroke:#4c72b0;stroke-opacity:0.8;" x="148.019405" xlink:href="#mc46be69341" y="175.924931"/>
     <use style="fill:#4c72b0;fill-opacity:0.8;stroke:#4c72b0;stroke-opacity:0.8;" x="192.591305" xlink:href="#mc46be69341" y="172.465932"/>
     <use style="fill:#4c72b0;fill-opacity:0.8;stroke:#4c72b0;stroke-opacity:0.8;" x="141.443222" xlink:href="#mc46be69341" y="154.954621"/>
     <use style="fill:#4c72b0;fill-opacity:0.8;stroke:#4c72b0;stroke-opacity:0.8;" x="143.635283" xlink:href="#mc46be69341" y="138.588646"/>
     <use style="fill:#4c72b0;fill-opacity:0.8;stroke:#4c72b0;stroke-opacity:0.8;" x="217.43466" xlink:href="#mc46be69341" y="137.276097"/>
     <use style="fill:#4c72b0;fill-opacity:0.8;stroke:#4c72b0;stroke-opacity:0.8;" x="302.925027" xlink:href="#mc46be69341" y="125.989201"/>
     <use style="fill:#4c72b0;fill-opacity:0.8;stroke:#4c72b0;stroke-opacity:0.8;" x="125.368111" xlink:href="#mc46be69341" y="75.731956"/>
    </g>
   </g>
   <g id="PolyCollection_1">
    <defs>
     <path d="M 56.805938 -348.621537 
L 56.805938 -255.209645 
L 62.442301 -254.562414 
L 68.078665 -253.915183 
L 73.715028 -253.265762 
L 79.351392 -252.615043 
L 84.987756 -251.964324 
L 90.624119 -251.313604 
L 96.260483 -250.662885 
L 101.896847 -250.012166 
L 107.53321 -249.361447 
L 113.169574 -248.710728 
L 118.805938 -248.060008 
L 124.442301 -247.150286 
L 130.078665 -246.303418 
L 135.715028 -245.660078 
L 141.351392 -245.01769 
L 146.987756 -244.375302 
L 152.624119 -243.732913 
L 158.260483 -243.090525 
L 163.896847 -242.448137 
L 169.53321 -241.734395 
L 175.169574 -240.920185 
L 180.805938 -240.108067 
L 186.442301 -239.460656 
L 192.078665 -238.816789 
L 197.715028 -238.161714 
L 203.351392 -237.496739 
L 208.987756 -236.765579 
L 214.624119 -235.891424 
L 220.260483 -235.017028 
L 225.896847 -234.234387 
L 231.53321 -233.774012 
L 237.169574 -233.076971 
L 242.805938 -232.392863 
L 248.442301 -231.688458 
L 254.078665 -230.986799 
L 259.715028 -230.29563 
L 265.351392 -229.589063 
L 270.987756 -228.818293 
L 276.624119 -227.93772 
L 282.260483 -226.93531 
L 287.896847 -225.978994 
L 293.53321 -224.834563 
L 299.169574 -223.998324 
L 304.805938 -223.343342 
L 310.442301 -222.471076 
L 316.078665 -221.452792 
L 321.715028 -220.481654 
L 327.351392 -219.667241 
L 332.987756 -218.726595 
L 338.624119 -217.577525 
L 344.260483 -216.711271 
L 349.896847 -215.435001 
L 355.53321 -214.210025 
L 361.169574 -213.043694 
L 366.805938 -212.048643 
L 372.442301 -210.881743 
L 378.078665 -209.306481 
L 383.715028 -207.649509 
L 389.351392 -206.126458 
L 394.987756 -204.341599 
L 400.624119 -202.349655 
L 406.260483 -200.382246 
L 411.896847 -198.91914 
L 417.53321 -197.172574 
L 423.169574 -195.205942 
L 428.805938 -193.724789 
L 434.442301 -191.824284 
L 440.078665 -189.869759 
L 445.715028 -188.186803 
L 451.351392 -186.249624 
L 456.987756 -184.032395 
L 462.624119 -181.846839 
L 468.260483 -179.859559 
L 473.896847 -177.887908 
L 479.53321 -175.910813 
L 485.169574 -173.888057 
L 490.805938 -171.93954 
L 496.442301 -169.961417 
L 502.078665 -167.983294 
L 507.715028 -165.924439 
L 513.351392 -163.790995 
L 518.987756 -161.760184 
L 524.624119 -159.823077 
L 530.260483 -157.892195 
L 535.896847 -155.961663 
L 541.53321 -154.031032 
L 547.169574 -152.015131 
L 552.805938 -149.999231 
L 558.442301 -147.976216 
L 564.078665 -145.951608 
L 569.715028 -143.927 
L 575.351392 -141.907198 
L 580.987756 -139.892967 
L 586.624119 -137.731989 
L 592.260483 -135.653912 
L 597.896847 -133.801175 
L 603.53321 -131.81016 
L 609.169574 -129.785325 
L 614.805938 -127.472718 
L 614.805938 -196.17712 
L 614.805938 -196.17712 
L 609.169574 -196.827377 
L 603.53321 -197.498097 
L 597.896847 -198.168817 
L 592.260483 -198.839537 
L 586.624119 -199.510257 
L 580.987756 -200.180977 
L 575.351392 -200.848385 
L 569.715028 -201.468944 
L 564.078665 -201.95135 
L 558.442301 -202.58195 
L 552.805938 -203.199161 
L 547.169574 -203.914104 
L 541.53321 -204.678286 
L 535.896847 -205.45821 
L 530.260483 -206.208333 
L 524.624119 -206.910719 
L 518.987756 -207.715113 
L 513.351392 -208.509028 
L 507.715028 -209.276803 
L 502.078665 -210.132599 
L 496.442301 -210.951897 
L 490.805938 -211.890486 
L 485.169574 -212.751682 
L 479.53321 -213.630384 
L 473.896847 -214.730699 
L 468.260483 -215.822754 
L 462.624119 -216.690236 
L 456.987756 -217.556472 
L 451.351392 -218.520563 
L 445.715028 -219.469126 
L 440.078665 -220.666071 
L 434.442301 -221.519518 
L 428.805938 -222.497022 
L 423.169574 -223.823646 
L 417.53321 -225.15816 
L 411.896847 -226.705529 
L 406.260483 -227.913546 
L 400.624119 -228.900552 
L 394.987756 -230.064535 
L 389.351392 -231.487447 
L 383.715028 -233.134004 
L 378.078665 -234.796506 
L 372.442301 -236.131258 
L 366.805938 -237.715114 
L 361.169574 -239.60515 
L 355.53321 -241.115677 
L 349.896847 -242.910027 
L 344.260483 -244.498655 
L 338.624119 -246.128136 
L 332.987756 -247.50732 
L 327.351392 -249.522282 
L 321.715028 -251.302814 
L 316.078665 -253.19379 
L 310.442301 -254.870223 
L 304.805938 -256.582348 
L 299.169574 -258.511093 
L 293.53321 -260.349136 
L 287.896847 -262.445617 
L 282.260483 -264.184056 
L 276.624119 -266.100483 
L 270.987756 -268.012222 
L 265.351392 -270.128844 
L 259.715028 -272.319866 
L 254.078665 -274.354715 
L 248.442301 -276.053192 
L 242.805938 -277.742482 
L 237.169574 -279.973179 
L 231.53321 -282.129406 
L 225.896847 -283.946204 
L 220.260483 -285.980912 
L 214.624119 -288.135723 
L 208.987756 -290.529933 
L 203.351392 -292.602266 
L 197.715028 -294.781592 
L 192.078665 -297.218274 
L 186.442301 -299.652436 
L 180.805938 -302.084723 
L 175.169574 -304.255515 
L 169.53321 -306.104898 
L 163.896847 -308.202423 
L 158.260483 -310.548943 
L 152.624119 -312.710741 
L 146.987756 -314.816286 
L 141.351392 -316.89842 
L 135.715028 -318.984157 
L 130.078665 -321.074053 
L 124.442301 -323.157301 
L 118.805938 -325.103523 
L 113.169574 -326.904156 
L 107.53321 -328.944824 
L 101.896847 -331.15095 
L 96.260483 -333.357075 
L 90.624119 -335.666854 
L 84.987756 -337.779136 
L 79.351392 -339.987955 
L 73.715028 -342.193147 
L 68.078665 -344.393201 
L 62.442301 -346.431004 
L 56.805938 -348.621537 
z
" id="m7c0cd5eb3a" style="stroke:#ffffff;stroke-opacity:0.15;"/>
    </defs>
    <g clip-path="url(#pe4a80620d5)">
     <use style="fill:#4c72b0;fill-opacity:0.15;stroke:#ffffff;stroke-opacity:0.15;" x="0" xlink:href="#m7c0cd5eb3a" y="541.83525"/>
    </g>
   </g>
   <g id="line2d_16">
    <path clip-path="url(#pe4a80620d5)" d="M 56.805938 240.271592 
L 62.442301 241.666835 
L 68.078665 243.062078 
L 73.715028 244.457321 
L 79.351392 245.852564 
L 84.987756 247.247807 
L 90.624119 248.64305 
L 96.260483 250.038293 
L 101.896847 251.433536 
L 107.53321 252.828779 
L 113.169574 254.224022 
L 118.805938 255.619265 
L 124.442301 257.014508 
L 130.078665 258.409751 
L 135.715028 259.804994 
L 141.351392 261.200237 
L 146.987756 262.59548 
L 152.624119 263.990723 
L 158.260483 265.385966 
L 163.896847 266.781209 
L 169.53321 268.176452 
L 175.169574 269.571695 
L 180.805938 270.966938 
L 186.442301 272.362181 
L 192.078665 273.757424 
L 197.715028 275.152667 
L 203.351392 276.54791 
L 208.987756 277.943153 
L 214.624119 279.338396 
L 220.260483 280.733639 
L 225.896847 282.128882 
L 231.53321 283.524125 
L 237.169574 284.919368 
L 242.805938 286.314611 
L 248.442301 287.709854 
L 254.078665 289.105097 
L 259.715028 290.50034 
L 265.351392 291.895583 
L 270.987756 293.290826 
L 276.624119 294.686069 
L 282.260483 296.081312 
L 287.896847 297.476554 
L 293.53321 298.871797 
L 299.169574 300.26704 
L 304.805938 301.662283 
L 310.442301 303.057526 
L 316.078665 304.452769 
L 321.715028 305.848012 
L 327.351392 307.243255 
L 332.987756 308.638498 
L 338.624119 310.033741 
L 344.260483 311.428984 
L 349.896847 312.824227 
L 355.53321 314.21947 
L 361.169574 315.614713 
L 366.805938 317.009956 
L 372.442301 318.405199 
L 378.078665 319.800442 
L 383.715028 321.195685 
L 389.351392 322.590928 
L 394.987756 323.986171 
L 400.624119 325.381414 
L 406.260483 326.776657 
L 411.896847 328.1719 
L 417.53321 329.567143 
L 423.169574 330.962386 
L 428.805938 332.357629 
L 434.442301 333.752872 
L 440.078665 335.148115 
L 445.715028 336.543358 
L 451.351392 337.938601 
L 456.987756 339.333844 
L 462.624119 340.729087 
L 468.260483 342.12433 
L 473.896847 343.519573 
L 479.53321 344.914816 
L 485.169574 346.310059 
L 490.805938 347.705302 
L 496.442301 349.100545 
L 502.078665 350.495788 
L 507.715028 351.891031 
L 513.351392 353.286274 
L 518.987756 354.681517 
L 524.624119 356.07676 
L 530.260483 357.472003 
L 535.896847 358.867246 
L 541.53321 360.262489 
L 547.169574 361.657732 
L 552.805938 363.052975 
L 558.442301 364.448218 
L 564.078665 365.843461 
L 569.715028 367.238704 
L 575.351392 368.633947 
L 580.987756 370.02919 
L 586.624119 371.424433 
L 592.260483 372.819676 
L 597.896847 374.214919 
L 603.53321 375.610162 
L 609.169574 377.005405 
L 614.805938 378.400648 
" style="fill:none;stroke:#4c72b0;stroke-linecap:round;stroke-width:2.25;"/>
   </g>
   <g id="patch_3">
    <path d="M 56.805938 438.12 
L 56.805938 57.6 
" style="fill:none;stroke:#ffffff;stroke-linecap:square;stroke-linejoin:miter;stroke-width:1.25;"/>
   </g>
   <g id="patch_4">
    <path d="M 614.805938 438.12 
L 614.805938 57.6 
" style="fill:none;stroke:#ffffff;stroke-linecap:square;stroke-linejoin:miter;stroke-width:1.25;"/>
   </g>
   <g id="patch_5">
    <path d="M 56.805938 438.12 
L 614.805938 438.12 
" style="fill:none;stroke:#ffffff;stroke-linecap:square;stroke-linejoin:miter;stroke-width:1.25;"/>
   </g>
   <g id="patch_6">
    <path d="M 56.805938 57.6 
L 614.805938 57.6 
" style="fill:none;stroke:#ffffff;stroke-linecap:square;stroke-linejoin:miter;stroke-width:1.25;"/>
   </g>
   <g id="text_18">
    <!--  -->
    <g style="fill:#262626;" transform="translate(56.805938 477.238125)scale(0.12 -0.12)"/>
    <!-- * Taxa diária de crescimento de mortes no país nos 18 após a 5a morte, dados do projeto  -->
    <defs>
     <path d="M 20.65625 79.984375 
L 30.375 79.984375 
L 14.46875 61.625 
L 6.984375 61.625 
z
M 9.421875 54.6875 
L 18.40625 54.6875 
L 18.40625 0 
L 9.421875 0 
z
M 13.921875 56 
z
" id="DejaVuSans-237"/>
     <path d="M 30.609375 48.390625 
Q 23.390625 48.390625 19.1875 42.75 
Q 14.984375 37.109375 14.984375 27.296875 
Q 14.984375 17.484375 19.15625 11.84375 
Q 23.34375 6.203125 30.609375 6.203125 
Q 37.796875 6.203125 41.984375 11.859375 
Q 46.1875 17.53125 46.1875 27.296875 
Q 46.1875 37.015625 41.984375 42.703125 
Q 37.796875 48.390625 30.609375 48.390625 
z
M 30.609375 56 
Q 42.328125 56 49.015625 48.375 
Q 55.71875 40.765625 55.71875 27.296875 
Q 55.71875 13.875 49.015625 6.21875 
Q 42.328125 -1.421875 30.609375 -1.421875 
Q 18.84375 -1.421875 12.171875 6.21875 
Q 5.515625 13.875 5.515625 27.296875 
Q 5.515625 40.765625 12.171875 48.375 
Q 18.84375 56 30.609375 56 
z
M 37.40625 79.984375 
L 47.125 79.984375 
L 31.21875 61.625 
L 23.734375 61.625 
z
" id="DejaVuSans-243"/>
     <path d="M 11.71875 12.40625 
L 22.015625 12.40625 
L 22.015625 4 
L 14.015625 -11.625 
L 7.71875 -11.625 
L 11.71875 4 
z
" id="DejaVuSans-44"/>
     <path d="M 9.421875 54.6875 
L 18.40625 54.6875 
L 18.40625 -0.984375 
Q 18.40625 -11.421875 14.421875 -16.109375 
Q 10.453125 -20.796875 1.609375 -20.796875 
L -1.8125 -20.796875 
L -1.8125 -13.1875 
L 0.59375 -13.1875 
Q 5.71875 -13.1875 7.5625 -10.8125 
Q 9.421875 -8.453125 9.421875 -0.984375 
z
M 9.421875 75.984375 
L 18.40625 75.984375 
L 18.40625 64.59375 
L 9.421875 64.59375 
z
" id="DejaVuSans-106"/>
    </defs>
    <g style="fill:#262626;" transform="translate(56.805938 491.2515)scale(0.12 -0.12)">
     <use xlink:href="#DejaVuSans-42"/>
     <use x="50" xlink:href="#DejaVuSans-32"/>
     <use x="81.787109" xlink:href="#DejaVuSans-84"/>
     <use x="142.621094" xlink:href="#DejaVuSans-97"/>
     <use x="203.900391" xlink:href="#DejaVuSans-120"/>
     <use x="263.080078" xlink:href="#DejaVuSans-97"/>
     <use x="324.359375" xlink:href="#DejaVuSans-32"/>
     <use x="356.146484" xlink:href="#DejaVuSans-100"/>
     <use x="419.623047" xlink:href="#DejaVuSans-105"/>
     <use x="447.40625" xlink:href="#DejaVuSans-225"/>
     <use x="508.685547" xlink:href="#DejaVuSans-114"/>
     <use x="549.798828" xlink:href="#DejaVuSans-105"/>
     <use x="577.582031" xlink:href="#DejaVuSans-97"/>
     <use x="638.861328" xlink:href="#DejaVuSans-32"/>
     <use x="670.648438" xlink:href="#DejaVuSans-100"/>
     <use x="734.125" xlink:href="#DejaVuSans-101"/>
     <use x="795.648438" xlink:href="#DejaVuSans-32"/>
     <use x="827.435547" xlink:href="#DejaVuSans-99"/>
     <use x="882.416016" xlink:href="#DejaVuSans-114"/>
     <use x="923.498047" xlink:href="#DejaVuSans-101"/>
     <use x="985.021484" xlink:href="#DejaVuSans-115"/>
     <use x="1037.121094" xlink:href="#DejaVuSans-99"/>
     <use x="1092.101562" xlink:href="#DejaVuSans-105"/>
     <use x="1119.884766" xlink:href="#DejaVuSans-109"/>
     <use x="1217.296875" xlink:href="#DejaVuSans-101"/>
     <use x="1278.820312" xlink:href="#DejaVuSans-110"/>
     <use x="1342.199219" xlink:href="#DejaVuSans-116"/>
     <use x="1381.408203" xlink:href="#DejaVuSans-111"/>
     <use x="1442.589844" xlink:href="#DejaVuSans-32"/>
     <use x="1474.376953" xlink:href="#DejaVuSans-100"/>
     <use x="1537.853516" xlink:href="#DejaVuSans-101"/>
     <use x="1599.376953" xlink:href="#DejaVuSans-32"/>
     <use x="1631.164062" xlink:href="#DejaVuSans-109"/>
     <use x="1728.576172" xlink:href="#DejaVuSans-111"/>
     <use x="1789.757812" xlink:href="#DejaVuSans-114"/>
     <use x="1830.871094" xlink:href="#DejaVuSans-116"/>
     <use x="1870.080078" xlink:href="#DejaVuSans-101"/>
     <use x="1931.603516" xlink:href="#DejaVuSans-115"/>
     <use x="1983.703125" xlink:href="#DejaVuSans-32"/>
     <use x="2015.490234" xlink:href="#DejaVuSans-110"/>
     <use x="2078.869141" xlink:href="#DejaVuSans-111"/>
     <use x="2140.050781" xlink:href="#DejaVuSans-32"/>
     <use x="2171.837891" xlink:href="#DejaVuSans-112"/>
     <use x="2235.314453" xlink:href="#DejaVuSans-97"/>
     <use x="2296.59375" xlink:href="#DejaVuSans-237"/>
     <use x="2324.376953" xlink:href="#DejaVuSans-115"/>
     <use x="2376.476562" xlink:href="#DejaVuSans-32"/>
     <use x="2408.263672" xlink:href="#DejaVuSans-110"/>
     <use x="2471.642578" xlink:href="#DejaVuSans-111"/>
     <use x="2532.824219" xlink:href="#DejaVuSans-115"/>
     <use x="2584.923828" xlink:href="#DejaVuSans-32"/>
     <use x="2616.710938" xlink:href="#DejaVuSans-49"/>
     <use x="2680.333984" xlink:href="#DejaVuSans-56"/>
     <use x="2743.957031" xlink:href="#DejaVuSans-32"/>
     <use x="2775.744141" xlink:href="#DejaVuSans-97"/>
     <use x="2837.023438" xlink:href="#DejaVuSans-112"/>
     <use x="2900.5" xlink:href="#DejaVuSans-243"/>
     <use x="2961.681641" xlink:href="#DejaVuSans-115"/>
     <use x="3013.78125" xlink:href="#DejaVuSans-32"/>
     <use x="3045.568359" xlink:href="#DejaVuSans-97"/>
     <use x="3106.847656" xlink:href="#DejaVuSans-32"/>
     <use x="3138.634766" xlink:href="#DejaVuSans-53"/>
     <use x="3202.257812" xlink:href="#DejaVuSans-97"/>
     <use x="3263.537109" xlink:href="#DejaVuSans-32"/>
     <use x="3295.324219" xlink:href="#DejaVuSans-109"/>
     <use x="3392.736328" xlink:href="#DejaVuSans-111"/>
     <use x="3453.917969" xlink:href="#DejaVuSans-114"/>
     <use x="3495.03125" xlink:href="#DejaVuSans-116"/>
     <use x="3534.240234" xlink:href="#DejaVuSans-101"/>
     <use x="3595.763672" xlink:href="#DejaVuSans-44"/>
     <use x="3627.550781" xlink:href="#DejaVuSans-32"/>
     <use x="3659.337891" xlink:href="#DejaVuSans-100"/>
     <use x="3722.814453" xlink:href="#DejaVuSans-97"/>
     <use x="3784.09375" xlink:href="#DejaVuSans-100"/>
     <use x="3847.570312" xlink:href="#DejaVuSans-111"/>
     <use x="3908.751953" xlink:href="#DejaVuSans-115"/>
     <use x="3960.851562" xlink:href="#DejaVuSans-32"/>
     <use x="3992.638672" xlink:href="#DejaVuSans-100"/>
     <use x="4056.115234" xlink:href="#DejaVuSans-111"/>
     <use x="4117.296875" xlink:href="#DejaVuSans-32"/>
     <use x="4149.083984" xlink:href="#DejaVuSans-112"/>
     <use x="4212.560547" xlink:href="#DejaVuSans-114"/>
     <use x="4253.642578" xlink:href="#DejaVuSans-111"/>
     <use x="4314.824219" xlink:href="#DejaVuSans-106"/>
     <use x="4342.607422" xlink:href="#DejaVuSans-101"/>
     <use x="4404.130859" xlink:href="#DejaVuSans-116"/>
     <use x="4443.339844" xlink:href="#DejaVuSans-111"/>
     <use x="4504.521484" xlink:href="#DejaVuSans-32"/>
    </g>
    <!-- Our World in Data. -->
    <defs>
     <path d="M 39.40625 66.21875 
Q 28.65625 66.21875 22.328125 58.203125 
Q 16.015625 50.203125 16.015625 36.375 
Q 16.015625 22.609375 22.328125 14.59375 
Q 28.65625 6.59375 39.40625 6.59375 
Q 50.140625 6.59375 56.421875 14.59375 
Q 62.703125 22.609375 62.703125 36.375 
Q 62.703125 50.203125 56.421875 58.203125 
Q 50.140625 66.21875 39.40625 66.21875 
z
M 39.40625 74.21875 
Q 54.734375 74.21875 63.90625 63.9375 
Q 73.09375 53.65625 73.09375 36.375 
Q 73.09375 19.140625 63.90625 8.859375 
Q 54.734375 -1.421875 39.40625 -1.421875 
Q 24.03125 -1.421875 14.8125 8.828125 
Q 5.609375 19.09375 5.609375 36.375 
Q 5.609375 53.65625 14.8125 63.9375 
Q 24.03125 74.21875 39.40625 74.21875 
z
" id="DejaVuSans-79"/>
     <path d="M 3.328125 72.90625 
L 13.28125 72.90625 
L 28.609375 11.28125 
L 43.890625 72.90625 
L 54.984375 72.90625 
L 70.3125 11.28125 
L 85.59375 72.90625 
L 95.609375 72.90625 
L 77.296875 0 
L 64.890625 0 
L 49.515625 63.28125 
L 33.984375 0 
L 21.578125 0 
z
" id="DejaVuSans-87"/>
     <path d="M 19.671875 64.796875 
L 19.671875 8.109375 
L 31.59375 8.109375 
Q 46.6875 8.109375 53.6875 14.9375 
Q 60.6875 21.78125 60.6875 36.53125 
Q 60.6875 51.171875 53.6875 57.984375 
Q 46.6875 64.796875 31.59375 64.796875 
z
M 9.8125 72.90625 
L 30.078125 72.90625 
Q 51.265625 72.90625 61.171875 64.09375 
Q 71.09375 55.28125 71.09375 36.53125 
Q 71.09375 17.671875 61.125 8.828125 
Q 51.171875 0 30.078125 0 
L 9.8125 0 
z
" id="DejaVuSans-68"/>
    </defs>
    <g style="fill:#262626;" transform="translate(56.805938 504.688875)scale(0.12 -0.12)">
     <use xlink:href="#DejaVuSans-79"/>
     <use x="78.710938" xlink:href="#DejaVuSans-117"/>
     <use x="142.089844" xlink:href="#DejaVuSans-114"/>
     <use x="183.203125" xlink:href="#DejaVuSans-32"/>
     <use x="214.990234" xlink:href="#DejaVuSans-87"/>
     <use x="313.789062" xlink:href="#DejaVuSans-111"/>
     <use x="374.970703" xlink:href="#DejaVuSans-114"/>
     <use x="416.083984" xlink:href="#DejaVuSans-108"/>
     <use x="443.867188" xlink:href="#DejaVuSans-100"/>
     <use x="507.34375" xlink:href="#DejaVuSans-32"/>
     <use x="539.130859" xlink:href="#DejaVuSans-105"/>
     <use x="566.914062" xlink:href="#DejaVuSans-110"/>
     <use x="630.292969" xlink:href="#DejaVuSans-32"/>
     <use x="662.080078" xlink:href="#DejaVuSans-68"/>
     <use x="739.082031" xlink:href="#DejaVuSans-97"/>
     <use x="800.361328" xlink:href="#DejaVuSans-116"/>
     <use x="839.570312" xlink:href="#DejaVuSans-97"/>
     <use x="900.849609" xlink:href="#DejaVuSans-46"/>
    </g>
    <!-- ** Mobilidade em farmácias e supermercados nos 7 dias após a 5a morte, dados do Google  -->
    <defs>
     <path d="M 9.8125 72.90625 
L 24.515625 72.90625 
L 43.109375 23.296875 
L 61.8125 72.90625 
L 76.515625 72.90625 
L 76.515625 0 
L 66.890625 0 
L 66.890625 64.015625 
L 48.09375 14.015625 
L 38.1875 14.015625 
L 19.390625 64.015625 
L 19.390625 0 
L 9.8125 0 
z
" id="DejaVuSans-77"/>
     <path d="M 37.109375 75.984375 
L 37.109375 68.5 
L 28.515625 68.5 
Q 23.6875 68.5 21.796875 66.546875 
Q 19.921875 64.59375 19.921875 59.515625 
L 19.921875 54.6875 
L 34.71875 54.6875 
L 34.71875 47.703125 
L 19.921875 47.703125 
L 19.921875 0 
L 10.890625 0 
L 10.890625 47.703125 
L 2.296875 47.703125 
L 2.296875 54.6875 
L 10.890625 54.6875 
L 10.890625 58.5 
Q 10.890625 67.625 15.140625 71.796875 
Q 19.390625 75.984375 28.609375 75.984375 
z
" id="DejaVuSans-102"/>
     <path d="M 8.203125 72.90625 
L 55.078125 72.90625 
L 55.078125 68.703125 
L 28.609375 0 
L 18.3125 0 
L 43.21875 64.59375 
L 8.203125 64.59375 
z
" id="DejaVuSans-55"/>
     <path d="M 59.515625 10.40625 
L 59.515625 29.984375 
L 43.40625 29.984375 
L 43.40625 38.09375 
L 69.28125 38.09375 
L 69.28125 6.78125 
Q 63.578125 2.734375 56.6875 0.65625 
Q 49.8125 -1.421875 42 -1.421875 
Q 24.90625 -1.421875 15.25 8.5625 
Q 5.609375 18.5625 5.609375 36.375 
Q 5.609375 54.25 15.25 64.234375 
Q 24.90625 74.21875 42 74.21875 
Q 49.125 74.21875 55.546875 72.453125 
Q 61.96875 70.703125 67.390625 67.28125 
L 67.390625 56.78125 
Q 61.921875 61.421875 55.765625 63.765625 
Q 49.609375 66.109375 42.828125 66.109375 
Q 29.4375 66.109375 22.71875 58.640625 
Q 16.015625 51.171875 16.015625 36.375 
Q 16.015625 21.625 22.71875 14.15625 
Q 29.4375 6.6875 42.828125 6.6875 
Q 48.046875 6.6875 52.140625 7.59375 
Q 56.25 8.5 59.515625 10.40625 
z
" id="DejaVuSans-71"/>
     <path d="M 45.40625 27.984375 
Q 45.40625 37.75 41.375 43.109375 
Q 37.359375 48.484375 30.078125 48.484375 
Q 22.859375 48.484375 18.828125 43.109375 
Q 14.796875 37.75 14.796875 27.984375 
Q 14.796875 18.265625 18.828125 12.890625 
Q 22.859375 7.515625 30.078125 7.515625 
Q 37.359375 7.515625 41.375 12.890625 
Q 45.40625 18.265625 45.40625 27.984375 
z
M 54.390625 6.78125 
Q 54.390625 -7.171875 48.1875 -13.984375 
Q 42 -20.796875 29.203125 -20.796875 
Q 24.46875 -20.796875 20.265625 -20.09375 
Q 16.0625 -19.390625 12.109375 -17.921875 
L 12.109375 -9.1875 
Q 16.0625 -11.328125 19.921875 -12.34375 
Q 23.78125 -13.375 27.78125 -13.375 
Q 36.625 -13.375 41.015625 -8.765625 
Q 45.40625 -4.15625 45.40625 5.171875 
L 45.40625 9.625 
Q 42.625 4.78125 38.28125 2.390625 
Q 33.9375 0 27.875 0 
Q 17.828125 0 11.671875 7.65625 
Q 5.515625 15.328125 5.515625 27.984375 
Q 5.515625 40.671875 11.671875 48.328125 
Q 17.828125 56 27.875 56 
Q 33.9375 56 38.28125 53.609375 
Q 42.625 51.21875 45.40625 46.390625 
L 45.40625 54.6875 
L 54.390625 54.6875 
z
" id="DejaVuSans-103"/>
    </defs>
    <g style="fill:#262626;" transform="translate(56.805938 518.70225)scale(0.12 -0.12)">
     <use xlink:href="#DejaVuSans-42"/>
     <use x="50" xlink:href="#DejaVuSans-42"/>
     <use x="100" xlink:href="#DejaVuSans-32"/>
     <use x="131.787109" xlink:href="#DejaVuSans-77"/>
     <use x="218.066406" xlink:href="#DejaVuSans-111"/>
     <use x="279.248047" xlink:href="#DejaVuSans-98"/>
     <use x="342.724609" xlink:href="#DejaVuSans-105"/>
     <use x="370.507812" xlink:href="#DejaVuSans-108"/>
     <use x="398.291016" xlink:href="#DejaVuSans-105"/>
     <use x="426.074219" xlink:href="#DejaVuSans-100"/>
     <use x="489.550781" xlink:href="#DejaVuSans-97"/>
     <use x="550.830078" xlink:href="#DejaVuSans-100"/>
     <use x="614.306641" xlink:href="#DejaVuSans-101"/>
     <use x="675.830078" xlink:href="#DejaVuSans-32"/>
     <use x="707.617188" xlink:href="#DejaVuSans-101"/>
     <use x="769.140625" xlink:href="#DejaVuSans-109"/>
     <use x="866.552734" xlink:href="#DejaVuSans-32"/>
     <use x="898.339844" xlink:href="#DejaVuSans-102"/>
     <use x="933.544922" xlink:href="#DejaVuSans-97"/>
     <use x="994.824219" xlink:href="#DejaVuSans-114"/>
     <use x="1035.921875" xlink:href="#DejaVuSans-109"/>
     <use x="1133.333984" xlink:href="#DejaVuSans-225"/>
     <use x="1194.613281" xlink:href="#DejaVuSans-99"/>
     <use x="1249.59375" xlink:href="#DejaVuSans-105"/>
     <use x="1277.376953" xlink:href="#DejaVuSans-97"/>
     <use x="1338.65625" xlink:href="#DejaVuSans-115"/>
     <use x="1390.755859" xlink:href="#DejaVuSans-32"/>
     <use x="1422.542969" xlink:href="#DejaVuSans-101"/>
     <use x="1484.066406" xlink:href="#DejaVuSans-32"/>
     <use x="1515.853516" xlink:href="#DejaVuSans-115"/>
     <use x="1567.953125" xlink:href="#DejaVuSans-117"/>
     <use x="1631.332031" xlink:href="#DejaVuSans-112"/>
     <use x="1694.808594" xlink:href="#DejaVuSans-101"/>
     <use x="1756.332031" xlink:href="#DejaVuSans-114"/>
     <use x="1797.429688" xlink:href="#DejaVuSans-109"/>
     <use x="1894.841797" xlink:href="#DejaVuSans-101"/>
     <use x="1956.365234" xlink:href="#DejaVuSans-114"/>
     <use x="1997.447266" xlink:href="#DejaVuSans-99"/>
     <use x="2052.427734" xlink:href="#DejaVuSans-97"/>
     <use x="2113.707031" xlink:href="#DejaVuSans-100"/>
     <use x="2177.183594" xlink:href="#DejaVuSans-111"/>
     <use x="2238.365234" xlink:href="#DejaVuSans-115"/>
     <use x="2290.464844" xlink:href="#DejaVuSans-32"/>
     <use x="2322.251953" xlink:href="#DejaVuSans-110"/>
     <use x="2385.630859" xlink:href="#DejaVuSans-111"/>
     <use x="2446.8125" xlink:href="#DejaVuSans-115"/>
     <use x="2498.912109" xlink:href="#DejaVuSans-32"/>
     <use x="2530.699219" xlink:href="#DejaVuSans-55"/>
     <use x="2594.322266" xlink:href="#DejaVuSans-32"/>
     <use x="2626.109375" xlink:href="#DejaVuSans-100"/>
     <use x="2689.585938" xlink:href="#DejaVuSans-105"/>
     <use x="2717.369141" xlink:href="#DejaVuSans-97"/>
     <use x="2778.648438" xlink:href="#DejaVuSans-115"/>
     <use x="2830.748047" xlink:href="#DejaVuSans-32"/>
     <use x="2862.535156" xlink:href="#DejaVuSans-97"/>
     <use x="2923.814453" xlink:href="#DejaVuSans-112"/>
     <use x="2987.291016" xlink:href="#DejaVuSans-243"/>
     <use x="3048.472656" xlink:href="#DejaVuSans-115"/>
     <use x="3100.572266" xlink:href="#DejaVuSans-32"/>
     <use x="3132.359375" xlink:href="#DejaVuSans-97"/>
     <use x="3193.638672" xlink:href="#DejaVuSans-32"/>
     <use x="3225.425781" xlink:href="#DejaVuSans-53"/>
     <use x="3289.048828" xlink:href="#DejaVuSans-97"/>
     <use x="3350.328125" xlink:href="#DejaVuSans-32"/>
     <use x="3382.115234" xlink:href="#DejaVuSans-109"/>
     <use x="3479.527344" xlink:href="#DejaVuSans-111"/>
     <use x="3540.708984" xlink:href="#DejaVuSans-114"/>
     <use x="3581.822266" xlink:href="#DejaVuSans-116"/>
     <use x="3621.03125" xlink:href="#DejaVuSans-101"/>
     <use x="3682.554688" xlink:href="#DejaVuSans-44"/>
     <use x="3714.341797" xlink:href="#DejaVuSans-32"/>
     <use x="3746.128906" xlink:href="#DejaVuSans-100"/>
     <use x="3809.605469" xlink:href="#DejaVuSans-97"/>
     <use x="3870.884766" xlink:href="#DejaVuSans-100"/>
     <use x="3934.361328" xlink:href="#DejaVuSans-111"/>
     <use x="3995.542969" xlink:href="#DejaVuSans-115"/>
     <use x="4047.642578" xlink:href="#DejaVuSans-32"/>
     <use x="4079.429688" xlink:href="#DejaVuSans-100"/>
     <use x="4142.90625" xlink:href="#DejaVuSans-111"/>
     <use x="4204.087891" xlink:href="#DejaVuSans-32"/>
     <use x="4235.875" xlink:href="#DejaVuSans-71"/>
     <use x="4313.365234" xlink:href="#DejaVuSans-111"/>
     <use x="4374.546875" xlink:href="#DejaVuSans-111"/>
     <use x="4435.728516" xlink:href="#DejaVuSans-103"/>
     <use x="4499.205078" xlink:href="#DejaVuSans-108"/>
     <use x="4526.988281" xlink:href="#DejaVuSans-101"/>
     <use x="4588.511719" xlink:href="#DejaVuSans-32"/>
    </g>
    <!-- Mobility Report. -->
    <defs>
     <path d="M 32.171875 -5.078125 
Q 28.375 -14.84375 24.75 -17.8125 
Q 21.140625 -20.796875 15.09375 -20.796875 
L 7.90625 -20.796875 
L 7.90625 -13.28125 
L 13.1875 -13.28125 
Q 16.890625 -13.28125 18.9375 -11.515625 
Q 21 -9.765625 23.484375 -3.21875 
L 25.09375 0.875 
L 2.984375 54.6875 
L 12.5 54.6875 
L 29.59375 11.921875 
L 46.6875 54.6875 
L 56.203125 54.6875 
z
" id="DejaVuSans-121"/>
    </defs>
    <g style="fill:#262626;" transform="translate(56.805938 532.139625)scale(0.12 -0.12)">
     <use xlink:href="#DejaVuSans-77"/>
     <use x="86.279297" xlink:href="#DejaVuSans-111"/>
     <use x="147.460938" xlink:href="#DejaVuSans-98"/>
     <use x="210.9375" xlink:href="#DejaVuSans-105"/>
     <use x="238.720703" xlink:href="#DejaVuSans-108"/>
     <use x="266.503906" xlink:href="#DejaVuSans-105"/>
     <use x="294.287109" xlink:href="#DejaVuSans-116"/>
     <use x="333.496094" xlink:href="#DejaVuSans-121"/>
     <use x="392.675781" xlink:href="#DejaVuSans-32"/>
     <use x="424.462891" xlink:href="#DejaVuSans-82"/>
     <use x="493.882812" xlink:href="#DejaVuSans-101"/>
     <use x="555.40625" xlink:href="#DejaVuSans-112"/>
     <use x="618.882812" xlink:href="#DejaVuSans-111"/>
     <use x="680.064453" xlink:href="#DejaVuSans-114"/>
     <use x="721.177734" xlink:href="#DejaVuSans-116"/>
     <use x="760.386719" xlink:href="#DejaVuSans-46"/>
    </g>
   </g>
  </g>
  <g id="text_19">
   <!-- Estimando o efeito do isolamento social -->
   <defs>
    <path d="M 9.8125 72.90625 
L 55.90625 72.90625 
L 55.90625 64.59375 
L 19.671875 64.59375 
L 19.671875 43.015625 
L 54.390625 43.015625 
L 54.390625 34.71875 
L 19.671875 34.71875 
L 19.671875 8.296875 
L 56.78125 8.296875 
L 56.78125 0 
L 9.8125 0 
z
" id="DejaVuSans-69"/>
   </defs>
   <g style="fill:#262626;" transform="translate(166.954688 19.3575)scale(0.16 -0.16)">
    <use xlink:href="#DejaVuSans-69"/>
    <use x="63.183594" xlink:href="#DejaVuSans-115"/>
    <use x="115.283203" xlink:href="#DejaVuSans-116"/>
    <use x="154.492188" xlink:href="#DejaVuSans-105"/>
    <use x="182.275391" xlink:href="#DejaVuSans-109"/>
    <use x="279.6875" xlink:href="#DejaVuSans-97"/>
    <use x="340.966797" xlink:href="#DejaVuSans-110"/>
    <use x="404.345703" xlink:href="#DejaVuSans-100"/>
    <use x="467.822266" xlink:href="#DejaVuSans-111"/>
    <use x="529.003906" xlink:href="#DejaVuSans-32"/>
    <use x="560.791016" xlink:href="#DejaVuSans-111"/>
    <use x="621.972656" xlink:href="#DejaVuSans-32"/>
    <use x="653.759766" xlink:href="#DejaVuSans-101"/>
    <use x="715.283203" xlink:href="#DejaVuSans-102"/>
    <use x="750.488281" xlink:href="#DejaVuSans-101"/>
    <use x="812.011719" xlink:href="#DejaVuSans-105"/>
    <use x="839.794922" xlink:href="#DejaVuSans-116"/>
    <use x="879.003906" xlink:href="#DejaVuSans-111"/>
    <use x="940.185547" xlink:href="#DejaVuSans-32"/>
    <use x="971.972656" xlink:href="#DejaVuSans-100"/>
    <use x="1035.449219" xlink:href="#DejaVuSans-111"/>
    <use x="1096.630859" xlink:href="#DejaVuSans-32"/>
    <use x="1128.417969" xlink:href="#DejaVuSans-105"/>
    <use x="1156.201172" xlink:href="#DejaVuSans-115"/>
    <use x="1208.300781" xlink:href="#DejaVuSans-111"/>
    <use x="1269.482422" xlink:href="#DejaVuSans-108"/>
    <use x="1297.265625" xlink:href="#DejaVuSans-97"/>
    <use x="1358.544922" xlink:href="#DejaVuSans-109"/>
    <use x="1455.957031" xlink:href="#DejaVuSans-101"/>
    <use x="1517.480469" xlink:href="#DejaVuSans-110"/>
    <use x="1580.859375" xlink:href="#DejaVuSans-116"/>
    <use x="1620.068359" xlink:href="#DejaVuSans-111"/>
    <use x="1681.25" xlink:href="#DejaVuSans-32"/>
    <use x="1713.037109" xlink:href="#DejaVuSans-115"/>
    <use x="1765.136719" xlink:href="#DejaVuSans-111"/>
    <use x="1826.318359" xlink:href="#DejaVuSans-99"/>
    <use x="1881.298828" xlink:href="#DejaVuSans-105"/>
    <use x="1909.082031" xlink:href="#DejaVuSans-97"/>
    <use x="1970.361328" xlink:href="#DejaVuSans-108"/>
   </g>
  </g>
 </g>
 <defs>
  <clipPath id="pe4a80620d5">
   <rect height="380.52" width="558" x="56.805938" y="57.6"/>
  </clipPath>
 </defs>
</svg>
