<svg width="598" height="681" xmlns="http://www.w3.org/2000/svg" xmlns:xlink="http://www.w3.org/1999/xlink" overflow="hidden"><defs><clipPath id="clip0"><path d="M21 26 619 26 619 707 21 707Z" fill-rule="evenodd" clip-rule="evenodd"/></clipPath><clipPath id="clip1"><path d="M21 27 617 27 617 705 21 705Z" fill-rule="evenodd" clip-rule="evenodd"/></clipPath><clipPath id="clip2"><path d="M21 27 617 27 617 705 21 705Z" fill-rule="evenodd" clip-rule="evenodd"/></clipPath><clipPath id="clip3"><path d="M21 27 617 27 617 705 21 705Z" fill-rule="evenodd" clip-rule="evenodd"/></clipPath><clipPath id="clip4"><path d="M191 79 564 79 564 668 191 668Z" fill-rule="evenodd" clip-rule="evenodd"/></clipPath><clipPath id="clip5"><path d="M21 27 617 27 617 705 21 705Z" fill-rule="evenodd" clip-rule="evenodd"/></clipPath><clipPath id="clip6"><path d="M21 27 617 27 617 705 21 705Z" fill-rule="evenodd" clip-rule="evenodd"/></clipPath><clipPath id="clip7"><path d="M21 27 617 27 617 705 21 705Z" fill-rule="evenodd" clip-rule="evenodd"/></clipPath><clipPath id="clip8"><path d="M21 27 617 27 617 705 21 705Z" fill-rule="evenodd" clip-rule="evenodd"/></clipPath><clipPath id="clip9"><path d="M21 27 617 27 617 705 21 705Z" fill-rule="evenodd" clip-rule="evenodd"/></clipPath><clipPath id="clip10"><path d="M21 27 617 27 617 705 21 705Z" fill-rule="evenodd" clip-rule="evenodd"/></clipPath><clipPath id="clip11"><path d="M21 27 617 27 617 705 21 705Z" fill-rule="evenodd" clip-rule="evenodd"/></clipPath><clipPath id="clip12"><path d="M21 27 617 27 617 705 21 705Z" fill-rule="evenodd" clip-rule="evenodd"/></clipPath><clipPath id="clip13"><path d="M21 27 617 27 617 705 21 705Z" fill-rule="evenodd" clip-rule="evenodd"/></clipPath><clipPath id="clip14"><path d="M21 27 617 27 617 705 21 705Z" fill-rule="evenodd" clip-rule="evenodd"/></clipPath><clipPath id="clip15"><path d="M21 27 617 27 617 705 21 705Z" fill-rule="evenodd" clip-rule="evenodd"/></clipPath><clipPath id="clip16"><path d="M21 27 617 27 617 705 21 705Z" fill-rule="evenodd" clip-rule="evenodd"/></clipPath><clipPath id="clip17"><path d="M21 27 617 27 617 705 21 705Z" fill-rule="evenodd" clip-rule="evenodd"/></clipPath><clipPath id="clip18"><path d="M21 27 617 27 617 705 21 705Z" fill-rule="evenodd" clip-rule="evenodd"/></clipPath><clipPath id="clip19"><path d="M21 27 617 27 617 705 21 705Z" fill-rule="evenodd" clip-rule="evenodd"/></clipPath><clipPath id="clip20"><path d="M21 27 617 27 617 705 21 705Z" fill-rule="evenodd" clip-rule="evenodd"/></clipPath><clipPath id="clip21"><path d="M21 27 617 27 617 705 21 705Z" fill-rule="evenodd" clip-rule="evenodd"/></clipPath><clipPath id="clip22"><path d="M21 27 617 27 617 705 21 705Z" fill-rule="evenodd" clip-rule="evenodd"/></clipPath><clipPath id="clip23"><path d="M21 27 617 27 617 705 21 705Z" fill-rule="evenodd" clip-rule="evenodd"/></clipPath><clipPath id="clip24"><path d="M21 27 617 27 617 705 21 705Z" fill-rule="evenodd" clip-rule="evenodd"/></clipPath><clipPath id="clip25"><path d="M21 27 617 27 617 705 21 705Z" fill-rule="evenodd" clip-rule="evenodd"/></clipPath><clipPath id="clip26"><path d="M21 27 617 27 617 705 21 705Z" fill-rule="evenodd" clip-rule="evenodd"/></clipPath><clipPath id="clip27"><path d="M21 27 617 27 617 705 21 705Z" fill-rule="evenodd" clip-rule="evenodd"/></clipPath><clipPath id="clip28"><path d="M21 27 617 27 617 705 21 705Z" fill-rule="evenodd" clip-rule="evenodd"/></clipPath><clipPath id="clip29"><path d="M21 27 617 27 617 705 21 705Z" fill-rule="evenodd" clip-rule="evenodd"/></clipPath><clipPath id="clip30"><path d="M21 27 617 27 617 705 21 705Z" fill-rule="evenodd" clip-rule="evenodd"/></clipPath><clipPath id="clip31"><path d="M21 27 617 27 617 705 21 705Z" fill-rule="evenodd" clip-rule="evenodd"/></clipPath><clipPath id="clip32"><path d="M21 27 617 27 617 705 21 705Z" fill-rule="evenodd" clip-rule="evenodd"/></clipPath><clipPath id="clip33"><path d="M21 27 617 27 617 705 21 705Z" fill-rule="evenodd" clip-rule="evenodd"/></clipPath><clipPath id="clip34"><path d="M21 27 617 27 617 705 21 705Z" fill-rule="evenodd" clip-rule="evenodd"/></clipPath><clipPath id="clip35"><path d="M21 27 617 27 617 705 21 705Z" fill-rule="evenodd" clip-rule="evenodd"/></clipPath><clipPath id="clip36"><path d="M21 27 617 27 617 705 21 705Z" fill-rule="evenodd" clip-rule="evenodd"/></clipPath><clipPath id="clip37"><path d="M21 27 617 27 617 705 21 705Z" fill-rule="evenodd" clip-rule="evenodd"/></clipPath><clipPath id="clip38"><path d="M21 27 617 27 617 705 21 705Z" fill-rule="evenodd" clip-rule="evenodd"/></clipPath><clipPath id="clip39"><path d="M21 27 617 27 617 705 21 705Z" fill-rule="evenodd" clip-rule="evenodd"/></clipPath><clipPath id="clip40"><path d="M21 27 617 27 617 705 21 705Z" fill-rule="evenodd" clip-rule="evenodd"/></clipPath><clipPath id="clip41"><path d="M21 27 617 27 617 705 21 705Z" fill-rule="evenodd" clip-rule="evenodd"/></clipPath><clipPath id="clip42"><path d="M21 27 617 27 617 705 21 705Z" fill-rule="evenodd" clip-rule="evenodd"/></clipPath><clipPath id="clip43"><path d="M21 27 617 27 617 705 21 705Z" fill-rule="evenodd" clip-rule="evenodd"/></clipPath><clipPath id="clip44"><path d="M21 27 617 27 617 705 21 705Z" fill-rule="evenodd" clip-rule="evenodd"/></clipPath><clipPath id="clip45"><path d="M21 27 617 27 617 705 21 705Z" fill-rule="evenodd" clip-rule="evenodd"/></clipPath><clipPath id="clip46"><path d="M21 27 617 27 617 705 21 705Z" fill-rule="evenodd" clip-rule="evenodd"/></clipPath><clipPath id="clip47"><path d="M21 27 617 27 617 705 21 705Z" fill-rule="evenodd" clip-rule="evenodd"/></clipPath><clipPath id="clip48"><path d="M21 27 617 27 617 705 21 705Z" fill-rule="evenodd" clip-rule="evenodd"/></clipPath><clipPath id="clip49"><path d="M21 27 617 27 617 705 21 705Z" fill-rule="evenodd" clip-rule="evenodd"/></clipPath><clipPath id="clip50"><path d="M21 27 617 27 617 705 21 705Z" fill-rule="evenodd" clip-rule="evenodd"/></clipPath><clipPath id="clip51"><path d="M21 27 617 27 617 705 21 705Z" fill-rule="evenodd" clip-rule="evenodd"/></clipPath><clipPath id="clip52"><path d="M21 27 617 27 617 705 21 705Z" fill-rule="evenodd" clip-rule="evenodd"/></clipPath><clipPath id="clip53"><path d="M21 27 617 27 617 705 21 705Z" fill-rule="evenodd" clip-rule="evenodd"/></clipPath><clipPath id="clip54"><path d="M21 27 617 27 617 705 21 705Z" fill-rule="evenodd" clip-rule="evenodd"/></clipPath><clipPath id="clip55"><path d="M21 27 617 27 617 705 21 705Z" fill-rule="evenodd" clip-rule="evenodd"/></clipPath><clipPath id="clip56"><path d="M21 27 617 27 617 705 21 705Z" fill-rule="evenodd" clip-rule="evenodd"/></clipPath><clipPath id="clip57"><path d="M21 27 617 27 617 705 21 705Z" fill-rule="evenodd" clip-rule="evenodd"/></clipPath><clipPath id="clip58"><path d="M21 27 617 27 617 705 21 705Z" fill-rule="evenodd" clip-rule="evenodd"/></clipPath><clipPath id="clip59"><path d="M21 27 617 27 617 705 21 705Z" fill-rule="evenodd" clip-rule="evenodd"/></clipPath><clipPath id="clip60"><path d="M21 27 617 27 617 705 21 705Z" fill-rule="evenodd" clip-rule="evenodd"/></clipPath><clipPath id="clip61"><path d="M21 27 617 27 617 705 21 705Z" fill-rule="evenodd" clip-rule="evenodd"/></clipPath><clipPath id="clip62"><path d="M21 27 617 27 617 705 21 705Z" fill-rule="evenodd" clip-rule="evenodd"/></clipPath><clipPath id="clip63"><path d="M21 27 617 27 617 705 21 705Z" fill-rule="evenodd" clip-rule="evenodd"/></clipPath><clipPath id="clip64"><path d="M21 27 617 27 617 705 21 705Z" fill-rule="evenodd" clip-rule="evenodd"/></clipPath></defs><g clip-path="url(#clip0)" transform="translate(-21 -26)"><rect x="22" y="27" width="596" height="679" fill="#F2F2F2"/><g clip-path="url(#clip1)"><rect x="192" y="80" width="371" height="587" fill="#FDFDFD"/></g><g clip-path="url(#clip2)"><path d="M315.5 79.5001 315.5 667.5M439.5 79.5001 439.5 667.5M563.5 79.5001 563.5 667.5" stroke="#D9D9D9" stroke-linejoin="round" stroke-miterlimit="10" fill="none"/></g><g clip-path="url(#clip3)"><rect x="191.5" y="79.5001" width="372" height="588" stroke="#D9D9D9" stroke-linejoin="round" stroke-miterlimit="10" fill="none"/></g><g clip-path="url(#clip4)"><path d="M459 83 192 83 192 98 459 98ZM339 105 192 105 192 120 339 120ZM333 127 192 127 192 141 333 141ZM315 149 192 149 192 163 315 163ZM286 170 192 170 192 185 286 185ZM280 192 192 192 192 207 280 207ZM275 214 192 214 192 228 275 228ZM264 236 192 236 192 250 264 250ZM259 257 192 257 192 272 259 272ZM250 279 192 279 192 294 250 294ZM241 301 192 301 192 315 241 315ZM231 323 192 323 192 337 231 337ZM229 344 192 344 192 359 229 359ZM226 366 192 366 192 381 226 381ZM224 388 192 388 192 402 224 402ZM224 410 192 410 192 424 224 424ZM223 431 192 431 192 446 223 446ZM220 453 192 453 192 468 220 468ZM216 475 192 475 192 490 216 490ZM214 497 192 497 192 511 214 511ZM210 519 192 519 192 533 210 533ZM207 540 192 540 192 555 207 555ZM205 562 192 562 192 577 205 577ZM204 584 192 584 192 598 204 598ZM199 606 192 606 192 620 199 620ZM199 627 192 627 192 642 199 642ZM197 649 192 649 192 664 197 664Z" fill="#4F81BD"/></g><g clip-path="url(#clip5)"><path d="M191.5 79.5001 191.5 667.5" stroke="#D9D9D9" stroke-linejoin="round" stroke-miterlimit="10" fill="none" fill-rule="evenodd"/></g><g clip-path="url(#clip6)"><text fill="#404040" font-family="Arial Nova,Arial Nova_MSFontService,sans-serif" font-weight="400" font-size="16" transform="translate(467.463 97)">10.812.058</text></g><g clip-path="url(#clip7)"><text fill="#404040" font-family="Arial Nova,Arial Nova_MSFontService,sans-serif" font-weight="400" font-size="16" transform="translate(347.196 119)">5.958.981</text></g><g clip-path="url(#clip8)"><text fill="#404040" font-family="Arial Nova,Arial Nova_MSFontService,sans-serif" font-weight="400" font-size="16" transform="translate(340.771 140)">5.699.698</text></g><g clip-path="url(#clip9)"><text fill="#404040" font-family="Arial Nova,Arial Nova_MSFontService,sans-serif" font-weight="400" font-size="16" transform="translate(323.266 162)">4.993.327</text></g><g clip-path="url(#clip10)"><text fill="#404040" font-family="Arial Nova,Arial Nova_MSFontService,sans-serif" font-weight="400" font-size="16" transform="translate(294.261 184)">3.822.919</text></g><g clip-path="url(#clip11)"><text fill="#404040" font-family="Arial Nova,Arial Nova_MSFontService,sans-serif" font-weight="400" font-size="16" transform="translate(288.499 206)">3.590.411</text></g><g clip-path="url(#clip12)"><text fill="#404040" font-family="Arial Nova,Arial Nova_MSFontService,sans-serif" font-weight="400" font-size="16" transform="translate(283.187 227)">3.376.070</text></g><g clip-path="url(#clip13)"><text fill="#404040" font-family="Arial Nova,Arial Nova_MSFontService,sans-serif" font-weight="400" font-size="16" transform="translate(271.834 249)">2.917.940</text></g><g clip-path="url(#clip14)"><text fill="#404040" font-family="Arial Nova,Arial Nova_MSFontService,sans-serif" font-weight="400" font-size="16" transform="translate(267.196 271)">2.730.792</text></g><g clip-path="url(#clip15)"><text fill="#404040" font-family="Arial Nova,Arial Nova_MSFontService,sans-serif" font-weight="400" font-size="16" transform="translate(257.616 293)">2.344.214</text></g><g clip-path="url(#clip16)"><text fill="#404040" font-family="Arial Nova,Arial Nova_MSFontService,sans-serif" font-weight="400" font-size="16" transform="translate(248.906 315)">1.992.735</text></g><g clip-path="url(#clip17)"><text fill="#404040" font-family="Arial Nova,Arial Nova_MSFontService,sans-serif" font-weight="400" font-size="16" transform="translate(239.354 336)">1.607.295</text></g><g clip-path="url(#clip18)"><text fill="#404040" font-family="Arial Nova,Arial Nova_MSFontService,sans-serif" font-weight="400" font-size="16" transform="translate(236.768 358)">1.502.942</text></g><g clip-path="url(#clip19)"><text fill="#404040" font-family="Arial Nova,Arial Nova_MSFontService,sans-serif" font-weight="400" font-size="16" transform="translate(233.807 380)">1.383.435</text></g><g clip-path="url(#clip20)"><text fill="#404040" font-family="Arial Nova,Arial Nova_MSFontService,sans-serif" font-weight="400" font-size="16" transform="translate(231.936 402)">1.307.946</text></g><g clip-path="url(#clip21)"><text fill="#404040" font-family="Arial Nova,Arial Nova_MSFontService,sans-serif" font-weight="400" font-size="16" transform="translate(231.637 423)">1.295.888</text></g><g clip-path="url(#clip22)"><text fill="#404040" font-family="Arial Nova,Arial Nova_MSFontService,sans-serif" font-weight="400" font-size="16" transform="translate(231.414 445)">1.286.897</text></g><g clip-path="url(#clip23)"><text fill="#404040" font-family="Arial Nova,Arial Nova_MSFontService,sans-serif" font-weight="400" font-size="16" transform="translate(227.521 467)">1.129.794</text></g><g clip-path="url(#clip24)"><text fill="#404040" font-family="Arial Nova,Arial Nova_MSFontService,sans-serif" font-weight="400" font-size="16" transform="translate(224.492 489)">1.007.547</text></g><g clip-path="url(#clip25)"><text fill="#404040" font-family="Arial Nova,Arial Nova_MSFontService,sans-serif" font-weight="400" font-size="16" transform="translate(222.189 510)">914.615</text></g><g clip-path="url(#clip26)"><text fill="#404040" font-family="Arial Nova,Arial Nova_MSFontService,sans-serif" font-weight="400" font-size="16" transform="translate(218.364 532)">760.273</text></g><g clip-path="url(#clip27)"><text fill="#404040" font-family="Arial Nova,Arial Nova_MSFontService,sans-serif" font-weight="400" font-size="16" transform="translate(215.416 554)">641.321</text></g><g clip-path="url(#clip28)"><text fill="#404040" font-family="Arial Nova,Arial Nova_MSFontService,sans-serif" font-weight="400" font-size="16" transform="translate(212.618 576)">528.421</text></g><g clip-path="url(#clip29)"><text fill="#404040" font-family="Arial Nova,Arial Nova_MSFontService,sans-serif" font-weight="400" font-size="16" transform="translate(212.476 597)">522.680</text></g><g clip-path="url(#clip30)"><text fill="#404040" font-family="Arial Nova,Arial Nova_MSFontService,sans-serif" font-weight="400" font-size="16" transform="translate(207.255 619)">311.984</text></g><g clip-path="url(#clip31)"><text fill="#404040" font-family="Arial Nova,Arial Nova_MSFontService,sans-serif" font-weight="400" font-size="16" transform="translate(207.229 641)">310.950</text></g><g clip-path="url(#clip32)"><text fill="#404040" font-family="Arial Nova,Arial Nova_MSFontService,sans-serif" font-weight="400" font-size="16" transform="translate(204.944 663)">218.734</text></g><g clip-path="url(#clip33)"><text fill="#595959" font-family="Arial Nova,Arial Nova_MSFontService,sans-serif" font-weight="400" font-size="16" transform="translate(187.073 694)">0</text></g><g clip-path="url(#clip34)"><text fill="#595959" font-family="Arial Nova,Arial Nova_MSFontService,sans-serif" font-weight="400" font-size="16" transform="translate(280.281 694)">5.000.000</text></g><g clip-path="url(#clip35)"><text fill="#595959" font-family="Arial Nova,Arial Nova_MSFontService,sans-serif" font-weight="400" font-size="16" transform="translate(399.739 694)">10.000.000</text></g><g clip-path="url(#clip36)"><text fill="#595959" font-family="Arial Nova,Arial Nova_MSFontService,sans-serif" font-weight="400" font-size="16" transform="translate(523.647 694)">15.000.000</text></g><g clip-path="url(#clip37)"><text fill="#595959" font-family="Arial Nova,Arial Nova_MSFontService,sans-serif" font-weight="400" font-size="16" transform="translate(104.782 96)">São Paulo</text></g><g clip-path="url(#clip38)"><text fill="#595959" font-family="Arial Nova,Arial Nova_MSFontService,sans-serif" font-weight="400" font-size="16" transform="translate(136.922 118)">Bahia</text></g><g clip-path="url(#clip39)"><text fill="#595959" font-family="Arial Nova,Arial Nova_MSFontService,sans-serif" font-weight="400" font-size="16" transform="translate(84.3814 140)">Minas Gerais</text></g><g clip-path="url(#clip40)"><text fill="#595959" font-family="Arial Nova,Arial Nova_MSFontService,sans-serif" font-weight="400" font-size="16" transform="translate(74.8815 161)">Rio de Janeiro</text></g><g clip-path="url(#clip41)"><text fill="#595959" font-family="Arial Nova,Arial Nova_MSFontService,sans-serif" font-weight="400" font-size="16" transform="translate(86.1282 183)">Pernambuco</text></g><g clip-path="url(#clip42)"><text fill="#595959" font-family="Arial Nova,Arial Nova_MSFontService,sans-serif" font-weight="400" font-size="16" transform="translate(133.882 205)">Ceará</text></g><g clip-path="url(#clip43)"><text fill="#595959" font-family="Arial Nova,Arial Nova_MSFontService,sans-serif" font-weight="400" font-size="16" transform="translate(144.162 227)">Pará</text></g><g clip-path="url(#clip44)"><text fill="#595959" font-family="Arial Nova,Arial Nova_MSFontService,sans-serif" font-weight="400" font-size="16" transform="translate(105.642 248)">Maranhão</text></g><g clip-path="url(#clip45)"><text fill="#595959" font-family="Arial Nova,Arial Nova_MSFontService,sans-serif" font-weight="400" font-size="16" transform="translate(126.895 270)">Paraná</text></g><g clip-path="url(#clip46)"><text fill="#595959" font-family="Arial Nova,Arial Nova_MSFontService,sans-serif" font-weight="400" font-size="16" transform="translate(46.7614 292)">Rio Grande do Sul</text></g><g clip-path="url(#clip47)"><text fill="#595959" font-family="Arial Nova,Arial Nova_MSFontService,sans-serif" font-weight="400" font-size="16" transform="translate(136.282 314)">Goiás</text></g><g clip-path="url(#clip48)"><text fill="#595959" font-family="Arial Nova,Arial Nova_MSFontService,sans-serif" font-weight="400" font-size="16" transform="translate(123.068 335)">Paraíba</text></g><g clip-path="url(#clip49)"><text fill="#595959" font-family="Arial Nova,Arial Nova_MSFontService,sans-serif" font-weight="400" font-size="16" transform="translate(103.002 357)">Amazonas</text></g><g clip-path="url(#clip50)"><text fill="#595959" font-family="Arial Nova,Arial Nova_MSFontService,sans-serif" font-weight="400" font-size="16" transform="translate(142.242 379)">Piauí</text></g><g clip-path="url(#clip51)"><text fill="#595959" font-family="Arial Nova,Arial Nova_MSFontService,sans-serif" font-weight="400" font-size="16" transform="translate(71.9881 401)">Santa Catarina</text></g><g clip-path="url(#clip52)"><text fill="#595959" font-family="Arial Nova,Arial Nova_MSFontService,sans-serif" font-weight="400" font-size="16" transform="translate(120.048 422)">Alagoas</text></g><g clip-path="url(#clip53)"><text fill="#595959" font-family="Arial Nova,Arial Nova_MSFontService,sans-serif" font-weight="400" font-size="16" transform="translate(30.3414 444)">Rio Grande do Norte</text></g><g clip-path="url(#clip54)"><text fill="#595959" font-family="Arial Nova,Arial Nova_MSFontService,sans-serif" font-weight="400" font-size="16" transform="translate(78.1081 466)">Espírito Santo</text></g><g clip-path="url(#clip55)"><text fill="#595959" font-family="Arial Nova,Arial Nova_MSFontService,sans-serif" font-weight="400" font-size="16" transform="translate(86.2215 488)">Mato Grosso</text></g><g clip-path="url(#clip56)"><text fill="#595959" font-family="Arial Nova,Arial Nova_MSFontService,sans-serif" font-weight="400" font-size="16" transform="translate(121.048 510)">Sergipe</text></g><g clip-path="url(#clip57)"><text fill="#595959" font-family="Arial Nova,Arial Nova_MSFontService,sans-serif" font-weight="400" font-size="16" transform="translate(36.4213 531)">Mato Grosso do Sul</text></g><g clip-path="url(#clip58)"><text fill="#595959" font-family="Arial Nova,Arial Nova_MSFontService,sans-serif" font-weight="400" font-size="16" transform="translate(68.8148 553)">Distrito Federal</text></g><g clip-path="url(#clip59)"><text fill="#595959" font-family="Arial Nova,Arial Nova_MSFontService,sans-serif" font-weight="400" font-size="16" transform="translate(109.562 575)">Rondônia</text></g><g clip-path="url(#clip60)"><text fill="#595959" font-family="Arial Nova,Arial Nova_MSFontService,sans-serif" font-weight="400" font-size="16" transform="translate(107.855 597)">Tocantins</text></g><g clip-path="url(#clip61)"><text fill="#595959" font-family="Arial Nova,Arial Nova_MSFontService,sans-serif" font-weight="400" font-size="16" transform="translate(143.015 618)">Acre</text></g><g clip-path="url(#clip62)"><text fill="#595959" font-family="Arial Nova,Arial Nova_MSFontService,sans-serif" font-weight="400" font-size="16" transform="translate(126.648 640)">Amapá</text></g><g clip-path="url(#clip63)"><text fill="#595959" font-family="Arial Nova,Arial Nova_MSFontService,sans-serif" font-weight="400" font-size="16" transform="translate(117.862 662)">Roraima</text></g><g clip-path="url(#clip64)"><text fill="#595959" font-family="Arial Nova,Arial Nova_MSFontService,sans-serif" font-weight="400" font-size="21" transform="translate(118.734 58)">População de cada UF que recebeu a RBE</text></g><rect x="22.5001" y="27.5001" width="596" height="679" stroke="#D9D9D9" stroke-linejoin="round" stroke-miterlimit="10" fill="none"/></g></svg>