<svg width="599" height="681" xmlns="http://www.w3.org/2000/svg" xmlns:xlink="http://www.w3.org/1999/xlink" overflow="hidden"><defs><clipPath id="clip0"><path d="M661 26 1260 26 1260 707 661 707Z" fill-rule="evenodd" clip-rule="evenodd"/></clipPath><clipPath id="clip1"><path d="M662 27 1258 27 1258 705 662 705Z" fill-rule="evenodd" clip-rule="evenodd"/></clipPath><clipPath id="clip2"><path d="M662 27 1258 27 1258 705 662 705Z" fill-rule="evenodd" clip-rule="evenodd"/></clipPath><clipPath id="clip3"><path d="M662 27 1258 27 1258 705 662 705Z" fill-rule="evenodd" clip-rule="evenodd"/></clipPath><clipPath id="clip4"><path d="M832 114 1228 114 1228 668 832 668Z" fill-rule="evenodd" clip-rule="evenodd"/></clipPath><clipPath id="clip5"><path d="M832 114 1228 114 1228 668 832 668Z" fill-rule="evenodd" clip-rule="evenodd"/></clipPath><clipPath id="clip6"><path d="M832 114 1228 114 1228 668 832 668Z" fill-rule="evenodd" clip-rule="evenodd"/></clipPath><clipPath id="clip7"><path d="M832 114 1228 114 1228 668 832 668Z" fill-rule="evenodd" clip-rule="evenodd"/></clipPath><clipPath id="clip8"><path d="M832 114 1228 114 1228 668 832 668Z" fill-rule="evenodd" clip-rule="evenodd"/></clipPath><clipPath id="clip9"><path d="M832 114 1228 114 1228 668 832 668Z" fill-rule="evenodd" clip-rule="evenodd"/></clipPath><clipPath id="clip10"><path d="M662 27 1258 27 1258 705 662 705Z" fill-rule="evenodd" clip-rule="evenodd"/></clipPath><clipPath id="clip11"><path d="M662 27 1258 27 1258 705 662 705Z" fill-rule="evenodd" clip-rule="evenodd"/></clipPath><clipPath id="clip12"><path d="M662 27 1258 27 1258 705 662 705Z" fill-rule="evenodd" clip-rule="evenodd"/></clipPath><clipPath id="clip13"><path d="M662 27 1258 27 1258 705 662 705Z" fill-rule="evenodd" clip-rule="evenodd"/></clipPath><clipPath id="clip14"><path d="M662 27 1258 27 1258 705 662 705Z" fill-rule="evenodd" clip-rule="evenodd"/></clipPath><clipPath id="clip15"><path d="M662 27 1258 27 1258 705 662 705Z" fill-rule="evenodd" clip-rule="evenodd"/></clipPath><clipPath id="clip16"><path d="M662 27 1258 27 1258 705 662 705Z" fill-rule="evenodd" clip-rule="evenodd"/></clipPath><clipPath id="clip17"><path d="M662 27 1258 27 1258 705 662 705Z" fill-rule="evenodd" clip-rule="evenodd"/></clipPath><clipPath id="clip18"><path d="M662 27 1258 27 1258 705 662 705Z" fill-rule="evenodd" clip-rule="evenodd"/></clipPath><clipPath id="clip19"><path d="M662 27 1258 27 1258 705 662 705Z" fill-rule="evenodd" clip-rule="evenodd"/></clipPath><clipPath id="clip20"><path d="M662 27 1258 27 1258 705 662 705Z" fill-rule="evenodd" clip-rule="evenodd"/></clipPath><clipPath id="clip21"><path d="M662 27 1258 27 1258 705 662 705Z" fill-rule="evenodd" clip-rule="evenodd"/></clipPath><clipPath id="clip22"><path d="M662 27 1258 27 1258 705 662 705Z" fill-rule="evenodd" clip-rule="evenodd"/></clipPath><clipPath id="clip23"><path d="M662 27 1258 27 1258 705 662 705Z" fill-rule="evenodd" clip-rule="evenodd"/></clipPath><clipPath id="clip24"><path d="M662 27 1258 27 1258 705 662 705Z" fill-rule="evenodd" clip-rule="evenodd"/></clipPath><clipPath id="clip25"><path d="M662 27 1258 27 1258 705 662 705Z" fill-rule="evenodd" clip-rule="evenodd"/></clipPath><clipPath id="clip26"><path d="M662 27 1258 27 1258 705 662 705Z" fill-rule="evenodd" clip-rule="evenodd"/></clipPath><clipPath id="clip27"><path d="M662 27 1258 27 1258 705 662 705Z" fill-rule="evenodd" clip-rule="evenodd"/></clipPath><clipPath id="clip28"><path d="M662 27 1258 27 1258 705 662 705Z" fill-rule="evenodd" clip-rule="evenodd"/></clipPath><clipPath id="clip29"><path d="M662 27 1258 27 1258 705 662 705Z" fill-rule="evenodd" clip-rule="evenodd"/></clipPath><clipPath id="clip30"><path d="M662 27 1258 27 1258 705 662 705Z" fill-rule="evenodd" clip-rule="evenodd"/></clipPath><clipPath id="clip31"><path d="M662 27 1258 27 1258 705 662 705Z" fill-rule="evenodd" clip-rule="evenodd"/></clipPath><clipPath id="clip32"><path d="M662 27 1258 27 1258 705 662 705Z" fill-rule="evenodd" clip-rule="evenodd"/></clipPath><clipPath id="clip33"><path d="M662 27 1258 27 1258 705 662 705Z" fill-rule="evenodd" clip-rule="evenodd"/></clipPath><clipPath id="clip34"><path d="M662 27 1258 27 1258 705 662 705Z" fill-rule="evenodd" clip-rule="evenodd"/></clipPath><clipPath id="clip35"><path d="M662 27 1258 27 1258 705 662 705Z" fill-rule="evenodd" clip-rule="evenodd"/></clipPath><clipPath id="clip36"><path d="M662 27 1258 27 1258 705 662 705Z" fill-rule="evenodd" clip-rule="evenodd"/></clipPath><clipPath id="clip37"><path d="M662 27 1258 27 1258 705 662 705Z" fill-rule="evenodd" clip-rule="evenodd"/></clipPath><clipPath id="clip38"><path d="M662 27 1258 27 1258 705 662 705Z" fill-rule="evenodd" clip-rule="evenodd"/></clipPath><clipPath id="clip39"><path d="M662 27 1258 27 1258 705 662 705Z" fill-rule="evenodd" clip-rule="evenodd"/></clipPath><clipPath id="clip40"><path d="M662 27 1258 27 1258 705 662 705Z" fill-rule="evenodd" clip-rule="evenodd"/></clipPath><clipPath id="clip41"><path d="M662 27 1258 27 1258 705 662 705Z" fill-rule="evenodd" clip-rule="evenodd"/></clipPath><clipPath id="clip42"><path d="M662 27 1258 27 1258 705 662 705Z" fill-rule="evenodd" clip-rule="evenodd"/></clipPath><clipPath id="clip43"><path d="M662 27 1258 27 1258 705 662 705Z" fill-rule="evenodd" clip-rule="evenodd"/></clipPath><clipPath id="clip44"><path d="M662 27 1258 27 1258 705 662 705Z" fill-rule="evenodd" clip-rule="evenodd"/></clipPath><clipPath id="clip45"><path d="M662 27 1258 27 1258 705 662 705Z" fill-rule="evenodd" clip-rule="evenodd"/></clipPath><clipPath id="clip46"><path d="M662 27 1258 27 1258 705 662 705Z" fill-rule="evenodd" clip-rule="evenodd"/></clipPath><clipPath id="clip47"><path d="M662 27 1258 27 1258 705 662 705Z" fill-rule="evenodd" clip-rule="evenodd"/></clipPath><clipPath id="clip48"><path d="M662 27 1258 27 1258 705 662 705Z" fill-rule="evenodd" clip-rule="evenodd"/></clipPath><clipPath id="clip49"><path d="M662 27 1258 27 1258 705 662 705Z" fill-rule="evenodd" clip-rule="evenodd"/></clipPath><clipPath id="clip50"><path d="M662 27 1258 27 1258 705 662 705Z" fill-rule="evenodd" clip-rule="evenodd"/></clipPath><clipPath id="clip51"><path d="M662 27 1258 27 1258 705 662 705Z" fill-rule="evenodd" clip-rule="evenodd"/></clipPath><clipPath id="clip52"><path d="M662 27 1258 27 1258 705 662 705Z" fill-rule="evenodd" clip-rule="evenodd"/></clipPath><clipPath id="clip53"><path d="M662 27 1258 27 1258 705 662 705Z" fill-rule="evenodd" clip-rule="evenodd"/></clipPath><clipPath id="clip54"><path d="M662 27 1258 27 1258 705 662 705Z" fill-rule="evenodd" clip-rule="evenodd"/></clipPath><clipPath id="clip55"><path d="M662 27 1258 27 1258 705 662 705Z" fill-rule="evenodd" clip-rule="evenodd"/></clipPath><clipPath id="clip56"><path d="M662 27 1258 27 1258 705 662 705Z" fill-rule="evenodd" clip-rule="evenodd"/></clipPath><clipPath id="clip57"><path d="M662 27 1258 27 1258 705 662 705Z" fill-rule="evenodd" clip-rule="evenodd"/></clipPath><clipPath id="clip58"><path d="M662 27 1258 27 1258 705 662 705Z" fill-rule="evenodd" clip-rule="evenodd"/></clipPath><clipPath id="clip59"><path d="M662 27 1258 27 1258 705 662 705Z" fill-rule="evenodd" clip-rule="evenodd"/></clipPath><clipPath id="clip60"><path d="M662 27 1258 27 1258 705 662 705Z" fill-rule="evenodd" clip-rule="evenodd"/></clipPath><clipPath id="clip61"><path d="M662 27 1258 27 1258 705 662 705Z" fill-rule="evenodd" clip-rule="evenodd"/></clipPath><clipPath id="clip62"><path d="M662 27 1258 27 1258 705 662 705Z" fill-rule="evenodd" clip-rule="evenodd"/></clipPath><clipPath id="clip63"><path d="M662 27 1258 27 1258 705 662 705Z" fill-rule="evenodd" clip-rule="evenodd"/></clipPath><clipPath id="clip64"><path d="M662 27 1258 27 1258 705 662 705Z" fill-rule="evenodd" clip-rule="evenodd"/></clipPath><clipPath id="clip65"><path d="M662 27 1258 27 1258 705 662 705Z" fill-rule="evenodd" clip-rule="evenodd"/></clipPath><clipPath id="clip66"><path d="M662 27 1258 27 1258 705 662 705Z" fill-rule="evenodd" clip-rule="evenodd"/></clipPath><clipPath id="clip67"><path d="M662 27 1258 27 1258 705 662 705Z" fill-rule="evenodd" clip-rule="evenodd"/></clipPath><clipPath id="clip68"><path d="M662 27 1258 27 1258 705 662 705Z" fill-rule="evenodd" clip-rule="evenodd"/></clipPath><clipPath id="clip69"><path d="M662 27 1258 27 1258 705 662 705Z" fill-rule="evenodd" clip-rule="evenodd"/></clipPath><clipPath id="clip70"><path d="M662 27 1258 27 1258 705 662 705Z" fill-rule="evenodd" clip-rule="evenodd"/></clipPath><clipPath id="clip71"><path d="M662 27 1258 27 1258 705 662 705Z" fill-rule="evenodd" clip-rule="evenodd"/></clipPath><clipPath id="clip72"><path d="M662 27 1258 27 1258 705 662 705Z" fill-rule="evenodd" clip-rule="evenodd"/></clipPath><clipPath id="clip73"><path d="M662 27 1258 27 1258 705 662 705Z" fill-rule="evenodd" clip-rule="evenodd"/></clipPath><clipPath id="clip74"><path d="M662 27 1258 27 1258 705 662 705Z" fill-rule="evenodd" clip-rule="evenodd"/></clipPath><clipPath id="clip75"><path d="M662 27 1258 27 1258 705 662 705Z" fill-rule="evenodd" clip-rule="evenodd"/></clipPath><clipPath id="clip76"><path d="M662 27 1258 27 1258 705 662 705Z" fill-rule="evenodd" clip-rule="evenodd"/></clipPath><clipPath id="clip77"><path d="M662 27 1258 27 1258 705 662 705Z" fill-rule="evenodd" clip-rule="evenodd"/></clipPath><clipPath id="clip78"><path d="M662 27 1258 27 1258 705 662 705Z" fill-rule="evenodd" clip-rule="evenodd"/></clipPath><clipPath id="clip79"><path d="M662 27 1258 27 1258 705 662 705Z" fill-rule="evenodd" clip-rule="evenodd"/></clipPath><clipPath id="clip80"><path d="M662 27 1258 27 1258 705 662 705Z" fill-rule="evenodd" clip-rule="evenodd"/></clipPath><clipPath id="clip81"><path d="M662 27 1258 27 1258 705 662 705Z" fill-rule="evenodd" clip-rule="evenodd"/></clipPath><clipPath id="clip82"><path d="M662 27 1258 27 1258 705 662 705Z" fill-rule="evenodd" clip-rule="evenodd"/></clipPath></defs><g clip-path="url(#clip0)" transform="translate(-661 -26)"><rect x="662" y="27" width="596" height="679" fill="#F2F2F2"/><g clip-path="url(#clip1)"><rect x="832" y="115" width="396" height="552" fill="#FDFDFD"/></g><g clip-path="url(#clip2)"><path d="M1030.5 114.5 1030.5 667.5M1227.5 114.5 1227.5 667.5" stroke="#D9D9D9" stroke-linejoin="round" stroke-miterlimit="10" fill="none"/></g><g clip-path="url(#clip3)"><rect x="832.5" y="114.5" width="395" height="553" stroke="#D9D9D9" stroke-linejoin="round" stroke-miterlimit="10" fill="none"/></g><g clip-path="url(#clip4)"><path d="M1143 256 832 256 832 269 1143 269ZM1122 296 832 296 832 309 1122 309ZM1118 335 832 335 832 348 1118 348ZM1118 355 832 355 832 368 1118 368ZM1111 375 832 375 832 388 1111 388ZM1095 394 832 394 832 407 1095 407ZM1068 434 832 434 832 447 1068 447Z" fill="#C00000"/></g><g clip-path="url(#clip5)"><path d="M1167 118 832 118 832 131 1167 131ZM1158 138 832 138 832 151 1158 151ZM1149 158 832 158 832 171 1149 171ZM1149 177 832 177 832 190 1149 190ZM1149 197 832 197 832 210 1149 210ZM1147 217 832 217 832 230 1147 230ZM1143 237 832 237 832 250 1143 250ZM1140 276 832 276 832 289 1140 289ZM1122 315 832 315 832 329 1122 329Z" fill="#F79646"/></g><g clip-path="url(#clip6)"><path d="M1061 454 832 454 832 467 1061 467ZM1055 513 832 513 832 526 1055 526ZM1045 552 832 552 832 565 1045 565ZM1019 592 832 592 832 605 1019 605Z" fill="#9BB85C"/></g><g clip-path="url(#clip7)"><path d="M1021 572 832 572 832 585 1021 585ZM995 631 832 631 832 644 995 644ZM977 651 832 651 832 664 977 664Z" fill="#8064A2"/></g><g clip-path="url(#clip8)"><path d="M1061 473 832 473 832 486 1061 486ZM1057 493 832 493 832 506 1057 506ZM1049 532 832 532 832 546 1049 546ZM1001 611 832 611 832 624 1001 624Z" fill="#4BACC6"/></g><g clip-path="url(#clip9)"><path d="M1069 414 832 414 832 427 1069 427Z" fill="#276A7C"/></g><g clip-path="url(#clip10)"><path d="M832.5 114.5 832.5 667.5" stroke="#D9D9D9" stroke-linejoin="round" stroke-miterlimit="10" fill="none" fill-rule="evenodd"/></g><g clip-path="url(#clip11)"><text fill="#404040" font-family="Arial Nova,Arial Nova_MSFontService,sans-serif" font-weight="400" font-size="16" transform="translate(1150.79 269)">39%</text></g><g clip-path="url(#clip12)"><text fill="#404040" font-family="Arial Nova,Arial Nova_MSFontService,sans-serif" font-weight="400" font-size="16" transform="translate(1130.12 309)">37%</text></g><g clip-path="url(#clip13)"><text fill="#404040" font-family="Arial Nova,Arial Nova_MSFontService,sans-serif" font-weight="400" font-size="16" transform="translate(1126.04 348)">36%</text></g><g clip-path="url(#clip14)"><text fill="#404040" font-family="Arial Nova,Arial Nova_MSFontService,sans-serif" font-weight="400" font-size="16" transform="translate(1125.86 368)">36%</text></g><g clip-path="url(#clip15)"><text fill="#404040" font-family="Arial Nova,Arial Nova_MSFontService,sans-serif" font-weight="400" font-size="16" transform="translate(1119.34 388)">35%</text></g><g clip-path="url(#clip16)"><text fill="#404040" font-family="Arial Nova,Arial Nova_MSFontService,sans-serif" font-weight="400" font-size="16" transform="translate(1103.24 407)">33%</text></g><g clip-path="url(#clip17)"><text fill="#404040" font-family="Arial Nova,Arial Nova_MSFontService,sans-serif" font-weight="400" font-size="16" transform="translate(1075.59 447)">30%</text></g><g clip-path="url(#clip18)"><text fill="#404040" font-family="Arial Nova,Arial Nova_MSFontService,sans-serif" font-weight="400" font-size="16" transform="translate(1174.61 131)">42%</text></g><g clip-path="url(#clip19)"><text fill="#404040" font-family="Arial Nova,Arial Nova_MSFontService,sans-serif" font-weight="400" font-size="16" transform="translate(1166.34 151)">41%</text></g><g clip-path="url(#clip20)"><text fill="#404040" font-family="Arial Nova,Arial Nova_MSFontService,sans-serif" font-weight="400" font-size="16" transform="translate(1157.13 171)">40%</text></g><g clip-path="url(#clip21)"><text fill="#404040" font-family="Arial Nova,Arial Nova_MSFontService,sans-serif" font-weight="400" font-size="16" transform="translate(1156.81 190)">40%</text></g><g clip-path="url(#clip22)"><text fill="#404040" font-family="Arial Nova,Arial Nova_MSFontService,sans-serif" font-weight="400" font-size="16" transform="translate(1156.74 210)">40%</text></g><g clip-path="url(#clip23)"><text fill="#404040" font-family="Arial Nova,Arial Nova_MSFontService,sans-serif" font-weight="400" font-size="16" transform="translate(1155.15 230)">40%</text></g><g clip-path="url(#clip24)"><text fill="#404040" font-family="Arial Nova,Arial Nova_MSFontService,sans-serif" font-weight="400" font-size="16" transform="translate(1151.41 249)">39%</text></g><g clip-path="url(#clip25)"><text fill="#404040" font-family="Arial Nova,Arial Nova_MSFontService,sans-serif" font-weight="400" font-size="16" transform="translate(1147.56 289)">39%</text></g><g clip-path="url(#clip26)"><text fill="#404040" font-family="Arial Nova,Arial Nova_MSFontService,sans-serif" font-weight="400" font-size="16" transform="translate(1129.99 328)">37%</text></g><g clip-path="url(#clip27)"><text fill="#404040" font-family="Arial Nova,Arial Nova_MSFontService,sans-serif" font-weight="400" font-size="16" transform="translate(1069.17 466)">29%</text></g><g clip-path="url(#clip28)"><text fill="#404040" font-family="Arial Nova,Arial Nova_MSFontService,sans-serif" font-weight="400" font-size="16" transform="translate(1062.78 526)">28%</text></g><g clip-path="url(#clip29)"><text fill="#404040" font-family="Arial Nova,Arial Nova_MSFontService,sans-serif" font-weight="400" font-size="16" transform="translate(1053.37 565)">27%</text></g><g clip-path="url(#clip30)"><text fill="#404040" font-family="Arial Nova,Arial Nova_MSFontService,sans-serif" font-weight="400" font-size="16" transform="translate(1026.64 605)">24%</text></g><g clip-path="url(#clip31)"><text fill="#404040" font-family="Arial Nova,Arial Nova_MSFontService,sans-serif" font-weight="400" font-size="16" transform="translate(1029.29 585)">24%</text></g><g clip-path="url(#clip32)"><text fill="#404040" font-family="Arial Nova,Arial Nova_MSFontService,sans-serif" font-weight="400" font-size="16" transform="translate(1003.4 644)">21%</text></g><g clip-path="url(#clip33)"><text fill="#404040" font-family="Arial Nova,Arial Nova_MSFontService,sans-serif" font-weight="400" font-size="16" transform="translate(985.236 664)">18%</text></g><g clip-path="url(#clip34)"><text fill="#404040" font-family="Arial Nova,Arial Nova_MSFontService,sans-serif" font-weight="400" font-size="16" transform="translate(1069.12 486)">29%</text></g><g clip-path="url(#clip35)"><text fill="#404040" font-family="Arial Nova,Arial Nova_MSFontService,sans-serif" font-weight="400" font-size="16" transform="translate(1064.92 506)">28%</text></g><g clip-path="url(#clip36)"><text fill="#404040" font-family="Arial Nova,Arial Nova_MSFontService,sans-serif" font-weight="400" font-size="16" transform="translate(1057.23 545)">27%</text></g><g clip-path="url(#clip37)"><text fill="#404040" font-family="Arial Nova,Arial Nova_MSFontService,sans-serif" font-weight="400" font-size="16" transform="translate(1008.62 624)">21%</text></g><g clip-path="url(#clip38)"><text fill="#404040" font-family="Arial Nova,Arial Nova_MSFontService,sans-serif" font-weight="400" font-size="16" transform="translate(1077.39 427)">30%</text></g><g clip-path="url(#clip39)"><text fill="#595959" font-family="Arial Nova,Arial Nova_MSFontService,sans-serif" font-weight="400" font-size="16" transform="translate(821.072 694)">0%</text></g><g clip-path="url(#clip40)"><text fill="#595959" font-family="Arial Nova,Arial Nova_MSFontService,sans-serif" font-weight="400" font-size="16" transform="translate(1014.43 694)">25%</text></g><g clip-path="url(#clip41)"><text fill="#595959" font-family="Arial Nova,Arial Nova_MSFontService,sans-serif" font-weight="400" font-size="16" transform="translate(1212.23 694)">50%</text></g><g clip-path="url(#clip42)"><text fill="#595959" font-family="Arial Nova,Arial Nova_MSFontService,sans-serif" font-weight="400" font-size="16" transform="translate(783.054 130)">Piauí</text></g><g clip-path="url(#clip43)"><text fill="#595959" font-family="Arial Nova,Arial Nova_MSFontService,sans-serif" font-weight="400" font-size="16" transform="translate(746.454 150)">Maranhão</text></g><g clip-path="url(#clip44)"><text fill="#595959" font-family="Arial Nova,Arial Nova_MSFontService,sans-serif" font-weight="400" font-size="16" transform="translate(777.734 170)">Bahia</text></g><g clip-path="url(#clip45)"><text fill="#595959" font-family="Arial Nova,Arial Nova_MSFontService,sans-serif" font-weight="400" font-size="16" transform="translate(763.88 189)">Paraíba</text></g><g clip-path="url(#clip46)"><text fill="#595959" font-family="Arial Nova,Arial Nova_MSFontService,sans-serif" font-weight="400" font-size="16" transform="translate(726.94 209)">Pernambuco</text></g><g clip-path="url(#clip47)"><text fill="#595959" font-family="Arial Nova,Arial Nova_MSFontService,sans-serif" font-weight="400" font-size="16" transform="translate(761.86 229)">Sergipe</text></g><g clip-path="url(#clip48)"><text fill="#595959" font-family="Arial Nova,Arial Nova_MSFontService,sans-serif" font-weight="400" font-size="16" transform="translate(774.694 249)">Ceará</text></g><g clip-path="url(#clip49)"><text fill="#595959" font-family="Arial Nova,Arial Nova_MSFontService,sans-serif" font-weight="400" font-size="16" transform="translate(784.974 268)">Pará</text></g><g clip-path="url(#clip50)"><text fill="#595959" font-family="Arial Nova,Arial Nova_MSFontService,sans-serif" font-weight="400" font-size="16" transform="translate(760.86 288)">Alagoas</text></g><g clip-path="url(#clip51)"><text fill="#595959" font-family="Arial Nova,Arial Nova_MSFontService,sans-serif" font-weight="400" font-size="16" transform="translate(767.46 308)">Amapá</text></g><g clip-path="url(#clip52)"><text fill="#595959" font-family="Arial Nova,Arial Nova_MSFontService,sans-serif" font-weight="400" font-size="16" transform="translate(671.153 327)">Rio Grande do Norte</text></g><g clip-path="url(#clip53)"><text fill="#595959" font-family="Arial Nova,Arial Nova_MSFontService,sans-serif" font-weight="400" font-size="16" transform="translate(758.674 347)">Roraima</text></g><g clip-path="url(#clip54)"><text fill="#595959" font-family="Arial Nova,Arial Nova_MSFontService,sans-serif" font-weight="400" font-size="16" transform="translate(743.814 367)">Amazonas</text></g><g clip-path="url(#clip55)"><text fill="#595959" font-family="Arial Nova,Arial Nova_MSFontService,sans-serif" font-weight="400" font-size="16" transform="translate(783.827 387)">Acre</text></g><g clip-path="url(#clip56)"><text fill="#595959" font-family="Arial Nova,Arial Nova_MSFontService,sans-serif" font-weight="400" font-size="16" transform="translate(748.667 406)">Tocantins</text></g><g clip-path="url(#clip57)"><text fill="#595959" font-family="Arial Nova,Arial Nova_MSFontService,sans-serif" font-weight="400" font-size="16" transform="translate(778.027 426)">Brasil</text></g><g clip-path="url(#clip58)"><text fill="#595959" font-family="Arial Nova,Arial Nova_MSFontService,sans-serif" font-weight="400" font-size="16" transform="translate(750.374 446)">Rondônia</text></g><g clip-path="url(#clip59)"><text fill="#595959" font-family="Arial Nova,Arial Nova_MSFontService,sans-serif" font-weight="400" font-size="16" transform="translate(715.693 466)">Rio de Janeiro</text></g><g clip-path="url(#clip60)"><text fill="#595959" font-family="Arial Nova,Arial Nova_MSFontService,sans-serif" font-weight="400" font-size="16" transform="translate(727.034 485)">Mato Grosso</text></g><g clip-path="url(#clip61)"><text fill="#595959" font-family="Arial Nova,Arial Nova_MSFontService,sans-serif" font-weight="400" font-size="16" transform="translate(777.094 505)">Goiás</text></g><g clip-path="url(#clip62)"><text fill="#595959" font-family="Arial Nova,Arial Nova_MSFontService,sans-serif" font-weight="400" font-size="16" transform="translate(718.92 525)">Espírito Santo</text></g><g clip-path="url(#clip63)"><text fill="#595959" font-family="Arial Nova,Arial Nova_MSFontService,sans-serif" font-weight="400" font-size="16" transform="translate(677.233 544)">Mato Grosso do Sul</text></g><g clip-path="url(#clip64)"><text fill="#595959" font-family="Arial Nova,Arial Nova_MSFontService,sans-serif" font-weight="400" font-size="16" transform="translate(725.193 564)">Minas Gerais</text></g><g clip-path="url(#clip65)"><text fill="#595959" font-family="Arial Nova,Arial Nova_MSFontService,sans-serif" font-weight="400" font-size="16" transform="translate(767.707 584)">Paraná</text></g><g clip-path="url(#clip66)"><text fill="#595959" font-family="Arial Nova,Arial Nova_MSFontService,sans-serif" font-weight="400" font-size="16" transform="translate(745.594 604)">São Paulo</text></g><g clip-path="url(#clip67)"><text fill="#595959" font-family="Arial Nova,Arial Nova_MSFontService,sans-serif" font-weight="400" font-size="16" transform="translate(709.627 623)">Distrito Federal</text></g><g clip-path="url(#clip68)"><text fill="#595959" font-family="Arial Nova,Arial Nova_MSFontService,sans-serif" font-weight="400" font-size="16" transform="translate(687.573 643)">Rio Grande do Sul</text></g><g clip-path="url(#clip69)"><text fill="#595959" font-family="Arial Nova,Arial Nova_MSFontService,sans-serif" font-weight="400" font-size="16" transform="translate(712.8 663)">Santa Catarina</text></g><g clip-path="url(#clip70)"><text fill="#595959" font-family="Arial Nova,Arial Nova_MSFontService,sans-serif" font-weight="400" font-size="21" transform="translate(759.546 58)">População de cada UF que recebeu a RBE</text></g><g clip-path="url(#clip71)"><rect x="723" y="82" width="8" height="9" fill="#C00000"/></g><g clip-path="url(#clip72)"><text fill="#595959" font-family="Arial Nova,Arial Nova_MSFontService,sans-serif" font-weight="400" font-size="16" transform="translate(735.199 92)">Norte</text></g><g clip-path="url(#clip73)"><rect x="792" y="82" width="8" height="9" fill="#F79646"/></g><g clip-path="url(#clip74)"><text fill="#595959" font-family="Arial Nova,Arial Nova_MSFontService,sans-serif" font-weight="400" font-size="16" transform="translate(804.146 92)">Nordeste</text></g><g clip-path="url(#clip75)"><rect x="886" y="82" width="9" height="9" fill="#9BB85C"/></g><g clip-path="url(#clip76)"><text fill="#595959" font-family="Arial Nova,Arial Nova_MSFontService,sans-serif" font-weight="400" font-size="16" transform="translate(898.627 92)">Sudeste</text></g><g clip-path="url(#clip77)"><rect x="974" y="82" width="9" height="9" fill="#8064A2"/></g><g clip-path="url(#clip78)"><text fill="#595959" font-family="Arial Nova,Arial Nova_MSFontService,sans-serif" font-weight="400" font-size="16" transform="translate(986.529 92)">Sul</text></g><g clip-path="url(#clip79)"><rect x="1026" y="82" width="9" height="9" fill="#4BACC6"/></g><g clip-path="url(#clip80)"><text fill="#595959" font-family="Arial Nova,Arial Nova_MSFontService,sans-serif" font-weight="400" font-size="16" transform="translate(1039.06 92)">Centro-Oeste</text></g><g clip-path="url(#clip81)"><rect x="1152" y="82" width="9" height="9" fill="#276A7C"/></g><g clip-path="url(#clip82)"><text fill="#595959" font-family="Arial Nova,Arial Nova_MSFontService,sans-serif" font-weight="400" font-size="16" transform="translate(1164.64 92)">Brasil</text></g><rect x="662.5" y="27.5001" width="596" height="679" stroke="#D9D9D9" stroke-linejoin="round" stroke-miterlimit="10" fill="none"/></g></svg>