<svg xmlns="http://www.w3.org/2000/svg" viewBox="0 0 344.27 342.99"><defs><style>.a{fill:#fefefe;stroke:#9dccfe;stroke-miterlimit:10;stroke-width:0.49px;}</style></defs><title>contorno_brasil</title><path class="a" d="M4.39,126.78c.49,1,1.46,1.47,2.19,2.2a26.93,26.93,0,0,1,1.47,2.68c.48,1,1.46,1.71,1.46,2.68,0,.73-1.22,1.22-1.46,1.95A4.84,4.84,0,0,0,8.29,138l.73.73c1,0,1.22-1,2-1.46h1.22c.49.24.49,1.22,1,1.22.24.24.73-.73,1.22-.49a1.33,1.33,0,0,1,1.21.73c.74,1,.49,2.2,1.22,3.17a3.91,3.91,0,0,0,2.44,1.22,3.41,3.41,0,0,0,2.2-.73c.73-.73.73-1.71,1.21-2.2s1.22-.24,1.71-.48a10.8,10.8,0,0,1,1.71-1c.24-.24,1-1,1.22-.73.73,1,.49,2.19.49,3.17.24,2.93-.74,6.1.24,8.78.24,1,1.71.73,2.68.48s1.71-1.21,2.68-1.21a15.6,15.6,0,0,1,3.42,0,29.94,29.94,0,0,0,4.63.24,12.11,12.11,0,0,0,5.12,0c.73,0,1.46-1,1.71-1.71.48-.48,0-1.46.48-1.95.25-.24,1.22-.24,1.71-.24s.73.73,1,.49a5,5,0,0,0,2.19-1.47c.73-.73,1-2,1.71-2.44.48-.24,1,.74,1.22.49.73-.49,1-1.46,1.46-2.19a7.46,7.46,0,0,1,2.44-1.71,22.23,22.23,0,0,1,3.9-1c.73,0,1.22-.25,1.95-.25s1.46.25,2.19.25c.49,0,1-.49,1.47-.49.24-.25.73-.73,1-.25a4.94,4.94,0,0,1,1,3.17c0,1-1,1.47-1,2.2a4.91,4.91,0,0,0,.24,2.68c.25.73,1,1,1.22,1.71a3.29,3.29,0,0,1,0,2.19c-.24.49-1.22.25-1.22.73a7,7,0,0,0,.74,2.44c.48,1,.48,2,1.21,2.93a9.19,9.19,0,0,0,2.93,3.17c1,.73,2.2.73,3.17,1.22.49.48.24,1.7,1,2.19a2.84,2.84,0,0,0,2.43.24,7.29,7.29,0,0,0,2.44-.48c.25,0,.49-.49,1-.49a18.25,18.25,0,0,1,3.17,1.46c.73.49,1,1.46,1.7,2,.73.25,1.47-.24,2,.25,1,.24,1.47,1.46,2.44,1.7a4.69,4.69,0,0,0,2.44.73c.49.25,1.22-.24,1.71.25,1,.73,1.46,2.19,2.68,2.92a4.38,4.38,0,0,0,3.17.49c.49-.24.49-1.46,1.22-1.46,1-.25,1.7.49,2.68.73l2.19,1.46c1,.49,2.44.73,2.93,1.71.49.73-.49,1.95-.24,2.93.24,1.21,1.22,2.19,1.7,3.41a11.37,11.37,0,0,1,0,2.92c0,.25.25.49,0,.74-.73.24-1.46-.25-2,0-.24.24,0,1,.25,1.22.24.48,1,.73,1.22,1.46a7.86,7.86,0,0,1,.73,3.41c.24,1,0,2,.24,2.68a3.24,3.24,0,0,0,1.71,2.2c1.95.49,4.14,0,6.34,0a47.7,47.7,0,0,0,5.85.24c.49.25,1.7-.49,1.7.25.25.73-1.21,1.21-1.46,2.19,0,.73.73,1.22,1,1.71.48,1,.48,2.19,1,2.92a6,6,0,0,0,2,1.47c.73.73,1.22,1.46,1.95,2.19a10.73,10.73,0,0,1,2,2.68,6.67,6.67,0,0,1,.49,3.17,6.48,6.48,0,0,1-.73,2.93,22.78,22.78,0,0,1-1.46,3.65,18.46,18.46,0,0,1-1.22,3.91c-.25.73-1,1.7-.73,2.43s1.22.73,1.7,1c.25.49.49,1,.25,1.22-.25.49-1,0-1.47.49a2.33,2.33,0,0,0-.48,2.19c0,1,.73,1.71,1,2.68a11.08,11.08,0,0,1,.73,1.71,3.56,3.56,0,0,1,.73,1.71,6.73,6.73,0,0,1,0,3.16,6.26,6.26,0,0,1-.48,1.71c0,.49.24,1.22.24,1.71,0,.73-.49,1.46-.49,2.19s0,1.71.73,2.2c.74.24,1.47-.73,2.2-.73s1.71.24,2.68.24c.73.24,1.71,0,2.44.24.73,0,1.22.49,1.71.49a4.56,4.56,0,0,0,1.7.49c.49-.25.49-1.71,1.22-1.46.73,0,.73,1.21,1.46,1.7,1,.49,2.44,0,3.42.49a7.49,7.49,0,0,1,1.46,3.17c.73,1.95.73,3.66,1.22,5.61.24,1,.24,2.44,1.22,3.17.49.48,1.71.48,2.68.73,1.22,0,2.44-.49,3.41-.25s2.44.74,2.69,1.71c.48,1.22-1,2.44-1,3.66,0,1,.73,1.7.49,2.68,0,.73-.73,1.46-.73,2.44-.25.49.73.73.49,1.22s-1,.24-1.22.73a2.61,2.61,0,0,0,0,1.95c0,.73,0,1.46.73,1.71,1,.24,2.44-1,3.41-.49,1.22.73,1.71,2.44,2.2,3.66a4.75,4.75,0,0,1,.73,2.43c-.25.49-1,.74-1,1.22-.24.73.25,1.47.25,2.44a7.34,7.34,0,0,1-.49,2.2,8,8,0,0,1-1.47,2.43,3.82,3.82,0,0,1-1.7,1c-.73.24-1.71,0-2.68.24a21.91,21.91,0,0,0-2.44,1.95c-.73.49-1.22,1.22-1.95,1.71-1,.73-2.2,1.22-3.42,2-.48.49-.73,1.22-1.46,1.95-.49.73-1.22,1.46-1.71,2.2-.48.48-.73,1-1.21,1.46a12,12,0,0,1-2.2,1.46,18.07,18.07,0,0,1-1.22,2.2c-.49.73-1.22,1-1.7,1.7s-.49,1.95-1.22,2.68-2,.49-2.44,1.22c-.73.49-.73,1.47-1,2.2-.24.49-.73,1.22-.24,1.46.49.49,1.22-.49,1.71-.24.48,0,.73.73,1,.73.49,0,.73-.49,1-.73s.24-.73.48-1a4.61,4.61,0,0,1,1.71-.49c.49,0,.49.74,1,1,.24.24.73.24,1,.49.49.48.24,1.22.73,1.7s1.47.49,1.71.73c.49.49.49,1.22.73,1.71a6,6,0,0,0,.73,1.71,1.1,1.1,0,0,0,1.22,0,4.32,4.32,0,0,0,1.22-.49c.24-.24.49-.24.49-.49.24-.24,0-.73,0-1a.88.88,0,0,1,.73-.25c.49,0,1.46,0,1.46.49.25.49-.73,1-1,1.46a1.87,1.87,0,0,0,.48,1.22,7.22,7.22,0,0,0,2.93,2.44c.73.49,1.95.49,2.68,1a13.57,13.57,0,0,1,1.95,1.7c.49.74.73,1.47,1.47,2,.73.74,1.95.74,2.68,1.71,1,.73,1,2.2,1.7,3.17,2,2.68,4.64,1.22,2.69,4.39,0,.24-.49.49-.74.73-.48.24-.73.24-1,.49-.24.49-.49.73-.49,1.22a5.28,5.28,0,0,0,0,1.95c0,.49.49,1,.73,1.22a1.12,1.12,0,0,0,1.22,0c.25,0,.49-.49.73-.73a15.62,15.62,0,0,0,1.95-.74,7.41,7.41,0,0,0,2.2-1.7,2.62,2.62,0,0,0,.49-1.95,3.17,3.17,0,0,0,.24-1.47,3.47,3.47,0,0,0,.49-1.46,7.45,7.45,0,0,0,1.22-2.92c.24-.49-.49-1-.49-1.71,0-.49.49-.73.49-1a7.53,7.53,0,0,1,.73-2.19,24.38,24.38,0,0,1,2.19-3.17c.49-.49,1.22-.49,1.47-.73a1.93,1.93,0,0,0,1-1c.24-.48,0-1.22.24-1.95s1-1.22,1.22-1.95c.25-.49.74-.73.74-1.46,0-.25-.49-.49-.49-.73a4,4,0,0,1-1-1.71c0-.24-.24-.49,0-.73a2.61,2.61,0,0,1,2,.49c.73.73.49,1.7,1,2.43a2.23,2.23,0,0,0,1.22.74c.48,0,.24-.49.24-.74.24-.24,0-1,.24-.73.49,0,.49.73,1,1,.24,0,.49-.73.73-.49a1.07,1.07,0,0,1,0,1.22c-.24.24-1.22,0-1.46.49-.25.24.24,1,0,1.46s-.73.73-1.22,1.46c-.24.25,0,.74-.49,1-.73.49-2,0-2.44.73s.49,1.95.25,2.68c-.25.49-1.22.25-1.71.49s-.73.73-1,1c-.74.73-1.95,1.21-2.69,1.95a2.1,2.1,0,0,0,0,1.7,1.52,1.52,0,0,0,1.95.25c.49,0,.49-1,1-1.47s1.22-1,1.71-1.46a8.65,8.65,0,0,0,2.43-1.71c.74-.48,1-1.22,1.47-1.7.73-.73,1.46-.73,2-1.22a13,13,0,0,0,1.7-3.17,3,3,0,0,0,1-1.95,12.57,12.57,0,0,0,.73-2.93c0-.24-.24-.73,0-1,.24-.49,1-.49,1.22-1,.24-.24.24-.73.49-1,.49-.74,1.22-.74,1.46-1.47.24-.48-.49-1.22-.49-1.7,0-.25,0-.73.25-.73.48,0,1,.48,1.7.48.49-.24.74-1,1-1.22a10.27,10.27,0,0,1,1.46-1.7c1-.49,1.95-.49,2.93-1a13.73,13.73,0,0,0,1.46-1.95c.24-.49.73-1,1-1.46.24-1,0-1.95.24-2.68.24-1.22,1-2.2,1-3.42.25-.73-.48-1-.48-1.7.24-.74,1.22-1.47,1.22-2.44,0-.49-.74-1-.74-1.46a12.13,12.13,0,0,1-.24-2.93,10.1,10.1,0,0,1,.24-2.68,8.61,8.61,0,0,1,.74-3.42c.24-.73,1.46-1,1.46-1.95,0-.48-1-.73-1.46-1.22v-.73l.73-.73c1,0,1.95,1.71,2.92,1.46,1.47-.24,1.22-2.43,1.95-3.41a14.88,14.88,0,0,1,3.17-2.19c1.22-1,2.69-1.71,4.15-2.69.73-.48,1.46-1.21,2.19-1.7A4.35,4.35,0,0,1,228.7,267a29,29,0,0,1,2.68-1.22c.73-.49,1.46-1.46,2.44-1.46,1-.25,2.19.48,3.17.48a5.84,5.84,0,0,0,2.93-.48c1-.49,1.21-1.71,2-2.2.73-.73,1.95-.73,2.68-1.46.49-.49.24-1.22.73-1.95a2.42,2.42,0,0,1,1-1.22,7.8,7.8,0,0,1,2.2.73c.49,0,1.22.49,2,.49.49,0,1-1,1.71-1.22a4.18,4.18,0,0,1,1.7.24c.49.25.49,1,1,1.47a1.87,1.87,0,0,0,1.22.48c1.22-.24,2.68-.24,3.65-1,.49-.24.25-1.22.74-1.46.48,0,.73,1,1.21,1.22.74.24,2,.24,2.69.48s1,1.22,1.46,1a5.47,5.47,0,0,0,3.17-2c.49-.73,0-1.95.49-2.44.48-.73,1.46-.73,1.95-1.22,1.7-.73,3.41-1.22,4.63-2.44.49-.24.24-1,.24-1.46s-.73-.49-.73-.73c0-.49.49-1.22,1-1.22s1,1.22,1.22.73c.48-.49-.25-1.46,0-2.44a4.23,4.23,0,0,1,.48-1.22,27.36,27.36,0,0,1,2.44-2.92c.73-1,1.95-1.95,2.68-2.93.25-.49.25-1.22.74-1.71,1-1.21,2.19-2.68,3.17-3.9a21,21,0,0,0,3.17-3.41c.73-1.22.73-2.68,1-4.14.24-1,0-2.2.24-3.42a8.25,8.25,0,0,1,1.22-3.41,20.5,20.5,0,0,1,2.2-3.9,6.29,6.29,0,0,0,2-2.44c.49-1,0-2.2.24-3.17a20.78,20.78,0,0,1,1.71-5.85c.49-1.71,1.46-3.17,1.95-4.63.24-.49.73-1,.73-1.47,0-1-.49-1.7-.49-2.68,0-.73.73-1.46.73-2.19-.24-1.22-1.21-2.2-1.21-3.42a8,8,0,0,1,1-3.17c.24-1.7,1.22-3.17,1.22-4.63s-1.46-2.44-1.46-3.9c0-1.22,1-2.44,1.46-3.66a19.63,19.63,0,0,1,.49-1.95c.49-.49,1.46-.73,1.46-1.22,0-.73-1-1.22-1-2,0-.49.73-1.22,1.21-1,1,.48.49,2.19,1.47,2.68.73.49,1.95-.24,2.68-.73s1.22-1.47,1.95-2c1.22-1.22,2.68-1.71,3.66-2.93,1-1,1.46-2.44,2.19-3.66v-.24a8.47,8.47,0,0,1,.49-2.44,24,24,0,0,0,1.22-2.44c.24-.48-.25-1,0-1.22.49-.24,1,.74,1.22.49.73-.49.73-1.7,1.22-2.44a25.23,25.23,0,0,1,2.68-2.19,36.49,36.49,0,0,1,4.63-4.14,13.62,13.62,0,0,0,2.19-1.71c.49-.49.25-1.46.74-1.95.48-.25,1.22,0,1.7-.25a4.25,4.25,0,0,0,1.22-1.7c.25-.25-.24-1,0-1.47,1-1.21,2.44-1.95,3.42-3.17a10.84,10.84,0,0,0,2.43-3.41c1-1.46,1.22-2.92,1.95-4.63a34.47,34.47,0,0,0,2.2-5.37,21.84,21.84,0,0,0,0-5.6,66.72,66.72,0,0,0-.25-7.07c-.24-1.22-.48-2.69-.73-4.15-.24-1-.24-2-.48-3.17A40.73,40.73,0,0,0,340.37,98a3.84,3.84,0,0,0-1.95-1.46,25.42,25.42,0,0,0-5.85-1.22c-1.47-.24-2.93.49-4.39.25-1.71-.49-3.17-1.71-4.64-2.44-1.7-1.22-2.92-2.44-4.38-3.42a34.71,34.71,0,0,1-4.64-3.9c-1.46-1.22-2.68-2.68-4.14-4.14a23.12,23.12,0,0,0-3.9-2.93c-1.47-1-3.42-1-5.12-1.7a14.56,14.56,0,0,0-3.17-2.2,27,27,0,0,0-4.39-.73,29.11,29.11,0,0,0-4.63.49c-1,.24-1.95,1.22-3.17,1.22-1.22-.25-2.2-1.47-3.42-2a8.42,8.42,0,0,0-2.68-.74c-1-.24-2.19.49-3.17.25-.49-.25-.73-1.22-1.22-1.22-1-.49-2.19,0-3.17-.24-.48-.25-.48-1.22-1-1.47-1.22-.48-2.68-.48-3.9-1-.25,0-.49-.73-1-.73-.49.24-.24,1.46-.73,1.7a2,2,0,0,1-1.95-.73c-.49-.24-.24-1.46-.73-1.22-.73.49-.49,1.71-1,2.44a1.57,1.57,0,0,1-1.46,0,2.07,2.07,0,0,1-1.22-.73c-.49-.24-1-.49-1.46-.24a10.08,10.08,0,0,0-.73,2.92,12,12,0,0,1-1.47,2.2c-.48.48-1.46.73-1.95,1.46-.48,1-.24,4.14-.73,3.17-.49-1.22,0-2.68.49-3.9a10.18,10.18,0,0,1,.73-2c.24-.49,0-1,.24-1.47a10.45,10.45,0,0,1,1.22-2.19A6.35,6.35,0,0,1,257,68.76c.25-.25,1-.49,1-.74a1.64,1.64,0,0,0-1.22-1c-.49.24-1,1.46-1.46,1-.49-.24.24-1,.48-1.46s1-.73,1-1.22a2.44,2.44,0,0,0-1-1.7c-.24-.25-1,0-1.22-.25a17.93,17.93,0,0,0-1.21-2.19c-.25-.25-.74,0-1-.25-.49,0-.73-.73-1.22-.48a1.53,1.53,0,0,0-1.46,1.22c-.25.73,1,2,.24,2.19-1,.24-1.46-1.22-1.71-2s1-1.22,1-2a1.46,1.46,0,0,0-1.46-.73c-.25-.25-.25.48-.49.48-.49-.24,0-1.21-.49-1.21-.73-.25-1.46.48-2.19.48s-1.47-1-2.2-1c-.24,0-.48,1-.73.73-.49-.49,0-1.71-.49-1.95-.73-.24-1.46,1.22-2.19,1s-.73-2-1.71-2.43a10,10,0,0,0-3.9-1,22.33,22.33,0,0,0-3.66-1.46c-.48,0,.74,1.22.25,1-1,0-1.95-1.22-2.93-1.46-.73,0-1,1-1.22,1-.73.48-1.46.24-2,.73-.73.24-1,1-1.46,1.46l-2.19,2.19c-.49.49-1.47,1-1.47,1.47,0,1.22,2.2,2,1.47,2.68-.49.73-1.71-1-2.44-1-1,.25-1.46,1.47-2.2,1.95-.48.25-.73,0-1,0a6,6,0,0,0-2.93.25c-1,.24-1.7,1.46-2.68,1.95a6.71,6.71,0,0,1-2.19,0c-1,0-1.95-.73-2.93-.49-.73.49-.49,2.44-1.46,2.2-1.47,0-1.71-2.44-2.93-2.69-.73-.24-.73,1.71-1.46,1.95s-1.22-.73-1.22-1.46c.24-.73,1.71-.73,2.19-1.71a4.88,4.88,0,0,0,0-2.68c-.24-.73-.48-1.7-1.22-1.7-1.95,0-3.65,1.21-5.6,1.95-1.71.48-3.66,1.46-5.37,1.7-1.22.25-2.43.73-3.41,0-.49-.24.73-1.22,1.22-1.46,1.22-.49,2.92.24,4.14-.49,1-1,1-2.44,1.47-3.9a1.47,1.47,0,0,1,.24-1,36.07,36.07,0,0,1,3.17-5.12,46,46,0,0,1,4.63-5.12c.73-.74,1.95-1.22,2.68-2.2a18.21,18.21,0,0,0,3.42-4.14c1-1.22,2.19-2.69,2.44-4.39a3.24,3.24,0,0,0-1.47-2.44c-1.46-.73-3.17.24-4.39-.49-1-.49-1.21-1.7-1.46-2.68-.24-.49.25-1,.25-1.71a15.76,15.76,0,0,0-1.22-2.92,23,23,0,0,1-1.95-4.39c-.25-1.46-.25-2.93-.49-4.39-.25-1,0-2.19-.49-3.17-.73-1.46-1.71-3.66-3.41-3.9-1,0,1.22,2.44.73,3.41-.49.73-1.22-1.7-2-1.46-1.71,1.22-2.68,3.41-3.9,5.12l-3.66,6.58c-.49,1.22-1,2.2-1.46,3.17s-.49,2.2-1.22,2.69a5,5,0,0,1-3.66,1c-1.22-.24-1.46-1.71-2.44-1.95-.49-.24-1,.73-1.46.73s-1-1-1.46-1c-1.47.24-2.2,2-3.42,2-1.22.24-1.95-1-3.17-1.47-.24,0-.73.74-1,.49-1.22-.73-2-2.92-3.42-2.92-1.95-.25-3.9,1.95-5.85,2.19-1,0-1.7-1.71-2.43-1.46A3.12,3.12,0,0,0,150,27.8c0,1.21,1.7,2.19,1.7,3.41,0,.49-1,1-1.46.73-1.22-.49-1.95-2.19-3.17-2.44-.49-.24.49,1.22,0,1.71a4.43,4.43,0,0,1-2.68,1c-.73,0-1.46-1-2.44-1-1.22-.25-2.92-.49-4.14.24-.49.25.73,1.47,0,1.71-1.22.73-3.17,0-4.64.49-.48,0,.49,1,0,1.22-.73.24-1.46-.74-2-.49-1.46.73-1.7,2.68-3.17,3.17-1,.49-2.43-.25-3.41-.73a11.82,11.82,0,0,1-3.9-2.93,5.4,5.4,0,0,1-1.22-2.68c0-1,1-1.95.73-2.93-.24-.73-1.71-1-2-1.7a12.35,12.35,0,0,1-.73-4.15c.24-.73,1.22-1,1.46-1.46.49-.73-.24-1.46.25-2.2.73-1,2.43-1,2.68-1.95.49-1.46-.49-2.68-.73-4.14-.25-1-.73-1.95-1-2.68-.49-.49-.73-1.22-1.22-1.47s-1.46.25-2-.24a4.83,4.83,0,0,1-1.46-3.41c-.24-1,1-1.71.73-2.69a2.55,2.55,0,0,0-2-1c-.73.24-1,1.22-1.71,1.71a1.57,1.57,0,0,1-1.46,0c-.73-.25-1.22-1.71-1.46-1.22-.49.73.73,1.46.73,2.19a1.84,1.84,0,0,1-.25,1.95,6.62,6.62,0,0,1-2.92,2.2c-1.22.73-2.93.73-4.15,1.46-.73.49-.73,1.71-1.46,2.19a16.63,16.63,0,0,1-3.41.73c-1.46.25-2.68-.48-3.9,0a6.65,6.65,0,0,0-2.93,2.2c-.24.73.49,1.46.24,2.19-.24.49-1,.25-1.21,0-.74-.48-1-1.7-1.71-2-.73-.48-1.71,0-2.44-.24a12,12,0,0,1-4.14-1.46c-1-.49-1.22-2.44-2.44-2.44s-2.44,1.46-3.17,2.68a2.21,2.21,0,0,0,.49,2.68c1,.73,2.68-.49,3.65.49.73.49.49,1.71.25,2.68a8.69,8.69,0,0,1-1.22,1.95A7,7,0,0,0,79,23.65a16.68,16.68,0,0,0,.48,3.41,4,4,0,0,0,1,1.71c.24.49,1,.49,1.46.49.49.24,1.22,1,2,.73.49,0,1-1,1.47-1,1,.25,2.19,1.47,1.46,1.95-1.22,1.22-3.41,0-4.63,1.22-1.71,1.22-1.22,4.39-2.93,5.61-.73.73-.73-1.95-1.71-1.95s-1.22,1.71-2,2.44c-1.7,1.46-3.41,2.44-4.87,3.66-.73.73-1,2.68-1.95,2.43-1.22,0-.49-2.19-1.47-2.92a1.84,1.84,0,0,0-2.43,0c-.74.73,0,3.17-1.22,3.17-1.71.24-2.69-1.71-4.15-2.68-1.22-.74-2.68-1.22-3.41-2.44-.49-.49.24-1.46,0-2.2-1-1.95-1.71-4.63-3.66-5.36-1.46-.49-1.71,2.93-3.17,3.17-1,.24-1.22-1.71-2.19-2.19-.73-.25-1.71-.25-2,.48s1.7,2.2.73,2.44c-3.17,1.22-6.59.49-10,.49-1.22,0-3.17-1-3.66.24-.73,2-.24,4.39.74,6.59.24.73,1.7,0,2.43,0,.73-.25,1.47-.74,1.95-.25.74.49.49,1.71.49,2.44-.24.73-.73,1.71-1.46,1.71s-1.22-1.71-2.2-1.71c-1.21.24-2.92,1-3.41,2.19-.73,2-.24,4.15,0,6.1a5.08,5.08,0,0,0,1.46,2c.49.24,1.47.24,1.71,1,.73.73.49,1.7,1,2.68.24.73,1,1.22,1,2,0,1.22-.73,2.19-.73,3.41,0,1,.49,2.2.24,3.17-.73,5.36-1.7,11-2.92,16.34-.49,2.19-.49,4.87-1.95,6.34-.73.73-1.95-1.95-2.93-1.71-1.46.24-1.95,2.19-3.41,2.44-.73.24-1.47-1.22-2.2-1-.73,0-1,1-1.7,1.22-.73.49-1.71-.24-2.44,0a21.29,21.29,0,0,0-3.66,2.93c-1.22,1-2.68,1.46-3.66,2.68a11.18,11.18,0,0,0-2.43,4.39,20,20,0,0,0-1,3.65,12,12,0,0,1,0,2.93c-.24,1.22-.24,2.68-1.22,3.66-.49,1-2.19.49-2.68,1.46-.73,1.22-.49,2.68-.49,3.9,0,.73.49,1.71,0,2.2-.49.73-1.7.24-1.95,1-.24.49.25,1.22.49,1.71.49.49,1.22.49,1.71,1s.24,1.47.48,2A4.85,4.85,0,0,0,4.39,126.78ZM192.13,55.35a32.5,32.5,0,0,1,2.44-3.9c.73-.74,2-2.93,2.68-2.2,1,1.22-.25,3.17-.73,4.39a8.68,8.68,0,0,1-2.69,3.9c-1,1-2.68,3.41-3.65,2.19C189,58.52,191.4,56.81,192.13,55.35Zm8-3.42c-.24,1,.73,2,.73,2.93-.24,1-1.46,1.46-1.46,2.19a4.84,4.84,0,0,0,.73,3.66c.49.49,1.71,0,2.2.49s-.49,1.46,0,1.7c1.22.49,2.44,0,3.41.25.73,0,1.22.73,1.95.49.49,0,.25-1,.73-1.47,1-.48,1.95-.24,2.68-.73,1-.24,1.47-1.22,2.44-1.22.49,0,.73,1,1.47,1A1.81,1.81,0,0,0,216.51,60c0-.73-1.22-1.95-.73-2.68.73-1.22,2.68-1.22,3.65-2.44s3.17-2.93,2.2-4.39c-1.22-1.71-4.39-2.19-6.34-1.22-1.46,1,0,3.9-1.22,5.36-.49.74-1-1.7-1-2.68,0-.48,1.21-.24,1.21-.73a2.06,2.06,0,0,0-1-1.71c-1.71-.73-3.41-.48-5.12-.48a14.39,14.39,0,0,0-4.63,0c-.73.24-1.22,1-2,1.46C201.15,51,200.17,51.2,200.17,51.93Zm4.64-4.39c1.46-.24,2.92.25,3.9-.48.73-.49,1.46-2,1-2.44-1.22-1-3.17.24-4.39-.49-.48-.49,1.47-2.19.73-2.19a5.42,5.42,0,0,0-3.65,2,2.8,2.8,0,0,0-1.47,2.19,1.53,1.53,0,0,0,.74,2c.48.25.48-1,.73-1.46.49-.49.49-1.22,1.22-1.46.24-.25,1,.24.73.73,0,.73-1.46,1.22-1.22,1.7C203.1,48.28,204.32,47.54,204.81,47.54Zm-6.59-.24c-1,.24-.49,2.44,0,3.17s1.95.24,1.95-.24C200.17,49,199.44,47.06,198.22,47.3Z" transform="translate(-0.42 -0.98)"/></svg>