<svg height="512" viewBox="0 0 64 64" width="512" xmlns="http://www.w3.org/2000/svg"><g id="socail_network-money-network-coins-financail" data-name="socail network-money-network-coins-financail"><circle cx="32" cy="32" fill="#fee9ab" r="27"/><path d="m59 32a26.976 26.976 0 0 1 -30 26.83 27 27 0 0 0 0-53.66 26.976 26.976 0 0 1 30 26.83z" fill="#ffd422"/><path d="m17 54a3.168 3.168 0 0 1 -.02.44 7 7 0 1 1 -7.41-7.42 3.1 3.1 0 0 1 .43-.02 7 7 0 0 1 7 7z" fill="#ffcd00"/><path d="m59 30a2 2 0 0 1 0 4h-.08a2 2 0 0 1 0-4z" fill="#ff3051"/><path d="m54 3a7 7 0 0 1 .43 13.98 3.1 3.1 0 0 1 -.43.02 7 7 0 0 1 -7-7 3.1 3.1 0 0 1 .02-.43 6.977 6.977 0 0 1 6.98-6.57z" fill="#ffcd00"/><path d="m54.43 47.02a7 7 0 1 1 -7.41 7.41 3.1 3.1 0 0 1 -.02-.43 7 7 0 0 1 7-7 3.1 3.1 0 0 1 .43.02z" fill="#ffcd00"/><path d="m46.14 17.86a19.99 19.99 0 1 0 5.86 14.14 19.938 19.938 0 0 0 -5.86-14.14z" fill="#ffcd00"/><path d="m52 32a20.007 20.007 0 0 1 -20 20 18.862 18.862 0 0 1 -2-.1 20 20 0 0 0 0-39.8 18.862 18.862 0 0 1 2-.1 20.007 20.007 0 0 1 20 20z" fill="#ddb200"/><path d="m34 5v.08a2 2 0 0 1 -4 0v-.08a2 2 0 0 1 4 0z" fill="#ff3051"/><path d="m34 58.92v.08a2 2 0 0 1 -4 0v-.08a2 2 0 0 1 4 0z" fill="#ff3051"/><path d="m16.98 9.57a3.1 3.1 0 0 1 .02.43 7 7 0 0 1 -7 7 3.1 3.1 0 0 1 -.43-.02 7 7 0 1 1 7.41-7.41z" fill="#ffcd00"/><g fill="#ddb200"><path d="m17 10a7 7 0 0 1 -7 7 3.1 3.1 0 0 1 -.43-.02 6.038 6.038 0 0 1 -1.05-.15 6.984 6.984 0 0 0 5.48-6.83 3.1 3.1 0 0 0 -.02-.43 6.975 6.975 0 0 0 -5.48-6.41 7.334 7.334 0 0 1 1.5-.16 6.977 6.977 0 0 1 6.98 6.57 3.1 3.1 0 0 1 .02.43z"/><path d="m61 10a7 7 0 0 1 -7 7 3.1 3.1 0 0 1 -.43-.02 6.038 6.038 0 0 1 -1.05-.15 6.984 6.984 0 0 0 5.48-6.83 3.1 3.1 0 0 0 -.02-.43 6.975 6.975 0 0 0 -5.48-6.41 7.334 7.334 0 0 1 1.5-.16 6.977 6.977 0 0 1 6.98 6.57 3.1 3.1 0 0 1 .02.43z"/><path d="m17 54a7 7 0 0 1 -7 7 3.1 3.1 0 0 1 -.43-.02 6.038 6.038 0 0 1 -1.05-.15 6.984 6.984 0 0 0 5.48-6.83 3.1 3.1 0 0 0 -.02-.43 6.975 6.975 0 0 0 -5.48-6.41 7.334 7.334 0 0 1 1.5-.16 6.977 6.977 0 0 1 6.98 6.57 3.1 3.1 0 0 1 .02.43z"/><path d="m61 54a7 7 0 0 1 -7 7 3.1 3.1 0 0 1 -.43-.02 6.038 6.038 0 0 1 -1.05-.15 6.984 6.984 0 0 0 5.48-6.83 3.1 3.1 0 0 0 -.02-.43 6.975 6.975 0 0 0 -5.48-6.41 7.334 7.334 0 0 1 1.5-.16 6.977 6.977 0 0 1 6.98 6.57 3.1 3.1 0 0 1 .02.43z"/></g><path d="m5.08 30a2 2 0 0 1 0 4h-.08a2 2 0 0 1 0-4z" fill="#ff3051"/><path d="m31 15h2v2h-2z"/><path d="m26.859 15.545h2v2h-2z" transform="matrix(.966 -.259 .259 .966 -3.333 7.774)"/><path d="m23 17.143h2v2h-2z" transform="matrix(.866 -.5 .5 .866 -5.856 14.428)"/><path d="m19.686 19.686h2v2h-2z" transform="matrix(.707 -.707 .707 .707 -8.569 20.691)"/><path d="m17.143 23h2v2h-2z" transform="matrix(.5 -.866 .866 .5 -11.712 27.716)"/><path d="m15.545 26.859h2v2.001h-2z" transform="matrix(.259 -.966 .966 .259 -14.65 36.617)"/><path d="m15 31h2v2h-2z"/><path d="m15.545 35.141h2.001v2h-2.001z" transform="matrix(.966 -.259 .259 .966 -8.803 5.524)"/><path d="m17.143 39h2v2h-2z" transform="matrix(.866 -.5 .5 .866 -17.567 14.427)"/><path d="m19.686 42.314h2v2h-2z" transform="matrix(.707 -.707 .707 .707 -24.568 27.314)"/><path d="m23 44.856h2v2h-2z" transform="matrix(.5 -.866 .866 .5 -27.713 43.718)"/><path d="m26.859 46.455h2v2h-2z" transform="matrix(.259 -.966 .966 .259 -25.19 62.083)"/><path d="m31 47h2v2h-2z"/><path d="m35.141 46.455h2v2h-2z" transform="matrix(.966 -.259 .259 .966 -11.051 10.971)"/><path d="m39 44.856h2v2h-2z" transform="matrix(.866 -.5 .5 .866 -17.567 26.138)"/><path d="m42.314 42.313h2v2h-2z" transform="matrix(.707 -.707 .707 .707 -17.941 43.324)"/><path d="m44.856 39h2v2h-2z" transform="matrix(.5 -.866 .866 .5 -11.711 59.718)"/><path d="m46.455 35.141h2v2.001h-2z" transform="matrix(.259 -.966 .966 .259 .248 72.606)"/><path d="m47 31h2v2h-2z"/><path d="m46.455 26.859h2.001v2h-2.001z" transform="matrix(.966 -.259 .259 .966 -5.599 13.253)"/><path d="m44.856 23h2v2h-2z" transform="matrix(.866 -.5 .5 .866 -5.857 26.139)"/><path d="m42.314 19.687h2v2h-2z" transform="matrix(.707 -.707 .707 .707 -1.941 36.686)"/><path d="m39 17.143h2v2h-2z" transform="matrix(.5 -.866 .866 .5 4.29 43.716)"/><path d="m35.141 15.545h2v2h-2z" transform="matrix(.259 -.966 .966 .259 10.806 47.172)"/><path d="m62 32a3.006 3.006 0 0 0 -2.17-2.87 27.546 27.546 0 0 0 -3.76-11.41 8 8 0 1 0 -9.79-9.79 27.546 27.546 0 0 0 -11.41-3.76 2.983 2.983 0 0 0 -5.74 0 27.546 27.546 0 0 0 -11.41 3.76 8 8 0 1 0 -9.79 9.79 27.546 27.546 0 0 0 -3.76 11.41 2.983 2.983 0 0 0 0 5.74 27.546 27.546 0 0 0 3.76 11.41 8 8 0 1 0 9.79 9.8 27.725 27.725 0 0 0 11.41 3.75 2.983 2.983 0 0 0 5.74 0 27.546 27.546 0 0 0 11.41-3.76 8 8 0 1 0 9.79-9.79 27.546 27.546 0 0 0 3.76-11.41 3.006 3.006 0 0 0 2.17-2.87zm-8-28a6 6 0 1 1 -6 6 6 6 0 0 1 6-6zm-22 0a1 1 0 1 1 -1 1 1 1 0 0 1 1-1zm19 28a19 19 0 1 1 -19-19 19.017 19.017 0 0 1 19 19zm-47-22a6 6 0 1 1 6 6 6 6 0 0 1 -6-6zm6.11 7.99a8 8 0 0 0 7.88-7.88 25.79 25.79 0 0 1 11.25-3.95 3 3 0 0 0 1.76 1.66v3.23a20.992 20.992 0 0 0 -19.95 19.95h-3.23a3 3 0 0 0 -1.66-1.76 25.79 25.79 0 0 1 3.95-11.25zm-5.11 15.01a1 1 0 1 1 1-1 1 1 0 0 1 -1 1zm5 27a6 6 0 1 1 6-6 6 6 0 0 1 -6 6zm19.24-2.16a25.949 25.949 0 0 1 -11.25-3.94 7.989 7.989 0 0 0 -7.88-7.89 25.79 25.79 0 0 1 -3.95-11.25 3 3 0 0 0 1.66-1.76h3.23a20.992 20.992 0 0 0 19.95 19.95v3.23a3 3 0 0 0 -1.76 1.66zm2.76 2.16a1 1 0 1 1 1-1 1 1 0 0 1 -1 1zm28-6a6 6 0 1 1 -6-6 6 6 0 0 1 6 6zm-6.11-7.99a8 8 0 0 0 -7.88 7.88 25.79 25.79 0 0 1 -11.25 3.95 3 3 0 0 0 -1.76-1.66v-3.23a20.992 20.992 0 0 0 19.95-19.95h3.23a3 3 0 0 0 1.66 1.76 25.79 25.79 0 0 1 -3.95 11.25zm2.29-15.01h-3.23a20.992 20.992 0 0 0 -19.95-19.95v-3.23a3 3 0 0 0 1.76-1.66 25.79 25.79 0 0 1 11.25 3.95 8 8 0 0 0 7.88 7.88 25.79 25.79 0 0 1 3.95 11.25 3 3 0 0 0 -1.66 1.76zm2.82 2a1 1 0 1 1 1-1 1 1 0 0 1 -1 1z"/><path d="m36 35a4 4 0 0 0 -4-4 2 2 0 1 1 2-2h2a4 4 0 0 0 -3-3.858v-2.142h-2v2.142a3.992 3.992 0 0 0 1 7.858 2 2 0 1 1 -2 2h-2a4 4 0 0 0 3 3.858v2.142h2v-2.142a4 4 0 0 0 3-3.858z"/><path d="m22.808 22.808a13.013 13.013 0 0 0 0 18.384l1.414-1.414a11.012 11.012 0 0 1 0-15.556z"/><path d="m41.192 41.192a13.013 13.013 0 0 0 0-18.384l-1.414 1.414a11.012 11.012 0 0 1 0 15.556z"/><path d="m10 13a3 3 0 0 1 -3-3h-2a5.006 5.006 0 0 0 5 5z"/><path d="m13 10h2a5.006 5.006 0 0 0 -5-5v2a3 3 0 0 1 3 3z"/><path d="m54 15v-2a3 3 0 0 1 -3-3h-2a5.006 5.006 0 0 0 5 5z"/><path d="m57 10h2a5.006 5.006 0 0 0 -5-5v2a3 3 0 0 1 3 3z"/><path d="m51 54h-2a5.006 5.006 0 0 0 5 5v-2a3 3 0 0 1 -3-3z"/><path d="m54 51a3 3 0 0 1 3 3h2a5.006 5.006 0 0 0 -5-5z"/><path d="m7 54h-2a5.006 5.006 0 0 0 5 5v-2a3 3 0 0 1 -3-3z"/><path d="m10 49v2a3 3 0 0 1 3 3h2a5.006 5.006 0 0 0 -5-5z"/></g></svg>