<svg width="64" height="64" xmlns="http://www.w3.org/2000/svg">
 <title/>

 <g>
  <title>background</title>
  <rect fill="none" id="canvas_background" height="402" width="582" y="-1" x="-1"/>
 </g>
 <g>
  <title>Layer 1</title>
  <rect id="svg_1" fill="#e3e3e3" y="6" x="1" width="62" height="52"/>
  <rect id="svg_2" fill="#ff5d54" y="21" x="7" width="50" height="10"/>
  <polygon id="svg_3" fill="#34c1ad" points="7 31 7 41 7 47 21 47 21 41 57 41 57 31 7 31"/>
  <rect id="svg_4" fill="#f5f5f5" y="41" x="21" width="36" height="6"/>
  <rect id="svg_5" fill="#21abab" y="3" x="53" width="4" rx="2" height="6"/>
  <rect id="svg_6" fill="#21abab" y="3" x="39" width="4" rx="2" height="6"/>
  <rect id="svg_7" fill="#21abab" y="3" x="21" width="4" rx="2" height="6"/>
  <rect id="svg_8" fill="#21abab" y="3" x="7" width="4" rx="2" height="6"/>
  <polygon id="svg_9" fill="#f5f5f5" points="7.146 26.203 6.854 25.797 13.854 20.797 14.146 21.203 7.146 26.203"/>
  <polygon id="svg_10" fill="#f5f5f5" points="14.146 26.203 13.854 25.797 20.854 20.797 21.146 21.203 14.146 26.203"/>
  <polygon id="svg_11" fill="#f5f5f5" points="21.146 26.203 20.854 25.797 27.854 20.797 28.146 21.203 21.146 26.203"/>
  <polygon id="svg_12" fill="#f5f5f5" points="28.146 26.203 27.854 25.797 34.854 20.797 35.146 21.203 28.146 26.203"/>
  <polygon id="svg_13" fill="#f5f5f5" points="35.146 26.203 34.854 25.797 41.854 20.797 42.146 21.203 35.146 26.203"/>
  <polygon stroke="null" id="svg_49" fill="#34c1ad" points="7.347441673278809,26.396400451660156 7.347441673278809,31.619080424308777 7.347441673278809,34.75268840789795 21.347440719604492,34.75268840789795 21.347440719604492,31.619080424308777 57.347442626953125,31.619080424308777 57.347442626953125,26.396400451660156 7.347441673278809,26.396400451660156 "/>
  <polygon stroke="null" id="svg_50" fill="#34c1ad" points="7.347441673278809,26.396400451660156 7.347441673278809,31.619080424308777 7.347441673278809,34.75268840789795 21.347440719604492,34.75268840789795 21.347440719604492,31.619080424308777 57.347442626953125,31.619080424308777 57.347442626953125,26.396400451660156 7.347441673278809,26.396400451660156 "/>
  <polygon stroke="null" id="svg_51" fill="#34c1ad" points="42.00472670048475,21.184778690338135 42.00472670048475,26.40745782852173 42.00472670048475,29.541067600250244 46.27636747807264,29.541067600250244 46.27636747807264,26.40745782852173 57.26058226078749,26.40745782852173 57.26058226078749,21.184778690338135 42.00472670048475,21.184778690338135 "/>
  <path id="svg_23" fill="#3d3d3d" d="m57,20.5l-50,0a0.5,0.5 0 0 0 -0.5,0.5l0,26a0.5,0.5 0 0 0 0.5,0.5l50,0a0.5,0.5 0 0 0 0.5,-0.5l0,-26a0.5,0.5 0 0 0 -0.5,-0.5zm-0.5,5l-7,0l0,-4l7,0l0,4zm-42,15l0,-4l6,0l0,4l-6,0zm6,1l0,5l-6,0l0,-5l6,0zm1,-10l6,0l0,4l-6,0l0,-4zm-1,4l-6,0l0,-4l6,0l0,4zm14,-5l-6,0l0,-4l6,0l0,4zm1,-4l6,0l0,4l-6,0l0,-4zm-8,4l-6,0l0,-4l6,0l0,4zm1,1l6,0l0,4l-6,0l0,-4zm7,0l6,0l0,4l-6,0l0,-4zm7,0l6,0l0,4l-6,0l0,-4zm0,-1l0,-4l6,0l0,4l-6,0zm0,-5l0,-4l6,0l0,4l-6,0zm-1,0l-6,0l0,-4l6,0l0,4zm-7,0l-6,0l0,-4l6,0l0,4zm-7,0l-6,0l0,-4l6,0l0,4zm-7,0l-6,0l0,-4l6,0l0,4zm0,1l0,4l-6,0l0,-4l6,0zm-7,4l-6,0l0,-4l6,0l0,4zm0,1l0,4l-6,0l0,-4l6,0zm0,5l0,4l-6,0l0,-4l6,0zm8,0l6,0l0,4l-6,0l0,-4zm7,0l6,0l0,4l-6,0l0,-4zm7,0l6,0l0,4l-6,0l0,-4zm7,0l6,0l0,4l-6,0l0,-4zm7,0l7,0l0,4l-7,0l0,-4zm0,-1l0,-4l7,0l0,4l-7,0zm0,-5l0,-4l7,0l0,4l-7,0zm-36,-9l0,4l-6,0l0,-4l6,0zm-6,20l6,0l0,5l-6,0l0,-5zm14,5l0,-5l35,0l0,5l-35,0z"/>
  <path id="svg_24" fill="#13969d" d="m55,6l0,-2a1.972,1.972 0 0 1 0.263,-0.973a1.905,1.905 0 0 0 -0.263,-0.027a2,2 0 0 0 -2,2l0,2a1.993,1.993 0 0 0 3.737,0.973a1.993,1.993 0 0 1 -1.737,-1.973z"/>
  <path id="svg_25" fill="#13969d" d="m41,6l0,-2a1.972,1.972 0 0 1 0.263,-0.973a1.905,1.905 0 0 0 -0.263,-0.027a2,2 0 0 0 -2,2l0,2a1.993,1.993 0 0 0 3.737,0.973a1.993,1.993 0 0 1 -1.737,-1.973z"/>
  <path id="svg_26" fill="#13969d" d="m23,6l0,-2a1.972,1.972 0 0 1 0.263,-0.973a1.905,1.905 0 0 0 -0.263,-0.027a2,2 0 0 0 -2,2l0,2a1.993,1.993 0 0 0 3.737,0.973a1.993,1.993 0 0 1 -1.737,-1.973z"/>
  <path id="svg_27" fill="#13969d" d="m9,6l0,-2a1.972,1.972 0 0 1 0.263,-0.973a1.905,1.905 0 0 0 -0.263,-0.027a2,2 0 0 0 -2,2l0,2a1.993,1.993 0 0 0 3.737,0.973a1.993,1.993 0 0 1 -1.737,-1.973z"/>
  <path id="svg_28" fill="#bfbfbf" d="m55,9a2,2 0 0 1 -2,-2l0,-1l-1,0l0,2a2,2 0 0 0 3.82,0.82a1.99,1.99 0 0 1 -0.82,0.18z"/>
  <path id="svg_29" fill="#bfbfbf" d="m41,9a2,2 0 0 1 -2,-2l0,-1l-1,0l0,2a2,2 0 0 0 3.82,0.82a1.99,1.99 0 0 1 -0.82,0.18z"/>
  <path id="svg_30" fill="#bfbfbf" d="m23,9a2,2 0 0 1 -2,-2l0,-1l-1,0l0,2a2,2 0 0 0 3.82,0.82a1.99,1.99 0 0 1 -0.82,0.18z"/>
  <path id="svg_31" fill="#bfbfbf" d="m9,9a2,2 0 0 1 -2,-2l0,-1l-1,0l0,2a2,2 0 0 0 3.82,0.82a1.99,1.99 0 0 1 -0.82,0.18z"/>
  <rect id="svg_32" fill="#13969d" y="11" x="6" width="4" height="2"/>
  <rect id="svg_33" fill="#13969d" y="14" x="6" width="9" height="2"/>
  <rect id="svg_34" fill="#13969d" y="17" x="12" width="2" height="2"/>
  <rect id="svg_35" fill="#13969d" y="17" x="19" width="2" height="2"/>
  <rect id="svg_36" fill="#13969d" y="17" x="26" width="2" height="2"/>
  <rect id="svg_37" fill="#13969d" y="17" x="33" width="2" height="2"/>
  <rect id="svg_38" fill="#13969d" y="17" x="40" width="2" height="2"/>
  <rect id="svg_39" fill="#13969d" y="17" x="47" width="2" height="2"/>
  <rect id="svg_40" fill="#13969d" y="17" x="55" width="2" height="2"/>
  <rect id="svg_46" fill="#bfbfbf" y="58" x="1" width="62" height="3"/>
  <path id="svg_47" fill="#a3a3a3" d="m1,58l0,3l5,0a2,2 0 0 1 2,-2l55,0l0,-1l-62,0z"/>
 </g>
</svg>