<svg width="64" height="64" xmlns="http://www.w3.org/2000/svg">

 <g>
  <title>background</title>
  <rect fill="none" id="canvas_background" height="402" width="582" y="-1" x="-1"/>
 </g>
 <g>
  <title>Layer 1</title>
  <rect id="svg_1" fill="#34c1ad" y="2" x="17" width="30" height="60"/>
  <rect id="svg_2" fill="#21abab" y="21" x="47" width="15" height="41"/>
  <rect id="svg_3" fill="#c3edf5" y="24.913138" x="51" width="6" height="6"/>
  <rect id="svg_4" fill="#c3edf5" y="35" x="51" width="6" height="6"/>
  <rect id="svg_5" fill="#c3edf5" y="45" x="51" width="6" height="6"/>
  <rect id="svg_6" fill="#21abab" y="21" x="2" width="15" height="41"/>
  <rect id="svg_7" fill="#c3edf5" y="25" x="7" width="6" height="6"/>
  <rect id="svg_8" fill="#c3edf5" y="23" x="21" width="4" height="4"/>
  <rect id="svg_9" fill="#c3edf5" y="23" x="30" width="4" height="4"/>
  <rect id="svg_10" fill="#c3edf5" y="23" x="39" width="4" height="4"/>
  <rect id="svg_11" fill="#c3edf5" y="31" x="21" width="4" height="4"/>
  <rect id="svg_12" fill="#c3edf5" y="31" x="30" width="4" height="4"/>
  <rect id="svg_13" fill="#c3edf5" y="31" x="39" width="4" height="4"/>
  <rect id="svg_14" fill="#c3edf5" y="39" x="21" width="4" height="4"/>
  <rect id="svg_15" fill="#c3edf5" y="39" x="30" width="4" height="4"/>
  <rect id="svg_16" fill="#c3edf5" y="39" x="39" width="4" height="4"/>
  <rect id="svg_17" fill="#c3edf5" y="35" x="7" width="6" height="6"/>
  <rect id="svg_18" fill="#c3edf5" y="45" x="7" width="6" height="6"/>
  <polygon id="svg_19" fill="#ffffff" points="38,11 34,11 34,7 30,7 30,11 26,11 26,15 30,15 30,19 34,19 34,15 38,15 "/>
  <rect id="svg_20" fill="#3A4249" y="49" x="28" width="8" height="13"/>
  <rect id="svg_21" fill="#3A4249" y="48" x="25" width="14" height="2"/>
  <rect id="svg_22" fill="#3A4249" y="56" x="42" width="2" height="2"/>
  <rect id="svg_23" fill="#3A4249" y="52" x="42" width="2" height="2"/>
  <rect id="svg_24" fill="#3A4249" y="48" x="42" width="2" height="2"/>
 </g>
</svg>