<?xml version="1.0" ?><svg viewBox="0 0 64 64" xmlns="http://www.w3.org/2000/svg"><title/><g data-name="20-World" id="_20-World"><path d="M55,47l2.95,1.97A30.967,30.967,0,0,1,52,55.68V49Z" style="fill:#c74841"/><polygon points="28 18 28 22 26 22 25 20 28 18" style="fill:#c74841"/><polygon points="58 27 59 26 58 23 53 19 53 18 49 18 45 19 41 19 40 17 35 17 33 20 37 20 38 22 35 23 33 23 28 28 28 31 29 31 33 27 35 27 37 31 40 31 40 33 39 33 35 33 34 32 32 32 26 37 26 41 28 43 33 43 33 44 34 46 34 49 35 54 39 54 42 49 42 48 41 46 44 44 44 42 39 42 39 36 41 36 42 39 45 39 45 36 44 34 48 35 48 39 49 39 52 36 53 40 53 44 55 44 55 40 57 40 57 39 55 37 56 37 57 34 57 32 59 32 59 29 58 28 58 27" style="fill:#c74841"/><polygon points="18 13 14 14 8 19 4 23 4 25 6 25 6 34 8.08 35.38 9 36 12 40 12 44 14 45 15 51 17 51 20 47 20 45 21 43 18 40 16 37 13 37 12 37 11 34 9 34 9 32 12 32 12 30 13 29 14 28 14 26 17 25 17 24 16 22 13 22 12 24 10 23 11 21 12 20 13 19 14 20 16 19 16 17 15 16 17 16 19 16 19 19 19 21 21 21 21 19 24 18 27 14 27 13 28 12 28 10 18 13" style="fill:#c74841"/><path d="M1,32A31,31,0,1,1,57.95,48.97L55,47l-3,2v6.68A31,31,0,0,1,1,32ZM24,18l3-4V13l1-1V10L18,13l-4,1L8,19,4,23v2H6v9l2.08,1.38L9,36l3,4v4l2,1,1,6h2l3-4V45l1-2-3-3-2-3H12l-1-3H9V32h3V30l1-1,1-1V26l3-1V24l-1-2H13l-1,2-2-1,1-2,1-1,1-1,1,1,2-1V17l-1-1h4v5h2V19Zm1,2,1,2h2V18ZM44,42H39V36h2l1,3h3V36l-1-2,4,1v4h1l3-3,1,4v4h2V40h2V39l-2-2h1l1-3V32h2V29l-1-1V27l1-1-1-3-5-4V18H49l-4,1H41l-1-2H35l-2,3h4l1,2-3,1H33l-5,5v3h1l4-4h2l2,4h3v2H35l-1-1H32l-6,5v4l2,2h5v1l1,2v3l1,5h4l3-5V48l-1-2,3-2Z" style="fill:#34c1ad"/><path d="M52,50.59v5.09a30.967,30.967,0,0,0,5.95-6.71l-1.268-.847A30.846,30.846,0,0,1,52,50.59Z" style="fill:#ad3a34"/><path d="M39,54l.606-1.01a31.229,31.229,0,0,1-4.9-.449L35,54Z" style="fill:#ad3a34"/><path d="M4,23v2H6v9l2.08,1.38L9,36l3,4v4l2,1,1,6h2l3-4V45.678A31.135,31.135,0,0,1,12.87,37H12l-1-3H9V32h1.658A30.8,30.8,0,0,1,9.273,17.939L8,19Z" style="fill:#ad3a34"/><path d="M9,34h2l1,3h.87a30.79,30.79,0,0,1-2.212-5H9Z" style="fill:#21abab"/><path d="M40,53c-.132,0-.262-.008-.394-.01L39,54H35l-.292-1.459A30.878,30.878,0,0,1,20,45.678V47l-3,4H15l-1-6-2-1V40L9,36l-.92-.62L6,34V25H4V23l4-4,1.273-1.061A30.79,30.79,0,0,1,12.318,8.05,31,31,0,1,0,52,55.68V50.59A30.9,30.9,0,0,1,40,53Z" style="fill:#21abab"/><path d="M57.95,48.97a30.873,30.873,0,0,0,1.715-3.007,31.261,31.261,0,0,1-2.983,2.16Z" style="fill:#21abab"/><path d="M42.69,10H37V7C40.65,7.05,42.14,8.92,42.69,10Z" style="fill:#96e0ff"/><path d="M20.25,7.67,16.75,1h3.5l7.51,6.35c-2.42.13-5.02.27-7.51.41Z" style="fill:#d4d4d4"/><path d="M37,10h5.69a3.235,3.235,0,0,1,.31.75S43,13,39.5,13H32.12l-11.2,8H16.25l6.54-8H5.71a3.384,3.384,0,0,1-3.45-2.51L1,4H3.62L8,8.5s5.77-.37,12.25-.74c2.49-.14,5.09-.28,7.51-.41,3.98-.2,7.45-.35,9.11-.35H37Z" style="fill:#e3e3e3"/><polygon points="11.6 16 15 16 17 16 19 16 19.79 16 19 16.966 19 17.636 22.79 13 18 13 14 14 11.6 16" style="fill:#ad3a34"/><polygon points="14.885 22 13.25 24 17 24 16 22 14.885 22" style="fill:#ad3a34"/><path d="M14,14l4-1H7.515a31.01,31.01,0,0,0-2.07,3H11.6Z" style="fill:#21abab"/><path d="M20.92,21H16.25L19,17.636v-.67L14.885,22H16l1,2h.92l11.2-8H36.5C40,16,40,13.75,40,13.75a3.235,3.235,0,0,0-.31-.75l0-.008c-.064,0-.12.008-.186.008H32.12L21,20.943V21Z" style="fill:#21abab"/><path d="M23.07,6a2,2,0,0,1-1.664-.891L18.667,1H16.75l3.5,6.67v.09c2.49-.14,5.09-.28,7.51-.41L26.163,6Z" style="fill:#bfbfbf"/><path d="M6.342,12a3,3,0,0,1-2.91-2.272L2,4H1l1.26,6.49A3.384,3.384,0,0,0,5.71,13H22.667L24,12Z" style="fill:#bfbfbf"/><path d="M41,12H33l-1,1,.018.073.1-.073H39.5C43,13,43,10.75,43,10.75s-.022-.09-.075-.235A2,2,0,0,1,41,12Z" style="fill:#bfbfbf"/><path d="M39,9h3a6.038,6.038,0,0,0-4-1.922V8A1,1,0,0,0,39,9Z" style="fill:#b3f5ff"/></g></svg>