<?xml version="1.0" ?><svg data-name="01-Virus" id="_01-Virus" viewBox="0 0 64 64" xmlns="http://www.w3.org/2000/svg"><title/><circle cx="37" cy="41" r="2" style="fill:#107c82"/><circle cx="25" cy="35" r="4" style="fill:#107c82"/><circle cx="30" cy="23" r="2" style="fill:#107c82"/><path d="M61,30a2,2,0,0,1,0,4H58a26.086,26.086,0,0,0-7.32,1.4,18.748,18.748,0,0,1-2.39,6.34,28.829,28.829,0,0,0,4.86,7.44L54.98,51H55a3,3,0,1,1-3,3v-.02l-1.82-1.83a28.5,28.5,0,0,0-7.14-4.72,18.85,18.85,0,0,1-7.64,3.25A26.086,26.086,0,0,0,34,58v3a2,2,0,0,1-4,0V58a26.086,26.086,0,0,0-1.4-7.32,18.85,18.85,0,0,1-7.64-3.25,28.5,28.5,0,0,0-7.14,4.72L12,53.98V54a3,3,0,1,1-3-3h.02l1.83-1.82a28.829,28.829,0,0,0,4.86-7.44,18.748,18.748,0,0,1-2.39-6.34A26.086,26.086,0,0,0,6,34H3a2,2,0,0,1,0-4H6a26.086,26.086,0,0,0,7.32-1.4,18.748,18.748,0,0,1,2.39-6.34,28.829,28.829,0,0,0-4.86-7.44L9.02,13H9a3,3,0,1,1,3-3v.02l1.82,1.83a28.5,28.5,0,0,0,7.14,4.72,18.85,18.85,0,0,1,7.64-3.25A26.086,26.086,0,0,0,30,6V3a2,2,0,0,1,4,0V6a26.086,26.086,0,0,0,1.4,7.32,18.85,18.85,0,0,1,7.64,3.25,28.5,28.5,0,0,0,7.14-4.72L52,10.02V10a3,3,0,1,1,3,3h-.02l-1.83,1.82a28.829,28.829,0,0,0-4.86,7.44,18.748,18.748,0,0,1,2.39,6.34A26.086,26.086,0,0,0,58,30ZM44,29a3,3,0,1,0-3,3A3,3,0,0,0,44,29ZM39,41a2,2,0,1,0-2,2A2.006,2.006,0,0,0,39,41ZM32,23a2,2,0,1,0-2,2A2.006,2.006,0,0,0,32,23ZM29,35a4,4,0,1,0-4,4A4,4,0,0,0,29,35Z" style="fill:#34c1ad"/><circle cx="41" cy="29" r="3" style="fill:#107c82"/><path d="M32,16A16,16,0,1,0,48,32,16,16,0,0,0,32,16ZM25,39a4,4,0,1,1,4-4A4,4,0,0,1,25,39Zm5-14a2,2,0,1,1,2-2A2.006,2.006,0,0,1,30,25Zm7,18a2,2,0,1,1,2-2A2.006,2.006,0,0,1,37,43Zm4-11a3,3,0,1,1,3-3A3,3,0,0,1,41,32Z" style="fill:#21abab"/><path d="M25,30a5,5,0,1,0,5,5A5,5,0,0,0,25,30Zm0,9a4,4,0,1,1,4-4A4,4,0,0,1,25,39Z" style="fill:#13969d"/><path d="M30,20a3,3,0,1,0,3,3A3,3,0,0,0,30,20Zm0,5a2,2,0,1,1,2-2A2.006,2.006,0,0,1,30,25Z" style="fill:#13969d"/><path d="M37,38a3,3,0,1,0,3,3A3,3,0,0,0,37,38Zm0,5a2,2,0,1,1,2-2A2.006,2.006,0,0,1,37,43Z" style="fill:#13969d"/><path d="M41,25a4,4,0,1,0,4,4A4,4,0,0,0,41,25Zm0,7a3,3,0,1,1,3-3A3,3,0,0,1,41,32Z" style="fill:#13969d"/><circle cx="9" cy="10" r="2" style="fill:#21abab"/><circle cx="55" cy="10" r="2" style="fill:#21abab"/><circle cx="55" cy="54" r="2" style="fill:#21abab"/><circle cx="42" cy="37" r="2" style="fill:#13969d"/><circle cx="22" cy="26" r="2" style="fill:#13969d"/><circle cx="36" cy="22" r="2" style="fill:#13969d"/><circle cx="9" cy="54" r="2" style="fill:#21abab"/><circle cx="61" cy="32" r="1" style="fill:#21abab"/><circle cx="33" cy="31" r="1" style="fill:#13969d"/><circle cx="30" cy="43" r="1" style="fill:#13969d"/><circle cx="3" cy="32" r="1" style="fill:#21abab"/><circle cx="32" cy="3" r="1" style="fill:#21abab"/><circle cx="32" cy="61" r="1" style="fill:#21abab"/></svg>