<?xml version="1.0" ?><svg viewBox="0 0 64 64" xmlns="http://www.w3.org/2000/svg"><title/><g data-name="17-R.I.P" id="_17-R.I.P"><path d="M32,1A23,23,0,0,0,9,24V55H55V24A23,23,0,0,0,32,1Z" style="fill:#f5f5f5"/><path d="M59,59v4H5V59a4,4,0,0,1,4-4H55A4,4,0,0,1,59,59Z" style="fill:#055d8d"/><path d="M55,55v1.25C55,58.321,53.627,60,51.933,60H12.067C10.373,60,9,58.321,9,56.25V55a4,4,0,0,0-4,4v4H59V59A4,4,0,0,0,55,55Z" style="fill:#072c58"/><path d="M51,47H42A26,26,0,0,1,16,21h0A20,20,0,0,1,34.071,1.1C33.388,1.036,32.7,1,32,1A23,23,0,0,0,9,24V55H55V43A4,4,0,0,1,51,47Z" style="fill:#e3e3e3"/><path d="M25,20a5.006,5.006,0,0,0-5-5H18a1,1,0,0,0-1,1V30h2V25.167l3.516,2.11A1,1,0,0,1,23,28.13V30h2V28.13a3.013,3.013,0,0,0-1.455-2.568l-1.6-.958a5.129,5.129,0,0,0,1.593-1.072A5.006,5.006,0,0,0,25,20Zm-2.872,2.118A3.018,3.018,0,0,1,20,23H19V17h1a3,3,0,0,1,2.128,5.118Z" style="fill:#055d8d"/><rect height="15" style="fill:#055d8d" width="2" x="31" y="15"/><path d="M42,15H40a1,1,0,0,0-1,1V30h2V25h1a5,5,0,0,0,0-10Zm2.128,7.118A3.018,3.018,0,0,1,42,23H41V17h1a3,3,0,0,1,2.128,5.118Z" style="fill:#055d8d"/><rect height="2" style="fill:#055d8d" width="2" x="27" y="28"/><rect height="2" style="fill:#055d8d" width="2" x="35" y="28"/><rect height="2" style="fill:#055d8d" width="14" x="17" y="48"/><rect height="2" style="fill:#055d8d" width="14" x="33" y="48"/><rect height="8" style="fill:#34c1ad" width="12" x="26" y="35"/><path d="M11,24a21,21,0,0,1,42,0V55h2V24A23,23,0,0,0,9,24V55h2Z" style="fill:#055d8d"/><rect height="4" style="fill:#072c58" width="2" x="53" y="51"/><rect height="4" style="fill:#072c58" width="2" x="9" y="51"/></g></svg>