<?xml version="1.0" ?><svg id="_x31_-outline-expand" style="enable-background:new 0 0 64 64;" version="1.1" viewBox="0 0 64 64" xml:space="preserve" xmlns="http://www.w3.org/2000/svg" xmlns:xlink="http://www.w3.org/1999/xlink"><rect height="2" style="fill:#62C4C3;" width="12" x="6" y="6.999"/><rect height="2" style="fill:#62C4C3;" width="12" x="6" y="10.999"/><rect height="2" style="fill:#62C4C3;" width="12" x="6" y="14.999"/><rect height="2" style="fill:#62C4C3;" width="12" x="6" y="18.999"/><rect height="2" style="fill:#62C4C3;" width="12" x="6" y="22.999"/><rect height="2" style="fill:#62C4C3;" width="13" x="48" y="4.999"/><rect height="2" style="fill:#62C4C3;" width="13" x="48" y="8.999"/><rect height="2" style="fill:#62C4C3;" width="13" x="48" y="12.999"/><rect height="2" style="fill:#62C4C3;" width="13" x="47" y="16.999"/><rect height="2" style="fill:#62C4C3;" width="13" x="46" y="20.999"/><rect height="2" style="fill:#62C4C3;" width="13" x="43" y="24.999"/><rect height="2" style="fill:#62C4C3;" width="13" x="40" y="28.999"/><rect height="2" style="fill:#62C4C3;" width="13" x="36" y="32.999"/><rect height="2" style="fill:#62C4C3;" width="13" x="34" y="36.999"/><rect height="2" style="fill:#62C4C3;" width="13" x="32" y="40.999"/><rect height="2" style="fill:#62C4C3;" width="13" x="32" y="44.999"/><rect height="2" style="fill:#62C4C3;" width="13" x="32" y="48.999"/><rect height="2" style="fill:#62C4C3;" width="13" x="32" y="52.999"/><rect height="2" style="fill:#62C4C3;" width="13" x="32" y="56.999"/><path d="M58,4v9.37c0,6.755-2.916,13.182-8,17.63c-5.084,4.448-8,10.875-8,17.63V60c0,1.104,0.896,2,2,2  s2-0.896,2-2v-9.37c0-6.755,2.916-13.182,8-17.63c5.084-4.448,8-10.875,8-17.63V4c0-1.104-0.896-2-2-2S58,2.896,58,4L58,4z" style="fill:#EFBC2E;"/><rect height="2" style="fill:#62C4C3;" width="12" x="6" y="38.999"/><rect height="2" style="fill:#62C4C3;" width="12" x="6" y="42.999"/><rect height="2" style="fill:#62C4C3;" width="12" x="6" y="46.999"/><rect height="2" style="fill:#62C4C3;" width="12" x="6" y="50.999"/><rect height="2" style="fill:#62C4C3;" width="12" x="6" y="54.999"/><path d="M18,60v-9.37c0-6.755-2.916-13.182-8-17.63c-5.084-4.448-8-10.875-8-17.63V4c0-1.104,0.896-2,2-2  s2,0.896,2,2v9.37C6,20.125,8.916,26.552,14,31c5.084,4.448,8,10.875,8,17.63V60c0,1.104-0.896,2-2,2S18,61.104,18,60L18,60z" style="fill:#EF941D;"/><path d="M18,4v9.37c0,6.755-2.916,13.182-8,17.63c-5.084,4.448-8,10.875-8,17.63V60c0,1.104,0.896,2,2,2  s2-0.896,2-2v-9.37C6,43.875,8.916,37.448,14,33c5.084-4.448,8-10.875,8-17.63V4c0-1.104-0.896-2-2-2S18,2.896,18,4L18,4z" style="fill:#EFBC2E;"/></svg>