<svg id="Layer_1" enable-background="new 0 0 512.004 512.004" height="512" viewBox="0 0 512.004 512.004" width="512" xmlns="http://www.w3.org/2000/svg"><g><g><path d="m284.999 512.002c-1.962 0-3.943-.385-5.83-1.182l-90-37.995c-3.987-1.683-7.054-5.007-8.41-9.117s-.872-8.606 1.33-12.333l35.622-60.282-26.796-86.64-79.596-70.447h-96.319c-3.979 0-7.794-1.581-10.607-4.394s-4.393-6.628-4.393-10.606l.003-76c0-4.238 1.793-8.279 4.937-11.123l37.064-33.534v-47.343c0-3.978 1.581-7.793 4.394-10.606s6.628-4.394 10.606-4.394h50.939l3.203-23.063c1.03-7.416 7.37-12.936 14.856-12.937l68-.004c3.029 0 5.987.917 8.485 2.63l31.166 21.374h90.351c8.284 0 15 6.716 15 15v42.449l160.646 28.787c7.149 1.281 12.354 7.501 12.354 14.765l-.001 97c0 4.27-1.82 8.337-5.003 11.183l-61.482 54.962-6.555 88.958c-.577 7.835-7.103 13.897-14.959 13.897l-54 .001v26.498c0 3.649-1.331 7.174-3.743 9.913l-70 79.496c-2.911 3.304-7.042 5.087-11.262 5.087z" fill="#bee75e"/></g><path d="m499.65 110.241-160.647-28.786v-42.449c0-8.284-6.716-15-15-15h-68.193v476.953l23.359 9.861c1.887.796 3.868 1.182 5.83 1.182 4.22 0 8.351-1.782 11.262-5.087l70-79.496c2.412-2.739 3.743-6.264 3.743-9.913v-26.498l54-.001c7.856 0 14.382-6.063 14.959-13.897l6.555-88.958 61.482-54.963c3.183-2.846 5.003-6.913 5.003-11.183l.001-97c0-7.264-5.205-13.483-12.354-14.765z" fill="#00cb75"/></g></svg>