<?xml version="1.0" ?><svg viewBox="0 0 64 64" xmlns="http://www.w3.org/2000/svg"><title/><g data-name="Layer 31" id="Layer_31"><rect height="30" rx="4" style="fill:#98deea" width="46" x="9" y="5"/><path d="M45,24V23h1a2.993,2.993,0,0,0,1-5.816V13a11.94,11.94,0,0,0-3.074-8H24.074A11.94,11.94,0,0,0,21,13v5h2v6a11,11,0,0,0,22,0Z" style="fill:#82d0d8"/><path d="M41,24V18h2V13a11.94,11.94,0,0,0-3.074-8H20.074A11.94,11.94,0,0,0,17,13v4.184A2.993,2.993,0,0,0,18,23h1v1a11,11,0,0,0,22,0Z" style="fill:#82d0d8"/><path d="M54,32H38A26,26,0,0,1,12,6h0a3.974,3.974,0,0,1,.108-.892A4,4,0,0,0,9,9V31a4,4,0,0,0,4,4H51a4,4,0,0,0,3.892-3.108A3.974,3.974,0,0,1,54,32Z" style="fill:#82d0d8"/><path d="M29,33v6a3,3,0,0,0,6,0V33Z" style="fill:#ffd3b6"/><path d="M29,36.575a10.8,10.8,0,0,0,6,0V33H29Z" style="fill:#f9b995"/><path d="M21,13H43a0,0,0,0,1,0,0V24A11,11,0,0,1,32,35h0A11,11,0,0,1,21,24V13a0,0,0,0,1,0,0Z" style="fill:#ffd3b6"/><path d="M35,32A11,11,0,0,1,24,21V13H21V24a11,11,0,0,0,20.132,6.132A10.945,10.945,0,0,1,35,32Z" style="fill:#f9b995"/><path d="M33,1H31A12,12,0,0,0,19,13v5h2V17H31.343a4,4,0,0,0,2.829-1.172L36,14l1.828,1.828A4,4,0,0,0,40.657,17H43v1h2V13A12,12,0,0,0,33,1Z" style="fill:#7a838b"/><path d="M20,17h1a0,0,0,0,1,0,0v6a0,0,0,0,1,0,0H20a3,3,0,0,1-3-3v0A3,3,0,0,1,20,17Z" style="fill:#f9b995"/><path d="M46,17h1a0,0,0,0,1,0,0v6a0,0,0,0,1,0,0H46a3,3,0,0,1-3-3v0A3,3,0,0,1,46,17Z" style="fill:#ffd3b6" transform="translate(90 40) rotate(180)"/><path d="M55,51V63H9V51A12,12,0,0,1,21,39h8a3,3,0,0,0,6,0h8A12,12,0,0,1,55,51Z" style="fill:#ff938d"/><path d="M24,39H21A12,12,0,0,0,9,51V63h3V51A12,12,0,0,1,24,39Z" style="fill:#f27875"/><path d="M59,28.023V10a3,3,0,0,0-3-3h0a3,3,0,0,0-3,3V28.023a5,5,0,1,0,6,0Z" style="fill:#e6e6e6"/><circle cx="56" cy="32" r="2" style="fill:#ff938d"/><path d="M55,61V51a11.966,11.966,0,0,0-.7-4H9.7A11.966,11.966,0,0,0,9,51V61Z" style="fill:#f27875"/><path d="M3,49H61a2,2,0,0,1,2,2V63a0,0,0,0,1,0,0H1a0,0,0,0,1,0,0V51A2,2,0,0,1,3,49Z" style="fill:#98deea"/><path d="M4,52V49H3a2,2,0,0,0-2,2V63H63V60H12A8,8,0,0,1,4,52Z" style="fill:#82d0d8"/><path d="M43.657,14a4,4,0,0,1-2.829-1.172l-.414-.414a2,2,0,0,0-2.828,0l-.414.414A4,4,0,0,1,34.343,14H26a4,4,0,0,1-4-4h0a11.93,11.93,0,0,1,2.153-6.847A11.98,11.98,0,0,0,19,13v4H31.343a4,4,0,0,0,2.829-1.172L36,14l1.828,1.828A4,4,0,0,0,40.657,17H45V14Z" style="fill:#5d6972"/><path d="M28,20H26a1,1,0,0,0,0,2h2a1,1,0,0,0,0-2Z" style="fill:#7a838b"/><path d="M36,22h2a1,1,0,0,0,0-2H36a1,1,0,0,0,0,2Z" style="fill:#7a838b"/><path d="M56,12a1,1,0,0,1-1-1V9a1,1,0,0,1,2,0v2A1,1,0,0,1,56,12Z" style="fill:#fff"/><path d="M56,32a1,1,0,0,1-1-1V13a1,1,0,0,1,2,0V31A1,1,0,0,1,56,32Z" style="fill:#ff938d"/><path d="M53,14H51a1,1,0,0,1,0-2h2a1,1,0,0,1,0,2Z" style="fill:#e6e6e6"/><path d="M53,18H51a1,1,0,0,1,0-2h2a1,1,0,0,1,0,2Z" style="fill:#e6e6e6"/><path d="M53,22H51a1,1,0,0,1,0-2h2a1,1,0,0,1,0,2Z" style="fill:#e6e6e6"/><path d="M53,26H51a1,1,0,0,1,0-2h2a1,1,0,0,1,0,2Z" style="fill:#e6e6e6"/></g></svg>