<?xml version="1.0" ?><svg viewBox="0 0 64 64" xmlns="http://www.w3.org/2000/svg"><title/><g data-name="11-Sore throat" id="_11-Sore_throat"><path d="M36,39H28s0-5,4-5S36,39,36,39Z" style="fill:#d9896d"/><path d="M53.12,23.1,50,27l-.11.01A4.882,4.882,0,0,0,50,26V25a2.006,2.006,0,0,0-2-2H46V19c-5,0-5-8-5-8s-3,5-6,5l.99-3.98C35.69,12.43,30.78,19,24,19V13l-6,5v5H16a2.006,2.006,0,0,0-2,2v1a5.4,5.4,0,0,0,.99,2.99C14.69,28.87,10,26.84,10,22a10.8,10.8,0,0,1,4-8A8.613,8.613,0,0,1,6,9s8-1,12-3,6-5,14-5A11.785,11.785,0,0,1,42,6a4.333,4.333,0,0,1,4-2c3,0,8,2,8,8v8.6A3.989,3.989,0,0,1,53.12,23.1Z" style="fill:#5e3616"/><path d="M38,41.63A13.167,13.167,0,0,1,19,32a7.739,7.739,0,0,1-4-3l-.01-.01A5.4,5.4,0,0,1,14,26V25a2.006,2.006,0,0,1,2-2h2V18l6-5v6c6.78,0,11.69-6.57,11.99-6.98L35,16c3,0,6-5,6-5s0,8,5,8v4h2a2.006,2.006,0,0,1,2,2v1a4.882,4.882,0,0,1-.11,1.01A7.411,7.411,0,0,1,45,32,13.448,13.448,0,0,1,38,41.63ZM28,39h8s0-5-4-5S28,39,28,39Z" style="fill:#f2c4b2"/><path d="M63,62v1H50a5.422,5.422,0,0,0,4.51-2.13A8.422,8.422,0,0,0,55.99,56H56Z" style="fill:#21abab"/><path d="M48,63H5V58.74A6.01,6.01,0,0,1,9.61,52.9l14.85-3.53a1.794,1.794,0,0,0,.6-.26A7.944,7.944,0,0,0,32,53h2.6L41,59.36Z" style="fill:#34c1ad"/><path d="M18,25H17a1,1,0,0,0-1,1v1c0,1.105.895,3,2,3h0Z" style="fill:#f2a283"/><path d="M46,25h1a1,1,0,0,1,1,1v1c0,1.105-.9,3-2,3h0Z" style="fill:#f2a283"/><path d="M14,14a10.8,10.8,0,0,0-4,8c0,4.84,4.69,6.87,4.99,6.99A5.4,5.4,0,0,1,14,26V25a2.006,2.006,0,0,1,2-2h2V18l-6,2A8.76,8.76,0,0,1,14,14Z" style="fill:#3b220e"/><path d="M46,19v4h2a2.006,2.006,0,0,1,2,2V21Z" style="fill:#3b220e"/><polygon points="24 13 18 18 18 19 18 20 24 15 24 13" style="fill:#d9896d"/><path d="M41,13s0,8,5,8V19c-5,0-5-8-5-8s-2.669,4.444-5.49,4.949L35,18C38,18,41,13,41,13Z" style="fill:#d9896d"/><path d="M35.271,14.91l.719-2.89C35.69,12.43,30.78,19,24,19v2C29.424,21,33.644,16.8,35.271,14.91Z" style="fill:#d9896d"/><path d="M36,27.5a.5.5,0,0,1-.293-.095A.5.5,0,0,1,35.5,27c0-2.522,3.369-3.755,5.377-4.266a.5.5,0,0,1,.246.969c-1.214.309-3.836,1.133-4.478,2.613a11.273,11.273,0,0,1,4.455-.07.5.5,0,0,1-.2.981,10.422,10.422,0,0,0-4.747.248A.5.5,0,0,1,36,27.5Z" style="fill:#5e3616"/><path d="M39.908,19.519c.021-.006.041-.011.062-.015.3-.054.53.423.53.746,0,.091-.034,2.25-3,2.25s-3-2.159-3-2.25a.79.79,0,0,1,.337-.675c.218-.133.43-.009.6.2.083.1.147.228.235.324a1.124,1.124,0,0,0,.3.213,4.459,4.459,0,0,0,.829.377,2.394,2.394,0,0,0,2.229-.491A3.166,3.166,0,0,1,39.908,19.519Z" style="fill:#3b220e"/><path d="M28,27.5a.507.507,0,0,0,.293-.095A.5.5,0,0,0,28.5,27c0-2.522-3.369-3.755-5.377-4.266a.5.5,0,0,0-.246.969c1.214.309,3.836,1.133,4.478,2.613a11.273,11.273,0,0,0-4.455-.07.5.5,0,0,0,.2.981,10.424,10.424,0,0,1,4.747.248A.491.491,0,0,0,28,27.5Z" style="fill:#5e3616"/><path d="M24.094,19.519c-.021-.006-.041-.011-.062-.015-.3-.054-.53.423-.53.746,0,.091.034,2.25,3,2.25s3-2.159,3-2.25a.79.79,0,0,0-.337-.675c-.219-.133-.43-.009-.6.2-.083.1-.147.228-.236.324a1.108,1.108,0,0,1-.3.213,4.422,4.422,0,0,1-.828.377,2.394,2.394,0,0,1-2.229-.491A3.18,3.18,0,0,0,24.094,19.519Z" style="fill:#3b220e"/><ellipse cx="32" cy="30" rx="1" ry="2" style="fill:#d9896d"/><path d="M28,35a4.986,4.986,0,0,0-9-2.979,13.965,13.965,0,0,0,4.481,7.93A4.983,4.983,0,0,0,28,35Z" style="fill:#f2a283"/><path d="M37,36a4.985,4.985,0,0,0,2.82,4.48A13.768,13.768,0,0,0,45,32.019,4.977,4.977,0,0,0,37,36Z" style="fill:#f2a283"/><path d="M41,59.36,34.6,53H32a7.944,7.944,0,0,1-6.94-3.89,1.794,1.794,0,0,1-.6.26l-4.146.986C21.113,52.391,23.947,56,34,56l4,7H48Z" style="fill:#21abab"/><polygon points="38 51.488 38 51.488 42 55 38 51.488" style="fill:none"/><polygon points="36.43 50.11 38 51.488 38 51.488 36.43 50.11" style="fill:none"/><path d="M38,47.564h0a1.906,1.906,0,0,0-.25-.024A1.906,1.906,0,0,1,38,47.564Z" style="fill:none"/><path d="M42,55l-4-3.512v.1l-.91-.777a1.9,1.9,0,0,0-1.34-.54,1.987,1.987,0,0,0-.97.26,1.438,1.438,0,0,0-.35,2.3l.17.17L41,59.36,48,63h2a5.422,5.422,0,0,0,4.51-2.13A8.422,8.422,0,0,0,55.99,56a2.437,2.437,0,0,0,.01-.27L54,53V46a2.088,2.088,0,0,0-2-2,2.088,2.088,0,0,0-2,2v3l-5.87-5.46A1.857,1.857,0,0,0,42.79,43a1.94,1.94,0,0,0-.99.27,1.363,1.363,0,0,0-.39,2.21L46,50l-4.91-4.64a1.851,1.851,0,0,0-1.33-.54,1.894,1.894,0,0,0-.98.26,1.485,1.485,0,0,0-.3,2.34l.835.84-.225-.18A1.866,1.866,0,0,0,38,47.564v3.924Z" style="fill:#f2bca7"/><path d="M36.78,47.8a1.448,1.448,0,0,0-.35,2.31L38,51.488V47.564a1.906,1.906,0,0,0-.25-.024A1.987,1.987,0,0,0,36.78,47.8Z" style="fill:#f2bca7"/><path d="M36.347,48.178a1.413,1.413,0,0,0,.083,1.932l4.507,3.957A1.51,1.51,0,0,0,43,54h0Z" style="fill:#f2ab8f"/><path d="M46.525,60.368l-4.81-2.062a4.036,4.036,0,0,1-1.265-.856l-5.743-5.743a.983.983,0,0,1-.25-.926,1.411,1.411,0,0,0-.027,2.049l.17.17L41,59.36,48,63h2a5.422,5.422,0,0,0,4.51-2.13,8.4,8.4,0,0,0,1.475-4.807,5.752,5.752,0,0,1-5.068,4.842A7.71,7.71,0,0,1,46.525,60.368Z" style="fill:#f2ab8f"/><path d="M44.5,52.5a.707.707,0,0,0,0-1l-6.095-6.095a1.466,1.466,0,0,0,.075,2.015l.835.84-.225-.18c-.016-.016-.036-.027-.053-.043L43.5,52.5A.707.707,0,0,0,44.5,52.5Z" style="fill:#f2ab8f"/><path d="M47.5,50.5a.707.707,0,0,0,0-1L41.5,43.5a1.363,1.363,0,0,0-.346,1.654L46,50l.5.5A.707.707,0,0,0,47.5,50.5Z" style="fill:#f2ab8f"/><path d="M34.43,52.83a1.438,1.438,0,0,1,.35-2.3,1.987,1.987,0,0,1,.97-.26,1.9,1.9,0,0,1,1.34.54l.91.777v-.1L36.43,50.11a1.448,1.448,0,0,1,.35-2.31,1.987,1.987,0,0,1,.97-.26,1.906,1.906,0,0,1,.25.024V41.63a13.824,13.824,0,0,1-12,0v5.79a1.978,1.978,0,0,1-.94,1.69A7.944,7.944,0,0,0,32,53h2.6Z" style="fill:#ff5d54"/><path d="M52,45a1,1,0,0,1,.571-.9A1.788,1.788,0,0,0,52,44a2.088,2.088,0,0,0-2,2v3l2,2Z" style="fill:#f2ab8f"/><path d="M38,41.63a13.824,13.824,0,0,1-12,0v5.79a1.978,1.978,0,0,1-.94,1.69,7.536,7.536,0,0,0,1.193,1.538L38,43.6Z" style="fill:#e7544c"/><path d="M19,42a.994.994,0,0,1-.6-.2l-4-3a1,1,0,0,1-.107-1.507l1.185-1.185L12.4,33.8a1,1,0,1,1,1.2-1.6l4,3a1,1,0,0,1,.107,1.507l-1.185,1.185L19.6,40.2A1,1,0,0,1,19,42Z" style="fill:#ff5d54"/><path d="M17,44H11a1,1,0,0,1-.832-1.555L11.132,41H7a1,1,0,0,1,0-2h6a1,1,0,0,1,.832,1.555L12.868,42H17a1,1,0,0,1,0,2Z" style="fill:#ff5d54"/><path d="M17,50H11a1,1,0,0,1,0-2h4.132l-.964-1.445A1,1,0,0,1,15,45h6a1,1,0,0,1,0,2H16.868l.964,1.445A1,1,0,0,1,17,50Z" style="fill:#ff5d54"/><path d="M46,41a1,1,0,0,1-.6-1.8l3.078-2.308-1.185-1.185A1,1,0,0,1,47.4,34.2l4-3a1,1,0,1,1,1.2,1.6l-3.078,2.308,1.185,1.185A1,1,0,0,1,50.6,37.8l-4,3A.994.994,0,0,1,46,41Z" style="fill:#ff5d54"/><path d="M54,43H48a1,1,0,0,1,0-2h4.132l-.964-1.445A1,1,0,0,1,52,38h6a1,1,0,0,1,0,2H53.868l.964,1.445A1,1,0,0,1,54,43Z" style="fill:#ff5d54"/><path d="M34.6,53l-.17-.17a1.45,1.45,0,0,1-.411-.83H32a6.918,6.918,0,0,1-6.1-3.445.972.972,0,0,0-.141-.182,1.967,1.967,0,0,1-.7.737,1.794,1.794,0,0,1-.6.26l-.351.083c.008.017.032.064.079.148A8.93,8.93,0,0,0,32,54h3a.97.97,0,0,0,.471-.134Z" style="fill:#e3e3e3"/></g></svg>