<svg id="Layer_1_copy_3" height="512" viewBox="0 0 64 64" width="512" xmlns="http://www.w3.org/2000/svg" data-name="Layer 1 copy 3"><path d="m43 11.356a26.981 26.981 0 1 1 -22 0z" fill="#23a8cc"/><path d="m38 20.89c12.014 1.566 20.981 7.737 20.981 15.11 0 8.558-12.08 15.495-26.981 15.495s-26.981-6.937-26.981-15.495c0-7.373 8.968-13.544 20.981-15.11z" fill="#1fb9dd"/><g opacity=".5"><path d="m42 15.394c3.362 4.949 5.495 12.344 5.495 20.606 0 14.9-6.937 26.981-15.495 26.981s-15.495-12.081-15.495-26.981c0-8.265 2.134-15.661 5.495-20.611z" fill="#9edfe0"/></g><path d="m42.785 12.141a11.015 11.015 0 0 0 -10.785-11.05 11.015 11.015 0 0 0 -10.785 11.05 10.768 10.768 0 0 0 4.969 9.073l5.816 6.786 5.816-6.786a10.768 10.768 0 0 0 4.969-9.073z" fill="#fcc325"/><g opacity=".2"><path d="m32 1.091a10.855 10.855 0 0 0 -9.829 6.581 37.387 37.387 0 0 0 20.14 7.579 10.71 10.71 0 0 0 .474-3.109 11.015 11.015 0 0 0 -10.785-11.051z" fill="#fff"/></g><g opacity=".2"><path d="m12.6 54.737a26.978 26.978 0 0 0 39.59-36.637c-2.173 10.13-10.176 29.226-39.59 36.637z" fill="#231f20"/></g><g fill="#043c49"><path d="m32 63.981a27.986 27.986 0 0 1 -11.408-53.538l.816 1.826a25.981 25.981 0 1 0 21.185 0l.816-1.826a27.986 27.986 0 0 1 -11.409 53.538z"/><path d="m32 63.981c-9.1 0-16.5-12.552-16.5-27.981 0-8.15 2.065-15.868 5.668-21.172l1.654 1.123c-3.377 4.982-5.322 12.289-5.322 20.049 0 14.326 6.5 25.981 14.5 25.981s14.5-11.655 14.5-25.981c0-7.758-1.938-15.064-5.319-20.044l1.654-1.123c3.596 5.303 5.665 13.019 5.665 21.167 0 15.429-7.4 27.981-16.5 27.981z"/><path d="m32 52.495c-15.429 0-27.981-7.395-27.981-16.495 0-7.8 8.986-14.424 21.853-16.1l.258 1.983c-11.653 1.517-20.111 7.456-20.111 14.117 0 7.992 11.655 14.495 25.981 14.495s25.981-6.503 25.981-14.495c0-6.661-8.458-12.6-20.11-14.119l.258-1.983c12.871 1.678 21.852 8.302 21.852 16.102 0 9.1-12.552 16.495-27.981 16.495z"/><path d="m32 64a1 1 0 0 1 -1-1v-35a1 1 0 0 1 2 0v35a1 1 0 0 1 -1 1z"/><path d="m59 37h-54a1 1 0 0 1 0-2h54a1 1 0 0 1 0 2z"/><path d="m32 29.537-6.482-7.563a11.74 11.74 0 0 1 -5.3-9.832 12.08 12.08 0 0 1 11.782-12.051 12.08 12.08 0 0 1 11.785 12.051 11.74 11.74 0 0 1 -5.3 9.832zm0-27.446a10.054 10.054 0 0 0 -9.785 10.051 9.75 9.75 0 0 0 4.509 8.231l.219.19 5.057 5.9 5.276-6.091a9.75 9.75 0 0 0 4.509-8.231 10.054 10.054 0 0 0 -9.785-10.05z"/><path d="m29 33a1 1 0 0 1 -1-1v-1a1 1 0 0 1 2 0v1a1 1 0 0 1 -1 1z"/><path d="m35 45a1 1 0 0 1 -1-1v-1a1 1 0 0 1 2 0v1a1 1 0 0 1 -1 1z"/><path d="m29 42a1 1 0 0 1 -1-1v-1a1 1 0 0 1 2 0v1a1 1 0 0 1 -1 1z"/><path d="m29 48a1 1 0 0 1 -1-1v-1a1 1 0 0 1 2 0v1a1 1 0 0 1 -1 1z"/><path d="m29 59a1 1 0 0 1 -1-1v-3a1 1 0 0 1 2 0v3a1 1 0 0 1 -1 1z"/><path d="m32.464 16.818h-1.287a2.444 2.444 0 0 1 -2.44-2.441v-.741a1 1 0 1 1 2 0v.741a.441.441 0 0 0 .44.441h1.287a.441.441 0 0 0 .44-.441v-.545a.442.442 0 0 0 -.185-.358l-2.913-1.833a2.44 2.44 0 0 1 1.37-4.459h1.287a2.444 2.444 0 0 1 2.437 2.441v.2a1 1 0 1 1 -2 0v-.2a.441.441 0 0 0 -.44-.441h-1.283a.44.44 0 0 0 -.256.8l2.913 1.833a2.467 2.467 0 0 1 1.07 2.018v.545a2.444 2.444 0 0 1 -2.44 2.44z"/><path d="m32 9a1 1 0 0 1 -1-1v-1a1 1 0 0 1 2 0v1a1 1 0 0 1 -1 1z"/><path d="m32 18a1 1 0 0 1 -1-1v-1a1 1 0 0 1 2 0v1a1 1 0 0 1 -1 1z"/></g></svg>