<?xml version="1.0" ?><svg viewBox="0 0 512 512" xmlns="http://www.w3.org/2000/svg"><g id="flat"><path d="M88,136H72V112a48,48,0,0,1,96,0v8H152v-8a32,32,0,0,0-64,0Z" style="fill:#cbcbcb"/><path d="M452,424H384a8,8,0,0,1,0-16h68a28,28,0,0,0,0-56H360a8,8,0,0,1,0-16h92a44,44,0,0,1,0,88Z" style="fill:#cbcbcb"/><rect height="344" rx="12" style="fill:#d18d28" width="256" x="120" y="112"/><path d="M292,96H264V80a16,16,0,0,0-32,0V96H204a12,12,0,0,0-12,12v36H304V108A12,12,0,0,0,292,96Z" style="fill:#c1e3f7"/><rect height="280" style="fill:#e4e4e2" width="192" x="152" y="144"/><rect height="32" style="fill:#cbcbcb" width="32" x="184" y="280"/><rect height="32" style="fill:#cbcbcb" width="32" x="184" y="344"/><rect height="16" style="fill:#cbcbcb" width="80" x="240" y="240"/><rect height="16" style="fill:#cbcbcb" width="24" x="240" y="288"/><rect height="16" style="fill:#cbcbcb" width="40" x="280" y="288"/><rect height="16" style="fill:#cbcbcb" width="40" x="240" y="368"/><rect height="16" style="fill:#cbcbcb" width="48" x="240" y="336"/><rect height="16" style="fill:#cbcbcb" width="16" x="304" y="336"/><path d="M200,256a8,8,0,0,1-5.657-2.343l-16-16a8,8,0,0,1,11.314-11.314l9.477,9.477L217.6,211.2a8,8,0,1,1,12.8,9.6l-24,32a8,8,0,0,1-5.833,3.179Q200.282,256,200,256Z" style="fill:#f55648"/><polygon points="264 176 256 176 256 168 240 168 240 176 232 176 232 192 240 192 240 200 256 200 256 192 264 192 264 176" style="fill:#029532"/><path d="M64,336a32.036,32.036,0,0,1-32-32V256a8,8,0,0,1,16,0v48a16.019,16.019,0,0,0,16,16,8,8,0,0,1,0,16Z" style="fill:#e4e4e2"/><path d="M96,336a8,8,0,0,1,0-16,16.019,16.019,0,0,0,16-16V256a8,8,0,0,1,16,0v48A32.036,32.036,0,0,1,96,336Z" style="fill:#e4e4e2"/><path d="M96,170.332V136H64v34.332A56.04,56.04,0,0,0,24,224v32H56V224a24,24,0,0,1,48,0v32h32V224A56.016,56.016,0,0,0,96,170.332Z" style="fill:#007af6"/><circle cx="360" cy="416" r="40" style="fill:#007af6"/><circle cx="360" cy="416" r="16" style="fill:#8ed2ff"/><rect height="16" style="fill:#cbcbcb" width="112" x="192" y="144"/></g></svg>