<?xml version="1.0" ?><svg id="Layer_1" style="enable-background:new 0 0 128 128;" version="1.1" viewBox="0 0 128 128" xml:space="preserve" xmlns="http://www.w3.org/2000/svg" xmlns:xlink="http://www.w3.org/1999/xlink"><style type="text/css">
	.st0{fill:#F7F7EB;}
	.st1{fill:#FFC298;}
	.st2{fill:#E1927A;}
	.st3{fill:#DC5240;}
	.st4{fill:#892E1D;}
	.st5{fill:#AA4628;}
	.st6{fill:#6F1E14;}
	.st7{fill:#2C0412;}
	.st8{fill:#A4D877;}
	.st9{fill:#2AC06F;}
	.st10{fill:#F54045;}
	.st11{fill:#A91B35;}
	.st12{fill:#2652E4;}
	.st13{fill:#BDE5EC;}
	.st14{fill:#172A91;}
	.st15{fill:#F9A73D;}
	.st16{fill:#D25C2B;}
	.st17{fill:#812F4B;}
	.st18{fill:#3B0B1B;}
	.st19{fill:#FA9A31;}
	.st20{fill:#DC5F36;}
	.st21{fill:#BEECBD;}
	.st22{fill:#26E490;}
	.st23{fill:#10916A;}
	.st24{fill:#ECC6C3;}
	.st25{fill:#E44450;}
	.st26{fill:none;stroke:#E44450;stroke-width:2;stroke-linecap:round;stroke-miterlimit:10;}
	.st27{fill:none;stroke:#ECC6C3;stroke-width:4;stroke-linecap:round;stroke-miterlimit:10;}
	.st28{fill:url(#SVGID_1_);}
	.st29{fill:none;stroke:#BDE5EC;stroke-width:14;stroke-linecap:round;stroke-linejoin:round;stroke-miterlimit:10;}
	.st30{fill:none;stroke:#FFFFFF;stroke-width:6;stroke-linecap:round;stroke-miterlimit:10;}
	.st31{fill:none;stroke:#E44450;stroke-width:6;stroke-miterlimit:10;}
	.st32{fill:url(#SVGID_2_);}
	.st33{fill:none;stroke:#E44450;stroke-width:4;stroke-miterlimit:10;stroke-dasharray:6,4;}
	.st34{fill:none;stroke:#BDE5EC;stroke-width:4;stroke-miterlimit:10;}
	.st35{fill:url(#SVGID_3_);}
	.st36{fill:none;stroke:#FFFFFF;stroke-width:2;stroke-linecap:round;stroke-miterlimit:10;}
	.st37{fill:#FFFFFF;}
	.st38{opacity:0.5;}
	.st39{fill:none;stroke:#E1927A;stroke-width:10;stroke-linecap:round;stroke-miterlimit:10;}
	.st40{fill:#C1705D;}
	.st41{fill:none;stroke:#E1927A;stroke-width:2.8371;stroke-linecap:round;stroke-miterlimit:10;}
</style><g><g class="st38"><g><path class="st13" d="M34.2,55.8c3,3.1,7.2,2,8.7,1.1c2.2-1.3,6.5-2.8,8.7-6.4c4-6.7,4.7-13.8,1.1-18.2c-6.4-8-16.5-4.6-20.5,2.1     C29.4,39.5,31.3,52.7,34.2,55.8z"/><path class="st13" d="M35.5,34.9c0,2.2-1.7,3.9-3.9,3.9s-3.9-1.7-3.9-3.9"/><path class="st13" d="M49.6,47.2c-1.5,1.5-1.5,4,0,5.5c1.5,1.5,4,1.5,5.5,0c0,0,3.6-9.1,2.2-15.3c-1.4-6.3-6.1-6.6-6.1-6.6     s-2.3-5.1-9-4.6c-6.6,0.5-11.2,4.6-11.2,4.6c-1.5,1.5-1.5,4,0,5.5c0.8,0.8,1.8,1.1,2.8,1.1c1,0,2-0.4,2.8-1.1"/></g><g><path class="st13" d="M90.8,55.8c-3,3.1-7.2,2-8.7,1.1c-2.2-1.3-6.5-2.8-8.7-6.4c-4-6.7-4.7-13.8-1.1-18.2     c6.4-8,16.5-4.6,20.5,2.1C95.6,39.5,93.7,52.7,90.8,55.8z"/><path class="st13" d="M89.5,34.9c0,2.2,1.7,3.9,3.9,3.9c2.2,0,3.9-1.7,3.9-3.9"/><path class="st13" d="M75.4,47.2c1.5,1.5,1.5,4,0,5.5c-1.5,1.5-4,1.5-5.5,0c0,0-3.6-9.1-2.2-15.3c1.4-6.3,6.1-6.6,6.1-6.6     s2.3-5.1,9-4.6c6.6,0.5,11.2,4.6,11.2,4.6c1.5,1.5,1.5,4,0,5.5c-0.8,0.8-1.8,1.1-2.8,1.1s-2-0.4-2.8-1.1"/></g><circle class="st13" cx="55.7" cy="29.6" r="9.1"/><path class="st13" d="M88,54.9v10.9L97,77.3L93.5,117H29.1l2.5-47.2L43,61.6l2.1-12.1l6.5-0.8l5.6,9.3c1.5,2.5,4.1,4.3,7,4.7l0,0    c4.3,0.6,8.5-1.5,10.4-5.4l3.9-7.8L88,54.9z"/></g><g><path class="st13" d="M107.5,107.8c1.7,0.5,5.4,1.4,8.4,2.1c2.8,0.7,5,2.8,5.8,5.5l3.8,12.5h-49l3.4-12.6c0.7-2.7,2.9-4.9,5.6-5.7    l7.8-2.3L107.5,107.8z"/><path class="st13" d="M106.5,100.2l1,7.6c0,0-8.7,8.8-14.2-0.3c2.7-7.3,0.5-11.7,0.5-11.7l0.4-4.3l7.7,0.9L106.5,100.2z"/><path class="st13" d="M111.7,100.3c-3.3,3.5-8,2.2-9.7,1.3c-2.4-1.4-7.3-3.1-9.7-7.1C87.8,87,87.1,79.1,91,74.1    c7.2-8.9,18.4-5.1,22.8,2.4C117.1,82.1,115,96.8,111.7,100.3z"/><path class="st13" d="M98.5,90.8c0,0-3.6,1.3-3.6-1.8c0.1-3.1,4.2-6.5,5.4-1.8"/><path class="st13" d="M100.4,78.1c0,5.3,4.3,9.7,9.7,9.7c5.3,0,9.7-4.3,9.7-9.7"/><path class="st13" d="M111.5,81.3c3,0,5.4-2.4,5.4-5.4s-2.4-5.4-5.4-5.4"/><path class="st13" d="M84,106.6c4.3,3,10.1,1.9,13.1-2.4s1.9-10.1-2.4-13.1"/><path class="st13" d="M82.1,113.4c0,0,6.6-27.6,7.1-33.3c0.5-5.8,13.3,3.1,13.3,3.1V115"/></g><g><path class="st13" d="M20.2,106.5c-1.8,0.5-5.7,1.5-8.9,2.3c-3,0.7-5.3,3-6.2,5.9l-4,13.4h52.2l-3.6-13.4c-0.8-2.9-3-5.2-6-6.1    l-8.4-2.4L20.2,106.5z"/><path class="st13" d="M21.3,98.4l-1,8.1c0,0,9.3,9.3,15.1-0.3c-2.8-7.8-0.5-12.5-0.5-12.5L34.4,89L26.2,90L21.3,98.4z"/><path class="st13" d="M15.7,98.5c3.5,3.7,8.5,2.4,10.3,1.3c2.6-1.5,7.8-3.3,10.4-7.6c4.8-7.9,5.6-16.4,1.4-21.6    c-7.6-9.5-19.6-5.4-24.3,2.5C10,79.1,12.2,94.8,15.7,98.5z"/><path class="st13" d="M29.8,88.4c0,0,3.9,1.4,3.8-1.9c-0.1-3.3-4.4-7-5.7-1.9"/><path class="st13" d="M17.3,73.6c0,2.6-2.1,4.6-4.6,4.6S8,76.2,8,73.6"/><path class="st13" d="M18.5,75.2c-1.8,1.8-4.7,1.8-6.5,0s-1.8-4.7,0-6.5"/><path class="st13" d="M40.5,94.8c-1.8,1.8-4.7,1.8-6.5,0s-1.8-4.7,0-6.5"/></g><path class="st12" d="M58.2,104.7c-2,0.5-6.2,1.6-9.7,2.5c-3.2,0.8-5.8,3.2-6.7,6.4L37.5,128H94L90,113.5c-0.9-3.2-3.3-5.6-6.4-6.6   l-9-2.6L58.2,104.7z"/><path class="st1" d="M59.4,96l-1.1,8.7c0,0,10.1,10.1,16.3-0.3C71.5,96,74,90.9,74,90.9l-0.4-5l-8.9,1L59.4,96z"/><path class="st2" d="M71,89.2c0-0.2,2.6-1.8,2.6-2l-0.1-1.3l-8.9,1L59.4,96l-0.8,6.1c2.5,0.2,5.7-1.2,6.9-1.8   C69.4,98.4,70.7,94.8,71,89.2z"/><path class="st1" d="M53.7,95.9c4.1,4.3,9.9,2.8,12,1.6c3-1.8,7.8-5.8,8.9-11.6c1-5.8,1-10.7-3.1-16.1c-4.1-5.4-19.9-4.3-20.4-3.4   C46.9,73.2,49.6,91.6,53.7,95.9z"/><path class="st4" d="M43.8,63.1c0,0-1.9,7.1,5.4,9.8c7.1,2.6,14.8-2.7,14.8-2.7s0,11.5,10.1,20.6c8.7-2.2,13.3-23.6-1.4-30.9   c-15.3-7.6-24,5.1-24,5.1L43.8,63.1z"/><path class="st1" d="M68.6,85.2c0,0,4.2,1.5,4.1-2.1c-0.1-3.6-4.8-7.5-6.2-2"/><path class="st4" d="M50.1,65.6c-2.1,0-3.8-1.7-3.8-3.8c0-2.1,1.7-3.8,3.8-3.8"/><path class="st25" d="M98.3,11.7L78.8,45.4c-1.4,2.5,0.4,5.6,3.2,5.6H121c2.9,0,4.7-3.1,3.2-5.6l-19.5-33.7   C103.3,9.2,99.8,9.2,98.3,11.7z"/><g><polygon class="st37" points="105,21.5 103,36.4 100.1,36.4 98,21.5   "/></g><circle class="st37" cx="101.5" cy="42.7" r="2.5"/></g></svg>