<?xml version="1.0" encoding="iso-8859-1"?>
<!-- Generator: Adobe Illustrator 18.0.0, SVG Export Plug-In . SVG Version: 6.00 Build 0)  -->
<!DOCTYPE svg PUBLIC "-//W3C//DTD SVG 1.1//EN" "http://www.w3.org/Graphics/SVG/1.1/DTD/svg11.dtd">
<svg version="1.1" id="Capa_1" xmlns="http://www.w3.org/2000/svg" xmlns:xlink="http://www.w3.org/1999/xlink" x="0px" y="0px"
	 viewBox="0 0 56.233 56.233" style="enable-background:new 0 0 56.233 56.233;" xml:space="preserve">
<path d="M47.64,45.551L36.585,32.038l7.324-9.493c0.027-0.036,0.053-0.073,0.075-0.113c3.321-5.779-4.146-18.572-5.01-20.012
	c-0.001-0.002-0.002-0.003-0.003-0.004c-0.056-0.093-0.127-0.177-0.211-0.247c-0.028-0.024-0.063-0.036-0.094-0.057
	c-0.057-0.038-0.112-0.081-0.178-0.107c-0.002-0.001-0.005-0.002-0.008-0.003c-0.001,0-0.002-0.001-0.003-0.001
	c-6.681-2.669-14.039-2.669-20.72,0c-0.002,0.001-0.003,0.001-0.005,0.002c-0.002,0.001-0.004,0.002-0.006,0.002
	c-0.054,0.022-0.098,0.058-0.146,0.088c-0.042,0.026-0.088,0.044-0.127,0.076c-0.083,0.07-0.154,0.154-0.21,0.246
	c-0.001,0.002-0.003,0.003-0.004,0.005c-0.863,1.44-8.331,14.233-5.01,20.012c0.022,0.04,0.048,0.077,0.075,0.113l7.323,9.493
	L8.593,45.551c-1.604,1.959-1.377,4.811,0.516,6.493l3.376,3.001c0.862,0.767,1.982,1.188,3.129,1.188
	c0.145,0,0.29-0.007,0.435-0.021c1.294-0.122,2.49-0.781,3.284-1.81l8.784-11.386L36.9,54.403c0.794,1.028,1.99,1.688,3.284,1.81
	c0.145,0.014,0.29,0.021,0.435,0.021c1.146,0,2.267-0.422,3.129-1.188l3.376-3.001C49.016,50.361,49.243,47.51,47.64,45.551z
	 M22.975,15.404c3.325-1.178,6.957-1.178,10.283,0l-5.141,6.284L22.975,15.404z M42.281,21.381l-6.997,9.068l-5.875-7.181
	l5.484-6.703c0.156-0.192,3.25-4.072,4.052-10.025C41.266,11.149,44.048,18.17,42.281,21.381z M37.058,3.599l-0.331,3.966
	c-0.007,0.036-0.014,0.073-0.021,0.109c-0.05,0.236-0.105,0.466-0.162,0.693c-0.03,0.119-0.059,0.238-0.091,0.354
	c-0.053,0.199-0.109,0.393-0.167,0.584c-0.045,0.147-0.09,0.292-0.137,0.435c-0.05,0.153-0.1,0.305-0.151,0.452
	c-0.069,0.195-0.139,0.385-0.21,0.57c-0.033,0.087-0.066,0.177-0.1,0.263c-0.429,1.071-0.887,1.961-1.286,2.653
	c-4.039-1.565-8.531-1.566-12.572,0c-0.406-0.704-0.873-1.614-1.308-2.708c-0.021-0.053-0.042-0.109-0.063-0.164
	c-0.084-0.216-0.166-0.44-0.246-0.67c-0.041-0.118-0.081-0.239-0.121-0.361c-0.057-0.172-0.111-0.349-0.165-0.528
	c-0.049-0.164-0.097-0.331-0.143-0.501c-0.04-0.145-0.076-0.295-0.113-0.444c-0.049-0.201-0.098-0.402-0.142-0.609
	c-0.01-0.044-0.017-0.091-0.026-0.136l-0.329-3.959C24.97,1.468,31.263,1.468,37.058,3.599z M17.749,53.181
	c-0.463,0.6-1.133,0.969-1.887,1.04c-0.754,0.072-1.482-0.167-2.049-0.671l-3.376-3.001c-1.087-0.966-1.218-2.605-0.296-3.731
	l10.761-13.153l2.085,2.702l3.867,5.013L17.749,53.181z M45.796,50.548L42.42,53.55c-0.566,0.504-1.296,0.744-2.049,0.671
	c-0.754-0.071-1.424-0.44-1.887-1.04l-9.575-12.412l0,0l-7.191-9.322v0l-7.765-10.065c-1.766-3.208,1.016-10.229,3.336-14.839
	c0.802,5.952,3.896,9.832,4.052,10.023c0.001,0.001,0.002,0.002,0.002,0.003l6,7.333c0,0,0,0.001,0,0.001l7.19,8.789
	c0.001,0.001,0.002,0.001,0.003,0.002l11.557,14.125C47.013,47.943,46.882,49.582,45.796,50.548z"/>
<g>
</g>
<g>
</g>
<g>
</g>
<g>
</g>
<g>
</g>
<g>
</g>
<g>
</g>
<g>
</g>
<g>
</g>
<g>
</g>
<g>
</g>
<g>
</g>
<g>
</g>
<g>
</g>
<g>
</g>
</svg>
