<?xml version="1.0" ?><svg viewBox="0 0 64 64" xmlns="http://www.w3.org/2000/svg"><title/><g data-name="12-Mask" id="_12-Mask"><path d="M26,41.63a12.515,12.515,0,0,1-4.22-3.46L22,38V30s3-1,10-1,10,1,10,1v8l.22.17A12.515,12.515,0,0,1,38,41.63a13.824,13.824,0,0,1-12,0Z" style="fill:#f5f5f5"/><ellipse cx="25" cy="25" rx="2" ry="3" style="fill:#5e3616"/><ellipse cx="39" cy="25" rx="2" ry="3" style="fill:#5e3616"/><path d="M35.99,12.02C35.69,12.43,30.78,19,24,19V13l-6,5v5H16a2.006,2.006,0,0,0-2,2v1a5.4,5.4,0,0,0,.99,2.99C14.69,28.87,10,26.84,10,22a10.8,10.8,0,0,1,4-8A8.613,8.613,0,0,1,6,9s8-1,12-3,6-5,14-5A11.785,11.785,0,0,1,42,6a4.333,4.333,0,0,1,4-2c3,0,8,2,8,8v8.6a3.989,3.989,0,0,1-.88,2.5L50,27l-.11.01A4.882,4.882,0,0,0,50,26V25a2.006,2.006,0,0,0-2-2H46V19c-5,0-5-8-5-8s-3,5-6,5Z" style="fill:#5e3616"/><path d="M48,23H46V19c-5,0-5-8-5-8s-3,5-6,5l.99-3.98C35.69,12.43,30.78,19,24,19V13l-6,5v5H16a2.006,2.006,0,0,0-2,2v1a5.4,5.4,0,0,0,.99,2.99L15,29a7.739,7.739,0,0,0,4,3,14.457,14.457,0,0,0,2.78,6.17L22,38V30s3-1,10-1,10,1,10,1v8l.22.17A14.457,14.457,0,0,0,45,32a7.411,7.411,0,0,0,4.89-4.99A4.882,4.882,0,0,0,50,26V25A2.006,2.006,0,0,0,48,23ZM25,28c-1.1,0-2-1.34-2-3s.9-3,2-3,2,1.34,2,3S26.1,28,25,28Zm14,0c-1.1,0-2-1.34-2-3s.9-3,2-3,2,1.34,2,3S40.1,28,39,28Z" style="fill:#f2c4b2"/><path d="M38,46.42a1.991,1.991,0,0,0,.92,1.68c-.39.52-2.47,2.9-6.92,2.9s-6.53-2.38-6.92-2.9A1.991,1.991,0,0,0,26,46.42V41.63a13.824,13.824,0,0,0,12,0Z" style="fill:#f2b59d"/><path d="M59,57.74V62H5V57.74A6.01,6.01,0,0,1,9.61,51.9l14.85-3.53a2.016,2.016,0,0,0,.62-.27c.39.52,2.47,2.9,6.92,2.9s6.53-2.38,6.92-2.9a2.016,2.016,0,0,0,.62.27L54.39,51.9A6.01,6.01,0,0,1,59,57.74Z" style="fill:#34c1ad"/><path d="M15,59.706a2.293,2.293,0,0,1,1.635-2.2l27.123-8.137-4.218-1a2.016,2.016,0,0,1-.62-.27c-.39.52-2.47,2.9-6.92,2.9s-6.53-2.38-6.92-2.9a2.016,2.016,0,0,1-.62.27L9.61,51.9A6.01,6.01,0,0,0,5,57.74V62H17.294A2.294,2.294,0,0,1,15,59.706Z" style="fill:#21abab"/><path d="M38,41.63a13.824,13.824,0,0,1-12,0v4.79a1.991,1.991,0,0,1-.92,1.68,7.107,7.107,0,0,0,2.264,1.81L38,43.25Z" style="fill:#ed9776"/><path d="M39.54,48.37a2.043,2.043,0,0,1-1.3-1c-.019.022-.044.037-.061.061s-.041.048-.06.073c-.192.256-1.992,2.5-6.12,2.5s-5.928-2.244-6.12-2.5c-.019-.025-.039-.049-.06-.073s-.042-.039-.061-.061a2.043,2.043,0,0,1-1.3,1l-.35.083a1.3,1.3,0,0,0,.207.3C24.821,49.4,27.142,52,32,52s7.179-2.6,7.683-3.25a1.3,1.3,0,0,0,.207-.3Z" style="fill:#e3e3e3"/><path d="M18,25H17a1,1,0,0,0-1,1v1c0,1.105.895,3,2,3h0Z" style="fill:#f2a283"/><path d="M46,25h1a1,1,0,0,1,1,1v1c0,1.105-.9,3-2,3h0Z" style="fill:#f2a283"/><path d="M14,14a10.8,10.8,0,0,0-4,8c0,4.84,4.69,6.87,4.99,6.99A5.4,5.4,0,0,1,14,26V25a2.006,2.006,0,0,1,2-2h2V18l-6,2A8.76,8.76,0,0,1,14,14Z" style="fill:#3b220e"/><path d="M46,19v4h2a2.006,2.006,0,0,1,2,2V21Z" style="fill:#3b220e"/><polygon points="24 13 18 18 18 19 18 20 24 15 24 13" style="fill:#d9896d"/><path d="M41,13s0,8,5,8V19c-5,0-5-8-5-8s-2.669,4.444-5.49,4.949L35,18C38,18,41,13,41,13Z" style="fill:#d9896d"/><path d="M35.271,14.91l.719-2.89C35.69,12.43,30.78,19,24,19v2C29.424,21,33.644,16.8,35.271,14.91Z" style="fill:#d9896d"/><path d="M33,29.009V29c0-1.105-.448-2-1-2s-1,.895-1,2v.009c.327,0,.655-.009,1-.009S32.673,29,33,29.009Z" style="fill:#d9896d"/><path d="M32,41a10.031,10.031,0,0,1-2.146-.215A4.959,4.959,0,0,1,26,35.914V29.292A21.656,21.656,0,0,0,22,30v8l-.22.17A12.515,12.515,0,0,0,26,41.63a13.824,13.824,0,0,0,12,0,12.515,12.515,0,0,0,4.22-3.46L42,38S37,41,32,41Z" style="fill:#d4d4d4"/><path d="M25,34.5a.5.5,0,0,1-.158-.974,25.482,25.482,0,0,1,14.316,0,.5.5,0,1,1-.316.949,24.506,24.506,0,0,0-13.684,0A.484.484,0,0,1,25,34.5Z" style="fill:#d4d4d4"/><path d="M25,38.5a.5.5,0,0,1-.158-.974,25.482,25.482,0,0,1,14.316,0,.5.5,0,1,1-.316.949,24.506,24.506,0,0,0-13.684,0A.484.484,0,0,1,25,38.5Z" style="fill:#d4d4d4"/><path d="M55,42H53V40a1,1,0,0,0-2,0v2H49a1,1,0,0,0,0,2h2v2a1,1,0,0,0,2,0V44h2a1,1,0,0,0,0-2Z" style="fill:#34c1ad"/><path d="M15,34H13V32a1,1,0,0,0-2,0v2H9a1,1,0,0,0,0,2h2v2a1,1,0,0,0,2,0V36h2a1,1,0,0,0,0-2Z" style="fill:#34c1ad"/><path d="M46.248,22.566a.5.5,0,0,0-.683.186l-3.8,6.66A40.4,40.4,0,0,0,32,28.5a40.4,40.4,0,0,0-9.76.912l-3.8-6.66a.5.5,0,0,0-.87.5L21.5,30.134V38a.5.5,0,0,0,.5.5.386.386,0,0,0,.059-.012c-.091-.108-.191-.207-.279-.318L22,38V30s3-1,10-1,10,1,10,1v8l.22.17c-.088.111-.188.21-.279.318A.386.386,0,0,0,42,38.5a.5.5,0,0,0,.5-.5V30.134l3.935-6.886A.5.5,0,0,0,46.248,22.566Z" style="fill:#bfbfbf"/><path d="M23.094,21.481c-.021.006-.041.011-.062.015-.3.054-.53-.423-.53-.746,0-.091.034-2.25,3-2.25s3,2.159,3,2.25a.79.79,0,0,1-.337.675c-.219.133-.43.009-.6-.2-.083-.1-.147-.228-.236-.324a1.108,1.108,0,0,0-.3-.213,4.422,4.422,0,0,0-.828-.377,2.394,2.394,0,0,0-2.229.491A3.18,3.18,0,0,1,23.094,21.481Z" style="fill:#3b220e"/><path d="M40.908,21.481c.021.006.041.011.062.015.3.054.53-.423.53-.746,0-.091-.034-2.25-3-2.25s-3,2.159-3,2.25a.79.79,0,0,0,.337.675c.218.133.43.009.6-.2.083-.1.147-.228.235-.324a1.124,1.124,0,0,1,.3-.213,4.459,4.459,0,0,1,.829-.377,2.394,2.394,0,0,1,2.229.491A3.166,3.166,0,0,0,40.908,21.481Z" style="fill:#3b220e"/></g></svg>