<?xml version="1.0" ?><svg id="_x31_-outline-expand" style="enable-background:new 0 0 64 64;" version="1.1" viewBox="0 0 64 64" xml:space="preserve" xmlns="http://www.w3.org/2000/svg" xmlns:xlink="http://www.w3.org/1999/xlink"><rect height="60" style="fill:#F2DAAE;" width="30" x="17" y="2"/><rect height="41" style="fill:#E0C494;" width="15" x="47" y="21"/><rect height="6" style="fill:#EF941D;" width="6" x="51" y="25"/><rect height="6" style="fill:#EF941D;" width="6" x="51" y="35"/><rect height="6" style="fill:#EF941D;" width="6" x="51" y="45"/><rect height="41" style="fill:#E0C494;" width="15" x="2" y="21"/><rect height="6" style="fill:#EF941D;" width="6" x="7" y="25"/><rect height="4" style="fill:#EFBC2E;" width="4" x="21" y="23"/><rect height="4" style="fill:#EFBC2E;" width="4" x="30" y="23"/><rect height="4" style="fill:#EFBC2E;" width="4" x="39" y="23"/><rect height="4" style="fill:#EFBC2E;" width="4" x="21" y="31"/><rect height="4" style="fill:#EFBC2E;" width="4" x="30" y="31"/><rect height="4" style="fill:#EFBC2E;" width="4" x="39" y="31"/><rect height="4" style="fill:#EFBC2E;" width="4" x="21" y="39"/><rect height="4" style="fill:#EFBC2E;" width="4" x="30" y="39"/><rect height="4" style="fill:#EFBC2E;" width="4" x="39" y="39"/><rect height="6" style="fill:#EF941D;" width="6" x="7" y="35"/><rect height="6" style="fill:#EF941D;" width="6" x="7" y="45"/><polygon points="38,11 34,11 34,7 30,7 30,11 26,11 26,15 30,15 30,19 34,19 34,15 38,15 " style="fill:#42A5B2;"/><rect height="13" style="fill:#3A4249;" width="8" x="28" y="49"/><rect height="2" style="fill:#3A4249;" width="14" x="25" y="48"/><rect height="2" style="fill:#3A4249;" width="2" x="42" y="56"/><rect height="2" style="fill:#3A4249;" width="2" x="42" y="52"/><rect height="2" style="fill:#3A4249;" width="2" x="42" y="48"/></svg>