<?xml version="1.0" ?><svg viewBox="0 0 64 64" xmlns="http://www.w3.org/2000/svg"><title/><g data-name="23-Home" id="_23-Home"><path d="M38,41.5V47a2.035,2.035,0,0,1-2,2v6.8A3.043,3.043,0,0,1,33.2,58H30.8A3.043,3.043,0,0,1,28,55.8V49a2.035,2.035,0,0,1-2-2V41.5A5.767,5.767,0,0,1,32,36,5.767,5.767,0,0,1,38,41.5Z" style="fill:#f5f5f5"/><circle cx="32" cy="30" r="4" style="fill:#f5f5f5"/><path d="M38,41.5A5.767,5.767,0,0,0,32,36a5.767,5.767,0,0,0-6,5.5V47a2.035,2.035,0,0,0,2,2v6.8A3.043,3.043,0,0,0,30.8,58h2.4A3.043,3.043,0,0,0,36,55.8V49a2.035,2.035,0,0,0,2-2ZM32,34a4,4,0,1,0-4-4A4,4,0,0,0,32,34ZM61,20v3H53V63H11V23H3V20L31.94,1Z" style="fill:#34c1ad"/><path d="M32,35a6.772,6.772,0,0,0-7,6.5V47a3.01,3.01,0,0,0,2,2.814V55.96l.05.151A4.033,4.033,0,0,0,30.8,59h2.4a4.033,4.033,0,0,0,3.75-2.889l.05-6.3A3.01,3.01,0,0,0,39,47V41.5A6.772,6.772,0,0,0,32,35Zm6,12a2.035,2.035,0,0,1-2,2v6.8A3.043,3.043,0,0,1,33.2,58H30.8A3.043,3.043,0,0,1,28,55.8V49a2.035,2.035,0,0,1-2-2V41.5A5.767,5.767,0,0,1,32,36a5.767,5.767,0,0,1,6,5.5Z" style="fill:#107c82"/><path d="M37,30a5,5,0,1,0-5,5A5.006,5.006,0,0,0,37,30Zm-5,4a4,4,0,1,1,4-4A4,4,0,0,1,32,34Z" style="fill:#107c82"/><polygon points="3 23 11 23 53 23 61 23 61 20 3 20 3 23" style="fill:#13969d"/><polygon points="3 20 61 20 31.94 1 3 20" style="fill:#21abab"/></g></svg>