<svg height="477pt" viewBox="-2 0 477 477.6" width="477pt" xmlns="http://www.w3.org/2000/svg"><path d="m64.300781 149.601562c-35.199219 0-64 10.398438-64 24v280c0 13.597657 28.800781 24 64 24s64-10.402343 64-24v-280c0-13.601562-28.800781-24-64-24zm0 0" fill="#f4a422"/><path d="m296.300781 253.601562c0-13.601562-28.800781-24-64-24s-64 10.398438-64 24v200c0 13.597657 28.800781 24 64 24s64-10.402343 64-24zm0 0" fill="#f4a422"/><path d="m296.300781 253.601562c0-13.257812-28.65625-24-64-24-35.347656 0-64 10.742188-64 24 0 13.253907 28.652344 24 64 24 35.34375 0 64-10.746093 64-24zm0 0" fill="#f4c167"/><path d="m472.300781 229.601562h-56v-16h40v-40h16zm0 0" fill="#5b4349"/><path d="m458.699219 227.199219-154.398438-154.398438-64 64-125.601562-125.601562 11.199219-11.199219 114.402343 114.398438 64-64 165.597657 165.601562zm0 0" fill="#5b4349"/><g fill="#e8821c"><path d="m64.300781 317.601562c-35.199219 0-64-10.402343-64-24v40c0 13.597657 28.800781 24 64 24s64-10.402343 64-24v-40c0 13.597657-28.800781 24-64 24zm0 0"/><path d="m64.300781 397.601562c-35.199219 0-64-10.402343-64-24v40c0 13.597657 28.800781 24 64 24s64-10.402343 64-24v-40c0 13.597657-28.800781 24-64 24zm0 0"/><path d="m64.300781 237.601562c-35.199219 0-64-10.402343-64-24v40c0 13.597657 28.800781 24 64 24s64-10.402343 64-24v-40c0 13.597657-28.800781 24-64 24zm0 0"/><path d="m232.300781 397.601562c-35.199219 0-64-10.402343-64-24v40c0 13.597657 28.800781 24 64 24s64-10.402343 64-24v-40c0 13.597657-28.800781 24-64 24zm0 0"/><path d="m232.300781 317.601562c-35.199219 0-64-10.402343-64-24v40c0 13.597657 28.800781 24 64 24s64-10.402343 64-24v-40c0 13.597657-28.800781 24-64 24zm0 0"/></g><path d="m464.300781 453.601562c0 13.597657-28.800781 24-64 24s-64-10.402343-64-24v-160c0-13.601562 28.800781-24 64-24s64 10.398438 64 24zm0 0" fill="#f4a422"/><path d="m400.300781 357.601562c-35.199219 0-64-10.402343-64-24v40c0 13.597657 28.800781 24 64 24s64-10.402343 64-24v-40c0 13.597657-28.800781 24-64 24zm0 0" fill="#e8821c"/><path d="m386.699219 219.199219-82.398438-82.398438-64 64-53.601562-53.601562 11.199219-11.199219 42.402343 42.398438 64-64 93.597657 93.601562zm0 0" fill="#5b4349"/><path d="m146.761719 107.378906 11.3125-11.3125 23.757812 23.757813-11.3125 11.3125zm0 0" fill="#5b4349"/><path d="m464.300781 293.601562c0-13.257812-28.65625-24-64-24-35.347656 0-64 10.742188-64 24 0 13.253907 28.652344 24 64 24 35.34375 0 64-10.746093 64-24zm0 0" fill="#f4c167"/><path d="m400.300781 437.601562c-35.199219 0-64-10.402343-64-24v40c0 13.597657 28.800781 24 64 24s64-10.402343 64-24v-40c0 13.597657-28.800781 24-64 24zm0 0" fill="#e8821c"/><path d="m128.300781 173.601562c0-13.257812-28.65625-24-64-24-35.347656 0-64 10.742188-64 24 0 13.253907 28.652344 24 64 24 35.34375 0 64-10.746093 64-24zm0 0" fill="#f4c167"/><path d="m128.300781 101.601562c0 35.34375-28.65625 64-64 64-35.347656 0-64-28.65625-64-64 0-35.347656 28.652344-64 64-64 35.34375 0 64 28.652344 64 64zm0 0" fill="#f4a422"/></svg>