<?xml version="1.0" ?><svg id="_x31_-outline-expand" style="enable-background:new 0 0 64 64;" version="1.1" viewBox="0 0 64 64" xml:space="preserve" xmlns="http://www.w3.org/2000/svg" xmlns:xlink="http://www.w3.org/1999/xlink"><path d="M17,20c0-2.762-2.238-5-5-5c-2.762,0-5,2.238-5,5c0,2.762,2.238,5,5,5C14.762,25,17,22.762,17,20  L17,20z" style="fill:#62C4C3;"/><path d="M17,25H7c-2.209,0-4,1.791-4,4v7h4v13h10V36h4v-7C21,26.791,19.209,25,17,25L17,25z" style="fill:#62C4C3;"/><path d="M57,20c0-2.762-2.238-5-5-5c-2.762,0-5,2.238-5,5c0,2.762,2.238,5,5,5C54.762,25,57,22.762,57,20  L57,20z" style="fill:#D36767;"/><path d="M57,25H47c-2.209,0-4,1.791-4,4v7h4v13h10V36h4v-7C61,26.791,59.209,25,57,25L57,25z" style="fill:#D36767;"/><path d="M53,10.999h-2v-4c0-1.654-1.346-3-3-3H25v-2h23c2.757,0,5,2.243,5,5V10.999z" style="fill:#EFBC2E;"/><path d="M13,11.999h-2v-5c0-2.757,2.243-5,5-5h7v2h-7c-1.654,0-3,1.346-3,3V11.999z" style="fill:#EFBC2E;"/><polygon points="52,12.413 47.293,7.706 48.707,6.292 52,9.585 55.293,6.292 56.707,7.706 " style="fill:#EFBC2E;"/><path d="M35,61.999H16c-2.757,0-5-2.243-5-5v-4h2v4c0,1.654,1.346,3,3,3h19V61.999z" style="fill:#EFBC2E;"/><rect height="2" style="fill:#EFBC2E;" width="2" x="37" y="59.999"/><path d="M48,61.999h-7v-2h7c1.654,0,3-1.346,3-3v-5h2v5C53,59.756,50.757,61.999,48,61.999z" style="fill:#EFBC2E;"/><polygon points="15.293,57.706 12,54.413 8.707,57.706 7.293,56.292 12,51.585 16.707,56.292 " style="fill:#EFBC2E;"/><rect height="13" style="fill:#42A5B2;" width="2" x="11" y="36"/><rect height="7" style="fill:#42A5B2;" width="2" x="5" y="29"/><rect height="7" style="fill:#42A5B2;" width="2" x="17" y="29"/><rect height="13" style="fill:#AA494A;" width="2" x="51" y="36"/><rect height="7" style="fill:#AA494A;" width="2" x="45" y="29"/><rect height="7" style="fill:#AA494A;" width="2" x="57" y="29"/></svg>