<?xml version="1.0" ?><svg id="Layer_1" style="enable-background:new 0 0 128 128;" version="1.1" viewBox="0 0 128 128" xml:space="preserve" xmlns="http://www.w3.org/2000/svg" xmlns:xlink="http://www.w3.org/1999/xlink"><style type="text/css">
	.st0{fill:#F7F7EB;}
	.st1{fill:#FFC298;}
	.st2{fill:#E1927A;}
	.st3{fill:#DC5240;}
	.st4{fill:#892E1D;}
	.st5{fill:#AA4628;}
	.st6{fill:#6F1E14;}
	.st7{fill:#2C0412;}
	.st8{fill:#A4D877;}
	.st9{fill:#2AC06F;}
	.st10{fill:#F54045;}
	.st11{fill:#A91B35;}
	.st12{fill:#4d91bb;}
	.st13{fill:#BDE5EC;}
	.st14{fill:#172A91;}
	.st15{fill:#F9A73D;}
	.st16{fill:#D25C2B;}
	.st17{fill:#812F4B;}
	.st18{fill:#3B0B1B;}
	.st19{fill:#FA9A31;}
	.st20{fill:#DC5F36;}
	.st21{fill:#BEECBD;}
	.st22{fill:#26E490;}
	.st23{fill:#10916A;}
	.st24{fill:#ECC6C3;}
	.st25{fill:#E44450;}
	.st26{fill:none;stroke:#E44450;stroke-width:2;stroke-linecap:round;stroke-miterlimit:10;}
	.st27{fill:url(#SVGID_1_);}
	.st28{fill:none;stroke:#BDE5EC;stroke-width:14;stroke-linecap:round;stroke-linejoin:round;stroke-miterlimit:10;}
	.st29{fill:none;stroke:#FFFFFF;stroke-width:6;stroke-linecap:round;stroke-miterlimit:10;}
	.st30{fill:none;stroke:#E44450;stroke-width:6;stroke-miterlimit:10;}
	.st31{fill:url(#SVGID_2_);}
	.st32{fill:none;stroke:#E44450;stroke-width:4;stroke-miterlimit:10;stroke-dasharray:6,4;}
	.st33{fill:none;stroke:#BDE5EC;stroke-width:4;stroke-miterlimit:10;}
	.st34{opacity:0.5;}
	.st35{fill:none;stroke:#E1927A;stroke-width:10;stroke-linecap:round;stroke-miterlimit:10;}
	.st36{fill:none;stroke:#FFFFFF;stroke-width:2;stroke-linecap:round;stroke-miterlimit:10;}
	.st37{fill:#FFFFFF;}
	.st38{fill:#C1705D;}
	.st39{fill:none;stroke:#E1927A;stroke-width:2.8371;stroke-linecap:round;stroke-miterlimit:10;}
	.st40{fill:none;stroke:#ECC6C3;stroke-width:4;stroke-linecap:round;stroke-miterlimit:10;}
	.st41{fill:none;}
	.st42{fill:url(#SVGID_3_);}
	.st43{fill:none;stroke:#E44450;stroke-width:8;stroke-miterlimit:10;}
	.st44{fill:none;stroke:#BDE5EC;stroke-width:8;stroke-miterlimit:10;}
	.st45{fill:none;stroke:#FFFFFF;stroke-width:4;stroke-miterlimit:10;}
	.st46{fill:none;stroke:#BDE5EC;stroke-width:3;stroke-linecap:square;stroke-miterlimit:10;}
	.st47{fill:none;stroke:#FFFFFF;stroke-width:3;stroke-linecap:square;stroke-miterlimit:10;}
	.st48{fill:none;stroke:#E1927A;stroke-width:2.2567;stroke-linecap:round;stroke-miterlimit:10;}
	.st49{fill:none;stroke:#BDE5EC;stroke-width:6;stroke-miterlimit:10;}
</style><g><path class="st12" d="M106,128H38V41h80v75C118,122.6,112.6,128,106,128z"/><path class="st13" d="M106,128H26c-6.6,0-12-5.4-12-12V15h80v101C94,122.6,99.4,128,106,128L106,128z"/><g><circle class="st25" cx="41.2" cy="66.6" r="10"/><circle class="st37" cx="38.6" cy="63.5" r="1.6"/><circle class="st37" cx="36.9" cy="70.1" r="1.6"/><g><polygon class="st25" points="42.8,55 42.2,58.6 42.1,59.7 40.3,59.7 40.1,58.6 39.5,55 39.3,53.4 43.1,53.4    "/></g><ellipse class="st25" cx="41.2" cy="53.5" rx="2.7" ry="1"/><g><polygon class="st25" points="39.5,78.5 40.1,74.9 40.3,73.8 42.1,73.8 42.2,74.9 42.8,78.5 43.1,80.1 39.3,80.1    "/></g><ellipse class="st25" cx="41.2" cy="80" rx="2.7" ry="1"/><g><polygon class="st25" points="52.9,68.4 49.3,67.8 48.3,67.7 48.3,65.8 49.3,65.7 52.9,65.1 54.5,64.8 54.5,68.7    "/></g><ellipse class="st25" cx="54.4" cy="66.8" rx="1" ry="2.7"/><g><polygon class="st25" points="29.4,65.1 33,65.7 34.1,65.8 34.1,67.7 33,67.8 29.4,68.4 27.8,68.7 27.8,64.8    "/></g><ellipse class="st25" cx="28" cy="66.8" rx="1" ry="2.7"/><g><polygon class="st25" points="50.6,59.6 47.7,61.7 46.8,62.4 45.5,61.1 46.2,60.2 48.3,57.3 49.3,55.9 52,58.6    "/></g><ellipse class="st25" cx="50.5" cy="57.4" rx="1" ry="2.7" transform="matrix(0.7071 -0.7071 0.7071 0.7071 -25.8072 52.5232)"/><g><polygon class="st25" points="31.7,73.9 34.6,71.8 35.5,71.1 36.8,72.4 36.1,73.3 34,76.2 33,77.6 30.4,74.9    "/></g><ellipse class="st25" cx="31.8" cy="76.1" rx="1" ry="2.7" transform="matrix(0.7071 -0.7071 0.7071 0.7071 -44.4839 44.787)"/><g><polygon class="st25" points="48.3,76.2 46.2,73.3 45.5,72.4 46.8,71.1 47.7,71.8 50.6,73.9 52,74.9 49.3,77.6    "/></g><ellipse class="st25" cx="50.5" cy="76.1" rx="2.7" ry="1" transform="matrix(0.7071 -0.7071 0.7071 0.7071 -39.0136 57.9934)"/><g><polygon class="st25" points="34,57.3 36.1,60.2 36.8,61.1 35.5,62.4 34.6,61.7 31.7,59.6 30.4,58.6 33,55.9    "/></g><ellipse class="st25" cx="31.8" cy="57.4" rx="2.7" ry="1" transform="matrix(0.7071 -0.7071 0.7071 0.7071 -31.2775 39.3167)"/><circle class="st24" cx="45.1" cy="66.8" r="3.3"/></g><rect class="st37" height="16" width="52" x="27" y="29"/><line class="st45" x1="62" x2="79" y1="56" y2="56"/><line class="st45" x1="62" x2="79" y1="67" y2="67"/><line class="st45" x1="62" x2="79" y1="78" y2="78"/><line class="st45" x1="27" x2="79" y1="88" y2="88"/><line class="st45" x1="27" x2="79" y1="98" y2="98"/><line class="st45" x1="27" x2="44" y1="108" y2="108"/><rect class="st41" height="128" width="128"/></g></svg>