<svg id="Capa_1" enable-background="new 0 0 512 512" height="512" viewBox="0 0 512 512" width="512" xmlns="http://www.w3.org/2000/svg"><g><g><g><g><g><g><circle cx="256" cy="256" fill="#bfe1ff" r="256"/></g></g></g></g></g><path d="m512 256c0-5.02-.145-10.006-.43-14.955l-82.73-82.73-343.222 198.013 155.615 155.253c4.887.278 9.811.419 14.767.419 141.385 0 256-114.615 256-256z" fill="#87c7ff"/><g><path d="m406.66 364.92c-100.44 5.79-200.88 5.79-301.32 0-14.819-.854-27.004-12.09-29.029-26.795-7.539-54.75-7.539-109.5 0-164.25 2.025-14.705 14.21-25.94 29.029-26.795 100.44-5.79 200.88-5.79 301.32 0 14.819.854 27.004 12.09 29.029 26.795 7.539 54.75 7.539 109.5 0 164.25-2.025 14.705-14.21 25.941-29.029 26.795z" fill="#ff6c52"/></g><g><path d="m435.688 173.875c-2.025-14.705-14.21-25.94-29.029-26.795-50.18-2.893-100.36-4.34-150.539-4.342v226.524c50.18-.002 100.36-1.449 150.539-4.342 14.819-.854 27.004-12.09 29.029-26.795 7.539-54.75 7.539-109.5 0-164.25z" fill="#ff432e"/></g><g><path d="m216.786 184.202 114.99 71.798-114.99 71.798z" fill="#fff"/></g><path d="m256.12 303.238 75.656-47.238-75.656-47.238z" fill="#e9edf5"/></g></svg>