<?xml version="1.0" encoding="iso-8859-1"?>
<!-- Generator: Adobe Illustrator 19.0.0, SVG Export Plug-In . SVG Version: 6.00 Build 0)  -->
<svg version="1.1" id="Layer_1" xmlns="http://www.w3.org/2000/svg" xmlns:xlink="http://www.w3.org/1999/xlink" x="0px" y="0px"
	 viewBox="0 0 512 512" style="enable-background:new 0 0 512 512;" xml:space="preserve">
<circle style="fill:#78BAEB;" cx="256" cy="256" r="256"/>
<path style="fill:#59AAE7;" d="M256,0c-11.317,0-22.461,0.744-33.391,2.167C348.216,18.53,445.217,125.933,445.217,256
	s-97.002,237.47-222.609,253.833C233.539,511.256,244.683,512,256,512c141.385,0,256-114.616,256-256S397.385,0,256,0z"/>
<path style="fill:#FCFCFC;" d="M206.186,401.252c-23.512,0-46.553-4.23-68.483-12.57l-21.732-8.265
	c-2.377-0.904-2.048-4.365,0.457-4.805l22.901-4.021c21.217-3.726,41.281-12.365,58.477-25.121c1.814-1.346,1.083-4.177-1.152-4.506
	c-20.024-2.937-38.002-15.046-48.089-32.814l-5.141-9.056c-0.922-1.623,0.194-3.647,2.057-3.736l10.401-0.498
	c0.035-0.001,0.069-0.003,0.105-0.006c2.612-0.129,3.236-3.685,0.861-4.784c-19.054-8.82-32.857-26.533-36.403-47.743l-1.585-9.48
	c-0.295-1.763,1.3-3.258,3.04-2.851l9.358,2.193c4.981,1.166,10.13,1.759,15.305,1.759c0.061,0,0.122,0,0.184,0
	c-19.956-12.782-31.811-34.384-31.811-58.161c0-5.914,0.742-11.764,2.207-17.388l2.798-10.746c0.486-1.867,2.812-2.505,4.183-1.15
	l7.897,7.808c20.856,20.622,46.465,36.497,74.064,45.911c7.307,2.317,29.468,8.604,37.141,8.635l0.189,0.002
	c0.027,0,2.241,0.08,3.678,0.147c-0.009-0.404-0.016-0.808-0.016-1.213c0-41.788,33.997-75.785,75.785-75.785
	c19.954,0,38.688,7.644,52.929,21.562c0.563,0.55,1.346,0.818,2.124,0.7c7.323-1.111,14.609-2.864,21.616-5.211l23.364-7.828
	c2.448-0.82,4.384,2.153,2.646,4.06l-16.6,18.209c-2.212,2.426-4.588,4.684-7.113,6.761c-2.001,1.645-0.513,4.88,2.032,4.402
	c2.263-0.424,4.512-0.904,6.738-1.438l21.432-5.142c2.438-0.584,4.126,2.377,2.381,4.177l-15.343,15.822
	c-6.212,6.406-13.099,12.285-20.473,17.476l0.012,0.362c0.022,0.622,0.041,1.245,0.041,1.873v0.755
	C398.215,315.27,311.876,401.252,206.186,401.252z"/>
<g>
</g>
<g>
</g>
<g>
</g>
<g>
</g>
<g>
</g>
<g>
</g>
<g>
</g>
<g>
</g>
<g>
</g>
<g>
</g>
<g>
</g>
<g>
</g>
<g>
</g>
<g>
</g>
<g>
</g>
</svg>
