<?xml version="1.0" ?><svg viewBox="0 0 64 64" xmlns="http://www.w3.org/2000/svg"><title/><g data-name="02-Virus" id="_02-Virus"><circle cx="42" cy="39" r="2" style="fill:#107c82"/><circle cx="40" cy="46" r="2" style="fill:#107c82"/><circle cx="48" cy="47" r="3" style="fill:#107c82"/><path d="M8.86,7.65a17.568,17.568,0,0,0,4.37,2.89,11.581,11.581,0,0,1,4.68-1.99A30.207,30.207,0,0,0,19,4.06V2a1,1,0,0,1,2,0V4.06a30.207,30.207,0,0,0,1.09,4.49,11.581,11.581,0,0,1,4.68,1.99,17.568,17.568,0,0,0,4.37-2.89l1.12-1.12V6.52A1.84,1.84,0,1,1,34.1,8.35h-.02L32.96,9.47a18.2,18.2,0,0,0-2.98,4.56,11.6,11.6,0,0,1,1.47,3.88A30.207,30.207,0,0,0,35.94,19H38a1,1,0,0,1,0,2H35.94a30.207,30.207,0,0,0-4.49,1.09,11.6,11.6,0,0,1-1.47,3.88,18.2,18.2,0,0,0,2.98,4.56l1.12,1.12h.02a1.835,1.835,0,1,1-1.84,1.83v-.01l-1.12-1.12a17.568,17.568,0,0,0-4.37-2.89,11.581,11.581,0,0,1-4.68,1.99A30.207,30.207,0,0,0,21,35.94V38a1,1,0,0,1-2,0V35.94a30.207,30.207,0,0,0-1.09-4.49,11.581,11.581,0,0,1-4.68-1.99,17.568,17.568,0,0,0-4.37,2.89L7.74,33.47v.01A1.84,1.84,0,1,1,5.9,31.65h.02l1.12-1.12a18.2,18.2,0,0,0,2.98-4.56,11.6,11.6,0,0,1-1.47-3.88A30.207,30.207,0,0,0,4.06,21H2a1,1,0,0,1,0-2H4.06a30.207,30.207,0,0,0,4.49-1.09,11.6,11.6,0,0,1,1.47-3.88A18.2,18.2,0,0,0,7.04,9.47L5.92,8.35H5.9A1.835,1.835,0,1,1,7.74,6.52v.01Z" style="fill:#21abab"/><path d="M41.91,32.55A30.207,30.207,0,0,0,43,28.06V26a1,1,0,0,1,2,0v2.06a30.207,30.207,0,0,0,1.09,4.49,11.581,11.581,0,0,1,4.68,1.99,17.568,17.568,0,0,0,4.37-2.89l1.12-1.12v-.01a1.84,1.84,0,1,1,1.84,1.83h-.02l-1.12,1.12a18.2,18.2,0,0,0-2.98,4.56,11.6,11.6,0,0,1,1.47,3.88A30.207,30.207,0,0,0,59.94,43H62a1,1,0,0,1,0,2H59.94a30.207,30.207,0,0,0-4.49,1.09,11.6,11.6,0,0,1-1.47,3.88,18.2,18.2,0,0,0,2.98,4.56l1.12,1.12h.02a1.835,1.835,0,1,1-1.84,1.83v-.01l-1.12-1.12a17.568,17.568,0,0,0-4.37-2.89,11.581,11.581,0,0,1-4.68,1.99A30.207,30.207,0,0,0,45,59.94V62a1,1,0,0,1-2,0V59.94a30.207,30.207,0,0,0-1.09-4.49,11.581,11.581,0,0,1-4.68-1.99,17.568,17.568,0,0,0-4.37,2.89l-1.12,1.12v.01a1.84,1.84,0,1,1-1.84-1.83h.02l1.12-1.12a18.2,18.2,0,0,0,2.98-4.56,11.6,11.6,0,0,1-1.47-3.88A30.207,30.207,0,0,0,28.06,45H26a1,1,0,0,1,0-2h2.06a30.207,30.207,0,0,0,4.49-1.09,11.6,11.6,0,0,1,1.47-3.88,18.2,18.2,0,0,0-2.98-4.56l-1.12-1.12H29.9a1.839,1.839,0,0,1-1.84-1.83,1.5,1.5,0,0,1,.04-.37,1.839,1.839,0,0,1,3.64.37v.01l1.12,1.12a17.568,17.568,0,0,0,4.37,2.89A11.581,11.581,0,0,1,41.91,32.55ZM51,47a3,3,0,1,0-3,3A3,3,0,0,0,51,47Zm-7-8a2,2,0,1,0-2,2A2.006,2.006,0,0,0,44,39Zm-2,7a2,2,0,1,0-2,2A2.006,2.006,0,0,0,42,46Z" style="fill:#34c1ad"/><circle cx="24" cy="23" r="3" style="fill:#107c82"/><circle cx="18" cy="15" r="2" style="fill:#107c82"/><circle cx="16" cy="22" r="2" style="fill:#107c82"/><path d="M44,34A10,10,0,1,0,54,44,10,10,0,0,0,44,34ZM40,48a2,2,0,1,1,2-2A2.006,2.006,0,0,1,40,48Zm2-7a2,2,0,1,1,2-2A2.006,2.006,0,0,1,42,41Zm6,9a3,3,0,1,1,3-3A3,3,0,0,1,48,50Z" style="fill:#21abab"/><path d="M20,10A10,10,0,1,0,30,20,10,10,0,0,0,20,10ZM16,24a2,2,0,1,1,2-2A2.006,2.006,0,0,1,16,24Zm2-7a2,2,0,1,1,2-2A2.006,2.006,0,0,1,18,17Zm6,9a3,3,0,1,1,3-3A3,3,0,0,1,24,26Z" style="fill:#13969d"/><path d="M48,43a4,4,0,1,0,4,4A4,4,0,0,0,48,43Zm0,7a3,3,0,1,1,3-3A3,3,0,0,1,48,50Z" style="fill:#13969d"/><path d="M24,19a4,4,0,1,0,4,4A4,4,0,0,0,24,19Zm0,7a3,3,0,1,1,3-3A3,3,0,0,1,24,26Z" style="fill:#21abab"/><path d="M42,36a3,3,0,1,0,3,3A3,3,0,0,0,42,36Zm0,5a2,2,0,1,1,2-2A2.006,2.006,0,0,1,42,41Z" style="fill:#13969d"/><path d="M16,19a3,3,0,1,0,3,3A3,3,0,0,0,16,19Zm0,5a2,2,0,1,1,2-2A2.006,2.006,0,0,1,16,24Z" style="fill:#21abab"/><path d="M18,12a3,3,0,1,0,3,3A3,3,0,0,0,18,12Zm0,5a2,2,0,1,1,2-2A2.006,2.006,0,0,1,18,17Z" style="fill:#21abab"/><path d="M40,43a3,3,0,1,0,3,3A3,3,0,0,0,40,43Zm0,5a2,2,0,1,1,2-2A2.006,2.006,0,0,1,40,48Z" style="fill:#13969d"/><circle cx="48" cy="40" r="1" style="fill:#13969d"/><circle cx="18" cy="27" r="1" style="fill:#21abab"/><circle cx="25" cy="16" r="1" style="fill:#21abab"/><circle cx="13" cy="18" r="1" style="fill:#21abab"/><circle cx="38" cy="41" r="1" style="fill:#13969d"/><circle cx="43" cy="51" r="1" style="fill:#13969d"/></g></svg>