<?xml version="1.0" ?><svg viewBox="0 0 64 64" xmlns="http://www.w3.org/2000/svg"><title/><g data-name="29-Doctor" id="_29-Doctor"><ellipse cx="27.5" cy="25" rx="1.5" ry="2" style="fill:#96e0ff"/><path d="M27.41,43.87a1.583,1.583,0,0,1,.21,2.14l-4.55,4.91L21,49l4.68-4.88a1.283,1.283,0,0,1,1-.48A1.217,1.217,0,0,1,27.41,43.87Z" style="fill:#34c1ad"/><path d="M26,42.47a1.487,1.487,0,0,1-.34.94l-4.5,5.39L19,47l4-5a1.649,1.649,0,0,1,1.53-1A1.472,1.472,0,0,1,26,42.47Z" style="fill:#34c1ad"/><path d="M23.07,50.92l4.11-4.34a1.3,1.3,0,0,1,1.01-.49,1.209,1.209,0,0,1,.72.23,1.436,1.436,0,0,1,.26,2.08l-4.08,4.5L25,53l1.38,1.58L19,61a6,6,0,0,1-6-6V53l3-2V44.5a1.267,1.267,0,0,1,.09-.47A1.459,1.459,0,0,1,17.5,43,1.5,1.5,0,0,1,19,44.5V47l2.16,1.8L21,49Z" style="fill:#34c1ad"/><path d="M31,49.93a1.443,1.443,0,0,1-.33.92l-4.29,3.73L25,53l.09-.1,3.59-3.87a1.283,1.283,0,0,1,1-.48,1.217,1.217,0,0,1,.73.23A1.391,1.391,0,0,1,31,49.93Z" style="fill:#34c1ad"/><path d="M38.91,52.9,39,53l-1.38,1.58-4.29-3.73a1.443,1.443,0,0,1-.33-.92,1.391,1.391,0,0,1,.59-1.15,1.217,1.217,0,0,1,.73-.23,1.283,1.283,0,0,1,1,.48Z" style="fill:#34c1ad"/><path d="M38.32,44.12,43,49l-2.07,1.92-4.55-4.91a1.583,1.583,0,0,1,.21-2.14,1.217,1.217,0,0,1,.73-.23A1.283,1.283,0,0,1,38.32,44.12Z" style="fill:#34c1ad"/><path d="M41,42l4,5-2.16,1.8-4.5-5.39A1.47,1.47,0,0,1,39.47,41,1.649,1.649,0,0,1,41,42Z" style="fill:#34c1ad"/><path d="M59,58.55V60a3,3,0,0,1-3,3H47l-2-2a6,6,0,0,0,6-6l5,3,2.97-.12C58.99,58.1,59,58.33,59,58.55Z" style="fill:#f5f5f5"/><path d="M58.97,57.88,56,58l-5-3V53l-3-2V44.5a1.267,1.267,0,0,0-.09-.47L48,44s.96-3.85,4.77-3.99a8,8,0,0,1,2.07,3.86l3.69,11.66A9.852,9.852,0,0,1,58.97,57.88Z" style="fill:#f5f5f5"/><path d="M51,53v2a6,6,0,0,1-6,6l-7.38-6.42L39,53l-.09-.1L41,51l-.07-.08L43,49l-.16-.2L45,47V44.5A1.5,1.5,0,0,1,46.5,43a1.459,1.459,0,0,1,1.41,1.03,1.267,1.267,0,0,1,.09.47V51Z" style="fill:#34c1ad"/><path d="M50.41,38.32a8.012,8.012,0,0,1,2.36,1.69C48.96,40.15,48,44,48,44l-.09.03A1.459,1.459,0,0,0,46.5,43,1.5,1.5,0,0,0,45,44.5V47l-4-5a1.649,1.649,0,0,0-1.53-1,1.47,1.47,0,0,0-1.13,2.41l4.5,5.39L43,49l-4.68-4.88a1.283,1.283,0,0,0-1-.48,1.217,1.217,0,0,0-.73.23,1.583,1.583,0,0,0-.21,2.14l4.55,4.91-4.11-4.34a1.3,1.3,0,0,0-1.01-.49,1.209,1.209,0,0,0-.72.23,1.436,1.436,0,0,0-.26,2.08l4.08,4.5-3.59-3.87a1.283,1.283,0,0,0-1-.48,1.217,1.217,0,0,0-.73.23A1.391,1.391,0,0,0,33,49.93H32V31a9.407,9.407,0,0,0,6.92-3.07L39,28v3.73a2.009,2.009,0,0,0,1.15,1.81Z" style="fill:#e3e3e3"/><path d="M47,63H32V49.93h1a1.443,1.443,0,0,0,.33.92l4.29,3.73L45,61Z" style="fill:#e3e3e3"/><path d="M45,19v.43a9,9,0,0,1-4.99,8.06L39,28l-.08-.07A8.7,8.7,0,0,0,41,24V15a1.993,1.993,0,0,0-1.87-1.99A9.284,9.284,0,0,0,32,10a9.284,9.284,0,0,0-7.13,3.01A1.993,1.993,0,0,0,23,15v9a8.7,8.7,0,0,0,2.08,3.93L25,28l-1.01-.51A9,9,0,0,1,19,19.43V11C19,6.58,24.21,1,29,1h6c4.79,0,10,5.58,10,10Z" style="fill:#e3e3e3"/><path d="M41,19v5a8.7,8.7,0,0,1-2.08,3.93,9.334,9.334,0,0,1-13.84,0A8.7,8.7,0,0,1,23,24V19a2.006,2.006,0,0,0,2,2h4l3-2,3,2h4A2.006,2.006,0,0,0,41,19ZM29,25c0-1.1-.67-2-1.5-2s-1.5.9-1.5,2,.67,2,1.5,2S29,26.1,29,25Z" style="fill:#f5f5f5"/><path d="M39,21H35l-3-2-3,2H25a2.006,2.006,0,0,1-2-2v2a2.006,2.006,0,0,0,2,2h4l3-2,3,2h4a2.006,2.006,0,0,0,2-2V19A2.006,2.006,0,0,1,39,21Z" style="fill:#e3e3e3"/><path d="M40.93,50.92,41,51l-2.09,1.9-4.08-4.5a1.436,1.436,0,0,1,.26-2.08,1.209,1.209,0,0,1,.72-.23,1.3,1.3,0,0,1,1.01.49Z" style="fill:#34c1ad"/><path d="M39.13,13.01A.57.57,0,0,0,39,13H25a.57.57,0,0,0-.13.01A9.284,9.284,0,0,1,32,10,9.284,9.284,0,0,1,39.13,13.01Z" style="fill:#f2c4b2"/><path d="M32.42,17.09,32,17l-9,2a2.006,2.006,0,0,0,2,2h4l3-2,3,2h4a2.006,2.006,0,0,0,2-2Z" style="fill:#81d2f5"/><path d="M32,49.93V63H17l2-2,7.38-6.42,4.29-3.73a1.443,1.443,0,0,0,.33-.92Z" style="fill:#e3e3e3"/><path d="M32,31V49.93H31a1.391,1.391,0,0,0-.59-1.15,1.217,1.217,0,0,0-.73-.23,1.283,1.283,0,0,0-1,.48L25.09,52.9l4.08-4.5a1.436,1.436,0,0,0-.26-2.08,1.209,1.209,0,0,0-.72-.23,1.3,1.3,0,0,0-1.01.49l-4.11,4.34,4.55-4.91a1.583,1.583,0,0,0-.21-2.14,1.217,1.217,0,0,0-.73-.23,1.283,1.283,0,0,0-1,.48L21,49l.16-.2,4.5-5.39A1.47,1.47,0,0,0,24.53,41,1.649,1.649,0,0,0,23,42l-4,5V44.5A1.5,1.5,0,0,0,17.5,43a1.459,1.459,0,0,0-1.41,1.03L16,44s-.96-3.85-4.77-3.99a8.012,8.012,0,0,1,2.36-1.69l10.26-4.78A2.009,2.009,0,0,0,25,31.73V28l.08-.07A9.407,9.407,0,0,0,32,31Z" style="fill:#e3e3e3"/><path d="M39.13,13.01A.57.57,0,0,0,39,13H25a.57.57,0,0,0-.13.01A1.993,1.993,0,0,0,23,15v4l9-2,.42.09L41,19V15A1.993,1.993,0,0,0,39.13,13.01Z" style="fill:#96e0ff"/><path d="M19,61l-2,2H8a3,3,0,0,1-3-3V58.55c0-.22.01-.45.03-.67L8,58l5-3A6,6,0,0,0,19,61Z" style="fill:#f5f5f5"/><path d="M16,44l.09.03a1.267,1.267,0,0,0-.09.47V51l-3,2v2L8,58l-2.97-.12a9.852,9.852,0,0,1,.44-2.35L9.16,43.87a8,8,0,0,1,2.07-3.86C15.04,40.15,16,44,16,44Z" style="fill:#f5f5f5"/><polygon points="29 13 23 19 25.571 18.429 31 13 29 13" style="fill:#b3f5ff"/><path d="M25,13a.57.57,0,0,0-.13.01A1.993,1.993,0,0,0,23,15v4l6-6Z" style="fill:#96e0ff"/><path d="M39.818,13.182l-4.543,4.543L41,19V15A1.994,1.994,0,0,0,39.818,13.182Z" style="fill:#81d2f5"/><polygon points="32 13 31 13 25.571 18.429 32 17 36 13 32 13" style="fill:#96e0ff"/><path d="M39.13,13.01A.57.57,0,0,0,39,13H36l-4,4,.42.09,2.855.635,4.543-4.543A1.941,1.941,0,0,0,39.13,13.01Z" style="fill:#b3f5ff"/><path d="M39.13,13.01A.57.57,0,0,0,39,13H25a.57.57,0,0,0-.13.01A1.993,1.993,0,0,0,23,15v4a2.006,2.006,0,0,0,2,2h4l3-2,3,2h4a2.006,2.006,0,0,0,2-2V15A1.993,1.993,0,0,0,39.13,13.01Zm-14.023.971h0ZM40,19a1,1,0,0,1-1,1H35.3l-2.748-1.832a1,1,0,0,0-1.11,0L28.7,20H25a1,1,0,0,1-1-1V15a.991.991,0,0,1,.929-.992A.792.792,0,0,0,25.01,14H38.991a.747.747,0,0,0,.08.008A.991.991,0,0,1,40,15Z" style="fill:#055d8d"/><path d="M20.515,19.379A2,2,0,0,1,19,17.438V19.43a9,9,0,0,0,4.99,8.06L25,28l.08-.07A8.7,8.7,0,0,1,23,24V17.438A2,2,0,0,1,20.515,19.379Z" style="fill:#bfbfbf"/><path d="M43.485,19.379A2,2,0,0,1,41,17.438V24a8.7,8.7,0,0,1-2.08,3.93L39,28l1.01-.51A9,9,0,0,0,45,19.43V17.438A2,2,0,0,1,43.485,19.379Z" style="fill:#bfbfbf"/><rect height="6" rx="3" style="fill:#f5f5f5" width="14" x="25" y="1.5"/><path d="M34,9H30a7,7,0,0,0-6.689,4.933,1.984,1.984,0,0,1,1.559-.923A9.284,9.284,0,0,1,32,10a9.284,9.284,0,0,1,7.13,3.01,1.984,1.984,0,0,1,1.559.923A7,7,0,0,0,34,9Z" style="fill:#bfbfbf"/><path d="M28.5,23a1.157,1.157,0,0,0-.5.123,2.262,2.262,0,0,1,0,3.754,1.157,1.157,0,0,0,.5.123c.83,0,1.5-.9,1.5-2S29.33,23,28.5,23Z" style="fill:#e3e3e3"/><path d="M27.5,23a1.157,1.157,0,0,0-.5.123,2.262,2.262,0,0,1,0,3.754,1.157,1.157,0,0,0,.5.123c.83,0,1.5-.9,1.5-2S28.33,23,27.5,23Z" style="fill:#81d2f5"/><path d="M53,52l-3-2V41.909l-.67-.3A6.3,6.3,0,0,0,48,44l-.09.03a1.267,1.267,0,0,1,.09.47V51l3,2v2l5,3,2.97-.12a9.852,9.852,0,0,0-.44-2.35l-.438-1.384A3,3,0,0,1,53,52Z" style="fill:#e3e3e3"/><path d="M14.67,41.6l-.67.3V50l-3,2a3,3,0,0,1-5.092,2.146L5.47,55.53a9.852,9.852,0,0,0-.44,2.35L8,58l5-3V53l3-2V44.5a1.267,1.267,0,0,1,.09-.47L16,44A6.3,6.3,0,0,0,14.67,41.6Z" style="fill:#e3e3e3"/><path d="M45.734,61.734,45,61l-1-.87-6.38-5.55-4.29-3.73a1.443,1.443,0,0,1-.33-.92h-.576a1.4,1.4,0,0,0-.424,1,1.443,1.443,0,0,0,.33.92l4.29,3.73,3.346,2.911A2,2,0,0,1,38.654,62H25.346a2,2,0,0,1-1.312-3.509L27.38,55.58l4.29-3.73a1.443,1.443,0,0,0,.33-.92,1.4,1.4,0,0,0-.424-1H31a1.443,1.443,0,0,1-.33.92l-4.29,3.73L20,60.13,19,61l-.734.734L17,63H47Z" style="fill:#bfbfbf"/><path d="M39,31.73V28l-.08-.07A9.407,9.407,0,0,1,32,31a9.254,9.254,0,0,1-3.394-.659,9.466,9.466,0,0,1-2.592-1.532,9.362,9.362,0,0,1-.934-.879L25,28v3.73c0,.029-.011.056-.012.086.032.036.059.078.092.114a9.334,9.334,0,0,0,13.84,0c.033-.036.06-.078.092-.114C39.011,31.786,39,31.759,39,31.73Z" style="fill:#a3a3a3"/><path d="M31,34.968V63h2V34.968c-.318.02-.649.032-1,.032S31.318,34.988,31,34.968Z" style="fill:#055d8d"/><path d="M32,31a9.21,9.21,0,0,1-1-.055v4.023c.318.02.649.032,1,.032s.682-.012,1-.032V30.945A9.21,9.21,0,0,1,32,31Z" style="fill:#072c58"/><path d="M25.5,53.572,25,54l-1.572.873A5,5,0,0,1,16,50.5V51l-3,2v2a6,6,0,0,0,6,6l7.38-6.42,4.29-3.73a1.443,1.443,0,0,0,.33-.92,1.421,1.421,0,0,0-.278-.835Z" style="fill:#21abab"/><path d="M48,51v-.5a5,5,0,0,1-7.428,4.371L39,54l-.5-.428L33.278,49.1A1.421,1.421,0,0,0,33,49.93a1.443,1.443,0,0,0,.33.92l4.29,3.73L45,61a6,6,0,0,0,6-6V53Z" style="fill:#21abab"/><path d="M47,46.586v-3.5A1.495,1.495,0,0,0,45,44.5V47l.293.293A1,1,0,0,0,47,46.586Z" style="fill:#21abab"/><path d="M18.707,47.293,19,47V44.5a1.495,1.495,0,0,0-2-1.412v3.5A1,1,0,0,0,18.707,47.293Z" style="fill:#21abab"/></g></svg>