<svg width="16" height="16" xmlns="http://www.w3.org/2000/svg">
  <defs>
        <style>
            .blue {
                fill: #007bff;
            }
        </style>
    </defs>
  <title>Arrow Up Right</title>
  <path class="blue" d="m6.775741,3.892399a0.5,0.5 0 0 0 0.708,0l2.646,-2.647l2.646,2.647a0.5,0.5 0 1 0 0.708,-0.708l-3,-3a0.5,0.5 0 0 0 -0.708,0l-3,3a0.5,0.5 0 0 0 0,0.708z"/>
  <path class="blue" d="m2.16804,0.439025a0.5,0.5 0 0 0 -0.5,0.5l0,6.5a2.5,2.5 0 0 0 2.5,2.5l5.5,0a0.5,0.5 0 0 0 0,-1l-5.5,0a1.5,1.5 0 0 1 -1.5,-1.5l0,-6.5a0.5,0.5 0 0 0 -0.5,-0.5z" transform="rotate(-90 5.918039798736573,5.189024448394775)"/>
</svg>