<?xml version="1.0" ?><svg viewBox="0 0 512 512" xmlns="http://www.w3.org/2000/svg"><g data-name="filled outline" id="filled_outline"><path d="M88,136H72V112a48,48,0,0,1,96,0v8H152v-8a32,32,0,0,0-64,0Z" style="fill:#cbcbcb"/><path d="M452,424H384a8,8,0,0,1,0-16h68a28,28,0,0,0,0-56H360a8,8,0,0,1,0-16h92a44,44,0,0,1,0,88Z" style="fill:#cbcbcb"/><rect height="344" rx="12" style="fill:#d18d28" width="256" x="120" y="112"/><path d="M292,96H264V80a16,16,0,0,0-32,0V96H204a12,12,0,0,0-12,12v36H304V108A12,12,0,0,0,292,96Z" style="fill:#c1e3f7"/><rect height="280" style="fill:#e4e4e2" width="192" x="152" y="144"/><rect height="32" style="fill:#cbcbcb" width="32" x="184" y="280"/><rect height="32" style="fill:#cbcbcb" width="32" x="184" y="344"/><rect height="16" style="fill:#cbcbcb" width="80" x="240" y="240"/><rect height="16" style="fill:#cbcbcb" width="24" x="240" y="288"/><rect height="16" style="fill:#cbcbcb" width="40" x="280" y="288"/><rect height="16" style="fill:#cbcbcb" width="40" x="240" y="368"/><rect height="16" style="fill:#cbcbcb" width="48" x="240" y="336"/><rect height="16" style="fill:#cbcbcb" width="16" x="304" y="336"/><path d="M200,256a8,8,0,0,1-5.657-2.343l-16-16a8,8,0,0,1,11.314-11.314l9.477,9.477L217.6,211.2a8,8,0,1,1,12.8,9.6l-24,32a8,8,0,0,1-5.833,3.179Q200.282,256,200,256Z" style="fill:#f55648"/><polygon points="264 176 256 176 256 168 240 168 240 176 232 176 232 192 240 192 240 200 256 200 256 192 264 192 264 176" style="fill:#029532"/><path d="M64,336a32.036,32.036,0,0,1-32-32V256a8,8,0,0,1,16,0v48a16.019,16.019,0,0,0,16,16,8,8,0,0,1,0,16Z" style="fill:#e4e4e2"/><path d="M96,336a8,8,0,0,1,0-16,16.019,16.019,0,0,0,16-16V256a8,8,0,0,1,16,0v48A32.036,32.036,0,0,1,96,336Z" style="fill:#e4e4e2"/><path d="M96,170.332V136H64v34.332A56.04,56.04,0,0,0,24,224v32H56V224a24,24,0,0,1,48,0v32h32V224A56.016,56.016,0,0,0,96,170.332Z" style="fill:#007af6"/><circle cx="360" cy="416" r="40" style="fill:#007af6"/><circle cx="360" cy="416" r="16" style="fill:#8ed2ff"/><rect height="16" style="fill:#cbcbcb" width="112" x="192" y="144"/><path d="M216,272H184a8,8,0,0,0-8,8v32a8,8,0,0,0,8,8h32a8,8,0,0,0,8-8V280A8,8,0,0,0,216,272Zm-8,32H192V288h16Z"/><path d="M216,336H184a8,8,0,0,0-8,8v32a8,8,0,0,0,8,8h32a8,8,0,0,0,8-8V344A8,8,0,0,0,216,336Zm-8,32H192V352h16Z"/><rect height="16" width="80" x="240" y="240"/><rect height="16" width="24" x="240" y="288"/><rect height="16" width="40" x="280" y="288"/><rect height="16" width="40" x="240" y="368"/><rect height="16" width="48" x="240" y="336"/><rect height="16" width="16" x="304" y="336"/><path d="M228.8,209.6a8,8,0,0,0-11.2,1.6l-18.466,24.62-9.477-9.477a8,8,0,0,0-11.314,11.314l16,16A8,8,0,0,0,200,256q.282,0,.567-.021A8,8,0,0,0,206.4,252.8l24-32A8,8,0,0,0,228.8,209.6Z"/><polygon points="240 200 256 200 256 192 264 192 264 176 256 176 256 168 240 168 240 176 232 176 232 192 240 192 240 200"/><path d="M452,336H384V124a20.023,20.023,0,0,0-20-20H311.6A20.033,20.033,0,0,0,292,88H272V80a24,24,0,0,0-48,0v8H204a20.033,20.033,0,0,0-19.6,16H167.321A48,48,0,0,0,72,112v16H64a8,8,0,0,0-8,8v28.667A64.065,64.065,0,0,0,16,224v32a8,8,0,0,0,8,8h8v40a32.036,32.036,0,0,0,32,32,8,8,0,0,0,0-16,16.019,16.019,0,0,1-16-16V264h8a8,8,0,0,0,8-8V224a16,16,0,0,1,32,0v32a8,8,0,0,0,8,8h8v40a16.019,16.019,0,0,1-16,16,8,8,0,0,0,0,16,31.793,31.793,0,0,0,16-4.305V444a20.023,20.023,0,0,0,20,20H364v-.18a48.079,48.079,0,0,0,43.327-39.854c.222.019.446.034.673.034h44a44,44,0,0,0,0-88ZM368,124V368.679a47.468,47.468,0,0,0-16,0V144a8,8,0,0,0-8-8H312V120h52A4,4,0,0,1,368,124ZM312,416H160V152H336V374.458A48.014,48.014,0,0,0,312,416ZM184,120v16H152a8,8,0,0,0-8,8v80a64.126,64.126,0,0,0-16-42.183V124a4,4,0,0,1,4-4Zm16-12a4,4,0,0,1,4-4h28a8,8,0,0,0,8-8V80a8,8,0,0,1,16,0V96a8,8,0,0,0,8,8h28a4,4,0,0,1,4,4v28H200ZM88,112a32,32,0,0,1,62.987-8H132a20.023,20.023,0,0,0-20,20v44.611a63.165,63.165,0,0,0-8-3.939V136a8,8,0,0,0-8-8H88Zm-8,80a32.036,32.036,0,0,0-32,32v24H32V224a48.044,48.044,0,0,1,34.283-46A8,8,0,0,0,72,170.332V144H88v26.332A8,8,0,0,0,93.717,178,48.284,48.284,0,0,1,128,224v24H112V224A32.036,32.036,0,0,0,80,192Zm48,252V264h8a8,8,0,0,0,8-8V424a8,8,0,0,0,8,8H314.752a48.044,48.044,0,0,0,9.509,16H132A4,4,0,0,1,128,444Zm232,4a32,32,0,1,1,32-32A32.036,32.036,0,0,1,360,448Zm92-40H408c-.227,0-.451.015-.673.034A48.106,48.106,0,0,0,384,374.458V352h68a28,28,0,0,1,0,56Z"/><circle cx="360" cy="416" r="16"/></g></svg>