<?xml version="1.0" ?><svg id="_x31_-outline-expand" style="enable-background:new 0 0 64 64;" version="1.1" viewBox="0 0 64 64" xml:space="preserve" xmlns="http://www.w3.org/2000/svg" xmlns:xlink="http://www.w3.org/1999/xlink"><path d="M38,62H12c-2.209,0-4-1.791-4-4V6c0-2.209,1.791-4,4-4h26c2.209,0,4,1.791,4,4v52  C42,60.209,40.209,62,38,62L38,62z" style="fill:#CAEAE9;"/><path d="M42,49h20V25H48V14c-3.313,0-6,2.687-6,6V49z" style="fill:#F2DAAE;"/><path d="M8,28c0,1.657-1.343,3-3,3s-3-1.343-3-3c0-1.657,1.343-3,3-3S8,26.343,8,28L8,28z" style="fill:#F2DAAE;"/><path d="M8,34c0,1.657-1.343,3-3,3s-3-1.343-3-3s1.343-3,3-3S8,32.342,8,34L8,34z" style="fill:#F2DAAE;"/><path d="M8,40c0,1.657-1.343,3-3,3s-3-1.343-3-3s1.343-3,3-3S8,38.342,8,40L8,40z" style="fill:#F2DAAE;"/><path d="M8,46c0,1.657-1.343,3-3,3s-3-1.343-3-3s1.343-3,3-3S8,44.342,8,46L8,46z" style="fill:#F2DAAE;"/><path d="M42,8H8V6c0-2.209,1.791-4,4-4h26c2.209,0,4,1.791,4,4V8z" style="fill:#62C4C3;"/><path d="M8,56h34v2c0,2.209-1.791,4-4,4H12c-2.209,0-4-1.791-4-4V56z" style="fill:#62C4C3;"/><rect height="8" style="fill:#EFBC2E;" width="10" x="12" y="15"/><rect height="8" style="fill:#EFBC2E;" width="10" x="28" y="28"/><rect height="2" style="fill:#3A4249;" width="14" x="25" y="13.999"/><rect height="2" style="fill:#3A4249;" width="14" x="25" y="17.999"/><rect height="2" style="fill:#3A4249;" width="10" x="25" y="21.999"/><rect height="8" style="fill:#EFBC2E;" width="10" x="12" y="41"/><rect height="2" style="fill:#3A4249;" width="14" x="25" y="39.999"/><rect height="2" style="fill:#3A4249;" width="14" x="25" y="43.999"/><rect height="2" style="fill:#3A4249;" width="2" x="25" y="47.999"/><rect height="2" style="fill:#3A4249;" width="14" x="11" y="26.999"/><rect height="2" style="fill:#3A4249;" width="14" x="11" y="30.999"/><rect height="2" style="fill:#3A4249;" width="14" x="11" y="34.999"/><rect height="2" style="fill:#3A4249;" width="2" x="37" y="21.999"/><rect height="2" style="fill:#3A4249;" width="2" x="29" y="47.999"/><rect height="2" style="fill:#3A4249;" width="2" x="33" y="47.999"/><rect height="2" style="fill:#3A4249;" width="2" x="37" y="47.999"/></svg>