<svg class="navbar-logo" id="b4616936-6f5a-40a9-be38-8fa484b2f650" data-name="Type" xmlns="http://www.w3.org/2000/svg" viewBox="0 0 1391.48 352.41" role="img" focusable="false">
    <defs>
        <style>
            .b30217bf-f1c2-44c4-91f5-b885cc3f0f71 {
                fill: #007bff;
            }
            
            .e3b79bb7-8118-47ef-9cbe-c64ce8ad85f2 {
                fill: #1d1d1d;
            }
        </style>
    </defs>
    <title>Observatório COVID-19 BR</title>
    <path class="b30217bf-f1c2-44c4-91f5-b885cc3f0f71" d="M107.53,229.27q15.56,11.52,21.93,31.76H115.59a46.4,46.4,0,0,0-17.43-22.67Q86,229.93,68,229.92A46.22,46.22,0,0,0,25.63,256q-6.36,12.57-6.37,29.24t6.37,29.14a46.35,46.35,0,0,0,42.36,26q18,0,30.17-8.44a46.4,46.4,0,0,0,17.43-22.67h13.87q-6.38,20.24-21.93,31.76T68.18,352.49q-18.18,0-32.43-8.62A58.81,58.81,0,0,1,13.64,320Q5.77,304.7,5.77,285.21q0-19.68,7.87-35a58.07,58.07,0,0,1,22.11-23.9q14.25-8.52,32.43-8.53Q92,217.74,107.53,229.27Z" transform="translate(-0.62 -0.27)" />
    <path class="b30217bf-f1c2-44c4-91f5-b885cc3f0f71" d="M265.14,226.18a61,61,0,0,1,23,24q8.34,15.36,8.34,34.85t-8.34,35a60.9,60.9,0,0,1-23,24.09,67.42,67.42,0,0,1-66,0A60.87,60.87,0,0,1,176.22,320q-8.34-15.45-8.34-35t8.34-34.85a60.94,60.94,0,0,1,22.95-24,67.42,67.42,0,0,1,66,0Zm-58.94,10.3A47.71,47.71,0,0,0,188,255.79q-6.65,12.56-6.65,29.23T188,314.26a47.68,47.68,0,0,0,18.18,19.3,53.28,53.28,0,0,0,51.91,0,47.55,47.55,0,0,0,18.18-19.3Q283,301.71,283,285t-6.66-29.23a47.58,47.58,0,0,0-18.18-19.31,53.34,53.34,0,0,0-51.91,0Z" transform="translate(-0.62 -0.27)" />
    <path class="b30217bf-f1c2-44c4-91f5-b885cc3f0f71" d="M343.66,219.06,386.2,335.81l42.92-116.75h14.43l-49.1,132.12h-16.3L329.23,219.06Z" transform="translate(-0.62 -0.27)" />
    <path class="b30217bf-f1c2-44c4-91f5-b885cc3f0f71" d="M494,219.06V351.18h-13.3V219.06Z" transform="translate(-0.62 -0.27)" />
    <path class="b30217bf-f1c2-44c4-91f5-b885cc3f0f71" d="M642.58,320.35a54.21,54.21,0,0,1-23.71,22.86q-15.64,8-37.76,8H541.19V219.06h39.92q33.35,0,51.44,17.52T650.63,285Q650.63,305.45,642.58,320.35ZM622.71,325q14.63-14.32,14.62-40t-14.62-40q-14.61-14.34-42.54-14.34H554.49v108.7h25.68Q608.09,339.37,622.71,325Z" transform="translate(-0.62 -0.27)" />
    <path class="b30217bf-f1c2-44c4-91f5-b885cc3f0f71" d="M748.27,276.21v11.06H675.18V276.21Z" transform="translate(-0.62 -0.27)" />
    <path class="b30217bf-f1c2-44c4-91f5-b885cc3f0f71" d="M761.76,231.24V219.06h33.55V351.18H781.63V231.24Z" transform="translate(-0.62 -0.27)" />
    <path class="b30217bf-f1c2-44c4-91f5-b885cc3f0f71" d="M864.46,334.78q7.13,7,19.68,7,17.61,0,26.52-13.22t8.9-42.26q0-5.06-.19-7.68A30.67,30.67,0,0,1,906,298.14q-10.77,7.31-25.39,7.31-19.86,0-31.11-12t-11.24-33.17a51.26,51.26,0,0,1,4.68-22.12,36.24,36.24,0,0,1,14.53-15.84q9.82-5.9,24.64-5.9,28.29,0,38.79,17.43t10.5,47.79q0,34.49-11,52.75t-36.26,18.28q-18.37,0-28.86-10.4T843.1,314.82h12.37Q857.33,327.75,864.46,334.78Zm44.42-96.52q-8.82-10.39-26.43-10.4-14.43,0-23.14,8.62t-8.72,24q0,16.68,8.72,25.58T883.2,295a41.17,41.17,0,0,0,16.59-3.47,30.1,30.1,0,0,0,12.93-10.59q5-7.12,5-17.43Q917.69,248.66,908.88,238.26Z" transform="translate(-0.62 -0.27)" />
    <path class="e3b79bb7-8118-47ef-9cbe-c64ce8ad85f2" d="M101.54,57.89a63.48,63.48,0,0,1,24.08,24.18q8.82,15.47,8.81,35t-8.9,35.05a64,64,0,0,1-24.18,24.27,67,67,0,0,1-33.82,8.71,67,67,0,0,1-33.83-8.71A64,64,0,0,1,9.52,152.07Q.63,136.51.62,117t8.9-34.95A64.23,64.23,0,0,1,33.7,57.89a67,67,0,0,1,33.83-8.71A67.39,67.39,0,0,1,101.54,57.89Zm-59,31.3Q33.23,99.41,33.23,117q0,17.43,9.28,27.74t25,10.3q15.56,0,24.92-10.3T101.82,117q0-17.43-9.27-27.74T67.53,79Q51.78,79,42.51,89.19Z" transform="translate(-0.62 -0.27)" />
    <path class="e3b79bb7-8118-47ef-9cbe-c64ce8ad85f2" d="M249,127.14a31.85,31.85,0,0,1,7,20.43q0,17.06-11.34,26.61t-32.52,9.56H150.55V51.24H210.7q20.25,0,31.3,8.81t11.06,25.11q0,12-6.37,20A29.35,29.35,0,0,1,230,115.52,33.25,33.25,0,0,1,249,127.14ZM182.59,105.4h21q16.68,0,16.68-14.24t-17-14.24H182.59Zm40.67,37.67q0-7.12-4.68-11.15t-13.31-4H182.59v29.8h22.87Q223.27,157.69,223.26,143.07Z" transform="translate(-0.62 -0.27)" />
    <path class="e3b79bb7-8118-47ef-9cbe-c64ce8ad85f2" d="M360.91,165.75a37.63,37.63,0,0,1-15.74,14.05q-10.4,5.25-25.21,5.25-22.31,0-36.73-10.87t-15.74-30.36H301.6q.75,7.5,5.34,11.81a16.43,16.43,0,0,0,11.71,4.31q6.18,0,9.75-3.38a11.79,11.79,0,0,0,3.56-9,11.62,11.62,0,0,0-3.28-8.43,25.71,25.71,0,0,0-8.15-5.53q-4.89-2.16-13.5-5.16a164.55,164.55,0,0,1-20.52-8.34,37.72,37.72,0,0,1-13.68-12q-5.71-8-5.72-20.71a34.87,34.87,0,0,1,6-20.43A38.18,38.18,0,0,1,289.7,53.77,60.45,60.45,0,0,1,314,49.18q22.11,0,35.13,10.49t14.72,28.87H329.15a17.85,17.85,0,0,0-4.78-10.41q-3.84-3.84-10.4-3.84a13.39,13.39,0,0,0-9.09,3q-3.48,3-3.47,8.81a11.17,11.17,0,0,0,3.09,8,23.38,23.38,0,0,0,7.78,5.34q4.68,2.07,13.49,5.25a149.53,149.53,0,0,1,20.81,8.53,39.76,39.76,0,0,1,13.86,12.27q5.81,8.07,5.81,21A36.55,36.55,0,0,1,360.91,165.75Z" transform="translate(-0.62 -0.27)" />
    <path class="e3b79bb7-8118-47ef-9cbe-c64ce8ad85f2" d="M414.23,76.73v27.73H459v24.18H414.23v29.42h50.41v25.68H382.18V51.24h82.46V76.73Z" transform="translate(-0.62 -0.27)" />
    <path class="e3b79bb7-8118-47ef-9cbe-c64ce8ad85f2" d="M549,183.74l-28.67-50H513v50H480.94V51.24h54.73q15.74,0,26.61,5.44a37.55,37.55,0,0,1,16.3,14.89A42.66,42.66,0,0,1,584,93.22q0,14.43-8,24.55t-23.14,13.87l31.48,52.1Zm-36-72h19.86q9.57,0,14.06-4.21t4.5-12.47c0-5.24-1.53-9.37-4.59-12.36s-7.72-4.5-14-4.5H513Z" transform="translate(-0.62 -0.27)" />
    <path class="e3b79bb7-8118-47ef-9cbe-c64ce8ad85f2" d="M623,51.24l32.42,99.7,32.42-99.7h34.29L676,183.74H634.62L588.7,51.24Z" transform="translate(-0.62 -0.27)" />
    <path class="e3b79bb7-8118-47ef-9cbe-c64ce8ad85f2" d="M796.72,159.56H747.06l-8.25,24.18H705.08L753.62,52.18h36.92l48.53,131.56H805Zm-8.25-24.36L772,86.47,755.3,135.2Z" transform="translate(-0.62 -0.27)" />
    <path class="e3b79bb7-8118-47ef-9cbe-c64ce8ad85f2" d="M935,51.24V76.73H899v107H866.81v-107H831.2V51.24Z" transform="translate(-0.62 -0.27)" />
    <path class="e3b79bb7-8118-47ef-9cbe-c64ce8ad85f2" d="M1043.63,57.89a63.55,63.55,0,0,1,24.08,24.18q8.8,15.47,8.81,35t-8.9,35.05a64,64,0,0,1-24.18,24.27,70,70,0,0,1-67.65,0,63.9,63.9,0,0,1-24.18-24.27q-8.91-15.56-8.9-35t8.9-34.95a64.09,64.09,0,0,1,24.18-24.18,70.4,70.4,0,0,1,67.84,0Zm-59,31.3q-9.27,10.22-9.27,27.83,0,17.43,9.27,27.74t25,10.3q15.55,0,24.93-10.3t9.37-27.74q0-17.43-9.28-27.74t-25-10.3Q993.88,79,984.59,89.19Zm52-64.75-45.17,19.3V22L1036.6.27Z" transform="translate(-0.62 -0.27)" />
    <path class="e3b79bb7-8118-47ef-9cbe-c64ce8ad85f2" d="M1160.66,183.74l-28.67-50h-7.31v50h-32V51.24h54.72q15.75,0,26.62,5.44a37.55,37.55,0,0,1,16.3,14.89,42.76,42.76,0,0,1,5.44,21.65q0,14.43-8,24.55t-23.14,13.87l31.48,52.1Zm-36-72h19.86q9.57,0,14.06-4.21t4.5-12.47c0-5.24-1.53-9.37-4.6-12.36s-7.71-4.5-14-4.5h-19.86Z" transform="translate(-0.62 -0.27)" />
    <path class="e3b79bb7-8118-47ef-9cbe-c64ce8ad85f2" d="M1242,51.24v132.5h-32V51.24Z" transform="translate(-0.62 -0.27)" />
    <path class="e3b79bb7-8118-47ef-9cbe-c64ce8ad85f2" d="M1359.21,57.89a63.51,63.51,0,0,1,24.09,24.18q8.81,15.47,8.8,35t-8.9,35.05A64,64,0,0,1,1359,176.34a70.05,70.05,0,0,1-67.66,0,64,64,0,0,1-24.17-24.27q-8.91-15.56-8.91-35t8.91-34.95a64.13,64.13,0,0,1,24.17-24.18,70.4,70.4,0,0,1,67.84,0Zm-59,31.3q-9.27,10.22-9.28,27.83,0,17.43,9.28,27.74t25,10.3q15.55,0,24.93-10.3T1359.5,117q0-17.43-9.28-27.74t-25-10.3Q1309.47,79,1300.18,89.19Z" transform="translate(-0.62 -0.27)" />
    <path class="e3b79bb7-8118-47ef-9cbe-c64ce8ad85f2" d="M1070,295.14a31.8,31.8,0,0,1,7,20.43q0,17.06-11.34,26.61t-32.51,9.56H971.56V219.24h60.16q20.23,0,31.29,8.81t11.06,25.11q0,12-6.37,20a29.35,29.35,0,0,1-16.68,10.4Q1063,286.34,1070,295.14Zm-66.43-21.74h21q16.68,0,16.68-14.24t-17-14.24h-20.61Zm40.66,37.67q0-7.12-4.68-11.15t-13.31-4h-22.67v29.8h22.86Q1044.27,325.69,1044.27,311.07Z" transform="translate(-0.62 -0.27)" />
    <path class="e3b79bb7-8118-47ef-9cbe-c64ce8ad85f2" d="M1160.09,351.74l-28.67-50h-7.31v50h-32V219.24h54.73q15.74,0,26.61,5.44a37.55,37.55,0,0,1,16.3,14.89,42.74,42.74,0,0,1,5.44,21.65q0,14.43-8,24.55T1164,299.64l31.48,52.1Zm-36-72H1144q9.57,0,14.06-4.21t4.5-12.47c0-5.24-1.53-9.37-4.59-12.36s-7.72-4.5-14-4.5h-19.86Z" transform="translate(-0.62 -0.27)" />
</svg>