<svg class="main-svg" xmlns="http://www.w3.org/2000/svg" xmlns:xlink="http://www.w3.org/1999/xlink" width="700" height="500" viewBox="0 0 700 500"><rect x="0" y="0" width="700" height="500" style="fill: rgb(255, 255, 255); fill-opacity: 1;"/><defs id="defs-5bcfc7"><g class="clips"><clipPath id="clip5bcfc7xyplot" class="plotclip"><rect width="639" height="424"/></clipPath><clipPath class="axesclip" id="clip5bcfc7x"><rect x="54" y="0" width="639" height="500"/></clipPath><clipPath class="axesclip" id="clip5bcfc7y"><rect x="0" y="26" width="700" height="424"/></clipPath><clipPath class="axesclip" id="clip5bcfc7xy"><rect x="54" y="26" width="639" height="424"/></clipPath></g><g class="gradients"/></defs><g class="bglayer"/><g class="layer-below"><g class="imagelayer"/><g class="shapelayer"/></g><g class="cartesianlayer"><g class="subplot xy"><g class="layer-subplot"><g class="shapelayer"/><g class="imagelayer"/></g><g class="gridlayer"><g class="x"><path class="xgrid crisp" transform="translate(83.05,0)" d="M0,26v424" style="stroke: rgb(235, 235, 235); stroke-opacity: 1; stroke-width: 0.664176px;"/><path class="xgrid crisp" transform="translate(228.27,0)" d="M0,26v424" style="stroke: rgb(235, 235, 235); stroke-opacity: 1; stroke-width: 0.664176px;"/><path class="xgrid crisp" transform="translate(373.5,0)" d="M0,26v424" style="stroke: rgb(235, 235, 235); stroke-opacity: 1; stroke-width: 0.664176px;"/><path class="xgrid crisp" transform="translate(518.73,0)" d="M0,26v424" style="stroke: rgb(235, 235, 235); stroke-opacity: 1; stroke-width: 0.664176px;"/><path class="xgrid crisp" transform="translate(663.95,0)" d="M0,26v424" style="stroke: rgb(235, 235, 235); stroke-opacity: 1; stroke-width: 0.664176px;"/></g><g class="y"><path class="ygrid crisp" transform="translate(0,387.95)" d="M54,0h639" style="stroke: rgb(235, 235, 235); stroke-opacity: 1; stroke-width: 0.664176px;"/><path class="ygrid crisp" transform="translate(0,242.54)" d="M54,0h639" style="stroke: rgb(235, 235, 235); stroke-opacity: 1; stroke-width: 0.664176px;"/><path class="ygrid crisp" transform="translate(0,59.34)" d="M54,0h639" style="stroke: rgb(235, 235, 235); stroke-opacity: 1; stroke-width: 0.664176px;"/></g></g><g class="zerolinelayer"/><path class="xlines-below"/><path class="ylines-below"/><g class="overlines-below"/><g class="xaxislayer-below"/><g class="yaxislayer-below"/><g class="overaxes-below"/><g class="plot" transform="translate(54, 26)" clip-path="url('#clip5bcfc7xyplot')"><g class="scatterlayer mlayer"><g class="trace scatter trace8e6af4" style="stroke-miterlimit: 2; opacity: 1;"><g class="fills"/><g class="errorbars"/><g class="lines"/><g class="points"><path class="point" transform="translate(29.05,380.34)" d="M3.78,0A3.78,3.78 0 1,1 0,-3.78A3.78,3.78 0 0,1 3.78,0Z" style="opacity: 1; stroke-width: 1.88976px; fill: rgb(0, 0, 139); fill-opacity: 1; stroke: rgb(0, 0, 139); stroke-opacity: 1;"/><path class="point" transform="translate(174.27,281.92)" d="M3.78,0A3.78,3.78 0 1,1 0,-3.78A3.78,3.78 0 0,1 3.78,0Z" style="opacity: 1; stroke-width: 1.88976px; fill: rgb(0, 0, 139); fill-opacity: 1; stroke: rgb(0, 0, 139); stroke-opacity: 1;"/><path class="point" transform="translate(319.5,281.92)" d="M3.78,0A3.78,3.78 0 1,1 0,-3.78A3.78,3.78 0 0,1 3.78,0Z" style="opacity: 1; stroke-width: 1.88976px; fill: rgb(0, 0, 139); fill-opacity: 1; stroke: rgb(0, 0, 139); stroke-opacity: 1;"/><path class="point" transform="translate(464.73,171.65)" d="M3.78,0A3.78,3.78 0 1,1 0,-3.78A3.78,3.78 0 0,1 3.78,0Z" style="opacity: 1; stroke-width: 1.88976px; fill: rgb(0, 0, 139); fill-opacity: 1; stroke: rgb(0, 0, 139); stroke-opacity: 1;"/><path class="point" transform="translate(609.95,19.27)" d="M3.78,0A3.78,3.78 0 1,1 0,-3.78A3.78,3.78 0 0,1 3.78,0Z" style="opacity: 1; stroke-width: 1.88976px; fill: rgb(0, 0, 139); fill-opacity: 1; stroke: rgb(0, 0, 139); stroke-opacity: 1;"/></g><g class="text"/></g><g class="trace scatter traced38e65" style="stroke-miterlimit: 2; opacity: 1;"><g class="fills"/><g class="errorbars"/><g class="lines"><path class="js-line" d="M29.05,404.73L609.95,48.48" style="vector-effect: non-scaling-stroke; fill: none; stroke: rgb(0, 0, 0); stroke-opacity: 1; stroke-width: 1.88976px; opacity: 1;"/></g><g class="points"/><g class="text"/></g></g></g><g class="overplot"/><path class="xlines-above crisp" d="" style="fill: none; stroke-width: 1px; stroke: rgb(0, 0, 0); stroke-opacity: 0;"/><path class="ylines-above crisp" d="" style="fill: none; stroke-width: 1px; stroke: rgb(0, 0, 0); stroke-opacity: 0;"/><g class="overlines-above"/><g class="xaxislayer-above"><path class="xtick ticks crisp" d="M0,451v3.65296803652968" transform="translate(83.05,0)" style="stroke: rgb(51, 51, 51); stroke-opacity: 1; stroke-width: 0.664176px;"/><path class="xtick ticks crisp" d="M0,451v3.65296803652968" transform="translate(228.27,0)" style="stroke: rgb(51, 51, 51); stroke-opacity: 1; stroke-width: 0.664176px;"/><path class="xtick ticks crisp" d="M0,451v3.65296803652968" transform="translate(373.5,0)" style="stroke: rgb(51, 51, 51); stroke-opacity: 1; stroke-width: 0.664176px;"/><path class="xtick ticks crisp" d="M0,451v3.65296803652968" transform="translate(518.73,0)" style="stroke: rgb(51, 51, 51); stroke-opacity: 1; stroke-width: 0.664176px;"/><path class="xtick ticks crisp" d="M0,451v3.65296803652968" transform="translate(663.95,0)" style="stroke: rgb(51, 51, 51); stroke-opacity: 1; stroke-width: 0.664176px;"/><g class="xtick"><text text-anchor="middle" x="0" y="473.7812370278123" transform="translate(83.05,0)" style="font-family: 'Open Sans', verdana, arial, sans-serif; font-size: 15.9402px; fill: rgb(77, 77, 77); fill-opacity: 1; white-space: pre;">07/Mar</text></g><g class="xtick"><text text-anchor="middle" x="0" y="473.7812370278123" transform="translate(228.27,0)" style="font-family: 'Open Sans', verdana, arial, sans-serif; font-size: 15.9402px; fill: rgb(77, 77, 77); fill-opacity: 1; white-space: pre;">08/Mar</text></g><g class="xtick"><text text-anchor="middle" x="0" y="473.7812370278123" transform="translate(373.5,0)" style="font-family: 'Open Sans', verdana, arial, sans-serif; font-size: 15.9402px; fill: rgb(77, 77, 77); fill-opacity: 1; white-space: pre;">09/Mar</text></g><g class="xtick"><text text-anchor="middle" x="0" y="473.7812370278123" transform="translate(518.73,0)" style="font-family: 'Open Sans', verdana, arial, sans-serif; font-size: 15.9402px; fill: rgb(77, 77, 77); fill-opacity: 1; white-space: pre;">10/Mar</text></g><g class="xtick"><text text-anchor="middle" x="0" y="473.7812370278123" transform="translate(663.95,0)" style="font-family: 'Open Sans', verdana, arial, sans-serif; font-size: 15.9402px; fill: rgb(77, 77, 77); fill-opacity: 1; white-space: pre;">11/Mar</text></g></g><g class="yaxislayer-above"><path class="ytick ticks crisp" d="M53,0h-3.65296803652968" transform="translate(0,387.95)" style="stroke: rgb(51, 51, 51); stroke-opacity: 1; stroke-width: 0.664176px;"/><path class="ytick ticks crisp" d="M53,0h-3.65296803652968" transform="translate(0,242.54)" style="stroke: rgb(51, 51, 51); stroke-opacity: 1; stroke-width: 0.664176px;"/><path class="ytick ticks crisp" d="M53,0h-3.65296803652968" transform="translate(0,59.34)" style="stroke: rgb(51, 51, 51); stroke-opacity: 1; stroke-width: 0.664176px;"/><g class="ytick"><text text-anchor="end" x="46.15898713158988" y="5.5790784557907696" transform="translate(0,387.95)" style="font-family: 'Open Sans', verdana, arial, sans-serif; font-size: 15.9402px; fill: rgb(77, 77, 77); fill-opacity: 1; white-space: pre;">20</text></g><g class="ytick"><text text-anchor="end" x="46.15898713158988" y="5.5790784557907696" transform="translate(0,242.54)" style="font-family: 'Open Sans', verdana, arial, sans-serif; font-size: 15.9402px; fill: rgb(77, 77, 77); fill-opacity: 1; white-space: pre;">30</text></g><g class="ytick"><text text-anchor="end" x="46.15898713158988" y="5.5790784557907696" transform="translate(0,59.34)" style="font-family: 'Open Sans', verdana, arial, sans-serif; font-size: 15.9402px; fill: rgb(77, 77, 77); fill-opacity: 1; white-space: pre;">50</text></g></g><g class="overaxes-above"/></g></g><g class="polarlayer"/><g class="ternarylayer"/><g class="geolayer"/><g class="funnelarealayer"/><g class="pielayer"/><g class="treemaplayer"/><g class="sunburstlayer"/><g class="glimages"/><defs id="topdefs-5bcfc7"><g class="clips"/></defs><g class="layer-above"><g class="imagelayer"/><g class="shapelayer"><path data-index="0" fill-rule="evenodd" d="M54,450H693V26H54Z" style="opacity: 1; stroke: rgb(51, 51, 51); stroke-opacity: 1; fill: rgb(0, 0, 0); fill-opacity: 0; stroke-width: 0.664176px;"/></g></g><g class="infolayer"><g class="g-gtitle"/><g class="g-xtitle"/><g class="g-ytitle" transform="translate(10.1943359375,0)"><text class="ytitle" transform="rotate(-90,6.806143628061399,238)" x="6.806143628061399" y="238" text-anchor="middle" style="font-family: 'Open Sans', verdana, arial, sans-serif; font-size: 18.6px; fill: rgb(0, 0, 0); opacity: 1; font-weight: normal; white-space: pre;"><tspan style="font-weight:bold"> log (Número de casos) </tspan></text></g></g></svg>