<?xml version="1.0" encoding="utf-8"?>
<svg id="master-artboard" viewBox="0 0 827.5052490234375 555.9298706054688" version="1.1" xmlns="http://www.w3.org/2000/svg" x="0px" y="0px" style="enable-background:new 0 0 1400 980;" width="827.5052490234375px" height="555.9298706054688px"><defs><clipPath id="cpNjkuMDF8NTY2LjkzfDM4MC43OXwyOC4zNQ==">
    <path d="M 69.010002 28.35 H 566.930016 V 380.800013 H 69.010002 V 28.35 Z" style="fill: none; stroke: rgb(0, 0, 0); stroke-linecap: round; stroke-linejoin: round; stroke-miterlimit: 10;"/>
  </clipPath><clipPath id="cpMC4wMHw1OTUuMjh8NDI1LjIwfDAuMDA=">
    <path d="M 0 0 H 595.280029 V 425.200012 H 0 V 0 Z" style="fill: none; stroke: rgb(0, 0, 0); stroke-linecap: round; stroke-linejoin: round; stroke-miterlimit: 10;"/>
  </clipPath></defs><rect id="ee-background" x="0" y="0" width="827.5052490234375" height="555.9298706054688" style="fill: white; fill-opacity: 0; pointer-events: none;"/><g transform="matrix(1.5069236755371094, 0, 0, 1.5069236755371094, -42.5800724029541, -42.40703582763672)"><path d="M 0 0 H 595.280029 V 425.200012 H 0 V 0 Z" style="stroke: none; fill: rgb(255, 255, 255); stroke-linecap: round; stroke-linejoin: round; stroke-miterlimit: 10;"/><path d="M 0 0 H 595.280029 V 425.200012 H 0 V 0 Z" style="stroke-width: 1.07; stroke: rgb(255, 255, 255); fill: rgb(255, 255, 255); stroke-linecap: round; stroke-linejoin: round; stroke-miterlimit: 10;"/><path d="M 69.010002 28.35 H 566.930016 V 380.800013 H 69.010002 V 28.35 Z" style="stroke-width: 1.07; stroke: none; fill: rgb(255, 255, 255); stroke-linecap: round; stroke-linejoin: round; stroke-miterlimit: 10;" clip-path="url(#cpNjkuMDF8NTY2LjkzfDM4MC43OXwyOC4zNQ==)"/><path d="M 69.010002 372.700012 L 566.929993 372.700012" style="stroke-width: 0.53; stroke: rgb(235, 235, 235); stroke-linecap: butt; fill: none; stroke-linejoin: round; stroke-miterlimit: 10;" clip-path="url(#cpNjkuMDF8NTY2LjkzfDM4MC43OXwyOC4zNQ==)"/><path d="M 69.010002 274.049988 L 566.929993 274.049988" style="stroke-width: 0.53; stroke: rgb(235, 235, 235); stroke-linecap: butt; fill: none; stroke-linejoin: round; stroke-miterlimit: 10;" clip-path="url(#cpNjkuMDF8NTY2LjkzfDM4MC43OXwyOC4zNQ==)"/><path d="M 69.010002 175.399994 L 566.929993 175.399994" style="stroke-width: 0.53; stroke: rgb(235, 235, 235); stroke-linecap: butt; fill: none; stroke-linejoin: round; stroke-miterlimit: 10;" clip-path="url(#cpNjkuMDF8NTY2LjkzfDM4MC43OXwyOC4zNQ==)"/><path d="M 69.010002 76.75 L 566.929993 76.75" style="stroke-width: 0.53; stroke: rgb(235, 235, 235); stroke-linecap: butt; fill: none; stroke-linejoin: round; stroke-miterlimit: 10;" clip-path="url(#cpNjkuMDF8NTY2LjkzfDM4MC43OXwyOC4zNQ==)"/><path d="M 177.490005 380.790009 L 177.490005 28.35" style="stroke-width: 0.53; stroke: rgb(235, 235, 235); stroke-linecap: butt; fill: none; stroke-linejoin: round; stroke-miterlimit: 10;" clip-path="url(#cpNjkuMDF8NTY2LjkzfDM4MC43OXwyOC4zNQ==)"/><path d="M 286.75 380.790009 L 286.75 28.35" style="stroke-width: 0.53; stroke: rgb(235, 235, 235); stroke-linecap: butt; fill: none; stroke-linejoin: round; stroke-miterlimit: 10;" clip-path="url(#cpNjkuMDF8NTY2LjkzfDM4MC43OXwyOC4zNQ==)"/><path d="M 396.01001 380.790009 L 396.01001 28.35" style="stroke-width: 0.53; stroke: rgb(235, 235, 235); stroke-linecap: butt; fill: none; stroke-linejoin: round; stroke-miterlimit: 10;" clip-path="url(#cpNjkuMDF8NTY2LjkzfDM4MC43OXwyOC4zNQ==)"/><path d="M 505.269989 380.790009 L 505.269989 28.35" style="stroke-width: 0.53; stroke: rgb(235, 235, 235); stroke-linecap: butt; fill: none; stroke-linejoin: round; stroke-miterlimit: 10;" clip-path="url(#cpNjkuMDF8NTY2LjkzfDM4MC43OXwyOC4zNQ==)"/><path d="M 69.010002 323.380005 L 566.929993 323.380005" style="stroke-width: 1.07; stroke: rgb(235, 235, 235); stroke-linecap: butt; fill: none; stroke-linejoin: round; stroke-miterlimit: 10;" clip-path="url(#cpNjkuMDF8NTY2LjkzfDM4MC43OXwyOC4zNQ==)"/><path d="M 69.010002 224.729996 L 566.929993 224.729996" style="stroke-width: 1.07; stroke: rgb(235, 235, 235); stroke-linecap: butt; fill: none; stroke-linejoin: round; stroke-miterlimit: 10;" clip-path="url(#cpNjkuMDF8NTY2LjkzfDM4MC43OXwyOC4zNQ==)"/><path d="M 69.010002 126.080002 L 566.929993 126.080002" style="stroke-width: 1.07; stroke: rgb(235, 235, 235); stroke-linecap: butt; fill: none; stroke-linejoin: round; stroke-miterlimit: 10;" clip-path="url(#cpNjkuMDF8NTY2LjkzfDM4MC43OXwyOC4zNQ==)"/><path d="M 122.860001 380.790009 L 122.860001 28.35" style="stroke-width: 1.07; stroke: rgb(235, 235, 235); stroke-linecap: butt; fill: none; stroke-linejoin: round; stroke-miterlimit: 10;" clip-path="url(#cpNjkuMDF8NTY2LjkzfDM4MC43OXwyOC4zNQ==)"/><path d="M 232.119995 380.790009 L 232.119995 28.35" style="stroke-width: 1.07; stroke: rgb(235, 235, 235); stroke-linecap: butt; fill: none; stroke-linejoin: round; stroke-miterlimit: 10;" clip-path="url(#cpNjkuMDF8NTY2LjkzfDM4MC43OXwyOC4zNQ==)"/><path d="M 341.380005 380.790009 L 341.380005 28.35" style="stroke-width: 1.07; stroke: rgb(235, 235, 235); stroke-linecap: butt; fill: none; stroke-linejoin: round; stroke-miterlimit: 10;" clip-path="url(#cpNjkuMDF8NTY2LjkzfDM4MC43OXwyOC4zNQ==)"/><path d="M 450.640015 380.790009 L 450.640015 28.35" style="stroke-width: 1.07; stroke: rgb(235, 235, 235); stroke-linecap: butt; fill: none; stroke-linejoin: round; stroke-miterlimit: 10;" clip-path="url(#cpNjkuMDF8NTY2LjkzfDM4MC43OXwyOC4zNQ==)"/><path d="M 559.909973 380.790009 L 559.909973 28.35" style="stroke-width: 1.07; stroke: rgb(235, 235, 235); stroke-linecap: butt; fill: none; stroke-linejoin: round; stroke-miterlimit: 10;" clip-path="url(#cpNjkuMDF8NTY2LjkzfDM4MC43OXwyOC4zNQ==)"/><path d="M 93.589999 355.209991 A 1.95 1.95 0 0 1 91.639999 357.159992 A 1.95 1.95 0 0 1 89.689999 355.209991 A 1.95 1.95 0 0 1 91.639999 353.259991 A 1.95 1.95 0 0 1 93.589999 355.209991 Z" style="stroke-width: 0.71; stroke: rgb(230, 171, 2); fill: rgb(230, 171, 2); stroke-linecap: round; stroke-linejoin: round; stroke-miterlimit: 10;" clip-path="url(#cpNjkuMDF8NTY2LjkzfDM4MC43OXwyOC4zNQ==)"/><path d="M 109.2 342.359985 A 1.95 1.95 0 0 1 107.25 344.309985 A 1.95 1.95 0 0 1 105.3 342.359985 A 1.95 1.95 0 0 1 107.25 340.409985 A 1.95 1.95 0 0 1 109.2 342.359985 Z" style="stroke-width: 0.71; stroke: rgb(230, 171, 2); fill: rgb(230, 171, 2); stroke-linecap: round; stroke-linejoin: round; stroke-miterlimit: 10;" clip-path="url(#cpNjkuMDF8NTY2LjkzfDM4MC43OXwyOC4zNQ==)"/><path d="M 124.810001 330.029999 A 1.95 1.95 0 0 1 122.860001 331.979999 A 1.95 1.95 0 0 1 120.910001 330.029999 A 1.95 1.95 0 0 1 122.860001 328.079999 A 1.95 1.95 0 0 1 124.810001 330.029999 Z" style="stroke-width: 0.71; stroke: rgb(230, 171, 2); fill: rgb(230, 171, 2); stroke-linecap: round; stroke-linejoin: round; stroke-miterlimit: 10;" clip-path="url(#cpNjkuMDF8NTY2LjkzfDM4MC43OXwyOC4zNQ==)"/><path d="M 140.420001 317.709991 A 1.95 1.95 0 0 1 138.470001 319.659992 A 1.95 1.95 0 0 1 136.520001 317.709991 A 1.95 1.95 0 0 1 138.470001 315.759991 A 1.95 1.95 0 0 1 140.420001 317.709991 Z" style="stroke-width: 0.71; stroke: rgb(230, 171, 2); fill: rgb(230, 171, 2); stroke-linecap: round; stroke-linejoin: round; stroke-miterlimit: 10;" clip-path="url(#cpNjkuMDF8NTY2LjkzfDM4MC43OXwyOC4zNQ==)"/><path d="M 156.030002 305.380005 A 1.95 1.95 0 0 1 154.080002 307.330005 A 1.95 1.95 0 0 1 152.130002 305.380005 A 1.95 1.95 0 0 1 154.080002 303.430005 A 1.95 1.95 0 0 1 156.030002 305.380005 Z" style="stroke-width: 0.71; stroke: rgb(230, 171, 2); fill: rgb(230, 171, 2); stroke-linecap: round; stroke-linejoin: round; stroke-miterlimit: 10;" clip-path="url(#cpNjkuMDF8NTY2LjkzfDM4MC43OXwyOC4zNQ==)"/><path d="M 171.629993 293.220001 A 1.95 1.95 0 0 1 169.679993 295.170001 A 1.95 1.95 0 0 1 167.729993 293.220001 A 1.95 1.95 0 0 1 169.679993 291.270001 A 1.95 1.95 0 0 1 171.629993 293.220001 Z" style="stroke-width: 0.71; stroke: rgb(230, 171, 2); fill: rgb(230, 171, 2); stroke-linecap: round; stroke-linejoin: round; stroke-miterlimit: 10;" clip-path="url(#cpNjkuMDF8NTY2LjkzfDM4MC43OXwyOC4zNQ==)"/><path d="M 187.239993 281.399994 A 1.95 1.95 0 0 1 185.289993 283.349994 A 1.95 1.95 0 0 1 183.339993 281.399994 A 1.95 1.95 0 0 1 185.289993 279.449994 A 1.95 1.95 0 0 1 187.239993 281.399994 Z" style="stroke-width: 0.71; stroke: rgb(230, 171, 2); fill: rgb(230, 171, 2); stroke-linecap: round; stroke-linejoin: round; stroke-miterlimit: 10;" clip-path="url(#cpNjkuMDF8NTY2LjkzfDM4MC43OXwyOC4zNQ==)"/><path d="M 202.849994 269.459991 A 1.95 1.95 0 0 1 200.899994 271.409992 A 1.95 1.95 0 0 1 198.949994 269.459991 A 1.95 1.95 0 0 1 200.899994 267.509991 A 1.95 1.95 0 0 1 202.849994 269.459991 Z" style="stroke-width: 0.71; stroke: rgb(230, 171, 2); fill: rgb(230, 171, 2); stroke-linecap: round; stroke-linejoin: round; stroke-miterlimit: 10;" clip-path="url(#cpNjkuMDF8NTY2LjkzfDM4MC43OXwyOC4zNQ==)"/><path d="M 218.459995 256.98999 A 1.95 1.95 0 0 1 216.509995 258.93999 A 1.95 1.95 0 0 1 214.559994 256.98999 A 1.95 1.95 0 0 1 216.509995 255.03999 A 1.95 1.95 0 0 1 218.459995 256.98999 Z" style="stroke-width: 0.71; stroke: rgb(230, 171, 2); fill: rgb(230, 171, 2); stroke-linecap: round; stroke-linejoin: round; stroke-miterlimit: 10;" clip-path="url(#cpNjkuMDF8NTY2LjkzfDM4MC43OXwyOC4zNQ==)"/><path d="M 234.069995 245.320007 A 1.95 1.95 0 0 1 232.119995 247.270007 A 1.95 1.95 0 0 1 230.169995 245.320007 A 1.95 1.95 0 0 1 232.119995 243.370007 A 1.95 1.95 0 0 1 234.069995 245.320007 Z" style="stroke-width: 0.71; stroke: rgb(230, 171, 2); fill: rgb(230, 171, 2); stroke-linecap: round; stroke-linejoin: round; stroke-miterlimit: 10;" clip-path="url(#cpNjkuMDF8NTY2LjkzfDM4MC43OXwyOC4zNQ==)"/><path d="M 249.679996 233.449997 A 1.95 1.95 0 0 1 247.729996 235.399997 A 1.95 1.95 0 0 1 245.779996 233.449997 A 1.95 1.95 0 0 1 247.729996 231.499997 A 1.95 1.95 0 0 1 249.679996 233.449997 Z" style="stroke-width: 0.71; stroke: rgb(230, 171, 2); fill: rgb(230, 171, 2); stroke-linecap: round; stroke-linejoin: round; stroke-miterlimit: 10;" clip-path="url(#cpNjkuMDF8NTY2LjkzfDM4MC43OXwyOC4zNQ==)"/><path d="M 265.289996 221.160004 A 1.95 1.95 0 0 1 263.339996 223.110004 A 1.95 1.95 0 0 1 261.389996 221.160004 A 1.95 1.95 0 0 1 263.339996 219.210004 A 1.95 1.95 0 0 1 265.289996 221.160004 Z" style="stroke-width: 0.71; stroke: rgb(230, 171, 2); fill: rgb(230, 171, 2); stroke-linecap: round; stroke-linejoin: round; stroke-miterlimit: 10;" clip-path="url(#cpNjkuMDF8NTY2LjkzfDM4MC43OXwyOC4zNQ==)"/><path d="M 280.900012 209.210007 A 1.95 1.95 0 0 1 278.950012 211.160007 A 1.95 1.95 0 0 1 277.000012 209.210007 A 1.95 1.95 0 0 1 278.950012 207.260007 A 1.95 1.95 0 0 1 280.900012 209.210007 Z" style="stroke-width: 0.71; stroke: rgb(230, 171, 2); fill: rgb(230, 171, 2); stroke-linecap: round; stroke-linejoin: round; stroke-miterlimit: 10;" clip-path="url(#cpNjkuMDF8NTY2LjkzfDM4MC43OXwyOC4zNQ==)"/><path d="M 296.509998 197.330002 A 1.95 1.95 0 0 1 294.559998 199.280002 A 1.95 1.95 0 0 1 292.609998 197.330002 A 1.95 1.95 0 0 1 294.559998 195.380002 A 1.95 1.95 0 0 1 296.509998 197.330002 Z" style="stroke-width: 0.71; stroke: rgb(230, 171, 2); fill: rgb(230, 171, 2); stroke-linecap: round; stroke-linejoin: round; stroke-miterlimit: 10;" clip-path="url(#cpNjkuMDF8NTY2LjkzfDM4MC43OXwyOC4zNQ==)"/><path d="M 312.110004 185.240005 A 1.95 1.95 0 0 1 310.160004 187.190006 A 1.95 1.95 0 0 1 308.210004 185.240005 A 1.95 1.95 0 0 1 310.160004 183.290005 A 1.95 1.95 0 0 1 312.110004 185.240005 Z" style="stroke-width: 0.71; stroke: rgb(230, 171, 2); fill: rgb(230, 171, 2); stroke-linecap: round; stroke-linejoin: round; stroke-miterlimit: 10;" clip-path="url(#cpNjkuMDF8NTY2LjkzfDM4MC43OXwyOC4zNQ==)"/><path d="M 327.719989 173.320007 A 1.95 1.95 0 0 1 325.769989 175.270007 A 1.95 1.95 0 0 1 323.819989 173.320007 A 1.95 1.95 0 0 1 325.769989 171.370007 A 1.95 1.95 0 0 1 327.719989 173.320007 Z" style="stroke-width: 0.71; stroke: rgb(230, 171, 2); fill: rgb(230, 171, 2); stroke-linecap: round; stroke-linejoin: round; stroke-miterlimit: 10;" clip-path="url(#cpNjkuMDF8NTY2LjkzfDM4MC43OXwyOC4zNQ==)"/><path d="M 343.330005 161.460007 A 1.95 1.95 0 0 1 341.380005 163.410007 A 1.95 1.95 0 0 1 339.430005 161.460007 A 1.95 1.95 0 0 1 341.380005 159.510007 A 1.95 1.95 0 0 1 343.330005 161.460007 Z" style="stroke-width: 0.71; stroke: rgb(230, 171, 2); fill: rgb(230, 171, 2); stroke-linecap: round; stroke-linejoin: round; stroke-miterlimit: 10;" clip-path="url(#cpNjkuMDF8NTY2LjkzfDM4MC43OXwyOC4zNQ==)"/><path d="M 358.93999 149.610001 A 1.95 1.95 0 0 1 356.98999 151.560001 A 1.95 1.95 0 0 1 355.03999 149.610001 A 1.95 1.95 0 0 1 356.98999 147.660001 A 1.95 1.95 0 0 1 358.93999 149.610001 Z" style="stroke-width: 0.71; stroke: rgb(230, 171, 2); fill: rgb(230, 171, 2); stroke-linecap: round; stroke-linejoin: round; stroke-miterlimit: 10;" clip-path="url(#cpNjkuMDF8NTY2LjkzfDM4MC43OXwyOC4zNQ==)"/><path d="M 374.550006 137.970001 A 1.95 1.95 0 0 1 372.600006 139.920001 A 1.95 1.95 0 0 1 370.650006 137.970001 A 1.95 1.95 0 0 1 372.600006 136.020001 A 1.95 1.95 0 0 1 374.550006 137.970001 Z" style="stroke-width: 0.71; stroke: rgb(230, 171, 2); fill: rgb(230, 171, 2); stroke-linecap: round; stroke-linejoin: round; stroke-miterlimit: 10;" clip-path="url(#cpNjkuMDF8NTY2LjkzfDM4MC43OXwyOC4zNQ==)"/><path d="M 390.159992 126.519997 A 1.95 1.95 0 0 1 388.209991 128.469997 A 1.95 1.95 0 0 1 386.259991 126.519997 A 1.95 1.95 0 0 1 388.209991 124.569997 A 1.95 1.95 0 0 1 390.159992 126.519997 Z" style="stroke-width: 0.71; stroke: rgb(230, 171, 2); fill: rgb(230, 171, 2); stroke-linecap: round; stroke-linejoin: round; stroke-miterlimit: 10;" clip-path="url(#cpNjkuMDF8NTY2LjkzfDM4MC43OXwyOC4zNQ==)"/><path d="M 405.770007 115.379997 A 1.95 1.95 0 0 1 403.820007 117.329997 A 1.95 1.95 0 0 1 401.870007 115.379997 A 1.95 1.95 0 0 1 403.820007 113.429997 A 1.95 1.95 0 0 1 405.770007 115.379997 Z" style="stroke-width: 0.71; stroke: rgb(230, 171, 2); fill: rgb(230, 171, 2); stroke-linecap: round; stroke-linejoin: round; stroke-miterlimit: 10;" clip-path="url(#cpNjkuMDF8NTY2LjkzfDM4MC43OXwyOC4zNQ==)"/><path d="M 421.379993 104.599998 A 1.95 1.95 0 0 1 419.429993 106.549999 A 1.95 1.95 0 0 1 417.479993 104.599998 A 1.95 1.95 0 0 1 419.429993 102.649998 A 1.95 1.95 0 0 1 421.379993 104.599998 Z" style="stroke-width: 0.71; stroke: rgb(230, 171, 2); fill: rgb(230, 171, 2); stroke-linecap: round; stroke-linejoin: round; stroke-miterlimit: 10;" clip-path="url(#cpNjkuMDF8NTY2LjkzfDM4MC43OXwyOC4zNQ==)"/><path d="M 436.979999 94.269997 A 1.95 1.95 0 0 1 435.029999 96.219997 A 1.95 1.95 0 0 1 433.079999 94.269997 A 1.95 1.95 0 0 1 435.029999 92.319997 A 1.95 1.95 0 0 1 436.979999 94.269997 Z" style="stroke-width: 0.71; stroke: rgb(230, 171, 2); fill: rgb(230, 171, 2); stroke-linecap: round; stroke-linejoin: round; stroke-miterlimit: 10;" clip-path="url(#cpNjkuMDF8NTY2LjkzfDM4MC43OXwyOC4zNQ==)"/><path d="M 452.590015 84.519997 A 1.95 1.95 0 0 1 450.640015 86.469997 A 1.95 1.95 0 0 1 448.690015 84.519997 A 1.95 1.95 0 0 1 450.640015 82.569997 A 1.95 1.95 0 0 1 452.590015 84.519997 Z" style="stroke-width: 0.71; stroke: rgb(230, 171, 2); fill: rgb(230, 171, 2); stroke-linecap: round; stroke-linejoin: round; stroke-miterlimit: 10;" clip-path="url(#cpNjkuMDF8NTY2LjkzfDM4MC43OXwyOC4zNQ==)"/><path d="M 468.2 75.43 A 1.95 1.95 0 0 1 466.25 77.38 A 1.95 1.95 0 0 1 464.3 75.43 A 1.95 1.95 0 0 1 466.25 73.48 A 1.95 1.95 0 0 1 468.2 75.43 Z" style="stroke-width: 0.71; stroke: rgb(230, 171, 2); fill: rgb(230, 171, 2); stroke-linecap: round; stroke-linejoin: round; stroke-miterlimit: 10;" clip-path="url(#cpNjkuMDF8NTY2LjkzfDM4MC43OXwyOC4zNQ==)"/><path d="M 483.809985 67.199997 A 1.95 1.95 0 0 1 481.859985 69.149997 A 1.95 1.95 0 0 1 479.909985 67.199997 A 1.95 1.95 0 0 1 481.859985 65.249997 A 1.95 1.95 0 0 1 483.809985 67.199997 Z" style="stroke-width: 0.71; stroke: rgb(230, 171, 2); fill: rgb(230, 171, 2); stroke-linecap: round; stroke-linejoin: round; stroke-miterlimit: 10;" clip-path="url(#cpNjkuMDF8NTY2LjkzfDM4MC43OXwyOC4zNQ==)"/><path d="M 499.420001 59.939999 A 1.95 1.95 0 0 1 497.470001 61.889999 A 1.95 1.95 0 0 1 495.520001 59.939999 A 1.95 1.95 0 0 1 497.470001 57.989999 A 1.95 1.95 0 0 1 499.420001 59.939999 Z" style="stroke-width: 0.71; stroke: rgb(230, 171, 2); fill: rgb(230, 171, 2); stroke-linecap: round; stroke-linejoin: round; stroke-miterlimit: 10;" clip-path="url(#cpNjkuMDF8NTY2LjkzfDM4MC43OXwyOC4zNQ==)"/><path d="M 515.030017 53.720001 A 1.95 1.95 0 0 1 513.080017 55.670001 A 1.95 1.95 0 0 1 511.130017 53.720001 A 1.95 1.95 0 0 1 513.080017 51.770001 A 1.95 1.95 0 0 1 515.030017 53.720001 Z" style="stroke-width: 0.71; stroke: rgb(230, 171, 2); fill: rgb(230, 171, 2); stroke-linecap: round; stroke-linejoin: round; stroke-miterlimit: 10;" clip-path="url(#cpNjkuMDF8NTY2LjkzfDM4MC43OXwyOC4zNQ==)"/><path d="M 530.640002 48.57 A 1.95 1.95 0 0 1 528.690002 50.52 A 1.95 1.95 0 0 1 526.740002 48.57 A 1.95 1.95 0 0 1 528.690002 46.62 A 1.95 1.95 0 0 1 530.640002 48.57 Z" style="stroke-width: 0.71; stroke: rgb(230, 171, 2); fill: rgb(230, 171, 2); stroke-linecap: round; stroke-linejoin: round; stroke-miterlimit: 10;" clip-path="url(#cpNjkuMDF8NTY2LjkzfDM4MC43OXwyOC4zNQ==)"/><path d="M 546.249988 44.619999 A 1.95 1.95 0 0 1 544.299988 46.569999 A 1.95 1.95 0 0 1 542.349988 44.619999 A 1.95 1.95 0 0 1 544.299988 42.669999 A 1.95 1.95 0 0 1 546.249988 44.619999 Z" style="stroke-width: 0.71; stroke: rgb(230, 171, 2); fill: rgb(230, 171, 2); stroke-linecap: round; stroke-linejoin: round; stroke-miterlimit: 10;" clip-path="url(#cpNjkuMDF8NTY2LjkzfDM4MC43OXwyOC4zNQ==)"/><path d="M 91.639999 355.209991 L 107.25 342.359985 L 122.860001 330.029999 L 138.470001 317.709991 L 154.080002 305.380005 L 169.679993 293.220001 L 185.289993 281.399994 L 200.899994 269.459991 L 216.509995 256.98999 L 232.119995 245.320007 L 247.729996 233.449997 L 263.339996 221.160004 L 278.950012 209.210007 L 294.559998 197.330002 L 310.160004 185.240005 L 325.769989 173.320007 L 341.380005 161.460007 L 356.98999 149.610001 L 372.600006 137.970001 L 388.209991 126.519997 L 403.820007 115.379997 L 419.429993 104.599998 L 435.029999 94.269997 L 450.640015 84.519997 L 466.25 75.43 L 481.859985 67.199997 L 497.470001 59.939999 L 513.080017 53.720001 L 528.690002 48.57 L 544.299988 44.619999" style="stroke-width: 2.13; stroke: rgb(230, 171, 2); stroke-linecap: butt; fill: none; stroke-linejoin: round; stroke-miterlimit: 10;" clip-path="url(#cpNjkuMDF8NTY2LjkzfDM4MC43OXwyOC4zNQ==)"/><path d="M 91.63999938964844 347.3999938964844 L 107.25 335.0799865722656 L 122.86000061035156 323.42999267578125 L 138.47000122070312 312.6600036621094 L 154.0800018310547 300.3299865722656 L 169.67999267578125 288.9100036621094 L 185.2899932861328 277.739990234375 L 200.89999389648438 266.1199951171875 L 216.50999450683594 254.07000732421875 L 232.1199951171875 242.75999450683594 L 247.72999572753906 231.25999450683594 L 263.3399963378906 219.22999572753906 L 278.95001220703125 207.5399932861328 L 294.55999755859375 195.85000610351562 L 310.1600036621094 183.9600067138672 L 325.7699890136719 172.1999969482422 L 341.3800048828125 160.5 L 356.989990234375 148.75 L 372.6000061035156 137.22000122070312 L 388.2099914550781 125.86000061035156 L 403.82000732421875 114.80000305175781 L 419.42999267578125 104.0999984741211 L 435.0299987792969 93.81999969482422 L 450.6400146484375 84.12000274658203 L 466.25 75.06999969482422 L 481.8599853515625 66.87000274658203 L 497.4700012207031 59.630001068115234 L 513.0800170898438 53.439998626708984 L 528.6900024414062 48.310001373291016 L 544.2999877929688 44.369998931884766 L 544.2999877929688 44.880001068115234 L 528.6900024414062 48.84000015258789 L 513.0800170898438 54 L 497.4700012207031 60.2400016784668 L 481.8599853515625 67.52999877929688 L 466.25 75.80000305175781 L 450.6400146484375 84.93000030517578 L 435.0299987792969 94.72000122070312 L 419.42999267578125 105.12000274658203 L 403.82000732421875 115.95999908447266 L 388.2099914550781 127.18000030517578 L 372.6000061035156 138.72999572753906 L 356.989990234375 150.47999572753906 L 341.3800048828125 162.4499969482422 L 325.7699890136719 174.47000122070312 L 310.1600036621094 186.5500030517578 L 294.55999755859375 198.86000061035156 L 278.95001220703125 210.9499969482422 L 263.3399963378906 223.17999267578125 L 247.72999572753906 235.75999450683594 L 232.1199951171875 248.0399932861328 L 216.50999450683594 260.1400146484375 L 200.89999389648438 273.0899963378906 L 185.2899932861328 285.4100036621094 L 169.67999267578125 298.0199890136719 L 154.0800018310547 311.1000061035156 L 138.47000122070312 323.42999267578125 L 122.86000061035156 337.8399963378906 L 107.25 351.1300048828125 L 91.63999938964844 364.7699890136719 Z" style="stroke-width: 0.75; stroke: none; fill: rgb(230, 171, 2); fill-opacity: 0.3; stroke-linecap: round; stroke-linejoin: round; stroke-miterlimit: 10;" clip-path="url(#cpNjkuMDF8NTY2LjkzfDM4MC43OXwyOC4zNQ==)"/><path d="M 91.639999 347.399994 L 107.25 335.079987 L 122.860001 323.429993 L 138.470001 312.660004 L 154.080002 300.329987 L 169.679993 288.910004 L 185.289993 277.73999 L 200.899994 266.119995 L 216.509995 254.070007 L 232.119995 242.759995 L 247.729996 231.259995 L 263.339996 219.229996 L 278.950012 207.539993 L 294.559998 195.850006 L 310.160004 183.960007 L 325.769989 172.199997 L 341.380005 160.5 L 356.98999 148.75 L 372.600006 137.220001 L 388.209991 125.860001 L 403.820007 114.800003 L 419.429993 104.099998 L 435.029999 93.82 L 450.640015 84.120003 L 466.25 75.07 L 481.859985 66.870003 L 497.470001 59.630001 L 513.080017 53.439999 L 528.690002 48.310001 L 544.299988 44.369999" style="stroke-width: 1.07; stroke: none; fill: none; stroke-linecap: round; stroke-linejoin: round; stroke-miterlimit: 10;" clip-path="url(#cpNjkuMDF8NTY2LjkzfDM4MC43OXwyOC4zNQ==)"/><path d="M 544.299988 44.880001 L 528.690002 48.84 L 513.080017 54 L 497.470001 60.240002 L 481.859985 67.529999 L 466.25 75.800003 L 450.640015 84.93 L 435.029999 94.720001 L 419.429993 105.120003 L 403.820007 115.959999 L 388.209991 127.18 L 372.600006 138.729996 L 356.98999 150.479996 L 341.380005 162.449997 L 325.769989 174.470001 L 310.160004 186.550003 L 294.559998 198.860001 L 278.950012 210.949997 L 263.339996 223.179993 L 247.729996 235.759995 L 232.119995 248.039993 L 216.509995 260.140015 L 200.899994 273.089996 L 185.289993 285.410004 L 169.679993 298.019989 L 154.080002 311.100006 L 138.470001 323.429993 L 122.860001 337.839996 L 107.25 351.130005 L 91.639999 364.769989" style="stroke-width: 1.07; stroke: none; fill: none; stroke-linecap: round; stroke-linejoin: round; stroke-miterlimit: 10;" clip-path="url(#cpNjkuMDF8NTY2LjkzfDM4MC43OXwyOC4zNQ==)"/><path d="M 69.010002 126.080002 L 566.929993 126.080002" style="stroke-width: 1.07; stroke: rgb(227, 26, 28); stroke-dasharray: 5.69, 5.69; stroke-linecap: butt; fill: none; stroke-linejoin: round; stroke-miterlimit: 10;" clip-path="url(#cpNjkuMDF8NTY2LjkzfDM4MC43OXwyOC4zNQ==)"/><g clip-path="url(#cpNjkuMDF8NTY2LjkzfDM4MC43OXwyOC4zNQ==)"><text x="89.35" y="121.07" style="font-size: 14.23px; font-weight: bold; fill: rgb(227, 26, 28); font-family: Arial; white-space: pre;" textLength="35.81px" lengthAdjust="spacingAndGlyphs">100%</text></g><path d="M 69.010002 155.770004 L 566.929993 155.770004" style="stroke-width: 1.07; stroke: rgb(31, 120, 180); stroke-dasharray: 5.69, 5.69; stroke-linecap: butt; fill: none; stroke-linejoin: round; stroke-miterlimit: 10;" clip-path="url(#cpNjkuMDF8NTY2LjkzfDM4MC43OXwyOC4zNQ==)"/><g clip-path="url(#cpNjkuMDF8NTY2LjkzfDM4MC43OXwyOC4zNQ==)"><text x="93.24" y="150.77" style="font-size: 14.23px; font-weight: bold; fill: rgb(31, 120, 180); font-family: Arial; white-space: pre;" textLength="28.02px" lengthAdjust="spacingAndGlyphs">50%</text></g><path d="M 69.010002 28.35 H 566.930016 V 380.800013 H 69.010002 V 28.35 Z" style="stroke-width: 1.07; stroke: rgb(51, 51, 51); fill: none; stroke-linecap: round; stroke-linejoin: round; stroke-miterlimit: 10;" clip-path="url(#cpNjkuMDF8NTY2LjkzfDM4MC43OXwyOC4zNQ==)"/><g clip-path="url(#cpMC4wMHw1OTUuMjh8NDI1LjIwfDAuMDA=)"><text x="57.40" y="327.67" style="font-size: 12px; font-weight: bold; fill: rgb(77, 77, 77); font-family: Arial; white-space: pre;" textLength="6.67px" lengthAdjust="spacingAndGlyphs">1</text></g><g clip-path="url(#cpMC4wMHw1OTUuMjh8NDI1LjIwfDAuMDA=)"><text x="50.73" y="229.02" style="font-size: 12px; font-weight: bold; fill: rgb(77, 77, 77); font-family: Arial; white-space: pre;" textLength="13.35px" lengthAdjust="spacingAndGlyphs">10</text></g><g clip-path="url(#cpMC4wMHw1OTUuMjh8NDI1LjIwfDAuMDA=)"><text x="44.05" y="130.37" style="font-size: 12px; font-weight: bold; fill: rgb(77, 77, 77); font-family: Arial; white-space: pre;" textLength="20.02px" lengthAdjust="spacingAndGlyphs">100</text></g><path d="M 66.269997 323.380005 L 69.010002 323.380005" style="stroke-width: 1.07; stroke: rgb(51, 51, 51); stroke-linecap: butt; fill: none; stroke-linejoin: round; stroke-miterlimit: 10;" clip-path="url(#cpMC4wMHw1OTUuMjh8NDI1LjIwfDAuMDA=)"/><path d="M 66.269997 224.729996 L 69.010002 224.729996" style="stroke-width: 1.07; stroke: rgb(51, 51, 51); stroke-linecap: butt; fill: none; stroke-linejoin: round; stroke-miterlimit: 10;" clip-path="url(#cpMC4wMHw1OTUuMjh8NDI1LjIwfDAuMDA=)"/><path d="M 66.269997 126.080002 L 69.010002 126.080002" style="stroke-width: 1.07; stroke: rgb(51, 51, 51); stroke-linecap: butt; fill: none; stroke-linejoin: round; stroke-miterlimit: 10;" clip-path="url(#cpMC4wMHw1OTUuMjh8NDI1LjIwfDAuMDA=)"/><path d="M 122.860001 383.529999 L 122.860001 380.790009" style="stroke-width: 1.07; stroke: rgb(51, 51, 51); stroke-linecap: butt; fill: none; stroke-linejoin: round; stroke-miterlimit: 10;" clip-path="url(#cpMC4wMHw1OTUuMjh8NDI1LjIwfDAuMDA=)"/><path d="M 232.119995 383.529999 L 232.119995 380.790009" style="stroke-width: 1.07; stroke: rgb(51, 51, 51); stroke-linecap: butt; fill: none; stroke-linejoin: round; stroke-miterlimit: 10;" clip-path="url(#cpMC4wMHw1OTUuMjh8NDI1LjIwfDAuMDA=)"/><path d="M 341.380005 383.529999 L 341.380005 380.790009" style="stroke-width: 1.07; stroke: rgb(51, 51, 51); stroke-linecap: butt; fill: none; stroke-linejoin: round; stroke-miterlimit: 10;" clip-path="url(#cpMC4wMHw1OTUuMjh8NDI1LjIwfDAuMDA=)"/><path d="M 450.640015 383.529999 L 450.640015 380.790009" style="stroke-width: 1.07; stroke: rgb(51, 51, 51); stroke-linecap: butt; fill: none; stroke-linejoin: round; stroke-miterlimit: 10;" clip-path="url(#cpMC4wMHw1OTUuMjh8NDI1LjIwfDAuMDA=)"/><path d="M 559.909973 383.529999 L 559.909973 380.790009" style="stroke-width: 1.07; stroke: rgb(51, 51, 51); stroke-linecap: butt; fill: none; stroke-linejoin: round; stroke-miterlimit: 10;" clip-path="url(#cpMC4wMHw1OTUuMjh8NDI1LjIwfDAuMDA=)"/><g clip-path="url(#cpMC4wMHw1OTUuMjh8NDI1LjIwfDAuMDA=)"><text x="103.85" y="394.32" style="font-size: 12px; font-weight: bold; fill: rgb(77, 77, 77); font-family: Arial; white-space: pre;" textLength="38.02px" lengthAdjust="spacingAndGlyphs">Mar 16</text></g><g clip-path="url(#cpMC4wMHw1OTUuMjh8NDI1LjIwfDAuMDA=)"><text x="213.11" y="394.32" style="font-size: 12px; font-weight: bold; fill: rgb(77, 77, 77); font-family: Arial; white-space: pre;" textLength="38.02px" lengthAdjust="spacingAndGlyphs">Mar 23</text></g><g clip-path="url(#cpMC4wMHw1OTUuMjh8NDI1LjIwfDAuMDA=)"><text x="322.37" y="394.32" style="font-size: 12px; font-weight: bold; fill: rgb(77, 77, 77); font-family: Arial; white-space: pre;" textLength="38.02px" lengthAdjust="spacingAndGlyphs">Mar 30</text></g><g clip-path="url(#cpMC4wMHw1OTUuMjh8NDI1LjIwfDAuMDA=)"><text x="431.97" y="394.32" style="font-size: 12px; font-weight: bold; fill: rgb(77, 77, 77); font-family: Arial; white-space: pre;" textLength="37.35px" lengthAdjust="spacingAndGlyphs">Apr 06</text></g><g clip-path="url(#cpMC4wMHw1OTUuMjh8NDI1LjIwfDAuMDA=)"><text x="541.23" y="394.32" style="font-size: 12px; font-weight: bold; fill: rgb(77, 77, 77); font-family: Arial; white-space: pre;" textLength="37.35px" lengthAdjust="spacingAndGlyphs">Apr 13</text></g><g clip-path="url(#cpMC4wMHw1OTUuMjh8NDI1LjIwfDAuMDA=)"><text transform="translate(38.36,333.30) rotate(-90)" style="font-size: 14px; font-weight: bold; font-family: Arial; white-space: pre;" textLength="257.47px" lengthAdjust="spacingAndGlyphs">% (log) de UTI ocupadas por COVID-19</text></g><path d="M 375.779999 328.690002 H 558.910004 V 362.410004 H 375.779999 V 328.690002 Z" style="stroke-width: 1.07; fill: rgb(255, 255, 255); stroke: rgb(0, 0, 0); stroke-linecap: round; stroke-linejoin: round; stroke-miterlimit: 10;" clip-path="url(#cpMC4wMHw1OTUuMjh8NDI1LjIwfDAuMDA=)"/><path d="M 381.26001 339.649994 H 398.54001 V 356.929995 H 381.26001 V 339.649994 Z" style="stroke-width: 1.07; stroke: none; fill: rgb(255, 255, 255); stroke-linecap: round; stroke-linejoin: round; stroke-miterlimit: 10;" clip-path="url(#cpMC4wMHw1OTUuMjh8NDI1LjIwfDAuMDA=)"/><path d="M 391.849994 348.290009 A 1.95 1.95 0 0 1 389.899994 350.240009 A 1.95 1.95 0 0 1 387.949994 348.290009 A 1.95 1.95 0 0 1 389.899994 346.340008 A 1.95 1.95 0 0 1 391.849994 348.290009 Z" style="stroke-width: 0.71; stroke: rgb(230, 171, 2); fill: rgb(230, 171, 2); stroke-linecap: round; stroke-linejoin: round; stroke-miterlimit: 10;" clip-path="url(#cpMC4wMHw1OTUuMjh8NDI1LjIwfDAuMDA=)"/><path d="M 382.98999 348.290009 L 396.809998 348.290009" style="stroke-width: 2.13; stroke: rgb(230, 171, 2); stroke-linecap: butt; fill: none; stroke-linejoin: round; stroke-miterlimit: 10;" clip-path="url(#cpMC4wMHw1OTUuMjh8NDI1LjIwfDAuMDA=)"/><g clip-path="url(#cpMC4wMHw1OTUuMjh8NDI1LjIwfDAuMDA=)"><text x="404.02" y="352.59" style="font-size: 12px; font-family: Arial; white-space: pre;" textLength="149.41px" lengthAdjust="spacingAndGlyphs">modelo sem distanciamento</text></g></g></svg>