<?xml version="1.0" encoding="utf-8"?>
<svg id="master-artboard" viewBox="0 0 1099.802978515625 736.7177124023438" version="1.1" xmlns="http://www.w3.org/2000/svg" x="0px" y="0px" style="enable-background:new 0 0 1400 980;" width="1099.802978515625px" height="736.7177124023438px"><defs><clipPath id="cpNjkuMDF8NTY2LjkzfDM4MC43OXwyOC4zNQ==">
    <path d="M 69.010002 28.35 H 566.930016 V 380.800013 H 69.010002 V 28.35 Z" style="fill: none; stroke: rgb(0, 0, 0); stroke-linecap: round; stroke-linejoin: round; stroke-miterlimit: 10;"/>
  </clipPath><clipPath id="cpMC4wMHw1OTUuMjh8NDI1LjIwfDAuMDA=">
    <path d="M 0 0 H 595.280029 V 425.200012 H 0 V 0 Z" style="fill: none; stroke: rgb(0, 0, 0); stroke-linecap: round; stroke-linejoin: round; stroke-miterlimit: 10;"/>
  </clipPath></defs><rect id="ee-background" x="0" y="0" width="1099.802978515625" height="736.7177124023438" style="fill: white; fill-opacity: 0; pointer-events: none;"/><g transform="matrix(1.9950966835021973, 0, 0, 1.9950966835021973, -54.52080154418945, -55.7987060546875)"><path d="M 0 0 H 595.280029 V 425.200012 H 0 V 0 Z" style="stroke: none; fill: rgb(255, 255, 255); stroke-linecap: round; stroke-linejoin: round; stroke-miterlimit: 10;"/><path d="M 0 0 H 595.280029 V 425.200012 H 0 V 0 Z" style="stroke-width: 1.07; stroke: rgb(255, 255, 255); fill: rgb(255, 255, 255); stroke-linecap: round; stroke-linejoin: round; stroke-miterlimit: 10;"/><path d="M 69.010002 28.35 H 566.930016 V 380.800013 H 69.010002 V 28.35 Z" style="stroke-width: 1.07; stroke: none; fill: rgb(255, 255, 255); stroke-linecap: round; stroke-linejoin: round; stroke-miterlimit: 10;" clip-path="url(#cpNjkuMDF8NTY2LjkzfDM4MC43OXwyOC4zNQ==)"/><path d="M 69.010002 334.549988 L 566.929993 334.549988" style="stroke-width: 0.53; stroke: rgb(235, 235, 235); stroke-linecap: butt; fill: none; stroke-linejoin: round; stroke-miterlimit: 10;" clip-path="url(#cpNjkuMDF8NTY2LjkzfDM4MC43OXwyOC4zNQ==)"/><path d="M 69.010002 234.990005 L 566.929993 234.990005" style="stroke-width: 0.53; stroke: rgb(235, 235, 235); stroke-linecap: butt; fill: none; stroke-linejoin: round; stroke-miterlimit: 10;" clip-path="url(#cpNjkuMDF8NTY2LjkzfDM4MC43OXwyOC4zNQ==)"/><path d="M 69.010002 135.440002 L 566.929993 135.440002" style="stroke-width: 0.53; stroke: rgb(235, 235, 235); stroke-linecap: butt; fill: none; stroke-linejoin: round; stroke-miterlimit: 10;" clip-path="url(#cpNjkuMDF8NTY2LjkzfDM4MC43OXwyOC4zNQ==)"/><path d="M 69.010002 35.880001 L 566.929993 35.880001" style="stroke-width: 0.53; stroke: rgb(235, 235, 235); stroke-linecap: butt; fill: none; stroke-linejoin: round; stroke-miterlimit: 10;" clip-path="url(#cpNjkuMDF8NTY2LjkzfDM4MC43OXwyOC4zNQ==)"/><path d="M 177.490005 380.790009 L 177.490005 28.35" style="stroke-width: 0.53; stroke: rgb(235, 235, 235); stroke-linecap: butt; fill: none; stroke-linejoin: round; stroke-miterlimit: 10;" clip-path="url(#cpNjkuMDF8NTY2LjkzfDM4MC43OXwyOC4zNQ==)"/><path d="M 286.75 380.790009 L 286.75 28.35" style="stroke-width: 0.53; stroke: rgb(235, 235, 235); stroke-linecap: butt; fill: none; stroke-linejoin: round; stroke-miterlimit: 10;" clip-path="url(#cpNjkuMDF8NTY2LjkzfDM4MC43OXwyOC4zNQ==)"/><path d="M 396.01001 380.790009 L 396.01001 28.35" style="stroke-width: 0.53; stroke: rgb(235, 235, 235); stroke-linecap: butt; fill: none; stroke-linejoin: round; stroke-miterlimit: 10;" clip-path="url(#cpNjkuMDF8NTY2LjkzfDM4MC43OXwyOC4zNQ==)"/><path d="M 505.269989 380.790009 L 505.269989 28.35" style="stroke-width: 0.53; stroke: rgb(235, 235, 235); stroke-linecap: butt; fill: none; stroke-linejoin: round; stroke-miterlimit: 10;" clip-path="url(#cpNjkuMDF8NTY2LjkzfDM4MC43OXwyOC4zNQ==)"/><path d="M 69.010002 284.769989 L 566.929993 284.769989" style="stroke-width: 1.07; stroke: rgb(235, 235, 235); stroke-linecap: butt; fill: none; stroke-linejoin: round; stroke-miterlimit: 10;" clip-path="url(#cpNjkuMDF8NTY2LjkzfDM4MC43OXwyOC4zNQ==)"/><path d="M 69.010002 185.210007 L 566.929993 185.210007" style="stroke-width: 1.07; stroke: rgb(235, 235, 235); stroke-linecap: butt; fill: none; stroke-linejoin: round; stroke-miterlimit: 10;" clip-path="url(#cpNjkuMDF8NTY2LjkzfDM4MC43OXwyOC4zNQ==)"/><path d="M 69.010002 85.660004 L 566.929993 85.660004" style="stroke-width: 1.07; stroke: rgb(235, 235, 235); stroke-linecap: butt; fill: none; stroke-linejoin: round; stroke-miterlimit: 10;" clip-path="url(#cpNjkuMDF8NTY2LjkzfDM4MC43OXwyOC4zNQ==)"/><path d="M 122.860001 380.790009 L 122.860001 28.35" style="stroke-width: 1.07; stroke: rgb(235, 235, 235); stroke-linecap: butt; fill: none; stroke-linejoin: round; stroke-miterlimit: 10;" clip-path="url(#cpNjkuMDF8NTY2LjkzfDM4MC43OXwyOC4zNQ==)"/><path d="M 232.119995 380.790009 L 232.119995 28.35" style="stroke-width: 1.07; stroke: rgb(235, 235, 235); stroke-linecap: butt; fill: none; stroke-linejoin: round; stroke-miterlimit: 10;" clip-path="url(#cpNjkuMDF8NTY2LjkzfDM4MC43OXwyOC4zNQ==)"/><path d="M 341.380005 380.790009 L 341.380005 28.35" style="stroke-width: 1.07; stroke: rgb(235, 235, 235); stroke-linecap: butt; fill: none; stroke-linejoin: round; stroke-miterlimit: 10;" clip-path="url(#cpNjkuMDF8NTY2LjkzfDM4MC43OXwyOC4zNQ==)"/><path d="M 450.640015 380.790009 L 450.640015 28.35" style="stroke-width: 1.07; stroke: rgb(235, 235, 235); stroke-linecap: butt; fill: none; stroke-linejoin: round; stroke-miterlimit: 10;" clip-path="url(#cpNjkuMDF8NTY2LjkzfDM4MC43OXwyOC4zNQ==)"/><path d="M 559.909973 380.790009 L 559.909973 28.35" style="stroke-width: 1.07; stroke: rgb(235, 235, 235); stroke-linecap: butt; fill: none; stroke-linejoin: round; stroke-miterlimit: 10;" clip-path="url(#cpNjkuMDF8NTY2LjkzfDM4MC43OXwyOC4zNQ==)"/><path d="M 91.639999 358.690002 L 107.25 346.440002 L 122.860001 333.859985 L 138.470001 321.209991 L 154.080002 308.769989 L 169.679993 296.570007 L 185.289993 284.570007 L 200.899994 272.369995 L 216.509995 259.959991 L 232.119995 248.130005 L 247.729996 236.139999 L 263.339996 223.800003 L 278.950012 211.729996 L 294.559998 199.729996 L 310.160004 187.559998 L 325.769989 175.509995 L 341.380005 163.470001 L 356.98999 151.5 L 372.600006 139.740005 L 388.209991 128.149994 L 403.820007 116.889999 L 419.429993 105.970001 L 435.029999 95.489998 L 450.640015 85.580002 L 466.25 76.300003 L 481.859985 67.870003 L 497.470001 60.400002 L 513.080017 54 L 528.690002 48.650002 L 544.299988 44.52" style="stroke-width: 2.13; stroke: rgb(230, 171, 2); stroke-linecap: butt; fill: none; stroke-linejoin: round; stroke-miterlimit: 10;" clip-path="url(#cpNjkuMDF8NTY2LjkzfDM4MC43OXwyOC4zNQ==)"/><path d="M 93.589999 358.690002 A 1.95 1.95 0 0 1 91.639999 360.640002 A 1.95 1.95 0 0 1 89.689999 358.690002 A 1.95 1.95 0 0 1 91.639999 356.740002 A 1.95 1.95 0 0 1 93.589999 358.690002 Z" style="stroke-width: 0.71; stroke: rgb(230, 171, 2); fill: rgb(230, 171, 2); stroke-linecap: round; stroke-linejoin: round; stroke-miterlimit: 10;" clip-path="url(#cpNjkuMDF8NTY2LjkzfDM4MC43OXwyOC4zNQ==)"/><path d="M 109.2 346.440002 A 1.95 1.95 0 0 1 107.25 348.390002 A 1.95 1.95 0 0 1 105.3 346.440002 A 1.95 1.95 0 0 1 107.25 344.490002 A 1.95 1.95 0 0 1 109.2 346.440002 Z" style="stroke-width: 0.71; stroke: rgb(230, 171, 2); fill: rgb(230, 171, 2); stroke-linecap: round; stroke-linejoin: round; stroke-miterlimit: 10;" clip-path="url(#cpNjkuMDF8NTY2LjkzfDM4MC43OXwyOC4zNQ==)"/><path d="M 124.810001 333.859985 A 1.95 1.95 0 0 1 122.860001 335.809985 A 1.95 1.95 0 0 1 120.910001 333.859985 A 1.95 1.95 0 0 1 122.860001 331.909985 A 1.95 1.95 0 0 1 124.810001 333.859985 Z" style="stroke-width: 0.71; stroke: rgb(230, 171, 2); fill: rgb(230, 171, 2); stroke-linecap: round; stroke-linejoin: round; stroke-miterlimit: 10;" clip-path="url(#cpNjkuMDF8NTY2LjkzfDM4MC43OXwyOC4zNQ==)"/><path d="M 140.420001 321.209991 A 1.95 1.95 0 0 1 138.470001 323.159992 A 1.95 1.95 0 0 1 136.520001 321.209991 A 1.95 1.95 0 0 1 138.470001 319.259991 A 1.95 1.95 0 0 1 140.420001 321.209991 Z" style="stroke-width: 0.71; stroke: rgb(230, 171, 2); fill: rgb(230, 171, 2); stroke-linecap: round; stroke-linejoin: round; stroke-miterlimit: 10;" clip-path="url(#cpNjkuMDF8NTY2LjkzfDM4MC43OXwyOC4zNQ==)"/><path d="M 156.030002 308.769989 A 1.95 1.95 0 0 1 154.080002 310.719989 A 1.95 1.95 0 0 1 152.130002 308.769989 A 1.95 1.95 0 0 1 154.080002 306.819989 A 1.95 1.95 0 0 1 156.030002 308.769989 Z" style="stroke-width: 0.71; stroke: rgb(230, 171, 2); fill: rgb(230, 171, 2); stroke-linecap: round; stroke-linejoin: round; stroke-miterlimit: 10;" clip-path="url(#cpNjkuMDF8NTY2LjkzfDM4MC43OXwyOC4zNQ==)"/><path d="M 171.629993 296.570007 A 1.95 1.95 0 0 1 169.679993 298.520007 A 1.95 1.95 0 0 1 167.729993 296.570007 A 1.95 1.95 0 0 1 169.679993 294.620007 A 1.95 1.95 0 0 1 171.629993 296.570007 Z" style="stroke-width: 0.71; stroke: rgb(230, 171, 2); fill: rgb(230, 171, 2); stroke-linecap: round; stroke-linejoin: round; stroke-miterlimit: 10;" clip-path="url(#cpNjkuMDF8NTY2LjkzfDM4MC43OXwyOC4zNQ==)"/><path d="M 187.239993 284.570007 A 1.95 1.95 0 0 1 185.289993 286.520007 A 1.95 1.95 0 0 1 183.339993 284.570007 A 1.95 1.95 0 0 1 185.289993 282.620007 A 1.95 1.95 0 0 1 187.239993 284.570007 Z" style="stroke-width: 0.71; stroke: rgb(230, 171, 2); fill: rgb(230, 171, 2); stroke-linecap: round; stroke-linejoin: round; stroke-miterlimit: 10;" clip-path="url(#cpNjkuMDF8NTY2LjkzfDM4MC43OXwyOC4zNQ==)"/><path d="M 202.849994 272.369995 A 1.95 1.95 0 0 1 200.899994 274.319995 A 1.95 1.95 0 0 1 198.949994 272.369995 A 1.95 1.95 0 0 1 200.899994 270.419995 A 1.95 1.95 0 0 1 202.849994 272.369995 Z" style="stroke-width: 0.71; stroke: rgb(230, 171, 2); fill: rgb(230, 171, 2); stroke-linecap: round; stroke-linejoin: round; stroke-miterlimit: 10;" clip-path="url(#cpNjkuMDF8NTY2LjkzfDM4MC43OXwyOC4zNQ==)"/><path d="M 218.459995 259.959991 A 1.95 1.95 0 0 1 216.509995 261.909992 A 1.95 1.95 0 0 1 214.559994 259.959991 A 1.95 1.95 0 0 1 216.509995 258.009991 A 1.95 1.95 0 0 1 218.459995 259.959991 Z" style="stroke-width: 0.71; stroke: rgb(230, 171, 2); fill: rgb(230, 171, 2); stroke-linecap: round; stroke-linejoin: round; stroke-miterlimit: 10;" clip-path="url(#cpNjkuMDF8NTY2LjkzfDM4MC43OXwyOC4zNQ==)"/><path d="M 234.069995 248.130005 A 1.95 1.95 0 0 1 232.119995 250.080005 A 1.95 1.95 0 0 1 230.169995 248.130005 A 1.95 1.95 0 0 1 232.119995 246.180005 A 1.95 1.95 0 0 1 234.069995 248.130005 Z" style="stroke-width: 0.71; stroke: rgb(230, 171, 2); fill: rgb(230, 171, 2); stroke-linecap: round; stroke-linejoin: round; stroke-miterlimit: 10;" clip-path="url(#cpNjkuMDF8NTY2LjkzfDM4MC43OXwyOC4zNQ==)"/><path d="M 249.679996 236.139999 A 1.95 1.95 0 0 1 247.729996 238.089999 A 1.95 1.95 0 0 1 245.779996 236.139999 A 1.95 1.95 0 0 1 247.729996 234.189999 A 1.95 1.95 0 0 1 249.679996 236.139999 Z" style="stroke-width: 0.71; stroke: rgb(230, 171, 2); fill: rgb(230, 171, 2); stroke-linecap: round; stroke-linejoin: round; stroke-miterlimit: 10;" clip-path="url(#cpNjkuMDF8NTY2LjkzfDM4MC43OXwyOC4zNQ==)"/><path d="M 265.289996 223.800003 A 1.95 1.95 0 0 1 263.339996 225.750003 A 1.95 1.95 0 0 1 261.389996 223.800003 A 1.95 1.95 0 0 1 263.339996 221.850003 A 1.95 1.95 0 0 1 265.289996 223.800003 Z" style="stroke-width: 0.71; stroke: rgb(230, 171, 2); fill: rgb(230, 171, 2); stroke-linecap: round; stroke-linejoin: round; stroke-miterlimit: 10;" clip-path="url(#cpNjkuMDF8NTY2LjkzfDM4MC43OXwyOC4zNQ==)"/><path d="M 280.900012 211.729996 A 1.95 1.95 0 0 1 278.950012 213.679996 A 1.95 1.95 0 0 1 277.000012 211.729996 A 1.95 1.95 0 0 1 278.950012 209.779996 A 1.95 1.95 0 0 1 280.900012 211.729996 Z" style="stroke-width: 0.71; stroke: rgb(230, 171, 2); fill: rgb(230, 171, 2); stroke-linecap: round; stroke-linejoin: round; stroke-miterlimit: 10;" clip-path="url(#cpNjkuMDF8NTY2LjkzfDM4MC43OXwyOC4zNQ==)"/><path d="M 296.509998 199.729996 A 1.95 1.95 0 0 1 294.559998 201.679996 A 1.95 1.95 0 0 1 292.609998 199.729996 A 1.95 1.95 0 0 1 294.559998 197.779996 A 1.95 1.95 0 0 1 296.509998 199.729996 Z" style="stroke-width: 0.71; stroke: rgb(230, 171, 2); fill: rgb(230, 171, 2); stroke-linecap: round; stroke-linejoin: round; stroke-miterlimit: 10;" clip-path="url(#cpNjkuMDF8NTY2LjkzfDM4MC43OXwyOC4zNQ==)"/><path d="M 312.110004 187.559998 A 1.95 1.95 0 0 1 310.160004 189.509998 A 1.95 1.95 0 0 1 308.210004 187.559998 A 1.95 1.95 0 0 1 310.160004 185.609998 A 1.95 1.95 0 0 1 312.110004 187.559998 Z" style="stroke-width: 0.71; stroke: rgb(230, 171, 2); fill: rgb(230, 171, 2); stroke-linecap: round; stroke-linejoin: round; stroke-miterlimit: 10;" clip-path="url(#cpNjkuMDF8NTY2LjkzfDM4MC43OXwyOC4zNQ==)"/><path d="M 327.719989 175.509995 A 1.95 1.95 0 0 1 325.769989 177.459995 A 1.95 1.95 0 0 1 323.819989 175.509995 A 1.95 1.95 0 0 1 325.769989 173.559994 A 1.95 1.95 0 0 1 327.719989 175.509995 Z" style="stroke-width: 0.71; stroke: rgb(230, 171, 2); fill: rgb(230, 171, 2); stroke-linecap: round; stroke-linejoin: round; stroke-miterlimit: 10;" clip-path="url(#cpNjkuMDF8NTY2LjkzfDM4MC43OXwyOC4zNQ==)"/><path d="M 343.330005 163.470001 A 1.95 1.95 0 0 1 341.380005 165.420001 A 1.95 1.95 0 0 1 339.430005 163.470001 A 1.95 1.95 0 0 1 341.380005 161.520001 A 1.95 1.95 0 0 1 343.330005 163.470001 Z" style="stroke-width: 0.71; stroke: rgb(230, 171, 2); fill: rgb(230, 171, 2); stroke-linecap: round; stroke-linejoin: round; stroke-miterlimit: 10;" clip-path="url(#cpNjkuMDF8NTY2LjkzfDM4MC43OXwyOC4zNQ==)"/><path d="M 358.93999 151.5 A 1.95 1.95 0 0 1 356.98999 153.45 A 1.95 1.95 0 0 1 355.03999 151.5 A 1.95 1.95 0 0 1 356.98999 149.55 A 1.95 1.95 0 0 1 358.93999 151.5 Z" style="stroke-width: 0.71; stroke: rgb(230, 171, 2); fill: rgb(230, 171, 2); stroke-linecap: round; stroke-linejoin: round; stroke-miterlimit: 10;" clip-path="url(#cpNjkuMDF8NTY2LjkzfDM4MC43OXwyOC4zNQ==)"/><path d="M 374.550006 139.740005 A 1.95 1.95 0 0 1 372.600006 141.690006 A 1.95 1.95 0 0 1 370.650006 139.740005 A 1.95 1.95 0 0 1 372.600006 137.790005 A 1.95 1.95 0 0 1 374.550006 139.740005 Z" style="stroke-width: 0.71; stroke: rgb(230, 171, 2); fill: rgb(230, 171, 2); stroke-linecap: round; stroke-linejoin: round; stroke-miterlimit: 10;" clip-path="url(#cpNjkuMDF8NTY2LjkzfDM4MC43OXwyOC4zNQ==)"/><path d="M 390.159992 128.149994 A 1.95 1.95 0 0 1 388.209991 130.099994 A 1.95 1.95 0 0 1 386.259991 128.149994 A 1.95 1.95 0 0 1 388.209991 126.199994 A 1.95 1.95 0 0 1 390.159992 128.149994 Z" style="stroke-width: 0.71; stroke: rgb(230, 171, 2); fill: rgb(230, 171, 2); stroke-linecap: round; stroke-linejoin: round; stroke-miterlimit: 10;" clip-path="url(#cpNjkuMDF8NTY2LjkzfDM4MC43OXwyOC4zNQ==)"/><path d="M 405.770007 116.889999 A 1.95 1.95 0 0 1 403.820007 118.839999 A 1.95 1.95 0 0 1 401.870007 116.889999 A 1.95 1.95 0 0 1 403.820007 114.939999 A 1.95 1.95 0 0 1 405.770007 116.889999 Z" style="stroke-width: 0.71; stroke: rgb(230, 171, 2); fill: rgb(230, 171, 2); stroke-linecap: round; stroke-linejoin: round; stroke-miterlimit: 10;" clip-path="url(#cpNjkuMDF8NTY2LjkzfDM4MC43OXwyOC4zNQ==)"/><path d="M 421.379993 105.970001 A 1.95 1.95 0 0 1 419.429993 107.920001 A 1.95 1.95 0 0 1 417.479993 105.970001 A 1.95 1.95 0 0 1 419.429993 104.020001 A 1.95 1.95 0 0 1 421.379993 105.970001 Z" style="stroke-width: 0.71; stroke: rgb(230, 171, 2); fill: rgb(230, 171, 2); stroke-linecap: round; stroke-linejoin: round; stroke-miterlimit: 10;" clip-path="url(#cpNjkuMDF8NTY2LjkzfDM4MC43OXwyOC4zNQ==)"/><path d="M 436.979999 95.489998 A 1.95 1.95 0 0 1 435.029999 97.439998 A 1.95 1.95 0 0 1 433.079999 95.489998 A 1.95 1.95 0 0 1 435.029999 93.539998 A 1.95 1.95 0 0 1 436.979999 95.489998 Z" style="stroke-width: 0.71; stroke: rgb(230, 171, 2); fill: rgb(230, 171, 2); stroke-linecap: round; stroke-linejoin: round; stroke-miterlimit: 10;" clip-path="url(#cpNjkuMDF8NTY2LjkzfDM4MC43OXwyOC4zNQ==)"/><path d="M 452.590015 85.580002 A 1.95 1.95 0 0 1 450.640015 87.530002 A 1.95 1.95 0 0 1 448.690015 85.580002 A 1.95 1.95 0 0 1 450.640015 83.630002 A 1.95 1.95 0 0 1 452.590015 85.580002 Z" style="stroke-width: 0.71; stroke: rgb(230, 171, 2); fill: rgb(230, 171, 2); stroke-linecap: round; stroke-linejoin: round; stroke-miterlimit: 10;" clip-path="url(#cpNjkuMDF8NTY2LjkzfDM4MC43OXwyOC4zNQ==)"/><path d="M 468.2 76.300003 A 1.95 1.95 0 0 1 466.25 78.250003 A 1.95 1.95 0 0 1 464.3 76.300003 A 1.95 1.95 0 0 1 466.25 74.350003 A 1.95 1.95 0 0 1 468.2 76.300003 Z" style="stroke-width: 0.71; stroke: rgb(230, 171, 2); fill: rgb(230, 171, 2); stroke-linecap: round; stroke-linejoin: round; stroke-miterlimit: 10;" clip-path="url(#cpNjkuMDF8NTY2LjkzfDM4MC43OXwyOC4zNQ==)"/><path d="M 483.809985 67.870003 A 1.95 1.95 0 0 1 481.859985 69.820003 A 1.95 1.95 0 0 1 479.909985 67.870003 A 1.95 1.95 0 0 1 481.859985 65.920003 A 1.95 1.95 0 0 1 483.809985 67.870003 Z" style="stroke-width: 0.71; stroke: rgb(230, 171, 2); fill: rgb(230, 171, 2); stroke-linecap: round; stroke-linejoin: round; stroke-miterlimit: 10;" clip-path="url(#cpNjkuMDF8NTY2LjkzfDM4MC43OXwyOC4zNQ==)"/><path d="M 499.420001 60.400002 A 1.95 1.95 0 0 1 497.470001 62.350002 A 1.95 1.95 0 0 1 495.520001 60.400002 A 1.95 1.95 0 0 1 497.470001 58.450001 A 1.95 1.95 0 0 1 499.420001 60.400002 Z" style="stroke-width: 0.71; stroke: rgb(230, 171, 2); fill: rgb(230, 171, 2); stroke-linecap: round; stroke-linejoin: round; stroke-miterlimit: 10;" clip-path="url(#cpNjkuMDF8NTY2LjkzfDM4MC43OXwyOC4zNQ==)"/><path d="M 515.030017 54 A 1.95 1.95 0 0 1 513.080017 55.95 A 1.95 1.95 0 0 1 511.130017 54 A 1.95 1.95 0 0 1 513.080017 52.05 A 1.95 1.95 0 0 1 515.030017 54 Z" style="stroke-width: 0.71; stroke: rgb(230, 171, 2); fill: rgb(230, 171, 2); stroke-linecap: round; stroke-linejoin: round; stroke-miterlimit: 10;" clip-path="url(#cpNjkuMDF8NTY2LjkzfDM4MC43OXwyOC4zNQ==)"/><path d="M 530.640002 48.650002 A 1.95 1.95 0 0 1 528.690002 50.600002 A 1.95 1.95 0 0 1 526.740002 48.650002 A 1.95 1.95 0 0 1 528.690002 46.700001 A 1.95 1.95 0 0 1 530.640002 48.650002 Z" style="stroke-width: 0.71; stroke: rgb(230, 171, 2); fill: rgb(230, 171, 2); stroke-linecap: round; stroke-linejoin: round; stroke-miterlimit: 10;" clip-path="url(#cpNjkuMDF8NTY2LjkzfDM4MC43OXwyOC4zNQ==)"/><path d="M 546.249988 44.52 A 1.95 1.95 0 0 1 544.299988 46.470001 A 1.95 1.95 0 0 1 542.349988 44.52 A 1.95 1.95 0 0 1 544.299988 42.57 A 1.95 1.95 0 0 1 546.249988 44.52 Z" style="stroke-width: 0.71; stroke: rgb(230, 171, 2); fill: rgb(230, 171, 2); stroke-linecap: round; stroke-linejoin: round; stroke-miterlimit: 10;" clip-path="url(#cpNjkuMDF8NTY2LjkzfDM4MC43OXwyOC4zNQ==)"/><path d="M 91.63999938964844 353.3500061035156 L 107.25 341.7699890136719 L 122.86000061035156 329.7900085449219 L 138.47000122070312 317.67999267578125 L 154.0800018310547 305.69000244140625 L 169.67999267578125 293.8800048828125 L 185.2899932861328 282.2300109863281 L 200.89999389648438 270.3299865722656 L 216.50999450683594 258.17999267578125 L 232.1199951171875 246.5800018310547 L 247.72999572753906 234.7899932861328 L 263.3399963378906 222.6300048828125 L 278.95001220703125 210.6999969482422 L 294.55999755859375 198.83999633789062 L 310.1600036621094 186.77999877929688 L 325.7699890136719 174.8300018310547 L 341.3800048828125 162.8800048828125 L 356.989990234375 150.99000549316406 L 372.6000061035156 139.2899932861328 L 388.2099914550781 127.75 L 403.82000732421875 116.54000091552734 L 419.42999267578125 105.66999816894531 L 435.0299987792969 95.22000122070312 L 450.6400146484375 85.33999633789062 L 466.25 76.08000183105469 L 481.8599853515625 67.66999816894531 L 497.4700012207031 60.220001220703125 L 513.0800170898438 53.83000183105469 L 528.6900024414062 48.5 L 544.2999877929688 44.369998931884766 L 544.2999877929688 44.66999816894531 L 528.6900024414062 48.810001373291016 L 513.0800170898438 54.15999984741211 L 497.4700012207031 60.58000183105469 L 481.8599853515625 68.05999755859375 L 466.25 76.51000213623047 L 450.6400146484375 85.83000183105469 L 435.0299987792969 95.76000213623047 L 419.42999267578125 106.27999877929688 L 403.82000732421875 117.23999786376953 L 388.2099914550781 128.5399932861328 L 372.6000061035156 140.19000244140625 L 356.989990234375 152.02000427246094 L 341.3800048828125 164.07000732421875 L 325.7699890136719 176.1999969482422 L 310.1600036621094 188.35000610351562 L 294.55999755859375 200.64999389648438 L 278.95001220703125 212.77999877929688 L 263.3399963378906 225.00999450683594 L 247.72999572753906 237.5399932861328 L 232.1199951171875 249.74000549316406 L 216.50999450683594 261.80999755859375 L 200.89999389648438 274.5199890136719 L 185.2899932861328 287.04998779296875 L 169.67999267578125 299.42999267578125 L 154.0800018310547 312.0799865722656 L 138.47000122070312 325.05999755859375 L 122.86000061035156 338.3399963378906 L 107.25 351.6700134277344 L 91.63999938964844 364.7699890136719 Z" style="stroke-width: 0.75; stroke: none; fill: rgb(230, 171, 2); fill-opacity: 0.3; stroke-linecap: round; stroke-linejoin: round; stroke-miterlimit: 10;" clip-path="url(#cpNjkuMDF8NTY2LjkzfDM4MC43OXwyOC4zNQ==)"/><path d="M 91.639999 353.350006 L 107.25 341.769989 L 122.860001 329.790009 L 138.470001 317.679993 L 154.080002 305.690002 L 169.679993 293.880005 L 185.289993 282.230011 L 200.899994 270.329987 L 216.509995 258.179993 L 232.119995 246.580002 L 247.729996 234.789993 L 263.339996 222.630005 L 278.950012 210.699997 L 294.559998 198.839996 L 310.160004 186.779999 L 325.769989 174.830002 L 341.380005 162.880005 L 356.98999 150.990005 L 372.600006 139.289993 L 388.209991 127.75 L 403.820007 116.540001 L 419.429993 105.669998 L 435.029999 95.220001 L 450.640015 85.339996 L 466.25 76.080002 L 481.859985 67.669998 L 497.470001 60.220001 L 513.080017 53.830002 L 528.690002 48.5 L 544.299988 44.369999" style="stroke-width: 1.07; stroke: none; fill: none; stroke-linecap: round; stroke-linejoin: round; stroke-miterlimit: 10;" clip-path="url(#cpNjkuMDF8NTY2LjkzfDM4MC43OXwyOC4zNQ==)"/><path d="M 544.299988 44.669998 L 528.690002 48.810001 L 513.080017 54.16 L 497.470001 60.580002 L 481.859985 68.059998 L 466.25 76.510002 L 450.640015 85.830002 L 435.029999 95.760002 L 419.429993 106.279999 L 403.820007 117.239998 L 388.209991 128.539993 L 372.600006 140.190002 L 356.98999 152.020004 L 341.380005 164.070007 L 325.769989 176.199997 L 310.160004 188.350006 L 294.559998 200.649994 L 278.950012 212.779999 L 263.339996 225.009995 L 247.729996 237.539993 L 232.119995 249.740005 L 216.509995 261.809998 L 200.899994 274.519989 L 185.289993 287.049988 L 169.679993 299.429993 L 154.080002 312.079987 L 138.470001 325.059998 L 122.860001 338.339996 L 107.25 351.670013 L 91.639999 364.769989" style="stroke-width: 1.07; stroke: none; fill: none; stroke-linecap: round; stroke-linejoin: round; stroke-miterlimit: 10;" clip-path="url(#cpNjkuMDF8NTY2LjkzfDM4MC43OXwyOC4zNQ==)"/><path d="M 93.059999 360.980011 A 1.42 1.42 0 0 1 91.639999 362.400011 A 1.42 1.42 0 0 1 90.219999 360.980011 A 1.42 1.42 0 0 1 91.639999 359.560011 A 1.42 1.42 0 0 1 93.059999 360.980011 Z" style="stroke-width: 0.71; fill: rgb(0, 0, 0); stroke: rgb(0, 0, 0); stroke-linecap: round; stroke-linejoin: round; stroke-miterlimit: 10;" clip-path="url(#cpNjkuMDF8NTY2LjkzfDM4MC43OXwyOC4zNQ==)"/><path d="M 108.67 345.880005 A 1.42 1.42 0 0 1 107.25 347.300005 A 1.42 1.42 0 0 1 105.83 345.880005 A 1.42 1.42 0 0 1 107.25 344.460005 A 1.42 1.42 0 0 1 108.67 345.880005 Z" style="stroke-width: 0.71; fill: rgb(0, 0, 0); stroke: rgb(0, 0, 0); stroke-linecap: round; stroke-linejoin: round; stroke-miterlimit: 10;" clip-path="url(#cpNjkuMDF8NTY2LjkzfDM4MC43OXwyOC4zNQ==)"/><path d="M 124.280001 335.130005 A 1.42 1.42 0 0 1 122.860001 336.550005 A 1.42 1.42 0 0 1 121.440001 335.130005 A 1.42 1.42 0 0 1 122.860001 333.710005 A 1.42 1.42 0 0 1 124.280001 335.130005 Z" style="stroke-width: 0.71; fill: rgb(0, 0, 0); stroke: rgb(0, 0, 0); stroke-linecap: round; stroke-linejoin: round; stroke-miterlimit: 10;" clip-path="url(#cpNjkuMDF8NTY2LjkzfDM4MC43OXwyOC4zNQ==)"/><path d="M 139.890001 319.670013 A 1.42 1.42 0 0 1 138.470001 321.090013 A 1.42 1.42 0 0 1 137.050001 319.670013 A 1.42 1.42 0 0 1 138.470001 318.250013 A 1.42 1.42 0 0 1 139.890001 319.670013 Z" style="stroke-width: 0.71; fill: rgb(0, 0, 0); stroke: rgb(0, 0, 0); stroke-linecap: round; stroke-linejoin: round; stroke-miterlimit: 10;" clip-path="url(#cpNjkuMDF8NTY2LjkzfDM4MC43OXwyOC4zNQ==)"/><path d="M 155.500002 305.600006 A 1.42 1.42 0 0 1 154.080002 307.020006 A 1.42 1.42 0 0 1 152.660002 305.600006 A 1.42 1.42 0 0 1 154.080002 304.180006 A 1.42 1.42 0 0 1 155.500002 305.600006 Z" style="stroke-width: 0.71; fill: rgb(0, 0, 0); stroke: rgb(0, 0, 0); stroke-linecap: round; stroke-linejoin: round; stroke-miterlimit: 10;" clip-path="url(#cpNjkuMDF8NTY2LjkzfDM4MC43OXwyOC4zNQ==)"/><path d="M 171.099993 294.660004 A 1.42 1.42 0 0 1 169.679993 296.080004 A 1.42 1.42 0 0 1 168.259993 294.660004 A 1.42 1.42 0 0 1 169.679993 293.240004 A 1.42 1.42 0 0 1 171.099993 294.660004 Z" style="stroke-width: 0.71; fill: rgb(0, 0, 0); stroke: rgb(0, 0, 0); stroke-linecap: round; stroke-linejoin: round; stroke-miterlimit: 10;" clip-path="url(#cpNjkuMDF8NTY2LjkzfDM4MC43OXwyOC4zNQ==)"/><path d="M 69.010002 85.660004 L 566.929993 85.660004" style="stroke-width: 1.07; stroke: rgb(227, 26, 28); stroke-dasharray: 5.69, 5.69; stroke-linecap: butt; fill: none; stroke-linejoin: round; stroke-miterlimit: 10;" clip-path="url(#cpNjkuMDF8NTY2LjkzfDM4MC43OXwyOC4zNQ==)"/><g clip-path="url(#cpNjkuMDF8NTY2LjkzfDM4MC43OXwyOC4zNQ==)"><text x="89.35" y="80.65" style="font-size: 14.23px; font-weight: bold; fill: rgb(227, 26, 28); font-family: Arial; white-space: pre;" textLength="35.81px" lengthAdjust="spacingAndGlyphs">100%</text></g><path d="M 69.010002 115.629997 L 566.929993 115.629997" style="stroke-width: 1.07; stroke: rgb(31, 120, 180); stroke-dasharray: 5.69, 5.69; stroke-linecap: butt; fill: none; stroke-linejoin: round; stroke-miterlimit: 10;" clip-path="url(#cpNjkuMDF8NTY2LjkzfDM4MC43OXwyOC4zNQ==)"/><g clip-path="url(#cpNjkuMDF8NTY2LjkzfDM4MC43OXwyOC4zNQ==)"><text x="93.24" y="110.62" style="font-size: 14.23px; font-weight: bold; fill: rgb(31, 120, 180); font-family: Arial; white-space: pre;" textLength="28.02px" lengthAdjust="spacingAndGlyphs">50%</text></g><path d="M 69.010002 28.35 H 566.930016 V 380.800013 H 69.010002 V 28.35 Z" style="stroke-width: 1.07; stroke: rgb(51, 51, 51); fill: none; stroke-linecap: round; stroke-linejoin: round; stroke-miterlimit: 10;" clip-path="url(#cpNjkuMDF8NTY2LjkzfDM4MC43OXwyOC4zNQ==)"/><g clip-path="url(#cpMC4wMHw1OTUuMjh8NDI1LjIwfDAuMDA=)"><text x="57.40" y="289.07" style="font-size: 12px; font-weight: bold; fill: rgb(77, 77, 77); font-family: Arial; white-space: pre;" textLength="6.67px" lengthAdjust="spacingAndGlyphs">1</text></g><g clip-path="url(#cpMC4wMHw1OTUuMjh8NDI1LjIwfDAuMDA=)"><text x="50.73" y="189.51" style="font-size: 12px; font-weight: bold; fill: rgb(77, 77, 77); font-family: Arial; white-space: pre;" textLength="13.35px" lengthAdjust="spacingAndGlyphs">10</text></g><g clip-path="url(#cpMC4wMHw1OTUuMjh8NDI1LjIwfDAuMDA=)"><text x="44.05" y="89.95" style="font-size: 12px; font-weight: bold; fill: rgb(77, 77, 77); font-family: Arial; white-space: pre;" textLength="20.02px" lengthAdjust="spacingAndGlyphs">100</text></g><path d="M 66.269997 284.769989 L 69.010002 284.769989" style="stroke-width: 1.07; stroke: rgb(51, 51, 51); stroke-linecap: butt; fill: none; stroke-linejoin: round; stroke-miterlimit: 10;" clip-path="url(#cpMC4wMHw1OTUuMjh8NDI1LjIwfDAuMDA=)"/><path d="M 66.269997 185.210007 L 69.010002 185.210007" style="stroke-width: 1.07; stroke: rgb(51, 51, 51); stroke-linecap: butt; fill: none; stroke-linejoin: round; stroke-miterlimit: 10;" clip-path="url(#cpMC4wMHw1OTUuMjh8NDI1LjIwfDAuMDA=)"/><path d="M 66.269997 85.660004 L 69.010002 85.660004" style="stroke-width: 1.07; stroke: rgb(51, 51, 51); stroke-linecap: butt; fill: none; stroke-linejoin: round; stroke-miterlimit: 10;" clip-path="url(#cpMC4wMHw1OTUuMjh8NDI1LjIwfDAuMDA=)"/><path d="M 122.860001 383.529999 L 122.860001 380.790009" style="stroke-width: 1.07; stroke: rgb(51, 51, 51); stroke-linecap: butt; fill: none; stroke-linejoin: round; stroke-miterlimit: 10;" clip-path="url(#cpMC4wMHw1OTUuMjh8NDI1LjIwfDAuMDA=)"/><path d="M 232.119995 383.529999 L 232.119995 380.790009" style="stroke-width: 1.07; stroke: rgb(51, 51, 51); stroke-linecap: butt; fill: none; stroke-linejoin: round; stroke-miterlimit: 10;" clip-path="url(#cpMC4wMHw1OTUuMjh8NDI1LjIwfDAuMDA=)"/><path d="M 341.380005 383.529999 L 341.380005 380.790009" style="stroke-width: 1.07; stroke: rgb(51, 51, 51); stroke-linecap: butt; fill: none; stroke-linejoin: round; stroke-miterlimit: 10;" clip-path="url(#cpMC4wMHw1OTUuMjh8NDI1LjIwfDAuMDA=)"/><path d="M 450.640015 383.529999 L 450.640015 380.790009" style="stroke-width: 1.07; stroke: rgb(51, 51, 51); stroke-linecap: butt; fill: none; stroke-linejoin: round; stroke-miterlimit: 10;" clip-path="url(#cpMC4wMHw1OTUuMjh8NDI1LjIwfDAuMDA=)"/><path d="M 559.909973 383.529999 L 559.909973 380.790009" style="stroke-width: 1.07; stroke: rgb(51, 51, 51); stroke-linecap: butt; fill: none; stroke-linejoin: round; stroke-miterlimit: 10;" clip-path="url(#cpMC4wMHw1OTUuMjh8NDI1LjIwfDAuMDA=)"/><g clip-path="url(#cpMC4wMHw1OTUuMjh8NDI1LjIwfDAuMDA=)"><text x="103.85" y="394.32" style="font-size: 12px; font-weight: bold; fill: rgb(77, 77, 77); font-family: Arial; white-space: pre;" textLength="38.02px" lengthAdjust="spacingAndGlyphs">Mar 16</text></g><g clip-path="url(#cpMC4wMHw1OTUuMjh8NDI1LjIwfDAuMDA=)"><text x="213.11" y="394.32" style="font-size: 12px; font-weight: bold; fill: rgb(77, 77, 77); font-family: Arial; white-space: pre;" textLength="38.02px" lengthAdjust="spacingAndGlyphs">Mar 23</text></g><g clip-path="url(#cpMC4wMHw1OTUuMjh8NDI1LjIwfDAuMDA=)"><text x="322.37" y="394.32" style="font-size: 12px; font-weight: bold; fill: rgb(77, 77, 77); font-family: Arial; white-space: pre;" textLength="38.02px" lengthAdjust="spacingAndGlyphs">Mar 30</text></g><g clip-path="url(#cpMC4wMHw1OTUuMjh8NDI1LjIwfDAuMDA=)"><text x="431.97" y="394.32" style="font-size: 12px; font-weight: bold; fill: rgb(77, 77, 77); font-family: Arial; white-space: pre;" textLength="37.35px" lengthAdjust="spacingAndGlyphs">Apr 06</text></g><g clip-path="url(#cpMC4wMHw1OTUuMjh8NDI1LjIwfDAuMDA=)"><text x="541.23" y="394.32" style="font-size: 12px; font-weight: bold; fill: rgb(77, 77, 77); font-family: Arial; white-space: pre;" textLength="37.35px" lengthAdjust="spacingAndGlyphs">Apr 13</text></g><g clip-path="url(#cpMC4wMHw1OTUuMjh8NDI1LjIwfDAuMDA=)"><text transform="translate(38.36,340.69) rotate(-90)" style="font-size: 14px; font-weight: bold; font-family: Arial; white-space: pre;" textLength="272.25px" lengthAdjust="spacingAndGlyphs">% (log) de leitos ocupados por COVID-19</text></g><path d="M 375.779999 320.049988 H 558.910004 V 371.049988 H 375.779999 V 320.049988 Z" style="stroke-width: 1.07; fill: rgb(255, 255, 255); stroke: rgb(0, 0, 0); stroke-linecap: round; stroke-linejoin: round; stroke-miterlimit: 10;" clip-path="url(#cpMC4wMHw1OTUuMjh8NDI1LjIwfDAuMDA=)"/><path d="M 381.26001 331.01001 H 398.54001 V 348.29001 H 381.26001 V 331.01001 Z" style="stroke-width: 1.07; stroke: none; fill: rgb(255, 255, 255); stroke-linecap: round; stroke-linejoin: round; stroke-miterlimit: 10;" clip-path="url(#cpMC4wMHw1OTUuMjh8NDI1LjIwfDAuMDA=)"/><path d="M 391.849994 339.649994 A 1.95 1.95 0 0 1 389.899994 341.599994 A 1.95 1.95 0 0 1 387.949994 339.649994 A 1.95 1.95 0 0 1 389.899994 337.699994 A 1.95 1.95 0 0 1 391.849994 339.649994 Z" style="stroke-width: 0.71; fill: rgb(0, 0, 0); stroke: rgb(0, 0, 0); stroke-linecap: round; stroke-linejoin: round; stroke-miterlimit: 10;" clip-path="url(#cpMC4wMHw1OTUuMjh8NDI1LjIwfDAuMDA=)"/><path d="M 391.319994 339.649994 A 1.42 1.42 0 0 1 389.899994 341.069994 A 1.42 1.42 0 0 1 388.479994 339.649994 A 1.42 1.42 0 0 1 389.899994 338.229994 A 1.42 1.42 0 0 1 391.319994 339.649994 Z" style="stroke-width: 0.71; fill: rgb(0, 0, 0); stroke: rgb(0, 0, 0); stroke-linecap: round; stroke-linejoin: round; stroke-miterlimit: 10;" clip-path="url(#cpMC4wMHw1OTUuMjh8NDI1LjIwfDAuMDA=)"/><path d="M 381.26001 348.290009 H 398.54001 V 365.570009 H 381.26001 V 348.290009 Z" style="stroke-width: 1.07; stroke: none; fill: rgb(255, 255, 255); stroke-linecap: round; stroke-linejoin: round; stroke-miterlimit: 10;" clip-path="url(#cpMC4wMHw1OTUuMjh8NDI1LjIwfDAuMDA=)"/><path d="M 382.98999 356.929993 L 396.809998 356.929993" style="stroke-width: 2.13; stroke: rgb(230, 171, 2); stroke-linecap: butt; fill: none; stroke-linejoin: round; stroke-miterlimit: 10;" clip-path="url(#cpMC4wMHw1OTUuMjh8NDI1LjIwfDAuMDA=)"/><path d="M 391.849994 356.929993 A 1.95 1.95 0 0 1 389.899994 358.879993 A 1.95 1.95 0 0 1 387.949994 356.929993 A 1.95 1.95 0 0 1 389.899994 354.979993 A 1.95 1.95 0 0 1 391.849994 356.929993 Z" style="stroke-width: 0.71; stroke: rgb(230, 171, 2); fill: rgb(230, 171, 2); stroke-linecap: round; stroke-linejoin: round; stroke-miterlimit: 10;" clip-path="url(#cpMC4wMHw1OTUuMjh8NDI1LjIwfDAuMDA=)"/><path d="M 391.319994 356.929993 A 1.42 1.42 0 0 1 389.899994 358.349993 A 1.42 1.42 0 0 1 388.479994 356.929993 A 1.42 1.42 0 0 1 389.899994 355.509993 A 1.42 1.42 0 0 1 391.319994 356.929993 Z" style="stroke-width: 0.71; stroke: rgb(230, 171, 2); fill: rgb(230, 171, 2); stroke-linecap: round; stroke-linejoin: round; stroke-miterlimit: 10;" clip-path="url(#cpMC4wMHw1OTUuMjh8NDI1LjIwfDAuMDA=)"/><g clip-path="url(#cpMC4wMHw1OTUuMjh8NDI1LjIwfDAuMDA=)"><text x="404.02" y="343.95" style="font-size: 12px; font-family: Arial; white-space: pre;" textLength="112.05px" lengthAdjust="spacingAndGlyphs">dados SIVEP GRIPE</text></g><g clip-path="url(#cpMC4wMHw1OTUuMjh8NDI1LjIwfDAuMDA=)"><text x="404.02" y="361.23" style="font-size: 12px; font-family: Arial; white-space: pre;" textLength="149.41px" lengthAdjust="spacingAndGlyphs">modelo sem distanciamento</text></g></g></svg>