<?xml version="1.0" encoding="utf-8"?>
<svg id="master-artboard" viewBox="0 0 1268.3150634765625 848.3151245117188" version="1.1" xmlns="http://www.w3.org/2000/svg" x="0px" y="0px" style="enable-background:new 0 0 1400 980;" width="1268.3150634765625px" height="848.3151245117188px"><defs><clipPath id="cpNjkuMDF8NTY2LjkzfDM4MC43OXwyOC4zNQ==">
    <path d="M 69.010002 28.35 H 566.930016 V 380.800013 H 69.010002 V 28.35 Z" style="fill: none; stroke: rgb(0, 0, 0); stroke-linecap: round; stroke-linejoin: round; stroke-miterlimit: 10;"/>
  </clipPath><clipPath id="cpMC4wMHw1OTUuMjh8NDI1LjIwfDAuMDA=">
    <path d="M 0 0 H 595.280029 V 425.200012 H 0 V 0 Z" style="fill: none; stroke: rgb(0, 0, 0); stroke-linecap: round; stroke-linejoin: round; stroke-miterlimit: 10;"/>
  </clipPath></defs><rect id="ee-background" x="0" y="0" width="1268.3150634765625" height="848.3151245117188" style="fill: white; fill-opacity: 1; pointer-events: none;"/>

<g transform="matrix(1, 0, 0, 1, -78.11816406249818, -64.7264785766597)">
		<path class="st0" d="M378.6,242.1c0-0.1,0-0.2,0-0.2c-0.1-0.7-0.2-1.3-0.3-2c0-0.1,0-0.1,0-0.2c-1-4.8-3.7-9.1-7.3-12.1&#10;&#9;&#9;&#9;c-0.1,0-0.1-0.1-0.2-0.1c-1.9-1.5-4-2.8-6.4-3.6c-0.3-0.1-0.6-0.2-0.9-0.3c-0.4-0.1-0.8-0.2-1.2-0.3c-0.3-0.1-0.6-0.2-0.9-0.2&#10;&#9;&#9;&#9;c-0.5-0.1-0.9-0.2-1.4-0.2c-0.2,0-0.5-0.1-0.7-0.1c-0.7-0.1-1.4-0.1-2.1-0.1h-22.6c0,0,0,0,0,0c0,0,0,0,0,0H271H165&#10;&#9;&#9;&#9;c-11.9,0-21.5,9.7-21.5,21.5c0,2.9,0.6,5.8,1.7,8.3h182.8c1.9,0,3.4,1.5,3.4,3.4c0,1.9-1.5,3.4-3.4,3.4H149.6&#10;&#9;&#9;&#9;c3.9,4,9.4,6.5,15.4,6.5h192.2c8.9,0,16.5-5.4,19.8-13.1c0-0.1,0.1-0.1,0.1-0.2c0.5-1.2,0.9-2.5,1.2-3.8c0,0,0-0.1,0-0.1&#10;&#9;&#9;&#9;c0.1-0.6,0.2-1.3,0.3-2c0-0.1,0-0.2,0-0.3c0.1-0.7,0.1-1.3,0.1-2C378.7,243.5,378.7,242.8,378.6,242.1z M357.7,249.5&#10;&#9;&#9;&#9;c-2.9,0-5.3-2.4-5.3-5.3c0-2.9,2.4-5.3,5.3-5.3c2.9,0,5.3,2.4,5.3,5.3C363.1,247.1,360.7,249.5,357.7,249.5z" style="fill: rgb(172, 211, 110);"/>
		<g>
			<path class="st1" d="M353.9,229.2c-6.7,0-12.1,5.4-12.1,12.1c0,6.7,5.4,12.1,12.1,12.1c6.7,0,12.1-5.4,12.1-12.1&#10;&#9;&#9;&#9;&#9;C365.9,234.6,360.5,229.2,353.9,229.2z M353.9,246.6c-2.9,0-5.3-2.4-5.3-5.3c0-2.9,2.4-5.3,5.3-5.3c2.9,0,5.3,2.4,5.3,5.3&#10;&#9;&#9;&#9;&#9;C359.2,244.2,356.8,246.6,353.9,246.6z" style="fill: rgb(91, 80, 80);"/>
			<path class="st1" d="M370.3,218.7C370.3,218.7,370.3,218.7,370.3,218.7c-1.9-1.4-3.9-2.6-6.1-3.5L181.9,113.1&#10;&#9;&#9;&#9;&#9;c-1-0.5-2.2-0.6-3.2-0.1c-1,0.5-1.7,1.5-1.8,2.6c-3.8,29.5,10.4,58.4,36.1,73.4l41.6,24h-93.5c-15.6,0-28.3,12.7-28.3,28.3&#10;&#9;&#9;&#9;&#9;c0,4.7,1.1,9.1,3.2,13c0,0.1,0.1,0.1,0.1,0.2c4.7,9,14.2,15.1,25,15.1h192.2c10.7,0,20.1-6,24.9-14.8c0.2-0.3,0.4-0.6,0.6-1&#10;&#9;&#9;&#9;&#9;C385.5,241.7,381.8,226.4,370.3,218.7z M216.4,183.2c-16.6-9.7-27.9-25.8-31.8-44c3.2,1.8,6.5,3.7,10.1,5.5&#10;&#9;&#9;&#9;&#9;c0.5,0.2,1,0.4,1.5,0.4c1.2,0,2.4-0.7,3-1.9c0.8-1.7,0.1-3.7-1.5-4.5c-3.9-2-7.5-4-11.2-6.2c-0.9-0.5-1.8-1-2.6-1.5&#10;&#9;&#9;&#9;&#9;c-0.1-0.1-0.3-0.1-0.4-0.2c-0.3-3.1-0.3-6.2-0.2-9.3L346.5,213h-15c-19.5-10.6-39.3-21.6-58.4-32.2c-12.4-6.9-25.3-14-37.9-21&#10;&#9;&#9;&#9;&#9;c-1.6-0.9-3.7-0.3-4.6,1.3c-0.9,1.6-0.3,3.7,1.3,4.6c12.7,7,25.5,14.1,37.9,21c15.6,8.6,31.6,17.5,47.6,26.3H268L216.4,183.2z&#10;&#9;&#9;&#9;&#9; M353.3,262.8H161.1c-6,0-11.5-2.5-15.4-6.5H324c1.9,0,3.4-1.5,3.4-3.4c0-1.9-1.5-3.4-3.4-3.4H141.2c-1.1-2.6-1.7-5.4-1.7-8.3&#10;&#9;&#9;&#9;&#9;c0-11.9,9.7-21.5,21.5-21.5h106.1h63.6c0,0,0,0,0,0c0,0,0,0,0,0h22.6c0.7,0,1.4,0,2.1,0.1c0.2,0,0.5,0.1,0.7,0.1&#10;&#9;&#9;&#9;&#9;c0.5,0.1,0.9,0.1,1.4,0.2c0.3,0.1,0.6,0.1,0.9,0.2c0.4,0.1,0.8,0.2,1.2,0.3c0.3,0.1,0.6,0.2,0.9,0.3c2.3,0.8,4.5,2,6.4,3.6&#10;&#9;&#9;&#9;&#9;c0.1,0,0.1,0.1,0.2,0.1c3.7,3.1,6.3,7.3,7.3,12.1c0,0.1,0,0.1,0,0.2c0.1,0.6,0.2,1.3,0.3,2c0,0.1,0,0.1,0,0.2&#10;&#9;&#9;&#9;&#9;c0.1,0.7,0.1,1.4,0.1,2.1c0,0.7,0,1.4-0.1,2c0,0.1,0,0.2,0,0.3c-0.1,0.7-0.2,1.3-0.3,2c0,0,0,0.1,0,0.1c-0.3,1.3-0.7,2.6-1.2,3.8&#10;&#9;&#9;&#9;&#9;c0,0.1-0.1,0.1-0.1,0.2C369.8,257.4,362.2,262.8,353.3,262.8z" style="fill: rgb(91, 80, 80);"/>
			<path class="st1" d="M222.2,152.5c-3.8-2.2-7.5-4.3-11.2-6.4c-1.6-0.9-3.7-0.4-4.6,1.2c-0.9,1.6-0.4,3.7,1.2,4.6&#10;&#9;&#9;&#9;&#9;c3.6,2.1,7.4,4.2,11.2,6.4c0.5,0.3,1.1,0.4,1.7,0.4c1.2,0,2.3-0.6,2.9-1.7C224.4,155.5,223.8,153.4,222.2,152.5z" style="fill: rgb(91, 80, 80);"/>
		</g>
	</g><path class="st0" d="M885.4,95.6c-25.5,0-46.3,20.8-46.3,46.3c0,10.6,8.4,31,24.4,59c8.7,15.3,17.6,29.1,21.9,35.8&#10;&#9;&#9;&#9;c3.9-5.9,11.4-17.6,19.2-31c0.1-0.1,0.1-0.2,0.2-0.3c0.5-0.8,1-1.6,1.4-2.5c0.3-0.5,0.6-1.1,0.9-1.6c0.1-0.2,0.2-0.4,0.4-0.6&#10;&#9;&#9;&#9;c14.9-26.1,23.2-45.6,24.1-56.7c0.1-0.7,0.1-1.4,0.1-2.1C931.7,116.4,910.9,95.6,885.4,95.6z M884.7,165.6&#10;&#9;&#9;&#9;c-10.6,0-19.3-8.6-19.3-19.3s8.6-19.3,19.3-19.3s19.3,8.6,19.3,19.3S895.4,165.6,884.7,165.6z" style="fill: rgb(172, 211, 110);" transform="matrix(1, 0, 0, 1, -78.11816406249636, -64.72647857665925)"/><path class="st1" d="M950.6,125.8c-1-0.6-2.2-0.7-3.3-0.1l-13.2,6.7c-3.3-26.1-25.6-46.4-52.6-46.4c-27.1,0-49.5,20.4-52.6,46.6&#10;&#9;&#9;&#9;&#9;l-14-7c0,0-0.1,0-0.1,0c-0.1-0.1-0.2-0.1-0.4-0.1c-0.1,0-0.2-0.1-0.3-0.1c-0.1,0-0.2,0-0.4-0.1c-0.1,0-0.2,0-0.3,0&#10;&#9;&#9;&#9;&#9;c0,0-0.1,0-0.1,0c-0.1,0-0.2,0-0.3,0c-0.1,0-0.2,0-0.3,0c-0.1,0-0.3,0.1-0.4,0.1c-0.1,0-0.1,0-0.2,0.1l-65,25&#10;&#9;&#9;&#9;&#9;c-1.3,0.5-2.2,1.7-2.2,3.1v135.6c0,1.1,0.6,2.2,1.5,2.8c0.9,0.6,2.1,0.8,3.1,0.3l58.4-23.2l72.5,26.7c0.1,0,0.2,0.1,0.3,0.1&#10;&#9;&#9;&#9;&#9;c0.1,0,0.2,0.1,0.2,0.1c0.2,0,0.4,0.1,0.6,0.1c0.2,0,0.4,0,0.6-0.1c0.1,0,0.2,0,0.2-0.1c0.1,0,0.2,0,0.3-0.1l67.2-23.9&#10;&#9;&#9;&#9;&#9;c1.3-0.5,2.2-1.7,2.2-3.2V128.7C952.2,127.5,951.6,126.4,950.6,125.8z M881.5,92.7c25.5,0,46.3,20.8,46.3,46.3&#10;&#9;&#9;&#9;&#9;c0,0.7,0,1.4-0.1,2.1c-1,11.1-9.3,30.6-24.1,56.7c-0.1,0.2-0.2,0.4-0.4,0.6c-0.3,0.6-0.6,1.1-0.9,1.6c-0.5,0.8-1,1.7-1.4,2.5&#10;&#9;&#9;&#9;&#9;c-0.1,0.1-0.1,0.2-0.2,0.3c-7.8,13.4-15.3,25-19.2,31c-4.4-6.6-13.2-20.4-21.9-35.8c-15.9-28-24.4-48.4-24.4-59&#10;&#9;&#9;&#9;&#9;C835.2,113.5,856,92.7,881.5,92.7z M885,288v-22.4c0-1.9-1.5-3.4-3.4-3.4c-1.9,0-3.4,1.5-3.4,3.4V288l-66.9-24.7v-47.4&#10;&#9;&#9;&#9;&#9;c0-1.9-1.5-3.4-3.4-3.4c-1.9,0-3.4,1.5-3.4,3.4v47.5l-52.9,21v-71.9c0.5-0.4,1-0.9,1.5-1.3c1.4-1.2,1.6-3.3,0.4-4.7&#10;&#9;&#9;&#9;&#9;c-0.5-0.6-1.2-1-2-1.1V156l58.3-22.4v20.1c0,1.9,1.5,3.4,3.4,3.4c1.9,0,3.4-1.5,3.4-3.4v-19.6l11.7,5.8c0,0.4,0,0.9,0.1,1.3&#10;&#9;&#9;&#9;&#9;c0,0.1,0,0.2,0,0.3c0.1,0.6,0.1,1.3,0.2,1.9c0,0.3,0.1,0.5,0.1,0.8c0.1,0.6,0.2,1.2,0.3,1.8c1.8,9,6.5,21.2,14.3,36.4&#10;&#9;&#9;&#9;&#9;c0.4,0.8,0.8,1.6,1.3,2.5c0.2,0.4,0.4,0.8,0.6,1.2c14.1,27.1,32.1,53.9,33.4,55.7c0.6,0.9,1.7,1.5,2.8,1.5c0.6,0,1.1-0.1,1.6-0.4&#10;&#9;&#9;&#9;&#9;c0.5-0.3,0.9-0.6,1.2-1.1c1.2-1.8,19.2-28.4,33.2-55.5c0.3-0.5,0.5-1.1,0.8-1.6c0.3-0.6,0.7-1.3,1-1.9&#10;&#9;&#9;&#9;&#9;c7.9-15.5,12.7-27.8,14.4-36.9c0.1-0.5,0.2-0.9,0.2-1.3c0.1-0.4,0.1-0.7,0.2-1.1c0.1-0.6,0.2-1.2,0.2-1.8c0-0.2,0-0.3,0-0.5&#10;&#9;&#9;&#9;&#9;c0-0.5,0.1-1,0.1-1.5l10.9-5.5v75.3c-0.5,0.5-1,1-1.5,1.4c-1.4,1.3-1.5,3.4-0.2,4.8c0.5,0.5,1.1,0.9,1.7,1v49.9L885,288z" style="fill: rgb(91, 80, 80);" transform="matrix(1, 0, 0, 1, -78.11816406249454, -64.72647857665879)"/><path class="st1" d="M880.9,169.5c14.3,0,26-11.7,26-26c0-14.3-11.7-26-26-26c-14.3,0-26,11.7-26,26&#10;&#9;&#9;&#9;&#9;C854.9,157.8,866.5,169.5,880.9,169.5z M880.9,124.2c10.6,0,19.3,8.6,19.3,19.3s-8.6,19.3-19.3,19.3c-10.6,0-19.3-8.6-19.3-19.3&#10;&#9;&#9;&#9;&#9;S870.2,124.2,880.9,124.2z" style="fill: rgb(91, 80, 80);" transform="matrix(1, 0, 0, 1, -78.11816406249454, -64.72647857665879)"/><path class="st1" d="M904,234.3c-1.1,0.3-2.2,0.5-3.3,0.7c-1.8,0.3-3,2.1-2.7,3.9c0.3,1.6,1.7,2.7,3.3,2.7c0.2,0,0.4,0,0.6-0.1&#10;&#9;&#9;&#9;&#9;c1.2-0.2,2.5-0.5,3.7-0.8c1.8-0.4,2.9-2.3,2.5-4.1C907.7,235,905.8,233.9,904,234.3z" style="fill: rgb(91, 80, 80);" transform="matrix(1, 0, 0, 1, -78.11816406249454, -64.72647857665879)"/><path class="st1" d="M928.7,223c-2.3,1.6-4.7,3-7,4.3c-1.6,0.9-2.2,2.9-1.3,4.6c0.6,1.1,1.8,1.7,2.9,1.7c0.5,0,1.1-0.1,1.6-0.4&#10;&#9;&#9;&#9;&#9;c2.5-1.4,5-2.9,7.5-4.6c1.5-1,2-3.1,0.9-4.7C932.3,222.4,930.3,222,928.7,223z" style="fill: rgb(91, 80, 80);" transform="matrix(1, 0, 0, 1, -78.11816406249454, -64.72647857665879)"/><path class="st1" d="M768.4,192c-2,1.2-4,2.5-6.1,3.9c-1.5,1-1.9,3.1-0.9,4.7c0.7,1,1.7,1.5,2.8,1.5c0.7,0,1.3-0.2,1.9-0.6&#10;&#9;&#9;&#9;&#9;c1.9-1.3,3.9-2.6,5.8-3.7c1.6-0.9,2.1-3,1.2-4.6C772.1,191.5,770,191,768.4,192z" style="fill: rgb(91, 80, 80);" transform="matrix(1, 0, 0, 1, -78.11816406249454, -64.72647857665879)"/><path class="st1" d="M791.1,182.8c-2.4,0.5-4.8,1.1-7.2,1.9c-1.8,0.6-2.7,2.5-2.1,4.3c0.5,1.4,1.8,2.3,3.2,2.3&#10;&#9;&#9;&#9;&#9;c0.4,0,0.7-0.1,1.1-0.2c2.2-0.7,4.3-1.3,6.4-1.7c1.8-0.4,3-2.1,2.7-3.9C794.7,183.6,792.9,182.4,791.1,182.8z" style="fill: rgb(91, 80, 80);" transform="matrix(1, 0, 0, 1, -78.11816406249454, -64.72647857665879)"/><path class="st1" d="M850.5,218c-0.4-0.3-0.8-0.6-1.2-1c-1.2-0.9-2.3-1.8-3.2-2.7c0,0,0,0-0.1-0.1c-0.2-0.2-0.4-0.4-0.6-0.6&#10;&#9;&#9;&#9;&#9;c-1.3-1.3-3.5-1.2-4.8,0.1c-1.3,1.3-1.2,3.5,0.1,4.8c0.2,0.2,0.4,0.4,0.7,0.6c1.2,1.2,2.5,2.2,3.8,3.2c0.4,0.3,0.8,0.6,1.1,0.9&#10;&#9;&#9;&#9;&#9;c0.6,0.5,1.4,0.7,2.1,0.7c1,0,2-0.4,2.6-1.3C852.2,221.3,852,219.2,850.5,218z" style="fill: rgb(91, 80, 80);" transform="matrix(1, 0, 0, 1, -78.11816406249454, -64.72647857665879)"/><path class="st1" d="M816.1,185.3c-2.4-1.1-4.8-1.9-7.3-2.4c-1.8-0.4-3.6,0.7-4,2.5c-0.4,1.8,0.7,3.6,2.5,4c2.1,0.5,4.1,1.1,6,2&#10;&#9;&#9;&#9;&#9;c0.4,0.2,0.9,0.3,1.4,0.3c1.3,0,2.5-0.7,3.1-2C818.6,188.1,817.8,186.1,816.1,185.3z" style="fill: rgb(91, 80, 80);" transform="matrix(1, 0, 0, 1, -78.11816406249454, -64.72647857665879)"/><path class="st1" d="M829.8,196.4c-1.3-1.4-3.4-1.5-4.8-0.2c-1.4,1.3-1.5,3.4-0.2,4.8c1.6,1.7,3.1,3.5,4.6,5.2&#10;&#9;&#9;&#9;&#9;c0.7,0.8,1.6,1.2,2.5,1.2c0.8,0,1.6-0.3,2.2-0.8c1.4-1.2,1.6-3.3,0.3-4.7C833,200.1,831.4,198.2,829.8,196.4z" style="fill: rgb(91, 80, 80);" transform="matrix(1, 0, 0, 1, -78.11816406249454, -64.72647857665879)"/><path class="st1" d="M866.5,229.4c-1-0.7-2.1-1.3-3.1-1.9c-1.6-1-3.7-0.5-4.6,1.1c-1,1.6-0.5,3.6,1.1,4.6c1,0.6,2,1.3,3,1.9&#10;&#9;&#9;&#9;&#9;c0.6,0.4,1.2,0.5,1.8,0.5c1.1,0,2.2-0.5,2.8-1.5C868.5,232.5,868.1,230.4,866.5,229.4z" style="fill: rgb(91, 80, 80);" transform="matrix(1, 0, 0, 1, -78.11816406249454, -64.72647857665879)"/><path d="M 556.9000244140625 186.1999969482422 L 566.4000244140625 218.8000030517578 L 547.4000244140625 218.8000030517578 Z" class="st0" style="fill: rgb(172, 211, 110);" transform="matrix(1, 0, 0, 1, -78.11816406249636, -64.72647857665925)"/><path class="st0" d="M574.9,136.1c-0.2,0-0.3-0.1-0.5-0.1c-1.2-0.2-2.5-0.5-3.7-0.7c-0.3,0-0.6-0.1-0.9-0.1&#10;&#9;&#9;&#9;c-1.2-0.2-2.3-0.3-3.5-0.4c-0.4,0-0.8-0.1-1.1-0.1c-1.1-0.1-2.1-0.2-3.2-0.2c-0.5,0-0.9,0-1.4-0.1c-0.9,0-1.9-0.1-2.9-0.1&#10;&#9;&#9;&#9;c-0.5,0-1.1,0-1.6,0c-1,0-1.9,0-2.9,0.1c-0.5,0-0.9,0-1.4,0.1c-1.1,0.1-2.1,0.1-3.2,0.2c-0.4,0-0.8,0.1-1.1,0.1&#10;&#9;&#9;&#9;c-1.2,0.1-2.3,0.3-3.5,0.4c-0.3,0-0.6,0.1-0.9,0.1c-1.2,0.2-2.5,0.4-3.7,0.7c-0.2,0-0.3,0.1-0.5,0.1c-39.9,8.3-70,43.7-70,86.1&#10;&#9;&#9;&#9;c0,48.5,39.4,87.9,87.9,87.9c48.5,0,87.9-39.4,87.9-87.9C644.8,179.9,614.8,144.4,574.9,136.1z M556.9,299.8&#10;&#9;&#9;&#9;c-42.8,0-77.6-34.8-77.6-77.6c0-42.8,34.8-77.6,77.6-77.6c42.8,0,77.6,34.8,77.6,77.6C634.5,265,599.7,299.8,556.9,299.8z" style="fill: rgb(172, 211, 110);" transform="matrix(1, 0, 0, 1, -78.11816406249636, -64.72647857665925)"/><path class="st1" d="M576.2,127.5v-13.3c0-6.3-3.8-11.7-9.3-14c5.3-4.1,8.8-10.6,8.8-17.9c0-12.5-10.1-22.6-22.6-22.6&#10;&#9;&#9;&#9;&#9;s-22.6,10.1-22.6,22.6c0,7.3,3.5,13.7,8.8,17.9c-5.5,2.3-9.3,7.7-9.3,14v13.3c-41,10.4-71.5,47.6-71.5,91.8&#10;&#9;&#9;&#9;&#9;c0,52.2,42.5,94.7,94.7,94.7s94.7-42.5,94.7-94.7C647.7,175.1,617.2,137.9,576.2,127.5z M553,66.4c8.8,0,15.9,7.1,15.9,15.9&#10;&#9;&#9;&#9;&#9;c0,8.8-7.1,15.9-15.9,15.9c-8.8,0-15.9-7.1-15.9-15.9C537.1,73.5,544.3,66.4,553,66.4z M536.6,126.1v-11.9c0-4.7,3.8-8.5,8.5-8.5&#10;&#9;&#9;&#9;&#9;h15.8c4.7,0,8.5,3.8,8.5,8.5v11.9c-0.1,0-0.1,0-0.2,0c-1.3-0.2-2.5-0.4-3.8-0.6c0,0-0.1,0-0.1,0c-0.3,0-0.7-0.1-1-0.1v-11.9&#10;&#9;&#9;&#9;&#9;c0-1.9-1.5-3.4-3.4-3.4c-1.9,0-3.4,1.5-3.4,3.4v11.3c-0.1,0-0.2,0-0.3,0c-0.2,0-0.4,0-0.6,0c-1.3,0-2.5-0.1-3.8-0.1&#10;&#9;&#9;&#9;&#9;c-1.3,0-2.5,0-3.8,0.1c-0.2,0-0.4,0-0.6,0c-0.1,0-0.2,0-0.3,0v-11.3c0-1.9-1.5-3.4-3.4-3.4c-1.9,0-3.4,1.5-3.4,3.4v11.9&#10;&#9;&#9;&#9;&#9;c-0.3,0-0.7,0.1-1,0.1c0,0-0.1,0-0.1,0c-1.3,0.2-2.5,0.4-3.8,0.6C536.7,126.1,536.7,126.1,536.6,126.1z M553,307.2&#10;&#9;&#9;&#9;&#9;c-48.5,0-87.9-39.4-87.9-87.9c0-42.3,30.1-77.8,70-86.1c0.2,0,0.3-0.1,0.5-0.1c1.2-0.2,2.5-0.5,3.7-0.7c0.3,0,0.6-0.1,0.9-0.1&#10;&#9;&#9;&#9;&#9;c1.2-0.2,2.3-0.3,3.5-0.4c0.4,0,0.8-0.1,1.1-0.1c1.1-0.1,2.1-0.2,3.2-0.2c0.5,0,0.9,0,1.4-0.1c0.9,0,1.9-0.1,2.9-0.1&#10;&#9;&#9;&#9;&#9;c0.5,0,1.1,0,1.6,0c1,0,1.9,0,2.9,0.1c0.5,0,0.9,0,1.4,0.1c1.1,0.1,2.1,0.1,3.2,0.2c0.4,0,0.8,0.1,1.1,0.1&#10;&#9;&#9;&#9;&#9;c1.2,0.1,2.3,0.3,3.5,0.4c0.3,0,0.6,0.1,0.9,0.1c1.2,0.2,2.5,0.4,3.7,0.7c0.2,0,0.3,0.1,0.5,0.1c39.9,8.3,70,43.7,70,86.1&#10;&#9;&#9;&#9;&#9;C641,267.8,601.5,307.2,553,307.2z" style="fill: rgb(91, 80, 80);" transform="matrix(1, 0, 0, 1, -78.11816406249454, -64.72647857665879)"/><path class="st1" d="M553,141.7c-42.8,0-77.6,34.8-77.6,77.6c0,42.8,34.8,77.6,77.6,77.6s77.6-34.8,77.6-77.6&#10;&#9;&#9;&#9;&#9;C630.7,176.5,595.8,141.7,553,141.7z M556.4,290.1v-10.7c0-1.9-1.5-3.4-3.4-3.4c-1.9,0-3.4,1.5-3.4,3.4v10.7&#10;&#9;&#9;&#9;&#9;c-36.5-1.7-65.8-31.1-67.5-67.7h10.5c1.9,0,3.4-1.5,3.4-3.4c0-1.9-1.5-3.4-3.4-3.4h-10.5c1.8-36.3,31.1-65.6,67.5-67.3v10.3&#10;&#9;&#9;&#9;&#9;c0,1.9,1.5,3.4,3.4,3.4c1.9,0,3.4-1.5,3.4-3.4v-10.3c36.4,1.7,65.7,30.9,67.5,67.3h-10.5c-1.9,0-3.4,1.5-3.4,3.4&#10;&#9;&#9;&#9;&#9;c0,1.9,1.5,3.4,3.4,3.4h10.5C622.2,259,592.9,288.4,556.4,290.1z" style="fill: rgb(91, 80, 80);" transform="matrix(1, 0, 0, 1, -78.11816406249454, -64.72647857665879)"/><path class="st1" d="M570.2,218.1l-13.9-47.8c-0.4-1.4-1.7-2.4-3.2-2.4c-1.5,0-2.8,1-3.2,2.4l-14,48c0,0.1,0,0.1,0,0.2&#10;&#9;&#9;&#9;&#9;c0,0.1-0.1,0.3-0.1,0.4c0,0.1,0,0.3,0,0.4c0,0.1,0,0.3,0,0.4c0,0.1,0,0.3,0.1,0.4c0,0.1,0,0.1,0,0.2l14,48&#10;&#9;&#9;&#9;&#9;c0.4,1.4,1.7,2.4,3.2,2.4c1.5,0,2.8-1,3.2-2.4l14-48c0,0,0,0,0,0c0.1-0.2,0.1-0.4,0.1-0.7c0,0,0,0,0-0.1c0-0.1,0-0.1,0-0.1&#10;&#9;&#9;&#9;&#9;C570.4,218.9,570.3,218.5,570.2,218.1z M553,183.3l9.5,32.7h-19L553,183.3z M553,255.3l-9.5-32.7h19L553,255.3z" style="fill: rgb(91, 80, 80);" transform="matrix(1, 0, 0, 1, -78.11816406249454, -64.72647857665879)"/><path class="st0" d="M1212.5,195.2c17.2,20.5,27.8,46.4,28.7,70h-16.3c-0.7-22.9-8.9-47.7-22.7-68.4&#10;&#9;&#9;&#9;c-9.2-13.9-20.1-24.9-31.8-32.3C1185.6,169.9,1200.2,180.5,1212.5,195.2z" style="fill: rgb(172, 211, 110);" transform="matrix(1, 0, 0, 1, -78.11816406249636, -64.72647857665925)"/><path class="st0" d="M1080.2,195.2c12.3-14.7,27-25.2,42.1-30.8c-11.7,7.5-22.6,18.4-31.8,32.3c-13.8,20.8-22,45.5-22.7,68.4&#10;&#9;&#9;&#9;h-16.3C1052.4,241.5,1063,215.6,1080.2,195.2z" style="fill: rgb(172, 211, 110);" transform="matrix(1, 0, 0, 1, -78.11816406249636, -64.72647857665925)"/><path class="st0" d="M1134.1,211.1c4.1-2.9,8.2-4.3,12.2-4.3c4,0,8.1,1.5,12.2,4.3c4.3,3,8.6,7.7,12.2,13.3&#10;&#9;&#9;&#9;c1.6,2.6,3.2,5.8,4.5,9.3h-10.2c-1.9,0-3.4,1.5-3.4,3.4c0,1.9,1.5,3.4,3.4,3.4h12.5c0.9,3,1.8,6,2.4,8.6h-67.4&#10;&#9;&#9;&#9;c0.7-2.6,1.5-5.6,2.4-8.6h37.3c1.9,0,3.4-1.5,3.4-3.4c0-1.9-1.5-3.4-3.4-3.4h-35c1.3-3.5,2.8-6.7,4.5-9.3&#10;&#9;&#9;&#9;C1125.6,218.8,1129.8,214.1,1134.1,211.1z" style="fill: rgb(172, 211, 110);" transform="matrix(1, 0, 0, 1, -78.11816406249636, -64.72647857665925)"/><path class="st1" d="M1266.5,262.8h-22.3c-0.8-25.3-12-53.1-30.3-74.9c-20.1-23.9-46.1-37.6-71.3-37.6&#10;&#9;&#9;&#9;&#9;c-25.2,0-51.2,13.7-71.3,37.6c-18.3,21.8-29.6,49.6-30.3,74.9h-22.3c-1.9,0-3.4,1.5-3.4,3.4s1.5,3.4,3.4,3.4h248&#10;&#9;&#9;&#9;&#9;c1.9,0,3.4-1.5,3.4-3.4S1268.3,262.8,1266.5,262.8z M1142.5,158.4c18.2,4.2,36.5,18.4,50.3,39.1c13.1,19.7,20.8,43.1,21.6,64.7&#10;&#9;&#9;&#9;&#9;h-143.7c0.7-21.6,8.5-45,21.6-64.7C1106,176.8,1124.3,162.5,1142.5,158.4z M1208.7,192.2c17.2,20.5,27.8,46.4,28.7,70H1221&#10;&#9;&#9;&#9;&#9;c-0.7-22.9-8.9-47.7-22.7-68.4c-9.2-13.9-20.1-24.9-31.8-32.3C1181.7,167,1196.3,177.6,1208.7,192.2z M1076.3,192.2&#10;&#9;&#9;&#9;&#9;c12.3-14.7,27-25.2,42.1-30.8c-11.7,7.5-22.6,18.4-31.8,32.3c-13.8,20.8-22,45.5-22.7,68.4h-16.3&#10;&#9;&#9;&#9;&#9;C1048.5,238.6,1059.1,212.7,1076.3,192.2z" style="fill: rgb(91, 80, 80);" transform="matrix(1, 0, 0, 1, -78.11816406249454, -64.72647857665879)"/><path class="st1" d="M1101.9,251.5c0.6,0.8,1.6,1.3,2.6,1.3h75.9c0,0,0,0,0,0c1.9,0,3.4-1.5,3.4-3.4c0-0.4-0.1-0.7-0.2-1&#10;&#9;&#9;&#9;&#9;c-2.2-9.6-6-22.6-11.1-30.6c-4.1-6.4-9-11.7-14-15.2c-5.2-3.7-10.6-5.5-16.1-5.5c-5.4,0-10.8,1.9-16.1,5.5&#10;&#9;&#9;&#9;&#9;c-5,3.5-9.9,8.8-14,15.2c-5.2,8-8.9,21.2-11.2,30.8C1101,249.7,1101.2,250.7,1101.9,251.5z M1130.3,208.2&#10;&#9;&#9;&#9;&#9;c4.1-2.9,8.2-4.3,12.2-4.3c4,0,8.1,1.5,12.2,4.3c4.3,3,8.6,7.7,12.2,13.3c1.6,2.6,3.2,5.8,4.5,9.3h-10.2c-1.9,0-3.4,1.5-3.4,3.4&#10;&#9;&#9;&#9;&#9;c0,1.9,1.5,3.4,3.4,3.4h12.5c0.9,3,1.8,6,2.4,8.6h-67.4c0.7-2.6,1.5-5.6,2.4-8.6h37.3c1.9,0,3.4-1.5,3.4-3.4&#10;&#9;&#9;&#9;&#9;c0-1.9-1.5-3.4-3.4-3.4h-35c1.3-3.5,2.8-6.7,4.5-9.3C1121.7,215.8,1125.9,211.2,1130.3,208.2z" style="fill: rgb(91, 80, 80);" transform="matrix(1, 0, 0, 1, -78.11816406249454, -64.72647857665879)"/><path class="st0" d="M272.8,417.9c0,0-0.1,0-0.1,0c-0.5,0-1.1-0.1-1.6-0.1c-0.7,0-1.3-0.1-2-0.1c-1.7-0.1-3.5-0.1-5.2-0.2&#10;&#9;&#9;&#9;c-0.5,0-1,0-1.5,0c-1.9,0-3.8-0.1-5.7-0.1c-1.6,0-3.3,0-5.1,0.1c-0.3,0-0.7,0-1,0c-0.2,0-0.3,0-0.5,0c0,0,0,0-0.1,0&#10;&#9;&#9;&#9;c-28.3,0.7-55.7,6.1-79,15.6c18.9-19.7,47.9-32.2,79.8-34.2c1.2-0.1,2.4-0.1,3.6-0.2c0.3,0,0.7,0,1,0c1.4,0,2.8-0.1,4.2-0.1&#10;&#9;&#9;&#9;c1.1,0,2.2,0,3.4,0c0.3,0,0.6,0,0.9,0c0.9,0,1.7,0.1,2.6,0.1c0.2,0,0.5,0,0.7,0c1,0.1,1.9,0.1,2.9,0.2c0.1,0,0.2,0,0.3,0&#10;&#9;&#9;&#9;c33.5,2.5,63.7,16.8,81.9,38.5C329.4,426.5,302.1,419.8,272.8,417.9z" style="fill: rgb(172, 211, 110);" transform="matrix(1, 0, 0, 1, -78.11816406249636, -64.72647857665925)"/><path class="st1" d="M362.2,442.4c-9.2-15.7-23.9-29.1-42.4-38.6c-14.5-7.4-30.7-12.1-47.8-14v-8c0-8-6.5-14.5-14.5-14.5&#10;&#9;&#9;&#9;&#9;c-8,0-14.5,6.5-14.5,14.5v7.7c-38,3.3-71.8,20.9-90.2,47.7c-0.9,1.3-0.8,3,0.2,4.1c1,1.2,2.7,1.5,4.1,0.8&#10;&#9;&#9;&#9;&#9;c24.1-12.2,54.3-19.5,85.9-20.7V612c0,7.8,6.2,14.2,13.9,14.5c0.1,0,0.2,0,0.3,0c0,0,0.1,0,0.1,0c0.1,0,0.1,0,0.2,0&#10;&#9;&#9;&#9;&#9;c8,0,14.5-6.5,14.5-14.5V422c32.5,2.5,62.4,11.2,85.7,25.2c0.5,0.3,1.1,0.5,1.7,0.5c0,0,0,0,0,0c1.9,0,3.3-1.5,3.3-3.4&#10;&#9;&#9;&#9;&#9;C362.7,443.6,362.5,443,362.2,442.4z M249.7,389.1v-7.3c0-4.3,3.5-7.8,7.8-7.8c4.3,0,7.8,3.5,7.8,7.8v7.4c-0.1,0-0.3,0-0.4,0&#10;&#9;&#9;&#9;&#9;c-1-0.1-2-0.1-3-0.1c-0.5,0-1,0-1.5-0.1c-1.5,0-3-0.1-4.5-0.1c-1.2,0-2.4,0-3.6,0c-0.4,0-0.8,0-1.2,0&#10;&#9;&#9;&#9;&#9;C250.6,389.1,250.2,389.1,249.7,389.1z M265.2,612c0,3.2-1.9,5.9-4.7,7.1V513.5c0-1.9-1.5-3.4-3.4-3.4c-1.9,0-3.4,1.5-3.4,3.4&#10;&#9;&#9;&#9;&#9;v105.3c-2.4-1.3-4.1-3.9-4.1-6.8V421.3c1,0,2.1,0,3.1,0c2.3,0,4.5,0,6.8,0.1c1,0,1.9,0.1,2.9,0.1c0.9,0,1.8,0.1,2.7,0.1V612z&#10;&#9;&#9;&#9;&#9; M269,415c0,0-0.1,0-0.1,0c-0.5,0-1.1-0.1-1.6-0.1c-0.7,0-1.3-0.1-2-0.1c-1.7-0.1-3.5-0.1-5.2-0.2c-0.5,0-1,0-1.5,0&#10;&#9;&#9;&#9;&#9;c-1.9,0-3.8-0.1-5.7-0.1c-1.6,0-3.3,0-5.1,0.1c-0.3,0-0.7,0-1,0c-0.2,0-0.3,0-0.5,0c0,0,0,0-0.1,0c-28.3,0.7-55.7,6.1-79,15.6&#10;&#9;&#9;&#9;&#9;c18.9-19.7,47.9-32.2,79.8-34.2c1.2-0.1,2.4-0.1,3.6-0.2c0.3,0,0.7,0,1,0c1.4,0,2.8-0.1,4.2-0.1c1.1,0,2.2,0,3.4,0&#10;&#9;&#9;&#9;&#9;c0.3,0,0.6,0,0.9,0c0.9,0,1.7,0.1,2.6,0.1c0.2,0,0.5,0,0.7,0c1,0.1,1.9,0.1,2.9,0.2c0.1,0,0.2,0,0.3,0&#10;&#9;&#9;&#9;&#9;c33.5,2.5,63.7,16.8,81.9,38.5C325.6,423.6,298.2,416.9,269,415z" style="fill: rgb(91, 80, 80);" transform="matrix(1, 0, 0, 1, -78.11816406249454, -64.72647857665879)"/><path class="st1" d="M257.2,472.5c-1.9,0-3.4,1.5-3.4,3.4v27.6c0,1.9,1.5,3.4,3.4,3.4c1.9,0,3.4-1.5,3.4-3.4v-27.6&#10;&#9;&#9;&#9;&#9;C260.6,474,259.1,472.5,257.2,472.5z" style="fill: rgb(91, 80, 80);" transform="matrix(1, 0, 0, 1, -78.11816406249454, -64.72647857665879)"/><path class="st0" d="M594.4,470.6l23.4,31.4l-10.2-3.1c-1.4-0.4-3,0.1-3.8,1.4L595,514l-9.6-13.8c-0.8-1.2-2.4-1.7-3.8-1.3&#10;&#9;&#9;&#9;l-11.1,3.6L594.4,470.6z" style="fill: rgb(172, 211, 110);" transform="matrix(1, 0, 0, 1, -78.11816406249636, -64.72647857665925)"/><path class="st0" d="M527.7,460.8l37.3,50l-21.3-6.4c-1.4-0.4-3,0.1-3.8,1.4l-12.5,19.8l-13.9-19.9c-0.8-1.2-2.4-1.7-3.8-1.3&#10;&#9;&#9;&#9;l-19.3,6.2L527.7,460.8z" style="fill: rgb(172, 211, 110);" transform="matrix(1, 0, 0, 1, -78.11816406249636, -64.72647857665925)"/><path class="st1" d="M679.4,562.6h-9.8l-76.4-102.5c-0.6-0.8-1.6-1.4-2.7-1.4c0,0,0,0,0,0c-1.1,0-2.1,0.5-2.7,1.3l-27.1,36&#10;&#9;&#9;&#9;&#9;l-34.2-45.9c-0.6-0.8-1.6-1.4-2.7-1.4c0,0,0,0,0,0c-1.1,0-2.1,0.5-2.7,1.3l-84.4,112.3h-10.2c-1.9,0-3.4,1.5-3.4,3.4&#10;&#9;&#9;&#9;&#9;c0,1.9,1.5,3.4,3.4,3.4h252.8c1.9,0,3.4-1.5,3.4-3.4C682.8,564.1,681.3,562.6,679.4,562.6z M610.3,562.6l-42.1-56.5l9.2-2.9&#10;&#9;&#9;&#9;&#9;l11.1,15.9c0.6,0.9,1.7,1.4,2.8,1.4c0,0,0,0,0.1,0c1.1,0,2.2-0.6,2.8-1.6l10-15.8l16.5,5l40.6,54.4H610.3z M590.5,467.7&#10;&#9;&#9;&#9;&#9;l23.4,31.4l-10.2-3.1c-1.4-0.4-3,0.1-3.8,1.4l-8.7,13.7l-9.6-13.8c-0.8-1.2-2.4-1.7-3.8-1.3l-11.1,3.6L590.5,467.7z M523.9,457.9&#10;&#9;&#9;&#9;&#9;l37.3,50l-21.3-6.4c-1.4-0.4-3,0.1-3.8,1.4l-12.5,19.8l-13.9-19.9c-0.8-1.2-2.4-1.7-3.8-1.3l-19.3,6.2L523.9,457.9z M479.5,516.9&#10;&#9;&#9;&#9;&#9;l25.9-8.3l15.4,22c0.6,0.9,1.7,1.4,2.8,1.4c0,0,0,0,0.1,0c1.1,0,2.2-0.6,2.8-1.6l13.9-21.9l27.6,8.3l34,45.6H445.2L479.5,516.9z" style="fill: rgb(91, 80, 80);" transform="matrix(1, 0, 0, 1, -78.11816406249454, -64.72647857665879)"/><path class="st1" d="M582.9,431.3h3.8c1.9,0,3.4-1.5,3.4-3.4c0-1.9-1.5-3.4-3.4-3.4h-3.8c-1.9,0-3.4,1.5-3.4,3.4&#10;&#9;&#9;&#9;&#9;C579.5,429.8,581,431.3,582.9,431.3z" style="fill: rgb(91, 80, 80);" transform="matrix(1, 0, 0, 1, -78.11816406249454, -64.72647857665879)"/><path class="st1" d="M519.3,431.3c8.6,0.1,17.2,0.1,25.8,0.1c8.6,0,17.3,0,25.8-0.1c1.9,0,3.4-1.5,3.3-3.4c0-1.9-1.5-3.3-3.4-3.3&#10;&#9;&#9;&#9;&#9;c-17.1,0.1-34.5,0.1-51.6,0c-1.9,0-3.4,1.5-3.4,3.3C515.9,429.7,517.4,431.3,519.3,431.3z" style="fill: rgb(91, 80, 80);" transform="matrix(1, 0, 0, 1, -78.11816406249454, -64.72647857665879)"/><path class="st1" d="M624.8,444.2h3.8c1.9,0,3.4-1.5,3.4-3.4c0-1.9-1.5-3.4-3.4-3.4h-3.8c-1.9,0-3.4,1.5-3.4,3.4&#10;&#9;&#9;&#9;&#9;C621.4,442.7,622.9,444.2,624.8,444.2z" style="fill: rgb(91, 80, 80);" transform="matrix(1, 0, 0, 1, -78.11816406249454, -64.72647857665879)"/><path class="st1" d="M561.2,437.5C561.2,437.5,561.2,437.5,561.2,437.5c-1.9,0-3.4,1.5-3.4,3.3c0,1.9,1.5,3.4,3.3,3.4&#10;&#9;&#9;&#9;&#9;c8.6,0.1,17.2,0.1,25.8,0.1c8.6,0,17.3,0,25.8-0.1c1.9,0,3.4-1.5,3.3-3.4c0-1.9-1.5-3.3-3.4-3.3&#10;&#9;&#9;&#9;&#9;C595.7,437.6,578.3,437.6,561.2,437.5z" style="fill: rgb(91, 80, 80);" transform="matrix(1, 0, 0, 1, -78.11816406249454, -64.72647857665879)"/><path class="st1" d="M541.1,437.5c-1.9,0-3.4,1.5-3.4,3.4c0,1.9,1.5,3.4,3.4,3.4h3.8c1.9,0,3.4-1.5,3.4-3.4&#10;&#9;&#9;&#9;&#9;c0-1.9-1.5-3.4-3.4-3.4H541.1z" style="fill: rgb(91, 80, 80);" transform="matrix(1, 0, 0, 1, -78.11816406249454, -64.72647857665879)"/><path class="st1" d="M477.4,444.2c8.6,0.1,17.2,0.1,25.8,0.1c8.6,0,17.3,0,25.8-0.1c1.9,0,3.4-1.5,3.3-3.4c0-1.8-1.5-3.3-3.4-3.3&#10;&#9;&#9;&#9;&#9;c0,0,0,0,0,0c-17.1,0.1-34.5,0.1-51.6,0c-1.9,0-3.4,1.5-3.4,3.3C474.1,442.7,475.6,444.2,477.4,444.2z" style="fill: rgb(91, 80, 80);" transform="matrix(1, 0, 0, 1, -78.11816406249454, -64.72647857665879)"/><path class="st0" d="M916,555.7c0,1.6-1.3,2.9-2.9,2.9h-1.4H892l0,0l-0.1,0c-1.6,0-2.8-1.3-2.8-2.9V444c0-1.6,1.3-2.9,2.8-2.9&#10;&#9;&#9;&#9;c0,0,0.1,0,0.2,0h19.6h0h1.4c1.6,0,2.9,1.3,2.9,2.9V555.7z" style="fill: rgb(172, 211, 110);" transform="matrix(1, 0, 0, 1, -78.11816406249636, -64.72647857665925)"/><path class="st1" d="M910.5,431.5c-6.8-30.4-33.8-52.2-65.2-52.2c-36.9,0-66.9,30-66.9,66.9v101.4c0,36.9,30,66.9,66.9,66.9&#10;&#9;&#9;&#9;&#9;c31.4,0,58.4-21.8,65.2-52.2c4.7-0.6,8.3-4.7,8.3-9.5V441.1C918.8,436.2,915.2,432.2,910.5,431.5z M845.2,607.8&#10;&#9;&#9;&#9;&#9;c-33.2,0-60.1-27-60.1-60.1V446.2c0-33.2,27-60.1,60.1-60.1c27.7,0,51.6,18.9,58.3,45.4h-13.2c-6.3-19.4-24.6-32.7-45.2-32.7&#10;&#9;&#9;&#9;&#9;l-0.5,0c-25.9,0.3-47,21.8-47,48.1v0.4c0,1.6,1.2,3,2.8,3.3c3.3,0.6,5.6,3.4,5.6,6.7v79.4c0,3.3-2.4,6.1-5.6,6.7&#10;&#9;&#9;&#9;&#9;c-1.6,0.3-2.8,1.7-2.8,3.3v1c0,12.7,4.9,24.6,13.9,33.6c9,9,20.9,13.9,33.6,13.9l0.5,0c20.2-0.2,38.1-13.5,44.6-32.7h13.3&#10;&#9;&#9;&#9;&#9;C896.9,588.9,873,607.8,845.2,607.8z M883.5,561.3c-5.8,16-20.9,27-37.9,27.2l-0.4,0c-10.9,0-21.1-4.2-28.8-12&#10;&#9;&#9;&#9;&#9;c-7.3-7.3-11.6-17-11.9-27.3c5-2.1,8.4-7,8.4-12.5v-79.4c0-5.6-3.4-10.5-8.3-12.5c1.1-21.6,18.8-39,40.3-39.3l0.4,0&#10;&#9;&#9;&#9;&#9;c17.3,0,32.7,11,38.4,27.1c-3.1,1.6-5.2,4.8-5.2,8.6v111.7C878.5,556.4,880.5,559.6,883.5,561.3z M912.1,552.8&#10;&#9;&#9;&#9;&#9;c0,1.6-1.3,2.9-2.9,2.9h-1.4h-19.6l0,0l-0.1,0c-1.6,0-2.8-1.3-2.8-2.9V441.1c0-1.6,1.3-2.9,2.8-2.9c0,0,0.1,0,0.2,0h19.6h0h1.4&#10;&#9;&#9;&#9;&#9;c1.6,0,2.9,1.3,2.9,2.9V552.8z" style="fill: rgb(91, 80, 80);" transform="matrix(1, 0, 0, 1, -78.11816406249454, -64.72647857665879)"/><path d="M 904.399976 533.700012 A 5.8 5.8 0 0 1 898.599976 539.500012 A 5.8 5.8 0 0 1 892.799975 533.700012 A 5.8 5.8 0 0 1 898.599976 527.900012 A 5.8 5.8 0 0 1 904.399976 533.700012 Z" class="st1" style="fill: rgb(91, 80, 80);" transform="matrix(1, 0, 0, 1, -78.11816406249454, -64.72647857665879)"/><path d="M 904.399976 460.100006 A 5.8 5.8 0 0 1 898.599976 465.900006 A 5.8 5.8 0 0 1 892.799975 460.100006 A 5.8 5.8 0 0 1 898.599976 454.300006 A 5.8 5.8 0 0 1 904.399976 460.100006 Z" class="st1" style="fill: rgb(91, 80, 80);" transform="matrix(1, 0, 0, 1, -78.11816406249454, -64.72647857665879)"/><path class="st1" d="M798.6,521.6c0-1.9-1.5-3.4-3.4-3.4c0,0,0,0,0,0c-1.9,0-3.4,1.5-3.4,3.4c0,4,0,8.1,0,12.1&#10;&#9;&#9;&#9;&#9;c0,1.9,1.5,3.4,3.4,3.4c0,0,0,0,0,0c1.9,0,3.4-1.5,3.4-3.4C798.6,529.7,798.6,525.7,798.6,521.6z" style="fill: rgb(91, 80, 80);" transform="matrix(1, 0, 0, 1, -78.11816406249454, -64.72647857665879)"/><path class="st1" d="M795.2,512.9L795.2,512.9c1.9,0,3.4-1.5,3.4-3.4c0-9.3,0-18.6,0-27.9c0-1.9-1.5-3.4-3.4-3.4c0,0,0,0,0,0&#10;&#9;&#9;&#9;&#9;c-1.9,0-3.4,1.5-3.4,3.4c0,9.3,0,18.6,0,27.9C791.9,511.4,793.4,512.9,795.2,512.9z" style="fill: rgb(91, 80, 80);" transform="matrix(1, 0, 0, 1, -78.11816406249454, -64.72647857665879)"/><path class="st1" d="M795.2,473.1c1.9,0,3.4-1.5,3.4-3.4v-9.7c0-1.9-1.5-3.4-3.4-3.4c-1.9,0-3.4,1.5-3.4,3.4v9.7&#10;&#9;&#9;&#9;&#9;C791.8,471.6,793.3,473.1,795.2,473.1z" style="fill: rgb(91, 80, 80);" transform="matrix(1, 0, 0, 1, -78.11816406249454, -64.72647857665879)"/><path d="M 214.5 760.5 L 162.3000030517578 760.5 L 162.3000030517578 752.9000244140625 L 241.3000030517578 752.9000244140625 L 241.3000030517578 760.5 Z" class="st0" style="fill: rgb(172, 211, 110);" transform="matrix(1, 0, 0, 1, -78.11816406249636, -64.72647857665925)"/><path class="st0" d="M230.2,872.7l-6.5-8.4c-0.6-0.8-1.6-1.3-2.7-1.3h-6.6c-1.9,0-3.4,1.5-3.4,3.4v6.3h-44v-10.1&#10;&#9;&#9;&#9;c0-4.1,2.2-7,4.2-7h8.4h56.2c0,0,0,0,0,0c0,0,0,0,0,0h120.3c1.7,0,3.5,2,4,5.2c-20.9-0.1-42.1-0.1-62.9,0c-1.9,0-3.4,1.5-3.3,3.4&#10;&#9;&#9;&#9;c0,1.9,1.5,3.3,3.4,3.3c0,0,0,0,0,0c20.9-0.1,42.1-0.1,63.1,0v5.2H230.2z" style="fill: rgb(172, 211, 110);" transform="matrix(1, 0, 0, 1, -78.11816406249636, -64.72647857665925)"/><path class="st1" d="M219.5,829.2c0.6,1,1.7,1.6,2.9,1.6c0.6,0,1.2-0.2,1.8-0.5c1.6-1,2.1-3,1.1-4.6c-1.3-2.2-2.7-4.2-4.2-6.2&#10;&#9;&#9;&#9;&#9;c-1.1-1.5-3.2-1.8-4.7-0.7c-1.5,1.1-1.8,3.2-0.7,4.7C217,825.3,218.3,827.2,219.5,829.2z" style="fill: rgb(91, 80, 80);" transform="matrix(1, 0, 0, 1, -78.11816406249454, -64.72647857665879)"/><path class="st1" d="M199.1,808c1.9,1.2,3.8,2.6,5.5,4c0.6,0.5,1.4,0.8,2.1,0.8c1,0,1.9-0.4,2.6-1.2c1.2-1.4,1-3.6-0.5-4.7&#10;&#9;&#9;&#9;&#9;c-1.9-1.6-4-3.1-6.1-4.5c-1.6-1-3.6-0.6-4.7,1C197.1,804.9,197.5,807,199.1,808z" style="fill: rgb(91, 80, 80);" transform="matrix(1, 0, 0, 1, -78.11816406249454, -64.72647857665879)"/><path class="st1" d="M178.2,799c2.2,0.5,4.5,1.2,6.6,1.9c0.4,0.1,0.7,0.2,1.1,0.2c1.4,0,2.7-0.9,3.2-2.3c0.6-1.8-0.3-3.7-2.1-4.3&#10;&#9;&#9;&#9;&#9;c-2.3-0.8-4.8-1.5-7.2-2.1c-1.8-0.4-3.6,0.7-4.1,2.5C175.2,796.7,176.4,798.6,178.2,799z" style="fill: rgb(91, 80, 80);" transform="matrix(1, 0, 0, 1, -78.11816406249454, -64.72647857665879)"/><path class="st1" d="M358.1,848.1c-0.1-17.2-2.2-30.7-11.7-40.4c-9.7-10-26.3-15.2-53.7-16.6l-36.2-9.7c-0.1,0-0.2,0-0.3-0.1&#10;&#9;&#9;&#9;&#9;c-2.4-0.5-4.5-2.1-5.5-4.3l-6.8-17.1c0,0,0,0,0-0.1c0.2-0.6,0.3-1.2,0.3-1.9v-22.2c0-3.6-2.9-6.6-6.6-6.6h-79.3&#10;&#9;&#9;&#9;&#9;c-3.6,0-6.6,2.9-6.6,6.6V761v15c0,3.9,1.9,7.4,4.7,9.7V836c0,4.9,1.9,9,5.2,12c-3.1,2.4-5.2,6.7-5.2,11.7v13.5&#10;&#9;&#9;&#9;&#9;c0,1.9,1.5,3.4,3.4,3.4h50.7c1.9,0,3.4-1.5,3.4-3.4v-6.3h1.6l6.5,8.4c0.6,0.8,1.6,1.3,2.7,1.3h135.2c1.9,0,3.4-1.5,3.4-3.4v-13.5&#10;&#9;&#9;&#9;&#9;C363.2,854.7,361.2,850.5,358.1,848.1z M158.5,776v-11.6h48.8c-0.6,9.6-8.6,17.2-18.4,17.2h-24.8&#10;&#9;&#9;&#9;&#9;C161,781.6,158.5,779.1,158.5,776z M210.6,757.6h-52.2V750h79v7.6H210.6z M237.4,735.7v7.6h-79v-7.6H237.4z M164.1,788.3h24.8&#10;&#9;&#9;&#9;&#9;c13.5,0,24.5-10.6,25.1-24h23.6c0.3,0,0.6,0,0.9-0.1l4,9.9l-13.5,7.3c-1.6,0.9-2.2,2.9-1.3,4.6c0.6,1.1,1.8,1.8,3,1.8&#10;&#9;&#9;&#9;&#9;c0.5,0,1.1-0.1,1.6-0.4l12.9-7c1.7,3.1,4.4,5.5,7.7,6.7l-8.9,11.5c-1.1,1.5-0.9,3.6,0.6,4.7c0.6,0.5,1.3,0.7,2.1,0.7&#10;&#9;&#9;&#9;&#9;c1,0,2-0.4,2.7-1.3l10.7-13.7l11.5,3.1l-6.7,16.5c-0.7,1.7,0.1,3.7,1.8,4.4c0.4,0.2,0.8,0.2,1.3,0.2c1.3,0,2.6-0.8,3.1-2.1&#10;&#9;&#9;&#9;&#9;l7-17.3l13.4,3.6l-4.6,15.5c-0.5,1.8,0.5,3.7,2.3,4.2c0.3,0.1,0.6,0.1,1,0.1c1.5,0,2.8-0.9,3.2-2.4l5-16.8&#10;&#9;&#9;&#9;&#9;c21.9,1.7,35.9,6.3,43.6,14.2c7.6,7.8,9.5,19.1,9.8,33.7H234.5c-0.5-1.6-1-3.1-1.6-4.6c-0.7-1.7-2.6-2.6-4.3-2&#10;&#9;&#9;&#9;&#9;c-1.7,0.7-2.6,2.6-2,4.3c0.3,0.7,0.5,1.5,0.8,2.3h-51.6c-9.3,0-12.6-5.2-12.6-10v-39.1c1.4-0.4,2.5-1.7,2.5-3.2&#10;&#9;&#9;&#9;&#9;c0-1.5-1-2.8-2.5-3.2v-2.2C163.5,788.3,163.8,788.3,164.1,788.3z M226.3,869.8l-6.5-8.4c-0.6-0.8-1.6-1.3-2.7-1.3h-6.6&#10;&#9;&#9;&#9;&#9;c-1.9,0-3.4,1.5-3.4,3.4v6.3h-44v-10.1c0-4.1,2.2-7,4.2-7h8.4H232c0,0,0,0,0,0c0,0,0,0,0,0h120.3c1.7,0,3.5,2.1,4,5.2&#10;&#9;&#9;&#9;&#9;c-20.9-0.1-42.1-0.1-62.9,0c-1.9,0-3.4,1.5-3.3,3.4c0,1.9,1.5,3.3,3.4,3.3c0,0,0,0,0,0c20.9-0.1,42.1-0.1,63.1,0v5.2H226.3z" style="fill: rgb(91, 80, 80);" transform="matrix(1, 0, 0, 1, -78.11816406249454, -64.72647857665879)"/><path class="st1" d="M276,857.9c-6.9-0.2-14.1-0.2-20.8,0c-1.9,0-3.3,1.6-3.3,3.5c0,1.8,1.5,3.3,3.4,3.3c0,0,0.1,0,0.1,0&#10;&#9;&#9;&#9;&#9;c6.6-0.2,13.7-0.2,20.5,0c0,0,0.1,0,0.1,0c1.8,0,3.3-1.4,3.4-3.3C279.4,859.5,277.9,858,276,857.9z" style="fill: rgb(91, 80, 80);" transform="matrix(1, 0, 0, 1, -78.11816406249454, -64.72647857665879)"/><path class="st1" d="M644.4,820.5l-31.2-31.2c-1.3-1.3-3.4-1.3-4.8,0c-1.3,1.3-1.3,3.4,0,4.8l31.2,31.2c8.6,8.6,13.3,19.9,13.3,32&#10;&#9;&#9;&#9;c0,12.1-4.7,23.5-13.3,32c-8.6,8.6-19.9,13.3-32,13.3c-12.1,0-23.5-4.7-32-13.3l-31.2-31.2c-1.3-1.3-3.4-1.3-4.8,0&#10;&#9;&#9;&#9;c-1.3,1.3-1.3,3.4,0,4.8l31.2,31.2c9.8,9.8,22.9,15.2,36.8,15.2c13.9,0,27-5.4,36.8-15.2c9.8-9.8,15.2-22.9,15.2-36.8&#10;&#9;&#9;&#9;C659.6,843.4,654.2,830.3,644.4,820.5z" style="fill: rgb(91, 80, 80);" transform="matrix(1, 0, 0, 1, -78.11816406249636, -64.72647857665925)"/><path class="st1" d="M497.5,816c1.3-1.3,1.3-3.4,0-4.8l-31-31c-17.7-17.7-17.7-46.4,0-64.1c17.7-17.7,46.4-17.7,64.1,0l31,31&#10;&#9;&#9;&#9;c1.3,1.3,3.4,1.3,4.8,0c1.3-1.3,1.3-3.4,0-4.8l-31-31c-20.3-20.3-53.3-20.3-73.6,0c-20.3,20.3-20.3,53.3,0,73.6l31,31&#10;&#9;&#9;&#9;c0.7,0.7,1.5,1,2.4,1C495.9,817,496.8,816.7,497.5,816z" style="fill: rgb(91, 80, 80);" transform="matrix(1, 0, 0, 1, -78.11816406249636, -64.72647857665925)"/><path class="st1" d="M550.7,847.1c-1.3,1.3-1.3,3.4,0,4.8l31.2,31.2c6.9,6.9,16,10.6,25.7,10.6c9.7,0,18.8-3.8,25.7-10.6&#10;&#9;&#9;&#9;c6.9-6.9,10.6-16,10.6-25.7c0-9.7-3.8-18.8-10.6-25.7l-31.2-31.2c-1.3-1.3-3.4-1.3-4.8,0c-1.3,1.3-1.3,3.4,0,4.8l31.2,31.2&#10;&#9;&#9;&#9;c5.6,5.6,8.7,13,8.7,20.9c0,7.9-3.1,15.4-8.7,20.9c-5.6,5.6-13,8.7-20.9,8.7c-7.9,0-15.4-3.1-20.9-8.7l-31.2-31.2&#10;&#9;&#9;&#9;C554.1,845.7,552,845.7,550.7,847.1z" style="fill: rgb(91, 80, 80);" transform="matrix(1, 0, 0, 1, -78.11816406249636, -64.72647857665925)"/><path class="st1" d="M555.2,758.3c1.3-1.3,1.3-3.4,0-4.8l-31-31c-6.9-6.9-16-10.6-25.7-10.6c-9.7,0-18.8,3.8-25.7,10.6&#10;&#9;&#9;&#9;c-6.9,6.9-10.6,16-10.6,25.7c0,9.7,3.8,18.8,10.6,25.7l31,31c0.7,0.7,1.5,1,2.4,1c0.9,0,1.7-0.3,2.4-1c1.3-1.3,1.3-3.4,0-4.8&#10;&#9;&#9;&#9;l-31-31c-5.6-5.6-8.7-13-8.7-20.9c0-7.9,3.1-15.4,8.7-20.9c5.6-5.6,13-8.7,20.9-8.7c7.9,0,15.4,3.1,20.9,8.7l31,31&#10;&#9;&#9;&#9;C551.7,759.6,553.9,759.6,555.2,758.3z" style="fill: rgb(91, 80, 80);" transform="matrix(1, 0, 0, 1, -78.11816406249636, -64.72647857665925)"/><path class="st1" d="M597.7,867.2L566.5,836c-1.3-1.3-3.4-1.3-4.8,0c-1.3,1.3-1.3,3.4,0,4.8l31.2,31.2c4,4,9.3,6,14.6,6&#10;&#9;&#9;&#9;c5.3,0,10.6-2,14.6-6c3.9-3.9,6-9.1,6-14.6c0-5.5-2.1-10.7-6-14.6L591,811.5c-1.3-1.3-3.4-1.3-4.8,0c-1.3,1.3-1.3,3.4,0,4.8&#10;&#9;&#9;&#9;l31.2,31.2c2.6,2.6,4.1,6.1,4.1,9.9c0,3.7-1.4,7.2-4.1,9.9C612,872.6,603.2,872.6,597.7,867.2z" style="fill: rgb(91, 80, 80);" transform="matrix(1, 0, 0, 1, -78.11816406249636, -64.72647857665925)"/><path class="st1" d="M498.5,734.3c3.7,0,7.2,1.4,9.9,4.1l31,31c1.3,1.3,3.4,1.3,4.8,0c1.3-1.3,1.3-3.4,0-4.8l-31-31&#10;&#9;&#9;&#9;c-3.9-3.9-9.1-6-14.6-6c-5.5,0-10.7,2.1-14.6,6c-3.9,3.9-6,9.1-6,14.6c0,5.5,2.1,10.7,6,14.6l31,31c0.7,0.7,1.5,1,2.4,1&#10;&#9;&#9;&#9;c0.9,0,1.7-0.3,2.4-1c1.3-1.3,1.3-3.4,0-4.8l-31-31c-2.6-2.6-4.1-6.1-4.1-9.9c0-3.7,1.4-7.2,4.1-9.9&#10;&#9;&#9;&#9;C491.3,735.7,494.8,734.3,498.5,734.3z" style="fill: rgb(91, 80, 80);" transform="matrix(1, 0, 0, 1, -78.11816406249636, -64.72647857665925)"/><path class="st1" d="M591.6,731.9c-1.3-1.3-3.4-1.3-4.8,0l-92,92c-1.3,1.3-1.3,3.4,0,4.8c0.7,0.7,1.5,1,2.4,1c0.9,0,1.7-0.3,2.4-1&#10;&#9;&#9;&#9;l92-92C592.9,735.4,592.9,733.2,591.6,731.9z" style="fill: rgb(91, 80, 80);" transform="matrix(1, 0, 0, 1, -78.11816406249636, -64.72647857665925)"/><path class="st1" d="M587,752.6c-1.3-1.3-3.4-1.3-4.8,0L502.9,832c-1.3,1.3-1.3,3.4,0,4.8c0.7,0.7,1.5,1,2.4,1&#10;&#9;&#9;&#9;c0.9,0,1.7-0.3,2.4-1l79.3-79.3C588.3,756.1,588.3,754,587,752.6z" style="fill: rgb(91, 80, 80);" transform="matrix(1, 0, 0, 1, -78.11816406249636, -64.72647857665925)"/><path class="st1" d="M595.1,765.5c1.3-1.3,1.3-3.4,0-4.8c-1.3-1.3-3.4-1.3-4.8,0L511,840.1c-1.3,1.3-1.3,3.4,0,4.8&#10;&#9;&#9;&#9;c0.7,0.7,1.5,1,2.4,1s1.7-0.3,2.4-1L595.1,765.5z" style="fill: rgb(91, 80, 80);" transform="matrix(1, 0, 0, 1, -78.11816406249636, -64.72647857665925)"/><path class="st1" d="M519.1,852.9c0.7,0.7,1.5,1,2.4,1c0.9,0,1.7-0.3,2.4-1l79.3-79.3c1.3-1.3,1.3-3.4,0-4.8&#10;&#9;&#9;&#9;c-1.3-1.3-3.4-1.3-4.8,0l-79.3,79.3C517.7,849.4,517.7,851.6,519.1,852.9z" style="fill: rgb(91, 80, 80);" transform="matrix(1, 0, 0, 1, -78.11816406249636, -64.72647857665925)"/><path class="st1" d="M611.2,776.9c-1.3-1.3-3.4-1.3-4.8,0l-92,92c-1.3,1.3-1.3,3.4,0,4.8c0.7,0.7,1.5,1,2.4,1c0.9,0,1.7-0.3,2.4-1&#10;&#9;&#9;&#9;l92-92C612.5,780.3,612.5,778.2,611.2,776.9z" style="fill: rgb(91, 80, 80);" transform="matrix(1, 0, 0, 1, -78.11816406249636, -64.72647857665925)"/><path d="M 839 759.700012 H 866 V 768.500012 H 839 V 759.700012 Z" class="st0" style="fill: rgb(172, 211, 110);" transform="matrix(1, 0, 0, 1, -78.11816406249636, -64.72647857665925)"/><path class="st0" d="M825.9,717.8c-1.9,0-3.4-1.5-3.3-3.4c0-1.9,1.5-3.3,3.4-3.3c0,0,0,0,0,0c34.4,0.2,69.1,0.2,103.3,0&#10;&#9;&#9;&#9;c-1.5-5.9-6.8-10.3-13.2-10.3H788.9c-6.4,0-11.7,4.4-13.2,10.3c4.8,0.1,9.7,0.1,14.5,0.1c1.9,0,3.4,1.5,3.4,3.4&#10;&#9;&#9;&#9;c0,1.9-1.5,3.4-3.4,3.4c0,0,0,0,0,0c-4.8,0-9.6,0-14.4-0.1c1.5,5.9,6.9,10.2,13.2,10.2h7.5h112h7.5c6.4,0,11.7-4.4,13.2-10.3&#10;&#9;&#9;&#9;c-16.5,0.1-33.1,0.1-49.7,0.1C861.6,718,843.7,717.9,825.9,717.8z M812.8,717.8c-3.3,0-6.7,0.1-10,0.1c0,0,0,0,0,0&#10;&#9;&#9;&#9;c-1.8,0-3.3-1.5-3.4-3.3c0-1.9,1.5-3.4,3.3-3.4c3.3,0,6.7-0.1,9.9-0.1c0,0,0,0,0,0c1.8,0,3.3,1.5,3.4,3.3&#10;&#9;&#9;&#9;C816.1,716.3,814.7,717.8,812.8,717.8z" style="fill: rgb(172, 211, 110);" transform="matrix(1, 0, 0, 1, -78.11816406249636, -64.72647857665925)"/><path class="st0" d="M911.8,890.4c0,11.1-9,20.1-20.1,20.1h-78.5c-11.1,0-20.1-9-20.1-20.1v-6.8h16.3h12.9h60.2h12.9h16.3V890.4z" style="fill: rgb(172, 211, 110);" transform="matrix(1, 0, 0, 1, -78.11816406249636, -64.72647857665925)"/><path class="st0" d="M786.4,840.3h-25.1v-4.8c0-6.9,5.7-12.6,12.6-12.6h12.5V840.3z" style="fill: rgb(172, 211, 110);" transform="matrix(1, 0, 0, 1, -78.11816406249636, -64.72647857665925)"/><path class="st0" d="M943.7,840.3h-24.5c-0.2,0-0.4,0-0.6,0.1v-17.5h12.5c6.9,0,12.6,5.7,12.6,12.6V840.3z" style="fill: rgb(172, 211, 110);" transform="matrix(1, 0, 0, 1, -78.11816406249636, -64.72647857665925)"/><path class="st1" d="M927.2,813.3h-12.5v-19.9c2.7-3.4,4.3-7.7,4.3-12.3v-41.5c0-3-0.9-5.8-2.5-8.1c9.2-2,16.1-10.1,16.1-19.9&#10;&#9;&#9;&#9;&#9;c0,0,0,0,0,0c0,0,0,0,0,0c0,0,0,0,0,0c0-11.2-9.1-20.3-20.4-20.3H785.1c-11.2,0-20.3,9.1-20.4,20.3c0,0,0,0,0,0c0,0,0,0,0,0&#10;&#9;&#9;&#9;&#9;c0,0,0,0,0,0c0,9.8,6.9,17.9,16.1,19.9c-1.6,2.3-2.5,5.1-2.5,8.1v41.5c0,4.6,1.6,8.9,4.3,12.3v19.9H770&#10;&#9;&#9;&#9;&#9;c-10.7,0-19.3,8.7-19.3,19.3V875c0,10.4,8.4,18.8,18.8,18.8h13.8c2.8,11.8,13.4,20.6,26.1,20.6h78.5c12.6,0,23.3-8.8,26.1-20.6&#10;&#9;&#9;&#9;&#9;h13.8c10.4,0,18.8-8.4,18.8-18.8v-42.4C946.5,822,937.9,813.3,927.2,813.3z M782.5,887.1h-13c-6.7,0-12.1-5.4-12.1-12.1v-30.8&#10;&#9;&#9;&#9;&#9;h25.1V887.1z M782.5,837.4h-25.1v-4.8c0-6.9,5.7-12.6,12.6-12.6h12.5V837.4z M908,887.5c0,11.1-9,20.1-20.1,20.1h-78.5&#10;&#9;&#9;&#9;&#9;c-11.1,0-20.1-9-20.1-20.1v-6.8h16.3h12.9h60.2h12.9H908V887.5z M789.2,874v-57.3V799c0.4,0.2,0.8,0.4,1.2,0.6&#10;&#9;&#9;&#9;&#9;c0.1,0.1,0.3,0.1,0.4,0.2c0.4,0.2,0.8,0.3,1.3,0.5c0.1,0,0.3,0.1,0.4,0.1c0.5,0.2,1,0.3,1.6,0.4c0.2,0,0.3,0.1,0.5,0.1&#10;&#9;&#9;&#9;&#9;c0.5,0.1,1.1,0.2,1.6,0.3c0.1,0,0.2,0,0.4,0c0.6,0.1,1.2,0.1,1.8,0.1h3.8V874H789.2z M808.9,874v-72.8h6.2V874H808.9z M848.6,832&#10;&#9;&#9;&#9;&#9;l-26.8-17.2v-13.6h53.5v13.6L848.6,832z M875.3,822.8v26.4L854.8,836L875.3,822.8z M842.4,836l-20.5,13.2v-26.4L842.4,836z&#10;&#9;&#9;&#9;&#9; M848.6,840l26.8,17.2V874h-53.5v-16.7L848.6,840z M882.1,874v-72.8h6.2V874H882.1z M908,816.7V874h-13v-72.8h3.8&#10;&#9;&#9;&#9;&#9;c0.6,0,1.2,0,1.8-0.1c0.1,0,0.2,0,0.4,0c0.6-0.1,1.1-0.1,1.6-0.3c0.2,0,0.3-0.1,0.5-0.1c0.5-0.1,1-0.2,1.6-0.4&#10;&#9;&#9;&#9;&#9;c0.1,0,0.3-0.1,0.4-0.1c0.4-0.1,0.9-0.3,1.3-0.5c0.1-0.1,0.3-0.1,0.4-0.2c0.4-0.2,0.8-0.4,1.2-0.6V816.7z M912.2,781.1&#10;&#9;&#9;&#9;&#9;c0,3.6-1.4,6.8-3.7,9.2c-0.2,0.2-0.3,0.3-0.5,0.5c-0.2,0.2-0.3,0.3-0.5,0.5c-0.2,0.2-0.4,0.3-0.5,0.4c-0.2,0.1-0.3,0.3-0.5,0.4&#10;&#9;&#9;&#9;&#9;c-0.2,0.1-0.4,0.3-0.7,0.4c-0.2,0.1-0.3,0.2-0.5,0.3c-0.3,0.1-0.5,0.3-0.8,0.4c-0.1,0.1-0.3,0.1-0.4,0.2c-0.3,0.1-0.6,0.3-1,0.4&#10;&#9;&#9;&#9;&#9;c-0.1,0-0.2,0.1-0.3,0.1c-0.4,0.1-0.7,0.2-1.1,0.3c-0.1,0-0.1,0-0.2,0.1c-0.4,0.1-0.8,0.1-1.2,0.2c-0.1,0-0.1,0-0.2,0&#10;&#9;&#9;&#9;&#9;c-0.5,0-0.9,0.1-1.4,0.1h-7.2h-12.9h-60.2h-12.9h-7.2c-0.5,0-0.9,0-1.4-0.1c-0.1,0-0.1,0-0.2,0c-0.4,0-0.8-0.1-1.2-0.2&#10;&#9;&#9;&#9;&#9;c-0.1,0-0.1,0-0.2-0.1c-0.4-0.1-0.7-0.2-1.1-0.3c-0.1,0-0.2-0.1-0.3-0.1c-0.3-0.1-0.6-0.2-1-0.4c-0.1-0.1-0.3-0.1-0.4-0.2&#10;&#9;&#9;&#9;&#9;c-0.3-0.1-0.5-0.3-0.8-0.4c-0.2-0.1-0.3-0.2-0.5-0.3c-0.2-0.1-0.4-0.3-0.6-0.4c-0.2-0.1-0.3-0.3-0.5-0.4&#10;&#9;&#9;&#9;&#9;c-0.2-0.1-0.4-0.3-0.5-0.4c-0.2-0.1-0.3-0.3-0.5-0.5c-0.2-0.2-0.3-0.3-0.5-0.5c-2.3-2.4-3.7-5.6-3.7-9.2v-41.5&#10;&#9;&#9;&#9;&#9;c0-4.2,3.4-7.6,7.6-7.6h112c4.2,0,7.6,3.4,7.6,7.6V781.1z M912.1,725.2h-7.5h-112h-7.5c-6.3,0-11.7-4.4-13.2-10.2&#10;&#9;&#9;&#9;&#9;c4.8,0.1,9.7,0.1,14.4,0.1c0,0,0,0,0,0c1.9,0,3.4-1.5,3.4-3.4c0-1.9-1.5-3.4-3.4-3.4c-4.8,0-9.6,0-14.5-0.1&#10;&#9;&#9;&#9;&#9;c1.5-5.9,6.8-10.3,13.2-10.3h127.1c6.4,0,11.7,4.4,13.2,10.3c-34.2,0.2-69,0.2-103.3,0c0,0,0,0,0,0c-1.8,0-3.4,1.5-3.4,3.3&#10;&#9;&#9;&#9;&#9;c0,1.9,1.5,3.4,3.3,3.4c17.8,0.1,35.7,0.1,53.7,0.1c16.6,0,33.2,0,49.7-0.1C923.8,720.8,918.5,725.2,912.1,725.2z M939.8,875&#10;&#9;&#9;&#9;&#9;c0,6.7-5.4,12.1-12.1,12.1h-13v-43c0.2,0,0.4,0.1,0.6,0.1h24.5V875z M939.8,837.4h-24.5c-0.2,0-0.4,0-0.6,0.1V820h12.5&#10;&#9;&#9;&#9;&#9;c6.9,0,12.6,5.7,12.6,12.6V837.4z" style="fill: rgb(91, 80, 80);" transform="matrix(1, 0, 0, 1, -78.11816406249454, -64.72647857665879)"/><path class="st1" d="M862.3,750h-27.5c-3.6,0-6.5,2.9-6.5,6.5v9.3c0,3.6,2.9,6.5,6.5,6.5h27.5c3.6,0,6.5-2.9,6.5-6.5v-9.3&#10;&#9;&#9;&#9;&#9;C868.8,752.9,865.9,750,862.3,750z M862.1,765.5h-27v-8.8h27V765.5z" style="fill: rgb(91, 80, 80);" transform="matrix(1, 0, 0, 1, -78.11816406249454, -64.72647857665879)"/><path class="st1" d="M808.9,708.2C808.9,708.2,808.8,708.2,808.9,708.2c-3.3,0-6.7,0.1-10,0.1c-1.9,0-3.4,1.5-3.3,3.4&#10;&#9;&#9;&#9;&#9;c0,1.8,1.5,3.3,3.4,3.3c0,0,0,0,0,0c3.3,0,6.7-0.1,10-0.1c1.9,0,3.3-1.6,3.3-3.4C812.2,709.7,810.7,708.2,808.9,708.2z" style="fill: rgb(91, 80, 80);" transform="matrix(1, 0, 0, 1, -78.11816406249454, -64.72647857665879)"/><path class="st0" d="M1119.1,767.4c7.9-4.9,18.1-7.7,29-7.7c10.8,0,21.1,2.7,29,7.7c-4.4,2.1-8.3,4.9-11.7,8.4&#10;&#9;&#9;&#9;c-0.2,0.2-0.4,0.4-0.5,0.5c-0.2,0.2-0.5,0.5-0.7,0.7c-0.3,0.3-0.6,0.6-0.8,0.9c-0.1,0.1-0.2,0.2-0.3,0.4&#10;&#9;&#9;&#9;c-4.8-1.1-9.8-1.6-14.9-1.6c-5.1,0-10.1,0.5-14.9,1.6c-0.1-0.1-0.2-0.2-0.3-0.4c-0.3-0.3-0.5-0.6-0.8-0.9&#10;&#9;&#9;&#9;c-0.2-0.3-0.5-0.5-0.7-0.8c-0.2-0.2-0.4-0.4-0.5-0.5C1127.3,772.4,1123.4,769.5,1119.1,767.4z" style="fill: rgb(172, 211, 110);" transform="matrix(1, 0, 0, 1, -78.11816406249636, -64.72647857665925)"/><path class="st0" d="M1224.4,773.7c-17.6,0-31.9,14.3-31.9,31.9c0,17.6,14.3,31.9,31.9,31.9c17.6,0,31.9-14.3,31.9-31.9&#10;&#9;&#9;&#9;C1256.3,788.1,1242,773.7,1224.4,773.7z M1224.4,789.1c-9.1,0-16.5,7.4-16.5,16.5c0,2.9,0.8,5.7,2.2,8.2c0.9,1.6,0.4,3.7-1.2,4.6&#10;&#9;&#9;&#9;c-0.5,0.3-1.1,0.4-1.7,0.4c-1.2,0-2.3-0.6-2.9-1.7c-2-3.5-3.1-7.5-3.1-11.5c0-12.8,10.4-23.3,23.3-23.3c1.9,0,3.4,1.5,3.4,3.4&#10;&#9;&#9;&#9;C1227.7,787.6,1226.2,789.1,1224.4,789.1z" style="fill: rgb(172, 211, 110);" transform="matrix(1, 0, 0, 1, -78.11816406249636, -64.72647857665925)"/><path class="st0" d="M1071.7,773.7c-17.6,0-31.9,14.3-31.9,31.9c0,17.6,14.3,31.9,31.9,31.9c17.6,0,31.9-14.3,31.9-31.9&#10;&#9;&#9;&#9;C1103.6,788.1,1089.3,773.7,1071.7,773.7z M1091.8,817.2c-0.6,1.1-1.8,1.7-2.9,1.7c-0.6,0-1.1-0.1-1.7-0.4c-1.6-0.9-2.2-3-1.2-4.6&#10;&#9;&#9;&#9;c1.4-2.5,2.2-5.3,2.2-8.2c0-9.1-7.4-16.5-16.5-16.5c-1.9,0-3.4-1.5-3.4-3.4c0-1.9,1.5-3.4,3.4-3.4c12.8,0,23.3,10.4,23.3,23.3&#10;&#9;&#9;&#9;C1094.9,809.7,1093.9,813.7,1091.8,817.2z" style="fill: rgb(172, 211, 110);" transform="matrix(1, 0, 0, 1, -78.11816406249636, -64.72647857665925)"/><path class="st1" d="M1067.8,764.1c-21.3,0-38.7,17.3-38.7,38.7c0,21.3,17.3,38.7,38.7,38.7c21.3,0,38.7-17.3,38.7-38.7&#10;&#9;&#9;&#9;&#9;C1106.5,781.4,1089.1,764.1,1067.8,764.1z M1067.8,834.7c-17.6,0-31.9-14.3-31.9-31.9c0-17.6,14.3-31.9,31.9-31.9&#10;&#9;&#9;&#9;&#9;c17.6,0,31.9,14.3,31.9,31.9C1099.7,820.4,1085.4,834.7,1067.8,834.7z" style="fill: rgb(91, 80, 80);" transform="matrix(1, 0, 0, 1, -78.11816406249454, -64.72647857665879)"/><path class="st1" d="M1067.8,779.5c-1.9,0-3.4,1.5-3.4,3.4c0,1.9,1.5,3.4,3.4,3.4c9.1,0,16.5,7.4,16.5,16.5&#10;&#9;&#9;&#9;&#9;c0,2.9-0.8,5.7-2.2,8.2c-0.9,1.6-0.4,3.7,1.2,4.6c0.5,0.3,1.1,0.4,1.7,0.4c1.2,0,2.3-0.6,2.9-1.7c2-3.5,3.1-7.5,3.1-11.5&#10;&#9;&#9;&#9;&#9;C1091,789.9,1080.6,779.5,1067.8,779.5z" style="fill: rgb(91, 80, 80);" transform="matrix(1, 0, 0, 1, -78.11816406249454, -64.72647857665879)"/><path class="st1" d="M1220.5,746.1c-15,0-28.6,5.9-38.8,15.4c-0.3,0.1-0.6,0.1-0.9,0.2c-9.4-7.4-22.6-11.6-36.6-11.6&#10;&#9;&#9;&#9;&#9;c-14,0-27.3,4.2-36.6,11.6c-0.3-0.1-0.6-0.2-0.9-0.2c-10.1-9.5-23.8-15.4-38.8-15.4c-31.2,0-56.7,25.4-56.7,56.7&#10;&#9;&#9;&#9;&#9;c0,31.2,25.4,56.7,56.7,56.7c15,0,28.6-5.9,38.8-15.4c9-2.1,17.2-7.2,23-14.4c1.9-2.4,3.6-4.9,5-7.6c0,0,0,0,0.1,0h18.5&#10;&#9;&#9;&#9;&#9;c0.2,0,0.4,0,0.5-0.1c1.4,2.7,3,5.3,5,7.7c5.9,7.2,14,12.3,23,14.4c10.1,9.5,23.8,15.4,38.8,15.4c31.2,0,56.7-25.4,56.7-56.7&#10;&#9;&#9;&#9;&#9;C1277.2,771.5,1251.8,746.1,1220.5,746.1z M1151.1,789.9h-14c-0.9-2.9-2.2-5.7-3.7-8.3c3.5-0.6,7-0.9,10.7-0.9&#10;&#9;&#9;&#9;&#9;c3.6,0,7.2,0.3,10.7,0.9C1153.3,784.2,1152.1,787,1151.1,789.9z M1115.2,764.5c7.9-4.9,18.1-7.7,29-7.7c10.8,0,21.1,2.7,29,7.7&#10;&#9;&#9;&#9;&#9;c-4.4,2.1-8.3,4.9-11.7,8.4c-0.2,0.2-0.4,0.4-0.5,0.5c-0.2,0.2-0.5,0.5-0.7,0.7c-0.3,0.3-0.6,0.6-0.8,0.9&#10;&#9;&#9;&#9;&#9;c-0.1,0.1-0.2,0.2-0.3,0.4c-4.8-1.1-9.8-1.6-14.9-1.6s-10.1,0.5-14.9,1.6c-0.1-0.1-0.2-0.2-0.3-0.4c-0.3-0.3-0.5-0.6-0.8-0.9&#10;&#9;&#9;&#9;&#9;c-0.2-0.3-0.5-0.5-0.7-0.8c-0.2-0.2-0.4-0.4-0.5-0.5C1123.5,769.5,1119.5,766.6,1115.2,764.5z M1017.8,802.8&#10;&#9;&#9;&#9;&#9;c0-27.5,22.4-49.9,49.9-49.9c27.5,0,49.9,22.4,49.9,49.9c0,27.5-22.4,49.9-49.9,49.9C1040.3,852.7,1017.8,830.3,1017.8,802.8z&#10;&#9;&#9;&#9;&#9; M1115.8,833c5.1-8.1,8.1-17.3,8.6-27c0-0.2,0-0.4,0-0.6c0-0.9,0.1-1.8,0.1-2.6c0-0.9,0-1.8-0.1-2.6c0-0.2,0-0.4,0-0.6&#10;&#9;&#9;&#9;&#9;c-0.5-9.7-3.5-18.9-8.6-26.9c0.3,0.2,0.5,0.3,0.8,0.5c0.3,0.2,0.7,0.4,1,0.7c0.2,0.2,0.5,0.4,0.7,0.5&#10;&#9;&#9;&#9;&#9;c8.7,6.6,14.2,17.1,14.2,28.5C1132.5,815.2,1125.9,826.5,1115.8,833z M1137.3,815.2c1.2-4,1.9-8.2,1.9-12.5&#10;&#9;&#9;&#9;&#9;c0-2.1-0.2-4.1-0.5-6.2h10.9c-0.3,2-0.5,4.1-0.5,6.2c0,4.3,0.6,8.5,1.9,12.5H1137.3z M1155.8,802.8c0-11.4,5.5-21.9,14.2-28.5&#10;&#9;&#9;&#9;&#9;c0.2-0.2,0.5-0.4,0.7-0.5c0.3-0.2,0.6-0.4,1-0.7c0.3-0.2,0.5-0.3,0.8-0.5c-5.1,8-8,17.2-8.6,26.9c0,0.2,0,0.4,0,0.6&#10;&#9;&#9;&#9;&#9;c0,0.9-0.1,1.8-0.1,2.6c0,0.9,0,1.8,0.1,2.6c0,0.2,0,0.4,0,0.6c0.5,9.7,3.5,18.9,8.6,27C1162.4,826.5,1155.8,815.2,1155.8,802.8z&#10;&#9;&#9;&#9;&#9; M1220.5,852.7c-26.7,0-48.5-21-49.9-47.4c0,0,0,0,0,0c0-0.8-0.1-1.7-0.1-2.6c0-27.5,22.4-49.9,49.9-49.9&#10;&#9;&#9;&#9;&#9;c27.5,0,49.9,22.4,49.9,49.9C1270.5,830.3,1248,852.7,1220.5,852.7z" style="fill: rgb(91, 80, 80);" transform="matrix(1, 0, 0, 1, -78.11816406249454, -64.72647857665879)"/><path class="st1" d="M1220.5,764.1c-21.3,0-38.7,17.3-38.7,38.7c0,21.3,17.3,38.7,38.7,38.7c21.3,0,38.7-17.3,38.7-38.7&#10;&#9;&#9;&#9;&#9;C1259.2,781.4,1241.8,764.1,1220.5,764.1z M1220.5,834.7c-17.6,0-31.9-14.3-31.9-31.9c0-17.6,14.3-31.9,31.9-31.9&#10;&#9;&#9;&#9;&#9;s31.9,14.3,31.9,31.9C1252.5,820.4,1238.1,834.7,1220.5,834.7z" style="fill: rgb(91, 80, 80);" transform="matrix(1, 0, 0, 1, -78.11816406249454, -64.72647857665879)"/><path class="st1" d="M1220.5,779.5c-12.8,0-23.3,10.4-23.3,23.3c0,4,1.1,8,3.1,11.5c0.6,1.1,1.8,1.7,2.9,1.7&#10;&#9;&#9;&#9;&#9;c0.6,0,1.1-0.1,1.7-0.4c1.6-0.9,2.2-3,1.2-4.6c-1.4-2.5-2.2-5.3-2.2-8.2c0-9.1,7.4-16.5,16.5-16.5c1.9,0,3.4-1.5,3.4-3.4&#10;&#9;&#9;&#9;&#9;C1223.9,781,1222.4,779.5,1220.5,779.5z" style="fill: rgb(91, 80, 80);" transform="matrix(1, 0, 0, 1, -78.11816406249454, -64.72647857665879)"/><path class="st0" d="M1116.1,420.9v-17.7h60.6v17.7c0,2-0.1,4-0.2,6h-60.1C1116.2,424.9,1116.1,422.9,1116.1,420.9z" style="fill: rgb(172, 211, 110);" transform="matrix(1, 0, 0, 1, -78.11816406249636, -64.72647857665925)"/><path class="st0" d="M1163,603.2h1.1V467.5h-35.4v135.7c8,0,16,0,23.9,0c1.9,0,3.4,1.5,3.3,3.4c0,1.9-1.5,3.3-3.4,3.3c0,0,0,0,0,0&#10;&#9;&#9;&#9;c-8,0-16,0-23.9,0v5.2c0,1.1,0.9,2,2,2h31.4c1.1,0,2-0.9,2-2v-5.2h-1.1c-1.9,0-3.4-1.5-3.4-3.4&#10;&#9;&#9;&#9;C1159.6,604.7,1161.1,603.2,1163,603.2z M1156.1,515.5c0,3.7-3,6.7-6.7,6.7h-6.1c-3.7,0-6.7-3-6.7-6.7v-22.5c0-3.7,3-6.7,6.7-6.7&#10;&#9;&#9;&#9;h6.1c3.7,0,6.7,3,6.7,6.7V515.5z" style="fill: rgb(172, 211, 110);" transform="matrix(1, 0, 0, 1, -78.11816406249636, -64.72647857665925)"/><path class="st1" d="M1145.6,483.5h-6.1c-3.7,0-6.7,3-6.7,6.7v22.5c0,3.7,3,6.7,6.7,6.7h6.1c3.7,0,6.7-3,6.7-6.7v-22.5&#10;&#9;&#9;&#9;&#9;C1152.2,486.5,1149.2,483.5,1145.6,483.5z M1145.5,490.2v7.8h-6v-7.8H1145.5z M1139.5,512.6v-7.8h6v7.8H1139.5z" style="fill: rgb(91, 80, 80);" transform="matrix(1, 0, 0, 1, -78.11816406249454, -64.72647857665879)"/><path class="st1" d="M1178.8,371.7h-72.6c-3.2,0-5.7,2.6-5.7,5.7v17.2c0,2.8,2.6,4.3,5,5V418c0,2.6,0.1,5.3,0.4,7.9l0.4,3.7&#10;&#9;&#9;&#9;&#9;c1.6,11.6,5.6,22.7,11.8,32.7v150c0,4.8,3.9,8.8,8.8,8.8h31.4c4.8,0,8.8-3.9,8.8-8.8v-150c6.2-10,10.2-21.1,11.8-32.7l0.4-3.7&#10;&#9;&#9;&#9;&#9;c0.2-2.6,0.4-5.2,0.4-7.9v-17.8c2.8-0.4,5-2.8,5-5.7v-17.2C1184.5,374.2,1181.9,371.7,1178.8,371.7z M1177.8,378.4v4.8&#10;&#9;&#9;&#9;&#9;c-5.9-0.1-12-0.1-17.7,0.1c-1.9,0.1-3.3,1.6-3.2,3.5c0.1,1.9,1.6,3.3,3.5,3.2c5.7-0.2,11.6-0.2,17.5-0.1v3.6h-1.6h-67.1&#10;&#9;&#9;&#9;&#9;c-0.4,0-1.2-0.2-1.9-0.5V390c14.9-0.2,29.6-0.2,44.6,0c0,0,0,0,0.1,0c1.8,0,3.3-1.5,3.4-3.3c0-1.9-1.5-3.4-3.3-3.4&#10;&#9;&#9;&#9;&#9;c-15-0.2-29.7-0.2-44.7,0v-4.9H1177.8z M1112.2,418v-17.7h60.6V418c0,2-0.1,4-0.2,6h-60.1C1112.3,422,1112.2,420,1112.2,418z&#10;&#9;&#9;&#9;&#9; M1113.3,430.7h58.5c-1.6,9.6-5,18.8-10,27.1h-38.4C1118.2,449.5,1114.9,440.3,1113.3,430.7z M1158.2,614.2h-31.4&#10;&#9;&#9;&#9;&#9;c-1.1,0-2-0.9-2-2V607c7.9,0,16,0,23.9,0c0,0,0,0,0,0c1.9,0,3.4-1.5,3.4-3.3c0-1.9-1.5-3.4-3.3-3.4c-8,0-16,0-23.9,0V464.6h35.4&#10;&#9;&#9;&#9;&#9;v135.7h-1.1c-1.9,0-3.4,1.5-3.4,3.4c0,1.9,1.5,3.4,3.4,3.4h1.1v5.2C1160.2,613.3,1159.3,614.2,1158.2,614.2z" style="fill: rgb(91, 80, 80);" transform="matrix(1, 0, 0, 1, -78.11816406249454, -64.72647857665879)"/>
<g transform="matrix(2.304797649383545, 0, 0, 2.304797649383545, -64.1181173324585, -64.72647857666021)"><path d="M 0 0 H 595.280029 V 425.200012 H 0 V 0 Z" style="stroke: none; fill: rgb(255, 255, 255); stroke-linecap: round; stroke-linejoin: round; stroke-miterlimit: 10;"/><path d="M 0 0 H 595.280029 V 425.200012 H 0 V 0 Z" style="stroke-width: 1.07; stroke: rgb(255, 255, 255); fill: rgb(255, 255, 255); stroke-linecap: round; stroke-linejoin: round; stroke-miterlimit: 10;"/><path d="M 69.010002 28.35 H 566.930016 V 380.800013 H 69.010002 V 28.35 Z" style="stroke-width: 1.07; stroke: none; fill: rgb(255, 255, 255); stroke-linecap: round; stroke-linejoin: round; stroke-miterlimit: 10;" clip-path="url(#cpNjkuMDF8NTY2LjkzfDM4MC43OXwyOC4zNQ==)"/><path d="M 69.010002 334.119995 L 566.929993 334.119995" style="stroke-width: 0.53; stroke: rgb(235, 235, 235); stroke-linecap: butt; fill: none; stroke-linejoin: round; stroke-miterlimit: 10;" clip-path="url(#cpNjkuMDF8NTY2LjkzfDM4MC43OXwyOC4zNQ==)"/><path d="M 69.010002 272.429993 L 566.929993 272.429993" style="stroke-width: 0.53; stroke: rgb(235, 235, 235); stroke-linecap: butt; fill: none; stroke-linejoin: round; stroke-miterlimit: 10;" clip-path="url(#cpNjkuMDF8NTY2LjkzfDM4MC43OXwyOC4zNQ==)"/><path d="M 69.010002 179.899994 L 566.929993 179.899994" style="stroke-width: 0.53; stroke: rgb(235, 235, 235); stroke-linecap: butt; fill: none; stroke-linejoin: round; stroke-miterlimit: 10;" clip-path="url(#cpNjkuMDF8NTY2LjkzfDM4MC43OXwyOC4zNQ==)"/><path d="M 69.010002 87.370003 L 566.929993 87.370003" style="stroke-width: 0.53; stroke: rgb(235, 235, 235); stroke-linecap: butt; fill: none; stroke-linejoin: round; stroke-miterlimit: 10;" clip-path="url(#cpNjkuMDF8NTY2LjkzfDM4MC43OXwyOC4zNQ==)"/><path d="M 69.010002 56.52 L 566.929993 56.52" style="stroke-width: 0.53; stroke: rgb(235, 235, 235); stroke-linecap: butt; fill: none; stroke-linejoin: round; stroke-miterlimit: 10;" clip-path="url(#cpNjkuMDF8NTY2LjkzfDM4MC43OXwyOC4zNQ==)"/><path d="M 177.490005 380.790009 L 177.490005 28.35" style="stroke-width: 0.53; stroke: rgb(235, 235, 235); stroke-linecap: butt; fill: none; stroke-linejoin: round; stroke-miterlimit: 10;" clip-path="url(#cpNjkuMDF8NTY2LjkzfDM4MC43OXwyOC4zNQ==)"/><path d="M 286.75 380.790009 L 286.75 28.35" style="stroke-width: 0.53; stroke: rgb(235, 235, 235); stroke-linecap: butt; fill: none; stroke-linejoin: round; stroke-miterlimit: 10;" clip-path="url(#cpNjkuMDF8NTY2LjkzfDM4MC43OXwyOC4zNQ==)"/><path d="M 396.01001 380.790009 L 396.01001 28.35" style="stroke-width: 0.53; stroke: rgb(235, 235, 235); stroke-linecap: butt; fill: none; stroke-linejoin: round; stroke-miterlimit: 10;" clip-path="url(#cpNjkuMDF8NTY2LjkzfDM4MC43OXwyOC4zNQ==)"/><path d="M 505.269989 380.790009 L 505.269989 28.35" style="stroke-width: 0.53; stroke: rgb(235, 235, 235); stroke-linecap: butt; fill: none; stroke-linejoin: round; stroke-miterlimit: 10;" clip-path="url(#cpNjkuMDF8NTY2LjkzfDM4MC43OXwyOC4zNQ==)"/><path d="M 69.010002 364.970001 L 566.929993 364.970001" style="stroke-width: 1.07; stroke: rgb(235, 235, 235); stroke-linecap: butt; fill: none; stroke-linejoin: round; stroke-miterlimit: 10;" clip-path="url(#cpNjkuMDF8NTY2LjkzfDM4MC43OXwyOC4zNQ==)"/><path d="M 69.010002 303.279999 L 566.929993 303.279999" style="stroke-width: 1.07; stroke: rgb(235, 235, 235); stroke-linecap: butt; fill: none; stroke-linejoin: round; stroke-miterlimit: 10;" clip-path="url(#cpNjkuMDF8NTY2LjkzfDM4MC43OXwyOC4zNQ==)"/><path d="M 69.010002 241.589996 L 566.929993 241.589996" style="stroke-width: 1.07; stroke: rgb(235, 235, 235); stroke-linecap: butt; fill: none; stroke-linejoin: round; stroke-miterlimit: 10;" clip-path="url(#cpNjkuMDF8NTY2LjkzfDM4MC43OXwyOC4zNQ==)"/><path d="M 69.010002 118.209999 L 566.929993 118.209999" style="stroke-width: 1.07; stroke: rgb(235, 235, 235); stroke-linecap: butt; fill: none; stroke-linejoin: round; stroke-miterlimit: 10;" clip-path="url(#cpNjkuMDF8NTY2LjkzfDM4MC43OXwyOC4zNQ==)"/><path d="M 122.860001 380.790009 L 122.860001 28.35" style="stroke-width: 1.07; stroke: rgb(235, 235, 235); stroke-linecap: butt; fill: none; stroke-linejoin: round; stroke-miterlimit: 10;" clip-path="url(#cpNjkuMDF8NTY2LjkzfDM4MC43OXwyOC4zNQ==)"/><path d="M 232.119995 380.790009 L 232.119995 28.35" style="stroke-width: 1.07; stroke: rgb(235, 235, 235); stroke-linecap: butt; fill: none; stroke-linejoin: round; stroke-miterlimit: 10;" clip-path="url(#cpNjkuMDF8NTY2LjkzfDM4MC43OXwyOC4zNQ==)"/><path d="M 341.380005 380.790009 L 341.380005 28.35" style="stroke-width: 1.07; stroke: rgb(235, 235, 235); stroke-linecap: butt; fill: none; stroke-linejoin: round; stroke-miterlimit: 10;" clip-path="url(#cpNjkuMDF8NTY2LjkzfDM4MC43OXwyOC4zNQ==)"/><path d="M 450.640015 380.790009 L 450.640015 28.35" style="stroke-width: 1.07; stroke: rgb(235, 235, 235); stroke-linecap: butt; fill: none; stroke-linejoin: round; stroke-miterlimit: 10;" clip-path="url(#cpNjkuMDF8NTY2LjkzfDM4MC43OXwyOC4zNQ==)"/><path d="M 559.909973 380.790009 L 559.909973 28.35" style="stroke-width: 1.07; stroke: rgb(235, 235, 235); stroke-linecap: butt; fill: none; stroke-linejoin: round; stroke-miterlimit: 10;" clip-path="url(#cpNjkuMDF8NTY2LjkzfDM4MC43OXwyOC4zNQ==)"/><path d="M 91.639999 364.73999 L 107.25 364.670013 L 122.860001 364.570007 L 138.470001 364.440002 L 154.080002 364.26001 L 169.679993 364.029999 L 185.289993 363.730011 L 200.899994 363.320007 L 216.509995 362.779999 L 232.119995 362.089996 L 247.729996 361.170013 L 263.339996 359.910004 L 278.950012 358.290009 L 294.559998 356.149994 L 310.160004 353.279999 L 325.769989 349.519989 L 341.380005 344.570007 L 356.98999 338.059998 L 372.600006 329.649994 L 388.209991 318.790009 L 403.820007 305.049988 L 419.429993 287.839996 L 435.029999 266.679993 L 450.640015 241.389999 L 466.25 211.770004 L 481.859985 178.789993 L 497.470001 143.720001 L 513.080017 108.370003 L 528.690002 74.620003 L 544.299988 45.48" style="stroke-width: 2.13; stroke: rgb(230, 171, 2); stroke-linecap: butt; fill: none; stroke-linejoin: round; stroke-miterlimit: 10;" clip-path="url(#cpNjkuMDF8NTY2LjkzfDM4MC43OXwyOC4zNQ==)"/><path d="M 93.589999 364.73999 A 1.95 1.95 0 0 1 91.639999 366.68999 A 1.95 1.95 0 0 1 89.689999 364.73999 A 1.95 1.95 0 0 1 91.639999 362.78999 A 1.95 1.95 0 0 1 93.589999 364.73999 Z" style="stroke-width: 0.71; stroke: rgb(230, 171, 2); fill: rgb(230, 171, 2); stroke-linecap: round; stroke-linejoin: round; stroke-miterlimit: 10;" clip-path="url(#cpNjkuMDF8NTY2LjkzfDM4MC43OXwyOC4zNQ==)"/><path d="M 109.2 364.670013 A 1.95 1.95 0 0 1 107.25 366.620013 A 1.95 1.95 0 0 1 105.3 364.670013 A 1.95 1.95 0 0 1 107.25 362.720013 A 1.95 1.95 0 0 1 109.2 364.670013 Z" style="stroke-width: 0.71; stroke: rgb(230, 171, 2); fill: rgb(230, 171, 2); stroke-linecap: round; stroke-linejoin: round; stroke-miterlimit: 10;" clip-path="url(#cpNjkuMDF8NTY2LjkzfDM4MC43OXwyOC4zNQ==)"/><path d="M 124.810001 364.570007 A 1.95 1.95 0 0 1 122.860001 366.520007 A 1.95 1.95 0 0 1 120.910001 364.570007 A 1.95 1.95 0 0 1 122.860001 362.620007 A 1.95 1.95 0 0 1 124.810001 364.570007 Z" style="stroke-width: 0.71; stroke: rgb(230, 171, 2); fill: rgb(230, 171, 2); stroke-linecap: round; stroke-linejoin: round; stroke-miterlimit: 10;" clip-path="url(#cpNjkuMDF8NTY2LjkzfDM4MC43OXwyOC4zNQ==)"/><path d="M 140.420001 364.440002 A 1.95 1.95 0 0 1 138.470001 366.390002 A 1.95 1.95 0 0 1 136.520001 364.440002 A 1.95 1.95 0 0 1 138.470001 362.490002 A 1.95 1.95 0 0 1 140.420001 364.440002 Z" style="stroke-width: 0.71; stroke: rgb(230, 171, 2); fill: rgb(230, 171, 2); stroke-linecap: round; stroke-linejoin: round; stroke-miterlimit: 10;" clip-path="url(#cpNjkuMDF8NTY2LjkzfDM4MC43OXwyOC4zNQ==)"/><path d="M 156.030002 364.26001 A 1.95 1.95 0 0 1 154.080002 366.21001 A 1.95 1.95 0 0 1 152.130002 364.26001 A 1.95 1.95 0 0 1 154.080002 362.31001 A 1.95 1.95 0 0 1 156.030002 364.26001 Z" style="stroke-width: 0.71; stroke: rgb(230, 171, 2); fill: rgb(230, 171, 2); stroke-linecap: round; stroke-linejoin: round; stroke-miterlimit: 10;" clip-path="url(#cpNjkuMDF8NTY2LjkzfDM4MC43OXwyOC4zNQ==)"/><path d="M 171.629993 364.029999 A 1.95 1.95 0 0 1 169.679993 365.979999 A 1.95 1.95 0 0 1 167.729993 364.029999 A 1.95 1.95 0 0 1 169.679993 362.079999 A 1.95 1.95 0 0 1 171.629993 364.029999 Z" style="stroke-width: 0.71; stroke: rgb(230, 171, 2); fill: rgb(230, 171, 2); stroke-linecap: round; stroke-linejoin: round; stroke-miterlimit: 10;" clip-path="url(#cpNjkuMDF8NTY2LjkzfDM4MC43OXwyOC4zNQ==)"/><path d="M 187.239993 363.730011 A 1.95 1.95 0 0 1 185.289993 365.680011 A 1.95 1.95 0 0 1 183.339993 363.730011 A 1.95 1.95 0 0 1 185.289993 361.780011 A 1.95 1.95 0 0 1 187.239993 363.730011 Z" style="stroke-width: 0.71; stroke: rgb(230, 171, 2); fill: rgb(230, 171, 2); stroke-linecap: round; stroke-linejoin: round; stroke-miterlimit: 10;" clip-path="url(#cpNjkuMDF8NTY2LjkzfDM4MC43OXwyOC4zNQ==)"/><path d="M 202.849994 363.320007 A 1.95 1.95 0 0 1 200.899994 365.270007 A 1.95 1.95 0 0 1 198.949994 363.320007 A 1.95 1.95 0 0 1 200.899994 361.370007 A 1.95 1.95 0 0 1 202.849994 363.320007 Z" style="stroke-width: 0.71; stroke: rgb(230, 171, 2); fill: rgb(230, 171, 2); stroke-linecap: round; stroke-linejoin: round; stroke-miterlimit: 10;" clip-path="url(#cpNjkuMDF8NTY2LjkzfDM4MC43OXwyOC4zNQ==)"/><path d="M 218.459995 362.779999 A 1.95 1.95 0 0 1 216.509995 364.729999 A 1.95 1.95 0 0 1 214.559994 362.779999 A 1.95 1.95 0 0 1 216.509995 360.829999 A 1.95 1.95 0 0 1 218.459995 362.779999 Z" style="stroke-width: 0.71; stroke: rgb(230, 171, 2); fill: rgb(230, 171, 2); stroke-linecap: round; stroke-linejoin: round; stroke-miterlimit: 10;" clip-path="url(#cpNjkuMDF8NTY2LjkzfDM4MC43OXwyOC4zNQ==)"/><path d="M 234.069995 362.089996 A 1.95 1.95 0 0 1 232.119995 364.039996 A 1.95 1.95 0 0 1 230.169995 362.089996 A 1.95 1.95 0 0 1 232.119995 360.139996 A 1.95 1.95 0 0 1 234.069995 362.089996 Z" style="stroke-width: 0.71; stroke: rgb(230, 171, 2); fill: rgb(230, 171, 2); stroke-linecap: round; stroke-linejoin: round; stroke-miterlimit: 10;" clip-path="url(#cpNjkuMDF8NTY2LjkzfDM4MC43OXwyOC4zNQ==)"/><path d="M 249.679996 361.170013 A 1.95 1.95 0 0 1 247.729996 363.120013 A 1.95 1.95 0 0 1 245.779996 361.170013 A 1.95 1.95 0 0 1 247.729996 359.220013 A 1.95 1.95 0 0 1 249.679996 361.170013 Z" style="stroke-width: 0.71; stroke: rgb(230, 171, 2); fill: rgb(230, 171, 2); stroke-linecap: round; stroke-linejoin: round; stroke-miterlimit: 10;" clip-path="url(#cpNjkuMDF8NTY2LjkzfDM4MC43OXwyOC4zNQ==)"/><path d="M 265.289996 359.910004 A 1.95 1.95 0 0 1 263.339996 361.860004 A 1.95 1.95 0 0 1 261.389996 359.910004 A 1.95 1.95 0 0 1 263.339996 357.960004 A 1.95 1.95 0 0 1 265.289996 359.910004 Z" style="stroke-width: 0.71; stroke: rgb(230, 171, 2); fill: rgb(230, 171, 2); stroke-linecap: round; stroke-linejoin: round; stroke-miterlimit: 10;" clip-path="url(#cpNjkuMDF8NTY2LjkzfDM4MC43OXwyOC4zNQ==)"/><path d="M 280.900012 358.290009 A 1.95 1.95 0 0 1 278.950012 360.240009 A 1.95 1.95 0 0 1 277.000012 358.290009 A 1.95 1.95 0 0 1 278.950012 356.340008 A 1.95 1.95 0 0 1 280.900012 358.290009 Z" style="stroke-width: 0.71; stroke: rgb(230, 171, 2); fill: rgb(230, 171, 2); stroke-linecap: round; stroke-linejoin: round; stroke-miterlimit: 10;" clip-path="url(#cpNjkuMDF8NTY2LjkzfDM4MC43OXwyOC4zNQ==)"/><path d="M 296.509998 356.149994 A 1.95 1.95 0 0 1 294.559998 358.099994 A 1.95 1.95 0 0 1 292.609998 356.149994 A 1.95 1.95 0 0 1 294.559998 354.199994 A 1.95 1.95 0 0 1 296.509998 356.149994 Z" style="stroke-width: 0.71; stroke: rgb(230, 171, 2); fill: rgb(230, 171, 2); stroke-linecap: round; stroke-linejoin: round; stroke-miterlimit: 10;" clip-path="url(#cpNjkuMDF8NTY2LjkzfDM4MC43OXwyOC4zNQ==)"/><path d="M 312.110004 353.279999 A 1.95 1.95 0 0 1 310.160004 355.229999 A 1.95 1.95 0 0 1 308.210004 353.279999 A 1.95 1.95 0 0 1 310.160004 351.329999 A 1.95 1.95 0 0 1 312.110004 353.279999 Z" style="stroke-width: 0.71; stroke: rgb(230, 171, 2); fill: rgb(230, 171, 2); stroke-linecap: round; stroke-linejoin: round; stroke-miterlimit: 10;" clip-path="url(#cpNjkuMDF8NTY2LjkzfDM4MC43OXwyOC4zNQ==)"/><path d="M 327.719989 349.519989 A 1.95 1.95 0 0 1 325.769989 351.469989 A 1.95 1.95 0 0 1 323.819989 349.519989 A 1.95 1.95 0 0 1 325.769989 347.569989 A 1.95 1.95 0 0 1 327.719989 349.519989 Z" style="stroke-width: 0.71; stroke: rgb(230, 171, 2); fill: rgb(230, 171, 2); stroke-linecap: round; stroke-linejoin: round; stroke-miterlimit: 10;" clip-path="url(#cpNjkuMDF8NTY2LjkzfDM4MC43OXwyOC4zNQ==)"/><path d="M 343.330005 344.570007 A 1.95 1.95 0 0 1 341.380005 346.520007 A 1.95 1.95 0 0 1 339.430005 344.570007 A 1.95 1.95 0 0 1 341.380005 342.620007 A 1.95 1.95 0 0 1 343.330005 344.570007 Z" style="stroke-width: 0.71; stroke: rgb(230, 171, 2); fill: rgb(230, 171, 2); stroke-linecap: round; stroke-linejoin: round; stroke-miterlimit: 10;" clip-path="url(#cpNjkuMDF8NTY2LjkzfDM4MC43OXwyOC4zNQ==)"/><path d="M 358.93999 338.059998 A 1.95 1.95 0 0 1 356.98999 340.009998 A 1.95 1.95 0 0 1 355.03999 338.059998 A 1.95 1.95 0 0 1 356.98999 336.109998 A 1.95 1.95 0 0 1 358.93999 338.059998 Z" style="stroke-width: 0.71; stroke: rgb(230, 171, 2); fill: rgb(230, 171, 2); stroke-linecap: round; stroke-linejoin: round; stroke-miterlimit: 10;" clip-path="url(#cpNjkuMDF8NTY2LjkzfDM4MC43OXwyOC4zNQ==)"/><path d="M 374.550006 329.649994 A 1.95 1.95 0 0 1 372.600006 331.599994 A 1.95 1.95 0 0 1 370.650006 329.649994 A 1.95 1.95 0 0 1 372.600006 327.699994 A 1.95 1.95 0 0 1 374.550006 329.649994 Z" style="stroke-width: 0.71; stroke: rgb(230, 171, 2); fill: rgb(230, 171, 2); stroke-linecap: round; stroke-linejoin: round; stroke-miterlimit: 10;" clip-path="url(#cpNjkuMDF8NTY2LjkzfDM4MC43OXwyOC4zNQ==)"/><path d="M 390.159992 318.790009 A 1.95 1.95 0 0 1 388.209991 320.740009 A 1.95 1.95 0 0 1 386.259991 318.790009 A 1.95 1.95 0 0 1 388.209991 316.840008 A 1.95 1.95 0 0 1 390.159992 318.790009 Z" style="stroke-width: 0.71; stroke: rgb(230, 171, 2); fill: rgb(230, 171, 2); stroke-linecap: round; stroke-linejoin: round; stroke-miterlimit: 10;" clip-path="url(#cpNjkuMDF8NTY2LjkzfDM4MC43OXwyOC4zNQ==)"/><path d="M 405.770007 305.049988 A 1.95 1.95 0 0 1 403.820007 306.999988 A 1.95 1.95 0 0 1 401.870007 305.049988 A 1.95 1.95 0 0 1 403.820007 303.099988 A 1.95 1.95 0 0 1 405.770007 305.049988 Z" style="stroke-width: 0.71; stroke: rgb(230, 171, 2); fill: rgb(230, 171, 2); stroke-linecap: round; stroke-linejoin: round; stroke-miterlimit: 10;" clip-path="url(#cpNjkuMDF8NTY2LjkzfDM4MC43OXwyOC4zNQ==)"/><path d="M 421.379993 287.839996 A 1.95 1.95 0 0 1 419.429993 289.789996 A 1.95 1.95 0 0 1 417.479993 287.839996 A 1.95 1.95 0 0 1 419.429993 285.889996 A 1.95 1.95 0 0 1 421.379993 287.839996 Z" style="stroke-width: 0.71; stroke: rgb(230, 171, 2); fill: rgb(230, 171, 2); stroke-linecap: round; stroke-linejoin: round; stroke-miterlimit: 10;" clip-path="url(#cpNjkuMDF8NTY2LjkzfDM4MC43OXwyOC4zNQ==)"/><path d="M 436.979999 266.679993 A 1.95 1.95 0 0 1 435.029999 268.629993 A 1.95 1.95 0 0 1 433.079999 266.679993 A 1.95 1.95 0 0 1 435.029999 264.729993 A 1.95 1.95 0 0 1 436.979999 266.679993 Z" style="stroke-width: 0.71; stroke: rgb(230, 171, 2); fill: rgb(230, 171, 2); stroke-linecap: round; stroke-linejoin: round; stroke-miterlimit: 10;" clip-path="url(#cpNjkuMDF8NTY2LjkzfDM4MC43OXwyOC4zNQ==)"/><path d="M 452.590015 241.389999 A 1.95 1.95 0 0 1 450.640015 243.339999 A 1.95 1.95 0 0 1 448.690015 241.389999 A 1.95 1.95 0 0 1 450.640015 239.439999 A 1.95 1.95 0 0 1 452.590015 241.389999 Z" style="stroke-width: 0.71; stroke: rgb(230, 171, 2); fill: rgb(230, 171, 2); stroke-linecap: round; stroke-linejoin: round; stroke-miterlimit: 10;" clip-path="url(#cpNjkuMDF8NTY2LjkzfDM4MC43OXwyOC4zNQ==)"/><path d="M 468.2 211.770004 A 1.95 1.95 0 0 1 466.25 213.720004 A 1.95 1.95 0 0 1 464.3 211.770004 A 1.95 1.95 0 0 1 466.25 209.820004 A 1.95 1.95 0 0 1 468.2 211.770004 Z" style="stroke-width: 0.71; stroke: rgb(230, 171, 2); fill: rgb(230, 171, 2); stroke-linecap: round; stroke-linejoin: round; stroke-miterlimit: 10;" clip-path="url(#cpNjkuMDF8NTY2LjkzfDM4MC43OXwyOC4zNQ==)"/><path d="M 483.809985 178.789993 A 1.95 1.95 0 0 1 481.859985 180.739993 A 1.95 1.95 0 0 1 479.909985 178.789993 A 1.95 1.95 0 0 1 481.859985 176.839993 A 1.95 1.95 0 0 1 483.809985 178.789993 Z" style="stroke-width: 0.71; stroke: rgb(230, 171, 2); fill: rgb(230, 171, 2); stroke-linecap: round; stroke-linejoin: round; stroke-miterlimit: 10;" clip-path="url(#cpNjkuMDF8NTY2LjkzfDM4MC43OXwyOC4zNQ==)"/><path d="M 499.420001 143.720001 A 1.95 1.95 0 0 1 497.470001 145.670001 A 1.95 1.95 0 0 1 495.520001 143.720001 A 1.95 1.95 0 0 1 497.470001 141.770001 A 1.95 1.95 0 0 1 499.420001 143.720001 Z" style="stroke-width: 0.71; stroke: rgb(230, 171, 2); fill: rgb(230, 171, 2); stroke-linecap: round; stroke-linejoin: round; stroke-miterlimit: 10;" clip-path="url(#cpNjkuMDF8NTY2LjkzfDM4MC43OXwyOC4zNQ==)"/><path d="M 515.030017 108.370003 A 1.95 1.95 0 0 1 513.080017 110.320003 A 1.95 1.95 0 0 1 511.130017 108.370003 A 1.95 1.95 0 0 1 513.080017 106.420003 A 1.95 1.95 0 0 1 515.030017 108.370003 Z" style="stroke-width: 0.71; stroke: rgb(230, 171, 2); fill: rgb(230, 171, 2); stroke-linecap: round; stroke-linejoin: round; stroke-miterlimit: 10;" clip-path="url(#cpNjkuMDF8NTY2LjkzfDM4MC43OXwyOC4zNQ==)"/><path d="M 530.640002 74.620003 A 1.95 1.95 0 0 1 528.690002 76.570003 A 1.95 1.95 0 0 1 526.740002 74.620003 A 1.95 1.95 0 0 1 528.690002 72.670003 A 1.95 1.95 0 0 1 530.640002 74.620003 Z" style="stroke-width: 0.71; stroke: rgb(230, 171, 2); fill: rgb(230, 171, 2); stroke-linecap: round; stroke-linejoin: round; stroke-miterlimit: 10;" clip-path="url(#cpNjkuMDF8NTY2LjkzfDM4MC43OXwyOC4zNQ==)"/><path d="M 546.249988 45.48 A 1.95 1.95 0 0 1 544.299988 47.43 A 1.95 1.95 0 0 1 542.349988 45.48 A 1.95 1.95 0 0 1 544.299988 43.529999 A 1.95 1.95 0 0 1 546.249988 45.48 Z" style="stroke-width: 0.71; stroke: rgb(230, 171, 2); fill: rgb(230, 171, 2); stroke-linecap: round; stroke-linejoin: round; stroke-miterlimit: 10;" clip-path="url(#cpNjkuMDF8NTY2LjkzfDM4MC43OXwyOC4zNQ==)"/><path d="M 91.63999938964844 364.7099914550781 L 107.25 364.6400146484375 L 122.86000061035156 364.5299987792969 L 138.47000122070312 364.3900146484375 L 154.0800018310547 364.2099914550781 L 169.67999267578125 363.9700012207031 L 185.2899932861328 363.6600036621094 L 200.89999389648438 363.239990234375 L 216.50999450683594 362.69000244140625 L 232.1199951171875 361.9800109863281 L 247.72999572753906 361.04998779296875 L 263.3399963378906 359.7699890136719 L 278.95001220703125 358.1199951171875 L 294.55999755859375 355.9599914550781 L 310.1600036621094 353.07000732421875 L 325.7699890136719 349.2799987792969 L 341.3800048828125 344.2900085449219 L 356.989990234375 337.739990234375 L 372.6000061035156 329.2799987792969 L 388.2099914550781 318.3699951171875 L 403.82000732421875 304.57000732421875 L 419.42999267578125 287.29998779296875 L 435.0299987792969 266.05999755859375 L 450.6400146484375 240.6999969482422 L 466.25 211 L 481.8599853515625 177.9499969482422 L 497.4700012207031 142.7899932861328 L 513.0800170898438 107.37999725341797 L 528.6900024414062 73.56999969482422 L 544.2999877929688 44.369998931884766 L 544.2999877929688 46.58000183105469 L 528.6900024414062 75.68000030517578 L 513.0800170898438 109.36000061035156 L 497.4700012207031 144.63999938964844 L 481.8599853515625 179.63999938964844 L 466.25 212.52999877929688 L 450.6400146484375 242.0800018310547 L 435.0299987792969 267.2900085449219 L 419.42999267578125 288.3900146484375 L 403.82000732421875 305.5299987792969 L 388.2099914550781 319.2099914550781 L 372.6000061035156 330.0199890136719 L 356.989990234375 338.3800048828125 L 341.3800048828125 344.8500061035156 L 325.7699890136719 349.7699890136719 L 310.1600036621094 353.489990234375 L 294.55999755859375 356.3299865722656 L 278.95001220703125 358.45001220703125 L 263.3399963378906 360.04998779296875 L 247.72999572753906 361.2900085449219 L 232.1199951171875 362.19000244140625 L 216.50999450683594 362.8699951171875 L 200.89999389648438 363.3999938964844 L 185.2899932861328 363.79998779296875 L 169.67999267578125 364.0899963378906 L 154.0800018310547 364.30999755859375 L 138.47000122070312 364.4800109863281 L 122.86000061035156 364.6099853515625 L 107.25 364.70001220703125 L 91.63999938964844 364.7699890136719 Z" style="stroke-width: 0.75; stroke: none; fill: rgb(230, 171, 2); fill-opacity: 0.3; stroke-linecap: round; stroke-linejoin: round; stroke-miterlimit: 10;" clip-path="url(#cpNjkuMDF8NTY2LjkzfDM4MC43OXwyOC4zNQ==)"/><path d="M 91.639999 364.709991 L 107.25 364.640015 L 122.860001 364.529999 L 138.470001 364.390015 L 154.080002 364.209991 L 169.679993 363.970001 L 185.289993 363.660004 L 200.899994 363.23999 L 216.509995 362.690002 L 232.119995 361.980011 L 247.729996 361.049988 L 263.339996 359.769989 L 278.950012 358.119995 L 294.559998 355.959991 L 310.160004 353.070007 L 325.769989 349.279999 L 341.380005 344.290009 L 356.98999 337.73999 L 372.600006 329.279999 L 388.209991 318.369995 L 403.820007 304.570007 L 419.429993 287.299988 L 435.029999 266.059998 L 450.640015 240.699997 L 466.25 211 L 481.859985 177.949997 L 497.470001 142.789993 L 513.080017 107.379997 L 528.690002 73.57 L 544.299988 44.369999" style="stroke-width: 1.07; stroke: none; fill: none; stroke-linecap: round; stroke-linejoin: round; stroke-miterlimit: 10;" clip-path="url(#cpNjkuMDF8NTY2LjkzfDM4MC43OXwyOC4zNQ==)"/><path d="M 544.299988 46.580002 L 528.690002 75.68 L 513.080017 109.360001 L 497.470001 144.639999 L 481.859985 179.639999 L 466.25 212.529999 L 450.640015 242.080002 L 435.029999 267.290009 L 419.429993 288.390015 L 403.820007 305.529999 L 388.209991 319.209991 L 372.600006 330.019989 L 356.98999 338.380005 L 341.380005 344.850006 L 325.769989 349.769989 L 310.160004 353.48999 L 294.559998 356.329987 L 278.950012 358.450012 L 263.339996 360.049988 L 247.729996 361.290009 L 232.119995 362.190002 L 216.509995 362.869995 L 200.899994 363.399994 L 185.289993 363.799988 L 169.679993 364.089996 L 154.080002 364.309998 L 138.470001 364.480011 L 122.860001 364.609985 L 107.25 364.700012 L 91.639999 364.769989" style="stroke-width: 1.07; stroke: none; fill: none; stroke-linecap: round; stroke-linejoin: round; stroke-miterlimit: 10;" clip-path="url(#cpNjkuMDF8NTY2LjkzfDM4MC43OXwyOC4zNQ==)"/><path d="M 93.059999 364.76001 A 1.42 1.42 0 0 1 91.639999 366.18001 A 1.42 1.42 0 0 1 90.219999 364.76001 A 1.42 1.42 0 0 1 91.639999 363.34001 A 1.42 1.42 0 0 1 93.059999 364.76001 Z" style="stroke-width: 0.71; fill: rgb(0, 0, 0); stroke: rgb(0, 0, 0); stroke-linecap: round; stroke-linejoin: round; stroke-miterlimit: 10;" clip-path="url(#cpNjkuMDF8NTY2LjkzfDM4MC43OXwyOC4zNQ==)"/><path d="M 108.67 364.670013 A 1.42 1.42 0 0 1 107.25 366.090013 A 1.42 1.42 0 0 1 105.83 364.670013 A 1.42 1.42 0 0 1 107.25 363.250013 A 1.42 1.42 0 0 1 108.67 364.670013 Z" style="stroke-width: 0.71; fill: rgb(0, 0, 0); stroke: rgb(0, 0, 0); stroke-linecap: round; stroke-linejoin: round; stroke-miterlimit: 10;" clip-path="url(#cpNjkuMDF8NTY2LjkzfDM4MC43OXwyOC4zNQ==)"/><path d="M 124.280001 364.579987 A 1.42 1.42 0 0 1 122.860001 365.999987 A 1.42 1.42 0 0 1 121.440001 364.579987 A 1.42 1.42 0 0 1 122.860001 363.159987 A 1.42 1.42 0 0 1 124.280001 364.579987 Z" style="stroke-width: 0.71; fill: rgb(0, 0, 0); stroke: rgb(0, 0, 0); stroke-linecap: round; stroke-linejoin: round; stroke-miterlimit: 10;" clip-path="url(#cpNjkuMDF8NTY2LjkzfDM4MC43OXwyOC4zNQ==)"/><path d="M 139.890001 364.420013 A 1.42 1.42 0 0 1 138.470001 365.840013 A 1.42 1.42 0 0 1 137.050001 364.420013 A 1.42 1.42 0 0 1 138.470001 363.000013 A 1.42 1.42 0 0 1 139.890001 364.420013 Z" style="stroke-width: 0.71; fill: rgb(0, 0, 0); stroke: rgb(0, 0, 0); stroke-linecap: round; stroke-linejoin: round; stroke-miterlimit: 10;" clip-path="url(#cpNjkuMDF8NTY2LjkzfDM4MC43OXwyOC4zNQ==)"/><path d="M 155.500002 364.209991 A 1.42 1.42 0 0 1 154.080002 365.629991 A 1.42 1.42 0 0 1 152.660002 364.209991 A 1.42 1.42 0 0 1 154.080002 362.789991 A 1.42 1.42 0 0 1 155.500002 364.209991 Z" style="stroke-width: 0.71; fill: rgb(0, 0, 0); stroke: rgb(0, 0, 0); stroke-linecap: round; stroke-linejoin: round; stroke-miterlimit: 10;" clip-path="url(#cpNjkuMDF8NTY2LjkzfDM4MC43OXwyOC4zNQ==)"/><path d="M 171.099993 363.98999 A 1.42 1.42 0 0 1 169.679993 365.40999 A 1.42 1.42 0 0 1 168.259993 363.98999 A 1.42 1.42 0 0 1 169.679993 362.56999 A 1.42 1.42 0 0 1 171.099993 363.98999 Z" style="stroke-width: 0.71; fill: rgb(0, 0, 0); stroke: rgb(0, 0, 0); stroke-linecap: round; stroke-linejoin: round; stroke-miterlimit: 10;" clip-path="url(#cpNjkuMDF8NTY2LjkzfDM4MC43OXwyOC4zNQ==)"/><path d="M 69.010002 241.589996 L 566.929993 241.589996" style="stroke-width: 1.07; stroke: rgb(227, 26, 28); stroke-dasharray: 5.69, 5.69; stroke-linecap: butt; fill: none; stroke-linejoin: round; stroke-miterlimit: 10;" clip-path="url(#cpNjkuMDF8NTY2LjkzfDM4MC43OXwyOC4zNQ==)"/><g clip-path="url(#cpNjkuMDF8NTY2LjkzfDM4MC43OXwyOC4zNQ==)"><text x="89.35" y="236.58" style="font-size: 14.23px; font-weight: bold; fill: rgb(227, 26, 28); font-family: Arial; white-space: pre;" textLength="35.81px" lengthAdjust="spacingAndGlyphs">100%</text></g><path d="M 69.010002 303.279999 L 566.929993 303.279999" style="stroke-width: 1.07; stroke: rgb(31, 120, 180); stroke-dasharray: 5.69, 5.69; stroke-linecap: butt; fill: none; stroke-linejoin: round; stroke-miterlimit: 10;" clip-path="url(#cpNjkuMDF8NTY2LjkzfDM4MC43OXwyOC4zNQ==)"/><g clip-path="url(#cpNjkuMDF8NTY2LjkzfDM4MC43OXwyOC4zNQ==)"><text x="93.24" y="298.27" style="font-size: 14.23px; font-weight: bold; fill: rgb(31, 120, 180); font-family: Arial; white-space: pre;" textLength="28.02px" lengthAdjust="spacingAndGlyphs">50%</text></g><path d="M 69.010002 28.35 H 566.930016 V 380.800013 H 69.010002 V 28.35 Z" style="stroke-width: 1.07; stroke: rgb(51, 51, 51); fill: none; stroke-linecap: round; stroke-linejoin: round; stroke-miterlimit: 10;" clip-path="url(#cpNjkuMDF8NTY2LjkzfDM4MC43OXwyOC4zNQ==)"/><g clip-path="url(#cpMC4wMHw1OTUuMjh8NDI1LjIwfDAuMDA=)"><text x="57.40" y="369.26" style="font-size: 12px; font-weight: bold; fill: rgb(77, 77, 77); font-family: Arial; white-space: pre;" textLength="6.67px" lengthAdjust="spacingAndGlyphs">0</text></g><g clip-path="url(#cpMC4wMHw1OTUuMjh8NDI1LjIwfDAuMDA=)"><text x="50.73" y="307.58" style="font-size: 12px; font-weight: bold; fill: rgb(77, 77, 77); font-family: Arial; white-space: pre;" textLength="13.35px" lengthAdjust="spacingAndGlyphs">50</text></g><g clip-path="url(#cpMC4wMHw1OTUuMjh8NDI1LjIwfDAuMDA=)"><text x="44.05" y="245.89" style="font-size: 12px; font-weight: bold; fill: rgb(77, 77, 77); font-family: Arial; white-space: pre;" textLength="20.02px" lengthAdjust="spacingAndGlyphs">100</text></g><g clip-path="url(#cpMC4wMHw1OTUuMjh8NDI1LjIwfDAuMDA=)"><text x="44.05" y="122.51" style="font-size: 12px; font-weight: bold; fill: rgb(77, 77, 77); font-family: Arial; white-space: pre;" textLength="20.02px" lengthAdjust="spacingAndGlyphs">200</text></g><path d="M 66.269997 364.970001 L 69.010002 364.970001" style="stroke-width: 1.07; stroke: rgb(51, 51, 51); stroke-linecap: butt; fill: none; stroke-linejoin: round; stroke-miterlimit: 10;" clip-path="url(#cpMC4wMHw1OTUuMjh8NDI1LjIwfDAuMDA=)"/><path d="M 66.269997 303.279999 L 69.010002 303.279999" style="stroke-width: 1.07; stroke: rgb(51, 51, 51); stroke-linecap: butt; fill: none; stroke-linejoin: round; stroke-miterlimit: 10;" clip-path="url(#cpMC4wMHw1OTUuMjh8NDI1LjIwfDAuMDA=)"/><path d="M 66.269997 241.589996 L 69.010002 241.589996" style="stroke-width: 1.07; stroke: rgb(51, 51, 51); stroke-linecap: butt; fill: none; stroke-linejoin: round; stroke-miterlimit: 10;" clip-path="url(#cpMC4wMHw1OTUuMjh8NDI1LjIwfDAuMDA=)"/><path d="M 66.269997 118.209999 L 69.010002 118.209999" style="stroke-width: 1.07; stroke: rgb(51, 51, 51); stroke-linecap: butt; fill: none; stroke-linejoin: round; stroke-miterlimit: 10;" clip-path="url(#cpMC4wMHw1OTUuMjh8NDI1LjIwfDAuMDA=)"/><path d="M 122.860001 383.529999 L 122.860001 380.790009" style="stroke-width: 1.07; stroke: rgb(51, 51, 51); stroke-linecap: butt; fill: none; stroke-linejoin: round; stroke-miterlimit: 10;" clip-path="url(#cpMC4wMHw1OTUuMjh8NDI1LjIwfDAuMDA=)"/><path d="M 232.119995 383.529999 L 232.119995 380.790009" style="stroke-width: 1.07; stroke: rgb(51, 51, 51); stroke-linecap: butt; fill: none; stroke-linejoin: round; stroke-miterlimit: 10;" clip-path="url(#cpMC4wMHw1OTUuMjh8NDI1LjIwfDAuMDA=)"/><path d="M 341.380005 383.529999 L 341.380005 380.790009" style="stroke-width: 1.07; stroke: rgb(51, 51, 51); stroke-linecap: butt; fill: none; stroke-linejoin: round; stroke-miterlimit: 10;" clip-path="url(#cpMC4wMHw1OTUuMjh8NDI1LjIwfDAuMDA=)"/><path d="M 450.640015 383.529999 L 450.640015 380.790009" style="stroke-width: 1.07; stroke: rgb(51, 51, 51); stroke-linecap: butt; fill: none; stroke-linejoin: round; stroke-miterlimit: 10;" clip-path="url(#cpMC4wMHw1OTUuMjh8NDI1LjIwfDAuMDA=)"/><path d="M 559.909973 383.529999 L 559.909973 380.790009" style="stroke-width: 1.07; stroke: rgb(51, 51, 51); stroke-linecap: butt; fill: none; stroke-linejoin: round; stroke-miterlimit: 10;" clip-path="url(#cpMC4wMHw1OTUuMjh8NDI1LjIwfDAuMDA=)"/><g clip-path="url(#cpMC4wMHw1OTUuMjh8NDI1LjIwfDAuMDA=)"><text x="103.85" y="394.32" style="font-size: 12px; font-weight: bold; fill: rgb(77, 77, 77); font-family: Arial; white-space: pre;" textLength="38.02px" lengthAdjust="spacingAndGlyphs">Mar 16</text></g><g clip-path="url(#cpMC4wMHw1OTUuMjh8NDI1LjIwfDAuMDA=)"><text x="213.11" y="394.32" style="font-size: 12px; font-weight: bold; fill: rgb(77, 77, 77); font-family: Arial; white-space: pre;" textLength="38.02px" lengthAdjust="spacingAndGlyphs">Mar 23</text></g><g clip-path="url(#cpMC4wMHw1OTUuMjh8NDI1LjIwfDAuMDA=)"><text x="322.37" y="394.32" style="font-size: 12px; font-weight: bold; fill: rgb(77, 77, 77); font-family: Arial; white-space: pre;" textLength="38.02px" lengthAdjust="spacingAndGlyphs">Mar 30</text></g><g clip-path="url(#cpMC4wMHw1OTUuMjh8NDI1LjIwfDAuMDA=)"><text x="431.97" y="394.32" style="font-size: 12px; font-weight: bold; fill: rgb(77, 77, 77); font-family: Arial; white-space: pre;" textLength="37.35px" lengthAdjust="spacingAndGlyphs">Apr 06</text></g><g clip-path="url(#cpMC4wMHw1OTUuMjh8NDI1LjIwfDAuMDA=)"><text x="541.23" y="394.32" style="font-size: 12px; font-weight: bold; fill: rgb(77, 77, 77); font-family: Arial; white-space: pre;" textLength="37.35px" lengthAdjust="spacingAndGlyphs">Apr 13</text></g><g clip-path="url(#cpMC4wMHw1OTUuMjh8NDI1LjIwfDAuMDA=)"><text transform="translate(38.36,323.59) rotate(-90)" style="font-size: 14px; font-weight: bold; font-family: Arial; white-space: pre;" textLength="238.04px" lengthAdjust="spacingAndGlyphs">% de leitos ocupados por COVID-19</text></g><path d="M 77.029999 38.09 H 260.160004 V 89.09 H 77.029999 V 38.09 Z" style="stroke-width: 1.07; fill: rgb(255, 255, 255); stroke: rgb(0, 0, 0); stroke-linecap: round; stroke-linejoin: round; stroke-miterlimit: 10;" clip-path="url(#cpMC4wMHw1OTUuMjh8NDI1LjIwfDAuMDA=)"/><path d="M 82.510002 49.049999 H 99.790003 V 66.33 H 82.510002 V 49.049999 Z" style="stroke-width: 1.07; stroke: none; fill: rgb(255, 255, 255); stroke-linecap: round; stroke-linejoin: round; stroke-miterlimit: 10;" clip-path="url(#cpMC4wMHw1OTUuMjh8NDI1LjIwfDAuMDA=)"/><path d="M 93.100002 57.689999 A 1.95 1.95 0 0 1 91.150002 59.639999 A 1.95 1.95 0 0 1 89.200001 57.689999 A 1.95 1.95 0 0 1 91.150002 55.739999 A 1.95 1.95 0 0 1 93.100002 57.689999 Z" style="stroke-width: 0.71; fill: rgb(0, 0, 0); stroke: rgb(0, 0, 0); stroke-linecap: round; stroke-linejoin: round; stroke-miterlimit: 10;" clip-path="url(#cpMC4wMHw1OTUuMjh8NDI1LjIwfDAuMDA=)"/><path d="M 92.570001 57.689999 A 1.42 1.42 0 0 1 91.150002 59.109999 A 1.42 1.42 0 0 1 89.730002 57.689999 A 1.42 1.42 0 0 1 91.150002 56.269999 A 1.42 1.42 0 0 1 92.570001 57.689999 Z" style="stroke-width: 0.71; fill: rgb(0, 0, 0); stroke: rgb(0, 0, 0); stroke-linecap: round; stroke-linejoin: round; stroke-miterlimit: 10;" clip-path="url(#cpMC4wMHw1OTUuMjh8NDI1LjIwfDAuMDA=)"/><path d="M 82.510002 66.330002 H 99.790003 V 83.610003 H 82.510002 V 66.330002 Z" style="stroke-width: 1.07; stroke: none; fill: rgb(255, 255, 255); stroke-linecap: round; stroke-linejoin: round; stroke-miterlimit: 10;" clip-path="url(#cpMC4wMHw1OTUuMjh8NDI1LjIwfDAuMDA=)"/><path d="M 84.239998 74.970001 L 98.059998 74.970001" style="stroke-width: 2.13; stroke: rgb(230, 171, 2); stroke-linecap: butt; fill: none; stroke-linejoin: round; stroke-miterlimit: 10;" clip-path="url(#cpMC4wMHw1OTUuMjh8NDI1LjIwfDAuMDA=)"/><path d="M 93.100002 74.970001 A 1.95 1.95 0 0 1 91.150002 76.920001 A 1.95 1.95 0 0 1 89.200001 74.970001 A 1.95 1.95 0 0 1 91.150002 73.020001 A 1.95 1.95 0 0 1 93.100002 74.970001 Z" style="stroke-width: 0.71; stroke: rgb(230, 171, 2); fill: rgb(230, 171, 2); stroke-linecap: round; stroke-linejoin: round; stroke-miterlimit: 10;" clip-path="url(#cpMC4wMHw1OTUuMjh8NDI1LjIwfDAuMDA=)"/><path d="M 92.570001 74.970001 A 1.42 1.42 0 0 1 91.150002 76.390001 A 1.42 1.42 0 0 1 89.730002 74.970001 A 1.42 1.42 0 0 1 91.150002 73.550001 A 1.42 1.42 0 0 1 92.570001 74.970001 Z" style="stroke-width: 0.71; stroke: rgb(230, 171, 2); fill: rgb(230, 171, 2); stroke-linecap: round; stroke-linejoin: round; stroke-miterlimit: 10;" clip-path="url(#cpMC4wMHw1OTUuMjh8NDI1LjIwfDAuMDA=)"/><g clip-path="url(#cpMC4wMHw1OTUuMjh8NDI1LjIwfDAuMDA=)"><text x="105.27" y="61.99" style="font-size: 12px; font-family: Arial; white-space: pre;" textLength="112.05px" lengthAdjust="spacingAndGlyphs">dados SIVEP GRIPE</text></g><g clip-path="url(#cpMC4wMHw1OTUuMjh8NDI1LjIwfDAuMDA=)"><text x="105.27" y="79.27" style="font-size: 12px; font-family: Arial; white-space: pre;" textLength="149.41px" lengthAdjust="spacingAndGlyphs">modelo sem distanciamento</text></g></g></svg>