<?xml version="1.0" encoding="utf-8"?>
<svg id="master-artboard" viewBox="0 0 954.726318359375 640.7439575195312" version="1.1" xmlns="http://www.w3.org/2000/svg" x="0px" y="0px" style="enable-background:new 0 0 1400 980;" width="954.726318359375px" height="640.7439575195312px"><defs><clipPath id="cpNjkuMDF8NTY2LjkzfDM4MC43OXwyOC4zNQ==">
    <path d="M 69.010002 28.35 H 566.930016 V 380.800013 H 69.010002 V 28.35 Z" style="fill: none; stroke: rgb(0, 0, 0); stroke-linecap: round; stroke-linejoin: round; stroke-miterlimit: 10;"/>
  </clipPath><clipPath id="cpMC4wMHw1OTUuMjh8NDI1LjIwfDAuMDA=">
    <path d="M 0 0 H 595.280029 V 425.200012 H 0 V 0 Z" style="fill: none; stroke: rgb(0, 0, 0); stroke-linecap: round; stroke-linejoin: round; stroke-miterlimit: 10;"/>
  </clipPath></defs><rect id="ee-background" x="0" y="0" width="954.726318359375" height="640.7439575195312" style="fill: white; fill-opacity: 0; pointer-events: none;"/><g transform="matrix(1.7326380014419556, 0, 0, 1.7326380014419556, -47.26702880859375, -49.10285949707031)"><path d="M 0 0 H 595.280029 V 425.200012 H 0 V 0 Z" style="stroke: none; fill: rgb(255, 255, 255); stroke-linecap: round; stroke-linejoin: round; stroke-miterlimit: 10;"/><path d="M 0 0 H 595.280029 V 425.200012 H 0 V 0 Z" style="stroke-width: 1.07; stroke: rgb(255, 255, 255); fill: rgb(255, 255, 255); stroke-linecap: round; stroke-linejoin: round; stroke-miterlimit: 10;"/><path d="M 69.010002 28.35 H 566.930016 V 380.800013 H 69.010002 V 28.35 Z" style="stroke-width: 1.07; stroke: none; fill: rgb(255, 255, 255); stroke-linecap: round; stroke-linejoin: round; stroke-miterlimit: 10;" clip-path="url(#cpNjkuMDF8NTY2LjkzfDM4MC43OXwyOC4zNQ==)"/><path d="M 69.010002 317.350006 L 566.929993 317.350006" style="stroke-width: 0.53; stroke: rgb(235, 235, 235); stroke-linecap: butt; fill: none; stroke-linejoin: round; stroke-miterlimit: 10;" clip-path="url(#cpNjkuMDF8NTY2LjkzfDM4MC43OXwyOC4zNQ==)"/><path d="M 69.010002 222.139999 L 566.929993 222.139999" style="stroke-width: 0.53; stroke: rgb(235, 235, 235); stroke-linecap: butt; fill: none; stroke-linejoin: round; stroke-miterlimit: 10;" clip-path="url(#cpNjkuMDF8NTY2LjkzfDM4MC43OXwyOC4zNQ==)"/><path d="M 69.010002 126.919998 L 566.929993 126.919998" style="stroke-width: 0.53; stroke: rgb(235, 235, 235); stroke-linecap: butt; fill: none; stroke-linejoin: round; stroke-miterlimit: 10;" clip-path="url(#cpNjkuMDF8NTY2LjkzfDM4MC43OXwyOC4zNQ==)"/><path d="M 69.010002 31.709999 L 566.929993 31.709999" style="stroke-width: 0.53; stroke: rgb(235, 235, 235); stroke-linecap: butt; fill: none; stroke-linejoin: round; stroke-miterlimit: 10;" clip-path="url(#cpNjkuMDF8NTY2LjkzfDM4MC43OXwyOC4zNQ==)"/><path d="M 177.490005 380.790009 L 177.490005 28.35" style="stroke-width: 0.53; stroke: rgb(235, 235, 235); stroke-linecap: butt; fill: none; stroke-linejoin: round; stroke-miterlimit: 10;" clip-path="url(#cpNjkuMDF8NTY2LjkzfDM4MC43OXwyOC4zNQ==)"/><path d="M 286.75 380.790009 L 286.75 28.35" style="stroke-width: 0.53; stroke: rgb(235, 235, 235); stroke-linecap: butt; fill: none; stroke-linejoin: round; stroke-miterlimit: 10;" clip-path="url(#cpNjkuMDF8NTY2LjkzfDM4MC43OXwyOC4zNQ==)"/><path d="M 396.01001 380.790009 L 396.01001 28.35" style="stroke-width: 0.53; stroke: rgb(235, 235, 235); stroke-linecap: butt; fill: none; stroke-linejoin: round; stroke-miterlimit: 10;" clip-path="url(#cpNjkuMDF8NTY2LjkzfDM4MC43OXwyOC4zNQ==)"/><path d="M 505.269989 380.790009 L 505.269989 28.35" style="stroke-width: 0.53; stroke: rgb(235, 235, 235); stroke-linecap: butt; fill: none; stroke-linejoin: round; stroke-miterlimit: 10;" clip-path="url(#cpNjkuMDF8NTY2LjkzfDM4MC43OXwyOC4zNQ==)"/><path d="M 69.010002 364.950012 L 566.929993 364.950012" style="stroke-width: 1.07; stroke: rgb(235, 235, 235); stroke-linecap: butt; fill: none; stroke-linejoin: round; stroke-miterlimit: 10;" clip-path="url(#cpNjkuMDF8NTY2LjkzfDM4MC43OXwyOC4zNQ==)"/><path d="M 69.010002 269.73999 L 566.929993 269.73999" style="stroke-width: 1.07; stroke: rgb(235, 235, 235); stroke-linecap: butt; fill: none; stroke-linejoin: round; stroke-miterlimit: 10;" clip-path="url(#cpNjkuMDF8NTY2LjkzfDM4MC43OXwyOC4zNQ==)"/><path d="M 69.010002 174.529999 L 566.929993 174.529999" style="stroke-width: 1.07; stroke: rgb(235, 235, 235); stroke-linecap: butt; fill: none; stroke-linejoin: round; stroke-miterlimit: 10;" clip-path="url(#cpNjkuMDF8NTY2LjkzfDM4MC43OXwyOC4zNQ==)"/><path d="M 69.010002 79.32 L 566.929993 79.32" style="stroke-width: 1.07; stroke: rgb(235, 235, 235); stroke-linecap: butt; fill: none; stroke-linejoin: round; stroke-miterlimit: 10;" clip-path="url(#cpNjkuMDF8NTY2LjkzfDM4MC43OXwyOC4zNQ==)"/><path d="M 122.860001 380.790009 L 122.860001 28.35" style="stroke-width: 1.07; stroke: rgb(235, 235, 235); stroke-linecap: butt; fill: none; stroke-linejoin: round; stroke-miterlimit: 10;" clip-path="url(#cpNjkuMDF8NTY2LjkzfDM4MC43OXwyOC4zNQ==)"/><path d="M 232.119995 380.790009 L 232.119995 28.35" style="stroke-width: 1.07; stroke: rgb(235, 235, 235); stroke-linecap: butt; fill: none; stroke-linejoin: round; stroke-miterlimit: 10;" clip-path="url(#cpNjkuMDF8NTY2LjkzfDM4MC43OXwyOC4zNQ==)"/><path d="M 341.380005 380.790009 L 341.380005 28.35" style="stroke-width: 1.07; stroke: rgb(235, 235, 235); stroke-linecap: butt; fill: none; stroke-linejoin: round; stroke-miterlimit: 10;" clip-path="url(#cpNjkuMDF8NTY2LjkzfDM4MC43OXwyOC4zNQ==)"/><path d="M 450.640015 380.790009 L 450.640015 28.35" style="stroke-width: 1.07; stroke: rgb(235, 235, 235); stroke-linecap: butt; fill: none; stroke-linejoin: round; stroke-miterlimit: 10;" clip-path="url(#cpNjkuMDF8NTY2LjkzfDM4MC43OXwyOC4zNQ==)"/><path d="M 559.909973 380.790009 L 559.909973 28.35" style="stroke-width: 1.07; stroke: rgb(235, 235, 235); stroke-linecap: butt; fill: none; stroke-linejoin: round; stroke-miterlimit: 10;" clip-path="url(#cpNjkuMDF8NTY2LjkzfDM4MC43OXwyOC4zNQ==)"/><path d="M 93.589999 364.730011 A 1.95 1.95 0 0 1 91.639999 366.680011 A 1.95 1.95 0 0 1 89.689999 364.730011 A 1.95 1.95 0 0 1 91.639999 362.780011 A 1.95 1.95 0 0 1 93.589999 364.730011 Z" style="stroke-width: 0.71; stroke: rgb(230, 171, 2); fill: rgb(230, 171, 2); stroke-linecap: round; stroke-linejoin: round; stroke-miterlimit: 10;" clip-path="url(#cpNjkuMDF8NTY2LjkzfDM4MC43OXwyOC4zNQ==)"/><path d="M 109.2 364.649994 A 1.95 1.95 0 0 1 107.25 366.599994 A 1.95 1.95 0 0 1 105.3 364.649994 A 1.95 1.95 0 0 1 107.25 362.699994 A 1.95 1.95 0 0 1 109.2 364.649994 Z" style="stroke-width: 0.71; stroke: rgb(230, 171, 2); fill: rgb(230, 171, 2); stroke-linecap: round; stroke-linejoin: round; stroke-miterlimit: 10;" clip-path="url(#cpNjkuMDF8NTY2LjkzfDM4MC43OXwyOC4zNQ==)"/><path d="M 124.810001 364.549988 A 1.95 1.95 0 0 1 122.860001 366.499988 A 1.95 1.95 0 0 1 120.910001 364.549988 A 1.95 1.95 0 0 1 122.860001 362.599988 A 1.95 1.95 0 0 1 124.810001 364.549988 Z" style="stroke-width: 0.71; stroke: rgb(230, 171, 2); fill: rgb(230, 171, 2); stroke-linecap: round; stroke-linejoin: round; stroke-miterlimit: 10;" clip-path="url(#cpNjkuMDF8NTY2LjkzfDM4MC43OXwyOC4zNQ==)"/><path d="M 140.420001 364.410004 A 1.95 1.95 0 0 1 138.470001 366.360004 A 1.95 1.95 0 0 1 136.520001 364.410004 A 1.95 1.95 0 0 1 138.470001 362.460004 A 1.95 1.95 0 0 1 140.420001 364.410004 Z" style="stroke-width: 0.71; stroke: rgb(230, 171, 2); fill: rgb(230, 171, 2); stroke-linecap: round; stroke-linejoin: round; stroke-miterlimit: 10;" clip-path="url(#cpNjkuMDF8NTY2LjkzfDM4MC43OXwyOC4zNQ==)"/><path d="M 156.030002 364.230011 A 1.95 1.95 0 0 1 154.080002 366.180011 A 1.95 1.95 0 0 1 152.130002 364.230011 A 1.95 1.95 0 0 1 154.080002 362.280011 A 1.95 1.95 0 0 1 156.030002 364.230011 Z" style="stroke-width: 0.71; stroke: rgb(230, 171, 2); fill: rgb(230, 171, 2); stroke-linecap: round; stroke-linejoin: round; stroke-miterlimit: 10;" clip-path="url(#cpNjkuMDF8NTY2LjkzfDM4MC43OXwyOC4zNQ==)"/><path d="M 171.629993 363.98999 A 1.95 1.95 0 0 1 169.679993 365.93999 A 1.95 1.95 0 0 1 167.729993 363.98999 A 1.95 1.95 0 0 1 169.679993 362.03999 A 1.95 1.95 0 0 1 171.629993 363.98999 Z" style="stroke-width: 0.71; stroke: rgb(230, 171, 2); fill: rgb(230, 171, 2); stroke-linecap: round; stroke-linejoin: round; stroke-miterlimit: 10;" clip-path="url(#cpNjkuMDF8NTY2LjkzfDM4MC43OXwyOC4zNQ==)"/><path d="M 187.239993 363.690002 A 1.95 1.95 0 0 1 185.289993 365.640002 A 1.95 1.95 0 0 1 183.339993 363.690002 A 1.95 1.95 0 0 1 185.289993 361.740002 A 1.95 1.95 0 0 1 187.239993 363.690002 Z" style="stroke-width: 0.71; stroke: rgb(230, 171, 2); fill: rgb(230, 171, 2); stroke-linecap: round; stroke-linejoin: round; stroke-miterlimit: 10;" clip-path="url(#cpNjkuMDF8NTY2LjkzfDM4MC43OXwyOC4zNQ==)"/><path d="M 202.849994 363.279999 A 1.95 1.95 0 0 1 200.899994 365.229999 A 1.95 1.95 0 0 1 198.949994 363.279999 A 1.95 1.95 0 0 1 200.899994 361.329999 A 1.95 1.95 0 0 1 202.849994 363.279999 Z" style="stroke-width: 0.71; stroke: rgb(230, 171, 2); fill: rgb(230, 171, 2); stroke-linecap: round; stroke-linejoin: round; stroke-miterlimit: 10;" clip-path="url(#cpNjkuMDF8NTY2LjkzfDM4MC43OXwyOC4zNQ==)"/><path d="M 218.459995 362.709991 A 1.95 1.95 0 0 1 216.509995 364.659992 A 1.95 1.95 0 0 1 214.559994 362.709991 A 1.95 1.95 0 0 1 216.509995 360.759991 A 1.95 1.95 0 0 1 218.459995 362.709991 Z" style="stroke-width: 0.71; stroke: rgb(230, 171, 2); fill: rgb(230, 171, 2); stroke-linecap: round; stroke-linejoin: round; stroke-miterlimit: 10;" clip-path="url(#cpNjkuMDF8NTY2LjkzfDM4MC43OXwyOC4zNQ==)"/><path d="M 234.069995 362.01001 A 1.95 1.95 0 0 1 232.119995 363.96001 A 1.95 1.95 0 0 1 230.169995 362.01001 A 1.95 1.95 0 0 1 232.119995 360.06001 A 1.95 1.95 0 0 1 234.069995 362.01001 Z" style="stroke-width: 0.71; stroke: rgb(230, 171, 2); fill: rgb(230, 171, 2); stroke-linecap: round; stroke-linejoin: round; stroke-miterlimit: 10;" clip-path="url(#cpNjkuMDF8NTY2LjkzfDM4MC43OXwyOC4zNQ==)"/><path d="M 249.679996 361.070007 A 1.95 1.95 0 0 1 247.729996 363.020007 A 1.95 1.95 0 0 1 245.779996 361.070007 A 1.95 1.95 0 0 1 247.729996 359.120007 A 1.95 1.95 0 0 1 249.679996 361.070007 Z" style="stroke-width: 0.71; stroke: rgb(230, 171, 2); fill: rgb(230, 171, 2); stroke-linecap: round; stroke-linejoin: round; stroke-miterlimit: 10;" clip-path="url(#cpNjkuMDF8NTY2LjkzfDM4MC43OXwyOC4zNQ==)"/><path d="M 265.289996 359.779999 A 1.95 1.95 0 0 1 263.339996 361.729999 A 1.95 1.95 0 0 1 261.389996 359.779999 A 1.95 1.95 0 0 1 263.339996 357.829999 A 1.95 1.95 0 0 1 265.289996 359.779999 Z" style="stroke-width: 0.71; stroke: rgb(230, 171, 2); fill: rgb(230, 171, 2); stroke-linecap: round; stroke-linejoin: round; stroke-miterlimit: 10;" clip-path="url(#cpNjkuMDF8NTY2LjkzfDM4MC43OXwyOC4zNQ==)"/><path d="M 280.900012 358.119995 A 1.95 1.95 0 0 1 278.950012 360.069995 A 1.95 1.95 0 0 1 277.000012 358.119995 A 1.95 1.95 0 0 1 278.950012 356.169995 A 1.95 1.95 0 0 1 280.900012 358.119995 Z" style="stroke-width: 0.71; stroke: rgb(230, 171, 2); fill: rgb(230, 171, 2); stroke-linecap: round; stroke-linejoin: round; stroke-miterlimit: 10;" clip-path="url(#cpNjkuMDF8NTY2LjkzfDM4MC43OXwyOC4zNQ==)"/><path d="M 296.509998 355.929993 A 1.95 1.95 0 0 1 294.559998 357.879993 A 1.95 1.95 0 0 1 292.609998 355.929993 A 1.95 1.95 0 0 1 294.559998 353.979993 A 1.95 1.95 0 0 1 296.509998 355.929993 Z" style="stroke-width: 0.71; stroke: rgb(230, 171, 2); fill: rgb(230, 171, 2); stroke-linecap: round; stroke-linejoin: round; stroke-miterlimit: 10;" clip-path="url(#cpNjkuMDF8NTY2LjkzfDM4MC43OXwyOC4zNQ==)"/><path d="M 312.110004 352.98999 A 1.95 1.95 0 0 1 310.160004 354.93999 A 1.95 1.95 0 0 1 308.210004 352.98999 A 1.95 1.95 0 0 1 310.160004 351.03999 A 1.95 1.95 0 0 1 312.110004 352.98999 Z" style="stroke-width: 0.71; stroke: rgb(230, 171, 2); fill: rgb(230, 171, 2); stroke-linecap: round; stroke-linejoin: round; stroke-miterlimit: 10;" clip-path="url(#cpNjkuMDF8NTY2LjkzfDM4MC43OXwyOC4zNQ==)"/><path d="M 327.719989 349.149994 A 1.95 1.95 0 0 1 325.769989 351.099994 A 1.95 1.95 0 0 1 323.819989 349.149994 A 1.95 1.95 0 0 1 325.769989 347.199994 A 1.95 1.95 0 0 1 327.719989 349.149994 Z" style="stroke-width: 0.71; stroke: rgb(230, 171, 2); fill: rgb(230, 171, 2); stroke-linecap: round; stroke-linejoin: round; stroke-miterlimit: 10;" clip-path="url(#cpNjkuMDF8NTY2LjkzfDM4MC43OXwyOC4zNQ==)"/><path d="M 343.330005 344.109985 A 1.95 1.95 0 0 1 341.380005 346.059985 A 1.95 1.95 0 0 1 339.430005 344.109985 A 1.95 1.95 0 0 1 341.380005 342.159985 A 1.95 1.95 0 0 1 343.330005 344.109985 Z" style="stroke-width: 0.71; stroke: rgb(230, 171, 2); fill: rgb(230, 171, 2); stroke-linecap: round; stroke-linejoin: round; stroke-miterlimit: 10;" clip-path="url(#cpNjkuMDF8NTY2LjkzfDM4MC43OXwyOC4zNQ==)"/><path d="M 358.93999 337.470001 A 1.95 1.95 0 0 1 356.98999 339.420001 A 1.95 1.95 0 0 1 355.03999 337.470001 A 1.95 1.95 0 0 1 356.98999 335.520001 A 1.95 1.95 0 0 1 358.93999 337.470001 Z" style="stroke-width: 0.71; stroke: rgb(230, 171, 2); fill: rgb(230, 171, 2); stroke-linecap: round; stroke-linejoin: round; stroke-miterlimit: 10;" clip-path="url(#cpNjkuMDF8NTY2LjkzfDM4MC43OXwyOC4zNQ==)"/><path d="M 374.550006 328.880005 A 1.95 1.95 0 0 1 372.600006 330.830005 A 1.95 1.95 0 0 1 370.650006 328.880005 A 1.95 1.95 0 0 1 372.600006 326.930005 A 1.95 1.95 0 0 1 374.550006 328.880005 Z" style="stroke-width: 0.71; stroke: rgb(230, 171, 2); fill: rgb(230, 171, 2); stroke-linecap: round; stroke-linejoin: round; stroke-miterlimit: 10;" clip-path="url(#cpNjkuMDF8NTY2LjkzfDM4MC43OXwyOC4zNQ==)"/><path d="M 390.159992 317.839996 A 1.95 1.95 0 0 1 388.209991 319.789996 A 1.95 1.95 0 0 1 386.259991 317.839996 A 1.95 1.95 0 0 1 388.209991 315.889996 A 1.95 1.95 0 0 1 390.159992 317.839996 Z" style="stroke-width: 0.71; stroke: rgb(230, 171, 2); fill: rgb(230, 171, 2); stroke-linecap: round; stroke-linejoin: round; stroke-miterlimit: 10;" clip-path="url(#cpNjkuMDF8NTY2LjkzfDM4MC43OXwyOC4zNQ==)"/><path d="M 405.770007 303.839996 A 1.95 1.95 0 0 1 403.820007 305.789996 A 1.95 1.95 0 0 1 401.870007 303.839996 A 1.95 1.95 0 0 1 403.820007 301.889996 A 1.95 1.95 0 0 1 405.770007 303.839996 Z" style="stroke-width: 0.71; stroke: rgb(230, 171, 2); fill: rgb(230, 171, 2); stroke-linecap: round; stroke-linejoin: round; stroke-miterlimit: 10;" clip-path="url(#cpNjkuMDF8NTY2LjkzfDM4MC43OXwyOC4zNQ==)"/><path d="M 421.379993 286.369995 A 1.95 1.95 0 0 1 419.429993 288.319995 A 1.95 1.95 0 0 1 417.479993 286.369995 A 1.95 1.95 0 0 1 419.429993 284.419995 A 1.95 1.95 0 0 1 421.379993 286.369995 Z" style="stroke-width: 0.71; stroke: rgb(230, 171, 2); fill: rgb(230, 171, 2); stroke-linecap: round; stroke-linejoin: round; stroke-miterlimit: 10;" clip-path="url(#cpNjkuMDF8NTY2LjkzfDM4MC43OXwyOC4zNQ==)"/><path d="M 436.979999 264.929993 A 1.95 1.95 0 0 1 435.029999 266.879993 A 1.95 1.95 0 0 1 433.079999 264.929993 A 1.95 1.95 0 0 1 435.029999 262.979993 A 1.95 1.95 0 0 1 436.979999 264.929993 Z" style="stroke-width: 0.71; stroke: rgb(230, 171, 2); fill: rgb(230, 171, 2); stroke-linecap: round; stroke-linejoin: round; stroke-miterlimit: 10;" clip-path="url(#cpNjkuMDF8NTY2LjkzfDM4MC43OXwyOC4zNQ==)"/><path d="M 452.590015 239.389999 A 1.95 1.95 0 0 1 450.640015 241.339999 A 1.95 1.95 0 0 1 448.690015 239.389999 A 1.95 1.95 0 0 1 450.640015 237.439999 A 1.95 1.95 0 0 1 452.590015 239.389999 Z" style="stroke-width: 0.71; stroke: rgb(230, 171, 2); fill: rgb(230, 171, 2); stroke-linecap: round; stroke-linejoin: round; stroke-miterlimit: 10;" clip-path="url(#cpNjkuMDF8NTY2LjkzfDM4MC43OXwyOC4zNQ==)"/><path d="M 468.2 209.690002 A 1.95 1.95 0 0 1 466.25 211.640002 A 1.95 1.95 0 0 1 464.3 209.690002 A 1.95 1.95 0 0 1 466.25 207.740002 A 1.95 1.95 0 0 1 468.2 209.690002 Z" style="stroke-width: 0.71; stroke: rgb(230, 171, 2); fill: rgb(230, 171, 2); stroke-linecap: round; stroke-linejoin: round; stroke-miterlimit: 10;" clip-path="url(#cpNjkuMDF8NTY2LjkzfDM4MC43OXwyOC4zNQ==)"/><path d="M 483.809985 176.789993 A 1.95 1.95 0 0 1 481.859985 178.739993 A 1.95 1.95 0 0 1 479.909985 176.789993 A 1.95 1.95 0 0 1 481.859985 174.839993 A 1.95 1.95 0 0 1 483.809985 176.789993 Z" style="stroke-width: 0.71; stroke: rgb(230, 171, 2); fill: rgb(230, 171, 2); stroke-linecap: round; stroke-linejoin: round; stroke-miterlimit: 10;" clip-path="url(#cpNjkuMDF8NTY2LjkzfDM4MC43OXwyOC4zNQ==)"/><path d="M 499.420001 142.050003 A 1.95 1.95 0 0 1 497.470001 144.000003 A 1.95 1.95 0 0 1 495.520001 142.050003 A 1.95 1.95 0 0 1 497.470001 140.100003 A 1.95 1.95 0 0 1 499.420001 142.050003 Z" style="stroke-width: 0.71; stroke: rgb(230, 171, 2); fill: rgb(230, 171, 2); stroke-linecap: round; stroke-linejoin: round; stroke-miterlimit: 10;" clip-path="url(#cpNjkuMDF8NTY2LjkzfDM4MC43OXwyOC4zNQ==)"/><path d="M 515.030017 107.220001 A 1.95 1.95 0 0 1 513.080017 109.170001 A 1.95 1.95 0 0 1 511.130017 107.220001 A 1.95 1.95 0 0 1 513.080017 105.270001 A 1.95 1.95 0 0 1 515.030017 107.220001 Z" style="stroke-width: 0.71; stroke: rgb(230, 171, 2); fill: rgb(230, 171, 2); stroke-linecap: round; stroke-linejoin: round; stroke-miterlimit: 10;" clip-path="url(#cpNjkuMDF8NTY2LjkzfDM4MC43OXwyOC4zNQ==)"/><path d="M 530.640002 74.360001 A 1.95 1.95 0 0 1 528.690002 76.310001 A 1.95 1.95 0 0 1 526.740002 74.360001 A 1.95 1.95 0 0 1 528.690002 72.410001 A 1.95 1.95 0 0 1 530.640002 74.360001 Z" style="stroke-width: 0.71; stroke: rgb(230, 171, 2); fill: rgb(230, 171, 2); stroke-linecap: round; stroke-linejoin: round; stroke-miterlimit: 10;" clip-path="url(#cpNjkuMDF8NTY2LjkzfDM4MC43OXwyOC4zNQ==)"/><path d="M 546.249988 46.259998 A 1.95 1.95 0 0 1 544.299988 48.209998 A 1.95 1.95 0 0 1 542.349988 46.259998 A 1.95 1.95 0 0 1 544.299988 44.309998 A 1.95 1.95 0 0 1 546.249988 46.259998 Z" style="stroke-width: 0.71; stroke: rgb(230, 171, 2); fill: rgb(230, 171, 2); stroke-linecap: round; stroke-linejoin: round; stroke-miterlimit: 10;" clip-path="url(#cpNjkuMDF8NTY2LjkzfDM4MC43OXwyOC4zNQ==)"/><path d="M 91.639999 364.730011 L 107.25 364.649994 L 122.860001 364.549988 L 138.470001 364.410004 L 154.080002 364.230011 L 169.679993 363.98999 L 185.289993 363.690002 L 200.899994 363.279999 L 216.509995 362.709991 L 232.119995 362.01001 L 247.729996 361.070007 L 263.339996 359.779999 L 278.950012 358.119995 L 294.559998 355.929993 L 310.160004 352.98999 L 325.769989 349.149994 L 341.380005 344.109985 L 356.98999 337.470001 L 372.600006 328.880005 L 388.209991 317.839996 L 403.820007 303.839996 L 419.429993 286.369995 L 435.029999 264.929993 L 450.640015 239.389999 L 466.25 209.690002 L 481.859985 176.789993 L 497.470001 142.050003 L 513.080017 107.220001 L 528.690002 74.360001 L 544.299988 46.259998" style="stroke-width: 2.13; stroke: rgb(230, 171, 2); stroke-linecap: butt; fill: none; stroke-linejoin: round; stroke-miterlimit: 10;" clip-path="url(#cpNjkuMDF8NTY2LjkzfDM4MC43OXwyOC4zNQ==)"/><path d="M 91.63999938964844 364.67999267578125 L 107.25 364.5899963378906 L 122.86000061035156 364.4800109863281 L 138.47000122070312 364.3399963378906 L 154.0800018310547 364.1400146484375 L 169.67999267578125 363.8900146484375 L 185.2899932861328 363.57000732421875 L 200.89999389648438 363.1400146484375 L 216.50999450683594 362.54998779296875 L 232.1199951171875 361.8299865722656 L 247.72999572753906 360.8699951171875 L 263.3399963378906 359.5400085449219 L 278.95001220703125 357.8399963378906 L 294.55999755859375 355.6099853515625 L 310.1600036621094 352.6300048828125 L 325.7699890136719 348.7300109863281 L 341.3800048828125 343.6400146484375 L 356.989990234375 336.9100036621094 L 372.6000061035156 328.25 L 388.2099914550781 317.1099853515625 L 403.82000732421875 303.0199890136719 L 419.42999267578125 285.42999267578125 L 435.0299987792969 263.8800048828125 L 450.6400146484375 238.1999969482422 L 466.25 208.3699951171875 L 481.8599853515625 175.33999633789062 L 497.4700012207031 140.4600067138672 L 513.0800170898438 105.5199966430664 L 528.6900024414062 72.55000305175781 L 544.2999877929688 44.369998931884766 L 544.2999877929688 48.150001525878906 L 528.6900024414062 76.16999816894531 L 513.0800170898438 108.91999816894531 L 497.4700012207031 143.6300048828125 L 481.8599853515625 178.24000549316406 L 466.25 211.02000427246094 L 450.6400146484375 240.5800018310547 L 435.0299987792969 265.9800109863281 L 419.42999267578125 287.30999755859375 L 403.82000732421875 304.6700134277344 L 388.2099914550781 318.55999755859375 L 372.6000061035156 329.5199890136719 L 356.989990234375 338.0199890136719 L 341.3800048828125 344.5899963378906 L 325.7699890136719 349.57000732421875 L 310.1600036621094 353.3500061035156 L 294.55999755859375 356.25 L 278.95001220703125 358.3900146484375 L 263.3399963378906 360.0199890136719 L 247.72999572753906 361.2799987792969 L 232.1199951171875 362.19000244140625 L 216.50999450683594 362.8699951171875 L 200.89999389648438 363.4100036621094 L 185.2899932861328 363.79998779296875 L 169.67999267578125 364.0899963378906 L 154.0800018310547 364.32000732421875 L 138.47000122070312 364.4800109863281 L 122.86000061035156 364.6199951171875 L 107.25 364.7099914550781 L 91.63999938964844 364.7699890136719 Z" style="stroke-width: 0.75; stroke: none; fill: rgb(230, 171, 2); fill-opacity: 0.3; stroke-linecap: round; stroke-linejoin: round; stroke-miterlimit: 10;" clip-path="url(#cpNjkuMDF8NTY2LjkzfDM4MC43OXwyOC4zNQ==)"/><path d="M 91.639999 364.679993 L 107.25 364.589996 L 122.860001 364.480011 L 138.470001 364.339996 L 154.080002 364.140015 L 169.679993 363.890015 L 185.289993 363.570007 L 200.899994 363.140015 L 216.509995 362.549988 L 232.119995 361.829987 L 247.729996 360.869995 L 263.339996 359.540009 L 278.950012 357.839996 L 294.559998 355.609985 L 310.160004 352.630005 L 325.769989 348.730011 L 341.380005 343.640015 L 356.98999 336.910004 L 372.600006 328.25 L 388.209991 317.109985 L 403.820007 303.019989 L 419.429993 285.429993 L 435.029999 263.880005 L 450.640015 238.199997 L 466.25 208.369995 L 481.859985 175.339996 L 497.470001 140.460007 L 513.080017 105.519997 L 528.690002 72.550003 L 544.299988 44.369999" style="stroke-width: 1.07; stroke: none; fill: none; stroke-linecap: round; stroke-linejoin: round; stroke-miterlimit: 10;" clip-path="url(#cpNjkuMDF8NTY2LjkzfDM4MC43OXwyOC4zNQ==)"/><path d="M 544.299988 48.150002 L 528.690002 76.169998 L 513.080017 108.919998 L 497.470001 143.630005 L 481.859985 178.240005 L 466.25 211.020004 L 450.640015 240.580002 L 435.029999 265.980011 L 419.429993 287.309998 L 403.820007 304.670013 L 388.209991 318.559998 L 372.600006 329.519989 L 356.98999 338.019989 L 341.380005 344.589996 L 325.769989 349.570007 L 310.160004 353.350006 L 294.559998 356.25 L 278.950012 358.390015 L 263.339996 360.019989 L 247.729996 361.279999 L 232.119995 362.190002 L 216.509995 362.869995 L 200.899994 363.410004 L 185.289993 363.799988 L 169.679993 364.089996 L 154.080002 364.320007 L 138.470001 364.480011 L 122.860001 364.619995 L 107.25 364.709991 L 91.639999 364.769989" style="stroke-width: 1.07; stroke: none; fill: none; stroke-linecap: round; stroke-linejoin: round; stroke-miterlimit: 10;" clip-path="url(#cpNjkuMDF8NTY2LjkzfDM4MC43OXwyOC4zNQ==)"/><path d="M 69.010002 317.350006 L 566.929993 317.350006" style="stroke-width: 1.07; stroke: rgb(227, 26, 28); stroke-dasharray: 5.69, 5.69; stroke-linecap: butt; fill: none; stroke-linejoin: round; stroke-miterlimit: 10;" clip-path="url(#cpNjkuMDF8NTY2LjkzfDM4MC43OXwyOC4zNQ==)"/><g clip-path="url(#cpNjkuMDF8NTY2LjkzfDM4MC43OXwyOC4zNQ==)"><text x="89.35" y="312.34" style="font-size: 14.23px; font-weight: bold; fill: rgb(227, 26, 28); font-family: Arial; white-space: pre;" textLength="35.81px" lengthAdjust="spacingAndGlyphs">100%</text></g><path d="M 69.010002 341.149994 L 566.929993 341.149994" style="stroke-width: 1.07; stroke: rgb(31, 120, 180); stroke-dasharray: 5.69, 5.69; stroke-linecap: butt; fill: none; stroke-linejoin: round; stroke-miterlimit: 10;" clip-path="url(#cpNjkuMDF8NTY2LjkzfDM4MC43OXwyOC4zNQ==)"/><g clip-path="url(#cpNjkuMDF8NTY2LjkzfDM4MC43OXwyOC4zNQ==)"><text x="93.24" y="336.14" style="font-size: 14.23px; font-weight: bold; fill: rgb(31, 120, 180); font-family: Arial; white-space: pre;" textLength="28.02px" lengthAdjust="spacingAndGlyphs">50%</text></g><path d="M 69.010002 28.35 H 566.930016 V 380.800013 H 69.010002 V 28.35 Z" style="stroke-width: 1.07; stroke: rgb(51, 51, 51); fill: none; stroke-linecap: round; stroke-linejoin: round; stroke-miterlimit: 10;" clip-path="url(#cpNjkuMDF8NTY2LjkzfDM4MC43OXwyOC4zNQ==)"/><g clip-path="url(#cpMC4wMHw1OTUuMjh8NDI1LjIwfDAuMDA=)"><text x="57.40" y="369.25" style="font-size: 12px; font-weight: bold; fill: rgb(77, 77, 77); font-family: Arial; white-space: pre;" textLength="6.67px" lengthAdjust="spacingAndGlyphs">0</text></g><g clip-path="url(#cpMC4wMHw1OTUuMjh8NDI1LjIwfDAuMDA=)"><text x="44.05" y="274.04" style="font-size: 12px; font-weight: bold; fill: rgb(77, 77, 77); font-family: Arial; white-space: pre;" textLength="20.02px" lengthAdjust="spacingAndGlyphs">200</text></g><g clip-path="url(#cpMC4wMHw1OTUuMjh8NDI1LjIwfDAuMDA=)"><text x="44.05" y="178.83" style="font-size: 12px; font-weight: bold; fill: rgb(77, 77, 77); font-family: Arial; white-space: pre;" textLength="20.02px" lengthAdjust="spacingAndGlyphs">400</text></g><g clip-path="url(#cpMC4wMHw1OTUuMjh8NDI1LjIwfDAuMDA=)"><text x="44.05" y="83.61" style="font-size: 12px; font-weight: bold; fill: rgb(77, 77, 77); font-family: Arial; white-space: pre;" textLength="20.02px" lengthAdjust="spacingAndGlyphs">600</text></g><path d="M 66.269997 364.950012 L 69.010002 364.950012" style="stroke-width: 1.07; stroke: rgb(51, 51, 51); stroke-linecap: butt; fill: none; stroke-linejoin: round; stroke-miterlimit: 10;" clip-path="url(#cpMC4wMHw1OTUuMjh8NDI1LjIwfDAuMDA=)"/><path d="M 66.269997 269.73999 L 69.010002 269.73999" style="stroke-width: 1.07; stroke: rgb(51, 51, 51); stroke-linecap: butt; fill: none; stroke-linejoin: round; stroke-miterlimit: 10;" clip-path="url(#cpMC4wMHw1OTUuMjh8NDI1LjIwfDAuMDA=)"/><path d="M 66.269997 174.529999 L 69.010002 174.529999" style="stroke-width: 1.07; stroke: rgb(51, 51, 51); stroke-linecap: butt; fill: none; stroke-linejoin: round; stroke-miterlimit: 10;" clip-path="url(#cpMC4wMHw1OTUuMjh8NDI1LjIwfDAuMDA=)"/><path d="M 66.269997 79.32 L 69.010002 79.32" style="stroke-width: 1.07; stroke: rgb(51, 51, 51); stroke-linecap: butt; fill: none; stroke-linejoin: round; stroke-miterlimit: 10;" clip-path="url(#cpMC4wMHw1OTUuMjh8NDI1LjIwfDAuMDA=)"/><path d="M 122.860001 383.529999 L 122.860001 380.790009" style="stroke-width: 1.07; stroke: rgb(51, 51, 51); stroke-linecap: butt; fill: none; stroke-linejoin: round; stroke-miterlimit: 10;" clip-path="url(#cpMC4wMHw1OTUuMjh8NDI1LjIwfDAuMDA=)"/><path d="M 232.119995 383.529999 L 232.119995 380.790009" style="stroke-width: 1.07; stroke: rgb(51, 51, 51); stroke-linecap: butt; fill: none; stroke-linejoin: round; stroke-miterlimit: 10;" clip-path="url(#cpMC4wMHw1OTUuMjh8NDI1LjIwfDAuMDA=)"/><path d="M 341.380005 383.529999 L 341.380005 380.790009" style="stroke-width: 1.07; stroke: rgb(51, 51, 51); stroke-linecap: butt; fill: none; stroke-linejoin: round; stroke-miterlimit: 10;" clip-path="url(#cpMC4wMHw1OTUuMjh8NDI1LjIwfDAuMDA=)"/><path d="M 450.640015 383.529999 L 450.640015 380.790009" style="stroke-width: 1.07; stroke: rgb(51, 51, 51); stroke-linecap: butt; fill: none; stroke-linejoin: round; stroke-miterlimit: 10;" clip-path="url(#cpMC4wMHw1OTUuMjh8NDI1LjIwfDAuMDA=)"/><path d="M 559.909973 383.529999 L 559.909973 380.790009" style="stroke-width: 1.07; stroke: rgb(51, 51, 51); stroke-linecap: butt; fill: none; stroke-linejoin: round; stroke-miterlimit: 10;" clip-path="url(#cpMC4wMHw1OTUuMjh8NDI1LjIwfDAuMDA=)"/><g clip-path="url(#cpMC4wMHw1OTUuMjh8NDI1LjIwfDAuMDA=)"><text x="103.85" y="394.32" style="font-size: 12px; font-weight: bold; fill: rgb(77, 77, 77); font-family: Arial; white-space: pre;" textLength="38.02px" lengthAdjust="spacingAndGlyphs">Mar 16</text></g><g clip-path="url(#cpMC4wMHw1OTUuMjh8NDI1LjIwfDAuMDA=)"><text x="213.11" y="394.32" style="font-size: 12px; font-weight: bold; fill: rgb(77, 77, 77); font-family: Arial; white-space: pre;" textLength="38.02px" lengthAdjust="spacingAndGlyphs">Mar 23</text></g><g clip-path="url(#cpMC4wMHw1OTUuMjh8NDI1LjIwfDAuMDA=)"><text x="322.37" y="394.32" style="font-size: 12px; font-weight: bold; fill: rgb(77, 77, 77); font-family: Arial; white-space: pre;" textLength="38.02px" lengthAdjust="spacingAndGlyphs">Mar 30</text></g><g clip-path="url(#cpMC4wMHw1OTUuMjh8NDI1LjIwfDAuMDA=)"><text x="431.97" y="394.32" style="font-size: 12px; font-weight: bold; fill: rgb(77, 77, 77); font-family: Arial; white-space: pre;" textLength="37.35px" lengthAdjust="spacingAndGlyphs">Apr 06</text></g><g clip-path="url(#cpMC4wMHw1OTUuMjh8NDI1LjIwfDAuMDA=)"><text x="541.23" y="394.32" style="font-size: 12px; font-weight: bold; fill: rgb(77, 77, 77); font-family: Arial; white-space: pre;" textLength="37.35px" lengthAdjust="spacingAndGlyphs">Apr 13</text></g><g clip-path="url(#cpMC4wMHw1OTUuMjh8NDI1LjIwfDAuMDA=)"><text transform="translate(38.36,316.20) rotate(-90)" style="font-size: 14px; font-weight: bold; font-family: Arial; white-space: pre;" textLength="223.26px" lengthAdjust="spacingAndGlyphs">% de UTI ocupadas por COVID-19</text></g><path d="M 77.029999 46.73 H 260.160004 V 80.450001 H 77.029999 V 46.73 Z" style="stroke-width: 1.07; fill: rgb(255, 255, 255); stroke: rgb(0, 0, 0); stroke-linecap: round; stroke-linejoin: round; stroke-miterlimit: 10;" clip-path="url(#cpMC4wMHw1OTUuMjh8NDI1LjIwfDAuMDA=)"/><path d="M 82.510002 57.689999 H 99.790003 V 74.969999 H 82.510002 V 57.689999 Z" style="stroke-width: 1.07; stroke: none; fill: rgb(255, 255, 255); stroke-linecap: round; stroke-linejoin: round; stroke-miterlimit: 10;" clip-path="url(#cpMC4wMHw1OTUuMjh8NDI1LjIwfDAuMDA=)"/><path d="M 93.100002 66.330002 A 1.95 1.95 0 0 1 91.150002 68.280002 A 1.95 1.95 0 0 1 89.200001 66.330002 A 1.95 1.95 0 0 1 91.150002 64.380002 A 1.95 1.95 0 0 1 93.100002 66.330002 Z" style="stroke-width: 0.71; stroke: rgb(230, 171, 2); fill: rgb(230, 171, 2); stroke-linecap: round; stroke-linejoin: round; stroke-miterlimit: 10;" clip-path="url(#cpMC4wMHw1OTUuMjh8NDI1LjIwfDAuMDA=)"/><path d="M 84.239998 66.330002 L 98.059998 66.330002" style="stroke-width: 2.13; stroke: rgb(230, 171, 2); stroke-linecap: butt; fill: none; stroke-linejoin: round; stroke-miterlimit: 10;" clip-path="url(#cpMC4wMHw1OTUuMjh8NDI1LjIwfDAuMDA=)"/><g clip-path="url(#cpMC4wMHw1OTUuMjh8NDI1LjIwfDAuMDA=)"><text x="105.27" y="70.63" style="font-size: 12px; font-family: Arial; white-space: pre;" textLength="149.41px" lengthAdjust="spacingAndGlyphs">modelo sem distanciamento</text></g></g></svg>