<svg class="main-svg" xmlns="http://www.w3.org/2000/svg" xmlns:xlink="http://www.w3.org/1999/xlink" width="700" height="500" viewBox="0 0 700 500"><rect x="0" y="0" width="700" height="500" style="fill: rgb(255, 255, 255); fill-opacity: 1;"/><defs id="defs-317d95"><g class="clips"><clipPath id="clip317d95xyplot" class="plotclip"><rect width="620" height="421"/></clipPath><clipPath class="axesclip" id="clip317d95x"><rect x="52" y="0" width="620" height="500"/></clipPath><clipPath class="axesclip" id="clip317d95y"><rect x="0" y="26" width="700" height="421"/></clipPath><clipPath class="axesclip" id="clip317d95xy"><rect x="52" y="26" width="620" height="421"/></clipPath></g><g class="gradients"/></defs><g class="bglayer"/><g class="layer-below"><g class="imagelayer"/><g class="shapelayer"/></g><g class="cartesianlayer"><g class="subplot xy"><g class="layer-subplot"><g class="shapelayer"/><g class="imagelayer"/></g><g class="gridlayer"><g class="x"><path class="xgrid crisp" transform="translate(116.94,0)" d="M0,26v421" style="stroke: rgb(235, 235, 235); stroke-opacity: 1; stroke-width: 0.664176px;"/><path class="xgrid crisp" transform="translate(288.48,0)" d="M0,26v421" style="stroke: rgb(235, 235, 235); stroke-opacity: 1; stroke-width: 0.664176px;"/><path class="xgrid crisp" transform="translate(496.78,0)" d="M0,26v421" style="stroke: rgb(235, 235, 235); stroke-opacity: 1; stroke-width: 0.664176px;"/><path class="xgrid crisp" transform="translate(668.32,0)" d="M0,26v421" style="stroke: rgb(235, 235, 235); stroke-opacity: 1; stroke-width: 0.664176px;"/></g><g class="y"><path class="ygrid crisp" transform="translate(0,441.78)" d="M52,0h620" style="stroke: rgb(235, 235, 235); stroke-opacity: 1; stroke-width: 0.664176px;"/><path class="ygrid crisp" transform="translate(0,340.8)" d="M52,0h620" style="stroke: rgb(235, 235, 235); stroke-opacity: 1; stroke-width: 0.664176px;"/><path class="ygrid crisp" transform="translate(0,239.82)" d="M52,0h620" style="stroke: rgb(235, 235, 235); stroke-opacity: 1; stroke-width: 0.664176px;"/><path class="ygrid crisp" transform="translate(0,138.82999999999998)" d="M52,0h620" style="stroke: rgb(235, 235, 235); stroke-opacity: 1; stroke-width: 0.664176px;"/><path class="ygrid crisp" transform="translate(0,37.85)" d="M52,0h620" style="stroke: rgb(235, 235, 235); stroke-opacity: 1; stroke-width: 0.664176px;"/></g></g><g class="zerolinelayer"/><path class="xlines-below"/><path class="ylines-below"/><g class="overlines-below"/><g class="xaxislayer-below"/><g class="yaxislayer-below"/><g class="overaxes-below"/><g class="plot" transform="translate(52, 26)" clip-path="url('#clip317d95xyplot')"><g class="scatterlayer mlayer"><g class="trace scatter trace87df35" style="stroke-miterlimit: 2; opacity: 1;"><g class="fills"><g><path class="js-fill" d="M28.18,401.86L52.69,394.81L64.94,393.15L89.45,393.2L101.7,391.9L113.95,390.59L126.21,391.53L138.46,391.23L150.71,392.43L175.22,394.42L187.47,394.09L248.74,388.8L260.99,386.69L273.24,383.84L285.49,380.08L322.25,368.65L334.51,366.53L346.76,363.63L359.01,359.82L371.26,354.49L383.52,348.31L395.77,339.99L408.02,328.6L469.29,273.2L481.54,259.7L493.79,245.9L506.05,234.36L518.3,227.95L530.55,224.61L542.81,220.46L555.06,213.78L567.31,201.42L579.57,187.62L591.82,175.08L591.82,175.08L591.82,19.14L567.31,81.3L555.06,108.26L542.81,121.38L530.55,128.6L518.3,133.93L506.05,146L493.79,168.79L481.54,195.23L469.29,219.82L457.04,240.01L432.53,275.38L420.28,291.44L395.77,324.02L383.52,335.25L371.26,343.25L359.01,349.97L346.76,354.55L334.51,357.89L322.25,360.13L310,364.81L273.24,378.32L260.99,381.57L248.74,383.82L236.48,384.86L224.23,385.97L211.98,386.05L187.47,387.08L175.22,386.29L162.96,382.58L150.71,377.8L138.46,371.04L126.21,367.17L113.95,356.11L101.7,355.51L89.45,354.49L77.19,339.98L64.94,318.95L52.69,308.62L40.43,347.94L28.18,365.51L28.18,401.86Z" style="fill: rgb(211, 211, 211); fill-opacity: 1; stroke-width: 0;"/></g></g><g class="errorbars"/><g class="lines"><path class="js-line" d="M28.18,401.86L52.69,394.81L64.94,393.15L89.45,393.2L101.7,391.9L113.95,390.59L126.21,391.53L138.46,391.23L150.71,392.43L175.22,394.42L187.47,394.09L248.74,388.8L260.99,386.69L273.24,383.84L285.49,380.08L322.25,368.65L334.51,366.53L346.76,363.63L359.01,359.82L371.26,354.49L383.52,348.31L395.77,339.99L408.02,328.6L469.29,273.2L481.54,259.7L493.79,245.9L506.05,234.36L518.3,227.95L530.55,224.61L542.81,220.46L555.06,213.78L567.31,201.42L579.57,187.62L591.82,175.08L591.82,175.08L591.82,19.14L567.31,81.3L555.06,108.26L542.81,121.38L530.55,128.6L518.3,133.93L506.05,146L493.79,168.79L481.54,195.23L469.29,219.82L457.04,240.01L432.53,275.38L420.28,291.44L395.77,324.02L383.52,335.25L371.26,343.25L359.01,349.97L346.76,354.55L334.51,357.89L322.25,360.13L310,364.81L273.24,378.32L260.99,381.57L248.74,383.82L236.48,384.86L224.23,385.97L211.98,386.05L187.47,387.08L175.22,386.29L162.96,382.58L150.71,377.8L138.46,371.04L126.21,367.17L113.95,356.11L101.7,355.51L89.45,354.49L77.19,339.98L64.94,318.95L52.69,308.62L40.43,347.94L28.18,365.51L28.18,401.86" style="vector-effect: non-scaling-stroke; fill: none; stroke: rgb(0, 0, 0); stroke-opacity: 0; stroke-width: 1.88976px; opacity: 1;"/></g><g class="points"/><g class="text"/></g><g class="trace scatter trace5948df" style="stroke-miterlimit: 2; opacity: 1;"><g class="fills"/><g class="errorbars"/><g class="lines"><path class="js-line" d="M28.18,393.46L40.43,388L52.69,380.2L64.94,378.69L77.19,380.52L89.45,382.53L101.7,381.36L113.95,380.18L126.21,383.29L138.46,383.98L150.71,386.78L175.22,390.96L187.47,391.04L248.74,386.51L260.99,384.33L285.49,377.2L297.75,372.88L322.25,364.74L334.51,362.55L359.01,355.29L371.26,349.34L383.52,342.36L395.77,332.76L457.04,265.76L469.29,250.71L493.79,214.47L506.05,198.82L518.3,190.35L530.55,186.23L542.81,180.94L555.06,171.94L567.31,154.5L579.57,134.57L591.82,116.18" style="vector-effect: non-scaling-stroke; fill: none; stroke: rgb(27, 158, 119); stroke-opacity: 1; stroke-width: 4.72441px; opacity: 1;"/></g><g class="points"/><g class="text"/></g></g></g><g class="overplot"/><path class="xlines-above crisp" d="" style="fill: none; stroke-width: 1px; stroke: rgb(0, 0, 0); stroke-opacity: 0;"/><path class="ylines-above crisp" d="" style="fill: none; stroke-width: 1px; stroke: rgb(0, 0, 0); stroke-opacity: 0;"/><g class="overlines-above"/><g class="xaxislayer-above"><path class="xtick ticks crisp" d="M0,448v3.65296803652968" transform="translate(116.94,0)" style="stroke: rgb(51, 51, 51); stroke-opacity: 1; stroke-width: 0.664176px;"/><path class="xtick ticks crisp" d="M0,448v3.65296803652968" transform="translate(288.48,0)" style="stroke: rgb(51, 51, 51); stroke-opacity: 1; stroke-width: 0.664176px;"/><path class="xtick ticks crisp" d="M0,448v3.65296803652968" transform="translate(496.78,0)" style="stroke: rgb(51, 51, 51); stroke-opacity: 1; stroke-width: 0.664176px;"/><path class="xtick ticks crisp" d="M0,448v3.65296803652968" transform="translate(668.32,0)" style="stroke: rgb(51, 51, 51); stroke-opacity: 1; stroke-width: 0.664176px;"/><g class="xtick"><text text-anchor="middle" x="0" y="470.7812370278123" transform="translate(116.94,0)" style="font-family: 'Open Sans', verdana, arial, sans-serif; font-size: 15.9402px; fill: rgb(77, 77, 77); fill-opacity: 1; white-space: pre;">01/mar</text></g><g class="xtick"><text text-anchor="middle" x="0" y="470.7812370278123" transform="translate(288.48,0)" style="font-family: 'Open Sans', verdana, arial, sans-serif; font-size: 15.9402px; fill: rgb(77, 77, 77); fill-opacity: 1; white-space: pre;">15/mar</text></g><g class="xtick"><text text-anchor="middle" x="0" y="470.7812370278123" transform="translate(496.78,0)" style="font-family: 'Open Sans', verdana, arial, sans-serif; font-size: 15.9402px; fill: rgb(77, 77, 77); fill-opacity: 1; white-space: pre;">01/abr</text></g><g class="xtick"><text text-anchor="middle" x="0" y="470.7812370278123" transform="translate(668.32,0)" style="font-family: 'Open Sans', verdana, arial, sans-serif; font-size: 15.9402px; fill: rgb(77, 77, 77); fill-opacity: 1; white-space: pre;">15/abr</text></g></g><g class="yaxislayer-above"><path class="ytick ticks crisp" d="M51,0h-3.65296803652968" transform="translate(0,441.78)" style="stroke: rgb(51, 51, 51); stroke-opacity: 1; stroke-width: 0.664176px;"/><path class="ytick ticks crisp" d="M51,0h-3.65296803652968" transform="translate(0,340.8)" style="stroke: rgb(51, 51, 51); stroke-opacity: 1; stroke-width: 0.664176px;"/><path class="ytick ticks crisp" d="M51,0h-3.65296803652968" transform="translate(0,239.82)" style="stroke: rgb(51, 51, 51); stroke-opacity: 1; stroke-width: 0.664176px;"/><path class="ytick ticks crisp" d="M51,0h-3.65296803652968" transform="translate(0,138.82999999999998)" style="stroke: rgb(51, 51, 51); stroke-opacity: 1; stroke-width: 0.664176px;"/><path class="ytick ticks crisp" d="M51,0h-3.65296803652968" transform="translate(0,37.85)" style="stroke: rgb(51, 51, 51); stroke-opacity: 1; stroke-width: 0.664176px;"/><g class="ytick"><text text-anchor="end" x="44.15898713158988" y="5.5790784557907696" transform="translate(0,441.78)" style="font-family: 'Open Sans', verdana, arial, sans-serif; font-size: 15.9402px; fill: rgb(77, 77, 77); fill-opacity: 1; white-space: pre;">0</text></g><g class="ytick"><text text-anchor="end" x="44.15898713158988" y="5.5790784557907696" transform="translate(0,340.8)" style="font-family: 'Open Sans', verdana, arial, sans-serif; font-size: 15.9402px; fill: rgb(77, 77, 77); fill-opacity: 1; white-space: pre;">10</text></g><g class="ytick"><text text-anchor="end" x="44.15898713158988" y="5.5790784557907696" transform="translate(0,239.82)" style="font-family: 'Open Sans', verdana, arial, sans-serif; font-size: 15.9402px; fill: rgb(77, 77, 77); fill-opacity: 1; white-space: pre;">20</text></g><g class="ytick"><text text-anchor="end" x="44.15898713158988" y="5.5790784557907696" transform="translate(0,138.82999999999998)" style="font-family: 'Open Sans', verdana, arial, sans-serif; font-size: 15.9402px; fill: rgb(77, 77, 77); fill-opacity: 1; white-space: pre;">30</text></g><g class="ytick"><text text-anchor="end" x="44.15898713158988" y="5.5790784557907696" transform="translate(0,37.85)" style="font-family: 'Open Sans', verdana, arial, sans-serif; font-size: 15.9402px; fill: rgb(77, 77, 77); fill-opacity: 1; white-space: pre;">40</text></g></g><g class="overaxes-above"/></g></g><g class="polarlayer"/><g class="ternarylayer"/><g class="geolayer"/><g class="funnelarealayer"/><g class="pielayer"/><g class="treemaplayer"/><g class="sunburstlayer"/><g class="glimages"/><defs id="topdefs-317d95"><g class="clips"/></defs><g class="layer-above"><g class="imagelayer"/><g class="shapelayer"><path data-index="0" fill-rule="evenodd" d="M52,447H672V26H52Z" style="opacity: 1; stroke: rgb(51, 51, 51); stroke-opacity: 1; fill: rgb(0, 0, 0); fill-opacity: 0; stroke-width: 0.664176px;"/></g></g><g class="infolayer"><g class="g-gtitle"/><g class="g-xtitle" transform="translate(0,-16.790784557907955)"><text class="xtitle" x="362" y="512.790784557908" text-anchor="middle" style="font-family: 'Open Sans', verdana, arial, sans-serif; font-size: 18.6px; fill: rgb(0, 0, 0); opacity: 1; font-weight: normal; white-space: pre;"><tspan style="font-weight:bold">  </tspan></text></g><g class="g-ytitle" transform="translate(12.1943359375,0)"><text class="ytitle" transform="rotate(-90,4.806143628061399,236.5)" x="4.806143628061399" y="236.5" text-anchor="middle" style="font-family: 'Open Sans', verdana, arial, sans-serif; font-size: 18.6px; fill: rgb(0, 0, 0); opacity: 1; font-weight: normal; white-space: pre;"><tspan style="font-weight:bold"> Tempo de duplicação (dias) </tspan></text></g></g></svg>