<svg class="main-svg" xmlns="http://www.w3.org/2000/svg" xmlns:xlink="http://www.w3.org/1999/xlink" width="1600" height="800" viewBox="0 0 1600 800"><rect x="0" y="0" width="1600" height="800" style="fill: rgb(255, 255, 255); fill-opacity: 1;"/><defs id="defs-37bf6b"><g class="clips"><clipPath id="clip37bf6bxyplot" class="plotclip"><rect width="1521" height="720"/></clipPath><clipPath class="axesclip" id="clip37bf6bx"><rect x="54" y="0" width="1521" height="800"/></clipPath><clipPath class="axesclip" id="clip37bf6by"><rect x="0" y="26" width="1600" height="720"/></clipPath><clipPath class="axesclip" id="clip37bf6bxy"><rect x="54" y="26" width="1521" height="720"/></clipPath></g><g class="gradients"/></defs><g class="bglayer"/><g class="layer-below"><g class="imagelayer"/><g class="shapelayer"/></g><g class="cartesianlayer"><g class="subplot xy"><g class="layer-subplot"><g class="shapelayer"/><g class="imagelayer"/></g><g class="gridlayer"><g class="x"><path class="xgrid crisp" transform="translate(213.31,0)" d="M0,26v720" style="stroke: rgb(235, 235, 235); stroke-opacity: 1; stroke-width: 0.664176px;"/><path class="xgrid crisp" transform="translate(634.14,0)" d="M0,26v720" style="stroke: rgb(235, 235, 235); stroke-opacity: 1; stroke-width: 0.664176px;"/><path class="xgrid crisp" transform="translate(1145.15,0)" d="M0,26v720" style="stroke: rgb(235, 235, 235); stroke-opacity: 1; stroke-width: 0.664176px;"/><path class="xgrid crisp" transform="translate(1565.98,0)" d="M0,26v720" style="stroke: rgb(235, 235, 235); stroke-opacity: 1; stroke-width: 0.664176px;"/></g><g class="y"><path class="ygrid crisp" transform="translate(0,737.07)" d="M54,0h1521" style="stroke: rgb(235, 235, 235); stroke-opacity: 1; stroke-width: 0.664176px;"/><path class="ygrid crisp" transform="translate(0,564.37)" d="M54,0h1521" style="stroke: rgb(235, 235, 235); stroke-opacity: 1; stroke-width: 0.664176px;"/><path class="ygrid crisp" transform="translate(0,391.67)" d="M54,0h1521" style="stroke: rgb(235, 235, 235); stroke-opacity: 1; stroke-width: 0.664176px;"/><path class="ygrid crisp" transform="translate(0,218.97)" d="M54,0h1521" style="stroke: rgb(235, 235, 235); stroke-opacity: 1; stroke-width: 0.664176px;"/><path class="ygrid crisp" transform="translate(0,46.269999999999996)" d="M54,0h1521" style="stroke: rgb(235, 235, 235); stroke-opacity: 1; stroke-width: 0.664176px;"/></g></g><g class="zerolinelayer"/><path class="xlines-below"/><path class="ylines-below"/><g class="overlines-below"/><g class="xaxislayer-below"/><g class="yaxislayer-below"/><g class="overaxes-below"/><g class="plot" transform="translate(54, 26)" clip-path="url('#clip37bf6bxyplot')"><g class="scatterlayer mlayer"><g class="trace scatter trace952353" style="stroke-miterlimit: 2; opacity: 1;"><g class="fills"><g><path class="js-fill" d="M69.14,687.27L99.2,681.86L129.25,675.21L159.31,672.37L189.37,672.26L219.43,672.46L249.49,670.23L279.55,668L309.61,669.59L339.67,669.1L369.73,671.13L429.85,674.54L459.91,673.98L580.14,667.09L610.2,664.93L640.26,661.33L670.32,656.45L790.56,630.47L820.62,626.85L850.68,621.88L880.74,615.37L910.8,606.25L940.86,595.69L970.92,581.45L1000.97,561.97L1031.03,542.9L1061.09,524.84L1121.21,487.31L1151.27,467.23L1211.39,420.53L1241.45,400.81L1271.51,389.85L1301.57,384.13L1331.63,377.04L1361.69,365.61L1391.75,344.47L1421.8,320.88L1451.86,299.42L1451.86,32.73L1421.8,84.48L1391.75,139.04L1361.69,185.14L1331.63,207.59L1301.57,219.94L1271.51,229.05L1241.45,249.69L1211.39,288.67L1181.33,333.89L1151.27,375.94L1121.21,410.47L1091.15,441.12L1061.09,470.96L1031.03,498.43L970.92,554.15L940.86,573.36L910.8,587.03L880.74,598.52L850.68,606.36L820.62,612.06L790.56,615.9L760.5,623.9L730.44,631.2L700.38,639.32L670.32,647.01L640.26,652.57L610.2,656.41L580.14,658.19L550.08,660.09L520.03,660.22L459.91,661.99L429.85,660.63L399.79,654.29L369.73,646.12L339.67,634.55L309.61,627.95L279.55,609.02L249.49,607.99L219.43,606.25L189.37,581.43L159.31,545.48L129.25,527.8L99.2,595.05L69.14,625.1L69.14,687.27Z" style="fill: rgb(211, 211, 211); fill-opacity: 1; stroke-width: 0;"/></g></g><g class="errorbars"/><g class="lines"><path class="js-line" d="M69.14,687.27L99.2,681.86L129.25,675.21L159.31,672.37L189.37,672.26L219.43,672.46L249.49,670.23L279.55,668L309.61,669.59L339.67,669.1L369.73,671.13L429.85,674.54L459.91,673.98L580.14,667.09L610.2,664.93L640.26,661.33L670.32,656.45L790.56,630.47L820.62,626.85L850.68,621.88L880.74,615.37L910.8,606.25L940.86,595.69L970.92,581.45L1000.97,561.97L1031.03,542.9L1061.09,524.84L1121.21,487.31L1151.27,467.23L1211.39,420.53L1241.45,400.81L1271.51,389.85L1301.57,384.13L1331.63,377.04L1361.69,365.61L1391.75,344.47L1421.8,320.88L1451.86,299.42L1451.86,32.73L1421.8,84.48L1391.75,139.04L1361.69,185.14L1331.63,207.59L1301.57,219.94L1271.51,229.05L1241.45,249.69L1211.39,288.67L1181.33,333.89L1151.27,375.94L1121.21,410.47L1091.15,441.12L1061.09,470.96L1031.03,498.43L970.92,554.15L940.86,573.36L910.8,587.03L880.74,598.52L850.68,606.36L820.62,612.06L790.56,615.9L760.5,623.9L730.44,631.2L700.38,639.32L670.32,647.01L640.26,652.57L610.2,656.41L580.14,658.19L550.08,660.09L520.03,660.22L459.91,661.99L429.85,660.63L399.79,654.29L369.73,646.12L339.67,634.55L309.61,627.95L279.55,609.02L249.49,607.99L219.43,606.25L189.37,581.43L159.31,545.48L129.25,527.8L99.2,595.05L69.14,625.1L69.14,687.27" style="vector-effect: non-scaling-stroke; fill: none; stroke: rgb(0, 0, 0); stroke-opacity: 0; stroke-width: 1.88976px; opacity: 1;"/></g><g class="points"/><g class="text"/></g><g class="trace scatter tracea91aad" style="stroke-miterlimit: 2; opacity: 1;"><g class="fills"/><g class="errorbars"/><g class="lines"><path class="js-line" d="M69.14,672.9L99.2,663.57L129.25,650.23L159.31,647.64L189.37,650.78L219.43,654.21L249.49,652.21L279.55,650.19L309.61,655.5L339.67,656.68L369.73,661.48L429.85,668.63L459.91,668.77L580.14,663.03L610.2,661.02L640.26,657.29L670.32,652.1L790.56,623.78L820.62,620.05L850.68,614.73L880.74,607.62L910.8,597.44L940.86,585.5L970.92,569.09L1000.97,546.12L1121.21,454.51L1151.27,428.77L1211.39,366.78L1241.45,340.03L1271.51,325.53L1301.57,318.5L1331.63,309.45L1361.69,294.06L1391.75,264.23L1421.8,230.15L1451.86,198.69" style="vector-effect: non-scaling-stroke; fill: none; stroke: rgb(27, 158, 119); stroke-opacity: 1; stroke-width: 4.72441px; opacity: 1;"/></g><g class="points"/><g class="text"/></g></g></g><g class="overplot"/><path class="xlines-above crisp" d="" style="fill: none; stroke-width: 1px; stroke: rgb(0, 0, 0); stroke-opacity: 0;"/><path class="ylines-above crisp" d="" style="fill: none; stroke-width: 1px; stroke: rgb(0, 0, 0); stroke-opacity: 0;"/><g class="overlines-above"/><g class="xaxislayer-above"><path class="xtick ticks crisp" d="M0,747v3.65296803652968" transform="translate(213.31,0)" style="stroke: rgb(51, 51, 51); stroke-opacity: 1; stroke-width: 0.664176px;"/><path class="xtick ticks crisp" d="M0,747v3.65296803652968" transform="translate(634.14,0)" style="stroke: rgb(51, 51, 51); stroke-opacity: 1; stroke-width: 0.664176px;"/><path class="xtick ticks crisp" d="M0,747v3.65296803652968" transform="translate(1145.15,0)" style="stroke: rgb(51, 51, 51); stroke-opacity: 1; stroke-width: 0.664176px;"/><path class="xtick ticks crisp" d="M0,747v3.65296803652968" transform="translate(1565.98,0)" style="stroke: rgb(51, 51, 51); stroke-opacity: 1; stroke-width: 0.664176px;"/><g class="xtick"><text text-anchor="middle" x="0" y="769.7812370278123" transform="translate(213.31,0)" style="font-family: 'Open Sans', verdana, arial, sans-serif; font-size: 15.9402px; fill: rgb(77, 77, 77); fill-opacity: 1; white-space: pre;">01/Mar</text></g><g class="xtick"><text text-anchor="middle" x="0" y="769.7812370278123" transform="translate(634.14,0)" style="font-family: 'Open Sans', verdana, arial, sans-serif; font-size: 15.9402px; fill: rgb(77, 77, 77); fill-opacity: 1; white-space: pre;">15/Mar</text></g><g class="xtick"><text text-anchor="middle" x="0" y="769.7812370278123" transform="translate(1145.15,0)" style="font-family: 'Open Sans', verdana, arial, sans-serif; font-size: 15.9402px; fill: rgb(77, 77, 77); fill-opacity: 1; white-space: pre;">01/Apr</text></g><g class="xtick"><text text-anchor="middle" x="0" y="769.7812370278123" transform="translate(1565.98,0)" style="font-family: 'Open Sans', verdana, arial, sans-serif; font-size: 15.9402px; fill: rgb(77, 77, 77); fill-opacity: 1; white-space: pre;">15/Apr</text></g></g><g class="yaxislayer-above"><path class="ytick ticks crisp" d="M53,0h-3.65296803652968" transform="translate(0,737.07)" style="stroke: rgb(51, 51, 51); stroke-opacity: 1; stroke-width: 0.664176px;"/><path class="ytick ticks crisp" d="M53,0h-3.65296803652968" transform="translate(0,564.37)" style="stroke: rgb(51, 51, 51); stroke-opacity: 1; stroke-width: 0.664176px;"/><path class="ytick ticks crisp" d="M53,0h-3.65296803652968" transform="translate(0,391.67)" style="stroke: rgb(51, 51, 51); stroke-opacity: 1; stroke-width: 0.664176px;"/><path class="ytick ticks crisp" d="M53,0h-3.65296803652968" transform="translate(0,218.97)" style="stroke: rgb(51, 51, 51); stroke-opacity: 1; stroke-width: 0.664176px;"/><path class="ytick ticks crisp" d="M53,0h-3.65296803652968" transform="translate(0,46.269999999999996)" style="stroke: rgb(51, 51, 51); stroke-opacity: 1; stroke-width: 0.664176px;"/><g class="ytick"><text text-anchor="end" x="46.15898713158988" y="5.5790784557907696" transform="translate(0,737.07)" style="font-family: 'Open Sans', verdana, arial, sans-serif; font-size: 15.9402px; fill: rgb(77, 77, 77); fill-opacity: 1; white-space: pre;">0</text></g><g class="ytick"><text text-anchor="end" x="46.15898713158988" y="5.5790784557907696" transform="translate(0,564.37)" style="font-family: 'Open Sans', verdana, arial, sans-serif; font-size: 15.9402px; fill: rgb(77, 77, 77); fill-opacity: 1; white-space: pre;">10</text></g><g class="ytick"><text text-anchor="end" x="46.15898713158988" y="5.5790784557907696" transform="translate(0,391.67)" style="font-family: 'Open Sans', verdana, arial, sans-serif; font-size: 15.9402px; fill: rgb(77, 77, 77); fill-opacity: 1; white-space: pre;">20</text></g><g class="ytick"><text text-anchor="end" x="46.15898713158988" y="5.5790784557907696" transform="translate(0,218.97)" style="font-family: 'Open Sans', verdana, arial, sans-serif; font-size: 15.9402px; fill: rgb(77, 77, 77); fill-opacity: 1; white-space: pre;">30</text></g><g class="ytick"><text text-anchor="end" x="46.15898713158988" y="5.5790784557907696" transform="translate(0,46.269999999999996)" style="font-family: 'Open Sans', verdana, arial, sans-serif; font-size: 15.9402px; fill: rgb(77, 77, 77); fill-opacity: 1; white-space: pre;">40</text></g></g><g class="overaxes-above"/></g></g><g class="polarlayer"/><g class="ternarylayer"/><g class="geolayer"/><g class="funnelarealayer"/><g class="pielayer"/><g class="treemaplayer"/><g class="sunburstlayer"/><g class="glimages"/><defs id="topdefs-37bf6b"><g class="clips"/></defs><g class="layer-above"><g class="imagelayer"/><g class="shapelayer"><path data-index="0" fill-rule="evenodd" d="M54,746H1575V26H54Z" style="opacity: 1; stroke: rgb(51, 51, 51); stroke-opacity: 1; fill: rgb(0, 0, 0); fill-opacity: 0; stroke-width: 0.664176px;"/></g></g><g class="infolayer"><g class="g-gtitle"/><g class="g-xtitle" transform="translate(0,-15.790784557907955)"><text class="xtitle" x="814.5" y="811.790784557908" text-anchor="middle" style="font-family: 'Open Sans', verdana, arial, sans-serif; font-size: 18.6px; fill: rgb(0, 0, 0); opacity: 1; font-weight: normal; white-space: pre;"><tspan style="font-weight:bold">  </tspan></text></g><g class="g-ytitle" transform="translate(10.1943359375,0)"><text class="ytitle" transform="rotate(-90,6.806143628061399,386)" x="6.806143628061399" y="386" text-anchor="middle" style="font-family: 'Open Sans', verdana, arial, sans-serif; font-size: 18.6px; fill: rgb(0, 0, 0); opacity: 1; font-weight: normal; white-space: pre;"><tspan style="font-weight:bold"> Tempo de duplicação (dias) </tspan></text></g></g></svg>