<svg class="main-svg" xmlns="http://www.w3.org/2000/svg" xmlns:xlink="http://www.w3.org/1999/xlink" width="700" height="500" viewBox="0 0 700 500"><rect x="0" y="0" width="700" height="500" style="fill: rgb(255, 255, 255); fill-opacity: 1;"/><defs id="defs-412c2d"><g class="clips"><clipPath id="clip412c2dxyplot" class="plotclip"><rect width="642" height="425"/></clipPath><clipPath class="axesclip" id="clip412c2dx"><rect x="51" y="0" width="642" height="500"/></clipPath><clipPath class="axesclip" id="clip412c2dy"><rect x="0" y="26" width="700" height="425"/></clipPath><clipPath class="axesclip" id="clip412c2dxy"><rect x="51" y="26" width="642" height="425"/></clipPath></g><g class="gradients"/></defs><g class="bglayer"/><g class="layer-below"><g class="imagelayer"/><g class="shapelayer"/></g><g class="cartesianlayer"><g class="subplot xy"><g class="layer-subplot"><g class="shapelayer"/><g class="imagelayer"/></g><g class="gridlayer"><g class="x"><path class="xgrid crisp" transform="translate(163.56,0)" d="M0,26v425" style="stroke: rgb(235, 235, 235); stroke-opacity: 1; stroke-width: 0.664176px;"/><path class="xgrid crisp" transform="translate(280.28999999999996,0)" d="M0,26v425" style="stroke: rgb(235, 235, 235); stroke-opacity: 1; stroke-width: 0.664176px;"/><path class="xgrid crisp" transform="translate(397.01,0)" d="M0,26v425" style="stroke: rgb(235, 235, 235); stroke-opacity: 1; stroke-width: 0.664176px;"/><path class="xgrid crisp" transform="translate(513.74,0)" d="M0,26v425" style="stroke: rgb(235, 235, 235); stroke-opacity: 1; stroke-width: 0.664176px;"/><path class="xgrid crisp" transform="translate(630.47,0)" d="M0,26v425" style="stroke: rgb(235, 235, 235); stroke-opacity: 1; stroke-width: 0.664176px;"/></g><g class="y"><path class="ygrid crisp" transform="translate(0,378.3)" d="M51,0h642" style="stroke: rgb(235, 235, 235); stroke-opacity: 1; stroke-width: 0.664176px;"/><path class="ygrid crisp" transform="translate(0,265.01)" d="M51,0h642" style="stroke: rgb(235, 235, 235); stroke-opacity: 1; stroke-width: 0.664176px;"/><path class="ygrid crisp" transform="translate(0,151.70999999999998)" d="M51,0h642" style="stroke: rgb(235, 235, 235); stroke-opacity: 1; stroke-width: 0.664176px;"/><path class="ygrid crisp" transform="translate(0,38.41)" d="M51,0h642" style="stroke: rgb(235, 235, 235); stroke-opacity: 1; stroke-width: 0.664176px;"/></g></g><g class="zerolinelayer"/><path class="xlines-below"/><path class="ylines-below"/><g class="overlines-below"/><g class="xaxislayer-below"/><g class="yaxislayer-below"/><g class="overaxes-below"/><g class="plot" transform="translate(51, 26)" clip-path="url('#clip412c2dxyplot')"><g class="scatterlayer mlayer"><g class="trace scatter trace9ac67d" style="stroke-miterlimit: 2; opacity: 1;"><g class="fills"><g><path class="js-fill" d="M29.18,394.01L45.86,403.83L62.53,405.68L79.21,395.74L95.88,398.11L129.23,383.86L145.91,385.67L162.58,388.27L179.26,397.65L195.94,392.81L212.61,386.31L229.29,374.71L245.96,356.48L279.31,306.15L295.99,302.24L312.66,302.51L329.34,289.71L346.01,247.36L362.69,265.54L379.36,296.67L396.04,314.62L412.71,314.32L429.39,292.07L446.06,262.01L462.74,226.46L479.42,216.27L496.09,240.23L512.77,262.07L529.44,260.52L546.12,218.77L562.79,155.48L579.47,93.27L596.14,74.83L612.82,140.14L612.82,140.14L612.82,104.02L596.14,19.32L579.47,41.19L546.12,194.73L529.44,243.19L512.77,243.93L496.09,216.37L479.42,184.82L462.74,195.84L446.06,238.8L429.39,274.2L412.71,299.67L396.04,298.76L379.36,274.93L362.69,231.71L346.01,203.08L329.34,259.89L312.66,275.15L295.99,272.34L279.31,275L262.64,307.15L245.96,339.28L229.29,361.23L212.61,374.35L195.94,380.73L179.26,385.06L162.58,368.2L129.23,349.6L112.56,357.3L95.88,365.44L79.21,349.04L62.53,364.93L45.86,347.12L29.18,269.93L29.18,394.01Z" style="fill: rgb(211, 211, 211); fill-opacity: 1; stroke-width: 0;"/></g></g><g class="errorbars"/><g class="lines"><path class="js-line" d="M29.18,394.01L45.86,403.83L62.53,405.68L79.21,395.74L95.88,398.11L129.23,383.86L145.91,385.67L162.58,388.27L179.26,397.65L195.94,392.81L212.61,386.31L229.29,374.71L245.96,356.48L279.31,306.15L295.99,302.24L312.66,302.51L329.34,289.71L346.01,247.36L362.69,265.54L379.36,296.67L396.04,314.62L412.71,314.32L429.39,292.07L446.06,262.01L462.74,226.46L479.42,216.27L496.09,240.23L512.77,262.07L529.44,260.52L546.12,218.77L562.79,155.48L579.47,93.27L596.14,74.83L612.82,140.14L612.82,140.14L612.82,104.02L596.14,19.32L579.47,41.19L546.12,194.73L529.44,243.19L512.77,243.93L496.09,216.37L479.42,184.82L462.74,195.84L446.06,238.8L429.39,274.2L412.71,299.67L396.04,298.76L379.36,274.93L362.69,231.71L346.01,203.08L329.34,259.89L312.66,275.15L295.99,272.34L279.31,275L262.64,307.15L245.96,339.28L229.29,361.23L212.61,374.35L195.94,380.73L179.26,385.06L162.58,368.2L129.23,349.6L112.56,357.3L95.88,365.44L79.21,349.04L62.53,364.93L45.86,347.12L29.18,269.93L29.18,394.01" style="vector-effect: non-scaling-stroke; fill: none; stroke: rgb(0, 0, 0); stroke-opacity: 0; stroke-width: 1.88976px; opacity: 1;"/></g><g class="points"/><g class="text"/></g><g class="trace scatter trace5705ae" style="stroke-miterlimit: 2; opacity: 1;"><g class="fills"/><g class="errorbars"/><g class="lines"><path class="js-line" d="M29.18,360.19L45.86,384.06L62.53,390.24L79.21,378.04L95.88,384.83L129.23,369.61L145.91,374.2L162.58,379.34L179.26,391.86L195.94,387.21L212.61,380.73L229.29,368.42L245.96,348.5L279.31,291.95L295.99,288.53L312.66,289.88L329.34,275.96L346.01,227.25L362.69,249.93L379.36,286.45L396.04,307.08L412.71,307.33L429.39,283.57L446.06,251.03L462.74,212.07L479.42,201.47L496.09,228.9L512.77,253.39L529.44,252.2L546.12,207.31L562.79,138.08L579.47,68.93L596.14,48.91L612.82,123.03" style="vector-effect: non-scaling-stroke; fill: none; stroke: rgb(0, 0, 139); stroke-opacity: 1; stroke-width: 4.72441px; opacity: 1;"/></g><g class="points"/><g class="text"/></g></g></g><g class="overplot"/><path class="xlines-above crisp" d="" style="fill: none; stroke-width: 1px; stroke: rgb(0, 0, 0); stroke-opacity: 0;"/><path class="ylines-above crisp" d="" style="fill: none; stroke-width: 1px; stroke: rgb(0, 0, 0); stroke-opacity: 0;"/><g class="overlines-above"/><g class="xaxislayer-above"><path class="xtick ticks crisp" d="M0,452v3.65296803652968" transform="translate(163.56,0)" style="stroke: rgb(51, 51, 51); stroke-opacity: 1; stroke-width: 0.664176px;"/><path class="xtick ticks crisp" d="M0,452v3.65296803652968" transform="translate(280.28999999999996,0)" style="stroke: rgb(51, 51, 51); stroke-opacity: 1; stroke-width: 0.664176px;"/><path class="xtick ticks crisp" d="M0,452v3.65296803652968" transform="translate(397.01,0)" style="stroke: rgb(51, 51, 51); stroke-opacity: 1; stroke-width: 0.664176px;"/><path class="xtick ticks crisp" d="M0,452v3.65296803652968" transform="translate(513.74,0)" style="stroke: rgb(51, 51, 51); stroke-opacity: 1; stroke-width: 0.664176px;"/><path class="xtick ticks crisp" d="M0,452v3.65296803652968" transform="translate(630.47,0)" style="stroke: rgb(51, 51, 51); stroke-opacity: 1; stroke-width: 0.664176px;"/><g class="xtick"><text text-anchor="middle" x="0" y="474.7812370278123" transform="translate(163.56,0)" style="font-family: 'Open Sans', verdana, arial, sans-serif; font-size: 15.9402px; fill: rgb(77, 77, 77); fill-opacity: 1; white-space: pre;">16/mar</text></g><g class="xtick"><text text-anchor="middle" x="0" y="474.7812370278123" transform="translate(280.28999999999996,0)" style="font-family: 'Open Sans', verdana, arial, sans-serif; font-size: 15.9402px; fill: rgb(77, 77, 77); fill-opacity: 1; white-space: pre;">23/mar</text></g><g class="xtick"><text text-anchor="middle" x="0" y="474.7812370278123" transform="translate(397.01,0)" style="font-family: 'Open Sans', verdana, arial, sans-serif; font-size: 15.9402px; fill: rgb(77, 77, 77); fill-opacity: 1; white-space: pre;">30/mar</text></g><g class="xtick"><text text-anchor="middle" x="0" y="474.7812370278123" transform="translate(513.74,0)" style="font-family: 'Open Sans', verdana, arial, sans-serif; font-size: 15.9402px; fill: rgb(77, 77, 77); fill-opacity: 1; white-space: pre;">06/abr</text></g><g class="xtick"><text text-anchor="middle" x="0" y="474.7812370278123" transform="translate(630.47,0)" style="font-family: 'Open Sans', verdana, arial, sans-serif; font-size: 15.9402px; fill: rgb(77, 77, 77); fill-opacity: 1; white-space: pre;">13/abr</text></g></g><g class="yaxislayer-above"><path class="ytick ticks crisp" d="M50,0h-3.65296803652968" transform="translate(0,378.3)" style="stroke: rgb(51, 51, 51); stroke-opacity: 1; stroke-width: 0.664176px;"/><path class="ytick ticks crisp" d="M50,0h-3.65296803652968" transform="translate(0,265.01)" style="stroke: rgb(51, 51, 51); stroke-opacity: 1; stroke-width: 0.664176px;"/><path class="ytick ticks crisp" d="M50,0h-3.65296803652968" transform="translate(0,151.70999999999998)" style="stroke: rgb(51, 51, 51); stroke-opacity: 1; stroke-width: 0.664176px;"/><path class="ytick ticks crisp" d="M50,0h-3.65296803652968" transform="translate(0,38.41)" style="stroke: rgb(51, 51, 51); stroke-opacity: 1; stroke-width: 0.664176px;"/><g class="ytick"><text text-anchor="end" x="43.15898713158988" y="5.5790784557907696" transform="translate(0,378.3)" style="font-family: 'Open Sans', verdana, arial, sans-serif; font-size: 15.9402px; fill: rgb(77, 77, 77); fill-opacity: 1; white-space: pre;">3</text></g><g class="ytick"><text text-anchor="end" x="43.15898713158988" y="5.5790784557907696" transform="translate(0,265.01)" style="font-family: 'Open Sans', verdana, arial, sans-serif; font-size: 15.9402px; fill: rgb(77, 77, 77); fill-opacity: 1; white-space: pre;">6</text></g><g class="ytick"><text text-anchor="end" x="43.15898713158988" y="5.5790784557907696" transform="translate(0,151.70999999999998)" style="font-family: 'Open Sans', verdana, arial, sans-serif; font-size: 15.9402px; fill: rgb(77, 77, 77); fill-opacity: 1; white-space: pre;">9</text></g><g class="ytick"><text text-anchor="end" x="43.15898713158988" y="5.5790784557907696" transform="translate(0,38.41)" style="font-family: 'Open Sans', verdana, arial, sans-serif; font-size: 15.9402px; fill: rgb(77, 77, 77); fill-opacity: 1; white-space: pre;">12</text></g></g><g class="overaxes-above"/></g></g><g class="polarlayer"/><g class="ternarylayer"/><g class="geolayer"/><g class="funnelarealayer"/><g class="pielayer"/><g class="treemaplayer"/><g class="sunburstlayer"/><g class="glimages"/><defs id="topdefs-412c2d"><g class="clips"/></defs><g class="layer-above"><g class="imagelayer"/><g class="shapelayer"><path data-index="0" fill-rule="evenodd" d="M51,451H693V26H51Z" style="opacity: 1; stroke: rgb(51, 51, 51); stroke-opacity: 1; fill: rgb(0, 0, 0); fill-opacity: 0; stroke-width: 0.664176px;"/></g></g><g class="infolayer"><g class="g-gtitle"/><g class="g-xtitle"/><g class="g-ytitle" transform="translate(13.1943359375,0)"><text class="ytitle" transform="rotate(-90,3.806143628061399,238.5)" x="3.806143628061399" y="238.5" text-anchor="middle" style="font-family: 'Open Sans', verdana, arial, sans-serif; font-size: 18.6px; fill: rgb(0, 0, 0); opacity: 1; font-weight: normal; white-space: pre;"><tspan style="font-weight:bold"> Tempo de duplicação (dias) </tspan></text></g></g></svg>