<svg class="main-svg" xmlns="http://www.w3.org/2000/svg" xmlns:xlink="http://www.w3.org/1999/xlink" width="700" height="500" viewBox="0 0 700 500"><rect x="0" y="0" width="700" height="500" style="fill: rgb(255, 255, 255); fill-opacity: 1;"/><defs id="defs-93b544"><g class="clips"><clipPath id="clip93b544xyplot" class="plotclip"><rect width="639" height="424"/></clipPath><clipPath class="axesclip" id="clip93b544x"><rect x="54" y="0" width="639" height="500"/></clipPath><clipPath class="axesclip" id="clip93b544y"><rect x="0" y="26" width="700" height="424"/></clipPath><clipPath class="axesclip" id="clip93b544xy"><rect x="54" y="26" width="639" height="424"/></clipPath></g><g class="gradients"/></defs><g class="bglayer"/><g class="layer-below"><g class="imagelayer"/><g class="shapelayer"/></g><g class="cartesianlayer"><g class="subplot xy"><g class="layer-subplot"><g class="shapelayer"/><g class="imagelayer"/></g><g class="gridlayer"><g class="x"><path class="xgrid crisp" transform="translate(166.03,0)" d="M0,26v424" style="stroke: rgb(235, 235, 235); stroke-opacity: 1; stroke-width: 0.664176px;"/><path class="xgrid crisp" transform="translate(282.21000000000004,0)" d="M0,26v424" style="stroke: rgb(235, 235, 235); stroke-opacity: 1; stroke-width: 0.664176px;"/><path class="xgrid crisp" transform="translate(398.4,0)" d="M0,26v424" style="stroke: rgb(235, 235, 235); stroke-opacity: 1; stroke-width: 0.664176px;"/><path class="xgrid crisp" transform="translate(514.5799999999999,0)" d="M0,26v424" style="stroke: rgb(235, 235, 235); stroke-opacity: 1; stroke-width: 0.664176px;"/><path class="xgrid crisp" transform="translate(630.76,0)" d="M0,26v424" style="stroke: rgb(235, 235, 235); stroke-opacity: 1; stroke-width: 0.664176px;"/></g><g class="y"><path class="ygrid crisp" transform="translate(0,377.47)" d="M54,0h639" style="stroke: rgb(235, 235, 235); stroke-opacity: 1; stroke-width: 0.664176px;"/><path class="ygrid crisp" transform="translate(0,264.44)" d="M54,0h639" style="stroke: rgb(235, 235, 235); stroke-opacity: 1; stroke-width: 0.664176px;"/><path class="ygrid crisp" transform="translate(0,151.41)" d="M54,0h639" style="stroke: rgb(235, 235, 235); stroke-opacity: 1; stroke-width: 0.664176px;"/><path class="ygrid crisp" transform="translate(0,38.38)" d="M54,0h639" style="stroke: rgb(235, 235, 235); stroke-opacity: 1; stroke-width: 0.664176px;"/></g></g><g class="zerolinelayer"/><path class="xlines-below"/><path class="ylines-below"/><g class="overlines-below"/><g class="xaxislayer-below"/><g class="yaxislayer-below"/><g class="overaxes-below"/><g class="plot" transform="translate(54, 26)" clip-path="url('#clip93b544xyplot')"><g class="scatterlayer mlayer"><g class="trace scatter trace4945d4" style="stroke-miterlimit: 2; opacity: 1;"><g class="fills"><g><path class="js-fill" d="M29.05,393.08L45.64,402.88L62.24,404.73L78.84,394.81L95.44,397.18L128.63,382.96L145.23,384.76L161.82,387.35L178.42,396.71L195.02,391.88L211.62,385.4L228.21,373.83L244.81,355.65L278.01,305.43L294.6,301.53L311.2,301.8L327.8,289.03L344.4,246.77L360.99,264.91L377.59,295.98L394.19,313.88L410.79,313.58L427.38,291.38L443.98,261.4L460.58,225.93L477.18,215.77L493.77,239.67L510.37,261.46L526.97,259.91L543.56,218.26L560.16,155.11L576.76,93.05L593.36,74.65L609.95,139.81L609.95,103.78L593.36,19.27L576.76,41.1L543.56,194.27L526.97,242.62L510.37,243.36L493.77,215.86L477.18,184.38L460.58,195.38L443.98,238.24L427.38,273.55L410.79,298.96L394.19,298.05L377.59,274.28L360.99,231.17L344.4,202.6L327.8,259.28L311.2,274.5L294.6,271.7L278.01,274.35L261.41,306.42L244.81,338.48L228.21,360.38L211.62,373.47L195.02,379.83L178.42,384.15L161.82,367.33L128.63,348.78L112.03,356.46L95.44,364.58L78.84,348.21L62.24,364.07L45.64,346.3L29.05,269.3L29.05,393.08Z" style="fill: rgb(211, 211, 211); fill-opacity: 1; stroke-width: 0;"/></g></g><g class="errorbars"/><g class="lines"><path class="js-line" d="M29.05,393.08L45.64,402.88L62.24,404.73L78.84,394.81L95.44,397.18L128.63,382.96L145.23,384.76L161.82,387.35L178.42,396.71L195.02,391.88L211.62,385.4L228.21,373.83L244.81,355.65L278.01,305.43L294.6,301.53L311.2,301.8L327.8,289.03L344.4,246.77L360.99,264.91L377.59,295.98L394.19,313.88L410.79,313.58L427.38,291.38L443.98,261.4L460.58,225.93L477.18,215.77L493.77,239.67L510.37,261.46L526.97,259.91L543.56,218.26L560.16,155.11L576.76,93.05L593.36,74.65L609.95,139.81L609.95,103.78L593.36,19.27L576.76,41.1L543.56,194.27L526.97,242.62L510.37,243.36L493.77,215.86L477.18,184.38L460.58,195.38L443.98,238.24L427.38,273.55L410.79,298.96L394.19,298.05L377.59,274.28L360.99,231.17L344.4,202.6L327.8,259.28L311.2,274.5L294.6,271.7L278.01,274.35L261.41,306.42L244.81,338.48L228.21,360.38L211.62,373.47L195.02,379.83L178.42,384.15L161.82,367.33L128.63,348.78L112.03,356.46L95.44,364.58L78.84,348.21L62.24,364.07L45.64,346.3L29.05,269.3L29.05,393.08" style="vector-effect: non-scaling-stroke; fill: none; stroke: rgb(0, 0, 0); stroke-opacity: 0; stroke-width: 1.88976px; opacity: 1;"/></g><g class="points"/><g class="text"/></g><g class="trace scatter trace82ae2e" style="stroke-miterlimit: 2; opacity: 1;"><g class="fills"/><g class="errorbars"/><g class="lines"><path class="js-line" d="M29.05,359.34L45.64,383.15L62.24,389.32L78.84,377.15L95.44,383.93L128.63,368.74L145.23,373.32L161.82,378.45L178.42,390.94L195.02,386.3L211.62,379.84L228.21,367.55L244.81,347.68L278.01,291.26L294.6,287.86L311.2,289.2L327.8,275.31L344.4,226.71L360.99,249.35L377.59,285.78L394.19,306.36L410.79,306.6L427.38,282.9L443.98,250.44L460.58,211.57L477.18,201L493.77,228.36L510.37,252.79L526.97,251.61L543.56,206.82L560.16,137.75L576.76,68.77L593.36,48.8L609.95,122.74" style="vector-effect: non-scaling-stroke; fill: none; stroke: rgb(0, 0, 139); stroke-opacity: 1; stroke-width: 4.72441px; opacity: 1;"/></g><g class="points"/><g class="text"/></g></g></g><g class="overplot"/><path class="xlines-above crisp" d="" style="fill: none; stroke-width: 1px; stroke: rgb(0, 0, 0); stroke-opacity: 0;"/><path class="ylines-above crisp" d="" style="fill: none; stroke-width: 1px; stroke: rgb(0, 0, 0); stroke-opacity: 0;"/><g class="overlines-above"/><g class="xaxislayer-above"><path class="xtick ticks crisp" d="M0,451v3.65296803652968" transform="translate(166.03,0)" style="stroke: rgb(51, 51, 51); stroke-opacity: 1; stroke-width: 0.664176px;"/><path class="xtick ticks crisp" d="M0,451v3.65296803652968" transform="translate(282.21000000000004,0)" style="stroke: rgb(51, 51, 51); stroke-opacity: 1; stroke-width: 0.664176px;"/><path class="xtick ticks crisp" d="M0,451v3.65296803652968" transform="translate(398.4,0)" style="stroke: rgb(51, 51, 51); stroke-opacity: 1; stroke-width: 0.664176px;"/><path class="xtick ticks crisp" d="M0,451v3.65296803652968" transform="translate(514.5799999999999,0)" style="stroke: rgb(51, 51, 51); stroke-opacity: 1; stroke-width: 0.664176px;"/><path class="xtick ticks crisp" d="M0,451v3.65296803652968" transform="translate(630.76,0)" style="stroke: rgb(51, 51, 51); stroke-opacity: 1; stroke-width: 0.664176px;"/><g class="xtick"><text text-anchor="middle" x="0" y="473.7812370278123" transform="translate(166.03,0)" style="font-family: 'Open Sans', verdana, arial, sans-serif; font-size: 15.9402px; fill: rgb(77, 77, 77); fill-opacity: 1; white-space: pre;">16/Mar</text></g><g class="xtick"><text text-anchor="middle" x="0" y="473.7812370278123" transform="translate(282.21000000000004,0)" style="font-family: 'Open Sans', verdana, arial, sans-serif; font-size: 15.9402px; fill: rgb(77, 77, 77); fill-opacity: 1; white-space: pre;">23/Mar</text></g><g class="xtick"><text text-anchor="middle" x="0" y="473.7812370278123" transform="translate(398.4,0)" style="font-family: 'Open Sans', verdana, arial, sans-serif; font-size: 15.9402px; fill: rgb(77, 77, 77); fill-opacity: 1; white-space: pre;">30/Mar</text></g><g class="xtick"><text text-anchor="middle" x="0" y="473.7812370278123" transform="translate(514.5799999999999,0)" style="font-family: 'Open Sans', verdana, arial, sans-serif; font-size: 15.9402px; fill: rgb(77, 77, 77); fill-opacity: 1; white-space: pre;">06/Apr</text></g><g class="xtick"><text text-anchor="middle" x="0" y="473.7812370278123" transform="translate(630.76,0)" style="font-family: 'Open Sans', verdana, arial, sans-serif; font-size: 15.9402px; fill: rgb(77, 77, 77); fill-opacity: 1; white-space: pre;">13/Apr</text></g></g><g class="yaxislayer-above"><path class="ytick ticks crisp" d="M53,0h-3.65296803652968" transform="translate(0,377.47)" style="stroke: rgb(51, 51, 51); stroke-opacity: 1; stroke-width: 0.664176px;"/><path class="ytick ticks crisp" d="M53,0h-3.65296803652968" transform="translate(0,264.44)" style="stroke: rgb(51, 51, 51); stroke-opacity: 1; stroke-width: 0.664176px;"/><path class="ytick ticks crisp" d="M53,0h-3.65296803652968" transform="translate(0,151.41)" style="stroke: rgb(51, 51, 51); stroke-opacity: 1; stroke-width: 0.664176px;"/><path class="ytick ticks crisp" d="M53,0h-3.65296803652968" transform="translate(0,38.38)" style="stroke: rgb(51, 51, 51); stroke-opacity: 1; stroke-width: 0.664176px;"/><g class="ytick"><text text-anchor="end" x="46.15898713158988" y="5.5790784557907696" transform="translate(0,377.47)" style="font-family: 'Open Sans', verdana, arial, sans-serif; font-size: 15.9402px; fill: rgb(77, 77, 77); fill-opacity: 1; white-space: pre;">3</text></g><g class="ytick"><text text-anchor="end" x="46.15898713158988" y="5.5790784557907696" transform="translate(0,264.44)" style="font-family: 'Open Sans', verdana, arial, sans-serif; font-size: 15.9402px; fill: rgb(77, 77, 77); fill-opacity: 1; white-space: pre;">6</text></g><g class="ytick"><text text-anchor="end" x="46.15898713158988" y="5.5790784557907696" transform="translate(0,151.41)" style="font-family: 'Open Sans', verdana, arial, sans-serif; font-size: 15.9402px; fill: rgb(77, 77, 77); fill-opacity: 1; white-space: pre;">9</text></g><g class="ytick"><text text-anchor="end" x="46.15898713158988" y="5.5790784557907696" transform="translate(0,38.38)" style="font-family: 'Open Sans', verdana, arial, sans-serif; font-size: 15.9402px; fill: rgb(77, 77, 77); fill-opacity: 1; white-space: pre;">12</text></g></g><g class="overaxes-above"/></g></g><g class="polarlayer"/><g class="ternarylayer"/><g class="geolayer"/><g class="funnelarealayer"/><g class="pielayer"/><g class="treemaplayer"/><g class="sunburstlayer"/><g class="glimages"/><defs id="topdefs-93b544"><g class="clips"/></defs><g class="layer-above"><g class="imagelayer"/><g class="shapelayer"><path data-index="0" fill-rule="evenodd" d="M54,450H693V26H54Z" style="opacity: 1; stroke: rgb(51, 51, 51); stroke-opacity: 1; fill: rgb(0, 0, 0); fill-opacity: 0; stroke-width: 0.664176px;"/></g></g><g class="infolayer"><g class="g-gtitle"/><g class="g-xtitle"/><g class="g-ytitle" transform="translate(10.1943359375,0)"><text class="ytitle" transform="rotate(-90,6.806143628061399,238)" x="6.806143628061399" y="238" text-anchor="middle" style="font-family: 'Open Sans', verdana, arial, sans-serif; font-size: 18.6px; fill: rgb(0, 0, 0); opacity: 1; font-weight: normal; white-space: pre;"><tspan style="font-weight:bold"> Tempo de duplicação (dias) </tspan></text></g></g></svg>