<svg class="main-svg" xmlns="http://www.w3.org/2000/svg" xmlns:xlink="http://www.w3.org/1999/xlink" width="700" height="500" viewBox="0 0 700 500"><rect x="0" y="0" width="700" height="500" style="fill: rgb(255, 255, 255); fill-opacity: 1;"/><defs id="defs-9ea8dd"><g class="clips"><clipPath id="clip9ea8ddxyplot" class="plotclip"><rect width="461" height="420"/></clipPath><clipPath class="axesclip" id="clip9ea8ddx"><rect x="84" y="0" width="461" height="500"/></clipPath><clipPath class="axesclip" id="clip9ea8ddy"><rect x="0" y="26" width="700" height="420"/></clipPath><clipPath class="axesclip" id="clip9ea8ddxy"><rect x="84" y="26" width="461" height="420"/></clipPath></g><g class="gradients"/></defs><g class="bglayer"/><g class="layer-below"><g class="imagelayer"/><g class="shapelayer"/></g><g class="cartesianlayer"><g class="subplot xy"><g class="layer-subplot"><g class="shapelayer"/><g class="imagelayer"/></g><g class="gridlayer"><g class="x"><path class="xgrid crisp" transform="translate(101.21000000000001,0)" d="M0,26v420" style="stroke: rgb(235, 235, 235); stroke-opacity: 1; stroke-width: 0.664176px;"/><path class="xgrid crisp" transform="translate(217.21,0)" d="M0,26v420" style="stroke: rgb(235, 235, 235); stroke-opacity: 1; stroke-width: 0.664176px;"/><path class="xgrid crisp" transform="translate(325.73,0)" d="M0,26v420" style="stroke: rgb(235, 235, 235); stroke-opacity: 1; stroke-width: 0.664176px;"/><path class="xgrid crisp" transform="translate(441.72,0)" d="M0,26v420" style="stroke: rgb(235, 235, 235); stroke-opacity: 1; stroke-width: 0.664176px;"/></g><g class="y"><path class="ygrid crisp" transform="translate(0,426.91)" d="M84,0h461" style="stroke: rgb(235, 235, 235); stroke-opacity: 1; stroke-width: 0.664176px;"/><path class="ygrid crisp" transform="translate(0,327.27)" d="M84,0h461" style="stroke: rgb(235, 235, 235); stroke-opacity: 1; stroke-width: 0.664176px;"/><path class="ygrid crisp" transform="translate(0,227.63)" d="M84,0h461" style="stroke: rgb(235, 235, 235); stroke-opacity: 1; stroke-width: 0.664176px;"/><path class="ygrid crisp" transform="translate(0,127.99)" d="M84,0h461" style="stroke: rgb(235, 235, 235); stroke-opacity: 1; stroke-width: 0.664176px;"/><path class="ygrid crisp" transform="translate(0,28.35)" d="M84,0h461" style="stroke: rgb(235, 235, 235); stroke-opacity: 1; stroke-width: 0.664176px;"/></g></g><g class="zerolinelayer"/><path class="xlines-below"/><path class="ylines-below"/><g class="overlines-below"/><g class="xaxislayer-below"/><g class="yaxislayer-below"/><g class="overaxes-below"/><g class="plot" transform="translate(84, 26)" clip-path="url('#clip9ea8ddxyplot')"><g class="scatterlayer mlayer"><g class="trace scatter tracee65e6f" style="stroke-miterlimit: 2; opacity: 1;"><g class="fills"/><g class="errorbars"/><g class="lines"><path class="js-line" d="M20.95,400.91L133.21,370.91L185.6,353.37L204.31,323.37L211.79,316.7L223.02,310.93L230.5,301.27L234.24,293.38L237.98,289.92L241.73,273.49L245.47,267.15L249.21,256.71L252.95,250.94L256.69,243.5L260.44,228.29L267.92,206.19L271.66,193.02L279.14,169.32L282.89,158.49L297.85,117.8L301.6,111.16L312.82,92.19L316.56,86.94L327.79,72.02L331.53,68.26L339.01,61.89L342.76,59.35L361.47,49.74L365.21,48.39L398.88,37.89L402.63,36.97" style="vector-effect: non-scaling-stroke; fill: none; stroke: rgb(228, 26, 28); stroke-opacity: 1; stroke-width: 3.77953px; opacity: 1;"/></g><g class="points"/><g class="text"/></g><g class="trace scatter trace2b69da" style="stroke-miterlimit: 2; opacity: 1;"><g class="fills"><g><path class="js-fill" d="M402.63,41.5L440.05,34.84L440.05,34.84L440.05,19.09L402.63,31.66L402.63,41.5Z" style="fill: rgb(211, 211, 211); fill-opacity: 1; stroke-width: 0;"/></g></g><g class="errorbars"/><g class="lines"><path class="js-line" d="M402.63,41.5L440.05,34.84L440.05,34.84L440.05,19.09L402.63,31.66L402.63,41.5" style="vector-effect: non-scaling-stroke; fill: none; stroke: rgb(0, 0, 0); stroke-opacity: 0; stroke-width: 1.88976px; opacity: 1;"/></g><g class="points"/><g class="text"/></g><g class="trace scatter trace6cf41f" style="stroke-miterlimit: 2; opacity: 1;"><g class="fills"/><g class="errorbars"/><g class="lines"><path class="js-line" d="M402.63,36.97L440.05,27.42" style="vector-effect: non-scaling-stroke; fill: none; stroke: rgb(228, 26, 28); stroke-opacity: 1; stroke-width: 1.88976px; opacity: 1; stroke-dasharray: 15px, 15px;"/></g><g class="points"/><g class="text"/></g><g class="trace scatter tracec70cfc" style="stroke-miterlimit: 2; opacity: 1;"><g class="fills"/><g class="errorbars"/><g class="lines"><path class="js-line" d="M20.95,400.91L133.21,370.91L185.6,353.37L204.31,323.37L211.79,316.7L223.02,310.93L230.5,301.27L234.24,293.38L237.98,289.92L241.73,273.49L245.47,267.15L249.21,256.71L252.95,250.94L256.69,243.5L260.44,228.29L267.92,206.19L271.66,193.02L279.14,169.32L282.89,158.49L297.85,117.67L301.6,111.32L312.82,93L316.56,87.99L327.79,73.96L331.53,70.46L339.01,64.65L342.76,62.36L357.72,55.57L361.47,54.43L380.18,50.72L383.92,50.26L398.88,49.62L402.63,49.58" style="vector-effect: non-scaling-stroke; fill: none; stroke: rgb(55, 126, 184); stroke-opacity: 1; stroke-width: 3.77953px; opacity: 1;"/></g><g class="points"/><g class="text"/></g><g class="trace scatter trace3e98e1" style="stroke-miterlimit: 2; opacity: 1;"><g class="fills"><g><path class="js-fill" d="M402.63,49.58L421.34,48.08L425.08,47.95L440.05,47.79L440.05,47.79L440.05,45.15L421.34,45.87L417.59,46.33L406.37,48.54L402.63,49.58Z" style="fill: rgb(211, 211, 211); fill-opacity: 1; stroke-width: 0;"/></g></g><g class="errorbars"/><g class="lines"><path class="js-line" d="M402.63,49.58L421.34,48.08L425.08,47.95L440.05,47.79L440.05,47.79L440.05,45.15L421.34,45.87L417.59,46.33L406.37,48.54L402.63,49.58" style="vector-effect: non-scaling-stroke; fill: none; stroke: rgb(0, 0, 0); stroke-opacity: 0; stroke-width: 1.88976px; opacity: 1;"/></g><g class="points"/><g class="text"/></g><g class="trace scatter tracefe44ac" style="stroke-miterlimit: 2; opacity: 1;"><g class="fills"/><g class="errorbars"/><g class="lines"><path class="js-line" d="M402.63,49.58L417.59,47.44L421.34,47.14L440.05,46.66" style="vector-effect: non-scaling-stroke; fill: none; stroke: rgb(55, 126, 184); stroke-opacity: 1; stroke-width: 1.88976px; opacity: 1; stroke-dasharray: 15px, 15px;"/></g><g class="points"/><g class="text"/></g></g></g><g class="overplot"/><path class="xlines-above crisp" d="" style="fill: none; stroke-width: 1px; stroke: rgb(0, 0, 0); stroke-opacity: 0;"/><path class="ylines-above crisp" d="" style="fill: none; stroke-width: 1px; stroke: rgb(0, 0, 0); stroke-opacity: 0;"/><g class="overlines-above"/><g class="xaxislayer-above"><path class="xtick ticks crisp" d="M0,447v3.65296803652968" transform="translate(101.21000000000001,0)" style="stroke: rgb(51, 51, 51); stroke-opacity: 1; stroke-width: 0.664176px;"/><path class="xtick ticks crisp" d="M0,447v3.65296803652968" transform="translate(217.21,0)" style="stroke: rgb(51, 51, 51); stroke-opacity: 1; stroke-width: 0.664176px;"/><path class="xtick ticks crisp" d="M0,447v3.65296803652968" transform="translate(325.73,0)" style="stroke: rgb(51, 51, 51); stroke-opacity: 1; stroke-width: 0.664176px;"/><path class="xtick ticks crisp" d="M0,447v3.65296803652968" transform="translate(441.72,0)" style="stroke: rgb(51, 51, 51); stroke-opacity: 1; stroke-width: 0.664176px;"/><g class="xtick"><text text-anchor="middle" x="0" y="469.7812370278123" transform="translate(101.21000000000001,0)" style="font-family: 'Open Sans', verdana, arial, sans-serif; font-size: 15.9402px; fill: rgb(77, 77, 77); fill-opacity: 1; white-space: pre;">01/Jan</text></g><g class="xtick"><text text-anchor="middle" x="0" y="469.7812370278123" transform="translate(217.21,0)" style="font-family: 'Open Sans', verdana, arial, sans-serif; font-size: 15.9402px; fill: rgb(77, 77, 77); fill-opacity: 1; white-space: pre;">01/Feb</text></g><g class="xtick"><text text-anchor="middle" x="0" y="469.7812370278123" transform="translate(325.73,0)" style="font-family: 'Open Sans', verdana, arial, sans-serif; font-size: 15.9402px; fill: rgb(77, 77, 77); fill-opacity: 1; white-space: pre;">01/Mar</text></g><g class="xtick"><text text-anchor="middle" x="0" y="469.7812370278123" transform="translate(441.72,0)" style="font-family: 'Open Sans', verdana, arial, sans-serif; font-size: 15.9402px; fill: rgb(77, 77, 77); fill-opacity: 1; white-space: pre;">01/Apr</text></g></g><g class="yaxislayer-above"><path class="ytick ticks crisp" d="M83,0h-3.65296803652968" transform="translate(0,426.91)" style="stroke: rgb(51, 51, 51); stroke-opacity: 1; stroke-width: 0.664176px;"/><path class="ytick ticks crisp" d="M83,0h-3.65296803652968" transform="translate(0,327.27)" style="stroke: rgb(51, 51, 51); stroke-opacity: 1; stroke-width: 0.664176px;"/><path class="ytick ticks crisp" d="M83,0h-3.65296803652968" transform="translate(0,227.63)" style="stroke: rgb(51, 51, 51); stroke-opacity: 1; stroke-width: 0.664176px;"/><path class="ytick ticks crisp" d="M83,0h-3.65296803652968" transform="translate(0,127.99)" style="stroke: rgb(51, 51, 51); stroke-opacity: 1; stroke-width: 0.664176px;"/><path class="ytick ticks crisp" d="M83,0h-3.65296803652968" transform="translate(0,28.35)" style="stroke: rgb(51, 51, 51); stroke-opacity: 1; stroke-width: 0.664176px;"/><g class="ytick"><text text-anchor="end" x="76.15898713158988" y="5.5790784557907696" transform="translate(0,426.91)" style="font-family: 'Open Sans', verdana, arial, sans-serif; font-size: 15.9402px; fill: rgb(77, 77, 77); fill-opacity: 1; white-space: pre;">1</text></g><g class="ytick"><text text-anchor="end" x="76.15898713158988" y="5.5790784557907696" transform="translate(0,327.27)" style="font-family: 'Open Sans', verdana, arial, sans-serif; font-size: 15.9402px; fill: rgb(77, 77, 77); fill-opacity: 1; white-space: pre;">10</text></g><g class="ytick"><text text-anchor="end" x="76.15898713158988" y="5.5790784557907696" transform="translate(0,227.63)" style="font-family: 'Open Sans', verdana, arial, sans-serif; font-size: 15.9402px; fill: rgb(77, 77, 77); fill-opacity: 1; white-space: pre;">100</text></g><g class="ytick"><text text-anchor="end" x="76.15898713158988" y="5.5790784557907696" transform="translate(0,127.99)" style="font-family: 'Open Sans', verdana, arial, sans-serif; font-size: 15.9402px; fill: rgb(77, 77, 77); fill-opacity: 1; white-space: pre;">1000</text></g><g class="ytick"><text text-anchor="end" x="76.15898713158988" y="5.5790784557907696" transform="translate(0,28.35)" style="font-family: 'Open Sans', verdana, arial, sans-serif; font-size: 15.9402px; fill: rgb(77, 77, 77); fill-opacity: 1; white-space: pre;">10000</text></g></g><g class="overaxes-above"/></g></g><g class="polarlayer"/><g class="ternarylayer"/><g class="geolayer"/><g class="funnelarealayer"/><g class="pielayer"/><g class="treemaplayer"/><g class="sunburstlayer"/><g class="glimages"/><defs id="topdefs-9ea8dd"><g class="clips"/><clipPath id="legend9ea8dd"><rect width="134.2204724409449" height="68.22047244094487" x="1.88976377952756" y="1.88976377952756"/></clipPath></defs><g class="layer-above"><g class="imagelayer"/><g class="shapelayer"><path data-index="0" fill-rule="evenodd" d="M84,446H545V26H84Z" style="opacity: 1; stroke: rgb(51, 51, 51); stroke-opacity: 1; fill: rgb(0, 0, 0); fill-opacity: 0; stroke-width: 0.664176px;"/></g></g><g class="infolayer"><g class="legend" pointer-events="all" transform="translate(554.22, 53.28346456692918)"><rect class="bg" shape-rendering="crispEdges" style="stroke: rgb(0, 0, 0); stroke-opacity: 0; fill: rgb(255, 255, 255); fill-opacity: 1; stroke-width: 1.88976px;" width="136.11023622047244" height="70.11023622047244" x="0.94488188976378" y="0.94488188976378"/><g class="scrollbox" transform="translate(0, 0)" clip-path="url('#legend9ea8dd')"><g class="groups" transform="translate(0, 0)"><g class="traces" transform="translate(1.88976377952756, 18.75090948313899)" style="opacity: 1;"><text class="legendtext user-select-none" text-anchor="start" x="40" y="6.216687422166858" style="font-family: 'Open Sans', verdana, arial, sans-serif; font-size: 15.9402px; fill: rgb(0, 0, 0); fill-opacity: 1; white-space: pre;">Estimados</text><g class="layers" style="opacity: 1;"><g class="legendfill"/><g class="legendlines"><path class="js-line" d="M5,0h30" style="fill: none; stroke: rgb(228, 26, 28); stroke-opacity: 1; stroke-width: 3.77953px;"/></g><g class="legendsymbols"><g class="legendpoints"/></g></g><rect class="legendtoggle" pointer-events="all" x="0" y="-11.861145703611431" width="129.078125" height="23.722291407222862" style="cursor: pointer; fill: rgb(0, 0, 0); fill-opacity: 0;"/></g></g><g class="groups" transform="translate(0, 10)"><g class="traces" transform="translate(1.88976377952756, 42.47320089036185)" style="opacity: 1;"><text class="legendtext user-select-none" text-anchor="start" x="40" y="6.216687422166858" style="font-family: 'Open Sans', verdana, arial, sans-serif; font-size: 15.9402px; fill: rgb(0, 0, 0); fill-opacity: 1; white-space: pre;">Notificados</text><g class="layers" style="opacity: 1;"><g class="legendfill"/><g class="legendlines"><path class="js-line" d="M5,0h30" style="fill: none; stroke: rgb(55, 126, 184); stroke-opacity: 1; stroke-width: 3.77953px;"/></g><g class="legendsymbols"><g class="legendpoints"/></g></g><rect class="legendtoggle" pointer-events="all" x="0" y="-11.861145703611431" width="129.078125" height="23.722291407222862" style="cursor: pointer; fill: rgb(0, 0, 0); fill-opacity: 0;"/></g></g></g><rect class="scrollbar" rx="20" ry="3" width="0" height="0" style="fill: rgb(128, 139, 164); fill-opacity: 1;" x="0" y="0"/></g><g class="g-gtitle"/><g class="g-xtitle" transform="translate(0,-15.790784557907955)"><text class="xtitle" x="314.5" y="511.7907845579079" text-anchor="middle" style="font-family: 'Open Sans', verdana, arial, sans-serif; font-size: 18.6px; fill: rgb(0, 0, 0); opacity: 1; font-weight: normal; white-space: pre;"><tspan style="font-weight:bold"> Dia do primeiro sintoma </tspan></text></g><g class="g-ytitle" transform="translate(-7.2119140625,0)"><text class="ytitle" transform="rotate(-90,36.8061436280614,236)" x="36.8061436280614" y="236" text-anchor="middle" style="font-family: 'Open Sans', verdana, arial, sans-serif; font-size: 18.6px; fill: rgb(0, 0, 0); opacity: 1; font-weight: normal; white-space: pre;"><tspan style="font-weight:bold"> Número acumulado de casos </tspan></text></g></g></svg>