<svg class="main-svg" xmlns="http://www.w3.org/2000/svg" xmlns:xlink="http://www.w3.org/1999/xlink" width="700" height="500" viewBox="0 0 700 500"><rect x="0" y="0" width="700" height="500" style="fill: rgb(255, 255, 255); fill-opacity: 1;"/><defs id="defs-bb526b"><g class="clips"><clipPath id="clipbb526bxyplot" class="plotclip"><rect width="619" height="407"/></clipPath><clipPath class="axesclip" id="clipbb526bx"><rect x="74" y="0" width="619" height="500"/></clipPath><clipPath class="axesclip" id="clipbb526by"><rect x="0" y="43" width="700" height="407"/></clipPath><clipPath class="axesclip" id="clipbb526bxy"><rect x="74" y="43" width="619" height="407"/></clipPath></g><g class="gradients"/></defs><g class="bglayer"/><g class="layer-below"><g class="imagelayer"/><g class="shapelayer"/></g><g class="cartesianlayer"><g class="subplot xy"><g class="layer-subplot"><g class="shapelayer"/><g class="imagelayer"/></g><g class="gridlayer"><g class="x"><path class="xgrid crisp" transform="translate(153.29000000000002,0)" d="M0,43v407" style="stroke: rgb(235, 235, 235); stroke-opacity: 1; stroke-width: 0.664176px;"/><path class="xgrid crisp" transform="translate(296.53,0)" d="M0,43v407" style="stroke: rgb(235, 235, 235); stroke-opacity: 1; stroke-width: 0.664176px;"/><path class="xgrid crisp" transform="translate(470.47,0)" d="M0,43v407" style="stroke: rgb(235, 235, 235); stroke-opacity: 1; stroke-width: 0.664176px;"/><path class="xgrid crisp" transform="translate(613.71,0)" d="M0,43v407" style="stroke: rgb(235, 235, 235); stroke-opacity: 1; stroke-width: 0.664176px;"/></g><g class="y"><path class="ygrid crisp" transform="translate(0,431.5)" d="M74,0h619" style="stroke: rgb(235, 235, 235); stroke-opacity: 1; stroke-width: 0.664176px;"/><path class="ygrid crisp" transform="translate(0,334.23)" d="M74,0h619" style="stroke: rgb(235, 235, 235); stroke-opacity: 1; stroke-width: 0.664176px;"/><path class="ygrid crisp" transform="translate(0,236.96)" d="M74,0h619" style="stroke: rgb(235, 235, 235); stroke-opacity: 1; stroke-width: 0.664176px;"/><path class="ygrid crisp" transform="translate(0,139.68)" d="M74,0h619" style="stroke: rgb(235, 235, 235); stroke-opacity: 1; stroke-width: 0.664176px;"/></g></g><g class="zerolinelayer"/><path class="xlines-below"/><path class="ylines-below"/><g class="overlines-below"/><g class="xaxislayer-below"/><g class="yaxislayer-below"/><g class="overaxes-below"/><g class="plot" transform="translate(74, 43)" clip-path="url('#clipbb526bxyplot')"><g class="scatterlayer mlayer"><g class="trace scatter trace60a147" style="stroke-miterlimit: 2; opacity: 1;"><g class="fills"><g><path class="js-fill" d="M549.94,38.45L590.86,25.15ZM590.86,18.5L549.94,35.44Z" style="fill: rgb(211, 211, 211); fill-opacity: 1; stroke-width: 0;"/></g></g><g class="errorbars"/><g class="lines"><path class="js-line" d="M549.94,38.45L590.86,25.15" style="vector-effect: non-scaling-stroke; fill: none; stroke: rgb(0, 0, 0); stroke-opacity: 0; stroke-width: 1.88976px; opacity: 1;"/><path class="js-line" d="M590.86,18.5L549.94,35.44" style="vector-effect: non-scaling-stroke; fill: none; stroke: rgb(0, 0, 0); stroke-opacity: 0; stroke-width: 1.88976px; opacity: 1;"/></g><g class="points"/><g class="text"/></g><g class="trace scatter trace908882" style="stroke-miterlimit: 2; opacity: 1;"><g class="fills"/><g class="errorbars"/><g class="lines"><path class="js-line" d="M120.22,388.5L130.45,388.5L140.68,359.22L150.91,342.09L161.14,342.09L171.38,300.65L181.61,280.14L191.84,271.37L202.07,271.37L212.3,257.92L222.53,254.24L232.76,243.43L243,240.79L253.23,227.69L263.46,212.15L273.69,190.31L283.92,186.61L294.15,167.74L304.38,158.22L314.62,146.85L324.85,138.69L335.08,133.23L345.31,126.56L355.54,121.33L365.77,118.26L386.24,111.27L396.47,104.45L406.7,97.02L416.93,93.67L427.16,87.39L437.39,82.65L447.62,80.67L457.86,74.57L478.32,63.07L488.55,58.59L498.78,56.2L509.01,52.37L519.24,47.14L529.48,44.86L590.86,21.82" style="vector-effect: non-scaling-stroke; fill: none; stroke: rgb(0, 0, 0); stroke-opacity: 1; stroke-width: 1.88976px; opacity: 1;"/></g><g class="points"/><g class="text"/></g><g class="trace scatter tracef428af" style="stroke-miterlimit: 2; opacity: 1;"><g class="fills"/><g class="errorbars"/><g class="lines"/><g class="points"><path class="point" transform="translate(120.22,388.5)" d="M3.78,0A3.78,3.78 0 1,1 0,-3.78A3.78,3.78 0 0,1 3.78,0Z" style="opacity: 1; stroke-width: 1.88976px; fill: rgb(0, 0, 0); fill-opacity: 1; stroke: rgb(0, 0, 0); stroke-opacity: 1;"/><path class="point" transform="translate(130.45,388.5)" d="M3.78,0A3.78,3.78 0 1,1 0,-3.78A3.78,3.78 0 0,1 3.78,0Z" style="opacity: 1; stroke-width: 1.88976px; fill: rgb(0, 0, 0); fill-opacity: 1; stroke: rgb(0, 0, 0); stroke-opacity: 1;"/><path class="point" transform="translate(140.68,359.22)" d="M3.78,0A3.78,3.78 0 1,1 0,-3.78A3.78,3.78 0 0,1 3.78,0Z" style="opacity: 1; stroke-width: 1.88976px; fill: rgb(0, 0, 0); fill-opacity: 1; stroke: rgb(0, 0, 0); stroke-opacity: 1;"/><path class="point" transform="translate(150.91,342.09)" d="M3.78,0A3.78,3.78 0 1,1 0,-3.78A3.78,3.78 0 0,1 3.78,0Z" style="opacity: 1; stroke-width: 1.88976px; fill: rgb(0, 0, 0); fill-opacity: 1; stroke: rgb(0, 0, 0); stroke-opacity: 1;"/><path class="point" transform="translate(161.14,342.09)" d="M3.78,0A3.78,3.78 0 1,1 0,-3.78A3.78,3.78 0 0,1 3.78,0Z" style="opacity: 1; stroke-width: 1.88976px; fill: rgb(0, 0, 0); fill-opacity: 1; stroke: rgb(0, 0, 0); stroke-opacity: 1;"/><path class="point" transform="translate(171.38,300.65)" d="M3.78,0A3.78,3.78 0 1,1 0,-3.78A3.78,3.78 0 0,1 3.78,0Z" style="opacity: 1; stroke-width: 1.88976px; fill: rgb(0, 0, 0); fill-opacity: 1; stroke: rgb(0, 0, 0); stroke-opacity: 1;"/><path class="point" transform="translate(181.61,280.14)" d="M3.78,0A3.78,3.78 0 1,1 0,-3.78A3.78,3.78 0 0,1 3.78,0Z" style="opacity: 1; stroke-width: 1.88976px; fill: rgb(0, 0, 0); fill-opacity: 1; stroke: rgb(0, 0, 0); stroke-opacity: 1;"/><path class="point" transform="translate(191.84,271.37)" d="M3.78,0A3.78,3.78 0 1,1 0,-3.78A3.78,3.78 0 0,1 3.78,0Z" style="opacity: 1; stroke-width: 1.88976px; fill: rgb(0, 0, 0); fill-opacity: 1; stroke: rgb(0, 0, 0); stroke-opacity: 1;"/><path class="point" transform="translate(202.07,271.37)" d="M3.78,0A3.78,3.78 0 1,1 0,-3.78A3.78,3.78 0 0,1 3.78,0Z" style="opacity: 1; stroke-width: 1.88976px; fill: rgb(0, 0, 0); fill-opacity: 1; stroke: rgb(0, 0, 0); stroke-opacity: 1;"/><path class="point" transform="translate(212.3,257.92)" d="M3.78,0A3.78,3.78 0 1,1 0,-3.78A3.78,3.78 0 0,1 3.78,0Z" style="opacity: 1; stroke-width: 1.88976px; fill: rgb(0, 0, 0); fill-opacity: 1; stroke: rgb(0, 0, 0); stroke-opacity: 1;"/><path class="point" transform="translate(222.53,254.24)" d="M3.78,0A3.78,3.78 0 1,1 0,-3.78A3.78,3.78 0 0,1 3.78,0Z" style="opacity: 1; stroke-width: 1.88976px; fill: rgb(0, 0, 0); fill-opacity: 1; stroke: rgb(0, 0, 0); stroke-opacity: 1;"/><path class="point" transform="translate(232.76,243.43)" d="M3.78,0A3.78,3.78 0 1,1 0,-3.78A3.78,3.78 0 0,1 3.78,0Z" style="opacity: 1; stroke-width: 1.88976px; fill: rgb(0, 0, 0); fill-opacity: 1; stroke: rgb(0, 0, 0); stroke-opacity: 1;"/><path class="point" transform="translate(243,240.79)" d="M3.78,0A3.78,3.78 0 1,1 0,-3.78A3.78,3.78 0 0,1 3.78,0Z" style="opacity: 1; stroke-width: 1.88976px; fill: rgb(0, 0, 0); fill-opacity: 1; stroke: rgb(0, 0, 0); stroke-opacity: 1;"/><path class="point" transform="translate(253.23,227.69)" d="M3.78,0A3.78,3.78 0 1,1 0,-3.78A3.78,3.78 0 0,1 3.78,0Z" style="opacity: 1; stroke-width: 1.88976px; fill: rgb(0, 0, 0); fill-opacity: 1; stroke: rgb(0, 0, 0); stroke-opacity: 1;"/><path class="point" transform="translate(263.46,212.15)" d="M3.78,0A3.78,3.78 0 1,1 0,-3.78A3.78,3.78 0 0,1 3.78,0Z" style="opacity: 1; stroke-width: 1.88976px; fill: rgb(0, 0, 0); fill-opacity: 1; stroke: rgb(0, 0, 0); stroke-opacity: 1;"/><path class="point" transform="translate(273.69,190.31)" d="M3.78,0A3.78,3.78 0 1,1 0,-3.78A3.78,3.78 0 0,1 3.78,0Z" style="opacity: 1; stroke-width: 1.88976px; fill: rgb(0, 0, 0); fill-opacity: 1; stroke: rgb(0, 0, 0); stroke-opacity: 1;"/><path class="point" transform="translate(283.92,186.61)" d="M3.78,0A3.78,3.78 0 1,1 0,-3.78A3.78,3.78 0 0,1 3.78,0Z" style="opacity: 1; stroke-width: 1.88976px; fill: rgb(0, 0, 0); fill-opacity: 1; stroke: rgb(0, 0, 0); stroke-opacity: 1;"/><path class="point" transform="translate(294.15,167.74)" d="M3.78,0A3.78,3.78 0 1,1 0,-3.78A3.78,3.78 0 0,1 3.78,0Z" style="opacity: 1; stroke-width: 1.88976px; fill: rgb(0, 0, 0); fill-opacity: 1; stroke: rgb(0, 0, 0); stroke-opacity: 1;"/><path class="point" transform="translate(304.38,158.22)" d="M3.78,0A3.78,3.78 0 1,1 0,-3.78A3.78,3.78 0 0,1 3.78,0Z" style="opacity: 1; stroke-width: 1.88976px; fill: rgb(0, 0, 0); fill-opacity: 1; stroke: rgb(0, 0, 0); stroke-opacity: 1;"/><path class="point" transform="translate(314.62,146.85)" d="M3.78,0A3.78,3.78 0 1,1 0,-3.78A3.78,3.78 0 0,1 3.78,0Z" style="opacity: 1; stroke-width: 1.88976px; fill: rgb(0, 0, 0); fill-opacity: 1; stroke: rgb(0, 0, 0); stroke-opacity: 1;"/><path class="point" transform="translate(324.85,138.69)" d="M3.78,0A3.78,3.78 0 1,1 0,-3.78A3.78,3.78 0 0,1 3.78,0Z" style="opacity: 1; stroke-width: 1.88976px; fill: rgb(0, 0, 0); fill-opacity: 1; stroke: rgb(0, 0, 0); stroke-opacity: 1;"/><path class="point" transform="translate(335.08,133.23)" d="M3.78,0A3.78,3.78 0 1,1 0,-3.78A3.78,3.78 0 0,1 3.78,0Z" style="opacity: 1; stroke-width: 1.88976px; fill: rgb(0, 0, 0); fill-opacity: 1; stroke: rgb(0, 0, 0); stroke-opacity: 1;"/><path class="point" transform="translate(345.31,126.56)" d="M3.78,0A3.78,3.78 0 1,1 0,-3.78A3.78,3.78 0 0,1 3.78,0Z" style="opacity: 1; stroke-width: 1.88976px; fill: rgb(0, 0, 0); fill-opacity: 1; stroke: rgb(0, 0, 0); stroke-opacity: 1;"/><path class="point" transform="translate(355.54,121.33)" d="M3.78,0A3.78,3.78 0 1,1 0,-3.78A3.78,3.78 0 0,1 3.78,0Z" style="opacity: 1; stroke-width: 1.88976px; fill: rgb(0, 0, 0); fill-opacity: 1; stroke: rgb(0, 0, 0); stroke-opacity: 1;"/><path class="point" transform="translate(365.77,118.26)" d="M3.78,0A3.78,3.78 0 1,1 0,-3.78A3.78,3.78 0 0,1 3.78,0Z" style="opacity: 1; stroke-width: 1.88976px; fill: rgb(0, 0, 0); fill-opacity: 1; stroke: rgb(0, 0, 0); stroke-opacity: 1;"/><path class="point" transform="translate(376,114.43)" d="M3.78,0A3.78,3.78 0 1,1 0,-3.78A3.78,3.78 0 0,1 3.78,0Z" style="opacity: 1; stroke-width: 1.88976px; fill: rgb(0, 0, 0); fill-opacity: 1; stroke: rgb(0, 0, 0); stroke-opacity: 1;"/><path class="point" transform="translate(386.24,111.27)" d="M3.78,0A3.78,3.78 0 1,1 0,-3.78A3.78,3.78 0 0,1 3.78,0Z" style="opacity: 1; stroke-width: 1.88976px; fill: rgb(0, 0, 0); fill-opacity: 1; stroke: rgb(0, 0, 0); stroke-opacity: 1;"/><path class="point" transform="translate(396.47,104.45)" d="M3.78,0A3.78,3.78 0 1,1 0,-3.78A3.78,3.78 0 0,1 3.78,0Z" style="opacity: 1; stroke-width: 1.88976px; fill: rgb(0, 0, 0); fill-opacity: 1; stroke: rgb(0, 0, 0); stroke-opacity: 1;"/><path class="point" transform="translate(406.7,97.02)" d="M3.78,0A3.78,3.78 0 1,1 0,-3.78A3.78,3.78 0 0,1 3.78,0Z" style="opacity: 1; stroke-width: 1.88976px; fill: rgb(0, 0, 0); fill-opacity: 1; stroke: rgb(0, 0, 0); stroke-opacity: 1;"/><path class="point" transform="translate(416.93,93.67)" d="M3.78,0A3.78,3.78 0 1,1 0,-3.78A3.78,3.78 0 0,1 3.78,0Z" style="opacity: 1; stroke-width: 1.88976px; fill: rgb(0, 0, 0); fill-opacity: 1; stroke: rgb(0, 0, 0); stroke-opacity: 1;"/><path class="point" transform="translate(427.16,87.39)" d="M3.78,0A3.78,3.78 0 1,1 0,-3.78A3.78,3.78 0 0,1 3.78,0Z" style="opacity: 1; stroke-width: 1.88976px; fill: rgb(0, 0, 0); fill-opacity: 1; stroke: rgb(0, 0, 0); stroke-opacity: 1;"/><path class="point" transform="translate(437.39,82.65)" d="M3.78,0A3.78,3.78 0 1,1 0,-3.78A3.78,3.78 0 0,1 3.78,0Z" style="opacity: 1; stroke-width: 1.88976px; fill: rgb(0, 0, 0); fill-opacity: 1; stroke: rgb(0, 0, 0); stroke-opacity: 1;"/><path class="point" transform="translate(447.62,80.67)" d="M3.78,0A3.78,3.78 0 1,1 0,-3.78A3.78,3.78 0 0,1 3.78,0Z" style="opacity: 1; stroke-width: 1.88976px; fill: rgb(0, 0, 0); fill-opacity: 1; stroke: rgb(0, 0, 0); stroke-opacity: 1;"/><path class="point" transform="translate(457.86,74.57)" d="M3.78,0A3.78,3.78 0 1,1 0,-3.78A3.78,3.78 0 0,1 3.78,0Z" style="opacity: 1; stroke-width: 1.88976px; fill: rgb(0, 0, 0); fill-opacity: 1; stroke: rgb(0, 0, 0); stroke-opacity: 1;"/><path class="point" transform="translate(468.09,68.73)" d="M3.78,0A3.78,3.78 0 1,1 0,-3.78A3.78,3.78 0 0,1 3.78,0Z" style="opacity: 1; stroke-width: 1.88976px; fill: rgb(0, 0, 0); fill-opacity: 1; stroke: rgb(0, 0, 0); stroke-opacity: 1;"/><path class="point" transform="translate(478.32,63.07)" d="M3.78,0A3.78,3.78 0 1,1 0,-3.78A3.78,3.78 0 0,1 3.78,0Z" style="opacity: 1; stroke-width: 1.88976px; fill: rgb(0, 0, 0); fill-opacity: 1; stroke: rgb(0, 0, 0); stroke-opacity: 1;"/><path class="point" transform="translate(488.55,58.59)" d="M3.78,0A3.78,3.78 0 1,1 0,-3.78A3.78,3.78 0 0,1 3.78,0Z" style="opacity: 1; stroke-width: 1.88976px; fill: rgb(0, 0, 0); fill-opacity: 1; stroke: rgb(0, 0, 0); stroke-opacity: 1;"/><path class="point" transform="translate(498.78,56.2)" d="M3.78,0A3.78,3.78 0 1,1 0,-3.78A3.78,3.78 0 0,1 3.78,0Z" style="opacity: 1; stroke-width: 1.88976px; fill: rgb(0, 0, 0); fill-opacity: 1; stroke: rgb(0, 0, 0); stroke-opacity: 1;"/><path class="point" transform="translate(509.01,52.37)" d="M3.78,0A3.78,3.78 0 1,1 0,-3.78A3.78,3.78 0 0,1 3.78,0Z" style="opacity: 1; stroke-width: 1.88976px; fill: rgb(0, 0, 0); fill-opacity: 1; stroke: rgb(0, 0, 0); stroke-opacity: 1;"/><path class="point" transform="translate(519.24,47.14)" d="M3.78,0A3.78,3.78 0 1,1 0,-3.78A3.78,3.78 0 0,1 3.78,0Z" style="opacity: 1; stroke-width: 1.88976px; fill: rgb(0, 0, 0); fill-opacity: 1; stroke: rgb(0, 0, 0); stroke-opacity: 1;"/><path class="point" transform="translate(529.48,44.86)" d="M3.78,0A3.78,3.78 0 1,1 0,-3.78A3.78,3.78 0 0,1 3.78,0Z" style="opacity: 1; stroke-width: 1.88976px; fill: rgb(0, 0, 0); fill-opacity: 1; stroke: rgb(0, 0, 0); stroke-opacity: 1;"/><path class="point" transform="translate(539.71,40.92)" d="M3.78,0A3.78,3.78 0 1,1 0,-3.78A3.78,3.78 0 0,1 3.78,0Z" style="opacity: 1; stroke-width: 1.88976px; fill: rgb(0, 0, 0); fill-opacity: 1; stroke: rgb(0, 0, 0); stroke-opacity: 1;"/><path class="point" transform="translate(549.94,36.95)" d="M3.78,0A3.78,3.78 0 1,1 0,-3.78A3.78,3.78 0 0,1 3.78,0Z" style="opacity: 1; stroke-width: 1.88976px; fill: rgb(0, 0, 0); fill-opacity: 1; stroke: rgb(0, 0, 0); stroke-opacity: 1;"/></g><g class="text"/></g><g class="trace scatter tracecaa3c0" style="stroke-miterlimit: 2; opacity: 1;"><g class="fills"/><g class="errorbars"/><g class="lines"/><g class="points"><path class="point" transform="translate(549.94,36.95)" d="M3.78,0A3.78,3.78 0 1,1 0,-3.78A3.78,3.78 0 0,1 3.78,0Z" style="opacity: 1; stroke-width: 1.88976px; fill: rgb(0, 123, 255); fill-opacity: 1; stroke: rgb(0, 123, 255); stroke-opacity: 1;"/><path class="point" transform="translate(560.17,33.17)" d="M3.78,0A3.78,3.78 0 1,1 0,-3.78A3.78,3.78 0 0,1 3.78,0Z" style="opacity: 1; stroke-width: 1.88976px; fill: rgb(0, 123, 255); fill-opacity: 1; stroke: rgb(0, 123, 255); stroke-opacity: 1;"/><path class="point" transform="translate(570.4,29.39)" d="M3.78,0A3.78,3.78 0 1,1 0,-3.78A3.78,3.78 0 0,1 3.78,0Z" style="opacity: 1; stroke-width: 1.88976px; fill: rgb(0, 123, 255); fill-opacity: 1; stroke: rgb(0, 123, 255); stroke-opacity: 1;"/><path class="point" transform="translate(580.63,25.6)" d="M3.78,0A3.78,3.78 0 1,1 0,-3.78A3.78,3.78 0 0,1 3.78,0Z" style="opacity: 1; stroke-width: 1.88976px; fill: rgb(0, 123, 255); fill-opacity: 1; stroke: rgb(0, 123, 255); stroke-opacity: 1;"/><path class="point" transform="translate(590.86,21.82)" d="M3.78,0A3.78,3.78 0 1,1 0,-3.78A3.78,3.78 0 0,1 3.78,0Z" style="opacity: 1; stroke-width: 1.88976px; fill: rgb(0, 123, 255); fill-opacity: 1; stroke: rgb(0, 123, 255); stroke-opacity: 1;"/></g><g class="text"/></g></g></g><g class="overplot"/><path class="xlines-above crisp" d="" style="fill: none; stroke-width: 1px; stroke: rgb(0, 0, 0); stroke-opacity: 0;"/><path class="ylines-above crisp" d="" style="fill: none; stroke-width: 1px; stroke: rgb(0, 0, 0); stroke-opacity: 0;"/><g class="overlines-above"/><g class="xaxislayer-above"><path class="xtick ticks crisp" d="M0,451v3.65296803652968" transform="translate(153.29000000000002,0)" style="stroke: rgb(51, 51, 51); stroke-opacity: 1; stroke-width: 0.664176px;"/><path class="xtick ticks crisp" d="M0,451v3.65296803652968" transform="translate(296.53,0)" style="stroke: rgb(51, 51, 51); stroke-opacity: 1; stroke-width: 0.664176px;"/><path class="xtick ticks crisp" d="M0,451v3.65296803652968" transform="translate(470.47,0)" style="stroke: rgb(51, 51, 51); stroke-opacity: 1; stroke-width: 0.664176px;"/><path class="xtick ticks crisp" d="M0,451v3.65296803652968" transform="translate(613.71,0)" style="stroke: rgb(51, 51, 51); stroke-opacity: 1; stroke-width: 0.664176px;"/><g class="xtick"><text text-anchor="middle" x="0" y="473.7812370278123" transform="translate(153.29000000000002,0)" style="font-family: 'Open Sans', verdana, arial, sans-serif; font-size: 15.9402px; fill: rgb(77, 77, 77); fill-opacity: 1; white-space: pre;">01/Mar</text></g><g class="xtick"><text text-anchor="middle" x="0" y="473.7812370278123" transform="translate(296.53,0)" style="font-family: 'Open Sans', verdana, arial, sans-serif; font-size: 15.9402px; fill: rgb(77, 77, 77); fill-opacity: 1; white-space: pre;">15/Mar</text></g><g class="xtick"><text text-anchor="middle" x="0" y="473.7812370278123" transform="translate(470.47,0)" style="font-family: 'Open Sans', verdana, arial, sans-serif; font-size: 15.9402px; fill: rgb(77, 77, 77); fill-opacity: 1; white-space: pre;">01/Apr</text></g><g class="xtick"><text text-anchor="middle" x="0" y="473.7812370278123" transform="translate(613.71,0)" style="font-family: 'Open Sans', verdana, arial, sans-serif; font-size: 15.9402px; fill: rgb(77, 77, 77); fill-opacity: 1; white-space: pre;">15/Apr</text></g></g><g class="yaxislayer-above"><path class="ytick ticks crisp" d="M73,0h-3.65296803652968" transform="translate(0,431.5)" style="stroke: rgb(51, 51, 51); stroke-opacity: 1; stroke-width: 0.664176px;"/><path class="ytick ticks crisp" d="M73,0h-3.65296803652968" transform="translate(0,334.23)" style="stroke: rgb(51, 51, 51); stroke-opacity: 1; stroke-width: 0.664176px;"/><path class="ytick ticks crisp" d="M73,0h-3.65296803652968" transform="translate(0,236.96)" style="stroke: rgb(51, 51, 51); stroke-opacity: 1; stroke-width: 0.664176px;"/><path class="ytick ticks crisp" d="M73,0h-3.65296803652968" transform="translate(0,139.68)" style="stroke: rgb(51, 51, 51); stroke-opacity: 1; stroke-width: 0.664176px;"/><g class="ytick"><text text-anchor="end" x="66.15898713158988" y="5.5790784557907696" transform="translate(0,431.5)" style="font-family: 'Open Sans', verdana, arial, sans-serif; font-size: 15.9402px; fill: rgb(77, 77, 77); fill-opacity: 1; white-space: pre;">1</text></g><g class="ytick"><text text-anchor="end" x="66.15898713158988" y="5.5790784557907696" transform="translate(0,334.23)" style="font-family: 'Open Sans', verdana, arial, sans-serif; font-size: 15.9402px; fill: rgb(77, 77, 77); fill-opacity: 1; white-space: pre;">10</text></g><g class="ytick"><text text-anchor="end" x="66.15898713158988" y="5.5790784557907696" transform="translate(0,236.96)" style="font-family: 'Open Sans', verdana, arial, sans-serif; font-size: 15.9402px; fill: rgb(77, 77, 77); fill-opacity: 1; white-space: pre;">100</text></g><g class="ytick"><text text-anchor="end" x="66.15898713158988" y="5.5790784557907696" transform="translate(0,139.68)" style="font-family: 'Open Sans', verdana, arial, sans-serif; font-size: 15.9402px; fill: rgb(77, 77, 77); fill-opacity: 1; white-space: pre;">1000</text></g></g><g class="overaxes-above"/></g></g><g class="polarlayer"/><g class="ternarylayer"/><g class="geolayer"/><g class="funnelarealayer"/><g class="pielayer"/><g class="treemaplayer"/><g class="sunburstlayer"/><g class="glimages"/><defs id="topdefs-bb526b"><g class="clips"/></defs><g class="layer-above"><g class="imagelayer"/><g class="shapelayer"><path data-index="0" fill-rule="evenodd" d="M74,450H693V43H74Z" style="opacity: 1; stroke: rgb(51, 51, 51); stroke-opacity: 1; fill: rgb(0, 0, 0); fill-opacity: 0; stroke-width: 0.664176px;"/></g></g><g class="infolayer"><g class="g-gtitle"><text class="gtitle" x="74" y="21.5" text-anchor="start" dy="0em" style="font-family: 'Open Sans', verdana, arial, sans-serif; font-size: 17.53px; fill: rgb(0, 0, 0); opacity: 1; font-weight: normal; white-space: pre;">Número de casos notificados em RJ em escala logarítimica</text></g><g class="g-xtitle"/><g class="g-ytitle" transform="translate(-7.2119140625,0)"><text class="ytitle" transform="rotate(-90,26.8061436280614,246.5)" x="26.8061436280614" y="246.5" text-anchor="middle" style="font-family: 'Open Sans', verdana, arial, sans-serif; font-size: 18.6px; fill: rgb(0, 0, 0); opacity: 1; font-weight: normal; white-space: pre;"><tspan style="font-weight:bold"> Número de casos </tspan></text></g></g></svg>