<svg class="main-svg" xmlns="http://www.w3.org/2000/svg" xmlns:xlink="http://www.w3.org/1999/xlink" width="1600" height="800" viewBox="0 0 1600 800"><rect x="0" y="0" width="1600" height="800" style="fill: rgb(255, 255, 255); fill-opacity: 1;"/><defs id="defs-24dba8"><g class="clips"><clipPath id="clip24dba8xyplot" class="plotclip"><rect width="1549" height="720"/></clipPath><clipPath class="axesclip" id="clip24dba8x"><rect x="44" y="0" width="1549" height="800"/></clipPath><clipPath class="axesclip" id="clip24dba8y"><rect x="0" y="26" width="1600" height="720"/></clipPath><clipPath class="axesclip" id="clip24dba8xy"><rect x="44" y="26" width="1549" height="720"/></clipPath></g><g class="gradients"/></defs><g class="bglayer"/><g class="layer-below"><g class="imagelayer"/><g class="shapelayer"/></g><g class="cartesianlayer"><g class="subplot xy"><g class="layer-subplot"><g class="shapelayer"/><g class="imagelayer"/></g><g class="gridlayer"><g class="x"><path class="xgrid crisp" transform="translate(225.58,0)" d="M0,26v720" style="stroke: rgb(235, 235, 235); stroke-opacity: 1; stroke-width: 0.664176px;"/><path class="xgrid crisp" transform="translate(484.98,0)" d="M0,26v720" style="stroke: rgb(235, 235, 235); stroke-opacity: 1; stroke-width: 0.664176px;"/><path class="xgrid crisp" transform="translate(744.39,0)" d="M0,26v720" style="stroke: rgb(235, 235, 235); stroke-opacity: 1; stroke-width: 0.664176px;"/><path class="xgrid crisp" transform="translate(1003.79,0)" d="M0,26v720" style="stroke: rgb(235, 235, 235); stroke-opacity: 1; stroke-width: 0.664176px;"/><path class="xgrid crisp" transform="translate(1263.19,0)" d="M0,26v720" style="stroke: rgb(235, 235, 235); stroke-opacity: 1; stroke-width: 0.664176px;"/><path class="xgrid crisp" transform="translate(1522.59,0)" d="M0,26v720" style="stroke: rgb(235, 235, 235); stroke-opacity: 1; stroke-width: 0.664176px;"/></g><g class="y"><path class="ygrid crisp" transform="translate(0,668.73)" d="M44,0h1549" style="stroke: rgb(235, 235, 235); stroke-opacity: 1; stroke-width: 0.664176px;"/><path class="ygrid crisp" transform="translate(0,507.07)" d="M44,0h1549" style="stroke: rgb(235, 235, 235); stroke-opacity: 1; stroke-width: 0.664176px;"/><path class="ygrid crisp" transform="translate(0,345.4)" d="M44,0h1549" style="stroke: rgb(235, 235, 235); stroke-opacity: 1; stroke-width: 0.664176px;"/><path class="ygrid crisp" transform="translate(0,183.74)" d="M44,0h1549" style="stroke: rgb(235, 235, 235); stroke-opacity: 1; stroke-width: 0.664176px;"/></g></g><g class="zerolinelayer"/><path class="xlines-below"/><path class="ylines-below"/><g class="overlines-below"/><g class="xaxislayer-below"/><g class="yaxislayer-below"/><g class="overaxes-below"/><g class="plot" transform="translate(44, 26)" clip-path="url('#clip24dba8xyplot')"><g class="scatterlayer mlayer"><g class="trace scatter trace7da71f" style="stroke-miterlimit: 2; opacity: 1;"><g class="fills"><g><path class="js-fill" d="M70.41,515.4L107.47,488.57L144.52,453.02L181.58,433.96L218.64,409.67L255.7,424.82L292.75,429.46L329.81,441.41L366.87,435.84L403.93,456.42L440.98,468.45L478.04,501L515.1,523.73L552.16,542.46L589.21,549.92L626.27,561.72L663.33,578.36L700.39,581.44L737.44,593.12L774.5,600.61L811.56,609.34L848.61,617.57L885.67,630.38L922.73,640.93L959.79,649.32L996.84,659.83L1033.9,668.23L1108.02,681.83L1145.07,687.02L1182.13,687.27L1219.19,684.14L1256.25,681.42L1293.3,680.22L1367.42,676.05L1404.48,673.08L1441.53,668.87L1478.59,668.56L1478.59,646.98L1441.53,647.18L1404.48,651.42L1367.42,654.55L1330.36,656.99L1293.3,658.28L1256.25,659.1L1219.19,662.02L1182.13,666.5L1145.07,667.57L1108.02,663.35L1070.96,657.01L1033.9,650.26L996.84,641.02L959.79,627.76L922.73,615.55L885.67,600.42L848.61,582.14L774.5,552.6L737.44,536.76L700.39,514.73L663.33,502.14L552.16,403.92L515.1,349.79L478.04,290.97L440.98,218.9L403.93,180.79L366.87,129.13L329.81,113.06L292.75,74.12L255.7,58.32L218.64,32.73L181.58,89.04L144.52,136.85L107.47,204.83L70.41,237.86L70.41,515.4Z" style="fill: rgb(211, 211, 211); fill-opacity: 1; stroke-width: 0;"/></g></g><g class="errorbars"/><g class="lines"><path class="js-line" d="M70.41,515.4L107.47,488.57L144.52,453.02L181.58,433.96L218.64,409.67L255.7,424.82L292.75,429.46L329.81,441.41L366.87,435.84L403.93,456.42L440.98,468.45L478.04,501L515.1,523.73L552.16,542.46L589.21,549.92L626.27,561.72L663.33,578.36L700.39,581.44L737.44,593.12L774.5,600.61L811.56,609.34L848.61,617.57L885.67,630.38L922.73,640.93L959.79,649.32L996.84,659.83L1033.9,668.23L1108.02,681.83L1145.07,687.02L1182.13,687.27L1219.19,684.14L1256.25,681.42L1293.3,680.22L1367.42,676.05L1404.48,673.08L1441.53,668.87L1478.59,668.56L1478.59,646.98L1441.53,647.18L1404.48,651.42L1367.42,654.55L1330.36,656.99L1293.3,658.28L1256.25,659.1L1219.19,662.02L1182.13,666.5L1145.07,667.57L1108.02,663.35L1070.96,657.01L1033.9,650.26L996.84,641.02L959.79,627.76L922.73,615.55L885.67,600.42L848.61,582.14L774.5,552.6L737.44,536.76L700.39,514.73L663.33,502.14L552.16,403.92L515.1,349.79L478.04,290.97L440.98,218.9L403.93,180.79L366.87,129.13L329.81,113.06L292.75,74.12L255.7,58.32L218.64,32.73L181.58,89.04L144.52,136.85L107.47,204.83L70.41,237.86L70.41,515.4" style="vector-effect: non-scaling-stroke; fill: none; stroke: rgb(0, 0, 0); stroke-opacity: 0; stroke-width: 1.88976px; opacity: 1;"/></g><g class="points"/><g class="text"/></g><g class="trace scatter tracefd4447" style="stroke-miterlimit: 2; opacity: 1;"><g class="fills"/><g class="errorbars"/><g class="lines"><path class="js-line" d="M70.41,391.2L107.47,361.6L144.52,309.51L181.58,282.38L218.64,246.31L255.7,265.31L292.75,278.22L329.81,302.54L366.87,306.42L403.93,338.59L440.98,361.46L478.04,411.65L515.1,450.63L552.16,484.14L589.21,501.46L626.27,521.77L663.33,544.8L700.39,552.13L737.44,567.95L848.61,601.24L885.67,616.44L922.73,628.96L959.79,638.99L996.84,650.65L1033.9,659.45L1108.02,672.99L1145.07,677.56L1182.13,677.16L1219.19,673.26L1256.25,670.38L1293.3,669.3L1367.42,665.3L1404.48,662.35L1441.53,658.18L1478.59,657.95" style="vector-effect: non-scaling-stroke; fill: none; stroke: rgb(117, 112, 179); stroke-opacity: 1; stroke-width: 4.72441px; opacity: 1;"/></g><g class="points"/><g class="text"/></g><g class="trace scatter trace898cb5" style="stroke-miterlimit: 2; opacity: 1;"><g class="fills"/><g class="errorbars"/><g class="lines"><path class="js-line" d="M0,642.73L1549,642.73" style="vector-effect: non-scaling-stroke; fill: none; stroke: rgb(255, 0, 0); stroke-opacity: 1; stroke-width: 3.77953px; opacity: 1; stroke-dasharray: 11.3386px, 11.3386px;"/></g><g class="points"/><g class="text"/></g></g></g><g class="overplot"/><path class="xlines-above crisp" d="" style="fill: none; stroke-width: 1px; stroke: rgb(0, 0, 0); stroke-opacity: 0;"/><path class="ylines-above crisp" d="" style="fill: none; stroke-width: 1px; stroke: rgb(0, 0, 0); stroke-opacity: 0;"/><g class="overlines-above"/><g class="xaxislayer-above"><path class="xtick ticks crisp" d="M0,747v3.65296803652968" transform="translate(225.58,0)" style="stroke: rgb(51, 51, 51); stroke-opacity: 1; stroke-width: 0.664176px;"/><path class="xtick ticks crisp" d="M0,747v3.65296803652968" transform="translate(484.98,0)" style="stroke: rgb(51, 51, 51); stroke-opacity: 1; stroke-width: 0.664176px;"/><path class="xtick ticks crisp" d="M0,747v3.65296803652968" transform="translate(744.39,0)" style="stroke: rgb(51, 51, 51); stroke-opacity: 1; stroke-width: 0.664176px;"/><path class="xtick ticks crisp" d="M0,747v3.65296803652968" transform="translate(1003.79,0)" style="stroke: rgb(51, 51, 51); stroke-opacity: 1; stroke-width: 0.664176px;"/><path class="xtick ticks crisp" d="M0,747v3.65296803652968" transform="translate(1263.19,0)" style="stroke: rgb(51, 51, 51); stroke-opacity: 1; stroke-width: 0.664176px;"/><path class="xtick ticks crisp" d="M0,747v3.65296803652968" transform="translate(1522.59,0)" style="stroke: rgb(51, 51, 51); stroke-opacity: 1; stroke-width: 0.664176px;"/><g class="xtick"><text text-anchor="middle" x="0" y="769.7812370278123" transform="translate(225.58,0)" style="font-family: 'Open Sans', verdana, arial, sans-serif; font-size: 15.9402px; fill: rgb(77, 77, 77); fill-opacity: 1; white-space: pre;">09/Mar</text></g><g class="xtick"><text text-anchor="middle" x="0" y="769.7812370278123" transform="translate(484.98,0)" style="font-family: 'Open Sans', verdana, arial, sans-serif; font-size: 15.9402px; fill: rgb(77, 77, 77); fill-opacity: 1; white-space: pre;">16/Mar</text></g><g class="xtick"><text text-anchor="middle" x="0" y="769.7812370278123" transform="translate(744.39,0)" style="font-family: 'Open Sans', verdana, arial, sans-serif; font-size: 15.9402px; fill: rgb(77, 77, 77); fill-opacity: 1; white-space: pre;">23/Mar</text></g><g class="xtick"><text text-anchor="middle" x="0" y="769.7812370278123" transform="translate(1003.79,0)" style="font-family: 'Open Sans', verdana, arial, sans-serif; font-size: 15.9402px; fill: rgb(77, 77, 77); fill-opacity: 1; white-space: pre;">30/Mar</text></g><g class="xtick"><text text-anchor="middle" x="0" y="769.7812370278123" transform="translate(1263.19,0)" style="font-family: 'Open Sans', verdana, arial, sans-serif; font-size: 15.9402px; fill: rgb(77, 77, 77); fill-opacity: 1; white-space: pre;">06/Apr</text></g><g class="xtick"><text text-anchor="middle" x="0" y="769.7812370278123" transform="translate(1522.59,0)" style="font-family: 'Open Sans', verdana, arial, sans-serif; font-size: 15.9402px; fill: rgb(77, 77, 77); fill-opacity: 1; white-space: pre;">13/Apr</text></g></g><g class="yaxislayer-above"><path class="ytick ticks crisp" d="M43,0h-3.65296803652968" transform="translate(0,668.73)" style="stroke: rgb(51, 51, 51); stroke-opacity: 1; stroke-width: 0.664176px;"/><path class="ytick ticks crisp" d="M43,0h-3.65296803652968" transform="translate(0,507.07)" style="stroke: rgb(51, 51, 51); stroke-opacity: 1; stroke-width: 0.664176px;"/><path class="ytick ticks crisp" d="M43,0h-3.65296803652968" transform="translate(0,345.4)" style="stroke: rgb(51, 51, 51); stroke-opacity: 1; stroke-width: 0.664176px;"/><path class="ytick ticks crisp" d="M43,0h-3.65296803652968" transform="translate(0,183.74)" style="stroke: rgb(51, 51, 51); stroke-opacity: 1; stroke-width: 0.664176px;"/><g class="ytick"><text text-anchor="end" x="36.15898713158988" y="5.5790784557907696" transform="translate(0,668.73)" style="font-family: 'Open Sans', verdana, arial, sans-serif; font-size: 15.9402px; fill: rgb(77, 77, 77); fill-opacity: 1; white-space: pre;">1</text></g><g class="ytick"><text text-anchor="end" x="36.15898713158988" y="5.5790784557907696" transform="translate(0,507.07)" style="font-family: 'Open Sans', verdana, arial, sans-serif; font-size: 15.9402px; fill: rgb(77, 77, 77); fill-opacity: 1; white-space: pre;">2</text></g><g class="ytick"><text text-anchor="end" x="36.15898713158988" y="5.5790784557907696" transform="translate(0,345.4)" style="font-family: 'Open Sans', verdana, arial, sans-serif; font-size: 15.9402px; fill: rgb(77, 77, 77); fill-opacity: 1; white-space: pre;">3</text></g><g class="ytick"><text text-anchor="end" x="36.15898713158988" y="5.5790784557907696" transform="translate(0,183.74)" style="font-family: 'Open Sans', verdana, arial, sans-serif; font-size: 15.9402px; fill: rgb(77, 77, 77); fill-opacity: 1; white-space: pre;">4</text></g></g><g class="overaxes-above"/></g></g><g class="polarlayer"/><g class="ternarylayer"/><g class="geolayer"/><g class="funnelarealayer"/><g class="pielayer"/><g class="treemaplayer"/><g class="sunburstlayer"/><g class="glimages"/><defs id="topdefs-24dba8"><g class="clips"/></defs><g class="layer-above"><g class="imagelayer"/><g class="shapelayer"><path data-index="0" fill-rule="evenodd" d="M44,746H1593V26H44Z" style="opacity: 1; stroke: rgb(51, 51, 51); stroke-opacity: 1; fill: rgb(0, 0, 0); fill-opacity: 0; stroke-width: 0.664176px;"/></g></g><g class="infolayer"><g class="g-gtitle"/><g class="g-xtitle" transform="translate(0,-15.790784557907955)"><text class="xtitle" x="818.5" y="811.790784557908" text-anchor="middle" style="font-family: 'Open Sans', verdana, arial, sans-serif; font-size: 18.6px; fill: rgb(0, 0, 0); opacity: 1; font-weight: normal; white-space: pre;"><tspan style="font-weight:bold">  </tspan></text></g><g class="g-ytitle" transform="translate(20.1943359375,0)"><text class="ytitle" transform="rotate(-90,-3.193856371938601,386)" x="-3.193856371938601" y="386" text-anchor="middle" style="font-family: 'Open Sans', verdana, arial, sans-serif; font-size: 18.6px; fill: rgb(0, 0, 0); opacity: 1; font-weight: normal; white-space: pre;"><tspan style="font-weight:bold"> Número de reprodução da epidemia </tspan></text></g></g></svg>