<svg class="main-svg" xmlns="http://www.w3.org/2000/svg" xmlns:xlink="http://www.w3.org/1999/xlink" width="700" height="500" viewBox="0 0 700 500"><rect x="0" y="0" width="700" height="500" style="fill: rgb(255, 255, 255); fill-opacity: 1;"/><defs id="defs-333508"><g class="clips"><clipPath id="clip333508xyplot" class="plotclip"><rect width="615" height="420"/></clipPath><clipPath class="axesclip" id="clip333508x"><rect x="54" y="0" width="615" height="500"/></clipPath><clipPath class="axesclip" id="clip333508y"><rect x="0" y="26" width="700" height="420"/></clipPath><clipPath class="axesclip" id="clip333508xy"><rect x="54" y="26" width="615" height="420"/></clipPath></g><g class="gradients"/></defs><g class="bglayer"/><g class="layer-below"><g class="imagelayer"/><g class="shapelayer"/></g><g class="cartesianlayer"><g class="subplot xy"><g class="layer-subplot"><g class="shapelayer"/><g class="imagelayer"/></g><g class="gridlayer"><g class="x"><path class="xgrid crisp" transform="translate(118.42,0)" d="M0,26v420" style="stroke: rgb(235, 235, 235); stroke-opacity: 1; stroke-width: 0.664176px;"/><path class="xgrid crisp" transform="translate(288.58000000000004,0)" d="M0,26v420" style="stroke: rgb(235, 235, 235); stroke-opacity: 1; stroke-width: 0.664176px;"/><path class="xgrid crisp" transform="translate(495.2,0)" d="M0,26v420" style="stroke: rgb(235, 235, 235); stroke-opacity: 1; stroke-width: 0.664176px;"/><path class="xgrid crisp" transform="translate(665.35,0)" d="M0,26v420" style="stroke: rgb(235, 235, 235); stroke-opacity: 1; stroke-width: 0.664176px;"/></g><g class="y"><path class="ygrid crisp" transform="translate(0,440.79)" d="M54,0h615" style="stroke: rgb(235, 235, 235); stroke-opacity: 1; stroke-width: 0.664176px;"/><path class="ygrid crisp" transform="translate(0,340.05)" d="M54,0h615" style="stroke: rgb(235, 235, 235); stroke-opacity: 1; stroke-width: 0.664176px;"/><path class="ygrid crisp" transform="translate(0,239.31)" d="M54,0h615" style="stroke: rgb(235, 235, 235); stroke-opacity: 1; stroke-width: 0.664176px;"/><path class="ygrid crisp" transform="translate(0,138.57)" d="M54,0h615" style="stroke: rgb(235, 235, 235); stroke-opacity: 1; stroke-width: 0.664176px;"/><path class="ygrid crisp" transform="translate(0,37.82)" d="M54,0h615" style="stroke: rgb(235, 235, 235); stroke-opacity: 1; stroke-width: 0.664176px;"/></g></g><g class="zerolinelayer"/><path class="xlines-below"/><path class="ylines-below"/><g class="overlines-below"/><g class="xaxislayer-below"/><g class="yaxislayer-below"/><g class="overaxes-below"/><g class="plot" transform="translate(54, 26)" clip-path="url('#clip333508xyplot')"><g class="scatterlayer mlayer"><g class="trace scatter trace39a493" style="stroke-miterlimit: 2; opacity: 1;"><g class="fills"><g><path class="js-fill" d="M27.95,400.91L52.26,393.87L64.42,392.22L88.73,392.27L100.88,390.97L113.03,389.67L125.19,390.6L137.34,390.31L149.5,391.5L173.8,393.48L185.96,393.15L246.73,387.88L258.88,385.77L271.04,382.93L283.19,379.17L319.65,367.78L331.81,365.66L343.96,362.76L356.12,358.97L368.27,353.65L380.42,347.49L392.58,339.18L404.73,327.81L465.5,272.55L477.66,259.08L489.81,245.31L501.97,233.8L514.12,227.41L526.27,224.08L538.43,219.94L550.58,213.28L562.74,200.94L574.89,187.18L587.05,174.66L587.05,174.66L587.05,19.09L562.74,81.11L550.58,108L538.43,121.1L526.27,128.3L514.12,133.61L501.97,145.65L489.81,168.39L477.66,194.77L465.5,219.3L453.35,239.44L429.04,274.73L416.89,290.75L392.58,323.25L380.42,334.46L368.27,342.43L356.12,349.14L343.96,353.71L331.81,357.04L319.65,359.28L307.5,363.94L271.04,377.42L258.88,380.67L246.73,382.91L234.58,383.94L222.42,385.06L210.27,385.13L185.96,386.16L173.8,385.37L161.65,381.67L149.5,376.9L137.34,370.15L125.19,366.3L113.03,355.26L100.88,354.66L88.73,353.64L76.57,339.17L64.42,318.2L52.26,307.89L40.11,347.11L27.95,364.64L27.95,400.91Z" style="fill: rgb(211, 211, 211); fill-opacity: 1; stroke-width: 0;"/></g></g><g class="errorbars"/><g class="lines"><path class="js-line" d="M27.95,400.91L52.26,393.87L64.42,392.22L88.73,392.27L100.88,390.97L113.03,389.67L125.19,390.6L137.34,390.31L149.5,391.5L173.8,393.48L185.96,393.15L246.73,387.88L258.88,385.77L271.04,382.93L283.19,379.17L319.65,367.78L331.81,365.66L343.96,362.76L356.12,358.97L368.27,353.65L380.42,347.49L392.58,339.18L404.73,327.81L465.5,272.55L477.66,259.08L489.81,245.31L501.97,233.8L514.12,227.41L526.27,224.08L538.43,219.94L550.58,213.28L562.74,200.94L574.89,187.18L587.05,174.66L587.05,174.66L587.05,19.09L562.74,81.11L550.58,108L538.43,121.1L526.27,128.3L514.12,133.61L501.97,145.65L489.81,168.39L477.66,194.77L465.5,219.3L453.35,239.44L429.04,274.73L416.89,290.75L392.58,323.25L380.42,334.46L368.27,342.43L356.12,349.14L343.96,353.71L331.81,357.04L319.65,359.28L307.5,363.94L271.04,377.42L258.88,380.67L246.73,382.91L234.58,383.94L222.42,385.06L210.27,385.13L185.96,386.16L173.8,385.37L161.65,381.67L149.5,376.9L137.34,370.15L125.19,366.3L113.03,355.26L100.88,354.66L88.73,353.64L76.57,339.17L64.42,318.2L52.26,307.89L40.11,347.11L27.95,364.64L27.95,400.91" style="vector-effect: non-scaling-stroke; fill: none; stroke: rgb(0, 0, 0); stroke-opacity: 0; stroke-width: 1.88976px; opacity: 1;"/></g><g class="points"/><g class="text"/></g><g class="trace scatter tracebd90e7" style="stroke-miterlimit: 2; opacity: 1;"><g class="fills"/><g class="errorbars"/><g class="lines"><path class="js-line" d="M27.95,392.53L40.11,387.08L52.26,379.3L64.42,377.79L76.57,379.62L88.73,381.62L100.88,380.46L113.03,379.27L125.19,382.38L137.34,383.06L149.5,385.86L173.8,390.03L185.96,390.12L246.73,385.59L258.88,383.42L283.19,376.3L295.35,371.99L319.65,363.87L331.81,361.69L356.12,354.45L368.27,348.51L380.42,341.54L392.58,331.97L453.35,265.13L465.5,250.12L489.81,213.96L501.97,198.35L514.12,189.89L526.27,185.79L538.43,180.51L550.58,171.53L562.74,154.13L574.89,134.25L587.05,115.9" style="vector-effect: non-scaling-stroke; fill: none; stroke: rgb(27, 158, 119); stroke-opacity: 1; stroke-width: 4.72441px; opacity: 1;"/></g><g class="points"/><g class="text"/></g></g></g><g class="overplot"/><path class="xlines-above crisp" d="" style="fill: none; stroke-width: 1px; stroke: rgb(0, 0, 0); stroke-opacity: 0;"/><path class="ylines-above crisp" d="" style="fill: none; stroke-width: 1px; stroke: rgb(0, 0, 0); stroke-opacity: 0;"/><g class="overlines-above"/><g class="xaxislayer-above"><path class="xtick ticks crisp" d="M0,447v3.65296803652968" transform="translate(118.42,0)" style="stroke: rgb(51, 51, 51); stroke-opacity: 1; stroke-width: 0.664176px;"/><path class="xtick ticks crisp" d="M0,447v3.65296803652968" transform="translate(288.58000000000004,0)" style="stroke: rgb(51, 51, 51); stroke-opacity: 1; stroke-width: 0.664176px;"/><path class="xtick ticks crisp" d="M0,447v3.65296803652968" transform="translate(495.2,0)" style="stroke: rgb(51, 51, 51); stroke-opacity: 1; stroke-width: 0.664176px;"/><path class="xtick ticks crisp" d="M0,447v3.65296803652968" transform="translate(665.35,0)" style="stroke: rgb(51, 51, 51); stroke-opacity: 1; stroke-width: 0.664176px;"/><g class="xtick"><text text-anchor="middle" x="0" y="469.7812370278123" transform="translate(118.42,0)" style="font-family: 'Open Sans', verdana, arial, sans-serif; font-size: 15.9402px; fill: rgb(77, 77, 77); fill-opacity: 1; white-space: pre;">01/Mar</text></g><g class="xtick"><text text-anchor="middle" x="0" y="469.7812370278123" transform="translate(288.58000000000004,0)" style="font-family: 'Open Sans', verdana, arial, sans-serif; font-size: 15.9402px; fill: rgb(77, 77, 77); fill-opacity: 1; white-space: pre;">15/Mar</text></g><g class="xtick"><text text-anchor="middle" x="0" y="469.7812370278123" transform="translate(495.2,0)" style="font-family: 'Open Sans', verdana, arial, sans-serif; font-size: 15.9402px; fill: rgb(77, 77, 77); fill-opacity: 1; white-space: pre;">01/Apr</text></g><g class="xtick"><text text-anchor="middle" x="0" y="469.7812370278123" transform="translate(665.35,0)" style="font-family: 'Open Sans', verdana, arial, sans-serif; font-size: 15.9402px; fill: rgb(77, 77, 77); fill-opacity: 1; white-space: pre;">15/Apr</text></g></g><g class="yaxislayer-above"><path class="ytick ticks crisp" d="M53,0h-3.65296803652968" transform="translate(0,440.79)" style="stroke: rgb(51, 51, 51); stroke-opacity: 1; stroke-width: 0.664176px;"/><path class="ytick ticks crisp" d="M53,0h-3.65296803652968" transform="translate(0,340.05)" style="stroke: rgb(51, 51, 51); stroke-opacity: 1; stroke-width: 0.664176px;"/><path class="ytick ticks crisp" d="M53,0h-3.65296803652968" transform="translate(0,239.31)" style="stroke: rgb(51, 51, 51); stroke-opacity: 1; stroke-width: 0.664176px;"/><path class="ytick ticks crisp" d="M53,0h-3.65296803652968" transform="translate(0,138.57)" style="stroke: rgb(51, 51, 51); stroke-opacity: 1; stroke-width: 0.664176px;"/><path class="ytick ticks crisp" d="M53,0h-3.65296803652968" transform="translate(0,37.82)" style="stroke: rgb(51, 51, 51); stroke-opacity: 1; stroke-width: 0.664176px;"/><g class="ytick"><text text-anchor="end" x="46.15898713158988" y="5.5790784557907696" transform="translate(0,440.79)" style="font-family: 'Open Sans', verdana, arial, sans-serif; font-size: 15.9402px; fill: rgb(77, 77, 77); fill-opacity: 1; white-space: pre;">0</text></g><g class="ytick"><text text-anchor="end" x="46.15898713158988" y="5.5790784557907696" transform="translate(0,340.05)" style="font-family: 'Open Sans', verdana, arial, sans-serif; font-size: 15.9402px; fill: rgb(77, 77, 77); fill-opacity: 1; white-space: pre;">10</text></g><g class="ytick"><text text-anchor="end" x="46.15898713158988" y="5.5790784557907696" transform="translate(0,239.31)" style="font-family: 'Open Sans', verdana, arial, sans-serif; font-size: 15.9402px; fill: rgb(77, 77, 77); fill-opacity: 1; white-space: pre;">20</text></g><g class="ytick"><text text-anchor="end" x="46.15898713158988" y="5.5790784557907696" transform="translate(0,138.57)" style="font-family: 'Open Sans', verdana, arial, sans-serif; font-size: 15.9402px; fill: rgb(77, 77, 77); fill-opacity: 1; white-space: pre;">30</text></g><g class="ytick"><text text-anchor="end" x="46.15898713158988" y="5.5790784557907696" transform="translate(0,37.82)" style="font-family: 'Open Sans', verdana, arial, sans-serif; font-size: 15.9402px; fill: rgb(77, 77, 77); fill-opacity: 1; white-space: pre;">40</text></g></g><g class="overaxes-above"/></g></g><g class="polarlayer"/><g class="ternarylayer"/><g class="geolayer"/><g class="funnelarealayer"/><g class="pielayer"/><g class="treemaplayer"/><g class="sunburstlayer"/><g class="glimages"/><defs id="topdefs-333508"><g class="clips"/></defs><g class="layer-above"><g class="imagelayer"/><g class="shapelayer"><path data-index="0" fill-rule="evenodd" d="M54,446H669V26H54Z" style="opacity: 1; stroke: rgb(51, 51, 51); stroke-opacity: 1; fill: rgb(0, 0, 0); fill-opacity: 0; stroke-width: 0.664176px;"/></g></g><g class="infolayer"><g class="g-gtitle"/><g class="g-xtitle" transform="translate(0,-15.790784557907955)"><text class="xtitle" x="361.5" y="511.7907845579079" text-anchor="middle" style="font-family: 'Open Sans', verdana, arial, sans-serif; font-size: 18.6px; fill: rgb(0, 0, 0); opacity: 1; font-weight: normal; white-space: pre;"><tspan style="font-weight:bold">  </tspan></text></g><g class="g-ytitle" transform="translate(10.1943359375,0)"><text class="ytitle" transform="rotate(-90,6.806143628061399,236)" x="6.806143628061399" y="236" text-anchor="middle" style="font-family: 'Open Sans', verdana, arial, sans-serif; font-size: 18.6px; fill: rgb(0, 0, 0); opacity: 1; font-weight: normal; white-space: pre;"><tspan style="font-weight:bold"> Tempo de duplicação (dias) </tspan></text></g></g></svg>