<svg class="main-svg" xmlns="http://www.w3.org/2000/svg" xmlns:xlink="http://www.w3.org/1999/xlink" width="1600" height="800" viewBox="0 0 1600 800"><rect x="0" y="0" width="1600" height="800" style="fill: rgb(255, 255, 255); fill-opacity: 1;"/><defs id="defs-588b59"><g class="clips"><clipPath id="clip588b59xyplot" class="plotclip"><rect width="1354" height="720"/></clipPath><clipPath class="axesclip" id="clip588b59x"><rect x="74" y="0" width="1354" height="800"/></clipPath><clipPath class="axesclip" id="clip588b59y"><rect x="0" y="26" width="1600" height="720"/></clipPath><clipPath class="axesclip" id="clip588b59xy"><rect x="74" y="26" width="1354" height="720"/></clipPath></g><g class="gradients"/></defs><g class="bglayer"/><g class="layer-below"><g class="imagelayer"/><g class="shapelayer"/></g><g class="cartesianlayer"><g class="subplot xy"><g class="layer-subplot"><g class="shapelayer"/><g class="imagelayer"/></g><g class="gridlayer"><g class="x"><path class="xgrid crisp" transform="translate(366.34,0)" d="M0,26v720" style="stroke: rgb(235, 235, 235); stroke-opacity: 1; stroke-width: 0.664176px;"/><path class="xgrid crisp" transform="translate(802.29,0)" d="M0,26v720" style="stroke: rgb(235, 235, 235); stroke-opacity: 1; stroke-width: 0.664176px;"/><path class="xgrid crisp" transform="translate(1161.3,0)" d="M0,26v720" style="stroke: rgb(235, 235, 235); stroke-opacity: 1; stroke-width: 0.664176px;"/></g><g class="y"><path class="ygrid crisp" transform="translate(0,629.85)" d="M74,0h1354" style="stroke: rgb(235, 235, 235); stroke-opacity: 1; stroke-width: 0.664176px;"/><path class="ygrid crisp" transform="translate(0,481.1)" d="M74,0h1354" style="stroke: rgb(235, 235, 235); stroke-opacity: 1; stroke-width: 0.664176px;"/><path class="ygrid crisp" transform="translate(0,318.1)" d="M74,0h1354" style="stroke: rgb(235, 235, 235); stroke-opacity: 1; stroke-width: 0.664176px;"/><path class="ygrid crisp" transform="translate(0,169.35)" d="M74,0h1354" style="stroke: rgb(235, 235, 235); stroke-opacity: 1; stroke-width: 0.664176px;"/></g></g><g class="zerolinelayer"/><path class="xlines-below"/><path class="ylines-below"/><g class="overlines-below"/><g class="xaxislayer-below"/><g class="yaxislayer-below"/><g class="overaxes-below"/><g class="plot" transform="translate(74, 26)" clip-path="url('#clip588b59xyplot')"><g class="scatterlayer mlayer"><g class="trace scatter tracef131d2" style="stroke-miterlimit: 2; opacity: 1;"><g class="fills"/><g class="errorbars"/><g class="lines"><path class="js-line" d="M61.55,687.27L87.19,656.06L112.83,618.11L164.12,536.05L189.77,502.75L215.41,468.87L241.05,437.36L266.7,399.31L292.34,371.33L317.98,341.55L343.63,320.79L369.27,299.75L394.92,281.8L420.56,261.45L446.2,245L471.85,229.48L497.49,212.06L523.14,198.32L548.78,186.58L574.42,175.73L600.07,166.64L625.71,158.67L651.36,152.02L702.64,138.83L728.29,133.35L779.58,124.39L805.22,120.71L907.8,104L933.44,100.63L1036.02,88.67" style="vector-effect: non-scaling-stroke; fill: none; stroke: rgb(228, 26, 28); stroke-opacity: 1; stroke-width: 3.77953px; opacity: 1;"/></g><g class="points"/><g class="text"/></g><g class="trace scatter trace39506c" style="stroke-miterlimit: 2; opacity: 1;"><g class="fills"><g><path class="js-fill" d="M1036.02,102.85L1164.23,92.34L1189.88,90.27L1292.45,82L1292.45,82L1292.45,32.73L1036.02,72.04L1036.02,102.85Z" style="fill: rgb(211, 211, 211); fill-opacity: 1; stroke-width: 0;"/></g></g><g class="errorbars"/><g class="lines"><path class="js-line" d="M1036.02,102.85L1164.23,92.34L1189.88,90.27L1292.45,82L1292.45,82L1292.45,32.73L1036.02,72.04L1036.02,102.85" style="vector-effect: non-scaling-stroke; fill: none; stroke: rgb(0, 0, 0); stroke-opacity: 0; stroke-width: 1.88976px; opacity: 1;"/></g><g class="points"/><g class="text"/></g><g class="trace scatter trace888e1c" style="stroke-miterlimit: 2; opacity: 1;"><g class="fills"/><g class="errorbars"/><g class="lines"><path class="js-line" d="M1036.02,88.67L1292.45,58.8" style="vector-effect: non-scaling-stroke; fill: none; stroke: rgb(228, 26, 28); stroke-opacity: 1; stroke-width: 1.88976px; opacity: 1; stroke-dasharray: 15px, 15px;"/></g><g class="points"/><g class="text"/></g><g class="trace scatter traceb27727" style="stroke-miterlimit: 2; opacity: 1;"><g class="fills"/><g class="errorbars"/><g class="lines"><path class="js-line" d="M61.55,687.27L87.19,656.06L112.83,618.11L164.12,536.05L189.77,502.75L215.41,468.87L241.05,437.36L266.7,399.31L292.34,371.33L317.98,341.16L343.63,321.3L369.27,300.76L394.92,283.57L420.56,263.96L446.2,248.29L471.85,233.72L497.49,217.26L523.14,204.41L548.78,193.46L574.42,183.45L600.07,175.27L625.71,168.09L651.36,162.31L702.64,151.15L728.29,146.87L779.58,140.49L805.22,138.26L856.51,133.27L882.15,131.68L933.44,129.22L959.08,128.65L1036.02,128.13" style="vector-effect: non-scaling-stroke; fill: none; stroke: rgb(55, 126, 184); stroke-opacity: 1; stroke-width: 3.77953px; opacity: 1;"/></g><g class="points"/><g class="text"/></g><g class="trace scatter trace512c14" style="stroke-miterlimit: 2; opacity: 1;"><g class="fills"><g><path class="js-fill" d="M1036.02,128.13L1112.95,124.75L1138.59,124.01L1215.52,122.75L1241.17,122.59L1292.45,122.53L1292.45,122.53L1292.45,114.27L1215.52,114.81L1189.88,115.48L1138.59,117.94L1112.95,119.77L1061.66,124.85L1036.02,128.13Z" style="fill: rgb(211, 211, 211); fill-opacity: 1; stroke-width: 0;"/></g></g><g class="errorbars"/><g class="lines"><path class="js-line" d="M1036.02,128.13L1112.95,124.75L1138.59,124.01L1215.52,122.75L1241.17,122.59L1292.45,122.53L1292.45,122.53L1292.45,114.27L1215.52,114.81L1189.88,115.48L1138.59,117.94L1112.95,119.77L1061.66,124.85L1036.02,128.13" style="vector-effect: non-scaling-stroke; fill: none; stroke: rgb(0, 0, 0); stroke-opacity: 0; stroke-width: 1.88976px; opacity: 1;"/></g><g class="points"/><g class="text"/></g><g class="trace scatter tracefc2d3e" style="stroke-miterlimit: 2; opacity: 1;"><g class="fills"/><g class="errorbars"/><g class="lines"><path class="js-line" d="M1036.02,128.13L1087.3,124.14L1112.95,122.63L1164.23,120.48L1189.88,119.8L1266.81,119.01L1292.45,119" style="vector-effect: non-scaling-stroke; fill: none; stroke: rgb(55, 126, 184); stroke-opacity: 1; stroke-width: 1.88976px; opacity: 1; stroke-dasharray: 15px, 15px;"/></g><g class="points"/><g class="text"/></g></g></g><g class="overplot"/><path class="xlines-above crisp" d="" style="fill: none; stroke-width: 1px; stroke: rgb(0, 0, 0); stroke-opacity: 0;"/><path class="ylines-above crisp" d="" style="fill: none; stroke-width: 1px; stroke: rgb(0, 0, 0); stroke-opacity: 0;"/><g class="overlines-above"/><g class="xaxislayer-above"><path class="xtick ticks crisp" d="M0,747v3.65296803652968" transform="translate(366.34,0)" style="stroke: rgb(51, 51, 51); stroke-opacity: 1; stroke-width: 0.664176px;"/><path class="xtick ticks crisp" d="M0,747v3.65296803652968" transform="translate(802.29,0)" style="stroke: rgb(51, 51, 51); stroke-opacity: 1; stroke-width: 0.664176px;"/><path class="xtick ticks crisp" d="M0,747v3.65296803652968" transform="translate(1161.3,0)" style="stroke: rgb(51, 51, 51); stroke-opacity: 1; stroke-width: 0.664176px;"/><g class="xtick"><text text-anchor="middle" x="0" y="769.7812370278123" transform="translate(366.34,0)" style="font-family: 'Open Sans', verdana, arial, sans-serif; font-size: 15.9402px; fill: rgb(77, 77, 77); fill-opacity: 1; white-space: pre;">15/Mar</text></g><g class="xtick"><text text-anchor="middle" x="0" y="769.7812370278123" transform="translate(802.29,0)" style="font-family: 'Open Sans', verdana, arial, sans-serif; font-size: 15.9402px; fill: rgb(77, 77, 77); fill-opacity: 1; white-space: pre;">01/Apr</text></g><g class="xtick"><text text-anchor="middle" x="0" y="769.7812370278123" transform="translate(1161.3,0)" style="font-family: 'Open Sans', verdana, arial, sans-serif; font-size: 15.9402px; fill: rgb(77, 77, 77); fill-opacity: 1; white-space: pre;">15/Apr</text></g></g><g class="yaxislayer-above"><path class="ytick ticks crisp" d="M73,0h-3.65296803652968" transform="translate(0,629.85)" style="stroke: rgb(51, 51, 51); stroke-opacity: 1; stroke-width: 0.664176px;"/><path class="ytick ticks crisp" d="M73,0h-3.65296803652968" transform="translate(0,481.1)" style="stroke: rgb(51, 51, 51); stroke-opacity: 1; stroke-width: 0.664176px;"/><path class="ytick ticks crisp" d="M73,0h-3.65296803652968" transform="translate(0,318.1)" style="stroke: rgb(51, 51, 51); stroke-opacity: 1; stroke-width: 0.664176px;"/><path class="ytick ticks crisp" d="M73,0h-3.65296803652968" transform="translate(0,169.35)" style="stroke: rgb(51, 51, 51); stroke-opacity: 1; stroke-width: 0.664176px;"/><g class="ytick"><text text-anchor="end" x="66.15898713158988" y="5.5790784557907696" transform="translate(0,629.85)" style="font-family: 'Open Sans', verdana, arial, sans-serif; font-size: 15.9402px; fill: rgb(77, 77, 77); fill-opacity: 1; white-space: pre;">100</text></g><g class="ytick"><text text-anchor="end" x="66.15898713158988" y="5.5790784557907696" transform="translate(0,481.1)" style="font-family: 'Open Sans', verdana, arial, sans-serif; font-size: 15.9402px; fill: rgb(77, 77, 77); fill-opacity: 1; white-space: pre;">300</text></g><g class="ytick"><text text-anchor="end" x="66.15898713158988" y="5.5790784557907696" transform="translate(0,318.1)" style="font-family: 'Open Sans', verdana, arial, sans-serif; font-size: 15.9402px; fill: rgb(77, 77, 77); fill-opacity: 1; white-space: pre;">1000</text></g><g class="ytick"><text text-anchor="end" x="66.15898713158988" y="5.5790784557907696" transform="translate(0,169.35)" style="font-family: 'Open Sans', verdana, arial, sans-serif; font-size: 15.9402px; fill: rgb(77, 77, 77); fill-opacity: 1; white-space: pre;">3000</text></g></g><g class="overaxes-above"/></g></g><g class="polarlayer"/><g class="ternarylayer"/><g class="geolayer"/><g class="funnelarealayer"/><g class="pielayer"/><g class="treemaplayer"/><g class="sunburstlayer"/><g class="glimages"/><defs id="topdefs-588b59"><g class="clips"/><clipPath id="legend588b59"><rect width="134.2204724409449" height="68.22047244094487" x="1.88976377952756" y="1.88976377952756"/></clipPath></defs><g class="layer-above"><g class="imagelayer"/><g class="shapelayer"><path data-index="0" fill-rule="evenodd" d="M74,746H1428V26H74Z" style="opacity: 1; stroke: rgb(51, 51, 51); stroke-opacity: 1; fill: rgb(0, 0, 0); fill-opacity: 0; stroke-width: 0.664176px;"/></g></g><g class="infolayer"><g class="legend" pointer-events="all" transform="translate(1455.08, 72.77165354330717)"><rect class="bg" shape-rendering="crispEdges" style="stroke: rgb(0, 0, 0); stroke-opacity: 0; fill: rgb(255, 255, 255); fill-opacity: 1; stroke-width: 1.88976px;" width="136.11023622047244" height="70.11023622047244" x="0.94488188976378" y="0.94488188976378"/><g class="scrollbox" transform="translate(0, 0)" clip-path="url('#legend588b59')"><g class="groups" transform="translate(0, 0)"><g class="traces" transform="translate(1.88976377952756, 18.75090948313899)" style="opacity: 1;"><text class="legendtext user-select-none" text-anchor="start" x="40" y="6.216687422166858" style="font-family: 'Open Sans', verdana, arial, sans-serif; font-size: 15.9402px; fill: rgb(0, 0, 0); fill-opacity: 1; white-space: pre;">Estimados</text><g class="layers" style="opacity: 1;"><g class="legendfill"/><g class="legendlines"><path class="js-line" d="M5,0h30" style="fill: none; stroke: rgb(228, 26, 28); stroke-opacity: 1; stroke-width: 3.77953px;"/></g><g class="legendsymbols"><g class="legendpoints"/></g></g><rect class="legendtoggle" pointer-events="all" x="0" y="-11.861145703611431" width="129.078125" height="23.722291407222862" style="cursor: pointer; fill: rgb(0, 0, 0); fill-opacity: 0;"/></g></g><g class="groups" transform="translate(0, 10)"><g class="traces" transform="translate(1.88976377952756, 42.47320089036185)" style="opacity: 1;"><text class="legendtext user-select-none" text-anchor="start" x="40" y="6.216687422166858" style="font-family: 'Open Sans', verdana, arial, sans-serif; font-size: 15.9402px; fill: rgb(0, 0, 0); fill-opacity: 1; white-space: pre;">Notificados</text><g class="layers" style="opacity: 1;"><g class="legendfill"/><g class="legendlines"><path class="js-line" d="M5,0h30" style="fill: none; stroke: rgb(55, 126, 184); stroke-opacity: 1; stroke-width: 3.77953px;"/></g><g class="legendsymbols"><g class="legendpoints"/></g></g><rect class="legendtoggle" pointer-events="all" x="0" y="-11.861145703611431" width="129.078125" height="23.722291407222862" style="cursor: pointer; fill: rgb(0, 0, 0); fill-opacity: 0;"/></g></g></g><rect class="scrollbar" rx="20" ry="3" width="0" height="0" style="fill: rgb(128, 139, 164); fill-opacity: 1;" x="0" y="0"/></g><g class="g-gtitle"/><g class="g-xtitle" transform="translate(0,-15.790784557907955)"><text class="xtitle" x="751" y="811.790784557908" text-anchor="middle" style="font-family: 'Open Sans', verdana, arial, sans-serif; font-size: 18.6px; fill: rgb(0, 0, 0); opacity: 1; font-weight: normal; white-space: pre;"><tspan style="font-weight:bold"> Dia do primeiro sintoma </tspan></text></g><g class="g-ytitle" transform="translate(-7.2119140625,0)"><text class="ytitle" transform="rotate(-90,26.8061436280614,386)" x="26.8061436280614" y="386" text-anchor="middle" style="font-family: 'Open Sans', verdana, arial, sans-serif; font-size: 18.6px; fill: rgb(0, 0, 0); opacity: 1; font-weight: normal; white-space: pre;"><tspan style="font-weight:bold"> Número acumulado de casos </tspan></text></g></g></svg>