<svg class="main-svg" xmlns="http://www.w3.org/2000/svg" xmlns:xlink="http://www.w3.org/1999/xlink" width="700" height="500" viewBox="0 0 700 500"><rect x="0" y="0" width="700" height="500" style="fill: rgb(255, 255, 255); fill-opacity: 1;"/><defs id="defs-aabcd4"><g class="clips"><clipPath id="clipaabcd4xyplot" class="plotclip"><rect width="624" height="408"/></clipPath><clipPath class="axesclip" id="clipaabcd4x"><rect x="69" y="0" width="624" height="500"/></clipPath><clipPath class="axesclip" id="clipaabcd4y"><rect x="0" y="43" width="700" height="408"/></clipPath><clipPath class="axesclip" id="clipaabcd4xy"><rect x="69" y="43" width="624" height="408"/></clipPath></g><g class="gradients"/></defs><g class="bglayer"/><g class="layer-below"><g class="imagelayer"/><g class="shapelayer"/></g><g class="cartesianlayer"><g class="subplot xy"><g class="layer-subplot"><g class="shapelayer"/><g class="imagelayer"/></g><g class="gridlayer"><g class="x"><path class="xgrid crisp" transform="translate(148.93,0)" d="M0,43v408" style="stroke: rgb(235, 235, 235); stroke-opacity: 1; stroke-width: 0.664176px;"/><path class="xgrid crisp" transform="translate(293.33000000000004,0)" d="M0,43v408" style="stroke: rgb(235, 235, 235); stroke-opacity: 1; stroke-width: 0.664176px;"/><path class="xgrid crisp" transform="translate(468.67,0)" d="M0,43v408" style="stroke: rgb(235, 235, 235); stroke-opacity: 1; stroke-width: 0.664176px;"/><path class="xgrid crisp" transform="translate(613.07,0)" d="M0,43v408" style="stroke: rgb(235, 235, 235); stroke-opacity: 1; stroke-width: 0.664176px;"/></g><g class="y"><path class="ygrid crisp" transform="translate(0,432.45)" d="M69,0h624" style="stroke: rgb(235, 235, 235); stroke-opacity: 1; stroke-width: 0.664176px;"/><path class="ygrid crisp" transform="translate(0,334.94)" d="M69,0h624" style="stroke: rgb(235, 235, 235); stroke-opacity: 1; stroke-width: 0.664176px;"/><path class="ygrid crisp" transform="translate(0,237.43)" d="M69,0h624" style="stroke: rgb(235, 235, 235); stroke-opacity: 1; stroke-width: 0.664176px;"/><path class="ygrid crisp" transform="translate(0,139.92000000000002)" d="M69,0h624" style="stroke: rgb(235, 235, 235); stroke-opacity: 1; stroke-width: 0.664176px;"/></g></g><g class="zerolinelayer"/><path class="xlines-below"/><path class="ylines-below"/><g class="overlines-below"/><g class="xaxislayer-below"/><g class="yaxislayer-below"/><g class="overaxes-below"/><g class="plot" transform="translate(69, 43)" clip-path="url('#clipaabcd4xyplot')"><g class="scatterlayer mlayer"><g class="trace scatter tracee26975" style="stroke-miterlimit: 2; opacity: 1;"><g class="fills"><g><path class="js-fill" d="M554.38,38.55L595.64,25.21ZM595.64,18.55L554.38,35.53Z" style="fill: rgb(211, 211, 211); fill-opacity: 1; stroke-width: 0;"/></g></g><g class="errorbars"/><g class="lines"><path class="js-line" d="M554.38,38.55L595.64,25.21" style="vector-effect: non-scaling-stroke; fill: none; stroke: rgb(0, 0, 0); stroke-opacity: 0; stroke-width: 1.88976px; opacity: 1;"/><path class="js-line" d="M595.64,18.55L554.38,35.53" style="vector-effect: non-scaling-stroke; fill: none; stroke: rgb(0, 0, 0); stroke-opacity: 0; stroke-width: 1.88976px; opacity: 1;"/></g><g class="points"/><g class="text"/></g><g class="trace scatter traceb29974" style="stroke-miterlimit: 2; opacity: 1;"><g class="fills"/><g class="errorbars"/><g class="lines"><path class="js-line" d="M121.19,389.45L131.5,389.45L141.82,360.1L152.13,342.93L162.45,342.93L172.76,301.39L183.07,280.83L193.39,272.04L203.7,272.04L214.02,258.55L224.33,254.87L234.64,244.03L244.96,241.38L255.27,228.25L265.59,212.68L275.9,190.78L286.21,187.07L296.53,168.15L306.84,158.61L317.16,147.21L327.47,139.03L337.79,133.56L348.1,126.87L358.41,121.63L368.73,118.55L389.36,111.54L399.67,104.71L409.98,97.26L420.3,93.9L430.61,87.61L440.93,82.85L451.24,80.87L461.55,74.75L482.18,63.22L492.5,58.73L502.81,56.34L513.12,52.49L523.44,47.25L533.75,44.97L595.64,21.88" style="vector-effect: non-scaling-stroke; fill: none; stroke: rgb(0, 0, 0); stroke-opacity: 1; stroke-width: 1.88976px; opacity: 1;"/></g><g class="points"/><g class="text"/></g><g class="trace scatter traced81b09" style="stroke-miterlimit: 2; opacity: 1;"><g class="fills"/><g class="errorbars"/><g class="lines"/><g class="points"><path class="point" transform="translate(121.19,389.45)" d="M3.78,0A3.78,3.78 0 1,1 0,-3.78A3.78,3.78 0 0,1 3.78,0Z" style="opacity: 1; stroke-width: 1.88976px; fill: rgb(0, 0, 0); fill-opacity: 1; stroke: rgb(0, 0, 0); stroke-opacity: 1;"/><path class="point" transform="translate(131.5,389.45)" d="M3.78,0A3.78,3.78 0 1,1 0,-3.78A3.78,3.78 0 0,1 3.78,0Z" style="opacity: 1; stroke-width: 1.88976px; fill: rgb(0, 0, 0); fill-opacity: 1; stroke: rgb(0, 0, 0); stroke-opacity: 1;"/><path class="point" transform="translate(141.82,360.1)" d="M3.78,0A3.78,3.78 0 1,1 0,-3.78A3.78,3.78 0 0,1 3.78,0Z" style="opacity: 1; stroke-width: 1.88976px; fill: rgb(0, 0, 0); fill-opacity: 1; stroke: rgb(0, 0, 0); stroke-opacity: 1;"/><path class="point" transform="translate(152.13,342.93)" d="M3.78,0A3.78,3.78 0 1,1 0,-3.78A3.78,3.78 0 0,1 3.78,0Z" style="opacity: 1; stroke-width: 1.88976px; fill: rgb(0, 0, 0); fill-opacity: 1; stroke: rgb(0, 0, 0); stroke-opacity: 1;"/><path class="point" transform="translate(162.45,342.93)" d="M3.78,0A3.78,3.78 0 1,1 0,-3.78A3.78,3.78 0 0,1 3.78,0Z" style="opacity: 1; stroke-width: 1.88976px; fill: rgb(0, 0, 0); fill-opacity: 1; stroke: rgb(0, 0, 0); stroke-opacity: 1;"/><path class="point" transform="translate(172.76,301.39)" d="M3.78,0A3.78,3.78 0 1,1 0,-3.78A3.78,3.78 0 0,1 3.78,0Z" style="opacity: 1; stroke-width: 1.88976px; fill: rgb(0, 0, 0); fill-opacity: 1; stroke: rgb(0, 0, 0); stroke-opacity: 1;"/><path class="point" transform="translate(183.07,280.83)" d="M3.78,0A3.78,3.78 0 1,1 0,-3.78A3.78,3.78 0 0,1 3.78,0Z" style="opacity: 1; stroke-width: 1.88976px; fill: rgb(0, 0, 0); fill-opacity: 1; stroke: rgb(0, 0, 0); stroke-opacity: 1;"/><path class="point" transform="translate(193.39,272.04)" d="M3.78,0A3.78,3.78 0 1,1 0,-3.78A3.78,3.78 0 0,1 3.78,0Z" style="opacity: 1; stroke-width: 1.88976px; fill: rgb(0, 0, 0); fill-opacity: 1; stroke: rgb(0, 0, 0); stroke-opacity: 1;"/><path class="point" transform="translate(203.7,272.04)" d="M3.78,0A3.78,3.78 0 1,1 0,-3.78A3.78,3.78 0 0,1 3.78,0Z" style="opacity: 1; stroke-width: 1.88976px; fill: rgb(0, 0, 0); fill-opacity: 1; stroke: rgb(0, 0, 0); stroke-opacity: 1;"/><path class="point" transform="translate(214.02,258.55)" d="M3.78,0A3.78,3.78 0 1,1 0,-3.78A3.78,3.78 0 0,1 3.78,0Z" style="opacity: 1; stroke-width: 1.88976px; fill: rgb(0, 0, 0); fill-opacity: 1; stroke: rgb(0, 0, 0); stroke-opacity: 1;"/><path class="point" transform="translate(224.33,254.87)" d="M3.78,0A3.78,3.78 0 1,1 0,-3.78A3.78,3.78 0 0,1 3.78,0Z" style="opacity: 1; stroke-width: 1.88976px; fill: rgb(0, 0, 0); fill-opacity: 1; stroke: rgb(0, 0, 0); stroke-opacity: 1;"/><path class="point" transform="translate(234.64,244.03)" d="M3.78,0A3.78,3.78 0 1,1 0,-3.78A3.78,3.78 0 0,1 3.78,0Z" style="opacity: 1; stroke-width: 1.88976px; fill: rgb(0, 0, 0); fill-opacity: 1; stroke: rgb(0, 0, 0); stroke-opacity: 1;"/><path class="point" transform="translate(244.96,241.38)" d="M3.78,0A3.78,3.78 0 1,1 0,-3.78A3.78,3.78 0 0,1 3.78,0Z" style="opacity: 1; stroke-width: 1.88976px; fill: rgb(0, 0, 0); fill-opacity: 1; stroke: rgb(0, 0, 0); stroke-opacity: 1;"/><path class="point" transform="translate(255.27,228.25)" d="M3.78,0A3.78,3.78 0 1,1 0,-3.78A3.78,3.78 0 0,1 3.78,0Z" style="opacity: 1; stroke-width: 1.88976px; fill: rgb(0, 0, 0); fill-opacity: 1; stroke: rgb(0, 0, 0); stroke-opacity: 1;"/><path class="point" transform="translate(265.59,212.68)" d="M3.78,0A3.78,3.78 0 1,1 0,-3.78A3.78,3.78 0 0,1 3.78,0Z" style="opacity: 1; stroke-width: 1.88976px; fill: rgb(0, 0, 0); fill-opacity: 1; stroke: rgb(0, 0, 0); stroke-opacity: 1;"/><path class="point" transform="translate(275.9,190.78)" d="M3.78,0A3.78,3.78 0 1,1 0,-3.78A3.78,3.78 0 0,1 3.78,0Z" style="opacity: 1; stroke-width: 1.88976px; fill: rgb(0, 0, 0); fill-opacity: 1; stroke: rgb(0, 0, 0); stroke-opacity: 1;"/><path class="point" transform="translate(286.21,187.07)" d="M3.78,0A3.78,3.78 0 1,1 0,-3.78A3.78,3.78 0 0,1 3.78,0Z" style="opacity: 1; stroke-width: 1.88976px; fill: rgb(0, 0, 0); fill-opacity: 1; stroke: rgb(0, 0, 0); stroke-opacity: 1;"/><path class="point" transform="translate(296.53,168.15)" d="M3.78,0A3.78,3.78 0 1,1 0,-3.78A3.78,3.78 0 0,1 3.78,0Z" style="opacity: 1; stroke-width: 1.88976px; fill: rgb(0, 0, 0); fill-opacity: 1; stroke: rgb(0, 0, 0); stroke-opacity: 1;"/><path class="point" transform="translate(306.84,158.61)" d="M3.78,0A3.78,3.78 0 1,1 0,-3.78A3.78,3.78 0 0,1 3.78,0Z" style="opacity: 1; stroke-width: 1.88976px; fill: rgb(0, 0, 0); fill-opacity: 1; stroke: rgb(0, 0, 0); stroke-opacity: 1;"/><path class="point" transform="translate(317.16,147.21)" d="M3.78,0A3.78,3.78 0 1,1 0,-3.78A3.78,3.78 0 0,1 3.78,0Z" style="opacity: 1; stroke-width: 1.88976px; fill: rgb(0, 0, 0); fill-opacity: 1; stroke: rgb(0, 0, 0); stroke-opacity: 1;"/><path class="point" transform="translate(327.47,139.03)" d="M3.78,0A3.78,3.78 0 1,1 0,-3.78A3.78,3.78 0 0,1 3.78,0Z" style="opacity: 1; stroke-width: 1.88976px; fill: rgb(0, 0, 0); fill-opacity: 1; stroke: rgb(0, 0, 0); stroke-opacity: 1;"/><path class="point" transform="translate(337.79,133.56)" d="M3.78,0A3.78,3.78 0 1,1 0,-3.78A3.78,3.78 0 0,1 3.78,0Z" style="opacity: 1; stroke-width: 1.88976px; fill: rgb(0, 0, 0); fill-opacity: 1; stroke: rgb(0, 0, 0); stroke-opacity: 1;"/><path class="point" transform="translate(348.1,126.87)" d="M3.78,0A3.78,3.78 0 1,1 0,-3.78A3.78,3.78 0 0,1 3.78,0Z" style="opacity: 1; stroke-width: 1.88976px; fill: rgb(0, 0, 0); fill-opacity: 1; stroke: rgb(0, 0, 0); stroke-opacity: 1;"/><path class="point" transform="translate(358.41,121.63)" d="M3.78,0A3.78,3.78 0 1,1 0,-3.78A3.78,3.78 0 0,1 3.78,0Z" style="opacity: 1; stroke-width: 1.88976px; fill: rgb(0, 0, 0); fill-opacity: 1; stroke: rgb(0, 0, 0); stroke-opacity: 1;"/><path class="point" transform="translate(368.73,118.55)" d="M3.78,0A3.78,3.78 0 1,1 0,-3.78A3.78,3.78 0 0,1 3.78,0Z" style="opacity: 1; stroke-width: 1.88976px; fill: rgb(0, 0, 0); fill-opacity: 1; stroke: rgb(0, 0, 0); stroke-opacity: 1;"/><path class="point" transform="translate(379.04,114.71)" d="M3.78,0A3.78,3.78 0 1,1 0,-3.78A3.78,3.78 0 0,1 3.78,0Z" style="opacity: 1; stroke-width: 1.88976px; fill: rgb(0, 0, 0); fill-opacity: 1; stroke: rgb(0, 0, 0); stroke-opacity: 1;"/><path class="point" transform="translate(389.36,111.54)" d="M3.78,0A3.78,3.78 0 1,1 0,-3.78A3.78,3.78 0 0,1 3.78,0Z" style="opacity: 1; stroke-width: 1.88976px; fill: rgb(0, 0, 0); fill-opacity: 1; stroke: rgb(0, 0, 0); stroke-opacity: 1;"/><path class="point" transform="translate(399.67,104.71)" d="M3.78,0A3.78,3.78 0 1,1 0,-3.78A3.78,3.78 0 0,1 3.78,0Z" style="opacity: 1; stroke-width: 1.88976px; fill: rgb(0, 0, 0); fill-opacity: 1; stroke: rgb(0, 0, 0); stroke-opacity: 1;"/><path class="point" transform="translate(409.98,97.26)" d="M3.78,0A3.78,3.78 0 1,1 0,-3.78A3.78,3.78 0 0,1 3.78,0Z" style="opacity: 1; stroke-width: 1.88976px; fill: rgb(0, 0, 0); fill-opacity: 1; stroke: rgb(0, 0, 0); stroke-opacity: 1;"/><path class="point" transform="translate(420.3,93.9)" d="M3.78,0A3.78,3.78 0 1,1 0,-3.78A3.78,3.78 0 0,1 3.78,0Z" style="opacity: 1; stroke-width: 1.88976px; fill: rgb(0, 0, 0); fill-opacity: 1; stroke: rgb(0, 0, 0); stroke-opacity: 1;"/><path class="point" transform="translate(430.61,87.61)" d="M3.78,0A3.78,3.78 0 1,1 0,-3.78A3.78,3.78 0 0,1 3.78,0Z" style="opacity: 1; stroke-width: 1.88976px; fill: rgb(0, 0, 0); fill-opacity: 1; stroke: rgb(0, 0, 0); stroke-opacity: 1;"/><path class="point" transform="translate(440.93,82.85)" d="M3.78,0A3.78,3.78 0 1,1 0,-3.78A3.78,3.78 0 0,1 3.78,0Z" style="opacity: 1; stroke-width: 1.88976px; fill: rgb(0, 0, 0); fill-opacity: 1; stroke: rgb(0, 0, 0); stroke-opacity: 1;"/><path class="point" transform="translate(451.24,80.87)" d="M3.78,0A3.78,3.78 0 1,1 0,-3.78A3.78,3.78 0 0,1 3.78,0Z" style="opacity: 1; stroke-width: 1.88976px; fill: rgb(0, 0, 0); fill-opacity: 1; stroke: rgb(0, 0, 0); stroke-opacity: 1;"/><path class="point" transform="translate(461.55,74.75)" d="M3.78,0A3.78,3.78 0 1,1 0,-3.78A3.78,3.78 0 0,1 3.78,0Z" style="opacity: 1; stroke-width: 1.88976px; fill: rgb(0, 0, 0); fill-opacity: 1; stroke: rgb(0, 0, 0); stroke-opacity: 1;"/><path class="point" transform="translate(471.87,68.9)" d="M3.78,0A3.78,3.78 0 1,1 0,-3.78A3.78,3.78 0 0,1 3.78,0Z" style="opacity: 1; stroke-width: 1.88976px; fill: rgb(0, 0, 0); fill-opacity: 1; stroke: rgb(0, 0, 0); stroke-opacity: 1;"/><path class="point" transform="translate(482.18,63.22)" d="M3.78,0A3.78,3.78 0 1,1 0,-3.78A3.78,3.78 0 0,1 3.78,0Z" style="opacity: 1; stroke-width: 1.88976px; fill: rgb(0, 0, 0); fill-opacity: 1; stroke: rgb(0, 0, 0); stroke-opacity: 1;"/><path class="point" transform="translate(492.5,58.73)" d="M3.78,0A3.78,3.78 0 1,1 0,-3.78A3.78,3.78 0 0,1 3.78,0Z" style="opacity: 1; stroke-width: 1.88976px; fill: rgb(0, 0, 0); fill-opacity: 1; stroke: rgb(0, 0, 0); stroke-opacity: 1;"/><path class="point" transform="translate(502.81,56.34)" d="M3.78,0A3.78,3.78 0 1,1 0,-3.78A3.78,3.78 0 0,1 3.78,0Z" style="opacity: 1; stroke-width: 1.88976px; fill: rgb(0, 0, 0); fill-opacity: 1; stroke: rgb(0, 0, 0); stroke-opacity: 1;"/><path class="point" transform="translate(513.12,52.49)" d="M3.78,0A3.78,3.78 0 1,1 0,-3.78A3.78,3.78 0 0,1 3.78,0Z" style="opacity: 1; stroke-width: 1.88976px; fill: rgb(0, 0, 0); fill-opacity: 1; stroke: rgb(0, 0, 0); stroke-opacity: 1;"/><path class="point" transform="translate(523.44,47.25)" d="M3.78,0A3.78,3.78 0 1,1 0,-3.78A3.78,3.78 0 0,1 3.78,0Z" style="opacity: 1; stroke-width: 1.88976px; fill: rgb(0, 0, 0); fill-opacity: 1; stroke: rgb(0, 0, 0); stroke-opacity: 1;"/><path class="point" transform="translate(533.75,44.97)" d="M3.78,0A3.78,3.78 0 1,1 0,-3.78A3.78,3.78 0 0,1 3.78,0Z" style="opacity: 1; stroke-width: 1.88976px; fill: rgb(0, 0, 0); fill-opacity: 1; stroke: rgb(0, 0, 0); stroke-opacity: 1;"/><path class="point" transform="translate(544.07,41.03)" d="M3.78,0A3.78,3.78 0 1,1 0,-3.78A3.78,3.78 0 0,1 3.78,0Z" style="opacity: 1; stroke-width: 1.88976px; fill: rgb(0, 0, 0); fill-opacity: 1; stroke: rgb(0, 0, 0); stroke-opacity: 1;"/><path class="point" transform="translate(554.38,37.04)" d="M3.78,0A3.78,3.78 0 1,1 0,-3.78A3.78,3.78 0 0,1 3.78,0Z" style="opacity: 1; stroke-width: 1.88976px; fill: rgb(0, 0, 0); fill-opacity: 1; stroke: rgb(0, 0, 0); stroke-opacity: 1;"/></g><g class="text"/></g><g class="trace scatter tracee6cdcd" style="stroke-miterlimit: 2; opacity: 1;"><g class="fills"/><g class="errorbars"/><g class="lines"/><g class="points"><path class="point" transform="translate(554.38,37.04)" d="M3.78,0A3.78,3.78 0 1,1 0,-3.78A3.78,3.78 0 0,1 3.78,0Z" style="opacity: 1; stroke-width: 1.88976px; fill: rgb(0, 123, 255); fill-opacity: 1; stroke: rgb(0, 123, 255); stroke-opacity: 1;"/><path class="point" transform="translate(564.69,33.25)" d="M3.78,0A3.78,3.78 0 1,1 0,-3.78A3.78,3.78 0 0,1 3.78,0Z" style="opacity: 1; stroke-width: 1.88976px; fill: rgb(0, 123, 255); fill-opacity: 1; stroke: rgb(0, 123, 255); stroke-opacity: 1;"/><path class="point" transform="translate(575.01,29.46)" d="M3.78,0A3.78,3.78 0 1,1 0,-3.78A3.78,3.78 0 0,1 3.78,0Z" style="opacity: 1; stroke-width: 1.88976px; fill: rgb(0, 123, 255); fill-opacity: 1; stroke: rgb(0, 123, 255); stroke-opacity: 1;"/><path class="point" transform="translate(585.32,25.67)" d="M3.78,0A3.78,3.78 0 1,1 0,-3.78A3.78,3.78 0 0,1 3.78,0Z" style="opacity: 1; stroke-width: 1.88976px; fill: rgb(0, 123, 255); fill-opacity: 1; stroke: rgb(0, 123, 255); stroke-opacity: 1;"/><path class="point" transform="translate(595.64,21.88)" d="M3.78,0A3.78,3.78 0 1,1 0,-3.78A3.78,3.78 0 0,1 3.78,0Z" style="opacity: 1; stroke-width: 1.88976px; fill: rgb(0, 123, 255); fill-opacity: 1; stroke: rgb(0, 123, 255); stroke-opacity: 1;"/></g><g class="text"/></g></g></g><g class="overplot"/><path class="xlines-above crisp" d="" style="fill: none; stroke-width: 1px; stroke: rgb(0, 0, 0); stroke-opacity: 0;"/><path class="ylines-above crisp" d="" style="fill: none; stroke-width: 1px; stroke: rgb(0, 0, 0); stroke-opacity: 0;"/><g class="overlines-above"/><g class="xaxislayer-above"><path class="xtick ticks crisp" d="M0,452v3.65296803652968" transform="translate(148.93,0)" style="stroke: rgb(51, 51, 51); stroke-opacity: 1; stroke-width: 0.664176px;"/><path class="xtick ticks crisp" d="M0,452v3.65296803652968" transform="translate(293.33000000000004,0)" style="stroke: rgb(51, 51, 51); stroke-opacity: 1; stroke-width: 0.664176px;"/><path class="xtick ticks crisp" d="M0,452v3.65296803652968" transform="translate(468.67,0)" style="stroke: rgb(51, 51, 51); stroke-opacity: 1; stroke-width: 0.664176px;"/><path class="xtick ticks crisp" d="M0,452v3.65296803652968" transform="translate(613.07,0)" style="stroke: rgb(51, 51, 51); stroke-opacity: 1; stroke-width: 0.664176px;"/><g class="xtick"><text text-anchor="middle" x="0" y="474.7812370278123" transform="translate(148.93,0)" style="font-family: 'Open Sans', verdana, arial, sans-serif; font-size: 15.9402px; fill: rgb(77, 77, 77); fill-opacity: 1; white-space: pre;">01/mar</text></g><g class="xtick"><text text-anchor="middle" x="0" y="474.7812370278123" transform="translate(293.33000000000004,0)" style="font-family: 'Open Sans', verdana, arial, sans-serif; font-size: 15.9402px; fill: rgb(77, 77, 77); fill-opacity: 1; white-space: pre;">15/mar</text></g><g class="xtick"><text text-anchor="middle" x="0" y="474.7812370278123" transform="translate(468.67,0)" style="font-family: 'Open Sans', verdana, arial, sans-serif; font-size: 15.9402px; fill: rgb(77, 77, 77); fill-opacity: 1; white-space: pre;">01/abr</text></g><g class="xtick"><text text-anchor="middle" x="0" y="474.7812370278123" transform="translate(613.07,0)" style="font-family: 'Open Sans', verdana, arial, sans-serif; font-size: 15.9402px; fill: rgb(77, 77, 77); fill-opacity: 1; white-space: pre;">15/abr</text></g></g><g class="yaxislayer-above"><path class="ytick ticks crisp" d="M68,0h-3.65296803652968" transform="translate(0,432.45)" style="stroke: rgb(51, 51, 51); stroke-opacity: 1; stroke-width: 0.664176px;"/><path class="ytick ticks crisp" d="M68,0h-3.65296803652968" transform="translate(0,334.94)" style="stroke: rgb(51, 51, 51); stroke-opacity: 1; stroke-width: 0.664176px;"/><path class="ytick ticks crisp" d="M68,0h-3.65296803652968" transform="translate(0,237.43)" style="stroke: rgb(51, 51, 51); stroke-opacity: 1; stroke-width: 0.664176px;"/><path class="ytick ticks crisp" d="M68,0h-3.65296803652968" transform="translate(0,139.92000000000002)" style="stroke: rgb(51, 51, 51); stroke-opacity: 1; stroke-width: 0.664176px;"/><g class="ytick"><text text-anchor="end" x="61.15898713158988" y="5.5790784557907696" transform="translate(0,432.45)" style="font-family: 'Open Sans', verdana, arial, sans-serif; font-size: 15.9402px; fill: rgb(77, 77, 77); fill-opacity: 1; white-space: pre;">1</text></g><g class="ytick"><text text-anchor="end" x="61.15898713158988" y="5.5790784557907696" transform="translate(0,334.94)" style="font-family: 'Open Sans', verdana, arial, sans-serif; font-size: 15.9402px; fill: rgb(77, 77, 77); fill-opacity: 1; white-space: pre;">10</text></g><g class="ytick"><text text-anchor="end" x="61.15898713158988" y="5.5790784557907696" transform="translate(0,237.43)" style="font-family: 'Open Sans', verdana, arial, sans-serif; font-size: 15.9402px; fill: rgb(77, 77, 77); fill-opacity: 1; white-space: pre;">100</text></g><g class="ytick"><text text-anchor="end" x="61.15898713158988" y="5.5790784557907696" transform="translate(0,139.92000000000002)" style="font-family: 'Open Sans', verdana, arial, sans-serif; font-size: 15.9402px; fill: rgb(77, 77, 77); fill-opacity: 1; white-space: pre;">1000</text></g></g><g class="overaxes-above"/></g></g><g class="polarlayer"/><g class="ternarylayer"/><g class="geolayer"/><g class="funnelarealayer"/><g class="pielayer"/><g class="treemaplayer"/><g class="sunburstlayer"/><g class="glimages"/><defs id="topdefs-aabcd4"><g class="clips"/></defs><g class="layer-above"><g class="imagelayer"/><g class="shapelayer"><path data-index="0" fill-rule="evenodd" d="M69,451H693V43H69Z" style="opacity: 1; stroke: rgb(51, 51, 51); stroke-opacity: 1; fill: rgb(0, 0, 0); fill-opacity: 0; stroke-width: 0.664176px;"/></g></g><g class="infolayer"><g class="g-gtitle"><text class="gtitle" x="69" y="21.5" text-anchor="start" dy="0em" style="font-family: 'Open Sans', verdana, arial, sans-serif; font-size: 17.53px; fill: rgb(0, 0, 0); opacity: 1; font-weight: normal; white-space: pre;">Número de casos notificados em RJ em escala logarítimica</text></g><g class="g-xtitle"/><g class="g-ytitle"><text class="ytitle" transform="rotate(-90,21.8061436280614,247)" x="21.8061436280614" y="247" text-anchor="middle" style="font-family: 'Open Sans', verdana, arial, sans-serif; font-size: 18.6px; fill: rgb(0, 0, 0); opacity: 1; font-weight: normal; white-space: pre;"><tspan style="font-weight:bold"> Número de casos </tspan></text></g></g></svg>