<svg class="main-svg" xmlns="http://www.w3.org/2000/svg" xmlns:xlink="http://www.w3.org/1999/xlink" width="700" height="500" viewBox="0 0 700 500"><rect x="0" y="0" width="700" height="500" style="fill: rgb(255, 255, 255); fill-opacity: 1;"/><defs id="defs-8a91ab"><g class="clips"><clipPath id="clip8a91abxyplot" class="plotclip"><rect width="649" height="420"/></clipPath><clipPath class="axesclip" id="clip8a91abx"><rect x="44" y="0" width="649" height="500"/></clipPath><clipPath class="axesclip" id="clip8a91aby"><rect x="0" y="26" width="700" height="420"/></clipPath><clipPath class="axesclip" id="clip8a91abxy"><rect x="44" y="26" width="649" height="420"/></clipPath></g><g class="gradients"/></defs><g class="bglayer"/><g class="layer-below"><g class="imagelayer"/><g class="shapelayer"/></g><g class="cartesianlayer"><g class="subplot xy"><g class="layer-subplot"><g class="shapelayer"/><g class="imagelayer"/></g><g class="gridlayer"><g class="x"><path class="xgrid crisp" transform="translate(120.08,0)" d="M0,26v420" style="stroke: rgb(235, 235, 235); stroke-opacity: 1; stroke-width: 0.664176px;"/><path class="xgrid crisp" transform="translate(228.76,0)" d="M0,26v420" style="stroke: rgb(235, 235, 235); stroke-opacity: 1; stroke-width: 0.664176px;"/><path class="xgrid crisp" transform="translate(337.45,0)" d="M0,26v420" style="stroke: rgb(235, 235, 235); stroke-opacity: 1; stroke-width: 0.664176px;"/><path class="xgrid crisp" transform="translate(446.13,0)" d="M0,26v420" style="stroke: rgb(235, 235, 235); stroke-opacity: 1; stroke-width: 0.664176px;"/><path class="xgrid crisp" transform="translate(554.8199999999999,0)" d="M0,26v420" style="stroke: rgb(235, 235, 235); stroke-opacity: 1; stroke-width: 0.664176px;"/><path class="xgrid crisp" transform="translate(663.5,0)" d="M0,26v420" style="stroke: rgb(235, 235, 235); stroke-opacity: 1; stroke-width: 0.664176px;"/></g><g class="y"><path class="ygrid crisp" transform="translate(0,400.47)" d="M44,0h649" style="stroke: rgb(235, 235, 235); stroke-opacity: 1; stroke-width: 0.664176px;"/><path class="ygrid crisp" transform="translate(0,304.49)" d="M44,0h649" style="stroke: rgb(235, 235, 235); stroke-opacity: 1; stroke-width: 0.664176px;"/><path class="ygrid crisp" transform="translate(0,208.52)" d="M44,0h649" style="stroke: rgb(235, 235, 235); stroke-opacity: 1; stroke-width: 0.664176px;"/><path class="ygrid crisp" transform="translate(0,112.55)" d="M44,0h649" style="stroke: rgb(235, 235, 235); stroke-opacity: 1; stroke-width: 0.664176px;"/></g></g><g class="zerolinelayer"/><path class="xlines-below"/><path class="ylines-below"/><g class="overlines-below"/><g class="xaxislayer-below"/><g class="yaxislayer-below"/><g class="overaxes-below"/><g class="plot" transform="translate(44, 26)" clip-path="url('#clip8a91abxyplot')"><g class="scatterlayer mlayer"><g class="trace scatter tracec16292" style="stroke-miterlimit: 2; opacity: 1;"><g class="fills"><g><path class="js-fill" d="M29.5,296.72L45.03,280.64L60.55,258.52L76.08,245.78L91.61,231.59L107.13,239.67L122.66,243.91L138.18,250.22L153.71,248.65L169.24,259.87L184.76,267.57L200.29,288.08L215.82,302.29L231.34,313.64L246.87,318.17L262.39,325.85L277.92,335.59L293.45,337.81L308.97,344.55L355.55,359.26L371.08,366.86L386.61,372.99L402.13,378.13L417.66,384.51L433.18,389.48L464.24,397.57L479.76,400.67L495.29,400.91L510.82,398.99L526.34,397.52L541.87,396.83L572.92,394.4L588.45,392.63L603.97,390.19L619.5,389.98L619.5,377.16L603.97,377.25L588.45,379.9L572.92,381.69L557.39,383.19L541.87,383.86L526.34,384.48L510.82,386.23L495.29,388.94L479.76,389.39L464.24,386.81L448.71,383.03L433.18,378.78L417.66,373.12L386.61,358.01L371.08,348.89L355.55,338.08L340.03,329.53L308.97,311.42L293.45,298.41L277.92,290.7L262.39,271.6L246.87,252.23L231.34,234.2L215.82,202.55L200.29,168.18L184.76,124.54L169.24,104.03L153.71,72.46L138.18,64.57L122.66,41.18L107.13,30.76L91.61,19.09L76.08,48.61L60.55,74.49L45.03,115.22L29.5,132.04L29.5,296.72Z" style="fill: rgb(211, 211, 211); fill-opacity: 1; stroke-width: 0;"/></g></g><g class="errorbars"/><g class="lines"><path class="js-line" d="M29.5,296.72L45.03,280.64L60.55,258.52L76.08,245.78L91.61,231.59L107.13,239.67L122.66,243.91L138.18,250.22L153.71,248.65L169.24,259.87L184.76,267.57L200.29,288.08L215.82,302.29L231.34,313.64L246.87,318.17L262.39,325.85L277.92,335.59L293.45,337.81L308.97,344.55L355.55,359.26L371.08,366.86L386.61,372.99L402.13,378.13L417.66,384.51L433.18,389.48L464.24,397.57L479.76,400.67L495.29,400.91L510.82,398.99L526.34,397.52L541.87,396.83L572.92,394.4L588.45,392.63L603.97,390.19L619.5,389.98L619.5,377.16L603.97,377.25L588.45,379.9L572.92,381.69L557.39,383.19L541.87,383.86L526.34,384.48L510.82,386.23L495.29,388.94L479.76,389.39L464.24,386.81L448.71,383.03L433.18,378.78L417.66,373.12L386.61,358.01L371.08,348.89L355.55,338.08L340.03,329.53L308.97,311.42L293.45,298.41L277.92,290.7L262.39,271.6L246.87,252.23L231.34,234.2L215.82,202.55L200.29,168.18L184.76,124.54L169.24,104.03L153.71,72.46L138.18,64.57L122.66,41.18L107.13,30.76L91.61,19.09L76.08,48.61L60.55,74.49L45.03,115.22L29.5,132.04L29.5,296.72" style="vector-effect: non-scaling-stroke; fill: none; stroke: rgb(0, 0, 0); stroke-opacity: 0; stroke-width: 1.88976px; opacity: 1;"/></g><g class="points"/><g class="text"/></g><g class="trace scatter tracec9d3fb" style="stroke-miterlimit: 2; opacity: 1;"><g class="fills"/><g class="errorbars"/><g class="lines"><path class="js-line" d="M29.5,222.89L45.03,205.3L60.55,174.48L76.08,157.32L91.61,136.75L107.13,147.37L122.66,155.28L138.18,169.52L153.71,171.85L169.24,190.96L184.76,204.74L200.29,234.86L215.82,258.28L231.34,278.46L246.87,288.82L262.39,301.03L277.92,314.89L293.45,319.44L308.97,328.99L355.55,349.15L371.08,358.28L386.61,365.81L402.13,371.87L417.66,378.95L433.18,384.25L464.24,392.36L479.76,395.18L495.29,395.06L510.82,392.78L541.87,390.52L557.39,389.64L588.45,386.4L603.97,383.86L619.5,383.71" style="vector-effect: non-scaling-stroke; fill: none; stroke: rgb(117, 112, 179); stroke-opacity: 1; stroke-width: 4.72441px; opacity: 1;"/></g><g class="points"/><g class="text"/></g><g class="trace scatter trace98c62c" style="stroke-miterlimit: 2; opacity: 1;"><g class="fills"/><g class="errorbars"/><g class="lines"><path class="js-line" d="M0,374.47L649,374.47" style="vector-effect: non-scaling-stroke; fill: none; stroke: rgb(255, 0, 0); stroke-opacity: 1; stroke-width: 3.77953px; opacity: 1; stroke-dasharray: 11.3386px, 11.3386px;"/></g><g class="points"/><g class="text"/></g></g></g><g class="overplot"/><path class="xlines-above crisp" d="" style="fill: none; stroke-width: 1px; stroke: rgb(0, 0, 0); stroke-opacity: 0;"/><path class="ylines-above crisp" d="" style="fill: none; stroke-width: 1px; stroke: rgb(0, 0, 0); stroke-opacity: 0;"/><g class="overlines-above"/><g class="xaxislayer-above"><path class="xtick ticks crisp" d="M0,447v3.65296803652968" transform="translate(120.08,0)" style="stroke: rgb(51, 51, 51); stroke-opacity: 1; stroke-width: 0.664176px;"/><path class="xtick ticks crisp" d="M0,447v3.65296803652968" transform="translate(228.76,0)" style="stroke: rgb(51, 51, 51); stroke-opacity: 1; stroke-width: 0.664176px;"/><path class="xtick ticks crisp" d="M0,447v3.65296803652968" transform="translate(337.45,0)" style="stroke: rgb(51, 51, 51); stroke-opacity: 1; stroke-width: 0.664176px;"/><path class="xtick ticks crisp" d="M0,447v3.65296803652968" transform="translate(446.13,0)" style="stroke: rgb(51, 51, 51); stroke-opacity: 1; stroke-width: 0.664176px;"/><path class="xtick ticks crisp" d="M0,447v3.65296803652968" transform="translate(554.8199999999999,0)" style="stroke: rgb(51, 51, 51); stroke-opacity: 1; stroke-width: 0.664176px;"/><path class="xtick ticks crisp" d="M0,447v3.65296803652968" transform="translate(663.5,0)" style="stroke: rgb(51, 51, 51); stroke-opacity: 1; stroke-width: 0.664176px;"/><g class="xtick"><text text-anchor="middle" x="0" y="469.7812370278123" transform="translate(120.08,0)" style="font-family: 'Open Sans', verdana, arial, sans-serif; font-size: 15.9402px; fill: rgb(77, 77, 77); fill-opacity: 1; white-space: pre;">09/Mar</text></g><g class="xtick"><text text-anchor="middle" x="0" y="469.7812370278123" transform="translate(228.76,0)" style="font-family: 'Open Sans', verdana, arial, sans-serif; font-size: 15.9402px; fill: rgb(77, 77, 77); fill-opacity: 1; white-space: pre;">16/Mar</text></g><g class="xtick"><text text-anchor="middle" x="0" y="469.7812370278123" transform="translate(337.45,0)" style="font-family: 'Open Sans', verdana, arial, sans-serif; font-size: 15.9402px; fill: rgb(77, 77, 77); fill-opacity: 1; white-space: pre;">23/Mar</text></g><g class="xtick"><text text-anchor="middle" x="0" y="469.7812370278123" transform="translate(446.13,0)" style="font-family: 'Open Sans', verdana, arial, sans-serif; font-size: 15.9402px; fill: rgb(77, 77, 77); fill-opacity: 1; white-space: pre;">30/Mar</text></g><g class="xtick"><text text-anchor="middle" x="0" y="469.7812370278123" transform="translate(554.8199999999999,0)" style="font-family: 'Open Sans', verdana, arial, sans-serif; font-size: 15.9402px; fill: rgb(77, 77, 77); fill-opacity: 1; white-space: pre;">06/Apr</text></g><g class="xtick"><text text-anchor="middle" x="0" y="469.7812370278123" transform="translate(663.5,0)" style="font-family: 'Open Sans', verdana, arial, sans-serif; font-size: 15.9402px; fill: rgb(77, 77, 77); fill-opacity: 1; white-space: pre;">13/Apr</text></g></g><g class="yaxislayer-above"><path class="ytick ticks crisp" d="M43,0h-3.65296803652968" transform="translate(0,400.47)" style="stroke: rgb(51, 51, 51); stroke-opacity: 1; stroke-width: 0.664176px;"/><path class="ytick ticks crisp" d="M43,0h-3.65296803652968" transform="translate(0,304.49)" style="stroke: rgb(51, 51, 51); stroke-opacity: 1; stroke-width: 0.664176px;"/><path class="ytick ticks crisp" d="M43,0h-3.65296803652968" transform="translate(0,208.52)" style="stroke: rgb(51, 51, 51); stroke-opacity: 1; stroke-width: 0.664176px;"/><path class="ytick ticks crisp" d="M43,0h-3.65296803652968" transform="translate(0,112.55)" style="stroke: rgb(51, 51, 51); stroke-opacity: 1; stroke-width: 0.664176px;"/><g class="ytick"><text text-anchor="end" x="36.15898713158988" y="5.5790784557907696" transform="translate(0,400.47)" style="font-family: 'Open Sans', verdana, arial, sans-serif; font-size: 15.9402px; fill: rgb(77, 77, 77); fill-opacity: 1; white-space: pre;">1</text></g><g class="ytick"><text text-anchor="end" x="36.15898713158988" y="5.5790784557907696" transform="translate(0,304.49)" style="font-family: 'Open Sans', verdana, arial, sans-serif; font-size: 15.9402px; fill: rgb(77, 77, 77); fill-opacity: 1; white-space: pre;">2</text></g><g class="ytick"><text text-anchor="end" x="36.15898713158988" y="5.5790784557907696" transform="translate(0,208.52)" style="font-family: 'Open Sans', verdana, arial, sans-serif; font-size: 15.9402px; fill: rgb(77, 77, 77); fill-opacity: 1; white-space: pre;">3</text></g><g class="ytick"><text text-anchor="end" x="36.15898713158988" y="5.5790784557907696" transform="translate(0,112.55)" style="font-family: 'Open Sans', verdana, arial, sans-serif; font-size: 15.9402px; fill: rgb(77, 77, 77); fill-opacity: 1; white-space: pre;">4</text></g></g><g class="overaxes-above"/></g></g><g class="polarlayer"/><g class="ternarylayer"/><g class="geolayer"/><g class="funnelarealayer"/><g class="pielayer"/><g class="treemaplayer"/><g class="sunburstlayer"/><g class="glimages"/><defs id="topdefs-8a91ab"><g class="clips"/></defs><g class="layer-above"><g class="imagelayer"/><g class="shapelayer"><path data-index="0" fill-rule="evenodd" d="M44,446H693V26H44Z" style="opacity: 1; stroke: rgb(51, 51, 51); stroke-opacity: 1; fill: rgb(0, 0, 0); fill-opacity: 0; stroke-width: 0.664176px;"/></g></g><g class="infolayer"><g class="g-gtitle"/><g class="g-xtitle" transform="translate(0,-15.790784557907955)"><text class="xtitle" x="368.5" y="511.7907845579079" text-anchor="middle" style="font-family: 'Open Sans', verdana, arial, sans-serif; font-size: 18.6px; fill: rgb(0, 0, 0); opacity: 1; font-weight: normal; white-space: pre;"><tspan style="font-weight:bold">  </tspan></text></g><g class="g-ytitle" transform="translate(20.1943359375,0)"><text class="ytitle" transform="rotate(-90,-3.193856371938601,236)" x="-3.193856371938601" y="236" text-anchor="middle" style="font-family: 'Open Sans', verdana, arial, sans-serif; font-size: 18.6px; fill: rgb(0, 0, 0); opacity: 1; font-weight: normal; white-space: pre;"><tspan style="font-weight:bold"> Número de reprodução da epidemia </tspan></text></g></g></svg>