<svg class="main-svg" xmlns="http://www.w3.org/2000/svg" xmlns:xlink="http://www.w3.org/1999/xlink" width="700" height="500" viewBox="0 0 700 500"><rect x="0" y="0" width="700" height="500" style="fill: rgb(255, 255, 255); fill-opacity: 1;"/><defs id="defs-55531d"><g class="clips"><clipPath id="clip55531dxyplot" class="plotclip"><rect width="649" height="421"/></clipPath><clipPath class="axesclip" id="clip55531dx"><rect x="44" y="0" width="649" height="500"/></clipPath><clipPath class="axesclip" id="clip55531dy"><rect x="0" y="26" width="700" height="421"/></clipPath><clipPath class="axesclip" id="clip55531dxy"><rect x="44" y="26" width="649" height="421"/></clipPath></g><g class="gradients"/></defs><g class="bglayer"/><g class="layer-below"><g class="imagelayer"/><g class="shapelayer"/></g><g class="cartesianlayer"><g class="subplot xy"><g class="layer-subplot"><g class="shapelayer"/><g class="imagelayer"/></g><g class="gridlayer"><g class="x"><path class="xgrid crisp" transform="translate(120.08,0)" d="M0,26v421" style="stroke: rgb(235, 235, 235); stroke-opacity: 1; stroke-width: 0.664176px;"/><path class="xgrid crisp" transform="translate(228.76,0)" d="M0,26v421" style="stroke: rgb(235, 235, 235); stroke-opacity: 1; stroke-width: 0.664176px;"/><path class="xgrid crisp" transform="translate(337.45,0)" d="M0,26v421" style="stroke: rgb(235, 235, 235); stroke-opacity: 1; stroke-width: 0.664176px;"/><path class="xgrid crisp" transform="translate(446.13,0)" d="M0,26v421" style="stroke: rgb(235, 235, 235); stroke-opacity: 1; stroke-width: 0.664176px;"/><path class="xgrid crisp" transform="translate(554.8199999999999,0)" d="M0,26v421" style="stroke: rgb(235, 235, 235); stroke-opacity: 1; stroke-width: 0.664176px;"/><path class="xgrid crisp" transform="translate(663.5,0)" d="M0,26v421" style="stroke: rgb(235, 235, 235); stroke-opacity: 1; stroke-width: 0.664176px;"/></g><g class="y"><path class="ygrid crisp" transform="translate(0,402.05)" d="M44,0h649" style="stroke: rgb(235, 235, 235); stroke-opacity: 1; stroke-width: 0.664176px;"/><path class="ygrid crisp" transform="translate(0,308.77)" d="M44,0h649" style="stroke: rgb(235, 235, 235); stroke-opacity: 1; stroke-width: 0.664176px;"/><path class="ygrid crisp" transform="translate(0,215.49)" d="M44,0h649" style="stroke: rgb(235, 235, 235); stroke-opacity: 1; stroke-width: 0.664176px;"/><path class="ygrid crisp" transform="translate(0,122.21)" d="M44,0h649" style="stroke: rgb(235, 235, 235); stroke-opacity: 1; stroke-width: 0.664176px;"/><path class="ygrid crisp" transform="translate(0,28.94)" d="M44,0h649" style="stroke: rgb(235, 235, 235); stroke-opacity: 1; stroke-width: 0.664176px;"/></g></g><g class="zerolinelayer"/><path class="xlines-below"/><path class="ylines-below"/><g class="overlines-below"/><g class="xaxislayer-below"/><g class="yaxislayer-below"/><g class="overaxes-below"/><g class="plot" transform="translate(44, 26)" clip-path="url('#clip55531dxyplot')"><g class="scatterlayer mlayer"><g class="trace scatter traceb12da3" style="stroke-miterlimit: 2; opacity: 1;"><g class="fills"><g><path class="js-fill" d="M29.5,301.03L45.03,285.51L60.55,263.24L76.08,251.4L91.61,237.43L107.13,245.38L122.66,249.54L138.18,255.65L153.71,253.72L169.24,264.85L184.76,273.14L200.29,292.25L215.82,305.63L231.34,316.93L246.87,321.29L262.39,328.58L277.92,338.26L293.45,339.97L308.97,346.71L355.55,361.13L371.08,368.55L386.61,374.73L402.13,379.64L417.66,385.75L433.18,390.6L464.24,398.68L479.76,401.66L495.29,401.86L510.82,400.12L541.87,398L557.39,397.04L588.45,393.91L603.97,391.47L619.5,391.24L619.5,391.24L619.5,378.71L603.97,378.79L588.45,381.39L557.39,384.42L541.87,385.31L526.34,385.74L510.82,387.48L495.29,389.99L479.76,390.64L464.24,388.12L448.71,384.46L433.18,380.27L417.66,374.82L386.61,359.62L371.08,350.74L355.55,339.9L340.03,331.5L308.97,313.27L293.45,299.98L277.92,292.17L262.39,272.65L231.34,233.74L215.82,201.37L200.29,165.79L184.76,123.36L169.24,100.04L153.71,69.17L138.18,59.8L122.66,38.05L107.13,28L91.61,19.14L76.08,51.44L60.55,78.16L45.03,119.36L29.5,137.76L29.5,301.03Z" style="fill: rgb(211, 211, 211); fill-opacity: 1; stroke-width: 0;"/></g></g><g class="errorbars"/><g class="lines"><path class="js-line" d="M29.5,301.03L45.03,285.51L60.55,263.24L76.08,251.4L91.61,237.43L107.13,245.38L122.66,249.54L138.18,255.65L153.71,253.72L169.24,264.85L184.76,273.14L200.29,292.25L215.82,305.63L231.34,316.93L246.87,321.29L262.39,328.58L277.92,338.26L293.45,339.97L308.97,346.71L355.55,361.13L371.08,368.55L386.61,374.73L402.13,379.64L417.66,385.75L433.18,390.6L464.24,398.68L479.76,401.66L495.29,401.86L510.82,400.12L541.87,398L557.39,397.04L588.45,393.91L603.97,391.47L619.5,391.24L619.5,391.24L619.5,378.71L603.97,378.79L588.45,381.39L557.39,384.42L541.87,385.31L526.34,385.74L510.82,387.48L495.29,389.99L479.76,390.64L464.24,388.12L448.71,384.46L433.18,380.27L417.66,374.82L386.61,359.62L371.08,350.74L355.55,339.9L340.03,331.5L308.97,313.27L293.45,299.98L277.92,292.17L262.39,272.65L231.34,233.74L215.82,201.37L200.29,165.79L184.76,123.36L169.24,100.04L153.71,69.17L138.18,59.8L122.66,38.05L107.13,28L91.61,19.14L76.08,51.44L60.55,78.16L45.03,119.36L29.5,137.76L29.5,301.03" style="vector-effect: non-scaling-stroke; fill: none; stroke: rgb(0, 0, 0); stroke-opacity: 0; stroke-width: 1.88976px; opacity: 1;"/></g><g class="points"/><g class="text"/></g><g class="trace scatter traced2e62b" style="stroke-miterlimit: 2; opacity: 1;"><g class="fills"/><g class="errorbars"/><g class="lines"><path class="js-line" d="M29.5,227.95L45.03,210.41L60.55,179.5L76.08,162.34L91.61,141.69L107.13,151.73L122.66,159.31L138.18,173.66L153.71,175.95L169.24,194.89L184.76,208.61L200.29,238.3L215.82,261.37L231.34,281.37L246.87,291.93L262.39,303.95L277.92,317.69L293.45,322.11L308.97,331.54L355.55,351.29L371.08,360.19L386.61,367.58L402.13,373.52L417.66,380.39L433.18,385.58L464.24,393.58L479.76,396.32L495.29,396.16L510.82,393.97L541.87,391.7L557.39,390.85L588.45,387.68L603.97,385.21L619.5,385.07" style="vector-effect: non-scaling-stroke; fill: none; stroke: rgb(117, 112, 179); stroke-opacity: 1; stroke-width: 4.72441px; opacity: 1;"/></g><g class="points"/><g class="text"/></g><g class="trace scatter trace31e709" style="stroke-miterlimit: 2; opacity: 1;"><g class="fills"/><g class="errorbars"/><g class="lines"><path class="js-line" d="M0,376.05L649,376.05" style="vector-effect: non-scaling-stroke; fill: none; stroke: rgb(255, 0, 0); stroke-opacity: 1; stroke-width: 3.77953px; opacity: 1; stroke-dasharray: 11.3386px, 11.3386px;"/></g><g class="points"/><g class="text"/></g></g></g><g class="overplot"/><path class="xlines-above crisp" d="" style="fill: none; stroke-width: 1px; stroke: rgb(0, 0, 0); stroke-opacity: 0;"/><path class="ylines-above crisp" d="" style="fill: none; stroke-width: 1px; stroke: rgb(0, 0, 0); stroke-opacity: 0;"/><g class="overlines-above"/><g class="xaxislayer-above"><path class="xtick ticks crisp" d="M0,448v3.65296803652968" transform="translate(120.08,0)" style="stroke: rgb(51, 51, 51); stroke-opacity: 1; stroke-width: 0.664176px;"/><path class="xtick ticks crisp" d="M0,448v3.65296803652968" transform="translate(228.76,0)" style="stroke: rgb(51, 51, 51); stroke-opacity: 1; stroke-width: 0.664176px;"/><path class="xtick ticks crisp" d="M0,448v3.65296803652968" transform="translate(337.45,0)" style="stroke: rgb(51, 51, 51); stroke-opacity: 1; stroke-width: 0.664176px;"/><path class="xtick ticks crisp" d="M0,448v3.65296803652968" transform="translate(446.13,0)" style="stroke: rgb(51, 51, 51); stroke-opacity: 1; stroke-width: 0.664176px;"/><path class="xtick ticks crisp" d="M0,448v3.65296803652968" transform="translate(554.8199999999999,0)" style="stroke: rgb(51, 51, 51); stroke-opacity: 1; stroke-width: 0.664176px;"/><path class="xtick ticks crisp" d="M0,448v3.65296803652968" transform="translate(663.5,0)" style="stroke: rgb(51, 51, 51); stroke-opacity: 1; stroke-width: 0.664176px;"/><g class="xtick"><text text-anchor="middle" x="0" y="470.7812370278123" transform="translate(120.08,0)" style="font-family: 'Open Sans', verdana, arial, sans-serif; font-size: 15.9402px; fill: rgb(77, 77, 77); fill-opacity: 1; white-space: pre;">09/mar</text></g><g class="xtick"><text text-anchor="middle" x="0" y="470.7812370278123" transform="translate(228.76,0)" style="font-family: 'Open Sans', verdana, arial, sans-serif; font-size: 15.9402px; fill: rgb(77, 77, 77); fill-opacity: 1; white-space: pre;">16/mar</text></g><g class="xtick"><text text-anchor="middle" x="0" y="470.7812370278123" transform="translate(337.45,0)" style="font-family: 'Open Sans', verdana, arial, sans-serif; font-size: 15.9402px; fill: rgb(77, 77, 77); fill-opacity: 1; white-space: pre;">23/mar</text></g><g class="xtick"><text text-anchor="middle" x="0" y="470.7812370278123" transform="translate(446.13,0)" style="font-family: 'Open Sans', verdana, arial, sans-serif; font-size: 15.9402px; fill: rgb(77, 77, 77); fill-opacity: 1; white-space: pre;">30/mar</text></g><g class="xtick"><text text-anchor="middle" x="0" y="470.7812370278123" transform="translate(554.8199999999999,0)" style="font-family: 'Open Sans', verdana, arial, sans-serif; font-size: 15.9402px; fill: rgb(77, 77, 77); fill-opacity: 1; white-space: pre;">06/abr</text></g><g class="xtick"><text text-anchor="middle" x="0" y="470.7812370278123" transform="translate(663.5,0)" style="font-family: 'Open Sans', verdana, arial, sans-serif; font-size: 15.9402px; fill: rgb(77, 77, 77); fill-opacity: 1; white-space: pre;">13/abr</text></g></g><g class="yaxislayer-above"><path class="ytick ticks crisp" d="M43,0h-3.65296803652968" transform="translate(0,402.05)" style="stroke: rgb(51, 51, 51); stroke-opacity: 1; stroke-width: 0.664176px;"/><path class="ytick ticks crisp" d="M43,0h-3.65296803652968" transform="translate(0,308.77)" style="stroke: rgb(51, 51, 51); stroke-opacity: 1; stroke-width: 0.664176px;"/><path class="ytick ticks crisp" d="M43,0h-3.65296803652968" transform="translate(0,215.49)" style="stroke: rgb(51, 51, 51); stroke-opacity: 1; stroke-width: 0.664176px;"/><path class="ytick ticks crisp" d="M43,0h-3.65296803652968" transform="translate(0,122.21)" style="stroke: rgb(51, 51, 51); stroke-opacity: 1; stroke-width: 0.664176px;"/><path class="ytick ticks crisp" d="M43,0h-3.65296803652968" transform="translate(0,28.94)" style="stroke: rgb(51, 51, 51); stroke-opacity: 1; stroke-width: 0.664176px;"/><g class="ytick"><text text-anchor="end" x="36.15898713158988" y="5.5790784557907696" transform="translate(0,402.05)" style="font-family: 'Open Sans', verdana, arial, sans-serif; font-size: 15.9402px; fill: rgb(77, 77, 77); fill-opacity: 1; white-space: pre;">1</text></g><g class="ytick"><text text-anchor="end" x="36.15898713158988" y="5.5790784557907696" transform="translate(0,308.77)" style="font-family: 'Open Sans', verdana, arial, sans-serif; font-size: 15.9402px; fill: rgb(77, 77, 77); fill-opacity: 1; white-space: pre;">2</text></g><g class="ytick"><text text-anchor="end" x="36.15898713158988" y="5.5790784557907696" transform="translate(0,215.49)" style="font-family: 'Open Sans', verdana, arial, sans-serif; font-size: 15.9402px; fill: rgb(77, 77, 77); fill-opacity: 1; white-space: pre;">3</text></g><g class="ytick"><text text-anchor="end" x="36.15898713158988" y="5.5790784557907696" transform="translate(0,122.21)" style="font-family: 'Open Sans', verdana, arial, sans-serif; font-size: 15.9402px; fill: rgb(77, 77, 77); fill-opacity: 1; white-space: pre;">4</text></g><g class="ytick"><text text-anchor="end" x="36.15898713158988" y="5.5790784557907696" transform="translate(0,28.94)" style="font-family: 'Open Sans', verdana, arial, sans-serif; font-size: 15.9402px; fill: rgb(77, 77, 77); fill-opacity: 1; white-space: pre;">5</text></g></g><g class="overaxes-above"/></g></g><g class="polarlayer"/><g class="ternarylayer"/><g class="geolayer"/><g class="funnelarealayer"/><g class="pielayer"/><g class="treemaplayer"/><g class="sunburstlayer"/><g class="glimages"/><defs id="topdefs-55531d"><g class="clips"/></defs><g class="layer-above"><g class="imagelayer"/><g class="shapelayer"><path data-index="0" fill-rule="evenodd" d="M44,447H693V26H44Z" style="opacity: 1; stroke: rgb(51, 51, 51); stroke-opacity: 1; fill: rgb(0, 0, 0); fill-opacity: 0; stroke-width: 0.664176px;"/></g></g><g class="infolayer"><g class="g-gtitle"/><g class="g-xtitle" transform="translate(0,-16.790784557907955)"><text class="xtitle" x="368.5" y="512.790784557908" text-anchor="middle" style="font-family: 'Open Sans', verdana, arial, sans-serif; font-size: 18.6px; fill: rgb(0, 0, 0); opacity: 1; font-weight: normal; white-space: pre;"><tspan style="font-weight:bold">  </tspan></text></g><g class="g-ytitle" transform="translate(20.1943359375,0)"><text class="ytitle" transform="rotate(-90,-3.193856371938601,236.5)" x="-3.193856371938601" y="236.5" text-anchor="middle" style="font-family: 'Open Sans', verdana, arial, sans-serif; font-size: 18.6px; fill: rgb(0, 0, 0); opacity: 1; font-weight: normal; white-space: pre;"><tspan style="font-weight:bold"> Número de reprodução da epidemia </tspan></text></g></g></svg>