<svg class="main-svg" xmlns="http://www.w3.org/2000/svg" xmlns:xlink="http://www.w3.org/1999/xlink" width="700" height="500" viewBox="0 0 700 500"><rect x="0" y="0" width="700" height="500" style="fill: rgb(255, 255, 255); fill-opacity: 1;"/><defs id="defs-39f193"><g class="clips"><clipPath id="clip39f193xyplot" class="plotclip"><rect width="649" height="420"/></clipPath><clipPath class="axesclip" id="clip39f193x"><rect x="44" y="0" width="649" height="500"/></clipPath><clipPath class="axesclip" id="clip39f193y"><rect x="0" y="26" width="700" height="420"/></clipPath><clipPath class="axesclip" id="clip39f193xy"><rect x="44" y="26" width="649" height="420"/></clipPath></g><g class="gradients"/></defs><g class="bglayer"/><g class="layer-below"><g class="imagelayer"/><g class="shapelayer"/></g><g class="cartesianlayer"><g class="subplot xy"><g class="layer-subplot"><g class="shapelayer"/><g class="imagelayer"/></g><g class="gridlayer"><g class="x"><path class="xgrid crisp" transform="translate(120.08,0)" d="M0,26v420" style="stroke: rgb(235, 235, 235); stroke-opacity: 1; stroke-width: 0.664176px;"/><path class="xgrid crisp" transform="translate(228.76,0)" d="M0,26v420" style="stroke: rgb(235, 235, 235); stroke-opacity: 1; stroke-width: 0.664176px;"/><path class="xgrid crisp" transform="translate(337.45,0)" d="M0,26v420" style="stroke: rgb(235, 235, 235); stroke-opacity: 1; stroke-width: 0.664176px;"/><path class="xgrid crisp" transform="translate(446.13,0)" d="M0,26v420" style="stroke: rgb(235, 235, 235); stroke-opacity: 1; stroke-width: 0.664176px;"/><path class="xgrid crisp" transform="translate(554.8199999999999,0)" d="M0,26v420" style="stroke: rgb(235, 235, 235); stroke-opacity: 1; stroke-width: 0.664176px;"/><path class="xgrid crisp" transform="translate(663.5,0)" d="M0,26v420" style="stroke: rgb(235, 235, 235); stroke-opacity: 1; stroke-width: 0.664176px;"/></g><g class="y"><path class="ygrid crisp" transform="translate(0,400.82)" d="M44,0h649" style="stroke: rgb(235, 235, 235); stroke-opacity: 1; stroke-width: 0.664176px;"/><path class="ygrid crisp" transform="translate(0,306.25)" d="M44,0h649" style="stroke: rgb(235, 235, 235); stroke-opacity: 1; stroke-width: 0.664176px;"/><path class="ygrid crisp" transform="translate(0,211.69)" d="M44,0h649" style="stroke: rgb(235, 235, 235); stroke-opacity: 1; stroke-width: 0.664176px;"/><path class="ygrid crisp" transform="translate(0,117.12)" d="M44,0h649" style="stroke: rgb(235, 235, 235); stroke-opacity: 1; stroke-width: 0.664176px;"/></g></g><g class="zerolinelayer"/><path class="xlines-below"/><path class="ylines-below"/><g class="overlines-below"/><g class="xaxislayer-below"/><g class="yaxislayer-below"/><g class="overaxes-below"/><g class="plot" transform="translate(44, 26)" clip-path="url('#clip39f193xyplot')"><g class="scatterlayer mlayer"><g class="trace scatter traced44b6f" style="stroke-miterlimit: 2; opacity: 1;"><g class="fills"><g><path class="js-fill" d="M29.5,298.98L45.03,283.5L60.55,260.04L76.08,248.04L91.61,232.62L107.13,241.65L122.66,245.98L138.18,252.11L153.71,250.5L169.24,261.91L184.76,270.03L200.29,289.54L215.82,303.52L231.34,314.95L246.87,319.56L262.39,327.06L277.92,336.82L293.45,338.52L308.97,345.26L355.55,360.06L371.08,367.44L386.61,373.47L402.13,378.59L417.66,384.82L433.18,389.71L464.24,397.82L479.76,400.72L495.29,400.91L510.82,399.03L541.87,396.9L557.39,395.91L588.45,392.68L603.97,390.38L619.5,390.19L619.5,390.19L619.5,377.36L603.97,377.43L588.45,380.09L557.39,383.27L541.87,384.01L526.34,384.6L510.82,386.43L495.29,389.11L479.76,389.74L464.24,387.22L448.71,383.47L433.18,379.31L417.66,373.76L386.61,358.5L371.08,349.47L355.55,338.65L340.03,330.37L308.97,312.12L293.45,299.18L277.92,291.43L262.39,272.39L231.34,235L215.82,203.64L200.29,168.7L184.76,125.75L169.24,104.69L153.71,73.11L138.18,64.41L122.66,40.98L107.13,30.98L91.61,19.09L76.08,51.31L60.55,77.52L45.03,117.49L29.5,135.79L29.5,298.98Z" style="fill: rgb(211, 211, 211); fill-opacity: 1; stroke-width: 0;"/></g></g><g class="errorbars"/><g class="lines"><path class="js-line" d="M29.5,298.98L45.03,283.5L60.55,260.04L76.08,248.04L91.61,232.62L107.13,241.65L122.66,245.98L138.18,252.11L153.71,250.5L169.24,261.91L184.76,270.03L200.29,289.54L215.82,303.52L231.34,314.95L246.87,319.56L262.39,327.06L277.92,336.82L293.45,338.52L308.97,345.26L355.55,360.06L371.08,367.44L386.61,373.47L402.13,378.59L417.66,384.82L433.18,389.71L464.24,397.82L479.76,400.72L495.29,400.91L510.82,399.03L541.87,396.9L557.39,395.91L588.45,392.68L603.97,390.38L619.5,390.19L619.5,390.19L619.5,377.36L603.97,377.43L588.45,380.09L557.39,383.27L541.87,384.01L526.34,384.6L510.82,386.43L495.29,389.11L479.76,389.74L464.24,387.22L448.71,383.47L433.18,379.31L417.66,373.76L386.61,358.5L371.08,349.47L355.55,338.65L340.03,330.37L308.97,312.12L293.45,299.18L277.92,291.43L262.39,272.39L231.34,235L215.82,203.64L200.29,168.7L184.76,125.75L169.24,104.69L153.71,73.11L138.18,64.41L122.66,40.98L107.13,30.98L91.61,19.09L76.08,51.31L60.55,77.52L45.03,117.49L29.5,135.79L29.5,298.98" style="vector-effect: non-scaling-stroke; fill: none; stroke: rgb(0, 0, 0); stroke-opacity: 0; stroke-width: 1.88976px; opacity: 1;"/></g><g class="points"/><g class="text"/></g><g class="trace scatter tracec4a9f5" style="stroke-miterlimit: 2; opacity: 1;"><g class="fills"/><g class="errorbars"/><g class="lines"><path class="js-line" d="M29.5,225.15L45.03,207.63L60.55,175.95L76.08,159.13L91.61,137.99L107.13,148.71L122.66,156.36L138.18,171.27L153.71,173.7L169.24,192.72L184.76,206.33L200.29,236.29L215.82,259.76L231.34,279.86L246.87,290.41L262.39,302.53L277.92,316.23L293.45,320.74L308.97,330.19L355.55,350.07L371.08,359.07L386.61,366.48L402.13,372.46L417.66,379.44L433.18,384.65L464.24,392.61L479.76,395.36L495.29,395.19L510.82,392.92L541.87,390.58L557.39,389.66L588.45,386.45L603.97,384.01L619.5,383.84" style="vector-effect: non-scaling-stroke; fill: none; stroke: rgb(117, 112, 179); stroke-opacity: 1; stroke-width: 4.72441px; opacity: 1;"/></g><g class="points"/><g class="text"/></g><g class="trace scatter traceff4331" style="stroke-miterlimit: 2; opacity: 1;"><g class="fills"/><g class="errorbars"/><g class="lines"><path class="js-line" d="M0,374.82L649,374.82" style="vector-effect: non-scaling-stroke; fill: none; stroke: rgb(255, 0, 0); stroke-opacity: 1; stroke-width: 3.77953px; opacity: 1; stroke-dasharray: 11.3386px, 11.3386px;"/></g><g class="points"/><g class="text"/></g></g></g><g class="overplot"/><path class="xlines-above crisp" d="" style="fill: none; stroke-width: 1px; stroke: rgb(0, 0, 0); stroke-opacity: 0;"/><path class="ylines-above crisp" d="" style="fill: none; stroke-width: 1px; stroke: rgb(0, 0, 0); stroke-opacity: 0;"/><g class="overlines-above"/><g class="xaxislayer-above"><path class="xtick ticks crisp" d="M0,447v3.65296803652968" transform="translate(120.08,0)" style="stroke: rgb(51, 51, 51); stroke-opacity: 1; stroke-width: 0.664176px;"/><path class="xtick ticks crisp" d="M0,447v3.65296803652968" transform="translate(228.76,0)" style="stroke: rgb(51, 51, 51); stroke-opacity: 1; stroke-width: 0.664176px;"/><path class="xtick ticks crisp" d="M0,447v3.65296803652968" transform="translate(337.45,0)" style="stroke: rgb(51, 51, 51); stroke-opacity: 1; stroke-width: 0.664176px;"/><path class="xtick ticks crisp" d="M0,447v3.65296803652968" transform="translate(446.13,0)" style="stroke: rgb(51, 51, 51); stroke-opacity: 1; stroke-width: 0.664176px;"/><path class="xtick ticks crisp" d="M0,447v3.65296803652968" transform="translate(554.8199999999999,0)" style="stroke: rgb(51, 51, 51); stroke-opacity: 1; stroke-width: 0.664176px;"/><path class="xtick ticks crisp" d="M0,447v3.65296803652968" transform="translate(663.5,0)" style="stroke: rgb(51, 51, 51); stroke-opacity: 1; stroke-width: 0.664176px;"/><g class="xtick"><text text-anchor="middle" x="0" y="469.7812370278123" transform="translate(120.08,0)" style="font-family: 'Open Sans', verdana, arial, sans-serif; font-size: 15.9402px; fill: rgb(77, 77, 77); fill-opacity: 1; white-space: pre;">09/Mar</text></g><g class="xtick"><text text-anchor="middle" x="0" y="469.7812370278123" transform="translate(228.76,0)" style="font-family: 'Open Sans', verdana, arial, sans-serif; font-size: 15.9402px; fill: rgb(77, 77, 77); fill-opacity: 1; white-space: pre;">16/Mar</text></g><g class="xtick"><text text-anchor="middle" x="0" y="469.7812370278123" transform="translate(337.45,0)" style="font-family: 'Open Sans', verdana, arial, sans-serif; font-size: 15.9402px; fill: rgb(77, 77, 77); fill-opacity: 1; white-space: pre;">23/Mar</text></g><g class="xtick"><text text-anchor="middle" x="0" y="469.7812370278123" transform="translate(446.13,0)" style="font-family: 'Open Sans', verdana, arial, sans-serif; font-size: 15.9402px; fill: rgb(77, 77, 77); fill-opacity: 1; white-space: pre;">30/Mar</text></g><g class="xtick"><text text-anchor="middle" x="0" y="469.7812370278123" transform="translate(554.8199999999999,0)" style="font-family: 'Open Sans', verdana, arial, sans-serif; font-size: 15.9402px; fill: rgb(77, 77, 77); fill-opacity: 1; white-space: pre;">06/Apr</text></g><g class="xtick"><text text-anchor="middle" x="0" y="469.7812370278123" transform="translate(663.5,0)" style="font-family: 'Open Sans', verdana, arial, sans-serif; font-size: 15.9402px; fill: rgb(77, 77, 77); fill-opacity: 1; white-space: pre;">13/Apr</text></g></g><g class="yaxislayer-above"><path class="ytick ticks crisp" d="M43,0h-3.65296803652968" transform="translate(0,400.82)" style="stroke: rgb(51, 51, 51); stroke-opacity: 1; stroke-width: 0.664176px;"/><path class="ytick ticks crisp" d="M43,0h-3.65296803652968" transform="translate(0,306.25)" style="stroke: rgb(51, 51, 51); stroke-opacity: 1; stroke-width: 0.664176px;"/><path class="ytick ticks crisp" d="M43,0h-3.65296803652968" transform="translate(0,211.69)" style="stroke: rgb(51, 51, 51); stroke-opacity: 1; stroke-width: 0.664176px;"/><path class="ytick ticks crisp" d="M43,0h-3.65296803652968" transform="translate(0,117.12)" style="stroke: rgb(51, 51, 51); stroke-opacity: 1; stroke-width: 0.664176px;"/><g class="ytick"><text text-anchor="end" x="36.15898713158988" y="5.5790784557907696" transform="translate(0,400.82)" style="font-family: 'Open Sans', verdana, arial, sans-serif; font-size: 15.9402px; fill: rgb(77, 77, 77); fill-opacity: 1; white-space: pre;">1</text></g><g class="ytick"><text text-anchor="end" x="36.15898713158988" y="5.5790784557907696" transform="translate(0,306.25)" style="font-family: 'Open Sans', verdana, arial, sans-serif; font-size: 15.9402px; fill: rgb(77, 77, 77); fill-opacity: 1; white-space: pre;">2</text></g><g class="ytick"><text text-anchor="end" x="36.15898713158988" y="5.5790784557907696" transform="translate(0,211.69)" style="font-family: 'Open Sans', verdana, arial, sans-serif; font-size: 15.9402px; fill: rgb(77, 77, 77); fill-opacity: 1; white-space: pre;">3</text></g><g class="ytick"><text text-anchor="end" x="36.15898713158988" y="5.5790784557907696" transform="translate(0,117.12)" style="font-family: 'Open Sans', verdana, arial, sans-serif; font-size: 15.9402px; fill: rgb(77, 77, 77); fill-opacity: 1; white-space: pre;">4</text></g></g><g class="overaxes-above"/></g></g><g class="polarlayer"/><g class="ternarylayer"/><g class="geolayer"/><g class="funnelarealayer"/><g class="pielayer"/><g class="treemaplayer"/><g class="sunburstlayer"/><g class="glimages"/><defs id="topdefs-39f193"><g class="clips"/></defs><g class="layer-above"><g class="imagelayer"/><g class="shapelayer"><path data-index="0" fill-rule="evenodd" d="M44,446H693V26H44Z" style="opacity: 1; stroke: rgb(51, 51, 51); stroke-opacity: 1; fill: rgb(0, 0, 0); fill-opacity: 0; stroke-width: 0.664176px;"/></g></g><g class="infolayer"><g class="g-gtitle"/><g class="g-xtitle" transform="translate(0,-15.790784557907955)"><text class="xtitle" x="368.5" y="511.7907845579079" text-anchor="middle" style="font-family: 'Open Sans', verdana, arial, sans-serif; font-size: 18.6px; fill: rgb(0, 0, 0); opacity: 1; font-weight: normal; white-space: pre;"><tspan style="font-weight:bold">  </tspan></text></g><g class="g-ytitle" transform="translate(20.1943359375,0)"><text class="ytitle" transform="rotate(-90,-3.193856371938601,236)" x="-3.193856371938601" y="236" text-anchor="middle" style="font-family: 'Open Sans', verdana, arial, sans-serif; font-size: 18.6px; fill: rgb(0, 0, 0); opacity: 1; font-weight: normal; white-space: pre;"><tspan style="font-weight:bold"> Número de reprodução da epidemia </tspan></text></g></g></svg>