<svg class="main-svg" xmlns="http://www.w3.org/2000/svg" xmlns:xlink="http://www.w3.org/1999/xlink" width="700" height="500" viewBox="0 0 700 500"><rect x="0" y="0" width="700" height="500" style="fill: rgb(255, 255, 255); fill-opacity: 1;"/><defs id="defs-fa99f6"><g class="clips"><clipPath id="clipfa99f6xyplot" class="plotclip"><rect width="476" height="421"/></clipPath><clipPath class="axesclip" id="clipfa99f6x"><rect x="78" y="0" width="476" height="500"/></clipPath><clipPath class="axesclip" id="clipfa99f6y"><rect x="0" y="26" width="700" height="421"/></clipPath><clipPath class="axesclip" id="clipfa99f6xy"><rect x="78" y="26" width="476" height="421"/></clipPath></g><g class="gradients"/></defs><g class="bglayer"/><g class="layer-below"><g class="imagelayer"/><g class="shapelayer"/></g><g class="cartesianlayer"><g class="subplot xy"><g class="layer-subplot"><g class="shapelayer"/><g class="imagelayer"/></g><g class="gridlayer"><g class="x"><path class="xgrid crisp" transform="translate(95.77,0)" d="M0,26v421" style="stroke: rgb(235, 235, 235); stroke-opacity: 1; stroke-width: 0.664176px;"/><path class="xgrid crisp" transform="translate(215.55,0)" d="M0,26v421" style="stroke: rgb(235, 235, 235); stroke-opacity: 1; stroke-width: 0.664176px;"/><path class="xgrid crisp" transform="translate(327.59000000000003,0)" d="M0,26v421" style="stroke: rgb(235, 235, 235); stroke-opacity: 1; stroke-width: 0.664176px;"/><path class="xgrid crisp" transform="translate(447.36,0)" d="M0,26v421" style="stroke: rgb(235, 235, 235); stroke-opacity: 1; stroke-width: 0.664176px;"/></g><g class="y"><path class="ygrid crisp" transform="translate(0,427.86)" d="M78,0h476" style="stroke: rgb(235, 235, 235); stroke-opacity: 1; stroke-width: 0.664176px;"/><path class="ygrid crisp" transform="translate(0,327.99)" d="M78,0h476" style="stroke: rgb(235, 235, 235); stroke-opacity: 1; stroke-width: 0.664176px;"/><path class="ygrid crisp" transform="translate(0,228.11)" d="M78,0h476" style="stroke: rgb(235, 235, 235); stroke-opacity: 1; stroke-width: 0.664176px;"/><path class="ygrid crisp" transform="translate(0,128.23000000000002)" d="M78,0h476" style="stroke: rgb(235, 235, 235); stroke-opacity: 1; stroke-width: 0.664176px;"/><path class="ygrid crisp" transform="translate(0,28.35)" d="M78,0h476" style="stroke: rgb(235, 235, 235); stroke-opacity: 1; stroke-width: 0.664176px;"/></g></g><g class="zerolinelayer"/><path class="xlines-below"/><path class="ylines-below"/><g class="overlines-below"/><g class="xaxislayer-below"/><g class="yaxislayer-below"/><g class="overaxes-below"/><g class="plot" transform="translate(78, 26)" clip-path="url('#clipfa99f6xyplot')"><g class="scatterlayer mlayer"><g class="trace scatter trace7e5c35" style="stroke-miterlimit: 2; opacity: 1;"><g class="fills"/><g class="errorbars"/><g class="lines"><path class="js-line" d="M21.64,401.86L137.55,371.8L191.64,354.21L210.95,324.14L218.68,317.46L230.27,311.67L238,301.99L241.86,294.08L245.73,290.61L249.59,274.15L253.45,267.79L257.32,257.33L261.18,251.53L265.05,244.08L268.91,228.84L276.64,206.68L280.5,193.48L288.23,169.72L292.09,158.87L307.55,118.08L311.41,111.43L323,92.41L326.86,87.14L338.45,72.19L342.32,68.43L350.05,62.04L353.91,59.49L369.36,51.37L373.23,49.86L404.14,39.87L408,38.91L415.73,37.06" style="vector-effect: non-scaling-stroke; fill: none; stroke: rgb(228, 26, 28); stroke-opacity: 1; stroke-width: 3.77953px; opacity: 1;"/></g><g class="points"/><g class="text"/></g><g class="trace scatter tracea6ac27" style="stroke-miterlimit: 2; opacity: 1;"><g class="fills"><g><path class="js-fill" d="M415.73,41.6L454.36,34.92L454.36,34.92L454.36,19.14L415.73,31.73L415.73,41.6Z" style="fill: rgb(211, 211, 211); fill-opacity: 1; stroke-width: 0;"/></g></g><g class="errorbars"/><g class="lines"><path class="js-line" d="M415.73,41.6L454.36,34.92L454.36,34.92L454.36,19.14L415.73,31.73L415.73,41.6" style="vector-effect: non-scaling-stroke; fill: none; stroke: rgb(0, 0, 0); stroke-opacity: 0; stroke-width: 1.88976px; opacity: 1;"/></g><g class="points"/><g class="text"/></g><g class="trace scatter tracec724c3" style="stroke-miterlimit: 2; opacity: 1;"><g class="fills"/><g class="errorbars"/><g class="lines"><path class="js-line" d="M415.73,37.06L454.36,27.49" style="vector-effect: non-scaling-stroke; fill: none; stroke: rgb(228, 26, 28); stroke-opacity: 1; stroke-width: 1.88976px; opacity: 1; stroke-dasharray: 15px, 15px;"/></g><g class="points"/><g class="text"/></g><g class="trace scatter trace32bc25" style="stroke-miterlimit: 2; opacity: 1;"><g class="fills"/><g class="errorbars"/><g class="lines"><path class="js-line" d="M21.64,401.86L137.55,371.8L191.64,354.21L210.95,324.14L218.68,317.46L230.27,311.67L238,301.99L241.86,294.08L245.73,290.61L249.59,274.15L253.45,267.79L257.32,257.33L261.18,251.53L265.05,244.08L268.91,228.84L276.64,206.68L280.5,193.48L288.23,169.72L292.09,158.87L307.55,117.95L311.41,111.59L323,93.22L326.86,88.2L338.45,74.14L342.32,70.63L350.05,64.8L353.91,62.5L369.36,55.71L373.23,54.56L392.55,50.84L396.41,50.38L411.86,49.74L415.73,49.7" style="vector-effect: non-scaling-stroke; fill: none; stroke: rgb(55, 126, 184); stroke-opacity: 1; stroke-width: 3.77953px; opacity: 1;"/></g><g class="points"/><g class="text"/></g><g class="trace scatter tracea92ccf" style="stroke-miterlimit: 2; opacity: 1;"><g class="fills"><g><path class="js-fill" d="M415.73,49.7L435.05,48.2L438.91,48.06L454.36,47.91L454.36,47.91L454.36,45.26L435.05,45.98L431.18,46.44L419.59,48.65L415.73,49.7Z" style="fill: rgb(211, 211, 211); fill-opacity: 1; stroke-width: 0;"/></g></g><g class="errorbars"/><g class="lines"><path class="js-line" d="M415.73,49.7L435.05,48.2L438.91,48.06L454.36,47.91L454.36,47.91L454.36,45.26L435.05,45.98L431.18,46.44L419.59,48.65L415.73,49.7" style="vector-effect: non-scaling-stroke; fill: none; stroke: rgb(0, 0, 0); stroke-opacity: 0; stroke-width: 1.88976px; opacity: 1;"/></g><g class="points"/><g class="text"/></g><g class="trace scatter trace1ed2cb" style="stroke-miterlimit: 2; opacity: 1;"><g class="fills"/><g class="errorbars"/><g class="lines"><path class="js-line" d="M415.73,49.7L431.18,47.55L435.05,47.25L454.36,46.78" style="vector-effect: non-scaling-stroke; fill: none; stroke: rgb(55, 126, 184); stroke-opacity: 1; stroke-width: 1.88976px; opacity: 1; stroke-dasharray: 15px, 15px;"/></g><g class="points"/><g class="text"/></g></g></g><g class="overplot"/><path class="xlines-above crisp" d="" style="fill: none; stroke-width: 1px; stroke: rgb(0, 0, 0); stroke-opacity: 0;"/><path class="ylines-above crisp" d="" style="fill: none; stroke-width: 1px; stroke: rgb(0, 0, 0); stroke-opacity: 0;"/><g class="overlines-above"/><g class="xaxislayer-above"><path class="xtick ticks crisp" d="M0,448v3.65296803652968" transform="translate(95.77,0)" style="stroke: rgb(51, 51, 51); stroke-opacity: 1; stroke-width: 0.664176px;"/><path class="xtick ticks crisp" d="M0,448v3.65296803652968" transform="translate(215.55,0)" style="stroke: rgb(51, 51, 51); stroke-opacity: 1; stroke-width: 0.664176px;"/><path class="xtick ticks crisp" d="M0,448v3.65296803652968" transform="translate(327.59000000000003,0)" style="stroke: rgb(51, 51, 51); stroke-opacity: 1; stroke-width: 0.664176px;"/><path class="xtick ticks crisp" d="M0,448v3.65296803652968" transform="translate(447.36,0)" style="stroke: rgb(51, 51, 51); stroke-opacity: 1; stroke-width: 0.664176px;"/><g class="xtick"><text text-anchor="middle" x="0" y="470.7812370278123" transform="translate(95.77,0)" style="font-family: 'Open Sans', verdana, arial, sans-serif; font-size: 15.9402px; fill: rgb(77, 77, 77); fill-opacity: 1; white-space: pre;">01/jan</text></g><g class="xtick"><text text-anchor="middle" x="0" y="470.7812370278123" transform="translate(215.55,0)" style="font-family: 'Open Sans', verdana, arial, sans-serif; font-size: 15.9402px; fill: rgb(77, 77, 77); fill-opacity: 1; white-space: pre;">01/fev</text></g><g class="xtick"><text text-anchor="middle" x="0" y="470.7812370278123" transform="translate(327.59000000000003,0)" style="font-family: 'Open Sans', verdana, arial, sans-serif; font-size: 15.9402px; fill: rgb(77, 77, 77); fill-opacity: 1; white-space: pre;">01/mar</text></g><g class="xtick"><text text-anchor="middle" x="0" y="470.7812370278123" transform="translate(447.36,0)" style="font-family: 'Open Sans', verdana, arial, sans-serif; font-size: 15.9402px; fill: rgb(77, 77, 77); fill-opacity: 1; white-space: pre;">01/abr</text></g></g><g class="yaxislayer-above"><path class="ytick ticks crisp" d="M77,0h-3.65296803652968" transform="translate(0,427.86)" style="stroke: rgb(51, 51, 51); stroke-opacity: 1; stroke-width: 0.664176px;"/><path class="ytick ticks crisp" d="M77,0h-3.65296803652968" transform="translate(0,327.99)" style="stroke: rgb(51, 51, 51); stroke-opacity: 1; stroke-width: 0.664176px;"/><path class="ytick ticks crisp" d="M77,0h-3.65296803652968" transform="translate(0,228.11)" style="stroke: rgb(51, 51, 51); stroke-opacity: 1; stroke-width: 0.664176px;"/><path class="ytick ticks crisp" d="M77,0h-3.65296803652968" transform="translate(0,128.23000000000002)" style="stroke: rgb(51, 51, 51); stroke-opacity: 1; stroke-width: 0.664176px;"/><path class="ytick ticks crisp" d="M77,0h-3.65296803652968" transform="translate(0,28.35)" style="stroke: rgb(51, 51, 51); stroke-opacity: 1; stroke-width: 0.664176px;"/><g class="ytick"><text text-anchor="end" x="70.15898713158988" y="5.5790784557907696" transform="translate(0,427.86)" style="font-family: 'Open Sans', verdana, arial, sans-serif; font-size: 15.9402px; fill: rgb(77, 77, 77); fill-opacity: 1; white-space: pre;">1</text></g><g class="ytick"><text text-anchor="end" x="70.15898713158988" y="5.5790784557907696" transform="translate(0,327.99)" style="font-family: 'Open Sans', verdana, arial, sans-serif; font-size: 15.9402px; fill: rgb(77, 77, 77); fill-opacity: 1; white-space: pre;">10</text></g><g class="ytick"><text text-anchor="end" x="70.15898713158988" y="5.5790784557907696" transform="translate(0,228.11)" style="font-family: 'Open Sans', verdana, arial, sans-serif; font-size: 15.9402px; fill: rgb(77, 77, 77); fill-opacity: 1; white-space: pre;">100</text></g><g class="ytick"><text text-anchor="end" x="70.15898713158988" y="5.5790784557907696" transform="translate(0,128.23000000000002)" style="font-family: 'Open Sans', verdana, arial, sans-serif; font-size: 15.9402px; fill: rgb(77, 77, 77); fill-opacity: 1; white-space: pre;">1000</text></g><g class="ytick"><text text-anchor="end" x="70.15898713158988" y="5.5790784557907696" transform="translate(0,28.35)" style="font-family: 'Open Sans', verdana, arial, sans-serif; font-size: 15.9402px; fill: rgb(77, 77, 77); fill-opacity: 1; white-space: pre;">10000</text></g></g><g class="overaxes-above"/></g></g><g class="polarlayer"/><g class="ternarylayer"/><g class="geolayer"/><g class="funnelarealayer"/><g class="pielayer"/><g class="treemaplayer"/><g class="sunburstlayer"/><g class="glimages"/><defs id="topdefs-fa99f6"><g class="clips"/><clipPath id="legendfa99f6"><rect width="125.22047244094487" height="68.22047244094487" x="1.88976377952756" y="1.88976377952756"/></clipPath></defs><g class="layer-above"><g class="imagelayer"/><g class="shapelayer"><path data-index="0" fill-rule="evenodd" d="M78,447H554V26H78Z" style="opacity: 1; stroke: rgb(51, 51, 51); stroke-opacity: 1; fill: rgb(0, 0, 0); fill-opacity: 0; stroke-width: 0.664176px;"/></g></g><g class="infolayer"><g class="legend" pointer-events="all" transform="translate(563.52, 53.34842519685044)"><rect class="bg" shape-rendering="crispEdges" style="stroke: rgb(0, 0, 0); stroke-opacity: 0; fill: rgb(255, 255, 255); fill-opacity: 1; stroke-width: 1.88976px;" width="127.11023622047244" height="70.11023622047244" x="0.94488188976378" y="0.94488188976378"/><g class="scrollbox" transform="translate(0, 0)" clip-path="url('#legendfa99f6')"><g class="groups" transform="translate(0, 0)"><g class="traces" transform="translate(1.88976377952756, 18.75090948313899)" style="opacity: 1;"><text class="legendtext user-select-none" text-anchor="start" x="40" y="6.216687422166858" style="font-family: 'Open Sans', verdana, arial, sans-serif; font-size: 15.9402px; fill: rgb(0, 0, 0); fill-opacity: 1; white-space: pre;">Estimados</text><g class="layers" style="opacity: 1;"><g class="legendfill"/><g class="legendlines"><path class="js-line" d="M5,0h30" style="fill: none; stroke: rgb(228, 26, 28); stroke-opacity: 1; stroke-width: 3.77953px;"/></g><g class="legendsymbols"><g class="legendpoints"/></g></g><rect class="legendtoggle" pointer-events="all" x="0" y="-11.861145703611431" width="119.859375" height="23.722291407222862" style="cursor: pointer; fill: rgb(0, 0, 0); fill-opacity: 0;"/></g></g><g class="groups" transform="translate(0, 10)"><g class="traces" transform="translate(1.88976377952756, 42.47320089036185)" style="opacity: 1;"><text class="legendtext user-select-none" text-anchor="start" x="40" y="6.216687422166858" style="font-family: 'Open Sans', verdana, arial, sans-serif; font-size: 15.9402px; fill: rgb(0, 0, 0); fill-opacity: 1; white-space: pre;">Notificados</text><g class="layers" style="opacity: 1;"><g class="legendfill"/><g class="legendlines"><path class="js-line" d="M5,0h30" style="fill: none; stroke: rgb(55, 126, 184); stroke-opacity: 1; stroke-width: 3.77953px;"/></g><g class="legendsymbols"><g class="legendpoints"/></g></g><rect class="legendtoggle" pointer-events="all" x="0" y="-11.861145703611431" width="119.859375" height="23.722291407222862" style="cursor: pointer; fill: rgb(0, 0, 0); fill-opacity: 0;"/></g></g></g><rect class="scrollbar" rx="20" ry="3" width="0" height="0" style="fill: rgb(128, 139, 164); fill-opacity: 1;" x="0" y="0"/></g><g class="g-gtitle"/><g class="g-xtitle" transform="translate(0,-16.790784557907955)"><text class="xtitle" x="316" y="512.790784557908" text-anchor="middle" style="font-family: 'Open Sans', verdana, arial, sans-serif; font-size: 18.6px; fill: rgb(0, 0, 0); opacity: 1; font-weight: normal; white-space: pre;"><tspan style="font-weight:bold"> Dia do primeiro sintoma </tspan></text></g><g class="g-ytitle" transform="translate(-2.1025390625,0)"><text class="ytitle" transform="rotate(-90,30.8061436280614,236.5)" x="30.8061436280614" y="236.5" text-anchor="middle" style="font-family: 'Open Sans', verdana, arial, sans-serif; font-size: 18.6px; fill: rgb(0, 0, 0); opacity: 1; font-weight: normal; white-space: pre;"><tspan style="font-weight:bold"> Número acumulado de casos </tspan></text></g></g></svg>