<svg class="main-svg" xmlns="http://www.w3.org/2000/svg" xmlns:xlink="http://www.w3.org/1999/xlink" width="700" height="500" viewBox="0 0 700 500"><rect x="0" y="0" width="700" height="500" style="fill: rgb(255, 255, 255); fill-opacity: 1;"/><defs id="defs-ecfc92"><g class="clips"><clipPath id="clipecfc92xyplot" class="plotclip"><rect width="649" height="420"/></clipPath><clipPath class="axesclip" id="clipecfc92x"><rect x="44" y="0" width="649" height="500"/></clipPath><clipPath class="axesclip" id="clipecfc92y"><rect x="0" y="26" width="700" height="420"/></clipPath><clipPath class="axesclip" id="clipecfc92xy"><rect x="44" y="26" width="649" height="420"/></clipPath></g><g class="gradients"/></defs><g class="bglayer"/><g class="layer-below"><g class="imagelayer"/><g class="shapelayer"/></g><g class="cartesianlayer"><g class="subplot xy"><g class="layer-subplot"><g class="shapelayer"/><g class="imagelayer"/></g><g class="gridlayer"><g class="x"><path class="xgrid crisp" transform="translate(120.08,0)" d="M0,26v420" style="stroke: rgb(235, 235, 235); stroke-opacity: 1; stroke-width: 0.664176px;"/><path class="xgrid crisp" transform="translate(228.76,0)" d="M0,26v420" style="stroke: rgb(235, 235, 235); stroke-opacity: 1; stroke-width: 0.664176px;"/><path class="xgrid crisp" transform="translate(337.45,0)" d="M0,26v420" style="stroke: rgb(235, 235, 235); stroke-opacity: 1; stroke-width: 0.664176px;"/><path class="xgrid crisp" transform="translate(446.13,0)" d="M0,26v420" style="stroke: rgb(235, 235, 235); stroke-opacity: 1; stroke-width: 0.664176px;"/><path class="xgrid crisp" transform="translate(554.8199999999999,0)" d="M0,26v420" style="stroke: rgb(235, 235, 235); stroke-opacity: 1; stroke-width: 0.664176px;"/><path class="xgrid crisp" transform="translate(663.5,0)" d="M0,26v420" style="stroke: rgb(235, 235, 235); stroke-opacity: 1; stroke-width: 0.664176px;"/></g><g class="y"><path class="ygrid crisp" transform="translate(0,401.12)" d="M44,0h649" style="stroke: rgb(235, 235, 235); stroke-opacity: 1; stroke-width: 0.664176px;"/><path class="ygrid crisp" transform="translate(0,308.19)" d="M44,0h649" style="stroke: rgb(235, 235, 235); stroke-opacity: 1; stroke-width: 0.664176px;"/><path class="ygrid crisp" transform="translate(0,215.25)" d="M44,0h649" style="stroke: rgb(235, 235, 235); stroke-opacity: 1; stroke-width: 0.664176px;"/><path class="ygrid crisp" transform="translate(0,122.32)" d="M44,0h649" style="stroke: rgb(235, 235, 235); stroke-opacity: 1; stroke-width: 0.664176px;"/><path class="ygrid crisp" transform="translate(0,29.39)" d="M44,0h649" style="stroke: rgb(235, 235, 235); stroke-opacity: 1; stroke-width: 0.664176px;"/></g></g><g class="zerolinelayer"/><path class="xlines-below"/><path class="ylines-below"/><g class="overlines-below"/><g class="xaxislayer-below"/><g class="yaxislayer-below"/><g class="overaxes-below"/><g class="plot" transform="translate(44, 26)" clip-path="url('#clipecfc92xyplot')"><g class="scatterlayer mlayer"><g class="trace scatter trace9d7487" style="stroke-miterlimit: 2; opacity: 1;"><g class="fills"><g><path class="js-fill" d="M29.5,299.95L45.03,285L60.55,261.47L76.08,251.55L91.61,236.3L107.13,244.42L122.66,247.68L138.18,254.41L153.71,253.16L169.24,263.99L184.76,271.74L200.29,290.93L215.82,304.8L231.34,315.94L246.87,320.68L262.39,327.8L277.92,337.66L293.45,339.41L308.97,346.21L340.03,355.56L355.55,360.49L371.08,367.83L386.61,373.91L402.13,378.7L417.66,384.83L448.71,393.66L464.24,397.67L479.76,400.64L495.29,400.91L526.34,397.73L541.87,397.03L572.92,394.56L588.45,392.84L603.97,390.47L619.5,390.24L619.5,377.67L603.97,377.78L572.92,382.08L557.39,383.56L526.34,384.8L510.82,386.57L495.29,389.09L479.76,389.67L464.24,387.2L448.71,383.48L433.18,379.42L417.66,373.8L386.61,358.8L371.08,349.86L355.55,338.91L340.03,330.49L308.97,312.34L293.45,299.15L277.92,291.4L262.39,271.85L231.34,233.53L215.82,200.98L200.29,166.4L184.76,123.7L169.24,100.43L153.71,70.85L138.18,60.58L122.66,37.4L91.61,19.09L76.08,53.13L60.55,78.01L45.03,118.75L29.5,135.75L29.5,299.95Z" style="fill: rgb(211, 211, 211); fill-opacity: 1; stroke-width: 0;"/></g></g><g class="errorbars"/><g class="lines"><path class="js-line" d="M29.5,299.95L45.03,285L60.55,261.47L76.08,251.55L91.61,236.3L107.13,244.42L122.66,247.68L138.18,254.41L153.71,253.16L169.24,263.99L184.76,271.74L200.29,290.93L215.82,304.8L231.34,315.94L246.87,320.68L262.39,327.8L277.92,337.66L293.45,339.41L308.97,346.21L340.03,355.56L355.55,360.49L371.08,367.83L386.61,373.91L402.13,378.7L417.66,384.83L448.71,393.66L464.24,397.67L479.76,400.64L495.29,400.91L526.34,397.73L541.87,397.03L572.92,394.56L588.45,392.84L603.97,390.47L619.5,390.24L619.5,377.67L603.97,377.78L572.92,382.08L557.39,383.56L526.34,384.8L510.82,386.57L495.29,389.09L479.76,389.67L464.24,387.2L448.71,383.48L433.18,379.42L417.66,373.8L386.61,358.8L371.08,349.86L355.55,338.91L340.03,330.49L308.97,312.34L293.45,299.15L277.92,291.4L262.39,271.85L231.34,233.53L215.82,200.98L200.29,166.4L184.76,123.7L169.24,100.43L153.71,70.85L138.18,60.58L122.66,37.4L91.61,19.09L76.08,53.13L60.55,78.01L45.03,118.75L29.5,135.75L29.5,299.95" style="vector-effect: non-scaling-stroke; fill: none; stroke: rgb(0, 0, 0); stroke-opacity: 0; stroke-width: 1.88976px; opacity: 1;"/></g><g class="points"/><g class="text"/></g><g class="trace scatter tracec280bf" style="stroke-miterlimit: 2; opacity: 1;"><g class="fills"/><g class="errorbars"/><g class="lines"><path class="js-line" d="M29.5,227.1L45.03,210.24L60.55,178.61L76.08,162.18L91.61,141.3L107.13,151.41L122.66,158.79L138.18,173.38L153.71,175.62L169.24,194.51L184.76,208.21L200.29,237.79L215.82,260.8L231.34,280.7L246.87,291.19L262.39,303.27L277.92,316.86L293.45,321.34L308.97,330.74L355.55,350.45L371.08,359.34L386.61,366.7L402.13,372.58L417.66,379.48L433.18,384.65L464.24,392.59L479.76,395.31L495.29,395.17L510.82,392.99L541.87,390.71L557.39,389.85L588.45,386.68L603.97,384.24L619.5,384.1" style="vector-effect: non-scaling-stroke; fill: none; stroke: rgb(117, 112, 179); stroke-opacity: 1; stroke-width: 4.72441px; opacity: 1;"/></g><g class="points"/><g class="text"/></g><g class="trace scatter tracea34f00" style="stroke-miterlimit: 2; opacity: 1;"><g class="fills"/><g class="errorbars"/><g class="lines"><path class="js-line" d="M0,375.12L649,375.12" style="vector-effect: non-scaling-stroke; fill: none; stroke: rgb(255, 0, 0); stroke-opacity: 1; stroke-width: 3.77953px; opacity: 1; stroke-dasharray: 11.3386px, 11.3386px;"/></g><g class="points"/><g class="text"/></g></g></g><g class="overplot"/><path class="xlines-above crisp" d="" style="fill: none; stroke-width: 1px; stroke: rgb(0, 0, 0); stroke-opacity: 0;"/><path class="ylines-above crisp" d="" style="fill: none; stroke-width: 1px; stroke: rgb(0, 0, 0); stroke-opacity: 0;"/><g class="overlines-above"/><g class="xaxislayer-above"><path class="xtick ticks crisp" d="M0,447v3.65296803652968" transform="translate(120.08,0)" style="stroke: rgb(51, 51, 51); stroke-opacity: 1; stroke-width: 0.664176px;"/><path class="xtick ticks crisp" d="M0,447v3.65296803652968" transform="translate(228.76,0)" style="stroke: rgb(51, 51, 51); stroke-opacity: 1; stroke-width: 0.664176px;"/><path class="xtick ticks crisp" d="M0,447v3.65296803652968" transform="translate(337.45,0)" style="stroke: rgb(51, 51, 51); stroke-opacity: 1; stroke-width: 0.664176px;"/><path class="xtick ticks crisp" d="M0,447v3.65296803652968" transform="translate(446.13,0)" style="stroke: rgb(51, 51, 51); stroke-opacity: 1; stroke-width: 0.664176px;"/><path class="xtick ticks crisp" d="M0,447v3.65296803652968" transform="translate(554.8199999999999,0)" style="stroke: rgb(51, 51, 51); stroke-opacity: 1; stroke-width: 0.664176px;"/><path class="xtick ticks crisp" d="M0,447v3.65296803652968" transform="translate(663.5,0)" style="stroke: rgb(51, 51, 51); stroke-opacity: 1; stroke-width: 0.664176px;"/><g class="xtick"><text text-anchor="middle" x="0" y="469.7812370278123" transform="translate(120.08,0)" style="font-family: 'Open Sans', verdana, arial, sans-serif; font-size: 15.9402px; fill: rgb(77, 77, 77); fill-opacity: 1; white-space: pre;">09/Mar</text></g><g class="xtick"><text text-anchor="middle" x="0" y="469.7812370278123" transform="translate(228.76,0)" style="font-family: 'Open Sans', verdana, arial, sans-serif; font-size: 15.9402px; fill: rgb(77, 77, 77); fill-opacity: 1; white-space: pre;">16/Mar</text></g><g class="xtick"><text text-anchor="middle" x="0" y="469.7812370278123" transform="translate(337.45,0)" style="font-family: 'Open Sans', verdana, arial, sans-serif; font-size: 15.9402px; fill: rgb(77, 77, 77); fill-opacity: 1; white-space: pre;">23/Mar</text></g><g class="xtick"><text text-anchor="middle" x="0" y="469.7812370278123" transform="translate(446.13,0)" style="font-family: 'Open Sans', verdana, arial, sans-serif; font-size: 15.9402px; fill: rgb(77, 77, 77); fill-opacity: 1; white-space: pre;">30/Mar</text></g><g class="xtick"><text text-anchor="middle" x="0" y="469.7812370278123" transform="translate(554.8199999999999,0)" style="font-family: 'Open Sans', verdana, arial, sans-serif; font-size: 15.9402px; fill: rgb(77, 77, 77); fill-opacity: 1; white-space: pre;">06/Apr</text></g><g class="xtick"><text text-anchor="middle" x="0" y="469.7812370278123" transform="translate(663.5,0)" style="font-family: 'Open Sans', verdana, arial, sans-serif; font-size: 15.9402px; fill: rgb(77, 77, 77); fill-opacity: 1; white-space: pre;">13/Apr</text></g></g><g class="yaxislayer-above"><path class="ytick ticks crisp" d="M43,0h-3.65296803652968" transform="translate(0,401.12)" style="stroke: rgb(51, 51, 51); stroke-opacity: 1; stroke-width: 0.664176px;"/><path class="ytick ticks crisp" d="M43,0h-3.65296803652968" transform="translate(0,308.19)" style="stroke: rgb(51, 51, 51); stroke-opacity: 1; stroke-width: 0.664176px;"/><path class="ytick ticks crisp" d="M43,0h-3.65296803652968" transform="translate(0,215.25)" style="stroke: rgb(51, 51, 51); stroke-opacity: 1; stroke-width: 0.664176px;"/><path class="ytick ticks crisp" d="M43,0h-3.65296803652968" transform="translate(0,122.32)" style="stroke: rgb(51, 51, 51); stroke-opacity: 1; stroke-width: 0.664176px;"/><path class="ytick ticks crisp" d="M43,0h-3.65296803652968" transform="translate(0,29.39)" style="stroke: rgb(51, 51, 51); stroke-opacity: 1; stroke-width: 0.664176px;"/><g class="ytick"><text text-anchor="end" x="36.15898713158988" y="5.5790784557907696" transform="translate(0,401.12)" style="font-family: 'Open Sans', verdana, arial, sans-serif; font-size: 15.9402px; fill: rgb(77, 77, 77); fill-opacity: 1; white-space: pre;">1</text></g><g class="ytick"><text text-anchor="end" x="36.15898713158988" y="5.5790784557907696" transform="translate(0,308.19)" style="font-family: 'Open Sans', verdana, arial, sans-serif; font-size: 15.9402px; fill: rgb(77, 77, 77); fill-opacity: 1; white-space: pre;">2</text></g><g class="ytick"><text text-anchor="end" x="36.15898713158988" y="5.5790784557907696" transform="translate(0,215.25)" style="font-family: 'Open Sans', verdana, arial, sans-serif; font-size: 15.9402px; fill: rgb(77, 77, 77); fill-opacity: 1; white-space: pre;">3</text></g><g class="ytick"><text text-anchor="end" x="36.15898713158988" y="5.5790784557907696" transform="translate(0,122.32)" style="font-family: 'Open Sans', verdana, arial, sans-serif; font-size: 15.9402px; fill: rgb(77, 77, 77); fill-opacity: 1; white-space: pre;">4</text></g><g class="ytick"><text text-anchor="end" x="36.15898713158988" y="5.5790784557907696" transform="translate(0,29.39)" style="font-family: 'Open Sans', verdana, arial, sans-serif; font-size: 15.9402px; fill: rgb(77, 77, 77); fill-opacity: 1; white-space: pre;">5</text></g></g><g class="overaxes-above"/></g></g><g class="polarlayer"/><g class="ternarylayer"/><g class="geolayer"/><g class="funnelarealayer"/><g class="pielayer"/><g class="treemaplayer"/><g class="sunburstlayer"/><g class="glimages"/><defs id="topdefs-ecfc92"><g class="clips"/></defs><g class="layer-above"><g class="imagelayer"/><g class="shapelayer"><path data-index="0" fill-rule="evenodd" d="M44,446H693V26H44Z" style="opacity: 1; stroke: rgb(51, 51, 51); stroke-opacity: 1; fill: rgb(0, 0, 0); fill-opacity: 0; stroke-width: 0.664176px;"/></g></g><g class="infolayer"><g class="g-gtitle"/><g class="g-xtitle" transform="translate(0,-15.790784557907955)"><text class="xtitle" x="368.5" y="511.7907845579079" text-anchor="middle" style="font-family: 'Open Sans', verdana, arial, sans-serif; font-size: 18.6px; fill: rgb(0, 0, 0); opacity: 1; font-weight: normal; white-space: pre;"><tspan style="font-weight:bold">  </tspan></text></g><g class="g-ytitle" transform="translate(20.1943359375,0)"><text class="ytitle" transform="rotate(-90,-3.193856371938601,236)" x="-3.193856371938601" y="236" text-anchor="middle" style="font-family: 'Open Sans', verdana, arial, sans-serif; font-size: 18.6px; fill: rgb(0, 0, 0); opacity: 1; font-weight: normal; white-space: pre;"><tspan style="font-weight:bold"> Número de reprodução da epidemia </tspan></text></g></g></svg>