<svg class="main-svg" xmlns="http://www.w3.org/2000/svg" xmlns:xlink="http://www.w3.org/1999/xlink" width="700" height="500" viewBox="0 0 700 500"><rect x="0" y="0" width="700" height="500" style="fill: rgb(255, 255, 255); fill-opacity: 1;"/><defs id="defs-13aae8"><g class="clips"><clipPath id="clip13aae8xyplot" class="plotclip"><rect width="632" height="425"/></clipPath><clipPath class="axesclip" id="clip13aae8x"><rect x="61" y="0" width="632" height="500"/></clipPath><clipPath class="axesclip" id="clip13aae8y"><rect x="0" y="26" width="700" height="425"/></clipPath><clipPath class="axesclip" id="clip13aae8xy"><rect x="61" y="26" width="632" height="425"/></clipPath></g><g class="gradients"/></defs><g class="bglayer"/><g class="layer-below"><g class="imagelayer"/><g class="shapelayer"/></g><g class="cartesianlayer"><g class="subplot xy"><g class="layer-subplot"><g class="shapelayer"/><g class="imagelayer"/></g><g class="gridlayer"><g class="x"><path class="xgrid crisp" transform="translate(153.57,0)" d="M0,26v425" style="stroke: rgb(235, 235, 235); stroke-opacity: 1; stroke-width: 0.664176px;"/><path class="xgrid crisp" transform="translate(281.24,0)" d="M0,26v425" style="stroke: rgb(235, 235, 235); stroke-opacity: 1; stroke-width: 0.664176px;"/><path class="xgrid crisp" transform="translate(408.92,0)" d="M0,26v425" style="stroke: rgb(235, 235, 235); stroke-opacity: 1; stroke-width: 0.664176px;"/><path class="xgrid crisp" transform="translate(536.6,0)" d="M0,26v425" style="stroke: rgb(235, 235, 235); stroke-opacity: 1; stroke-width: 0.664176px;"/><path class="xgrid crisp" transform="translate(664.27,0)" d="M0,26v425" style="stroke: rgb(235, 235, 235); stroke-opacity: 1; stroke-width: 0.664176px;"/></g><g class="y"><path class="ygrid crisp" transform="translate(0,364.58)" d="M61,0h632" style="stroke: rgb(235, 235, 235); stroke-opacity: 1; stroke-width: 0.664176px;"/><path class="ygrid crisp" transform="translate(0,210.62)" d="M61,0h632" style="stroke: rgb(235, 235, 235); stroke-opacity: 1; stroke-width: 0.664176px;"/><path class="ygrid crisp" transform="translate(0,70.14)" d="M61,0h632" style="stroke: rgb(235, 235, 235); stroke-opacity: 1; stroke-width: 0.664176px;"/></g></g><g class="zerolinelayer"/><path class="xlines-below"/><path class="ylines-below"/><g class="overlines-below"/><g class="xaxislayer-below"/><g class="yaxislayer-below"/><g class="overaxes-below"/><g class="plot" transform="translate(61, 26)" clip-path="url('#clip13aae8xyplot')"><g class="scatterlayer mlayer"><g class="trace scatter trace6fdf31" style="stroke-miterlimit: 2; opacity: 1;"><g class="fills"/><g class="errorbars"/><g class="lines"/><g class="points"><path class="point" transform="translate(28.73,396.99)" d="M3.78,0A3.78,3.78 0 1,1 0,-3.78A3.78,3.78 0 0,1 3.78,0Z" style="opacity: 1; stroke-width: 1.88976px; fill: rgb(0, 0, 139); fill-opacity: 1; stroke: rgb(0, 0, 139); stroke-opacity: 1;"/><path class="point" transform="translate(92.57,361.89)" d="M3.78,0A3.78,3.78 0 1,1 0,-3.78A3.78,3.78 0 0,1 3.78,0Z" style="opacity: 1; stroke-width: 1.88976px; fill: rgb(0, 0, 139); fill-opacity: 1; stroke: rgb(0, 0, 139); stroke-opacity: 1;"/><path class="point" transform="translate(156.4,361.89)" d="M3.78,0A3.78,3.78 0 1,1 0,-3.78A3.78,3.78 0 0,1 3.78,0Z" style="opacity: 1; stroke-width: 1.88976px; fill: rgb(0, 0, 139); fill-opacity: 1; stroke: rgb(0, 0, 139); stroke-opacity: 1;"/><path class="point" transform="translate(220.24,322.57)" d="M3.78,0A3.78,3.78 0 1,1 0,-3.78A3.78,3.78 0 0,1 3.78,0Z" style="opacity: 1; stroke-width: 1.88976px; fill: rgb(0, 0, 139); fill-opacity: 1; stroke: rgb(0, 0, 139); stroke-opacity: 1;"/><path class="point" transform="translate(284.08,268.24)" d="M3.78,0A3.78,3.78 0 1,1 0,-3.78A3.78,3.78 0 0,1 3.78,0Z" style="opacity: 1; stroke-width: 1.88976px; fill: rgb(0, 0, 139); fill-opacity: 1; stroke: rgb(0, 0, 139); stroke-opacity: 1;"/><path class="point" transform="translate(347.92,218.04)" d="M3.78,0A3.78,3.78 0 1,1 0,-3.78A3.78,3.78 0 0,1 3.78,0Z" style="opacity: 1; stroke-width: 1.88976px; fill: rgb(0, 0, 139); fill-opacity: 1; stroke: rgb(0, 0, 139); stroke-opacity: 1;"/><path class="point" transform="translate(411.76,187.21)" d="M3.78,0A3.78,3.78 0 1,1 0,-3.78A3.78,3.78 0 0,1 3.78,0Z" style="opacity: 1; stroke-width: 1.88976px; fill: rgb(0, 0, 139); fill-opacity: 1; stroke: rgb(0, 0, 139); stroke-opacity: 1;"/><path class="point" transform="translate(475.6,160.25)" d="M3.78,0A3.78,3.78 0 1,1 0,-3.78A3.78,3.78 0 0,1 3.78,0Z" style="opacity: 1; stroke-width: 1.88976px; fill: rgb(0, 0, 139); fill-opacity: 1; stroke: rgb(0, 0, 139); stroke-opacity: 1;"/><path class="point" transform="translate(539.43,95.99)" d="M3.78,0A3.78,3.78 0 1,1 0,-3.78A3.78,3.78 0 0,1 3.78,0Z" style="opacity: 1; stroke-width: 1.88976px; fill: rgb(0, 0, 139); fill-opacity: 1; stroke: rgb(0, 0, 139); stroke-opacity: 1;"/><path class="point" transform="translate(603.27,75.91)" d="M3.78,0A3.78,3.78 0 1,1 0,-3.78A3.78,3.78 0 0,1 3.78,0Z" style="opacity: 1; stroke-width: 1.88976px; fill: rgb(0, 0, 139); fill-opacity: 1; stroke: rgb(0, 0, 139); stroke-opacity: 1;"/></g><g class="text"/></g><g class="trace scatter traced3cc9a" style="stroke-miterlimit: 2; opacity: 1;"><g class="fills"/><g class="errorbars"/><g class="lines"><path class="js-line" d="M28.73,405.68L603.27,119.88" style="vector-effect: non-scaling-stroke; fill: none; stroke: rgb(0, 0, 0); stroke-opacity: 1; stroke-width: 1.88976px; opacity: 1;"/></g><g class="points"/><g class="text"/></g><g class="trace scatter trace8367b5" style="stroke-miterlimit: 2; opacity: 1;"><g class="fills"><g><path class="js-fill" d="M347.92,290.11L475.6,254.64L539.43,237.46L603.27,220.44L603.27,220.44L603.27,19.32L411.76,158.19L347.92,203.7L347.92,290.11Z" style="fill: rgb(51, 51, 51); fill-opacity: 0.2; stroke-width: 0;"/></g></g><g class="errorbars"/><g class="lines"><path class="js-line" d="M347.92,290.11L475.6,254.64L539.43,237.46L603.27,220.44L603.27,220.44L603.27,19.32L411.76,158.19L347.92,203.7L347.92,290.11" style="vector-effect: non-scaling-stroke; fill: none; stroke: rgb(0, 0, 0); stroke-opacity: 0; stroke-width: 1.88976px; opacity: 1;"/></g><g class="points"/><g class="text"/></g></g></g><g class="overplot"/><path class="xlines-above crisp" d="" style="fill: none; stroke-width: 1px; stroke: rgb(0, 0, 0); stroke-opacity: 0;"/><path class="ylines-above crisp" d="" style="fill: none; stroke-width: 1px; stroke: rgb(0, 0, 0); stroke-opacity: 0;"/><g class="overlines-above"/><g class="xaxislayer-above"><path class="xtick ticks crisp" d="M0,452v3.65296803652968" transform="translate(153.57,0)" style="stroke: rgb(51, 51, 51); stroke-opacity: 1; stroke-width: 0.664176px;"/><path class="xtick ticks crisp" d="M0,452v3.65296803652968" transform="translate(281.24,0)" style="stroke: rgb(51, 51, 51); stroke-opacity: 1; stroke-width: 0.664176px;"/><path class="xtick ticks crisp" d="M0,452v3.65296803652968" transform="translate(408.92,0)" style="stroke: rgb(51, 51, 51); stroke-opacity: 1; stroke-width: 0.664176px;"/><path class="xtick ticks crisp" d="M0,452v3.65296803652968" transform="translate(536.6,0)" style="stroke: rgb(51, 51, 51); stroke-opacity: 1; stroke-width: 0.664176px;"/><path class="xtick ticks crisp" d="M0,452v3.65296803652968" transform="translate(664.27,0)" style="stroke: rgb(51, 51, 51); stroke-opacity: 1; stroke-width: 0.664176px;"/><g class="xtick"><text text-anchor="middle" x="0" y="474.7812370278123" transform="translate(153.57,0)" style="font-family: 'Open Sans', verdana, arial, sans-serif; font-size: 15.9402px; fill: rgb(77, 77, 77); fill-opacity: 1; white-space: pre;">08/mar</text></g><g class="xtick"><text text-anchor="middle" x="0" y="474.7812370278123" transform="translate(281.24,0)" style="font-family: 'Open Sans', verdana, arial, sans-serif; font-size: 15.9402px; fill: rgb(77, 77, 77); fill-opacity: 1; white-space: pre;">10/mar</text></g><g class="xtick"><text text-anchor="middle" x="0" y="474.7812370278123" transform="translate(408.92,0)" style="font-family: 'Open Sans', verdana, arial, sans-serif; font-size: 15.9402px; fill: rgb(77, 77, 77); fill-opacity: 1; white-space: pre;">12/mar</text></g><g class="xtick"><text text-anchor="middle" x="0" y="474.7812370278123" transform="translate(536.6,0)" style="font-family: 'Open Sans', verdana, arial, sans-serif; font-size: 15.9402px; fill: rgb(77, 77, 77); fill-opacity: 1; white-space: pre;">14/mar</text></g><g class="xtick"><text text-anchor="middle" x="0" y="474.7812370278123" transform="translate(664.27,0)" style="font-family: 'Open Sans', verdana, arial, sans-serif; font-size: 15.9402px; fill: rgb(77, 77, 77); fill-opacity: 1; white-space: pre;">16/mar</text></g></g><g class="yaxislayer-above"><path class="ytick ticks crisp" d="M60,0h-3.65296803652968" transform="translate(0,364.58)" style="stroke: rgb(51, 51, 51); stroke-opacity: 1; stroke-width: 0.664176px;"/><path class="ytick ticks crisp" d="M60,0h-3.65296803652968" transform="translate(0,210.62)" style="stroke: rgb(51, 51, 51); stroke-opacity: 1; stroke-width: 0.664176px;"/><path class="ytick ticks crisp" d="M60,0h-3.65296803652968" transform="translate(0,70.14)" style="stroke: rgb(51, 51, 51); stroke-opacity: 1; stroke-width: 0.664176px;"/><g class="ytick"><text text-anchor="end" x="53.15898713158988" y="5.5790784557907696" transform="translate(0,364.58)" style="font-family: 'Open Sans', verdana, arial, sans-serif; font-size: 15.9402px; fill: rgb(77, 77, 77); fill-opacity: 1; white-space: pre;">30</text></g><g class="ytick"><text text-anchor="end" x="53.15898713158988" y="5.5790784557907696" transform="translate(0,210.62)" style="font-family: 'Open Sans', verdana, arial, sans-serif; font-size: 15.9402px; fill: rgb(77, 77, 77); fill-opacity: 1; white-space: pre;">100</text></g><g class="ytick"><text text-anchor="end" x="53.15898713158988" y="5.5790784557907696" transform="translate(0,70.14)" style="font-family: 'Open Sans', verdana, arial, sans-serif; font-size: 15.9402px; fill: rgb(77, 77, 77); fill-opacity: 1; white-space: pre;">300</text></g></g><g class="overaxes-above"/></g></g><g class="polarlayer"/><g class="ternarylayer"/><g class="geolayer"/><g class="funnelarealayer"/><g class="pielayer"/><g class="treemaplayer"/><g class="sunburstlayer"/><g class="glimages"/><defs id="topdefs-13aae8"><g class="clips"/></defs><g class="layer-above"><g class="imagelayer"/><g class="shapelayer"><path data-index="0" fill-rule="evenodd" d="M61,451H693V26H61Z" style="opacity: 1; stroke: rgb(51, 51, 51); stroke-opacity: 1; fill: rgb(0, 0, 0); fill-opacity: 0; stroke-width: 0.664176px;"/></g></g><g class="infolayer"><g class="g-gtitle"/><g class="g-xtitle"/><g class="g-ytitle" transform="translate(3.1943359375,0)"><text class="ytitle" transform="rotate(-90,13.806143628061399,238.5)" x="13.806143628061399" y="238.5" text-anchor="middle" style="font-family: 'Open Sans', verdana, arial, sans-serif; font-size: 18.6px; fill: rgb(0, 0, 0); opacity: 1; font-weight: normal; white-space: pre;"><tspan style="font-weight:bold"> log (Número de casos) </tspan></text></g></g></svg>