<svg class="main-svg" xmlns="http://www.w3.org/2000/svg" xmlns:xlink="http://www.w3.org/1999/xlink" width="700" height="500" viewBox="0 0 700 500"><rect x="0" y="0" width="700" height="500" style="fill: rgb(255, 255, 255); fill-opacity: 1;"/><defs id="defs-fd8592"><g class="clips"><clipPath id="clipfd8592xyplot" class="plotclip"><rect width="629" height="424"/></clipPath><clipPath class="axesclip" id="clipfd8592x"><rect x="64" y="0" width="629" height="500"/></clipPath><clipPath class="axesclip" id="clipfd8592y"><rect x="0" y="26" width="700" height="424"/></clipPath><clipPath class="axesclip" id="clipfd8592xy"><rect x="64" y="26" width="629" height="424"/></clipPath></g><g class="gradients"/></defs><g class="bglayer"/><g class="layer-below"><g class="imagelayer"/><g class="shapelayer"/></g><g class="cartesianlayer"><g class="subplot xy"><g class="layer-subplot"><g class="shapelayer"/><g class="imagelayer"/></g><g class="gridlayer"><g class="x"><path class="xgrid crisp" transform="translate(156.13,0)" d="M0,26v424" style="stroke: rgb(235, 235, 235); stroke-opacity: 1; stroke-width: 0.664176px;"/><path class="xgrid crisp" transform="translate(283.2,0)" d="M0,26v424" style="stroke: rgb(235, 235, 235); stroke-opacity: 1; stroke-width: 0.664176px;"/><path class="xgrid crisp" transform="translate(410.27,0)" d="M0,26v424" style="stroke: rgb(235, 235, 235); stroke-opacity: 1; stroke-width: 0.664176px;"/><path class="xgrid crisp" transform="translate(537.3399999999999,0)" d="M0,26v424" style="stroke: rgb(235, 235, 235); stroke-opacity: 1; stroke-width: 0.664176px;"/><path class="xgrid crisp" transform="translate(664.41,0)" d="M0,26v424" style="stroke: rgb(235, 235, 235); stroke-opacity: 1; stroke-width: 0.664176px;"/></g><g class="y"><path class="ygrid crisp" transform="translate(0,363.78)" d="M64,0h629" style="stroke: rgb(235, 235, 235); stroke-opacity: 1; stroke-width: 0.664176px;"/><path class="ygrid crisp" transform="translate(0,210.19)" d="M64,0h629" style="stroke: rgb(235, 235, 235); stroke-opacity: 1; stroke-width: 0.664176px;"/><path class="ygrid crisp" transform="translate(0,70.03)" d="M64,0h629" style="stroke: rgb(235, 235, 235); stroke-opacity: 1; stroke-width: 0.664176px;"/></g></g><g class="zerolinelayer"/><path class="xlines-below"/><path class="ylines-below"/><g class="overlines-below"/><g class="xaxislayer-below"/><g class="yaxislayer-below"/><g class="overaxes-below"/><g class="plot" transform="translate(64, 26)" clip-path="url('#clipfd8592xyplot')"><g class="scatterlayer mlayer"><g class="trace scatter trace49c521" style="stroke-miterlimit: 2; opacity: 1;"><g class="fills"/><g class="errorbars"/><g class="lines"/><g class="points"><path class="point" transform="translate(28.59,396.05)" d="M3.78,0A3.78,3.78 0 1,1 0,-3.78A3.78,3.78 0 0,1 3.78,0Z" style="opacity: 1; stroke-width: 1.88976px; fill: rgb(0, 0, 139); fill-opacity: 1; stroke: rgb(0, 0, 139); stroke-opacity: 1;"/><path class="point" transform="translate(92.13,361.04)" d="M3.78,0A3.78,3.78 0 1,1 0,-3.78A3.78,3.78 0 0,1 3.78,0Z" style="opacity: 1; stroke-width: 1.88976px; fill: rgb(0, 0, 139); fill-opacity: 1; stroke: rgb(0, 0, 139); stroke-opacity: 1;"/><path class="point" transform="translate(155.66,361.04)" d="M3.78,0A3.78,3.78 0 1,1 0,-3.78A3.78,3.78 0 0,1 3.78,0Z" style="opacity: 1; stroke-width: 1.88976px; fill: rgb(0, 0, 139); fill-opacity: 1; stroke: rgb(0, 0, 139); stroke-opacity: 1;"/><path class="point" transform="translate(219.2,321.82)" d="M3.78,0A3.78,3.78 0 1,1 0,-3.78A3.78,3.78 0 0,1 3.78,0Z" style="opacity: 1; stroke-width: 1.88976px; fill: rgb(0, 0, 139); fill-opacity: 1; stroke: rgb(0, 0, 139); stroke-opacity: 1;"/><path class="point" transform="translate(282.73,267.61)" d="M3.78,0A3.78,3.78 0 1,1 0,-3.78A3.78,3.78 0 0,1 3.78,0Z" style="opacity: 1; stroke-width: 1.88976px; fill: rgb(0, 0, 139); fill-opacity: 1; stroke: rgb(0, 0, 139); stroke-opacity: 1;"/><path class="point" transform="translate(346.27,217.53)" d="M3.78,0A3.78,3.78 0 1,1 0,-3.78A3.78,3.78 0 0,1 3.78,0Z" style="opacity: 1; stroke-width: 1.88976px; fill: rgb(0, 0, 139); fill-opacity: 1; stroke: rgb(0, 0, 139); stroke-opacity: 1;"/><path class="point" transform="translate(409.8,186.77)" d="M3.78,0A3.78,3.78 0 1,1 0,-3.78A3.78,3.78 0 0,1 3.78,0Z" style="opacity: 1; stroke-width: 1.88976px; fill: rgb(0, 0, 139); fill-opacity: 1; stroke: rgb(0, 0, 139); stroke-opacity: 1;"/><path class="point" transform="translate(473.34,159.87)" d="M3.78,0A3.78,3.78 0 1,1 0,-3.78A3.78,3.78 0 0,1 3.78,0Z" style="opacity: 1; stroke-width: 1.88976px; fill: rgb(0, 0, 139); fill-opacity: 1; stroke: rgb(0, 0, 139); stroke-opacity: 1;"/><path class="point" transform="translate(536.87,95.76)" d="M3.78,0A3.78,3.78 0 1,1 0,-3.78A3.78,3.78 0 0,1 3.78,0Z" style="opacity: 1; stroke-width: 1.88976px; fill: rgb(0, 0, 139); fill-opacity: 1; stroke: rgb(0, 0, 139); stroke-opacity: 1;"/><path class="point" transform="translate(600.41,75.73)" d="M3.78,0A3.78,3.78 0 1,1 0,-3.78A3.78,3.78 0 0,1 3.78,0Z" style="opacity: 1; stroke-width: 1.88976px; fill: rgb(0, 0, 139); fill-opacity: 1; stroke: rgb(0, 0, 139); stroke-opacity: 1;"/></g><g class="text"/></g><g class="trace scatter trace74dcd8" style="stroke-miterlimit: 2; opacity: 1;"><g class="fills"/><g class="errorbars"/><g class="lines"><path class="js-line" d="M28.59,404.73L600.41,119.6" style="vector-effect: non-scaling-stroke; fill: none; stroke: rgb(0, 0, 0); stroke-opacity: 1; stroke-width: 1.88976px; opacity: 1;"/></g><g class="points"/><g class="text"/></g><g class="trace scatter tracef9eaf7" style="stroke-miterlimit: 2; opacity: 1;"><g class="fills"><g><path class="js-fill" d="M346.27,289.43L473.34,254.04L536.87,236.9L600.41,219.92L600.41,219.92L600.41,19.27L409.8,157.82L346.27,203.22L346.27,289.43Z" style="fill: rgb(51, 51, 51); fill-opacity: 0.2; stroke-width: 0;"/></g></g><g class="errorbars"/><g class="lines"><path class="js-line" d="M346.27,289.43L473.34,254.04L536.87,236.9L600.41,219.92L600.41,219.92L600.41,19.27L409.8,157.82L346.27,203.22L346.27,289.43" style="vector-effect: non-scaling-stroke; fill: none; stroke: rgb(0, 0, 0); stroke-opacity: 0; stroke-width: 1.88976px; opacity: 1;"/></g><g class="points"/><g class="text"/></g></g></g><g class="overplot"/><path class="xlines-above crisp" d="" style="fill: none; stroke-width: 1px; stroke: rgb(0, 0, 0); stroke-opacity: 0;"/><path class="ylines-above crisp" d="" style="fill: none; stroke-width: 1px; stroke: rgb(0, 0, 0); stroke-opacity: 0;"/><g class="overlines-above"/><g class="xaxislayer-above"><path class="xtick ticks crisp" d="M0,451v3.65296803652968" transform="translate(156.13,0)" style="stroke: rgb(51, 51, 51); stroke-opacity: 1; stroke-width: 0.664176px;"/><path class="xtick ticks crisp" d="M0,451v3.65296803652968" transform="translate(283.2,0)" style="stroke: rgb(51, 51, 51); stroke-opacity: 1; stroke-width: 0.664176px;"/><path class="xtick ticks crisp" d="M0,451v3.65296803652968" transform="translate(410.27,0)" style="stroke: rgb(51, 51, 51); stroke-opacity: 1; stroke-width: 0.664176px;"/><path class="xtick ticks crisp" d="M0,451v3.65296803652968" transform="translate(537.3399999999999,0)" style="stroke: rgb(51, 51, 51); stroke-opacity: 1; stroke-width: 0.664176px;"/><path class="xtick ticks crisp" d="M0,451v3.65296803652968" transform="translate(664.41,0)" style="stroke: rgb(51, 51, 51); stroke-opacity: 1; stroke-width: 0.664176px;"/><g class="xtick"><text text-anchor="middle" x="0" y="473.7812370278123" transform="translate(156.13,0)" style="font-family: 'Open Sans', verdana, arial, sans-serif; font-size: 15.9402px; fill: rgb(77, 77, 77); fill-opacity: 1; white-space: pre;">08/Mar</text></g><g class="xtick"><text text-anchor="middle" x="0" y="473.7812370278123" transform="translate(283.2,0)" style="font-family: 'Open Sans', verdana, arial, sans-serif; font-size: 15.9402px; fill: rgb(77, 77, 77); fill-opacity: 1; white-space: pre;">10/Mar</text></g><g class="xtick"><text text-anchor="middle" x="0" y="473.7812370278123" transform="translate(410.27,0)" style="font-family: 'Open Sans', verdana, arial, sans-serif; font-size: 15.9402px; fill: rgb(77, 77, 77); fill-opacity: 1; white-space: pre;">12/Mar</text></g><g class="xtick"><text text-anchor="middle" x="0" y="473.7812370278123" transform="translate(537.3399999999999,0)" style="font-family: 'Open Sans', verdana, arial, sans-serif; font-size: 15.9402px; fill: rgb(77, 77, 77); fill-opacity: 1; white-space: pre;">14/Mar</text></g><g class="xtick"><text text-anchor="middle" x="0" y="473.7812370278123" transform="translate(664.41,0)" style="font-family: 'Open Sans', verdana, arial, sans-serif; font-size: 15.9402px; fill: rgb(77, 77, 77); fill-opacity: 1; white-space: pre;">16/Mar</text></g></g><g class="yaxislayer-above"><path class="ytick ticks crisp" d="M63,0h-3.65296803652968" transform="translate(0,363.78)" style="stroke: rgb(51, 51, 51); stroke-opacity: 1; stroke-width: 0.664176px;"/><path class="ytick ticks crisp" d="M63,0h-3.65296803652968" transform="translate(0,210.19)" style="stroke: rgb(51, 51, 51); stroke-opacity: 1; stroke-width: 0.664176px;"/><path class="ytick ticks crisp" d="M63,0h-3.65296803652968" transform="translate(0,70.03)" style="stroke: rgb(51, 51, 51); stroke-opacity: 1; stroke-width: 0.664176px;"/><g class="ytick"><text text-anchor="end" x="56.15898713158988" y="5.5790784557907696" transform="translate(0,363.78)" style="font-family: 'Open Sans', verdana, arial, sans-serif; font-size: 15.9402px; fill: rgb(77, 77, 77); fill-opacity: 1; white-space: pre;">30</text></g><g class="ytick"><text text-anchor="end" x="56.15898713158988" y="5.5790784557907696" transform="translate(0,210.19)" style="font-family: 'Open Sans', verdana, arial, sans-serif; font-size: 15.9402px; fill: rgb(77, 77, 77); fill-opacity: 1; white-space: pre;">100</text></g><g class="ytick"><text text-anchor="end" x="56.15898713158988" y="5.5790784557907696" transform="translate(0,70.03)" style="font-family: 'Open Sans', verdana, arial, sans-serif; font-size: 15.9402px; fill: rgb(77, 77, 77); fill-opacity: 1; white-space: pre;">300</text></g></g><g class="overaxes-above"/></g></g><g class="polarlayer"/><g class="ternarylayer"/><g class="geolayer"/><g class="funnelarealayer"/><g class="pielayer"/><g class="treemaplayer"/><g class="sunburstlayer"/><g class="glimages"/><defs id="topdefs-fd8592"><g class="clips"/></defs><g class="layer-above"><g class="imagelayer"/><g class="shapelayer"><path data-index="0" fill-rule="evenodd" d="M64,450H693V26H64Z" style="opacity: 1; stroke: rgb(51, 51, 51); stroke-opacity: 1; fill: rgb(0, 0, 0); fill-opacity: 0; stroke-width: 0.664176px;"/></g></g><g class="infolayer"><g class="g-gtitle"/><g class="g-xtitle"/><g class="g-ytitle" transform="translate(0.1943359375,0)"><text class="ytitle" transform="rotate(-90,16.8061436280614,238)" x="16.8061436280614" y="238" text-anchor="middle" style="font-family: 'Open Sans', verdana, arial, sans-serif; font-size: 18.6px; fill: rgb(0, 0, 0); opacity: 1; font-weight: normal; white-space: pre;"><tspan style="font-weight:bold"> log (Número de casos) </tspan></text></g></g></svg>